<svg width="69" height="20" viewBox="0 0 69 20" fill="none" xmlns="http://www.w3.org/2000/svg">
<path d="M36.3652 5.0253C36.3652 5.74609 35.7399 6.32648 34.9638 6.32648C34.1877 6.32648 33.5628 5.74609 33.5628 5.0253C33.5628 4.30452 34.1664 3.72413 34.9638 3.72413C35.7618 3.74412 36.3652 4.32472 36.3652 5.0253ZM30.5881 7.64805V7.96844C30.5881 7.96844 29.9201 7.16726 28.4974 7.16726C26.148 7.16726 24.3155 8.82902 24.3155 11.1312C24.3155 13.4135 26.1265 15.0951 28.4974 15.0951C29.9416 15.0951 30.5881 14.2743 30.5881 14.2743V14.6145C30.5881 14.7747 30.7177 14.8945 30.89 14.8945H32.6357V7.36686H30.89C30.7177 7.36746 30.5881 7.50785 30.5881 7.64805ZM30.5881 12.4726C30.2651 12.9131 29.6182 13.2935 28.8423 13.2935C27.4629 13.2935 26.4064 12.4928 26.4064 11.1312C26.4064 9.76981 27.4629 8.96902 28.8423 8.96902C29.5969 8.96902 30.2866 9.36941 30.5881 9.7898V12.4726ZM33.9293 7.36745H35.9985V14.8951H33.9293V7.36745ZM64.8401 7.16706C63.4173 7.16706 62.7489 7.96824 62.7489 7.96824V3.74413H60.6797V14.8951H62.4259C62.5984 14.8951 62.7274 14.7549 62.7274 14.6147V14.2745C62.7274 14.2745 63.3958 15.0953 64.8181 15.0953C67.1679 15.0953 69 13.4141 69 11.1318C69 8.84942 67.1679 7.16706 64.8401 7.16706ZM64.4951 13.2733C63.6973 13.2733 63.0724 12.8933 62.7489 12.4525V9.7698C63.0724 9.36941 63.7621 8.94902 64.4951 8.94902C65.8746 8.94902 66.9308 9.7498 66.9308 11.1112C66.9308 12.4726 65.8748 13.2733 64.4951 13.2733ZM59.6022 10.4308V14.9151H57.5326V10.6508C57.5326 9.40981 57.1015 8.90902 55.9382 8.90902C55.3133 8.90902 54.6664 9.20942 54.2562 9.65001V14.8953H52.1874V7.36766H53.8251C53.9976 7.36766 54.127 7.50785 54.127 7.64805V7.96844C54.7306 7.38765 55.528 7.16726 56.3254 7.16726C57.2309 7.16726 57.9854 7.40785 58.589 7.88824C59.3216 8.44883 59.6022 9.16942 59.6022 10.4308ZM47.1642 7.16706C45.7419 7.16706 45.0735 7.96824 45.0735 7.96824V3.74413H43.0043V14.8951H44.7501C44.9225 14.8951 45.052 14.7549 45.052 14.6147V14.2745C45.052 14.2745 45.7204 15.0953 47.1427 15.0953C49.4925 15.0953 51.3246 13.4141 51.3246 11.1318C51.3461 8.84922 49.514 7.16706 47.1642 7.16706ZM46.8193 13.2733C46.0219 13.2733 45.3969 12.8933 45.0735 12.4525V9.7698C45.3969 9.36941 46.0867 8.94902 46.8193 8.94902C48.1991 8.94902 49.2552 9.7498 49.2552 11.1112C49.2552 12.4726 48.1991 13.2733 46.8193 13.2733ZM41.2151 7.16706C41.84 7.16706 42.1634 7.26746 42.1634 7.26746V9.04902C42.1634 9.04902 40.439 8.50843 39.3614 9.64981V14.9149H37.2918V7.36745H39.038C39.2105 7.36745 39.3394 7.50765 39.3394 7.64785V7.96824C39.7279 7.54765 40.5686 7.16706 41.2151 7.16706ZM19.7245 14.2143C19.6168 13.9741 19.5089 13.7139 19.4012 13.4935C19.2285 13.1333 19.0561 12.7927 18.9055 12.4726L18.884 12.4525C17.3964 9.44941 15.8016 6.40667 14.1201 3.40394L14.0555 3.28353C13.8786 2.97203 13.7062 2.65835 13.5384 2.34256C13.3227 1.98196 13.1073 1.60197 12.7623 1.24138C12.0726 0.440591 11.081 0 10.025 0C8.94697 0 7.97709 0.440594 7.26604 1.20118C6.9426 1.56137 6.7053 1.94177 6.48996 2.30236C6.32173 2.61795 6.14937 2.93163 5.97293 3.24334L5.90811 3.36373C4.24828 6.36647 2.63173 9.40941 1.14439 12.4124L1.12264 12.4522C0.971904 12.7729 0.799201 13.1131 0.626714 13.4731C0.519045 13.6935 0.411375 13.9337 0.303706 14.1939C0.023335 14.9345 -0.06302 15.6353 0.0450801 16.3563C0.282168 17.8578 1.35972 19.1186 2.84728 19.6796C3.40781 19.9 3.98987 20 4.59325 20C4.76574 20 4.98108 19.98 5.15378 19.9598C5.86526 19.8798 6.59806 19.6598 7.30954 19.2794C8.19329 18.8188 9.03397 18.1584 9.98232 17.1975C10.9307 18.1584 11.7929 18.8188 12.6551 19.2794C13.3668 19.6598 14.0994 19.8798 14.8106 19.9598C14.9831 19.9802 15.1989 20 15.3714 20C15.975 20 16.5784 19.9 17.1171 19.6796C18.6262 19.1186 19.6823 17.8378 19.9196 16.3563C20.0908 15.6557 20.0046 14.9553 19.7245 14.2143ZM10.0032 15.2553C8.83909 13.8939 8.08454 12.6127 7.82613 11.532C7.71846 11.0714 7.69672 10.671 7.76153 10.3106C7.80439 9.9902 7.93402 9.7098 8.1065 9.46961C8.51608 8.92942 9.20581 8.58883 10.0034 8.58883C10.8013 8.58883 11.5125 8.90922 11.9006 9.46961C12.073 9.7098 12.2022 9.9904 12.2457 10.3106C12.3101 10.6712 12.2886 11.0914 12.1809 11.532C11.9214 12.5927 11.1669 13.8741 10.0032 15.2553ZM18.6034 16.1963C18.4527 17.2373 17.6981 18.1384 16.6421 18.5388C16.1249 18.7388 15.5641 18.799 15.004 18.7388C14.4652 18.6786 13.926 18.5184 13.3659 18.2184C12.5899 17.8176 11.814 17.1975 10.9085 16.2763C12.331 14.6549 13.1932 13.1731 13.5167 11.8522C13.6676 11.2314 13.6894 10.671 13.6243 10.1502C13.5384 9.64981 13.3442 9.18922 13.0425 8.78882C12.3739 7.88764 11.2528 7.36745 10.003 7.36745C8.75317 7.36745 7.63211 7.90804 6.96392 8.78882C6.66223 9.18922 6.46799 9.64981 6.38185 10.1502C6.29572 10.671 6.31704 11.2514 6.48952 11.8522C6.81275 13.1731 7.6965 14.6747 9.0975 16.2963C8.21375 17.2173 7.41613 17.838 6.64005 18.2384C6.07952 18.5388 5.54096 18.699 5.00218 18.7588C4.42034 18.819 3.85959 18.7388 3.36388 18.5588C2.30786 18.1584 1.55332 17.2573 1.40258 16.2163C1.33798 15.7159 1.38083 15.2155 1.5966 14.6549C1.66099 14.4545 1.76908 14.2545 1.87675 14.0143C2.02771 13.6939 2.19976 13.3533 2.37246 13.0131L2.39422 12.9733C3.88135 9.9902 5.47636 6.94726 7.13619 3.98452L7.20079 3.86413C7.37349 3.56413 7.54598 3.24374 7.71825 2.94334C7.89074 2.62295 8.08454 2.32255 8.32184 2.06216C8.77448 1.58217 9.37786 1.32157 10.0463 1.32157C10.7147 1.32157 11.3181 1.58217 11.7707 2.06216C12.008 2.32315 12.2018 2.62355 12.3743 2.94334C12.547 3.24374 12.7195 3.56413 12.8915 3.86413L12.9564 3.98452C14.5909 6.95957 16.1647 9.96305 17.677 12.9933V13.0133C17.8497 13.3341 18.0005 13.6941 18.1729 14.0149C18.2806 14.2547 18.3885 14.4547 18.4531 14.6551C18.6252 15.1751 18.6898 15.6759 18.6034 16.1963Z" fill="white"/>
</svg>
