<?xml version="1.0" encoding="UTF-8" standalone="no"?>
<!DOCTYPE svg PUBLIC "-//W3C//DTD SVG 1.1//EN" "http://www.w3.org/Graphics/SVG/1.1/DTD/svg11.dtd">
<svg width="100%" height="100%" viewBox="0 0 61 61" version="1.1" xmlns="http://www.w3.org/2000/svg" xmlns:xlink="http://www.w3.org/1999/xlink" xml:space="preserve" xmlns:serif="http://www.serif.com/" style="fill-rule:evenodd;clip-rule:evenodd;stroke-linejoin:round;stroke-miterlimit:2;">
    <g id="alert_sure" transform="matrix(1,0,0,1,0,0.180842)">
        <rect x="0" y="0" width="61" height="60" style="fill:none;"/>
        <clipPath id="_clip1">
            <rect x="0" y="0" width="61" height="60"/>
        </clipPath>
        <g clip-path="url(#_clip1)">
            <g transform="matrix(1.43048,0,0,2.36743,-298.101,-190.645)">
                <ellipse cx="229.714" cy="93.2" rx="20.972" ry="12.672" style="fill:white;"/>
            </g>
            <g id="alert_sure--Group-" serif:id="alert_sure (Group)">
                <path d="M42.123,23.258C41.461,20.313 39.239,18.292 37.148,18.763L36.059,18.928C35.928,18.937 35.797,18.954 35.667,18.98C33.585,19.451 32.426,22.221 33.054,25.174C33.681,28.128 35.937,30.14 38.028,29.67L39.109,29.504C39.243,29.496 39.377,29.479 39.509,29.452C41.626,28.982 42.759,26.211 42.123,23.258Z" style="fill:rgb(255,29,110);fill-rule:nonzero;"/>
                <path d="M7.29,48.999C7.758,48.813 8.015,48.742 8.015,48.742C7.824,48.533 5.75,46.129 8.015,41.686C10.995,35.875 20.212,32.285 20.212,32.285L36.547,31.318C41.173,31.907 45.425,34.162 48.508,37.661C52.716,42.478 51.993,45.501 51.566,46.468C51.528,46.572 51.478,46.672 51.418,46.765C51.418,46.765 52.608,47.155 54.562,47.911C49.092,55.246 40.347,60 30.5,60C21.15,60 12.793,55.713 7.29,48.999Z" style="fill:rgb(255,29,110);fill-rule:nonzero;"/>
                <path d="M10.631,49.976C8.981,49.249 8.044,48.707 8.044,48.707C7.852,48.498 5.779,46.093 8.044,41.65C11.023,35.84 20.24,32.25 20.24,32.25L36.575,31.283C41.201,31.872 45.454,34.127 48.536,37.626C52.623,42.266 52.078,45.274 51.675,46.322C51.718,46.337 51.758,46.36 51.794,46.389C51.843,46.426 51.882,46.474 51.911,46.529C51.939,46.584 51.956,46.644 51.96,46.705C51.963,46.766 51.954,46.828 51.932,46.885C51.91,46.943 51.876,46.995 51.833,47.039C51.789,47.082 51.737,47.116 51.679,47.138L47.933,49.116C47.871,49.146 47.802,49.161 47.733,49.159C47.636,49.16 47.541,49.128 47.465,49.068C47.388,49.009 47.333,48.925 47.309,48.831C47.307,48.822 47.305,48.813 47.303,48.804C43.448,50.682 39.368,52.074 35.155,52.941C33.355,53.338 31.579,53.569 29.848,53.669C29.895,53.69 29.937,53.72 29.974,53.757C30.056,53.838 30.102,53.949 30.102,54.065C30.102,54.18 30.056,54.291 29.974,54.373C29.893,54.454 29.782,54.5 29.666,54.5L29.64,54.5C16.224,53.751 11.014,50.676 10.796,50.545C10.698,50.484 10.628,50.387 10.6,50.274C10.576,50.174 10.587,50.069 10.631,49.976Z" style="fill:rgb(238,229,243);fill-rule:nonzero;"/>
                <path d="M22.416,32.852C21.318,33.182 20.144,33.158 19.061,32.783C17.977,32.407 17.039,31.7 16.38,30.761C13.941,27.424 15.404,23.556 17.46,22.659C19.516,21.761 21.973,23.234 21.973,23.234L20.03,19.583C20.03,19.583 27.95,0.888 36.722,12.187C36.722,12.187 42.315,24.767 40.381,31.867C39.455,35.266 37.49,36.792 35.267,37.312L35.701,40.307L36.425,45.43C36.425,45.43 34.9,46.458 30.483,46.197C24.533,45.848 22.642,42.973 22.642,42.973L22.416,32.852Z" style="fill:rgb(255,192,148);fill-rule:nonzero;"/>
                <path d="M25.163,35.174C26.071,35.76 27.059,36.222 28.098,36.554C30.118,37.253 32.844,37.879 35.258,37.282L35.692,40.274C33.325,40.153 27.803,39.32 25.163,35.174Z"/>
                <path d="M21.972,23.233C22.158,23.35 22.366,23.426 22.583,23.458C22.801,23.49 23.023,23.475 23.234,23.416C23.446,23.357 23.643,23.255 23.812,23.115C23.982,22.975 24.121,22.802 24.219,22.606C25.169,21.125 23.095,16.751 23.095,16.751C23.095,16.751 27.007,17.622 29.42,16.342C31.833,15.061 33.018,11.498 33.018,11.498C33.018,11.498 34.761,15.201 40.127,13.571C45.494,11.942 46.478,4.685 40.789,3.204C35.1,1.723 31.982,4.241 31.982,4.241C31.982,4.241 31.258,-0.986 24.219,1.575C17.807,3.945 16.727,11.977 16.727,11.977C15.582,12.076 14.504,12.561 13.67,13.353C12.836,14.144 12.295,15.195 12.136,16.333C11.395,20.523 16.291,23.555 16.291,23.555C17.157,23.089 18.114,22.819 19.096,22.763C20.077,22.707 21.059,22.868 21.972,23.233Z" style="fill:rgb(64,64,144);fill-rule:nonzero;"/>
                <path d="M30.563,23.547C30.458,23.546 30.357,23.508 30.277,23.439C30.197,23.371 30.144,23.276 30.128,23.172L29.832,20.82C29.817,20.706 29.848,20.59 29.918,20.499C29.988,20.407 30.092,20.347 30.206,20.332C30.321,20.317 30.436,20.348 30.528,20.419C30.619,20.489 30.679,20.592 30.694,20.707L30.999,23.059C31.006,23.116 31.002,23.174 30.987,23.23C30.971,23.286 30.945,23.337 30.909,23.383C30.874,23.428 30.829,23.466 30.779,23.494C30.729,23.522 30.673,23.54 30.616,23.547L30.563,23.547Z" style="fill-rule:nonzero;"/>
                <path d="M37.529,23.025C37.425,23.024 37.325,22.986 37.246,22.917C37.168,22.848 37.117,22.754 37.102,22.651L36.754,20.307C36.746,20.25 36.749,20.192 36.764,20.136C36.778,20.08 36.803,20.027 36.838,19.981C36.873,19.935 36.917,19.896 36.966,19.867C37.016,19.838 37.071,19.818 37.128,19.81C37.186,19.802 37.244,19.806 37.3,19.82C37.356,19.835 37.408,19.86 37.454,19.895C37.5,19.93 37.539,19.973 37.568,20.023C37.598,20.073 37.617,20.128 37.625,20.185L37.973,22.529C37.981,22.591 37.975,22.655 37.956,22.715C37.937,22.775 37.905,22.83 37.863,22.877C37.821,22.924 37.77,22.962 37.712,22.987C37.655,23.013 37.592,23.026 37.529,23.025Z" style="fill-rule:nonzero;"/>
                <path d="M28.642,20.146C28.573,20.145 28.505,20.13 28.441,20.102C28.389,20.077 28.343,20.041 28.305,19.997C28.267,19.953 28.239,19.902 28.221,19.847C28.203,19.791 28.196,19.733 28.201,19.675C28.206,19.618 28.223,19.561 28.25,19.51C29.121,17.829 31.247,18.264 31.342,18.29C31.458,18.315 31.559,18.384 31.624,18.483C31.688,18.581 31.711,18.702 31.686,18.817C31.662,18.933 31.593,19.034 31.494,19.099C31.395,19.163 31.275,19.186 31.159,19.162C31.09,19.162 29.583,18.848 29.025,19.937C28.985,20.002 28.929,20.056 28.861,20.093C28.794,20.13 28.718,20.148 28.642,20.146Z" style="fill:rgb(64,64,144);fill-rule:nonzero;"/>
                <path d="M35.579,16.302C35.492,16.306 35.407,16.281 35.335,16.232C35.287,16.2 35.246,16.158 35.215,16.11C35.183,16.062 35.161,16.008 35.151,15.951C35.14,15.894 35.141,15.836 35.153,15.78C35.166,15.723 35.189,15.67 35.222,15.622C35.37,15.386 35.569,15.185 35.804,15.034C36.039,14.884 36.304,14.787 36.581,14.751C37.386,14.738 38.166,15.027 38.768,15.561C38.811,15.598 38.847,15.643 38.873,15.694C38.899,15.745 38.914,15.8 38.918,15.857C38.922,15.914 38.915,15.971 38.896,16.025C38.878,16.079 38.849,16.129 38.811,16.171C38.728,16.252 38.617,16.297 38.502,16.297C38.386,16.297 38.276,16.252 38.193,16.171C37.777,15.801 37.242,15.591 36.686,15.579C36.53,15.603 36.382,15.661 36.252,15.75C36.122,15.839 36.014,15.956 35.936,16.093C35.899,16.155 35.847,16.207 35.785,16.244C35.722,16.28 35.651,16.3 35.579,16.302Z" style="fill:rgb(64,64,144);fill-rule:nonzero;"/>
                <path d="M29.889,59.994L29.943,58.446C29.943,58.33 29.988,58.219 30.07,58.138C30.152,58.056 30.263,58.01 30.378,58.01C30.494,58.01 30.604,58.056 30.686,58.138C30.768,58.219 30.814,58.33 30.814,58.446L30.76,59.999L30.742,59.999C30.46,60.001 30.177,59.999 29.895,59.994L29.889,59.994Z" style="fill:rgb(238,229,243);fill-rule:nonzero;"/>
                <path d="M42.233,57.615L41.93,57.104C41.873,57.003 41.857,56.884 41.886,56.772C41.916,56.659 41.988,56.563 42.087,56.503C42.187,56.446 42.305,56.43 42.416,56.46C42.527,56.489 42.621,56.561 42.68,56.66L43.035,57.26C42.769,57.382 42.502,57.501 42.233,57.615Z" style="fill:rgb(238,229,243);fill-rule:nonzero;"/>
                <path d="M24.758,26.953C25.141,29.959 23.73,32.607 21.613,32.877C19.496,33.147 17.457,30.943 17.074,27.938C16.691,24.932 18.093,22.292 20.219,22.014C22.345,21.735 24.375,23.956 24.758,26.953Z" style="fill:rgb(255,29,110);fill-rule:nonzero;"/>
                <path d="M20.223,22.014L18.751,22.31L20.144,33.174L21.608,32.878L23.211,31.153L23.682,25.133L20.223,22.014Z" style="fill:rgb(255,29,110);fill-rule:nonzero;"/>
                <path d="M20.925,22.894C22.117,23.723 23.043,25.326 23.289,27.249C23.673,30.254 22.27,32.903 20.144,33.173C18.019,33.443 15.989,31.239 15.605,28.233C15.313,25.943 16.063,23.865 17.373,22.882C16.642,19.733 15.278,13.502 15.613,12.212C16.081,10.881 16.784,9.645 17.687,8.562L20.925,22.894Z" style="fill:rgb(238,229,243);fill-rule:nonzero;"/>
                <g transform="matrix(1,0,0,1,43.3622,16.3286)">
                    <path d="M2.455,5.687L2.471,5.621C2.578,5.194 2.703,4.863 2.844,4.629C2.987,4.396 3.154,4.219 3.343,4.099C3.533,3.979 3.75,3.88 3.995,3.802C4.154,3.748 4.302,3.68 4.438,3.598C4.575,3.516 4.692,3.413 4.79,3.288C4.888,3.163 4.958,3.015 4.999,2.845C5.048,2.64 5.042,2.451 4.981,2.278C4.92,2.106 4.819,1.96 4.677,1.84C4.538,1.72 4.371,1.636 4.175,1.589C3.998,1.546 3.82,1.543 3.641,1.578C3.462,1.613 3.301,1.696 3.157,1.827C3.015,1.956 2.906,2.14 2.831,2.381L1.781,2.129C1.897,1.718 2.085,1.394 2.347,1.154C2.61,0.913 2.917,0.757 3.27,0.685C3.626,0.615 3.997,0.626 4.383,0.718C4.807,0.82 5.159,0.988 5.438,1.223C5.718,1.456 5.912,1.735 6.019,2.06C6.129,2.383 6.139,2.732 6.049,3.108C5.988,3.366 5.892,3.588 5.761,3.776C5.632,3.962 5.473,4.117 5.285,4.243C5.099,4.369 4.887,4.469 4.65,4.544C4.425,4.619 4.236,4.707 4.082,4.809C3.931,4.912 3.807,5.046 3.708,5.213C3.61,5.379 3.527,5.594 3.459,5.858L3.443,5.923L2.455,5.687ZM2.474,7.911C2.285,7.866 2.139,7.76 2.035,7.594C1.932,7.426 1.903,7.246 1.949,7.055C1.994,6.866 2.1,6.721 2.268,6.62C2.437,6.517 2.615,6.488 2.804,6.533C2.99,6.578 3.135,6.684 3.239,6.853C3.345,7.019 3.375,7.197 3.33,7.386C3.3,7.513 3.24,7.621 3.15,7.712C3.063,7.8 2.96,7.863 2.842,7.901C2.723,7.938 2.601,7.941 2.474,7.911ZM9.236,1.983L7.939,7L6.983,6.771L8.1,1.711L9.236,1.983ZM6.96,8.986C6.769,8.94 6.621,8.834 6.517,8.668C6.414,8.5 6.387,8.32 6.435,8.13C6.478,7.94 6.583,7.795 6.751,7.694C6.919,7.591 7.099,7.562 7.29,7.608C7.476,7.653 7.621,7.759 7.725,7.928C7.828,8.094 7.859,8.271 7.816,8.461C7.783,8.587 7.722,8.695 7.632,8.785C7.545,8.874 7.443,8.937 7.324,8.975C7.206,9.012 7.084,9.016 6.96,8.986Z" style="fill:rgb(134,93,255);fill-rule:nonzero;"/>
                </g>
            </g>
        </g>
    </g>
</svg>
