<?xml version="1.0" encoding="UTF-8" standalone="no"?>
<!DOCTYPE svg PUBLIC "-//W3C//DTD SVG 1.1//EN" "http://www.w3.org/Graphics/SVG/1.1/DTD/svg11.dtd">
<svg width="100%" height="100%" viewBox="0 0 62 61" version="1.1" xmlns="http://www.w3.org/2000/svg" xmlns:xlink="http://www.w3.org/1999/xlink" xml:space="preserve" xmlns:serif="http://www.serif.com/" style="fill-rule:evenodd;clip-rule:evenodd;stroke-linejoin:round;stroke-miterlimit:2;">
    <g transform="matrix(1,0,0,1,-66,0)">
        <g id="alert_dont" transform="matrix(1,0,0,1,66.5951,0.180842)">
            <rect x="0" y="0" width="61" height="60" style="fill:none;"/>
            <g transform="matrix(1.43048,0,0,2.36743,-298.101,-190.645)">
                <ellipse cx="229.714" cy="93.2" rx="20.972" ry="12.672" style="fill:white;"/>
            </g>
            <g>
                <g transform="matrix(1,0,0,1,-66.5951,0)">
                    <path d="M126.475,36.09C123.658,49.732 111.566,60 97.095,60C91.343,60 85.967,58.378 81.398,55.565C83.336,52.496 85.997,49.475 89.645,47.147C101.527,39.564 119.004,38.257 119.004,38.257C119.004,38.257 122.219,37.447 126.475,36.09Z" style="fill:rgb(248,71,139);fill-rule:nonzero;"/>
                </g>
                <g transform="matrix(1,0,0,1,-66.5951,0)">
                    <path d="M98.105,36.958L98.094,36.948C97.029,37.342 95.872,37.375 94.788,37.042C93.704,36.709 92.748,36.028 92.055,35.094C89.502,31.775 90.761,27.733 92.738,26.704C94.716,25.675 97.172,27.075 97.172,27.075L95.088,23.367C95.088,23.367 102.093,3.788 111.209,14.987C111.209,14.987 112.177,17.003 113.188,19.914L113.266,20.12C114.9,24.449 116.65,30.665 115.725,35.042L115.722,35.066C114.928,38.786 112.915,40.436 110.614,40.999L110.581,41.007L110.581,43.947L110.634,47.869C110.634,47.869 110.998,48.796 106.635,48.703C100.774,48.62 98.761,46.098 98.761,46.098L98.105,36.958Z" style="fill:rgb(255,192,148);"/>
                </g>
                <path d="M34.113,39.018C35.067,39.691 36.139,40.165 37.263,40.48C39.186,41.072 41.727,41.564 43.992,41.005L43.992,43.948C41.329,43.766 36.577,42.878 34.113,39.018Z"/>
                <g transform="matrix(1,0,0,1,-66.5951,0)">
                    <path d="M94.722,31.177L93.087,29.532C93.046,29.489 93.013,29.439 92.991,29.383C92.968,29.327 92.957,29.268 92.957,29.207C92.957,29.147 92.968,29.087 92.991,29.031C93.013,28.976 93.046,28.925 93.087,28.883C93.129,28.839 93.178,28.805 93.232,28.781C93.286,28.758 93.344,28.746 93.402,28.746C93.461,28.746 93.519,28.758 93.573,28.781C93.627,28.805 93.676,28.839 93.717,28.883L95.908,31.088C95.94,31.112 95.968,31.141 95.992,31.172L97.264,32.452C97.327,32.516 97.371,32.597 97.389,32.687C97.408,32.777 97.401,32.871 97.368,32.956C97.336,33.041 97.28,33.115 97.208,33.167C97.136,33.219 97.05,33.248 96.962,33.249L96.945,33.231C96.887,33.232 96.83,33.222 96.776,33.2C96.723,33.177 96.675,33.144 96.634,33.101L95.516,31.975L93.414,32.413L93.325,32.404C93.223,32.404 93.124,32.367 93.044,32.3C92.965,32.232 92.911,32.138 92.89,32.033C92.869,31.913 92.893,31.789 92.958,31.687C93.022,31.585 93.122,31.513 93.236,31.486L94.722,31.177Z" style="fill-rule:nonzero;"/>
                </g>
                <path d="M36.67,22.467C36.606,22.465 36.543,22.449 36.484,22.421C36.377,22.37 36.294,22.277 36.253,22.163C36.211,22.048 36.215,21.921 36.263,21.809C37.043,20.02 39.171,20.372 39.26,20.39C39.377,20.41 39.483,20.478 39.552,20.578C39.622,20.679 39.651,20.805 39.632,20.928C39.613,21.051 39.548,21.161 39.452,21.234C39.356,21.307 39.235,21.337 39.118,21.317C39.056,21.317 37.566,21.067 37.07,22.244C37.029,22.316 36.97,22.375 36.9,22.414C36.829,22.453 36.75,22.472 36.67,22.467Z" style="fill-rule:nonzero;"/>
                <path d="M43.507,20.933C43.426,20.935 43.346,20.912 43.277,20.868C43.227,20.836 43.184,20.794 43.15,20.744C43.116,20.694 43.092,20.638 43.079,20.579C43.066,20.519 43.064,20.458 43.073,20.398C43.083,20.337 43.104,20.28 43.135,20.228C43.27,19.973 43.458,19.752 43.685,19.582C43.912,19.412 44.172,19.297 44.447,19.246C45.241,19.191 46.025,19.449 46.646,19.969C46.697,20.004 46.741,20.05 46.774,20.104C46.807,20.158 46.829,20.219 46.839,20.282C46.848,20.346 46.845,20.411 46.83,20.473C46.814,20.535 46.786,20.593 46.748,20.643C46.71,20.693 46.662,20.735 46.608,20.765C46.553,20.795 46.494,20.812 46.432,20.817C46.371,20.822 46.31,20.813 46.252,20.791C46.194,20.77 46.141,20.736 46.097,20.692C45.672,20.329 45.137,20.138 44.589,20.154C44.441,20.189 44.302,20.257 44.181,20.353C44.06,20.449 43.961,20.571 43.889,20.71C43.849,20.779 43.794,20.836 43.727,20.875C43.66,20.914 43.584,20.934 43.507,20.933Z" style="fill-rule:nonzero;"/>
                <g transform="matrix(1,0,0,1,-66.5951,0)">
                    <path d="M88.249,31.484C88.29,31.489 88.332,31.494 88.373,31.499L88.327,31.493L88.249,31.484ZM111.293,12.549L111.299,12.575L111.293,12.549ZM111.202,12.222L111.211,12.251L111.202,12.222ZM108.697,16.538C106.881,15.852 106.086,13.492 106.086,13.492C106.086,13.492 106.086,15.55 104.313,19.722C102.539,23.894 97.219,27.064 97.219,27.064L97.113,26.971L97.172,27.075C97.172,27.075 95.875,26.336 94.408,26.327L94.36,26.327C93.822,26.329 93.263,26.431 92.738,26.704C91.437,27.382 90.447,29.363 90.676,31.582L90.681,31.635C90.768,32.776 91.195,33.976 92.055,35.094C92.748,36.028 93.704,36.709 94.788,37.042C95.279,37.193 95.785,37.269 96.291,37.27L96.343,37.269C96.936,37.265 97.528,37.157 98.094,36.948L99.165,37.952C98.854,38.023 98.528,38.086 98.189,38.136L98.424,41.41L86.108,45.943C85.395,43.92 84.991,41.66 84.927,39.345C84.503,36.655 85.388,33.997 86.672,31.551L85.766,29.603C83.602,24.328 84.081,11.508 93.356,6.835C98.618,4.185 104.456,5.804 108.618,8.234L108.901,8.191C108.901,8.191 109.115,8.387 109.444,8.74C112.171,10.494 114.014,12.526 114.221,13.677C114.34,14.344 114.29,15.207 114.139,16.14L115.837,17.841C115.837,17.841 116.851,18.294 118.757,22.16C120.662,26.026 118.757,33.926 118.757,33.926L115.725,35.042C116.65,30.665 114.9,24.449 113.266,20.12L112.803,18.841L112.287,17.497L112.17,17.205C111.1,17.139 110.038,16.957 109.003,16.663L108.718,16.546L108.697,16.538Z" style="fill:rgb(243,239,255);"/>
                </g>
                <g transform="matrix(1,0,0,1,-66.5951,0)">
                    <path d="M85.977,31.095C81.629,30.169 81.248,28.567 81.248,28.567C80.281,28.269 77.122,23.051 76.5,22.244C75.447,20.867 78.444,4.786 93.897,3.558C100.788,3.01 104.998,4.762 107.526,6.891C108.431,7.391 109.171,8.013 109.634,8.787C109.634,8.787 102.508,7.694 95.212,16.906C91.917,20.948 89.45,26.972 86.918,31.614L85.977,31.095Z" style="fill:rgb(245,83,79);"/>
                </g>
                <path d="M21.732,26.942L21.867,26.942C21.972,26.942 22.072,26.894 22.146,26.809C22.221,26.724 22.262,26.608 22.262,26.488C22.262,26.367 22.221,26.252 22.146,26.167C22.072,26.081 21.972,26.033 21.867,26.033C19.94,26.028 18.06,25.35 16.477,24.089C15.111,22.962 13.896,21.612 12.868,20.083C12.807,19.988 12.716,19.924 12.614,19.903C12.513,19.883 12.408,19.908 12.322,19.973C12.279,20.008 12.243,20.052 12.215,20.102C12.187,20.153 12.168,20.21 12.159,20.269C12.15,20.328 12.152,20.388 12.164,20.447C12.175,20.505 12.197,20.561 12.227,20.609C13.292,22.229 14.568,23.651 16.01,24.825C17.691,26.169 19.684,26.906 21.732,26.942Z" style="fill:rgb(83,69,121);fill-rule:nonzero;"/>
                <path d="M25.218,21.068C25.27,21.073 25.321,21.064 25.37,21.041C25.419,21.018 25.464,20.982 25.502,20.935C25.581,20.84 25.629,20.706 25.636,20.561C25.643,20.416 25.609,20.274 25.541,20.164C25.473,20.055 25.377,19.988 25.273,19.978C22.936,19.527 20.639,18.734 18.421,17.612C16.92,16.648 15.268,16.235 13.622,16.412C13.57,16.42 13.521,16.443 13.476,16.478C13.431,16.513 13.392,16.561 13.361,16.618C13.33,16.675 13.307,16.74 13.294,16.81C13.281,16.879 13.278,16.952 13.286,17.023C13.292,17.093 13.307,17.161 13.332,17.223C13.357,17.285 13.39,17.339 13.43,17.383C13.47,17.427 13.516,17.459 13.565,17.477C13.614,17.496 13.665,17.501 13.715,17.492C15.222,17.346 16.731,17.721 18.109,18.582C20.379,19.755 22.734,20.577 25.133,21.035L25.218,21.068Z" style="fill:rgb(83,69,121);fill-rule:nonzero;"/>
                <path d="M30.74,14.027C30.83,14.028 30.919,14.003 30.997,13.952C31.075,13.902 31.139,13.829 31.181,13.742C31.246,13.615 31.263,13.465 31.227,13.325C31.191,13.185 31.106,13.067 30.991,12.995C28.496,11.606 25.772,10.778 22.98,10.562C20.187,10.345 17.384,10.743 14.735,11.734C14.609,11.783 14.507,11.884 14.449,12.016C14.391,12.147 14.382,12.298 14.424,12.436C14.445,12.504 14.479,12.568 14.523,12.622C14.567,12.676 14.621,12.719 14.681,12.75C14.741,12.781 14.806,12.798 14.872,12.801C14.938,12.803 15.004,12.791 15.066,12.765C20.151,10.914 25.7,11.34 30.499,13.95C30.571,14.001 30.654,14.027 30.74,14.027Z" style="fill:rgb(83,69,121);fill-rule:nonzero;"/>
                <path d="M19.408,8.14C19.476,8.158 19.547,8.158 19.616,8.14C24.84,5.354 30.776,5.162 36.119,7.607C36.245,7.674 36.389,7.68 36.519,7.622C36.649,7.564 36.755,7.447 36.814,7.296C36.871,7.148 36.877,6.979 36.83,6.826C36.783,6.672 36.688,6.547 36.565,6.477C33.788,5.175 30.821,4.55 27.839,4.639C24.856,4.729 21.919,5.531 19.2,6.999C19.075,7.066 18.977,7.19 18.927,7.343C18.876,7.496 18.878,7.666 18.93,7.818C18.977,7.919 19.046,8.004 19.131,8.061C19.215,8.118 19.311,8.145 19.408,8.14Z" style="fill:rgb(83,69,121);fill-rule:nonzero;"/>
                <path d="M55.825,17.019L54.984,20.675L54.166,20.507L54.842,16.816L55.825,17.019ZM54.249,22.176C54.094,22.144 53.973,22.063 53.886,21.932C53.8,21.801 53.773,21.658 53.805,21.502C53.836,21.35 53.917,21.23 54.048,21.144C54.18,21.059 54.324,21.032 54.478,21.063C54.629,21.094 54.748,21.175 54.836,21.307C54.925,21.438 54.954,21.58 54.923,21.732C54.901,21.836 54.856,21.924 54.786,21.998C54.718,22.072 54.636,22.126 54.541,22.159C54.448,22.191 54.35,22.197 54.249,22.176ZM58.033,17.474L57.192,21.13L56.374,20.961L57.05,17.271L58.033,17.474ZM56.456,22.631C56.302,22.599 56.181,22.518 56.093,22.387C56.007,22.256 55.98,22.113 56.012,21.957C56.044,21.804 56.125,21.685 56.256,21.599C56.388,21.513 56.531,21.487 56.686,21.518C56.836,21.549 56.956,21.63 57.043,21.761C57.133,21.893 57.162,22.035 57.13,22.187C57.109,22.291 57.063,22.379 56.993,22.453C56.925,22.527 56.843,22.581 56.748,22.614C56.655,22.646 56.558,22.652 56.456,22.631Z" style="fill:rgb(245,83,79);fill-rule:nonzero;"/>
                <path d="M12.211,42.2L13.755,45.619L13.002,45.98L11.306,42.634L12.211,42.2ZM14.078,47.259C13.936,47.327 13.791,47.336 13.641,47.284C13.494,47.232 13.386,47.135 13.317,46.991C13.25,46.851 13.242,46.707 13.294,46.559C13.347,46.411 13.445,46.303 13.587,46.235C13.726,46.168 13.87,46.161 14.019,46.212C14.17,46.262 14.279,46.358 14.346,46.498C14.392,46.593 14.409,46.691 14.398,46.792C14.389,46.893 14.356,46.985 14.301,47.069C14.246,47.151 14.172,47.214 14.078,47.259ZM14.244,41.226L15.788,44.645L15.035,45.006L13.339,41.659L14.244,41.226ZM16.111,46.285C15.969,46.353 15.823,46.362 15.674,46.31C15.526,46.258 15.418,46.161 15.35,46.017C15.282,45.877 15.275,45.733 15.326,45.585C15.38,45.437 15.478,45.329 15.62,45.261C15.759,45.194 15.903,45.186 16.052,45.238C16.202,45.288 16.311,45.384 16.379,45.524C16.424,45.619 16.442,45.717 16.431,45.818C16.421,45.919 16.389,46.011 16.333,46.095C16.278,46.177 16.204,46.24 16.111,46.285Z" style="fill:rgb(245,83,79);fill-rule:nonzero;"/>
                <path d="M38.735,26.74C38.63,26.739 38.529,26.701 38.449,26.632C38.369,26.564 38.316,26.469 38.3,26.365L38.004,24.013C37.989,23.899 38.02,23.783 38.09,23.692C38.16,23.6 38.264,23.54 38.378,23.525C38.493,23.51 38.608,23.541 38.7,23.612C38.791,23.682 38.851,23.785 38.866,23.9L39.171,26.252C39.178,26.309 39.174,26.367 39.159,26.423C39.143,26.479 39.117,26.531 39.081,26.576C39.046,26.622 39.001,26.659 38.951,26.687C38.901,26.715 38.845,26.733 38.788,26.74L38.735,26.74Z" style="fill-rule:nonzero;"/>
                <path d="M45.698,26.219C45.593,26.218 45.493,26.18 45.415,26.111C45.336,26.042 45.285,25.948 45.271,25.844L44.922,23.501C44.914,23.444 44.918,23.385 44.932,23.33C44.947,23.274 44.972,23.221 45.007,23.175C45.042,23.129 45.085,23.09 45.135,23.061C45.185,23.032 45.24,23.012 45.297,23.004C45.354,22.996 45.412,23 45.468,23.014C45.524,23.029 45.577,23.054 45.623,23.089C45.669,23.124 45.708,23.167 45.737,23.217C45.766,23.267 45.785,23.322 45.793,23.379L46.142,25.722C46.149,25.785 46.143,25.848 46.124,25.909C46.105,25.969 46.074,26.024 46.032,26.071C45.99,26.118 45.938,26.155 45.881,26.181C45.823,26.206 45.761,26.219 45.698,26.219Z" style="fill-rule:nonzero;"/>
            </g>
        </g>
    </g>
</svg>
