<svg width="127" height="23" viewBox="0 0 127 23" fill="none" xmlns="http://www.w3.org/2000/svg">
<path d="M25.6979 12.125C25.1342 12.3544 24.5472 12.4418 23.9962 12.6608C23.7412 12.7621 23.6666 12.8925 23.6247 13.1604C23.3126 15.1695 22.4833 16.955 21.1614 18.4959C19.412 20.5353 17.1979 21.7838 14.5412 22.188C11.6435 22.6294 8.97515 22.0028 6.5619 20.3256C4.48175 18.8791 3.12488 16.9084 2.37482 14.5091C2.20361 13.9606 2.09878 13.3864 2.00444 12.818C1.96601 12.5897 1.85653 12.535 1.67134 12.5047C1.14606 12.4197 0.620783 12.33 0 12.2263C0.82577 11.9515 1.58515 11.8245 2.34453 11.7814C5.10254 11.6253 7.68001 12.1984 9.84868 13.985C10.4287 14.4625 10.9703 14.5732 11.6505 14.5592C12.9596 14.5336 14.2699 14.5476 15.579 14.5674C15.9761 14.5732 15.9855 14.4288 15.8375 14.1353C15.3798 13.2256 14.8173 12.3824 14.1639 11.6055C13.3498 10.6377 12.4797 9.72572 11.3441 9.11658C10.3076 8.55985 9.20576 8.2349 8.03874 8.08815C5.93879 7.82377 4.01587 8.33157 2.15236 9.38912C2.18963 8.83822 2.33988 8.34904 2.51109 7.87618C3.73751 4.48574 6.03429 2.1447 9.46433 0.998642C13.7912 -0.447912 18.6608 1.03708 21.4106 4.5696C22.4309 5.88105 23.1565 7.3311 23.5152 8.95818C23.5327 9.03738 23.6107 9.13056 23.5036 9.18297C23.4582 9.2051 23.3673 9.16084 23.3091 9.1259C21.6517 8.14872 19.8476 7.783 17.9503 7.92393C16.3139 8.04622 14.8068 8.58664 13.4662 9.55683C13.2892 9.68495 13.3195 9.77347 13.4639 9.88877C14.5541 10.7646 15.3915 11.8501 16.06 13.0684C16.1974 13.32 16.3372 13.3398 16.5806 13.207C17.9585 12.4604 19.4167 11.9386 20.9739 11.7208C22.5765 11.4972 24.1488 11.6498 25.6967 12.1262L25.6979 12.125Z" fill="white"/>
<path d="M114.55 11.3216C114.55 12.1369 114.538 12.9522 114.554 13.7663C114.576 14.9147 114.5 16.0596 114.482 17.2057C114.476 17.5854 114.227 17.5807 113.99 17.6017C112.179 17.7566 110.364 17.8218 108.548 17.7904C107.046 17.7647 105.561 17.611 104.141 17.0834C102.807 16.5872 101.749 15.7789 101.261 14.3801C101.119 13.9713 101.022 13.5485 101.024 13.1071C101.029 11.303 101.026 9.49773 101.026 7.69361C101.026 6.57667 101.389 6.17019 102.504 6.09681C103.217 6.05023 103.924 6.09914 104.625 6.2657C104.868 6.32277 104.869 6.46253 104.868 6.64422C104.861 8.47745 104.894 10.3119 104.84 12.1439C104.79 13.8525 105.663 14.832 107.188 15.1407C107.645 15.2327 108.108 15.2804 108.574 15.2816C109.142 15.2828 109.709 15.2676 110.276 15.2572C110.558 15.2513 110.665 15.1209 110.675 14.8216C110.764 12.3512 110.741 9.87975 110.745 7.40826C110.746 6.73274 110.964 6.42992 111.627 6.25288C112.549 6.00597 113.464 6.12127 114.377 6.33674C114.641 6.39964 114.583 6.57667 114.584 6.73856C114.588 8.26664 114.586 9.79356 114.586 11.3216C114.575 11.3216 114.563 11.3216 114.553 11.3216H114.55Z" fill="white"/>
<path d="M74.3321 9.02438C74.3321 7.36585 74.3274 5.70732 74.3344 4.04879C74.3379 3.21836 74.6803 2.83052 75.5038 2.69192C76.3027 2.55798 77.0912 2.64067 77.8774 2.80257C78.1313 2.85498 78.2396 2.96329 78.221 3.23933C78.1662 4.07907 78.1255 4.91882 78.129 5.76206C78.1301 6.13942 78.2431 6.27919 78.6298 6.27103C79.6186 6.25123 80.6086 6.26637 81.5986 6.26405C82.4337 6.26172 82.8472 6.67751 82.8576 7.51726C82.8623 7.9843 82.8064 8.43737 82.6934 8.8916C82.627 9.15599 82.5012 9.20607 82.2683 9.20025C81.149 9.17346 80.0309 9.149 78.9117 9.13386C78.1395 9.12338 78.1395 9.13153 78.1383 9.92236C78.1383 11.0871 78.1383 12.2506 78.1383 13.4153C78.1383 14.4728 78.624 15.033 79.6699 15.1623C80.5236 15.2672 81.3563 15.1775 82.132 14.7838C82.3557 14.6708 82.4943 14.6895 82.641 14.891C82.9741 15.3464 83.313 15.7983 83.6648 16.2385C83.8127 16.4225 83.7906 16.5145 83.5926 16.6403C82.7913 17.1528 81.8956 17.3892 80.9778 17.5465C79.4963 17.8004 78.0276 17.741 76.5986 17.2413C75.1928 16.7486 74.3414 15.4174 74.3076 13.9976C74.2692 12.3391 74.2983 10.6794 74.2983 9.01972C74.3099 9.01972 74.3204 9.01972 74.3321 9.01972V9.02438Z" fill="white"/>
<path d="M49.9992 9.12346C49.9992 11.6835 49.9934 14.2435 50.0062 16.8035C50.0074 17.1296 49.9468 17.2647 49.5846 17.2449C48.5562 17.1878 47.5243 17.2891 46.4935 17.1855C46.1755 17.154 46.1208 17.055 46.1243 16.772C46.1499 14.7222 46.1686 12.6735 46.1732 10.6236C46.1814 7.84578 46.1744 5.06681 46.1755 2.28901C46.1755 1.2734 46.5937 0.852941 47.6035 0.755107C48.2755 0.689884 48.9301 0.74113 49.5881 0.861094C49.9002 0.918164 50.0295 1.04395 50.0272 1.40035C50.0074 3.97433 50.0167 6.54947 50.0167 9.12462C50.0109 9.12462 50.0051 9.12462 49.9992 9.12462V9.12346Z" fill="white"/>
<path d="M116.922 13.1062C116.922 11.2159 116.929 9.32672 116.914 7.43759C116.911 7.14991 117.03 7.02412 117.265 6.92046C118.405 6.42197 119.602 6.13313 120.824 5.95376C122.439 5.71616 124.058 5.66142 125.657 6.09353C125.866 6.14943 126.068 6.23795 126.262 6.33462C127.085 6.74576 127.235 7.62743 126.634 8.32858C126.348 8.66285 126.09 8.74321 125.636 8.60927C124.148 8.17251 122.642 8.13524 121.146 8.64072C120.855 8.73855 120.736 8.86783 120.736 9.19395C120.736 11.825 120.706 14.4572 120.707 17.0883C120.707 17.4645 120.598 17.5402 120.24 17.5285C119.28 17.4994 118.319 17.5017 117.36 17.5262C116.975 17.5367 116.837 17.4505 116.846 17.0312C116.875 15.7232 116.857 14.413 116.857 13.1038C116.878 13.1038 116.9 13.1038 116.921 13.1038L116.922 13.1062Z" fill="white"/>
<path d="M68.313 12.0677C68.313 10.5129 68.3107 8.95683 68.313 7.40195C68.3154 6.50863 68.6788 6.14059 69.5651 5.98568C70.3443 5.84941 71.0932 5.96938 71.8502 6.10914C72.1111 6.15689 72.1903 6.28734 72.188 6.55406C72.1635 10.0272 72.1472 13.5003 72.1426 16.9734C72.1426 17.2961 72.0238 17.3589 71.7361 17.3531C70.7042 17.3333 69.6722 17.3217 68.6415 17.3333C68.3363 17.3368 68.2874 17.2192 68.2898 16.9525C68.3002 15.3242 68.2944 13.696 68.2944 12.0677C68.3002 12.0677 68.3061 12.0677 68.3119 12.0677H68.313Z" fill="white"/>
<path d="M70.2332 0.864288C70.805 0.793242 71.2907 0.963288 71.7659 1.26378C72.5637 1.76809 72.5544 3.01432 71.9231 3.56638C70.8679 4.48882 69.0382 4.3246 68.3044 3.19834C67.9655 2.67772 68.0889 1.81002 68.563 1.4117C69.0498 1.00289 69.5949 0.768783 70.2343 0.865453L70.2332 0.864288Z" fill="white"/>
<path fill-rule="evenodd" clip-rule="evenodd" d="M51.9735 16.6821V16.7694H51.9409C51.9409 17.1717 51.9413 17.5739 51.9417 17.976C51.9428 19.1014 51.9439 20.2264 51.9362 21.3513C51.9339 21.625 51.9898 21.7252 52.2961 21.7217C52.3649 21.7209 52.4336 21.7199 52.5024 21.719C53.1008 21.711 53.6987 21.7029 54.2994 21.752C55.1554 21.8219 55.7809 21.1755 55.7809 20.3043C55.7819 19.8073 55.7818 19.3102 55.7818 18.813C55.7817 18.117 55.7817 17.4209 55.7844 16.7252C55.7855 16.3164 55.8426 16.2989 56.2002 16.4934C56.4925 16.6518 56.7942 16.802 57.1063 16.9162C58.6227 17.4682 60.1893 17.4554 61.7511 17.2225C62.9624 17.042 64.0572 16.5435 64.9832 15.7212C66.9911 13.938 67.1076 10.7142 65.7274 8.62703C64.3612 6.56086 62.2508 5.8469 59.9272 5.56387C58.8417 5.43226 57.7562 5.46371 56.6684 5.56387C55.2498 5.69432 53.8498 5.9063 52.4988 6.38033C52.1715 6.49447 52.0399 6.66684 52.0399 7.0442C52.0345 9.50798 52.0134 11.9711 51.9923 14.434C51.9859 15.1834 51.9795 15.9327 51.9735 16.6821ZM61.2796 8.69326C60.3851 8.05501 59.3881 7.8407 58.3562 7.93155C57.5933 7.87914 56.8934 7.96067 56.2039 8.16798C55.9674 8.23903 55.8871 8.3555 55.8871 8.60125C55.8861 9.84128 55.8752 11.0805 55.8642 12.3203C55.8617 12.6071 55.8592 12.894 55.8568 13.1808C55.8556 13.3742 55.901 13.5337 56.0222 13.7015C56.3704 14.186 56.8468 14.476 57.3965 14.6414C58.6707 15.0257 59.9577 15.1201 61.1562 14.4329C63.1455 13.2938 63.22 10.0769 61.2796 8.69326Z" fill="white"/>
<path fill-rule="evenodd" clip-rule="evenodd" d="M44.3609 14.8844C44.3617 14.6226 44.3625 14.3608 44.3625 14.0991H44.3439C44.3439 13.7864 44.3532 13.4727 44.3625 13.1589C44.383 12.4661 44.4035 11.7732 44.3241 11.0918C44.09 9.08388 42.9498 7.64781 41.1806 6.72886C38.6066 5.39296 35.908 5.2858 33.2012 6.19893C31.0209 6.93502 29.4008 8.32217 28.9478 10.7168C28.6112 12.4953 29.0642 14.0932 30.3116 15.4093C31.8211 17.0015 33.765 17.6432 35.901 17.7737C37.386 17.8645 38.8221 17.6397 40.1673 16.9607C40.3001 16.8932 40.4724 16.8151 40.5062 17.0399C40.5401 17.26 40.6672 17.258 40.8098 17.2558C40.8242 17.2556 40.8387 17.2554 40.8533 17.2554C41.1356 17.2554 41.4178 17.2548 41.6999 17.2542C42.4654 17.2526 43.2306 17.251 43.9957 17.2612C44.2798 17.2647 44.373 17.182 44.3684 16.892C44.3566 16.2231 44.3588 15.5536 44.3609 14.8844ZM36.7548 15.3976C39.2053 15.301 40.6111 13.7158 40.4341 11.4843C40.3933 9.25271 38.5682 7.77005 35.9244 8.09733C33.7872 8.36171 32.6108 9.91775 32.7494 11.963C32.9113 14.3646 34.5908 15.4827 36.7548 15.3976Z" fill="white"/>
<path fill-rule="evenodd" clip-rule="evenodd" d="M86.0757 16.0175C87.7284 17.3278 89.6548 17.8042 91.9539 17.7879H91.955C93.4389 17.8298 95.0403 17.4501 96.5265 16.5987C98.0441 15.7299 99.083 14.4685 99.3707 12.7378C99.8028 10.1428 98.6113 7.89379 96.2481 6.70929C93.4657 5.31631 90.5993 5.26274 87.7423 6.41695C85.5154 7.3161 83.6566 9.35548 84.0106 12.3849C84.1877 13.9013 84.9075 15.0904 86.0757 16.0175ZM95.0824 9.81691C94.3707 8.50546 93.1315 8.07918 91.3414 8.05123H91.3402C89.7597 7.97086 88.0779 9.22175 87.8822 11.2052C87.7436 12.6017 88.0767 13.8433 89.2857 14.6947C90.193 15.3329 91.2202 15.4832 92.3151 15.3644C95.426 15.0254 96.2145 11.9006 95.0824 9.81691Z" fill="white"/>
</svg>
