<svg width="142" height="156" viewBox="0 0 142 156" fill="none" xmlns="http://www.w3.org/2000/svg">
<path d="M78.2129 127.685C60.2748 127.685 45.7249 131.096 45.7249 135.29V140.424C45.7249 144.626 60.2748 148.029 78.2129 148.029C96.1509 148.029 110.701 144.626 110.701 140.424V135.29C110.701 131.096 96.1583 127.685 78.2129 127.685Z" fill="#F3EFFF"/>
<path d="M141.311 0H13.7207V122.222H141.311V0Z" fill="#F3EFFF"/>
<path d="M16.1697 95.0201C15.099 93.2307 13.7863 94.1548 13.1116 94.8368V94.7708C13.2289 94.1768 14.3436 88.0825 11.8942 85.2371C9.90679 82.9563 8.41073 84.753 7.81671 85.6991L7.67003 85.5084C7.62603 85.1051 6.1593 73.1952 1.66378 75.5567C-2.83174 77.9181 3.18184 86.5571 3.40919 86.8578C-1.68035 88.4712 4.34055 96.5822 4.91257 97.3302V97.4769C4.21068 97.3332 3.48044 97.4729 2.88116 97.8656C1.08442 99.039 2.69782 102.192 2.69782 102.192C4.42856 106.644 8.56473 110.729 8.56473 110.729H18.5531C18.5531 110.729 17.6731 97.5282 16.1697 95.0201Z" fill="#FFC043"/>
<path d="M13.582 110.452L1.7749 75.9031" stroke="#173C6A" stroke-width="1.27" stroke-linecap="round" stroke-linejoin="round"/>
<path d="M8.36768 94.3833L11.2791 85.033" stroke="#173C6A" stroke-width="1.27" stroke-linecap="round" stroke-linejoin="round"/>
<path d="M7.14287 91.949L1.58398 89.1696" stroke="#173C6A" stroke-width="1.27" stroke-linecap="round" stroke-linejoin="round"/>
<path d="M8.63857 96.2829L3.00635 94.2515" stroke="#173C6A" stroke-width="1.27" stroke-linecap="round" stroke-linejoin="round"/>
<path d="M12.5696 107.738L2.87451 102.384" stroke="#173C6A" stroke-width="1.27" stroke-linecap="round" stroke-linejoin="round"/>
<path d="M11.7842 104.533L15.8543 95.1825" stroke="#173C6A" stroke-width="1.27" stroke-linecap="round" stroke-linejoin="round"/>
<path d="M13.5156 109.703L17.7178 101.98" stroke="#173C6A" stroke-width="1.27" stroke-linecap="round" stroke-linejoin="round"/>
<path d="M20.2696 126.783V114.382H20.739C20.9664 114.397 21.1945 114.365 21.4091 114.288C21.6238 114.212 21.8204 114.092 21.9868 113.936C22.1533 113.78 22.2859 113.592 22.3766 113.383C22.4673 113.174 22.5141 112.949 22.5141 112.721C22.5141 112.493 22.4673 112.267 22.3766 112.058C22.2859 111.849 22.1533 111.661 21.9868 111.505C21.8204 111.349 21.6238 111.229 21.4091 111.153C21.1945 111.076 20.9664 111.044 20.739 111.06H6.80507C6.38361 111.088 5.98853 111.275 5.69993 111.583C5.41132 111.892 5.25077 112.298 5.25077 112.721C5.25077 113.143 5.41132 113.55 5.69993 113.858C5.98853 114.167 6.38361 114.354 6.80507 114.382H7.03242V126.746C4.6295 128.189 2.76581 130.38 1.72677 132.984C0.687719 135.587 0.530568 138.459 1.27938 141.16C2.02819 143.861 3.6417 146.243 5.87282 147.939C8.10393 149.636 10.8297 150.555 13.6327 150.555C16.4357 150.555 19.1614 149.636 21.3926 147.939C23.6237 146.243 25.2372 143.861 25.986 141.16C26.7348 138.459 26.5776 135.587 25.5386 132.984C24.4995 130.38 22.6359 128.189 20.233 126.746L20.2696 126.783Z" fill="#F5534F"/>
<path d="M39.7477 144.318H21.4136L21.8316 153.272C21.8316 154.416 25.9458 155.348 31.0133 155.348C36.0808 155.348 40.1877 154.416 40.1877 153.272L39.7477 144.318Z" fill="#865DFF"/>
<path d="M30.5738 146.386C35.6407 146.386 39.7482 145.46 39.7482 144.318C39.7482 143.175 35.6407 142.25 30.5738 142.25C25.5069 142.25 21.3994 143.175 21.3994 144.318C21.3994 145.46 25.5069 146.386 30.5738 146.386Z" fill="#B6B6C7"/>
<path d="M31.3735 140.562H30.4934V144.427H31.3735V140.562Z" fill="#865DFF"/>
<path d="M30.4267 130.089C28.7006 132.749 28.0797 135.977 28.6959 139.087C28.6959 139.087 29.0993 140.994 30.83 140.818C31.1112 140.801 31.386 140.727 31.638 140.601C31.89 140.475 32.114 140.299 32.2967 140.085C32.6561 139.657 32.8397 139.109 32.8101 138.552C32.8101 137.679 32.6268 135.75 32.0107 134.79C31.0743 133.391 30.5275 131.769 30.4267 130.089Z" fill="#FFC043"/>
<path d="M104.151 115.452C106.468 115.452 108.346 113.574 108.346 111.257C108.346 108.941 106.468 107.062 104.151 107.062C101.835 107.062 99.9565 108.941 99.9565 111.257C99.9565 113.574 101.835 115.452 104.151 115.452Z" fill="#F5534F"/>
<path d="M116.282 115.452C118.599 115.452 120.477 113.574 120.477 111.257C120.477 108.941 118.599 107.062 116.282 107.062C113.965 107.062 112.087 108.941 112.087 111.257C112.087 113.574 113.965 115.452 116.282 115.452Z" fill="#F5534F"/>
<path d="M128.411 115.452C130.728 115.452 132.606 113.574 132.606 111.257C132.606 108.941 130.728 107.062 128.411 107.062C126.094 107.062 124.216 108.941 124.216 111.257C124.216 113.574 126.094 115.452 128.411 115.452Z" fill="#F5534F"/>
<path d="M135.107 6.65186H21.2446V98.7843H135.107V6.65186Z" stroke="#173C6A" stroke-width="1.27" stroke-linecap="round" stroke-linejoin="round"/>
<path d="M29.7076 15.6136L21.2446 6.65186" stroke="#173C6A" stroke-width="1.27" stroke-linecap="round" stroke-linejoin="round"/>
<path d="M125.405 15.6136L135.107 6.65186" stroke="#173C6A" stroke-width="1.27" stroke-linecap="round" stroke-linejoin="round"/>
<path d="M29.7076 89.8657L21.2446 98.7834" stroke="#173C6A" stroke-width="1.27" stroke-linecap="round" stroke-linejoin="round"/>
<path d="M125.654 15.3405H29.2385V90.1509H125.654V15.3405Z" fill="#B6B6C7"/>
<path d="M90.7014 63.3615H56.0793V84.5483H90.7014V63.3615Z" fill="#F3EFFF"/>
<path d="M83.8451 63.3912C83.4051 63.9045 82.9577 64.6892 82.5177 65.2026C82.1492 65.544 81.9042 65.9979 81.821 66.4933C81.8438 66.8331 81.9571 67.1606 82.1493 67.4417C82.3414 67.7229 82.6054 67.9474 82.9137 68.092C83.53 68.3725 84.1069 68.7325 84.6298 69.1627C84.7205 69.2454 84.78 69.3568 84.7985 69.4781C84.7969 69.5844 84.7608 69.6873 84.6958 69.7714C84.2484 70.4388 83.3757 70.6148 82.635 70.9081C82.49 70.9514 82.3619 71.0385 82.2684 71.1575C82.0777 71.4435 82.3417 71.8175 82.5837 72.0669L83.8451 73.3576C83.9645 73.4601 84.0597 73.5878 84.1238 73.7316C84.2924 74.2229 83.7351 74.6483 83.2511 74.839C82.4374 75.154 81.583 75.3516 80.7136 75.4257C80.3007 75.4065 79.8939 75.5309 79.5622 75.7777C78.9535 76.3864 79.5622 77.6258 78.9022 78.1978C78.4402 78.6011 77.7362 78.3445 77.1715 78.1098C76.5935 77.8282 75.9483 77.7139 75.3087 77.7798C74.9926 77.8244 74.7014 77.9762 74.4838 78.2098C74.2662 78.4434 74.1354 78.7446 74.1134 79.0631C74.1421 79.2079 74.1294 79.3579 74.0767 79.4958C74.0243 79.564 73.9542 79.6165 73.874 79.6475C73.7938 79.6786 73.7066 79.687 73.622 79.6718C73.3626 79.6242 73.1153 79.525 72.8949 79.3802C72.6744 79.2353 72.4853 79.0477 72.3386 78.8285C72.0471 78.3913 71.6967 77.9965 71.2972 77.6551C71.0886 77.4897 70.8301 77.3997 70.5639 77.3997C70.2976 77.3997 70.0392 77.4897 69.8305 77.6551C69.6545 77.8164 69.5518 78.0658 69.3392 78.1905C68.9285 78.4325 68.4004 78.0511 68.1951 77.6111C68.0652 77.1482 67.8857 76.7007 67.6597 76.2764C67.3917 76.0156 67.063 75.8255 66.7034 75.7231C66.3437 75.6207 65.9642 75.6092 65.599 75.6897C64.8692 75.8583 64.1066 75.8176 63.3989 75.5723C63.3592 75.5563 63.3231 75.5325 63.2926 75.5023C63.2622 75.4721 63.2381 75.4362 63.2217 75.3966C63.2053 75.357 63.197 75.3145 63.1972 75.2717C63.1974 75.2288 63.2061 75.1864 63.2229 75.147C63.433 74.5467 63.7511 73.99 64.1616 73.5043C64.3542 73.2661 64.4801 72.981 64.5265 72.6782C64.5729 72.3755 64.538 72.0658 64.4256 71.7808C63.9416 70.9228 62.4749 71.0475 62.0129 70.1968C61.8998 69.8871 61.8872 69.5498 61.9767 69.2325C62.0662 68.9153 62.2533 68.6343 62.5115 68.4294C62.9882 67.982 63.6042 67.696 64.0589 67.2047C64.3028 66.9343 64.4879 66.6163 64.6026 66.2708C64.7173 65.9252 64.7591 65.5596 64.7254 65.1971C64.6916 64.8346 64.583 64.483 64.4064 64.1646C64.2299 63.8462 63.9892 63.5678 63.6996 63.3472L83.8451 63.3912Z" fill="#B6B6C7"/>
<path d="M69.0018 67.572C69.5688 67.572 70.0285 67.1123 70.0285 66.5453C70.0285 65.9782 69.5688 65.5186 69.0018 65.5186C68.4348 65.5186 67.9751 65.9782 67.9751 66.5453C67.9751 67.1123 68.4348 67.572 69.0018 67.572Z" fill="#865DFF"/>
<path d="M74.5607 66.9102C75.1277 66.9102 75.5874 66.4506 75.5874 65.8835C75.5874 65.3165 75.1277 64.8568 74.5607 64.8568C73.9936 64.8568 73.5339 65.3165 73.5339 65.8835C73.5339 66.4506 73.9936 66.9102 74.5607 66.9102Z" fill="#865DFF"/>
<path d="M72.683 70.3364C73.25 70.3364 73.7097 69.8767 73.7097 69.3097C73.7097 68.7426 73.25 68.283 72.683 68.283C72.1159 68.283 71.6562 68.7426 71.6562 69.3097C71.6562 69.8767 72.1159 70.3364 72.683 70.3364Z" fill="#865DFF"/>
<path d="M78.7989 68.0561C79.366 68.0561 79.8256 67.5964 79.8256 67.0294C79.8256 66.4624 79.366 66.0027 78.7989 66.0027C78.2319 66.0027 77.7722 66.4624 77.7722 67.0294C77.7722 67.5964 78.2319 68.0561 78.7989 68.0561Z" fill="#865DFF"/>
<path d="M77.179 71.0411C77.7461 71.0411 78.2058 70.5814 78.2058 70.0144C78.2058 69.4473 77.7461 68.9877 77.179 68.9877C76.612 68.9877 76.1523 69.4473 76.1523 70.0144C76.1523 70.5814 76.612 71.0411 77.179 71.0411Z" fill="#865DFF"/>
<path d="M79.7157 74.1723C80.2827 74.1723 80.7424 73.7126 80.7424 73.1456C80.7424 72.5786 80.2827 72.1189 79.7157 72.1189C79.1487 72.1189 78.689 72.5786 78.689 73.1456C78.689 73.7126 79.1487 74.1723 79.7157 74.1723Z" fill="#865DFF"/>
<path d="M75.191 74.7595C75.758 74.7595 76.2177 74.2998 76.2177 73.7328C76.2177 73.1657 75.758 72.7061 75.191 72.7061C74.624 72.7061 74.1643 73.1657 74.1643 73.7328C74.1643 74.2998 74.624 74.7595 75.191 74.7595Z" fill="#865DFF"/>
<path d="M71.1361 76.0114C71.7031 76.0114 72.1628 75.5517 72.1628 74.9847C72.1628 74.4177 71.7031 73.958 71.1361 73.958C70.569 73.958 70.1094 74.4177 70.1094 74.9847C70.1094 75.5517 70.569 76.0114 71.1361 76.0114Z" fill="#865DFF"/>
<path d="M68.224 73.5048C68.791 73.5048 69.2507 73.0452 69.2507 72.4781C69.2507 71.9111 68.791 71.4514 68.224 71.4514C67.6569 71.4514 67.1973 71.9111 67.1973 72.4781C67.1973 73.0452 67.6569 73.5048 68.224 73.5048Z" fill="#865DFF"/>
<path d="M66.4564 70.4453C67.0234 70.4453 67.4831 69.9856 67.4831 69.4186C67.4831 68.8515 67.0234 68.3918 66.4564 68.3918C65.8894 68.3918 65.4297 68.8515 65.4297 69.4186C65.4297 69.9856 65.8894 70.4453 66.4564 70.4453Z" fill="#865DFF"/>
<path d="M119.846 28.2775H62.512V63.3836H119.846V28.2775Z" fill="#F3EFFF"/>
<path d="M119.882 22.0066H62.5479V28.2989H119.882V22.0066Z" fill="#865DFF"/>
<path d="M64.6597 25.1673C65.3118 25.1673 65.8404 24.6387 65.8404 23.9866C65.8404 23.3345 65.3118 22.8059 64.6597 22.8059C64.0076 22.8059 63.479 23.3345 63.479 23.9866C63.479 24.6387 64.0076 25.1673 64.6597 25.1673Z" fill="#F5534F"/>
<path d="M67.9527 25.1673C68.6048 25.1673 69.1334 24.6387 69.1334 23.9866C69.1334 23.3345 68.6048 22.8059 67.9527 22.8059C67.3006 22.8059 66.772 23.3345 66.772 23.9866C66.772 24.6387 67.3006 25.1673 67.9527 25.1673Z" fill="#FFC043"/>
<path d="M32.4737 65.7592C32.4737 65.7592 17.5937 84.6286 17.2271 96.4577L18.5178 110.172C18.5178 110.172 18.1658 86.0293 33.8671 69.3966" fill="#FFC043"/>
<path d="M65.548 57.2609C65.5467 55.2527 64.8142 53.3137 63.4876 51.8062C62.1609 50.2987 60.3308 49.3258 58.3391 49.0692C58.3391 48.8858 58.3391 48.7025 58.3391 48.5192C58.3373 46.6344 57.6919 44.8069 56.5099 43.3389C55.3278 41.8709 53.68 40.8506 51.839 40.4468C49.998 40.0431 48.0744 40.28 46.3865 41.1185C44.6985 41.957 43.3475 43.3467 42.5571 45.0577C41.5878 44.6654 40.552 44.4637 39.5063 44.4637C37.8113 44.4609 36.1564 44.9794 34.766 45.9489C33.3756 46.9183 32.3169 48.2918 31.7333 49.8832C31.1497 51.4746 31.0696 53.2069 31.5037 54.8454C31.9378 56.4838 32.8651 57.9492 34.1601 59.0429C32.8778 60.558 32.1836 62.4838 32.2043 64.4685C32.2249 66.4533 32.9591 68.3643 34.2727 69.8522C35.5862 71.3402 37.3914 72.3058 39.3582 72.5725C41.325 72.8392 43.3222 72.3892 44.9845 71.3048C45.9033 72.8769 47.3155 74.1017 49.0019 74.7887C50.6882 75.4758 52.5543 75.5868 54.3101 75.1043C56.066 74.6219 57.6134 73.573 58.712 72.1208C59.8105 70.6685 60.3987 68.8942 60.3852 67.0733C60.385 66.3775 60.2937 65.6847 60.1138 65.0125C61.7039 64.4317 63.0776 63.377 64.0494 61.9909C65.0211 60.6047 65.5442 58.9537 65.548 57.2609ZM45.8279 58.1042C46.3069 57.5362 46.7088 56.9074 47.0233 56.2342C47.6601 56.4848 48.325 56.6572 49.0033 56.7475C49.0033 56.9235 49.0033 57.1069 49.0033 57.2902C49.0067 57.9882 49.0979 58.683 49.2747 59.3583C48.6898 59.5664 48.1311 59.8421 47.61 60.1796C47.1341 59.3945 46.532 58.6933 45.8279 58.1042Z" fill="#F5534F"/>
<path d="M48.2992 66.2787C53.1028 66.2787 56.9969 62.3846 56.9969 57.581C56.9969 52.7774 53.1028 48.8833 48.2992 48.8833C43.4956 48.8833 39.6016 52.7774 39.6016 57.581C39.6016 62.3846 43.4956 66.2787 48.2992 66.2787Z" fill="#FFC043"/>
<path d="M45.8788 56.8053C46.5674 56.8053 47.1255 56.2471 47.1255 55.5586C47.1255 54.8701 46.5674 54.3119 45.8788 54.3119C45.1903 54.3119 44.6321 54.8701 44.6321 55.5586C44.6321 56.2471 45.1903 56.8053 45.8788 56.8053Z" fill="#865DFF"/>
<path d="M50.3004 57.172C50.989 57.172 51.5472 56.6138 51.5472 55.9253C51.5472 55.2368 50.989 54.6786 50.3004 54.6786C49.6119 54.6786 49.0537 55.2368 49.0537 55.9253C49.0537 56.6138 49.6119 57.172 50.3004 57.172Z" fill="#865DFF"/>
<path d="M44.0235 62.0116C44.0812 61.5811 44.2232 61.1662 44.4414 60.7906C44.6595 60.415 44.9495 60.086 45.2947 59.8225C45.64 59.5589 46.0338 59.366 46.4536 59.2546C46.8735 59.1432 47.3111 59.1157 47.7416 59.1734C48.1721 59.2312 48.587 59.3732 48.9626 59.5914C49.3382 59.8095 49.6672 60.0995 49.9307 60.4447C50.1943 60.79 50.3872 61.1838 50.4986 61.6036C50.6099 62.0235 50.6375 62.4611 50.5797 62.8916" stroke="#173C6A" stroke-width="1.27" stroke-linecap="round" stroke-linejoin="round"/>
<path d="M78.5717 138.244C88.6326 138.244 96.7885 136.169 96.7885 133.609C96.7885 131.05 88.6326 128.975 78.5717 128.975C68.5109 128.975 60.355 131.05 60.355 133.609C60.355 136.169 68.5109 138.244 78.5717 138.244Z" fill="#E1E0E4"/>
<path d="M96.6855 122.237H60.2446V133.839H96.6855V122.237Z" fill="#E1E0E4"/>
<path d="M98.7259 47.8154C98.5781 47.7611 98.5937 47.6292 98.6092 47.5205C98.6559 47.0704 98.5159 46.6745 98.2748 46.3098C98.1504 46.1235 98.2049 46.0847 98.3993 46.0303C98.757 45.9372 99.1147 45.8441 99.4102 45.5957C99.4568 45.5569 99.5346 45.5181 99.4724 45.4327C99.4335 45.3862 99.3791 45.4017 99.3402 45.4327C98.8736 45.7432 98.3759 45.9217 97.7227 45.8286C98.0727 46.1623 98.1426 46.5426 98.3059 46.8763C98.547 47.3731 98.2126 48.4363 97.7461 48.708C97.4117 48.9098 97.0617 48.8089 96.8518 48.4596C96.8284 48.4286 96.7973 48.3898 96.7973 48.3587C96.774 48.1337 96.6185 47.9551 96.6107 47.699C96.8051 47.9629 97.1239 47.8775 97.365 48.0017C97.5128 48.0793 97.6061 48.0017 97.6527 47.862C97.7461 47.5826 97.7616 47.311 97.6294 47.0393C97.4972 46.7677 97.3806 46.496 97.1706 46.2709C97.0229 46.108 97.0462 45.9605 97.1784 45.782C97.5205 45.3241 97.7383 44.773 98.2049 44.4005C97.8394 44.6411 97.4661 44.8662 97.3028 45.293C97.2484 45.4405 97.1317 45.5259 97.0384 45.6345C96.774 45.9372 96.774 46.108 97.0073 46.4262C97.1939 46.6823 97.435 46.9074 97.4661 47.2489C97.4817 47.3963 97.5983 47.5904 97.4272 47.6757C97.2639 47.7534 97.0462 47.7378 96.8673 47.6525C96.8207 47.6369 96.7896 47.5904 96.7507 47.5671C96.6885 47.5128 96.6185 47.4739 96.5407 47.5128C96.4552 47.5593 96.4319 47.6369 96.4319 47.7301C96.4319 47.831 96.4707 47.9163 96.5018 48.0095C96.5407 48.1181 96.5096 48.1647 96.3852 48.1802C95.7709 48.2734 95.2032 48.5295 94.6044 48.6925C94.3789 48.7546 94.1456 48.7623 93.9123 48.7934C93.1347 48.9175 92.4737 49.3677 91.7039 49.5074C91.3539 49.5695 91.0118 49.7092 90.6463 49.6471C90.3819 49.6083 90.3041 49.4919 90.343 49.2125C90.4597 48.4519 90.8251 47.831 91.3228 47.2644C91.5717 46.9772 91.7505 46.6435 91.9138 46.302C91.9449 46.2321 92.0149 46.1235 91.906 46.0769C91.8205 46.0459 91.7894 46.1545 91.7583 46.2244C91.5406 46.6435 91.2528 47.0083 90.9418 47.3498C90.5063 47.8387 90.203 48.3975 90.0942 49.0417C89.9853 49.7092 89.5576 50.1749 89.0832 50.594C88.3056 51.2847 87.4036 51.7271 86.3304 51.7815C85.8561 51.8047 85.3973 51.8901 85.1407 52.3791C85.1096 52.4334 85.0473 52.48 85.0007 52.5265C84.713 52.7671 84.6196 52.7594 84.3941 52.4645C84.363 52.4179 84.3319 52.3636 84.2153 52.3946C84.503 53.0776 84.1064 53.7373 84.1608 54.4203C84.1764 54.6221 84.1764 54.8239 84.2464 55.0257C84.2775 55.1188 84.363 55.2352 84.2231 55.3051C84.0675 55.3827 84.0287 55.243 83.9664 55.1421C83.9509 55.1111 83.9198 55.08 83.8809 55.0257C83.7643 55.2042 83.8731 55.3206 83.9509 55.4215C84.0286 55.5224 84.1375 55.5379 84.2619 55.4991C85.0707 55.2973 85.8016 55.4914 86.4937 55.9182C86.5637 55.9648 86.6337 56.0269 86.6804 56.0967C86.7659 56.2209 86.8981 56.3606 86.797 56.5158C86.6726 56.6943 86.5248 56.5624 86.3849 56.5003C86.1049 56.3761 85.8172 56.5081 85.7394 56.7797C85.6694 57.0281 85.5217 57.0669 85.3428 56.8884C85.2962 56.8418 85.2573 56.7875 85.2106 56.7332C84.8607 56.3761 84.4797 56.1511 83.9431 56.2364C83.4688 56.314 83.321 56.1821 83.2432 55.7087C83.1655 55.2197 83.2355 54.7385 83.2977 54.2573C83.3055 54.1952 83.3055 54.1254 83.2899 54.0633C83.1422 54.4203 83.0177 54.7928 83.0411 55.1731C83.0566 55.5379 82.9944 55.9105 83.1188 56.2675C83.1655 56.3917 83.1266 56.5469 82.9788 56.6167C82.8311 56.6866 82.7689 56.5624 82.7067 56.4693C82.5978 56.2985 82.4423 56.1976 82.2479 56.1355C81.8824 56.0191 81.7269 55.763 81.688 55.3749C81.6335 54.7928 81.8746 54.3039 82.1235 53.8304C82.4345 53.2483 82.5434 52.6274 82.6367 51.9988C82.6678 51.7892 82.7067 51.5797 82.7611 51.3701C82.8622 51.0131 83.1422 50.7958 83.4532 50.6638C84.2619 50.3223 84.8296 49.7014 85.3662 49.0495C85.6695 48.6769 86.0038 48.351 86.4704 48.1802C86.6493 48.1181 86.8048 48.0017 86.6959 47.7922C86.4004 47.2411 86.206 46.659 86.0816 46.0381C86.0194 46.2942 86.0038 46.5504 86.0738 46.8142C86.1516 47.1247 86.2449 47.4351 86.3926 47.7145C86.5171 47.9551 86.4004 48.0017 86.1905 48.0017C85.7472 48.0095 85.3428 47.831 84.9696 47.6447C84.1142 47.2178 83.2044 47.0704 82.2712 47.0005C81.9135 46.9695 81.5558 46.9229 81.1981 46.8918C80.3738 46.822 79.5728 47.0316 78.7719 47.1635C77.691 47.342 76.6101 47.5283 75.5369 47.7145C74.6971 47.862 73.8572 48.056 73.0174 48.1492C71.6799 48.3044 70.4979 48.9175 69.2692 49.3755C67.7295 49.942 66.2054 50.5474 64.6423 51.0519C64.4401 51.114 64.1602 51.2615 64.0358 51.0131C63.8958 50.7414 64.1991 50.6173 64.3857 50.5008C65.6221 49.6781 66.9441 48.9952 68.2428 48.2734C70.0157 47.2877 71.9132 46.5348 73.7095 45.6035C75.2959 44.7808 76.9367 44.0745 78.6163 43.4614C79.5495 43.1199 80.4515 42.7163 81.3925 42.4136C82.1312 42.173 82.9011 42.0643 83.6632 41.9246C84.433 41.7849 85.1562 41.521 85.8872 41.2572C86.7193 40.9622 87.5591 40.6828 88.3834 40.3646C88.8966 40.1628 89.4021 39.9377 89.9309 39.7748C90.4285 39.6195 90.9418 39.604 91.4317 39.6894C92.046 39.798 92.6292 39.6971 93.2202 39.6273C94.0056 39.5264 94.7833 39.3556 95.5376 39.0918C96.5174 38.758 97.4972 38.9521 98.4692 39.1461C99.0836 39.2703 99.6901 39.3789 100.312 39.2625C100.561 39.2159 100.771 39.0995 100.981 38.9753C101.432 38.7192 101.922 38.564 102.443 38.5019C102.878 38.4476 103.205 38.2613 103.415 37.8577C103.812 37.0971 104.371 36.4762 105.118 36.0338C105.499 35.8087 105.818 35.5138 105.88 35.0326C105.903 34.8541 106.059 34.7454 106.238 34.7377C106.603 34.7144 106.922 34.4816 107.319 34.5669C107.49 34.6057 107.661 34.4427 107.762 34.2798C107.894 34.078 108.034 33.8762 108.135 33.6589C108.477 32.875 109.107 32.4326 109.877 32.1765C110.631 31.9281 111.401 31.9281 112.156 32.2541C112.397 32.355 112.529 32.518 112.521 32.7896C112.513 32.9371 112.568 33.0612 112.622 33.2009C112.731 33.4648 112.474 33.721 112.568 34.0081C112.575 34.0314 112.435 34.0935 112.342 34.1556C112.7 34.4195 112.319 34.6911 112.35 34.9705C112.358 35.0481 112.226 35.0792 112.132 35.0637C111.907 35.0326 111.946 35.1335 112.039 35.2499C112.109 35.3431 112.163 35.4362 112.062 35.5371C111.977 35.6302 111.868 35.6069 111.767 35.5681C111.689 35.5293 111.603 35.4983 111.533 35.4517C111.386 35.3663 111.339 35.3819 111.253 35.5604C111.16 35.7544 110.997 35.9252 110.717 35.9872C110.398 36.0571 110.079 36.2667 109.924 36.5616C109.527 37.3455 108.851 37.7025 108.065 37.9431C107.622 38.0828 107.28 38.3544 107.047 38.7813C107.288 38.4941 107.505 38.6726 107.723 38.7813C108.159 38.9909 108.501 39.3246 108.882 39.6118C109.278 39.9145 109.69 40.0542 110.188 39.8989C110.499 39.798 110.802 39.8679 111.098 39.9765C111.479 40.1162 111.86 40.256 112.233 40.4189C112.731 40.6363 113.26 40.6518 113.781 40.5819C114.123 40.5354 114.481 40.5354 114.815 40.4267C115.025 40.3646 115.017 40.5043 114.978 40.644C114.792 41.3969 114.162 41.8858 113.361 41.8936C112.809 41.9013 112.257 41.8703 111.705 41.8858C111.036 41.9013 110.367 41.9013 109.714 42.0566C109.473 42.1109 109.208 42.1031 108.959 42.0488C108.159 41.8781 107.474 42.0799 106.852 42.5999C106.463 42.9258 106.043 43.1975 105.639 43.5079C104.939 44.0512 104.13 44.2685 103.259 44.3461C102.793 44.385 102.35 44.5247 102.031 44.9205C101.899 45.0835 101.836 45.2775 101.759 45.4638C101.471 46.0924 101.035 46.5581 100.359 46.7754C99.9001 46.9229 99.4879 47.1557 99.1458 47.4972C99.0447 47.5981 98.9125 47.6757 98.7959 47.7611C98.7647 47.7766 98.7492 47.7999 98.7259 47.8154ZM109.185 35.3508C108.921 35.2344 108.633 35.2577 108.384 35.1257C107.956 34.8929 107.949 34.9007 108.26 34.5359C108.283 34.5048 108.306 34.4738 108.33 34.4428C108.687 33.946 109.061 33.4648 109.675 33.2553C109.737 33.232 109.823 33.1932 109.784 33.1156C109.745 33.0302 109.667 33.0845 109.605 33.1078C109.123 33.2863 108.726 33.5735 108.423 34.0081C108.104 34.4583 107.746 34.8851 107.124 34.9472C107.023 34.955 106.93 35.0248 106.837 35.0792C106.759 35.1257 106.611 35.1646 106.665 35.2732C106.735 35.4207 106.852 35.3043 106.938 35.2654C107.404 35.0481 107.863 35.0016 108.322 35.2887C108.493 35.3974 108.703 35.4207 108.905 35.4595C109.006 35.4672 109.107 35.4828 109.185 35.3508ZM107.023 36.2046C107.295 36.3986 107.498 36.3753 107.7 36.2511C107.777 36.2046 107.847 36.0881 107.949 36.1114C108.252 36.189 108.174 35.9717 108.143 35.8475C108.096 35.638 107.956 35.4828 107.762 35.3974C107.614 35.3275 107.443 35.3353 107.35 35.4983C107.264 35.6535 107.326 35.7932 107.459 35.9096C107.513 35.964 107.676 35.9019 107.638 36.0416C107.606 36.1502 107.482 36.1813 107.373 36.189C107.28 36.1968 107.194 36.1968 107.023 36.2046Z" fill="#865DFF"/>
<path d="M86.433 53.0604C86.6051 53.4938 86.6433 53.9018 86.6624 54.316C86.6816 54.6921 86.9174 54.8897 87.2233 55.0172C87.5229 55.1383 87.797 55.2785 88.0201 55.5271C88.1603 55.6864 88.3897 55.6354 88.5682 55.7183C88.7594 55.8075 88.9761 55.8521 89.1737 55.9286C89.2757 55.9669 89.3713 56.0306 89.4287 56.139C89.4924 56.2537 89.5306 56.3875 89.435 56.4959C89.3394 56.6106 89.2247 56.515 89.1291 56.464C88.9634 56.3812 88.8168 56.2728 88.6192 56.2919C88.5045 56.3047 88.428 56.3174 88.4917 56.4576C88.5236 56.5341 88.53 56.617 88.4471 56.668C88.3706 56.719 88.2941 56.6807 88.224 56.6361C88.0647 56.5341 87.9181 56.4067 87.7396 56.3365C87.5994 56.2855 87.4655 56.2473 87.4145 56.464C87.3763 56.6297 87.2616 56.6297 87.1532 56.5086C87.0512 56.4003 86.9556 56.2792 86.86 56.1644C86.7835 56.0752 86.7007 55.986 86.5668 56.037C86.5668 56.0625 86.5605 56.0688 86.5668 56.0752C86.5796 56.1708 86.7772 56.1836 86.6879 56.2919C86.6242 56.3748 86.4903 56.3365 86.3947 56.3047C85.9549 56.1517 85.4387 55.7693 85.4578 55.1191C85.4642 54.826 85.4833 54.5328 85.4195 54.2396C85.3622 53.9719 85.3176 53.7105 85.0562 53.5448C84.9479 53.4747 84.865 53.3281 84.9033 53.2134C85.0053 52.8628 84.9925 52.4549 85.3048 52.2063C85.7382 51.8621 86.0251 51.4478 86.0569 50.8806C86.0633 50.7085 86.1717 50.6193 86.3374 50.5619C86.7007 50.4344 87.0895 50.4153 87.4528 50.3133C87.8798 50.1922 88.2941 50.0329 88.7212 49.9054C88.8423 49.8672 88.9952 49.7715 89.1036 49.9564C89.2247 50.154 89.3331 50.3261 89.1355 50.5491C88.6829 51.0718 88.2113 51.5753 87.6121 51.945C87.44 52.0534 87.3381 52.2318 87.2425 52.4039C87.0959 52.678 86.9875 52.9712 86.911 53.2708C86.8919 53.3409 86.8855 53.4237 86.7963 53.4301C86.6943 53.4428 86.6943 53.3472 86.6624 53.2899C86.6051 53.2198 86.5796 53.1242 86.433 53.0604Z" fill="#865DFF"/>
<path d="M102.871 43.2266C102.374 43.233 101.985 43.1501 101.628 42.9717C101.348 42.8314 101.054 42.7295 100.755 42.653C100.583 42.6084 100.398 42.5829 100.239 42.6466C99.7924 42.8251 99.4227 42.6785 99.0913 42.398C98.7917 42.1495 98.4666 41.9646 98.1225 41.7989C98.0715 41.7734 97.9822 41.7734 97.9886 41.6905C97.995 41.6077 98.0715 41.5758 98.1352 41.5503C98.4858 41.4165 98.8363 41.289 99.1869 41.1615C99.2442 41.1424 99.308 41.1233 99.3653 41.0914C99.6713 40.9193 99.6713 40.9193 99.837 41.2125C99.9581 41.4356 100.079 41.6587 100.2 41.8818C100.283 42.0284 100.379 42.124 100.576 42.0985C100.914 42.0602 101.182 42.2578 101.45 42.4299C101.794 42.653 102.144 42.8633 102.571 42.8378C102.896 42.8187 103.221 42.7868 103.547 42.8442C103.604 42.8506 103.661 42.8506 103.712 42.8697C103.795 42.9016 103.884 42.9462 103.878 43.0482C103.872 43.1565 103.763 43.1501 103.693 43.1565C103.374 43.1884 103.075 43.2075 102.871 43.2266Z" fill="#865DFF"/>
<path d="M90.8069 49.556C90.8196 49.5369 90.8324 49.5241 90.8451 49.505C90.9152 49.5241 90.979 49.5496 91.0491 49.5687C91.3232 49.6643 91.3869 49.6134 91.3678 49.3329C91.355 49.129 91.5207 49.0716 91.6546 48.9887C91.9414 48.8166 91.9733 48.8294 92.0944 49.1417C92.2219 49.4795 92.2027 49.7918 91.9223 50.0595C91.8267 50.1551 91.7311 50.2507 91.6355 50.3463C91.3104 50.6714 90.7559 50.5184 90.4946 50.1488C90.4436 50.0786 90.4308 49.9958 90.4946 49.9257C90.5583 49.8492 90.6348 49.8811 90.7113 49.9129C90.775 49.9384 90.8388 50.0277 90.9025 49.9575C90.9726 49.8874 90.8579 49.8428 90.8324 49.7791C90.8069 49.7153 90.8069 49.6325 90.8069 49.556Z" fill="#865DFF"/>
</svg>
