<svg width="92" height="21" viewBox="0 0 92 21" fill="none" xmlns="http://www.w3.org/2000/svg">
<path d="M92 9.02202C92 10.8668 90.604 12.2949 88.8 12.2949C86.997 12.2949 85.601 10.8668 85.601 9.02202C85.601 7.23678 87.055 5.80859 88.8 5.80859C90.604 5.8681 92 7.29629 92 9.02202ZM86.357 9.02202C86.357 10.4502 87.404 11.5809 88.8 11.5809C90.197 11.5809 91.186 10.4502 91.186 9.02202C91.186 7.59383 90.197 6.46318 88.8 6.46318C87.404 6.46318 86.357 7.65334 86.357 9.02202ZM88.335 10.7477H87.637V7.53432C87.928 7.47481 88.335 7.41531 88.858 7.41531C89.44 7.41531 89.731 7.53432 89.964 7.65334C90.138 7.77235 90.255 8.06989 90.255 8.36743C90.255 8.72448 89.964 9.02202 89.615 9.08153V9.14103C89.906 9.26005 90.08 9.49808 90.197 9.91464C90.313 10.3907 90.371 10.5692 90.429 10.6882H89.673C89.557 10.5692 89.498 10.2717 89.44 9.91464C89.382 9.55759 89.208 9.37907 88.8 9.37907H88.451V10.7477H88.335ZM88.335 8.903H88.684C89.091 8.903 89.382 8.78399 89.382 8.42694C89.382 8.1294 89.149 7.95088 88.742 7.95088C88.568 7.95088 88.393 7.95088 88.335 8.01038V8.903Z" fill="#0F0F0F"/>
<path d="M13.6364 10.3899C13.2873 9.49733 12.7637 8.72372 12.1819 8.00963C11.6002 7.35504 10.8439 6.81947 10.0876 6.46242C9.3313 6.10538 8.4587 5.92685 7.586 5.92685C7.0042 5.92685 6.4807 5.98636 6.0152 6.16489C5.608 6.34341 5.2008 6.46242 4.8517 6.64095C4.5027 6.87898 4.1536 7.0575 3.8627 7.35504L3.7464 7.47406V2.29688L0.313999 3.18949V20.5658H3.4555V19.0186L3.5718 19.1376C3.8627 19.4351 4.2118 19.6732 4.619 19.9112C4.9681 20.1492 5.3753 20.3278 5.8989 20.4468C6.3643 20.6253 6.9461 20.6848 7.5278 20.6848C8.4005 20.6848 9.2731 20.5063 10.0294 20.1492C10.8439 19.7922 11.542 19.2566 12.1238 18.602C12.7055 17.9474 13.2291 17.1738 13.5782 16.2217C13.9272 15.3291 14.1018 14.3175 14.1018 13.2463C14.1599 12.2942 13.9854 11.2826 13.6364 10.3899ZM9.7385 16.2812C9.0404 16.9953 8.1678 17.4119 7.1206 17.4119C6.0734 17.4119 5.2008 17.0548 4.5027 16.2812C3.8045 15.5671 3.4555 14.5555 3.4555 13.3058C3.4555 12.0562 3.8045 11.104 4.5027 10.3304C5.2008 9.61634 6.0734 9.19979 7.1206 9.19979C8.1678 9.19979 9.0404 9.55683 9.7385 10.3304C10.4367 11.0445 10.7857 12.0562 10.7857 13.3058C10.7857 14.5555 10.3785 15.5671 9.7385 16.2812Z" fill="#0F0F0F"/>
<path d="M19.6287 2.29688V20.5658H16.1963V3.18949L19.6287 2.29688Z" fill="#0F0F0F"/>
<path d="M26.0281 2.2372C26.0281 2.77277 25.8536 3.24883 25.4464 3.60588C25.0391 4.02243 24.5737 4.20096 24.1083 4.20096C23.5847 4.20096 23.1193 4.02243 22.7702 3.60588C22.363 3.18932 22.1885 2.71326 22.1885 2.2372C22.1885 1.70163 22.363 1.22556 22.7702 0.868516C23.1775 0.451961 23.6429 0.273438 24.1083 0.273438C24.6319 0.273438 25.0973 0.451961 25.4464 0.868516C25.8536 1.22556 26.0281 1.70163 26.0281 2.2372Z" fill="#0F0F0F"/>
<path d="M25.7371 6.10547H22.3047V20.6254H25.7371V6.10547Z" fill="#0F0F0F"/>
<path d="M41.4451 12.0542V20.5638H38.0127V12.5302C38.0127 11.5781 37.7218 10.745 37.14 10.1499C36.5583 9.55485 35.8601 9.25731 34.9293 9.25731C34.0567 9.25731 33.3004 9.55485 32.7186 10.1499C32.1369 10.745 31.846 11.5186 31.846 12.5302V20.5638H28.4136V6.10339H31.5551V7.65059L31.6714 7.53158C32.0205 7.23404 32.4277 6.99601 32.835 6.75798C33.184 6.57945 33.5913 6.40093 34.0567 6.22241C34.5221 6.04388 35.1039 5.98438 35.6856 5.98438C36.5001 5.98438 37.3146 6.10339 38.0127 6.40093C38.7108 6.69847 39.2926 7.11502 39.8161 7.65059C40.3397 8.18617 40.6888 8.84075 40.9797 9.55485C41.2705 10.2689 41.4451 11.1021 41.4451 12.0542Z" fill="#0F0F0F"/>
<path d="M56.1635 20.5658H52.3238L47.2625 13.7224V20.5658H43.8301V3.18949L47.2625 2.29688V12.2942L51.7421 6.10538H55.5817L50.4622 13.0083L56.1635 20.5658Z" fill="#0F0F0F"/>
<path d="M68.6714 10.4493C68.3224 9.55667 67.7988 8.78307 67.1589 8.06898C66.5189 7.35488 65.7626 6.87882 64.89 6.46227C64.0173 6.10522 63.1447 5.86719 62.1557 5.86719C61.1667 5.86719 60.294 6.04571 59.4214 6.46227C58.5488 6.81931 57.7925 7.41439 57.1525 8.06898C56.5126 8.72356 55.989 9.55667 55.5818 10.4493C55.2327 11.3419 55 12.294 55 13.3057C55 14.3173 55.1745 15.3289 55.5818 16.162C55.9308 17.0547 56.4544 17.8283 57.1525 18.5424C57.7925 19.1969 58.5488 19.7325 59.4214 20.1491C60.294 20.5061 61.1667 20.7442 62.1557 20.7442C63.0865 20.7442 64.0173 20.5656 64.89 20.1491C65.7626 19.792 66.5189 19.1969 67.1589 18.5424C67.7988 17.8878 68.3224 17.0547 68.6714 16.162C69.0205 15.2694 69.2532 14.3173 69.2532 13.3057C69.2532 12.294 69.0787 11.3419 68.6714 10.4493ZM64.7736 16.2811C64.0755 16.9952 63.2029 17.4117 62.1557 17.4117C61.1085 17.4117 60.2359 17.0547 59.5378 16.2811C58.8396 15.567 58.4906 14.5553 58.4906 13.3057C58.4906 12.056 58.8396 11.1039 59.5378 10.3303C60.2359 9.61618 61.1085 9.19963 62.1557 9.19963C63.2029 9.19963 64.0755 9.55667 64.7736 10.3303C65.4717 11.0444 65.8208 12.056 65.8208 13.3057C65.8208 14.5553 65.4717 15.567 64.7736 16.2811Z" fill="#0F0F0F"/>
<path d="M84.263 10.4493C83.856 9.55667 83.332 8.78307 82.692 8.06898C82.052 7.41439 81.296 6.87882 80.423 6.46227C79.551 6.10522 78.678 5.86719 77.689 5.86719C76.758 5.86719 75.827 6.04571 74.955 6.46227C74.082 6.81931 73.326 7.41439 72.686 8.06898C72.046 8.72356 71.522 9.55667 71.115 10.4493C70.766 11.3419 70.533 12.294 70.533 13.3057C70.533 14.3173 70.708 15.3289 71.115 16.162C71.522 17.0547 71.988 17.8283 72.686 18.5424C73.326 19.1969 74.082 19.7325 74.955 20.1491C75.827 20.5061 76.7 20.7442 77.689 20.7442C78.62 20.7442 79.551 20.5656 80.423 20.1491C81.296 19.792 82.052 19.1969 82.692 18.5424C83.332 17.8878 83.856 17.0547 84.263 16.162C84.612 15.2694 84.845 14.3173 84.845 13.3057C84.845 12.294 84.67 11.3419 84.263 10.4493ZM80.365 16.2811C79.667 16.9952 78.794 17.4117 77.747 17.4117C76.7 17.4117 75.827 17.0547 75.129 16.2811C74.431 15.567 74.082 14.5553 74.082 13.3057C74.082 12.056 74.431 11.1039 75.129 10.3303C75.827 9.61618 76.7 9.19963 77.747 9.19963C78.794 9.19963 79.667 9.55667 80.365 10.3303C81.063 11.0444 81.412 12.056 81.412 13.3057C81.412 14.5553 81.063 15.567 80.365 16.2811Z" fill="#0F0F0F"/>
</svg>
