<svg width="261" height="33" viewBox="0 0 261 33" fill="none" xmlns="http://www.w3.org/2000/svg">
<path d="M51.7438 13.9182C51.3308 12.9364 50.7113 12.0854 50.0229 11.2999C49.3345 10.5799 48.4397 9.99081 47.5448 9.59807C46.65 9.20533 45.6174 9.00896 44.5849 9.00896C43.8965 9.00896 43.277 9.07442 42.7263 9.27079C42.2445 9.46716 41.7626 9.59807 41.3496 9.79444C40.9366 10.0563 40.5236 10.2526 40.1794 10.5799L40.0418 10.7108V5.01611L35.9805 5.99796V25.1113H39.6976V23.4094L39.8353 23.5403C40.1794 23.8676 40.5924 24.1294 41.0743 24.3913C41.4873 24.6531 41.9692 24.8495 42.5887 24.9804C43.1394 25.1767 43.8277 25.2422 44.5161 25.2422C45.5486 25.2422 46.5811 25.0458 47.476 24.6531C48.4397 24.2603 49.2657 23.6712 49.9541 22.9512C50.6424 22.2312 51.2619 21.3803 51.6749 20.3329C52.088 19.3511 52.2945 18.2383 52.2945 17.0601C52.3633 16.0128 52.1568 14.9001 51.7438 13.9182ZM47.1318 20.3984C46.3058 21.1839 45.2733 21.6421 44.0342 21.6421C42.7952 21.6421 41.7626 21.2493 40.9366 20.3984C40.1106 19.6129 39.6976 18.5002 39.6976 17.1256C39.6976 15.751 40.1106 14.7037 40.9366 13.8527C41.7626 13.0673 42.7952 12.6091 44.0342 12.6091C45.2733 12.6091 46.3058 13.0018 47.1318 13.8527C47.9578 14.6382 48.3709 15.751 48.3709 17.1256C48.3709 18.5002 47.889 19.6129 47.1318 20.3984Z" fill="white"/>
<path d="M58.8328 5.01611V25.1113H54.7715V5.99796L58.8328 5.01611Z" fill="white"/>
<path d="M66.4064 4.95401C66.4064 5.54312 66.1999 6.06677 65.7181 6.45951C65.2362 6.91771 64.6855 7.11408 64.1348 7.11408C63.5153 7.11408 62.9646 6.91771 62.5516 6.45951C62.0698 6.00132 61.8633 5.47767 61.8633 4.95401C61.8633 4.3649 62.0698 3.84125 62.5516 3.44851C63.0335 2.99032 63.5842 2.79395 64.1348 2.79395C64.7544 2.79395 65.3051 2.99032 65.7181 3.44851C66.1999 3.84125 66.4064 4.3649 66.4064 4.95401Z" fill="white"/>
<path d="M66.0652 9.20532H62.0039V25.1767H66.0652V9.20532Z" fill="white"/>
<path d="M84.6496 15.7525V25.1128H80.5883V16.2762C80.5883 15.2288 80.2441 14.3125 79.5558 13.6579C78.8674 13.0033 78.0414 12.676 76.94 12.676C75.9075 12.676 75.0126 13.0033 74.3243 13.6579C73.6359 14.3125 73.2918 15.1634 73.2918 16.2762V25.1128H69.2305V9.20684H72.9476V10.9087L73.0853 10.7778C73.4983 10.4505 73.9801 10.1887 74.462 9.92686C74.875 9.73049 75.3568 9.53412 75.9075 9.33775C76.4582 9.14138 77.1465 9.07593 77.8349 9.07593C78.7986 9.07593 79.7623 9.20684 80.5883 9.53412C81.4143 9.86141 82.1027 10.3196 82.7222 10.9087C83.3417 11.4978 83.7548 12.2178 84.0989 13.0033C84.4431 13.7888 84.6496 14.7052 84.6496 15.7525Z" fill="white"/>
<path d="M102.066 25.1113H97.5226L91.5339 17.5838V25.1113H87.4727V5.99796L91.5339 5.01611V16.0128L96.8343 9.20533H101.377L95.3199 16.7983L102.066 25.1113Z" fill="white"/>
<path d="M116.868 13.9869C116.455 13.0051 115.835 12.1541 115.078 11.3687C114.321 10.5832 113.426 10.0595 112.393 9.60134C111.361 9.2086 110.328 8.94678 109.158 8.94678C107.988 8.94678 106.955 9.14315 105.923 9.60134C104.89 9.99408 103.996 10.6486 103.238 11.3687C102.481 12.0887 101.862 13.0051 101.38 13.9869C100.967 14.9688 100.691 16.0161 100.691 17.1288C100.691 18.2416 100.898 19.3544 101.38 20.2708C101.793 21.2526 102.412 22.1035 103.238 22.889C103.996 23.609 104.89 24.1982 105.923 24.6564C106.955 25.0491 107.988 25.3109 109.158 25.3109C110.26 25.3109 111.361 25.1145 112.393 24.6564C113.426 24.2636 114.321 23.609 115.078 22.889C115.835 22.169 116.455 21.2526 116.868 20.2708C117.281 19.2889 117.556 18.2416 117.556 17.1288C117.556 16.0161 117.35 14.9688 116.868 13.9869ZM112.256 20.4017C111.43 21.1872 110.397 21.6453 109.158 21.6453C107.919 21.6453 106.887 21.2526 106.061 20.4017C105.235 19.6162 104.822 18.5034 104.822 17.1288C104.822 15.7543 105.235 14.707 106.061 13.856C106.887 13.0705 107.919 12.6123 109.158 12.6123C110.397 12.6123 111.43 13.0051 112.256 13.856C113.082 14.6415 113.495 15.7543 113.495 17.1288C113.495 18.5034 113.082 19.6162 112.256 20.4017Z" fill="white"/>
<path d="M135.312 13.9869C134.83 13.0051 134.21 12.1541 133.453 11.3687C132.696 10.6486 131.801 10.0595 130.768 9.60134C129.736 9.2086 128.703 8.94678 127.533 8.94678C126.432 8.94678 125.33 9.14315 124.298 9.60134C123.265 9.99408 122.371 10.6486 121.613 11.3687C120.856 12.0887 120.237 13.0051 119.755 13.9869C119.342 14.9688 119.066 16.0161 119.066 17.1288C119.066 18.2416 119.273 19.3544 119.755 20.2708C120.237 21.2526 120.787 22.1035 121.613 22.889C122.371 23.609 123.265 24.1982 124.298 24.6564C125.33 25.0491 126.363 25.3109 127.533 25.3109C128.635 25.3109 129.736 25.1145 130.768 24.6564C131.801 24.2636 132.696 23.609 133.453 22.889C134.21 22.169 134.83 21.2526 135.312 20.2708C135.725 19.2889 136 18.2416 136 17.1288C136 16.0161 135.793 14.9688 135.312 13.9869ZM130.7 20.4017C129.874 21.1872 128.841 21.6453 127.602 21.6453C126.363 21.6453 125.33 21.2526 124.504 20.4017C123.678 19.6162 123.265 18.5034 123.265 17.1288C123.265 15.7543 123.678 14.707 124.504 13.856C125.33 13.0705 126.363 12.6123 127.602 12.6123C128.841 12.6123 129.874 13.0051 130.7 13.856C131.526 14.6415 131.939 15.7543 131.939 17.1288C131.939 18.5034 131.526 19.6162 130.7 20.4017Z" fill="white"/>
<path d="M23.7974 25.0102C23.5221 25.272 23.3156 25.4684 23.0402 25.6648C22.283 26.2539 21.1817 26.2539 20.4933 25.5339L18.2906 23.4393C16.7762 21.9992 16.7762 19.5773 18.2906 18.1373L26.6197 10.217C29.0289 15.1917 27.9275 21.0828 23.7974 25.0102Z" fill="white"/>
<path d="M24.417 9.49702L22.2142 11.5916C21.457 12.3116 20.4934 12.7044 19.392 12.7044C18.3595 12.7044 17.3269 12.3116 16.5697 11.5916L8.24064 3.67138C10.0992 2.8859 12.0266 2.49316 13.954 2.49316C17.5334 2.49316 21.1129 3.8023 23.7975 6.3551C24.004 6.61693 24.2793 6.8133 24.4858 7.07512C25.1742 7.79515 25.1053 8.84245 24.417 9.49702Z" fill="white"/>
<path d="M9.75501 13.2281L1.35708 21.1483C-1.05216 16.1736 0.118046 10.217 4.17934 6.35511C4.45468 6.09328 4.66118 5.89691 4.93653 5.70054C5.2807 5.37326 5.76255 5.24235 6.17556 5.24235C6.65741 5.24235 7.13926 5.43872 7.55227 5.766L9.75501 7.86061C11.2694 9.36611 11.2694 11.7225 9.75501 13.2281Z" fill="white"/>
<path d="M19.7362 27.694C14.5047 29.9849 8.24065 28.9376 4.17936 25.0102C3.97285 24.8139 3.69751 24.552 3.491 24.2902C2.80265 23.5702 2.87148 22.5229 3.55984 21.8683L5.76257 19.7737C6.51976 19.0537 7.55229 18.6609 8.58482 18.6609C9.61736 18.6609 10.5811 19.0537 11.4071 19.7737L19.7362 27.694Z" fill="white"/>
<path d="M206.238 4.11499C208.854 10.0943 211.441 16.0737 214.086 22.1105C212.62 22.7429 211.24 23.3754 209.774 24.0078C208.538 21.1331 207.33 18.3159 206.123 15.4987C206.094 15.4987 206.065 15.4987 206.008 15.47C203.996 19.9257 201.983 24.3528 199.913 28.8948C197.987 24.3815 196.09 19.9545 194.164 15.4125C192.813 18.3734 191.519 21.2194 190.226 24.094C188.817 23.4616 187.437 22.8579 186 22.2255C188.788 16.1599 191.548 10.1518 194.365 4C196.291 8.42701 198.189 12.7678 200.115 17.1948C202.127 12.7965 204.111 8.45576 206.094 4.11499C206.18 4.11499 206.209 4.11499 206.238 4.11499Z" fill="white"/>
<path d="M215.752 14.838C215.781 10.6985 219.144 7.33508 223.255 7.39257C227.423 7.42132 230.672 10.756 230.643 14.9242C230.643 18.8338 227.337 22.4272 223.083 22.3697C218.943 22.3122 215.723 18.7476 215.752 14.838ZM223.255 11.2734C221.329 11.2446 219.719 12.8257 219.69 14.7805C219.662 16.7065 221.214 18.2876 223.198 18.3164C225.124 18.3451 226.733 16.764 226.762 14.8093C226.762 12.8832 225.21 11.3021 223.255 11.2734Z" fill="white"/>
<path d="M258.183 14.6361C256.803 15.0098 255.452 15.3835 253.958 15.7859C256.344 17.2233 258.643 18.6031 261.001 20.0405C260.368 20.4717 259.822 20.8454 259.247 21.2191C258.845 21.4778 258.442 21.7078 258.04 21.9665C257.81 22.1102 257.637 22.1102 257.378 21.9665C256.746 21.564 256.085 21.1903 255.452 20.7879C252.089 18.7469 248.726 16.7058 245.391 14.6648C245.305 14.6073 245.219 14.5498 245.104 14.4636C245.621 14.1474 246.11 13.8311 246.57 13.5437C248.927 12.1063 251.313 10.669 253.67 9.23165C254.762 8.57048 255.884 7.88055 256.976 7.21937C257.148 7.13313 257.436 7.04689 257.58 7.13313C258.615 7.70807 259.621 8.31175 260.713 8.97293C258.356 10.4103 256.056 11.8189 253.67 13.285C255.251 13.7162 256.688 14.0899 258.155 14.4923C258.183 14.5786 258.183 14.6073 258.183 14.6361Z" fill="white"/>
<path d="M238.464 24.5535C238.033 23.2312 237.602 21.9088 237.171 20.5865C236.74 19.2354 236.28 17.913 235.848 16.5619C235.216 14.6359 234.555 12.6811 233.922 10.7551C233.635 9.8639 233.347 8.944 233.031 8.05285C232.945 7.82288 232.945 7.65039 233.117 7.44917C233.692 6.78799 234.239 6.12681 234.842 5.40814C236.021 8.97275 237.2 12.4511 238.349 15.9582C238.378 15.9582 238.436 15.9582 238.464 15.9582C239.586 12.4511 240.707 8.97275 241.857 5.37939C242.23 5.78185 242.546 6.15556 242.863 6.50052C243.15 6.81674 243.438 7.13295 243.668 7.47791C243.754 7.5929 243.811 7.82288 243.783 7.96661C242.604 11.7324 241.397 15.4695 240.218 19.2354C239.643 21.0177 239.126 22.8 238.579 24.5823C238.522 24.5535 238.493 24.5535 238.464 24.5535Z" fill="white"/>
<path d="M232.973 26.1643L232.053 28.6078H231.162L230.242 26.1643H231.133L231.593 27.5729L232.053 26.1643H232.973Z" fill="white"/>
<path d="M233.549 25.4744C233.549 25.2156 233.75 25.0144 234.009 25.0144C234.268 25.0144 234.469 25.2156 234.469 25.4744C234.469 25.7331 234.268 25.9343 234.009 25.9343C233.75 25.9343 233.549 25.7331 233.549 25.4744ZM233.606 26.1643H234.411V28.6078H233.606V26.1643Z" fill="white"/>
<path d="M237.803 26.1644V28.6078H236.998V28.3779C236.854 28.5504 236.624 28.6653 236.308 28.6653C235.647 28.6653 235.158 28.1192 235.158 27.3717C235.158 26.6243 235.647 26.0781 236.308 26.0781C236.624 26.0781 236.854 26.1931 236.998 26.3656V26.1356H237.803V26.1644ZM236.998 27.3717C236.998 27.0555 236.797 26.8255 236.481 26.8255C236.164 26.8255 235.963 27.0268 235.963 27.3717C235.963 27.6879 236.164 27.9179 236.481 27.9179C236.797 27.9179 236.998 27.6879 236.998 27.3717Z" fill="white"/>
<path d="M241.224 26.1639V28.4924C241.224 29.2973 240.592 29.6423 239.931 29.6423C239.384 29.6423 238.953 29.4411 238.723 29.0386L239.413 28.6362C239.528 28.8086 239.672 28.9236 239.931 28.9236C240.218 28.9236 240.419 28.7799 240.419 28.4924V28.2625C240.276 28.4637 240.046 28.5787 239.729 28.5787C239.039 28.5787 238.551 28.0037 238.551 27.3426C238.551 26.6526 239.039 26.1064 239.729 26.1064C240.046 26.1064 240.247 26.2214 240.419 26.4227V26.1927H241.224V26.1639ZM240.419 27.3426C240.419 27.0551 240.218 26.8251 239.902 26.8251C239.586 26.8251 239.384 27.0263 239.384 27.3426C239.384 27.63 239.586 27.86 239.902 27.86C240.218 27.86 240.419 27.63 240.419 27.3426Z" fill="white"/>
<path d="M244.644 26.1639V28.4924C244.644 29.2973 244.012 29.6423 243.351 29.6423C242.804 29.6423 242.373 29.4411 242.143 29.0386L242.833 28.6362C242.948 28.8086 243.092 28.9236 243.351 28.9236C243.638 28.9236 243.839 28.7799 243.839 28.4924V28.2625C243.696 28.4637 243.466 28.5787 243.149 28.5787C242.459 28.5787 241.971 28.0037 241.971 27.3426C241.971 26.6526 242.459 26.1064 243.149 26.1064C243.466 26.1064 243.667 26.2214 243.839 26.4227V26.1927H244.644V26.1639ZM243.839 27.3426C243.839 27.0551 243.638 26.8251 243.322 26.8251C243.006 26.8251 242.804 27.0263 242.804 27.3426C242.804 27.63 243.006 27.86 243.322 27.86C243.638 27.86 243.839 27.63 243.839 27.3426Z" fill="white"/>
<path d="M245.42 25.4744C245.42 25.2156 245.621 25.0144 245.88 25.0144C246.139 25.0144 246.34 25.2156 246.34 25.4744C246.34 25.7331 246.139 25.9343 245.88 25.9343C245.621 25.9343 245.42 25.7331 245.42 25.4744ZM245.506 26.1643H246.311V28.6078H245.506V26.1643Z" fill="white"/>
<rect x="161.715" y="0.244141" width="0.561684" height="32.5777" fill="white"/>
</svg>
