<?xml version="1.0" encoding="utf-8"?>
<!-- Generator: Adobe Illustrator 27.5.0, SVG Export Plug-In . SVG Version: 6.00 Build 0)  -->
<svg version="1.1" id="Livello_1" xmlns="http://www.w3.org/2000/svg" xmlns:xlink="http://www.w3.org/1999/xlink" x="0px" y="0px"
	 viewBox="0 0 38 38" enable-background="new 0 0 38 38" xml:space="preserve">
<path fill="#5F31E1" d="M33.8,34c-0.5,2.1-6.4,3.9-13.1,4S8.9,36.6,9.4,34.5s6.4-3.9,13.1-4C29.3,30.3,34.3,31.9,33.8,34z"/>
<linearGradient id="SVGID_1_" gradientUnits="userSpaceOnUse" x1="-1818.9111" y1="-117.8547" x2="-1816.9044" y2="-117.8547" gradientTransform="matrix(1.025507e-15 16.7478 -15.9521 9.767844e-16 -1858.8446 30466.4609)">
	<stop  offset="0" style="stop-color:#A98CFF"/>
	<stop  offset="1" style="stop-color:#865DFF"/>
</linearGradient>
<path fill="url(#SVGID_1_)" d="M36.9,20.1c0.5-3.6-0.1-7.4-1.9-10.7c-0.6-1-1.3-2-2.1-2.9c-0.9-1-2-1.8-3-2.8c2.8,2.5,4.6,6,5.1,9.7
	s-0.2,7.6-1.9,10.9s-4.2,6.1-7.4,8.1c-3.1,2-6.8,3.1-10.5,3c-3.4-0.1-6.7-1.2-9.3-3.3c-0.2-0.2-0.4-0.3-0.6-0.5
	C6.6,32.8,7.9,34,9.5,35c1.4,0.9,2.9,1.5,4.6,1.9c3.5,0.8,7.3,0.4,10.7-1s6.3-3.7,8.5-6.6C35.1,26.7,36.5,23.5,36.9,20.1L36.9,20.1z
	"/>
<path fill="#FFFFFF" d="M21.2,0.1c9.5,1,15.5,9.7,13.5,19.5S23.4,36.5,13.9,35.5C4.4,34.4-1.6,25.7,0.4,16
	C2.4,6.2,11.7-0.9,21.2,0.1z"/>
<path fill="#CDC1B6" d="M15.3,34.6C6.9,33.7,0.7,26.3,2.6,17.2S13.2,1.5,22.1,2.4c7.4,0.8,11.8,7,12.1,14c0.4-8.2-5.2-15.1-13.4-16
	c-9.2-1-18.2,5.9-20.2,15.4s3.9,17.9,13,18.9c0.8,0.1,1.7,0.1,2.5,0.1C15.9,34.6,15.6,34.6,15.3,34.6z"/>
<path fill="#27C2EC" d="M19.8,2c0.5,0,1.1,0,1.6,0.1c3.9,0.4,7.4,2.4,9.6,5.5c1.2,1.6,2,3.5,2.4,5.5c0.4,2.2,0.4,4.4,0,6.5
	c-0.9,4.1-3.1,7.8-6.3,10.4c-3.2,2.7-7.1,4.2-11,4.2c-0.5,0-1.1,0-1.6-0.1c-3.9-0.4-7.4-2.4-9.6-5.5c-1.2-1.6-2-3.5-2.4-5.5
	c-0.4-2.2-0.4-4.4,0-6.5c0.9-4.1,3.1-7.8,6.3-10.4C12,3.5,15.9,2,19.8,2L19.8,2z M19.8,0.5C11.1,0.5,2.9,7.2,1,16.3
	C-1,26,5,33.8,14.3,34.8c0.6,0.1,1.2,0.1,1.8,0.1c8.7,0,16.2-6.5,18.1-15.5c2-9.7-3.3-17.8-12.6-18.8C21,0.5,20.4,0.5,19.8,0.5
	L19.8,0.5z"/>
<linearGradient id="SVGID_00000080164181518975759870000007325984712781190328_" gradientUnits="userSpaceOnUse" x1="17.1575" y1="1039.6296" x2="17.9407" y2="1075.8899" gradientTransform="matrix(1 0 0 1 0 -1040)">
	<stop  offset="0" style="stop-color:#A98CFF"/>
	<stop  offset="1" style="stop-color:#865DFF"/>
</linearGradient>
<path fill="url(#SVGID_00000080164181518975759870000007325984712781190328_)" d="M19.4,1.5c0.5,0,1.1,0,1.6,0.1
	C25,2,28.5,4,30.8,7.1c1.2,1.6,2,3.5,2.4,5.5c0.4,2.2,0.4,4.4,0,6.6c-0.9,4.1-3.1,7.8-6.4,10.5c-3.2,2.7-7.2,4.2-11.1,4.2
	c-0.5,0-1.1,0-1.6-0.1c-4-0.4-7.4-2.4-9.7-5.5c-1.2-1.6-2-3.5-2.4-5.5c-0.4-2.2-0.4-4.4,0-6.6c0.8-4.1,3-7.8,6.3-10.5
	C11.5,3,15.5,1.5,19.4,1.5L19.4,1.5z M19.4,0c-8.8,0-17.1,6.8-19,16c-2,9.8,4,18.5,13.5,19.5c0.6,0.1,1.2,0.1,1.8,0.1
	c8.8,0,17.1-6.8,19-16c2-9.8-4-18.5-13.5-19.5C20.6,0,20,0,19.4,0L19.4,0z"/>
<path fill="#CDC1B6" d="M20.5,30.7c-0.3,0.1-0.6,0.2-0.9,0.2c-0.9,0.2-1.6-0.3-1.8-1.2L17.3,27c-0.3-1.9,0.9-4,2.8-4.6l10.1-3.3
	C29.4,24.4,25.5,29.1,20.5,30.7z M29,17.5l-2.7,0.9c-0.9,0.3-1.8,0.2-2.6-0.3c-0.7-0.4-1.3-1.2-1.5-2.2L20.3,5.5
	c1.8,0.1,3.3,0.6,4.7,1.4c2.6,1.5,4.5,4.2,5.1,7.6c0,0.3,0.1,0.6,0.1,0.9C30.4,16.4,29.8,17.2,29,17.5z M16.5,14.4L6.3,17.7
	C7.1,12.3,11.1,7.6,16,6c0.3-0.1,0.6-0.2,0.9-0.2c0.4-0.1,0.8,0,1.1,0.1c0.3,0.2,0.6,0.6,0.7,1l0.5,2.8
	C19.6,11.7,18.4,13.8,16.5,14.4z M16.2,31.3c-5-0.3-8.9-3.9-9.8-9c0-0.3-0.1-0.6-0.1-0.9c-0.1-0.9,0.5-1.8,1.3-2.1l2.7-0.9
	c0.9-0.3,1.9-0.2,2.6,0.3c0.7,0.4,1.2,1.2,1.5,2.2L16.2,31.3z"/>
<linearGradient id="SVGID_00000088133102105067297850000006848955027958894769_" gradientUnits="userSpaceOnUse" x1="24.4712" y1="1044.9874" x2="21.9712" y2="1070.4874" gradientTransform="matrix(1 0 0 1 0 -1040)">
	<stop  offset="5.208330e-02" style="stop-color:#FF1D6E"/>
	<stop  offset="0.5052" style="stop-color:#42E8E0"/>
	<stop  offset="1" style="stop-color:#865DFF"/>
</linearGradient>
<path fill="url(#SVGID_00000088133102105067297850000006848955027958894769_)" d="M19.6,29.9c-0.3,0.1-0.6,0.2-0.9,0.2
	c-0.9,0.2-1.6-0.3-1.8-1.2l-0.5-2.8c-0.3-1.9,0.9-4,2.8-4.6l10.1-3.3C28.5,23.7,24.6,28.3,19.6,29.9z"/>
<linearGradient id="SVGID_00000004537297378696105620000016408167916850169004_" gradientUnits="userSpaceOnUse" x1="24.8465" y1="1045.0242" x2="22.3465" y2="1070.5242" gradientTransform="matrix(1 0 0 1 0 -1040)">
	<stop  offset="5.208330e-02" style="stop-color:#FF1D6E"/>
	<stop  offset="0.5052" style="stop-color:#42E8E0"/>
	<stop  offset="1" style="stop-color:#865DFF"/>
</linearGradient>
<path fill="url(#SVGID_00000004537297378696105620000016408167916850169004_)" d="M28.1,16.7l-2.7,0.9c-0.9,0.3-1.8,0.2-2.6-0.3
	c-0.7-0.4-1.3-1.2-1.5-2.2L19.4,4.7c1.8,0.1,3.3,0.6,4.7,1.4c2.6,1.5,4.5,4.2,5.1,7.6c0,0.3,0.1,0.6,0.1,0.9
	C29.5,15.6,28.9,16.5,28.1,16.7z"/>
<linearGradient id="SVGID_00000109707743181724511240000003694576845308773277_" gradientUnits="userSpaceOnUse" x1="12.8223" y1="1043.8453" x2="10.3223" y2="1069.3453" gradientTransform="matrix(1 0 0 1 0 -1040)">
	<stop  offset="5.208330e-02" style="stop-color:#FF1D6E"/>
	<stop  offset="0.5052" style="stop-color:#42E8E0"/>
	<stop  offset="1" style="stop-color:#865DFF"/>
</linearGradient>
<path fill="url(#SVGID_00000109707743181724511240000003694576845308773277_)" d="M15.6,13.6L5.4,16.9c0.8-5.4,4.8-10,9.7-11.6
	C15.4,5.2,15.7,5.1,16,5c0.4-0.1,0.8,0,1.1,0.1c0.3,0.2,0.6,0.6,0.7,1L18.3,9C18.7,10.9,17.4,13,15.6,13.6z"/>
<linearGradient id="SVGID_00000011741184450659164780000007513087045600546211_" gradientUnits="userSpaceOnUse" x1="12.4618" y1="1043.8099" x2="9.9618" y2="1069.3099" gradientTransform="matrix(1 0 0 1 0 -1040)">
	<stop  offset="5.208330e-02" style="stop-color:#FF1D6E"/>
	<stop  offset="0.5052" style="stop-color:#42E8E0"/>
	<stop  offset="1" style="stop-color:#865DFF"/>
</linearGradient>
<path fill="url(#SVGID_00000011741184450659164780000007513087045600546211_)" d="M15.3,30.5c-5-0.3-8.9-3.9-9.8-9
	c0-0.3-0.1-0.6-0.1-0.9c-0.1-0.9,0.5-1.8,1.3-2.1l2.7-0.9c0.9-0.3,1.9-0.2,2.6,0.3c0.7,0.4,1.2,1.2,1.5,2.2L15.3,30.5z"/>
</svg>
