<?xml version="1.0" encoding="utf-8"?>
<!-- Generator: Adobe Illustrator 27.5.0, SVG Export Plug-In . SVG Version: 6.00 Build 0)  -->
<svg version="1.1" id="Livello_1" xmlns="http://www.w3.org/2000/svg" xmlns:xlink="http://www.w3.org/1999/xlink" x="0px" y="0px"
	 viewBox="0 0 16 16" style="enable-background:new 0 0 16 16;" xml:space="preserve">
<path d="M13.4,13.5c-0.1,0.1-0.2,0.2-0.4,0.4c-0.4,0.3-1,0.3-1.4-0.1l-1.2-1.2c-0.9-0.9-0.9-2.3,0-3.1L15,4.9
	C16.4,7.7,15.7,11.2,13.4,13.5z M13.3,2.5c0.1,0.1,0.2,0.2,0.4,0.4c0.3,0.4,0.3,1-0.1,1.4l-1.2,1.2c-0.9,0.9-2.3,0.9-3.1,0L4.7,1
	C7.5-0.4,11,0.2,13.3,2.5z M2.5,2.5C2.6,2.4,2.8,2.3,3,2.1c0.4-0.3,1-0.3,1.4,0.1l1.2,1.2c0.9,0.9,0.9,2.3,0,3.1L1,11.1
	C-0.4,8.4,0.2,4.9,2.5,2.5z M2.5,13.5c-0.1-0.1-0.2-0.2-0.4-0.4c-0.3-0.4-0.3-1,0.1-1.4l1.2-1.2c0.9-0.9,2.3-0.9,3.1,0l4.6,4.6
	C8.4,16.4,4.9,15.8,2.5,13.5z"/>
</svg>
