<?xml version="1.0" encoding="utf-8"?>
<!-- Generator: Adobe Illustrator 26.4.0, SVG Export Plug-In . SVG Version: 6.00 Build 0)  -->
<svg version="1.1" id="Livello_1" xmlns="http://www.w3.org/2000/svg" xmlns:xlink="http://www.w3.org/1999/xlink" x="0px" y="0px"
	 viewBox="0 0 169 55" style="enable-background:new 0 0 169 55;" xml:space="preserve">
<g>
	<path d="M87.3,6c0,1.2-1,2.2-2.3,2.2c-1.3,0-2.3-1-2.3-2.2c0-1.2,1-2.1,2.3-2.1C86.3,3.9,87.3,4.8,87.3,6z M83.3,6
		c0,1,0.7,1.7,1.7,1.7c1,0,1.7-0.8,1.7-1.7c0-1-0.7-1.7-1.7-1.7C84,4.3,83.3,5.1,83.3,6z M84.7,7.1h-0.5V5c0.2,0,0.5-0.1,0.9-0.1
		c0.4,0,0.6,0.1,0.8,0.2C86,5.2,86,5.4,86,5.6C86,5.8,85.8,6,85.6,6v0c0.2,0.1,0.3,0.2,0.4,0.5c0.1,0.3,0.1,0.4,0.2,0.5h-0.5
		c-0.1-0.1-0.1-0.3-0.2-0.5c0-0.2-0.2-0.4-0.5-0.4h-0.2L84.7,7.1L84.7,7.1z M84.7,5.9h0.2c0.3,0,0.5-0.1,0.5-0.3
		c0-0.2-0.2-0.3-0.5-0.3c-0.1,0-0.2,0-0.3,0V5.9z"/>
</g>
<g>
	<path d="M31.4,6.9c-0.2-0.6-0.6-1.1-1-1.6c-0.4-0.4-1-0.8-1.5-1c-0.5-0.2-1.2-0.4-1.8-0.4c-0.4,0-0.8,0-1.1,0.2
		c-0.3,0.1-0.6,0.2-0.8,0.3c-0.2,0.2-0.5,0.3-0.7,0.5L24.3,5V1.5l-2.4,0.6v11.6h2.2v-1l0.1,0.1c0.2,0.2,0.5,0.4,0.7,0.5
		c0.2,0.2,0.5,0.3,0.9,0.4c0.3,0.1,0.7,0.2,1.2,0.2c0.6,0,1.2-0.1,1.8-0.4c0.6-0.2,1.1-0.6,1.5-1c0.4-0.4,0.8-1,1-1.6
		c0.2-0.6,0.4-1.3,0.4-2C31.8,8.2,31.6,7.5,31.4,6.9z M28.6,10.8c-0.5,0.5-1.1,0.8-1.9,0.8s-1.4-0.2-1.9-0.8c-0.5-0.5-0.7-1.2-0.7-2
		s0.2-1.5,0.7-2c0.5-0.5,1.1-0.8,1.9-0.8s1.4,0.2,1.9,0.8c0.5,0.5,0.7,1.2,0.7,2S29.1,10.4,28.6,10.8z"/>
</g>
<g>
	<path d="M35.7,1.5v12.2h-2.4V2.1L35.7,1.5z"/>
</g>
<g>
	<path d="M40.2,1.5c0,0.4-0.1,0.7-0.4,0.9c-0.3,0.3-0.6,0.4-1,0.4c-0.4,0-0.7-0.1-1-0.4c-0.3-0.3-0.4-0.6-0.4-0.9
		c0-0.4,0.1-0.7,0.4-0.9c0.3-0.3,0.6-0.4,1-0.4c0.4,0,0.7,0.1,1,0.4C40.1,0.8,40.2,1.1,40.2,1.5z"/>
</g>
<g>
	<path d="M40,4h-2.4v9.7H40V4z"/>
</g>
<g>
	<path d="M51.2,8v5.7h-2.4V8.3c0-0.6-0.2-1.2-0.6-1.6s-0.9-0.6-1.6-0.6c-0.6,0-1.2,0.2-1.6,0.6c-0.4,0.4-0.6,0.9-0.6,1.6v5.4h-2.4V4
		h2.2v1L44.3,5c0.2-0.2,0.5-0.4,0.8-0.5c0.2-0.1,0.5-0.2,0.9-0.4C46.3,4,46.7,4,47.1,4c0.6,0,1.2,0.1,1.7,0.3s0.9,0.5,1.3,0.8
		c0.4,0.4,0.6,0.8,0.8,1.3C51.1,6.8,51.2,7.4,51.2,8z"/>
</g>
<g>
	<path d="M61.7,13.7H59l-3.6-4.6v4.6h-2.4V2.1l2.4-0.6v6.7L58.6,4h2.7l-3.7,4.6L61.7,13.7z"/>
</g>
<g>
	<path d="M70.6,6.9c-0.2-0.6-0.6-1.1-1.1-1.6c-0.5-0.5-1-0.8-1.6-1.1C67.3,4,66.7,3.9,66,3.9c-0.7,0-1.3,0.1-1.9,0.4
		c-0.6,0.2-1.2,0.6-1.6,1.1c-0.5,0.4-0.8,1-1.1,1.6c-0.2,0.6-0.4,1.2-0.4,1.9c0,0.7,0.1,1.3,0.4,1.9c0.2,0.6,0.6,1.1,1.1,1.6
		c0.5,0.4,1,0.8,1.6,1.1c0.6,0.2,1.2,0.4,1.9,0.4c0.7,0,1.3-0.1,1.9-0.4c0.6-0.2,1.2-0.6,1.6-1.1c0.5-0.4,0.8-1,1.1-1.6
		c0.2-0.6,0.4-1.2,0.4-1.9C71.1,8.2,70.9,7.5,70.6,6.9z M67.9,10.8c-0.5,0.5-1.1,0.8-1.9,0.8c-0.7,0-1.4-0.2-1.9-0.8
		c-0.5-0.5-0.7-1.2-0.7-2s0.2-1.5,0.7-2c0.5-0.5,1.1-0.8,1.9-0.8c0.7,0,1.4,0.2,1.9,0.8c0.5,0.5,0.7,1.2,0.7,2S68.4,10.4,67.9,10.8z
		"/>
</g>
<g>
	<path d="M81.8,6.9c-0.3-0.6-0.7-1.1-1.1-1.6c-0.5-0.4-1-0.8-1.6-1.1c-0.6-0.2-1.2-0.4-1.9-0.4c-0.7,0-1.3,0.1-1.9,0.4
		c-0.6,0.2-1.2,0.6-1.6,1.1c-0.5,0.4-0.8,1-1.1,1.6C72.1,7.5,72,8.2,72,8.8c0,0.7,0.1,1.3,0.4,1.9c0.3,0.6,0.6,1.1,1.1,1.6
		c0.5,0.4,1,0.8,1.6,1.1c0.6,0.2,1.2,0.4,1.9,0.4c0.7,0,1.3-0.1,1.9-0.4c0.6-0.2,1.2-0.6,1.6-1.1c0.5-0.4,0.8-1,1.1-1.6
		c0.2-0.6,0.4-1.2,0.4-1.9C82.2,8.2,82.1,7.5,81.8,6.9z M79,10.8c-0.5,0.5-1.1,0.8-1.9,0.8c-0.7,0-1.4-0.2-1.9-0.8
		c-0.5-0.5-0.7-1.2-0.7-2s0.2-1.5,0.7-2c0.5-0.5,1.1-0.8,1.9-0.8c0.7,0,1.4,0.2,1.9,0.8c0.5,0.5,0.7,1.2,0.7,2S79.5,10.4,79,10.8z"
		/>
</g>
<g>
	<path d="M14.6,13.6c-0.2,0.2-0.3,0.3-0.5,0.4c-0.5,0.4-1.1,0.4-1.5-0.1l-1.3-1.3c-0.9-0.9-0.9-2.3,0-3.2l5-4.8
		C17.7,7.7,17,11.2,14.6,13.6z"/>
</g>
<g>
	<path d="M14.9,4.2l-1.3,1.3c-0.5,0.4-1,0.7-1.7,0.7c-0.6,0-1.2-0.2-1.7-0.7l-5-4.8C6.3,0.2,7.5,0,8.6,0c2.2,0,4.3,0.8,5.9,2.3
		c0.1,0.2,0.3,0.3,0.4,0.4C15.4,3.2,15.3,3.8,14.9,4.2z"/>
</g>
<g>
	<path d="M6.1,6.5L1,11.3c-1.5-3-0.7-6.6,1.7-9C2.9,2.2,3,2,3.2,1.9c0.2-0.2,0.5-0.3,0.7-0.3c0.3,0,0.6,0.1,0.8,0.3l1.3,1.3
		C7,4.1,7,5.6,6.1,6.5z"/>
</g>
<g>
	<path d="M12.1,15.3C9,16.6,5.2,16,2.7,13.6c-0.1-0.1-0.3-0.3-0.4-0.4c-0.4-0.4-0.4-1.1,0-1.5l1.3-1.3C4.1,10,4.8,9.8,5.4,9.8
		c0.6,0,1.2,0.2,1.7,0.7L12.1,15.3z"/>
</g>
<defs>
	<filter id="Adobe_OpacityMaskFilter" filterUnits="userSpaceOnUse" x="0.6" y="15.8" width="168.7" height="38.9">
		<feColorMatrix  type="matrix" values="1 0 0 0 0  0 1 0 0 0  0 0 1 0 0  0 0 0 1 0"/>
	</filter>
</defs>
<mask maskUnits="userSpaceOnUse" x="0.6" y="15.8" width="168.7" height="38.9" id="path-11-outside-1_10205_174222_00000082326041348713361400000008092675592531339450_">
	<rect x="0.6" y="15.8" style="fill:#FFFFFF;filter:url(#Adobe_OpacityMaskFilter);" width="169" height="39"/>
	<path d="M1.6,53.7V25.3h5.7v3.5h0.3c0.3-0.6,0.6-1.1,1.1-1.7c0.5-0.6,1.1-1.1,1.9-1.5c0.8-0.4,1.8-0.6,2.9-0.6
		c1.5,0,2.9,0.4,4.2,1.2c1.3,0.8,2.3,2,3.1,3.5c0.8,1.6,1.1,3.5,1.1,5.9c0,2.3-0.4,4.3-1.1,5.8c-0.7,1.6-1.7,2.8-3,3.6
		c-1.3,0.8-2.7,1.2-4.3,1.2c-1.1,0-2.1-0.2-2.8-0.6c-0.8-0.4-1.4-0.8-1.9-1.4c-0.5-0.6-0.9-1.1-1.1-1.7H7.3v11.1H1.6z M7.2,35.6
		c0,1.2,0.2,2.3,0.5,3.2C8,39.8,8.5,40.5,9.2,41c0.6,0.5,1.4,0.8,2.4,0.8c0.9,0,1.7-0.3,2.4-0.8c0.6-0.5,1.1-1.2,1.5-2.2
		c0.3-0.9,0.5-2,0.5-3.2c0-1.2-0.2-2.2-0.5-3.2c-0.3-0.9-0.8-1.6-1.5-2.1c-0.6-0.5-1.4-0.8-2.4-0.8c-0.9,0-1.7,0.2-2.4,0.7
		c-0.6,0.5-1.1,1.2-1.5,2.1C7.4,33.3,7.2,34.4,7.2,35.6z M26.7,46V25.3h5.6v3.6h0.2c0.4-1.3,1-2.3,1.9-2.9c0.9-0.7,1.9-1,3.1-1
		c0.3,0,0.6,0,0.9,0.1c0.3,0,0.6,0.1,0.9,0.1v5.1c-0.3-0.1-0.6-0.2-1.1-0.2C37.7,30,37.2,30,36.9,30c-0.8,0-1.6,0.2-2.3,0.6
		c-0.7,0.4-1.2,0.9-1.6,1.5c-0.4,0.6-0.6,1.4-0.6,2.2V46H26.7z M51.9,46.4c-2.1,0-4-0.4-5.5-1.3c-1.5-0.9-2.7-2.1-3.5-3.7
		c-0.8-1.6-1.2-3.5-1.2-5.7c0-2.1,0.4-4,1.2-5.6c0.8-1.6,2-2.9,3.5-3.8c1.5-0.9,3.3-1.3,5.3-1.3c1.4,0,2.6,0.2,3.8,0.7
		c1.2,0.4,2.2,1.1,3.1,2c0.9,0.9,1.6,2,2.1,3.3c0.5,1.3,0.7,2.8,0.7,4.6v1.6H43.9v-3.6h12.1c0-0.8-0.2-1.6-0.5-2.2
		c-0.4-0.6-0.9-1.1-1.5-1.5c-0.6-0.4-1.4-0.6-2.2-0.6c-0.9,0-1.6,0.2-2.3,0.6c-0.7,0.4-1.2,0.9-1.6,1.6c-0.4,0.7-0.6,1.4-0.6,2.2
		v3.4c0,1,0.2,1.9,0.6,2.7c0.4,0.7,0.9,1.3,1.6,1.7c0.7,0.4,1.5,0.6,2.5,0.6c0.6,0,1.2-0.1,1.8-0.3c0.5-0.2,1-0.4,1.4-0.8
		c0.4-0.4,0.7-0.8,0.9-1.3l5.3,0.4c-0.3,1.3-0.8,2.4-1.7,3.3c-0.8,0.9-1.9,1.7-3.2,2.2C55.1,46.1,53.6,46.4,51.9,46.4z M66.2,46
		V25.3h5.5v3.7h0.2c0.4-1.2,1.1-2.2,2.2-2.9c1-0.7,2.2-1.1,3.6-1.1c1.4,0,2.6,0.4,3.6,1.1c1,0.7,1.7,1.7,2,2.9h0.2
		c0.4-1.2,1.2-2.1,2.3-2.8c1.1-0.7,2.4-1.1,3.9-1.1c1.9,0,3.5,0.6,4.7,1.8c1.2,1.2,1.8,3,1.8,5.2V46h-5.7V33.2c0-1.1-0.3-2-0.9-2.6
		c-0.6-0.6-1.4-0.9-2.3-0.9c-1,0-1.9,0.3-2.4,1c-0.6,0.7-0.9,1.5-0.9,2.6V46h-5.6V33.1c0-1-0.3-1.8-0.9-2.4
		c-0.6-0.6-1.3-0.9-2.3-0.9c-0.6,0-1.2,0.2-1.7,0.5c-0.5,0.3-0.9,0.8-1.2,1.3c-0.3,0.6-0.4,1.2-0.4,2V46H66.2z M102,46V25.3h5.7V46
		H102z M104.9,22.6c-0.9,0-1.6-0.3-2.2-0.8c-0.6-0.6-0.9-1.3-0.9-2.1c0-0.8,0.3-1.5,0.9-2c0.6-0.6,1.3-0.9,2.2-0.9
		c0.9,0,1.6,0.3,2.2,0.9c0.6,0.6,0.9,1.2,0.9,2c0,0.8-0.3,1.5-0.9,2.1C106.4,22.3,105.7,22.6,104.9,22.6z M126.7,37.2V25.3h5.7V46
		H127v-3.8h-0.2c-0.5,1.2-1.2,2.2-2.3,2.9c-1.1,0.7-2.4,1.1-3.9,1.1c-1.4,0-2.6-0.3-3.7-0.9c-1.1-0.6-1.9-1.5-2.5-2.7
		c-0.6-1.2-0.9-2.5-0.9-4.2V25.3h5.7v12.2c0,1.2,0.3,2.2,1,2.9c0.6,0.7,1.5,1.1,2.6,1.1c0.7,0,1.3-0.2,1.9-0.5
		c0.6-0.3,1.1-0.8,1.5-1.4C126.6,38.9,126.7,38.1,126.7,37.2z M138.2,46V25.3h5.5v3.7h0.2c0.4-1.2,1.1-2.2,2.2-2.9s2.2-1.1,3.6-1.1
		c1.4,0,2.6,0.4,3.6,1.1c1,0.7,1.7,1.7,2,2.9h0.2c0.4-1.2,1.2-2.1,2.3-2.8c1.1-0.7,2.4-1.1,3.9-1.1c1.9,0,3.5,0.6,4.7,1.8
		c1.2,1.2,1.8,3,1.8,5.2V46h-5.7V33.2c0-1.1-0.3-2-0.9-2.6c-0.6-0.6-1.4-0.9-2.3-0.9c-1,0-1.9,0.3-2.4,1c-0.6,0.7-0.9,1.5-0.9,2.6
		V46h-5.6V33.1c0-1-0.3-1.8-0.9-2.4c-0.6-0.6-1.3-0.9-2.3-0.9c-0.6,0-1.2,0.2-1.7,0.5c-0.5,0.3-0.9,0.8-1.2,1.3
		c-0.3,0.6-0.4,1.2-0.4,2V46H138.2z"/>
</mask>
<g style="mask:url(#path-11-outside-1_10205_174222_00000082326041348713361400000008092675592531339450_);">
	<path d="M8.3,54.7H0.6V24.3h7.7V26c0.5-0.5,1.1-0.9,1.8-1.3c0.9-0.5,2-0.7,3.4-0.7c1.7,0,3.3,0.4,4.7,1.3c1.4,0.9,2.6,2.2,3.4,4
		c0.8,1.7,1.2,3.8,1.2,6.3c0,2.4-0.4,4.6-1.2,6.3c-0.8,1.7-2,3.1-3.4,4c-1.4,0.9-3,1.4-4.8,1.4c-1.3,0-2.4-0.2-3.3-0.6
		c-0.7-0.3-1.3-0.7-1.8-1.2V54.7z M51.9,47.4c-2.3,0-4.3-0.5-6-1.4c-1.7-1-3-2.3-3.9-4.1c-0.9-1.7-1.4-3.8-1.4-6.1
		c0-2.3,0.5-4.3,1.4-6.1c0.9-1.8,2.2-3.2,3.9-4.2c1.7-1,3.6-1.5,5.8-1.5c1.5,0,2.9,0.2,4.2,0.7c1.3,0.5,2.5,1.2,3.5,2.2
		c1,1,1.8,2.2,2.3,3.6c0.5,1.4,0.8,3.1,0.8,5v2.6h-14c0.1,0.5,0.2,0.9,0.4,1.2c0.3,0.6,0.7,1,1.2,1.3c0.5,0.3,1.2,0.5,2,0.5
		c0.5,0,1-0.1,1.4-0.2c0.4-0.1,0.7-0.3,1-0.6c0.3-0.3,0.5-0.6,0.6-1l0.3-0.7l7.2,0.5l-0.2,1.1c-0.3,1.4-0.9,2.7-1.9,3.8
		c-0.9,1.1-2.1,1.9-3.6,2.5C55.3,47.1,53.7,47.4,51.9,47.4z M48.5,32.5h6.4c-0.1-0.3-0.2-0.5-0.3-0.7c-0.3-0.5-0.6-0.8-1.1-1.1
		c-0.5-0.3-1-0.4-1.7-0.4c-0.7,0-1.3,0.2-1.8,0.5c-0.5,0.3-0.9,0.7-1.2,1.2C48.6,32.2,48.5,32.4,48.5,32.5z M120.5,47.2
		c-1.6,0-3-0.4-4.2-1.1c-1.2-0.7-2.2-1.8-2.8-3.1c-0.7-1.3-1-2.8-1-4.6V24.3h7.7v13.2c0,1,0.2,1.7,0.7,2.2c0.5,0.5,1.1,0.7,1.9,0.7
		c0.5,0,1-0.1,1.5-0.4c0.4-0.2,0.8-0.6,1.1-1c0.3-0.5,0.4-1.1,0.4-1.8V24.3h7.7V47H126v-1.8c-0.3,0.3-0.6,0.6-1,0.8
		C123.7,46.8,122.2,47.2,120.5,47.2z M169.3,47h-7.7V33.2c0-0.9-0.2-1.5-0.6-1.9c-0.4-0.4-0.9-0.6-1.6-0.6c-0.7,0-1.3,0.2-1.7,0.7
		c-0.4,0.5-0.6,1.1-0.6,1.9V47h-7.6V33.1c0-0.8-0.2-1.3-0.6-1.7c-0.4-0.4-0.9-0.6-1.6-0.6c-0.4,0-0.8,0.1-1.2,0.3
		c-0.4,0.2-0.6,0.5-0.8,0.9c-0.2,0.4-0.3,0.9-0.3,1.5V47h-7.7V24.3h7.5v1.6c0.3-0.2,0.5-0.5,0.8-0.7c1.2-0.8,2.6-1.2,4.2-1.2
		c1.6,0,3,0.4,4.2,1.2c0.6,0.5,1.2,1,1.6,1.6c0.5-0.6,1.1-1.2,1.8-1.6c1.3-0.8,2.8-1.2,4.5-1.2c2.2,0,4,0.7,5.4,2.1
		c1.4,1.4,2.1,3.4,2.1,5.9V47z M108.7,47H101V24.3h7.7V47z M97.3,47h-7.7V33.2c0-0.9-0.2-1.5-0.6-1.9c-0.4-0.4-0.9-0.6-1.6-0.6
		c-0.8,0-1.3,0.2-1.7,0.7c-0.4,0.5-0.6,1.1-0.6,1.9V47h-7.6V33.1c0-0.8-0.2-1.3-0.6-1.7c-0.4-0.4-0.9-0.6-1.6-0.6
		c-0.4,0-0.8,0.1-1.2,0.3c-0.4,0.2-0.6,0.5-0.8,0.9C73.1,32.4,73,33,73,33.6V47h-7.7V24.3h7.5v1.6c0.3-0.2,0.5-0.5,0.8-0.7
		c1.2-0.8,2.6-1.2,4.2-1.2c1.6,0,3,0.4,4.2,1.2c0.6,0.5,1.2,1,1.6,1.6c0.5-0.6,1.1-1.2,1.8-1.6c1.3-0.8,2.8-1.2,4.5-1.2
		c2.2,0,4,0.7,5.4,2.1c1.4,1.4,2.1,3.4,2.1,5.9V47z M33.5,47h-7.7V24.3h7.6v1.3c0.2-0.2,0.3-0.3,0.5-0.4c1.1-0.8,2.3-1.2,3.7-1.2
		c0.3,0,0.7,0,1,0.1c0.4,0,0.7,0.1,1,0.2l0.8,0.2v7.2L39,31.2c-0.2-0.1-0.5-0.1-1-0.2c-1.3-0.2-2.2-0.1-3,0.3
		c-0.5,0.3-0.9,0.7-1.2,1.1c-0.3,0.5-0.4,1.1-0.4,1.7V47z M11.5,30.6c-0.7,0-1.3,0.2-1.8,0.5c-0.5,0.4-0.9,0.9-1.1,1.7
		c-0.3,0.8-0.4,1.7-0.4,2.9c0,1.1,0.2,2.1,0.4,2.9c0.3,0.7,0.7,1.3,1.2,1.7c0.5,0.4,1,0.5,1.7,0.5c0.7,0,1.3-0.2,1.8-0.6
		c0.5-0.4,0.9-1,1.1-1.7c0.3-0.8,0.5-1.8,0.5-2.9c0-1.1-0.1-2-0.4-2.8c-0.3-0.7-0.6-1.3-1.1-1.7C12.8,30.8,12.3,30.6,11.5,30.6z
		 M104.9,23.6c-1.1,0-2.1-0.4-2.9-1.1c-0.8-0.8-1.2-1.7-1.2-2.8c0-1.1,0.4-2,1.2-2.8c0.8-0.8,1.8-1.1,2.9-1.1c1.1,0,2.1,0.4,2.9,1.1
		c0.8,0.7,1.2,1.7,1.2,2.8c0,1.1-0.4,2-1.2,2.8C106.9,23.2,106,23.6,104.9,23.6z"/>
</g>
</svg>
