<svg width="60" height="14" viewBox="0 0 60 14" fill="none" xmlns="http://www.w3.org/2000/svg">
<path d="M9.31989 6.91875C9.0757 6.30827 8.70941 5.7792 8.30243 5.29082C7.89545 4.84314 7.36637 4.47685 6.8373 4.23266C6.30822 3.98847 5.69775 3.86638 5.08728 3.86638C4.68029 3.86638 4.31401 3.90708 3.98842 4.02917C3.70354 4.15127 3.41865 4.23266 3.17446 4.35476C2.93027 4.51755 2.68608 4.63965 2.48259 4.84314L2.40119 4.92453V1.38379L0 1.99426V13.8781H2.1977V12.82L2.2791 12.9014C2.48259 13.1049 2.72678 13.2677 3.01167 13.4305C3.25586 13.5933 3.54074 13.7153 3.90703 13.7967C4.23261 13.9188 4.63959 13.9595 5.04658 13.9595C5.65705 13.9595 6.26752 13.8374 6.7966 13.5933C7.36637 13.3491 7.85475 12.9828 8.26173 12.5351C8.66872 12.0874 9.035 11.5583 9.27919 10.9072C9.52338 10.2967 9.64547 9.60483 9.64547 8.87226C9.68617 8.22109 9.56408 7.52922 9.31989 6.91875ZM6.59311 10.9479C6.10473 11.4362 5.49426 11.7211 4.76169 11.7211C4.02912 11.7211 3.41865 11.4769 2.93027 10.9479C2.44189 10.4595 2.1977 9.76762 2.1977 8.91296C2.1977 8.05829 2.44189 7.40712 2.93027 6.87805C3.41865 6.38967 4.02912 6.10478 4.76169 6.10478C5.49426 6.10478 6.10473 6.34897 6.59311 6.87805C7.08149 7.36643 7.32568 8.05829 7.32568 8.91296C7.32568 9.76762 7.04079 10.4595 6.59311 10.9479Z" fill="white"/>
<path d="M13.5106 1.38379V13.8781H11.1094V1.99426L13.5106 1.38379Z" fill="white"/>
<path d="M17.9869 1.34304C17.9869 1.70932 17.8648 2.03491 17.5799 2.2791C17.295 2.56399 16.9694 2.68608 16.6438 2.68608C16.2775 2.68608 15.952 2.56399 15.7078 2.2791C15.4229 1.99421 15.3008 1.66863 15.3008 1.34304C15.3008 0.976757 15.4229 0.651171 15.7078 0.406982C15.9927 0.122095 16.3182 0 16.6438 0C17.0101 0 17.3357 0.122095 17.5799 0.406982C17.8648 0.651171 17.9869 0.976757 17.9869 1.34304Z" fill="white"/>
<path d="M17.784 3.98828H15.3828V13.9186H17.784V3.98828Z" fill="white"/>
<path d="M28.7726 8.05844V13.8783H26.3715V8.38403C26.3715 7.73286 26.168 7.16308 25.761 6.7561C25.354 6.34912 24.8656 6.14563 24.2145 6.14563C23.604 6.14563 23.0749 6.34912 22.6679 6.7561C22.2609 7.16308 22.0574 7.69216 22.0574 8.38403V13.8783H19.6562V3.98862H21.854V5.04678L21.9353 4.96538C22.1795 4.76189 22.4644 4.5991 22.7493 4.4363C22.9935 4.31421 23.2784 4.19211 23.604 4.07002C23.9296 3.94792 24.3365 3.90723 24.7435 3.90723C25.3133 3.90723 25.8831 3.98862 26.3715 4.19211C26.8598 4.3956 27.2668 4.68049 27.6331 5.04678C27.9994 5.41306 28.2436 5.86074 28.4471 6.34912C28.6506 6.8375 28.7726 7.40727 28.7726 8.05844Z" fill="white"/>
<path d="M39.0694 13.8781H36.3833L32.8426 9.19784V13.8781H30.4414V1.99426L32.8426 1.38379V8.22109L35.9764 3.98847H38.6624L35.081 8.70947L39.0694 13.8781Z" fill="white"/>
<path d="M47.8219 6.95896C47.5777 6.34848 47.2114 5.81941 46.7637 5.33103C46.3161 4.84265 45.787 4.51706 45.1765 4.23218C44.566 3.98799 43.9556 3.8252 43.2637 3.8252C42.5718 3.8252 41.9613 3.94729 41.3509 4.23218C40.7404 4.47637 40.2113 4.88335 39.7636 5.33103C39.316 5.77871 38.9497 6.34848 38.6648 6.95896C38.4206 7.56943 38.2578 8.2206 38.2578 8.91247C38.2578 9.60434 38.3799 10.2962 38.6648 10.866C38.909 11.4765 39.2753 12.0055 39.7636 12.4939C40.2113 12.9416 40.7404 13.3079 41.3509 13.5928C41.9613 13.837 42.5718 13.9997 43.2637 13.9997C43.9149 13.9997 44.566 13.8777 45.1765 13.5928C45.787 13.3486 46.3161 12.9416 46.7637 12.4939C47.2114 12.0462 47.5777 11.4765 47.8219 10.866C48.0661 10.2555 48.2289 9.60434 48.2289 8.91247C48.2289 8.2206 48.1068 7.56943 47.8219 6.95896ZM45.0951 10.9474C44.6067 11.4358 43.9963 11.7206 43.2637 11.7206C42.5311 11.7206 41.9207 11.4765 41.4323 10.9474C40.9439 10.459 40.6997 9.76713 40.6997 8.91247C40.6997 8.05781 40.9439 7.40664 41.4323 6.87756C41.9207 6.38918 42.5311 6.1043 43.2637 6.1043C43.9963 6.1043 44.6067 6.34848 45.0951 6.87756C45.5835 7.36594 45.8277 8.05781 45.8277 8.91247C45.8277 9.76713 45.5835 10.459 45.0951 10.9474Z" fill="white"/>
<path d="M58.7259 6.95896C58.441 6.34848 58.0747 5.81941 57.627 5.33103C57.1793 4.88335 56.6503 4.51706 56.0398 4.23218C55.4293 3.98799 54.8188 3.8252 54.127 3.8252C53.4758 3.8252 52.8246 3.94729 52.2142 4.23218C51.6037 4.47637 51.0746 4.88335 50.6269 5.33103C50.1792 5.77871 49.813 6.34848 49.5281 6.95896C49.2839 7.56943 49.1211 8.2206 49.1211 8.91247C49.1211 9.60434 49.2432 10.2962 49.5281 10.866C49.813 11.4765 50.1385 12.0055 50.6269 12.4939C51.0746 12.9416 51.6037 13.3079 52.2142 13.5928C52.8246 13.837 53.4351 13.9997 54.127 13.9997C54.7781 13.9997 55.4293 13.8777 56.0398 13.5928C56.6503 13.3486 57.1793 12.9416 57.627 12.4939C58.0747 12.0462 58.441 11.4765 58.7259 10.866C58.9701 10.2555 59.1329 9.60434 59.1329 8.91247C59.1329 8.2206 59.0108 7.56943 58.7259 6.95896ZM55.9991 10.9474C55.5107 11.4358 54.9002 11.7206 54.1677 11.7206C53.4351 11.7206 52.8246 11.4765 52.3362 10.9474C51.8479 10.459 51.6037 9.76713 51.6037 8.91247C51.6037 8.05781 51.8479 7.40664 52.3362 6.87756C52.8246 6.38918 53.4351 6.1043 54.1677 6.1043C54.9002 6.1043 55.5107 6.34848 55.9991 6.87756C56.4875 7.36594 56.7317 8.05781 56.7317 8.91247C56.7317 9.76713 56.4875 10.459 55.9991 10.9474Z" fill="white"/>
</svg>
