<?xml version="1.0" encoding="utf-8"?>
<svg version="1.1" id="Livello_1" xmlns="http://www.w3.org/2000/svg" xmlns:xlink="http://www.w3.org/1999/xlink" x="0px" y="0px"
	 viewBox="0 0 136 27" style="enable-background:new 0 0 136 27;" xml:space="preserve">
<path d="M51.6,11.4c-0.4-1-1-1.8-1.7-2.6c-0.7-0.7-1.6-1.3-2.5-1.7c-0.9-0.4-1.9-0.6-3-0.6c-0.7,0-1.3,0.1-1.9,0.3
	c-0.5,0.2-1,0.3-1.4,0.5c-0.4,0.3-0.8,0.5-1.2,0.8l-0.1,0.1V2.5l-4.1,1v19.1h3.7v-1.7l0.1,0.1c0.3,0.3,0.8,0.6,1.2,0.9
	c0.4,0.3,0.9,0.5,1.5,0.6c0.6,0.2,1.2,0.3,1.9,0.3c1,0,2.1-0.2,3-0.6c1-0.4,1.8-1,2.5-1.7c0.7-0.7,1.3-1.6,1.7-2.6
	c0.4-1,0.6-2.1,0.6-3.3C52.2,13.5,52,12.4,51.6,11.4z M47,17.9c-0.8,0.8-1.9,1.2-3.1,1.2c-1.2,0-2.3-0.4-3.1-1.2
	c-0.8-0.8-1.2-1.9-1.2-3.3c0-1.4,0.4-2.4,1.2-3.3c0.8-0.8,1.9-1.2,3.1-1.2c1.2,0,2.3,0.4,3.1,1.2c0.8,0.8,1.2,1.9,1.2,3.3
	C48.3,16,47.8,17.1,47,17.9z M58.7,2.5v20.1h-4.1V3.5L58.7,2.5z M66.3,2.5c0,0.6-0.2,1.1-0.7,1.5c-0.5,0.5-1,0.7-1.6,0.7
	c-0.6,0-1.2-0.2-1.6-0.7c-0.5-0.5-0.7-1-0.7-1.5c0-0.6,0.2-1.1,0.7-1.5c0.5-0.5,1-0.7,1.6-0.7c0.6,0,1.2,0.2,1.6,0.7
	C66.1,1.3,66.3,1.9,66.3,2.5z M66,6.7h-4.1v16H66V6.7z M84.5,13.3v9.4h-4.1v-8.8c0-1-0.3-2-1-2.6c-0.7-0.7-1.5-1-2.6-1
	c-1,0-1.9,0.3-2.6,1c-0.7,0.7-1,1.5-1,2.6v8.8h-4.1V6.7h3.7v1.7L73,8.3c0.4-0.3,0.9-0.6,1.4-0.9c0.4-0.2,0.9-0.4,1.4-0.6
	c0.6-0.2,1.2-0.3,1.9-0.3c1,0,1.9,0.1,2.8,0.5c0.8,0.3,1.5,0.8,2.1,1.4c0.6,0.6,1,1.3,1.4,2.1C84.3,11.3,84.5,12.2,84.5,13.3z
	 M102,22.6h-4.5l-6-7.5v7.5h-4.1V3.5l4.1-1v11l5.3-6.8h4.5l-6.1,7.6L102,22.6z M116.8,11.5c-0.4-1-1-1.8-1.8-2.6
	c-0.8-0.8-1.7-1.3-2.7-1.8c-1-0.4-2.1-0.7-3.2-0.7c-1.2,0-2.2,0.2-3.2,0.7c-1,0.4-1.9,1-2.7,1.8c-0.8,0.7-1.4,1.6-1.9,2.6
	c-0.4,1-0.7,2-0.7,3.1c0,1.1,0.2,2.2,0.7,3.1c0.4,1,1,1.8,1.9,2.6c0.8,0.7,1.7,1.3,2.7,1.8c1,0.4,2.1,0.7,3.2,0.7
	c1.1,0,2.2-0.2,3.2-0.7c1-0.4,1.9-1,2.7-1.8c0.8-0.7,1.4-1.6,1.8-2.6c0.4-1,0.7-2,0.7-3.1C117.4,13.5,117.2,12.5,116.8,11.5z
	 M112.1,17.9c-0.8,0.8-1.9,1.2-3.1,1.2s-2.3-0.4-3.1-1.2c-0.8-0.8-1.2-1.9-1.2-3.3s0.4-2.4,1.2-3.3c0.8-0.8,1.9-1.2,3.1-1.2
	s2.3,0.4,3.1,1.2c0.8,0.8,1.2,1.9,1.2,3.3S113,17.1,112.1,17.9z M135.2,11.5c-0.5-1-1.1-1.8-1.9-2.6c-0.8-0.7-1.7-1.3-2.7-1.8
	c-1-0.4-2.1-0.7-3.2-0.7c-1.1,0-2.2,0.2-3.2,0.7c-1,0.4-1.9,1-2.7,1.8c-0.8,0.7-1.4,1.6-1.9,2.6c-0.4,1-0.7,2-0.7,3.1
	c0,1.1,0.2,2.2,0.7,3.1c0.5,1,1,1.8,1.9,2.6c0.8,0.7,1.7,1.3,2.7,1.8c1,0.4,2.1,0.7,3.2,0.7c1.1,0,2.2-0.2,3.2-0.7
	c1-0.4,1.9-1,2.7-1.8c0.8-0.7,1.4-1.6,1.9-2.6c0.4-1,0.7-2,0.7-3.1C135.9,13.5,135.7,12.5,135.2,11.5z M130.6,17.9
	c-0.8,0.8-1.9,1.2-3.1,1.2s-2.3-0.4-3.1-1.2c-0.8-0.8-1.2-1.9-1.2-3.3s0.4-2.4,1.2-3.3c0.8-0.8,1.9-1.2,3.1-1.2s2.3,0.4,3.1,1.2
	c0.8,0.8,1.2,1.9,1.2,3.3S131.4,17.1,130.6,17.9z M23.7,22.5c-0.3,0.3-0.5,0.5-0.8,0.7c-0.8,0.6-1.9,0.6-2.5-0.1l-2.2-2.1
	c-1.5-1.4-1.5-3.9,0-5.3l8.3-7.9C28.9,12.7,27.8,18.6,23.7,22.5z M24.3,7l-2.2,2.1c-0.8,0.7-1.7,1.1-2.8,1.1c-1,0-2.1-0.4-2.8-1.1
	L8.1,1.2C10,0.4,11.9,0,13.8,0c3.6,0,7.2,1.3,9.8,3.9c0.2,0.3,0.5,0.5,0.7,0.7C25.1,5.3,25,6.3,24.3,7z M9.6,10.7l-8.4,7.9
	C-1.2,13.7,0,7.7,4.1,3.9c0.3-0.3,0.5-0.5,0.8-0.7c0.3-0.3,0.8-0.5,1.2-0.5c0.5,0,1,0.2,1.4,0.5l2.2,2.1C11.2,6.9,11.2,9.2,9.6,10.7
	z M19.6,25.2c-5.2,2.3-11.5,1.2-15.6-2.7c-0.2-0.2-0.5-0.5-0.7-0.7c-0.7-0.7-0.6-1.8,0.1-2.4l2.2-2.1c0.8-0.7,1.8-1.1,2.8-1.1
	s2,0.4,2.8,1.1L19.6,25.2z"/>
</svg>
