<svg width="90" height="15" viewBox="0 0 90 15" fill="none" xmlns="http://www.w3.org/2000/svg">
<g clip-path="url(#clip0_9464_170806)">
<mask id="mask0_9464_170806" style="mask-type:luminance" maskUnits="userSpaceOnUse" x="0" y="-1" width="90" height="16">
<path d="M0.208252 -0.107048H89.8108V14.834H0.208252V-0.107048Z" fill="white"/>
</mask>
<g mask="url(#mask0_9464_170806)">
<mask id="mask1_9464_170806" style="mask-type:luminance" maskUnits="userSpaceOnUse" x="0" y="-1" width="90" height="16">
<path d="M0.208252 14.8359H89.8108V-0.105095H0.208252V14.8359Z" fill="white"/>
</mask>
<g mask="url(#mask1_9464_170806)">
<path d="M35.3457 1.5313C35.3457 1.17643 35.4892 0.836094 35.7445 0.585164C35.9998 0.334235 36.3462 0.193264 36.7073 0.193264C37.0684 0.193264 37.4147 0.334235 37.6701 0.585164C37.9254 0.836094 38.0689 1.17643 38.0689 1.5313C38.0557 1.87752 37.9065 2.20526 37.6526 2.44564C37.3987 2.68601 37.0599 2.82031 36.7073 2.82031C36.3548 2.82031 36.0159 2.68601 35.762 2.44564C35.5081 2.20526 35.3589 1.87752 35.3457 1.5313Z" fill="white"/>
<path d="M56.8284 10.4541C56.8284 9.71147 57.4371 9.11141 58.1871 9.11141C58.5492 9.11141 58.8965 9.25277 59.1526 9.5044C59.4086 9.75603 59.5525 10.0973 59.5525 10.4532C59.5525 10.809 59.4086 11.1503 59.1526 11.4019C58.8965 11.6536 58.5492 11.7949 58.1871 11.7949C57.438 11.7949 56.8284 11.1939 56.8284 10.4532" fill="white"/>
<path d="M13 9.8741C11.8281 9.8741 11.0126 8.9591 11.0126 7.65088C11.0126 6.3436 11.8281 5.42953 13.0009 5.42953C14.1795 5.42953 15.0035 6.3436 15.0035 7.65088C15.0035 8.97959 14.1976 9.8741 13 9.8741ZM13 3.47559C10.5196 3.47559 8.71899 5.23199 8.71899 7.65088C8.71899 10.0707 10.5205 11.8262 13 11.8262C15.4909 11.8262 17.2981 10.0707 17.2981 7.65181C17.2981 5.23199 15.4899 3.47559 13 3.47559ZM32.7087 7.86053C32.6224 7.69646 32.5133 7.54499 32.3845 7.41048L32.3086 7.33315L32.3883 7.2586C32.5021 7.14027 32.6187 7.0005 32.7306 6.83837L34.9208 3.64052H32.2622L30.6171 6.14234C30.5242 6.27651 30.3365 6.3436 30.0548 6.3436H29.6803V1.6139C29.6803 0.668151 29.0801 0.539566 28.4325 0.539566H27.3231L27.326 11.7032H29.6812V8.35437H29.9022C30.1705 8.35437 30.3525 8.38512 30.4369 8.52861L31.7359 10.9382C32.0991 11.5923 32.4603 11.7032 33.1411 11.7032H34.9455L33.601 9.51909L32.7097 7.86053M44.1419 3.45696C42.9434 3.45696 42.1791 3.98062 41.7506 4.42321L41.6084 4.56484L41.5571 4.37196C41.432 3.89769 41.0072 3.63772 40.3691 3.63772H39.3137L39.3204 11.7004H41.6595V7.98446C41.6595 7.62107 41.7069 7.30613 41.8055 7.01821C42.0653 6.147 42.7916 5.60563 43.699 5.60563C44.4291 5.60563 44.7146 5.98487 44.7146 6.96323V10.4751C44.7146 11.31 45.108 11.7004 45.9585 11.7004H47.0717L47.068 6.57189C47.068 4.53502 46.0563 3.45696 44.1419 3.45696ZM36.7357 3.64052H35.6272L35.6348 9.87503V11.7032H36.8172L36.8589 11.705L37.4108 11.7032H37.9588V11.7004H37.9626L37.9673 4.8658C37.9673 4.04118 37.5663 3.64145 36.7366 3.64145M22.1869 9.8741C21.0149 9.8741 20.1985 8.9591 20.1985 7.65088C20.1985 6.3436 21.0149 5.42953 22.1878 5.42953C23.3636 5.42953 24.1904 6.3436 24.1904 7.65088C24.1904 8.97959 23.3844 9.8741 22.1878 9.8741H22.1869ZM22.1869 3.47559C19.7045 3.47559 17.903 5.23199 17.903 7.65088C17.903 10.0707 19.7046 11.8262 22.1878 11.8262C24.6749 11.8262 26.4859 10.0707 26.4859 7.65181C26.4859 5.23199 24.6749 3.47559 22.1878 3.47559" fill="white"/>
</g>
</g>
<mask id="mask2_9464_170806" style="mask-type:luminance" maskUnits="userSpaceOnUse" x="0" y="-1" width="90" height="16">
<path d="M0.208252 -0.107048H89.8108V14.834H0.208252V-0.107048Z" fill="white"/>
</mask>
<g mask="url(#mask2_9464_170806)">
<mask id="mask3_9464_170806" style="mask-type:luminance" maskUnits="userSpaceOnUse" x="0" y="0" width="90" height="15">
<path d="M0.208252 0.183524H89.7918V14.8105H0.208252V0.183524Z" fill="white"/>
</mask>
<g mask="url(#mask3_9464_170806)">
<mask id="mask4_9464_170806" style="mask-type:luminance" maskUnits="userSpaceOnUse" x="0" y="-1" width="90" height="16">
<path d="M0.208008 14.832H89.8106V-0.109001H0.208008V14.832Z" fill="white"/>
</mask>
<g mask="url(#mask4_9464_170806)">
<path d="M72.3215 9.86824C71.1495 9.86824 70.3322 8.95324 70.3322 7.64502C70.3322 6.33774 71.1495 5.42367 72.3215 5.42367C73.4991 5.42367 74.325 6.33774 74.325 7.64502C74.325 8.97374 73.519 9.86824 72.3215 9.86824ZM72.3215 3.46974C69.8391 3.46974 68.0386 5.22613 68.0386 7.64502C68.0386 10.0648 69.8391 11.8203 72.3215 11.8203C74.8095 11.8203 76.6195 10.0648 76.6195 7.64595C76.6195 5.22613 74.8085 3.46974 72.3215 3.46974Z" fill="white"/>
<path d="M51.9992 9.51532C50.7202 9.51532 50.265 8.41955 50.265 7.3918C50.265 6.93895 50.3816 5.46395 51.8769 5.46395C52.6193 5.46395 53.6083 5.67267 53.6083 7.46727C53.6083 9.16031 52.7331 9.51532 51.9992 9.51532ZM54.8229 3.61531C54.3791 3.61531 54.0378 3.78955 53.8662 4.10729L53.8017 4.23028L53.6936 4.1371C53.3162 3.81657 52.6392 3.43548 51.5403 3.43548C49.3529 3.43548 47.8804 5.05024 47.8804 7.45143C47.8804 9.85169 49.4041 11.5289 51.5839 11.5289C52.3283 11.5289 52.917 11.3574 53.3835 11.0108L53.5637 10.8776V11.1012C53.5637 12.1783 52.8554 12.7728 51.5706 12.7728C50.9458 12.7728 50.3779 12.6237 49.9967 12.4877C49.5017 12.3405 49.2097 12.4625 49.0096 12.9517L48.8238 13.4027L48.5611 14.0624L48.7233 14.1472C49.5463 14.5758 50.6168 14.832 51.5839 14.832C53.5751 14.832 55.9019 13.8304 55.9019 11.0108L55.9105 3.61531H54.8229Z" fill="white"/>
</g>
</g>
</g>
<mask id="mask5_9464_170806" style="mask-type:luminance" maskUnits="userSpaceOnUse" x="0" y="-1" width="90" height="16">
<path d="M0.208252 -0.107048H89.8108V14.834H0.208252V-0.107048Z" fill="white"/>
</mask>
<g mask="url(#mask5_9464_170806)">
<mask id="mask6_9464_170806" style="mask-type:luminance" maskUnits="userSpaceOnUse" x="0" y="-1" width="90" height="16">
<path d="M0.208252 14.8359H89.8108V-0.105095H0.208252V14.8359Z" fill="white"/>
</mask>
<g mask="url(#mask6_9464_170806)">
<path d="M4.29014 9.78085L2.38621 9.77899V7.54273C2.38621 7.06379 2.5749 6.81594 2.99114 6.75817H4.29014C5.21651 6.75817 5.81574 7.33215 5.81669 8.26113C5.81574 9.21527 5.23168 9.77992 4.29014 9.77992V9.78085ZM2.38621 3.74667V3.15779C2.38621 2.64252 2.60809 2.39746 3.0945 2.36578H4.06924C4.90459 2.36578 5.40522 2.85682 5.40522 3.67958C5.40522 4.30574 5.06197 5.03718 4.09957 5.03718H2.38621V3.74667ZM6.72129 5.97921L6.37706 5.78912L6.67765 5.53661C7.02753 5.24124 7.61257 4.57688 7.61257 3.4308C7.61257 1.67533 6.22823 0.542292 4.08441 0.542292H1.35933C1.0527 0.553278 0.762144 0.679777 0.547845 0.895573C0.333546 1.11137 0.211944 1.39992 0.208252 1.70142V11.6621H4.13273C6.51549 11.6621 8.05344 10.3874 8.05344 8.41301C8.05344 7.34985 7.55663 6.44137 6.72129 5.97921Z" fill="white"/>
<path d="M87.0678 3.48174C86.5849 3.48349 86.1086 3.59182 85.674 3.79874C85.2394 4.00565 84.8577 4.30587 84.557 4.67721L84.3882 4.88779L84.2555 4.65205C83.8212 3.87588 83.076 3.48174 82.0396 3.48174C80.9521 3.48174 80.2229 4.07808 79.8844 4.43215L79.6625 4.66789L79.5772 4.35761C79.4539 3.91036 79.0491 3.6653 78.4366 3.6653H77.4533L77.4438 11.6972H79.6768V8.1518C79.6768 7.84059 79.7166 7.53403 79.7953 7.21257C80.0086 6.35534 80.5946 5.43381 81.5797 5.52606C82.1865 5.58383 82.4843 6.04506 82.4843 6.93583V11.6972H84.7334V8.1518C84.7334 7.76325 84.7704 7.47254 84.8595 7.18182C85.0397 6.36372 85.6522 5.52512 86.6023 5.52512C87.2906 5.52512 87.5447 5.90715 87.5447 6.93583V10.5232C87.5447 11.3338 87.9126 11.6972 88.7385 11.6972H89.789L89.7909 6.56965C89.7909 4.52067 88.8731 3.48174 87.0678 3.48174ZM66.7446 8.9084C66.7379 8.91679 65.7774 9.91193 64.5116 9.91193C63.3587 9.91193 62.1943 9.21682 62.1943 7.66541C62.1943 6.32552 63.097 5.38908 64.3903 5.38908C64.8094 5.38908 65.2873 5.5363 65.3622 5.78509L65.3726 5.82702C65.4204 5.9983 65.5243 6.1493 65.6683 6.25661C65.8123 6.36392 65.9883 6.42155 66.169 6.42056L67.3922 6.42242V5.37138C67.3922 3.9849 65.5973 3.48174 64.3903 3.48174C61.8074 3.48174 59.9338 5.24839 59.9338 7.68218C59.9338 10.1141 61.7866 11.8789 64.3429 11.8789C66.5597 11.8789 67.7658 10.4468 67.7772 10.4328L67.8416 10.3545L66.8726 8.77516L66.7446 8.9084Z" fill="white"/>
</g>
</g>
</g>
<defs>
<clipPath id="clip0_9464_170806">
<rect width="90" height="15" fill="white"/>
</clipPath>
</defs>
</svg>
