<svg width="108" height="26" viewBox="0 0 108 26" fill="none" xmlns="http://www.w3.org/2000/svg">
<path d="M39.4455 19.4761H41.9077L41.4998 17.7602V7.53044H39.1445V12.1963C38.436 11.4588 37.4616 11.0261 36.3109 11.0261C33.9552 11.0261 32.1315 12.7735 32.1315 15.3393C32.1315 17.9047 33.9552 19.6524 36.3109 19.6524C37.4798 19.6524 38.4889 19.2034 39.1978 18.4334L39.4455 19.4761ZM86.0045 13.3192C86.4828 13.3192 86.9253 13.431 87.3324 13.6873L88.4484 11.427C87.9344 11.1379 87.3324 11.0101 86.7484 11.0101C85.6856 11.0101 84.8002 11.4417 84.234 12.2448L83.9856 11.2015H81.5591L81.9487 12.821V19.4747H84.3029V14.2003C84.6218 13.6548 85.2241 13.3186 86.0034 13.3186V13.3192H86.0045ZM92.9106 17.4236C91.548 17.4236 90.5378 16.6061 90.5378 15.3389C90.5378 14.0564 91.548 13.255 92.9106 13.255C94.2925 13.255 95.2845 14.0564 95.2845 15.3389C95.2845 16.6061 94.2922 17.4236 92.9106 17.4236ZM34.4157 15.3389C34.4157 14.0564 35.4251 13.255 36.7885 13.255C38.1704 13.255 39.162 14.0564 39.162 15.3389C39.162 16.6061 38.1704 17.4236 36.7892 17.4236C35.4259 17.4236 34.4157 16.6061 34.4157 15.3389ZM103.342 17.4236C101.979 17.4236 100.97 16.6061 100.97 15.3389C100.97 14.0564 101.979 13.255 103.342 13.255C104.724 13.255 105.715 14.0564 105.715 15.3389C105.715 16.6061 104.724 17.4236 103.342 17.4236ZM47.6273 13.1265C48.8491 13.1265 49.6463 13.6394 49.894 14.5854H45.3607C45.6263 13.6394 46.4234 13.1265 47.6273 13.1265ZM75.8029 13.1265C77.0255 13.1265 77.8226 13.6394 78.0703 14.5854H73.537C73.8026 13.6394 74.5994 13.1265 75.8033 13.1265H75.8029ZM64.3103 19.4761H68.1001L70.5623 11.2025H67.9943L66.1884 17.9047L64.3818 11.2025H61.8489L64.3111 19.4757L64.3103 19.4761ZM58.2357 19.4761H60.5898V11.2021H58.2357V19.4761ZM47.9883 19.6293C49.2995 19.6293 50.592 19.3081 51.6723 18.683L50.7693 16.8554C49.9189 17.2563 48.9806 17.4968 48.024 17.4968C46.7848 17.4968 45.9168 17.0639 45.5447 16.2621H52.1677C52.2385 15.9576 52.2746 15.6531 52.2746 15.2841C52.2746 12.7186 50.3089 11.003 47.6698 11.003C45.0139 11.003 43.0658 12.7347 43.0658 15.3162C43.0658 17.9456 44.996 19.6293 47.989 19.6293H47.9883ZM108 15.3389C108 12.7735 106.016 11.0258 103.342 11.0258C100.668 11.0258 98.6846 12.7735 98.6846 15.3389C98.6846 17.9047 100.668 19.6521 103.342 19.6521C106.016 19.6521 108 17.9047 108 15.3389H108ZM76.1225 19.6521C77.4322 19.6521 78.7252 19.3315 79.8065 18.7061L78.9025 16.8775C78.0524 17.2783 77.1138 17.5186 76.1572 17.5186C74.9179 17.5186 74.05 17.0863 73.6778 16.2839H80.3016C80.3723 15.9794 80.4074 15.6749 80.4074 15.3061C80.4074 12.7407 78.4413 11.0251 75.8026 11.0251C73.1467 11.0251 71.1985 12.7564 71.1985 15.3383C71.1985 17.9676 73.1292 19.6514 76.1222 19.6514V19.6521H76.1225ZM92.9109 19.6521C95.5855 19.6521 97.5683 17.9047 97.5683 15.3389C97.5683 12.7735 95.5851 11.0258 92.9106 11.0258C90.236 11.0258 88.2529 12.7735 88.2529 15.3389C88.2529 17.9047 90.2364 19.6521 92.9102 19.6521H92.9109ZM53.7728 19.4757H56.1277V7.5301H53.7724V19.4757H53.7728ZM59.4217 10.0631C60.2538 10.0631 60.8915 9.48557 60.8915 8.71597C60.8915 7.94636 60.2546 7.36916 59.4221 7.36916C58.572 7.36916 57.9343 7.94636 57.9343 8.71597C57.9343 9.48557 58.5724 10.0628 59.4224 10.0628L59.4217 10.0631ZM18.9582 0.000334612L17.6097 11.4648L15.3096 1.79921L8.09806 3.16911L10.3971 12.834L0 14.8082L1.83641 22.5287L20.12 26L24.3013 17.6106L26.2911 0.6893L18.9574 0L18.9582 0.000669225V0.000334612ZM13.1808 16.6315C12.8038 16.9401 12.3054 16.9116 11.7765 16.7543C11.2486 16.5977 11.014 16.0272 11.214 15.3376C11.363 14.8256 12.0644 14.7487 12.4153 14.7433C12.5486 14.7413 12.6798 14.7654 12.8008 14.8143C13.0489 14.9147 13.4691 15.1288 13.5544 15.4554C13.6773 15.9265 13.5589 16.322 13.1819 16.6305H13.1811V16.6312L13.1808 16.6315ZM18.4739 17.1636C18.2002 17.5885 17.4812 17.6447 16.7739 17.3356C16.2971 17.1268 16.3008 16.5954 16.3529 16.2715C16.3806 16.0948 16.4604 15.928 16.5839 15.7883C16.7541 15.5956 17.0383 15.3443 17.3669 15.3366C17.901 15.3239 18.3607 15.538 18.6203 15.9255C18.8811 16.3117 18.7507 16.7376 18.4762 17.1636H18.4739Z" fill="white"/>
</svg>
