<?xml version="1.0" encoding="UTF-8" standalone="no"?><!DOCTYPE svg PUBLIC "-//W3C//DTD SVG 1.1//EN" "http://www.w3.org/Graphics/SVG/1.1/DTD/svg11.dtd"><svg width="100%" height="100%" viewBox="0 0 61 60" version="1.1" xmlns="http://www.w3.org/2000/svg" xmlns:xlink="http://www.w3.org/1999/xlink" xml:space="preserve" xmlns:serif="http://www.serif.com/" style="fill-rule:evenodd;clip-rule:evenodd;stroke-linejoin:round;stroke-miterlimit:2;"><g id="dialog_question"><g id="dialog_question1" serif:id="dialog_question"><g><rect x="0.498" y="-0" width="60" height="60" style="fill:#fff;"/><g><path d="M12.809,54.225c5.86,-3.262 10.132,-3.778 10.132,-3.778c0,-0 -0.288,-2.126 0,-2.702c0.287,-0.576 1.703,-1.071 1.703,-1.071c0,-0 11.445,-1.975 13.196,-1.168c0.328,0.152 0.712,1.168 0.712,1.168c3.865,-0.468 7.772,-0.468 11.637,-0c1.048,0.119 2.676,0.373 4.696,0.794c-5.445,7.586 -14.343,12.532 -24.387,12.532c-6.613,-0 -12.729,-2.144 -17.689,-5.775Z" style="fill:#f5534f;fill-rule:nonzero;"/></g><path d="M19.814,28.584c0.06,-2.895 0.343,-5.032 0.343,-5.032c3.271,-13.679 18.019,-0.119 18.019,-0.119l-0.272,4.069c0,-0 0.224,-0.424 2.4,-0.448c2.175,-0.024 5.182,2.751 3.998,6.644c-1.135,3.71 -5.598,3.246 -5.598,3.246c-0.315,2.04 -1.213,3.938 -2.575,5.47l0.671,6.649c-1.801,1.108 -3.819,1.817 -5.918,2.079c-4.535,0.496 -6.318,-2.055 -6.318,-2.055l-0.511,-5.676c-0.493,-0.425 -0.976,-0.928 -1.441,-1.518c-0.956,-1.213 -1.603,-2.831 -2.033,-4.604c-2.073,-0.372 -4.754,-1.567 -4.725,-5.261c0.022,-2.832 2.088,-3.459 3.96,-3.444Z" style="fill:#ffc094;fill-rule:nonzero;"/><path d="M18.425,32.905l-1.395,-1.926c-0.031,-0.043 -0.053,-0.091 -0.064,-0.143c-0.012,-0.051 -0.014,-0.104 -0.005,-0.156c0.009,-0.052 0.028,-0.102 0.057,-0.147c0.028,-0.044 0.064,-0.083 0.108,-0.113c0.086,-0.061 0.193,-0.086 0.298,-0.069c0.104,0.016 0.198,0.072 0.262,0.157l1.711,2.397c0.004,0.004 0.009,0.007 0.013,0.011c0.061,0.05 0.106,0.116 0.13,0.19l0.713,1c0.06,0.085 0.085,0.19 0.068,0.293c-0.016,0.103 -0.072,0.196 -0.156,0.258c-0.059,0.048 -0.132,0.076 -0.208,0.08c-0.064,-0.001 -0.127,-0.016 -0.183,-0.045c-0.057,-0.03 -0.107,-0.071 -0.145,-0.123l-0.664,-0.918l-1.655,0.182l-0.04,-0c-0.098,-0.001 -0.192,-0.037 -0.265,-0.102c-0.074,-0.064 -0.122,-0.153 -0.135,-0.25c-0.011,-0.105 0.019,-0.21 0.085,-0.292c0.066,-0.082 0.162,-0.135 0.267,-0.147l1.203,-0.137Z" style="fill-rule:nonzero;"/><path d="M35.883,42.682c-0.582,1.475 -2.472,5.198 -6.672,4.967c-2.709,-0.149 -4.394,-2.593 -5.252,-4.321c4.295,3.796 9.5,1.661 11.45,-0.179c0.163,-0.151 0.321,-0.307 0.474,-0.467Z" style="fill-rule:nonzero;"/><path d="M39.916,31.408l2.003,-2.059c0.037,-0.038 0.082,-0.067 0.13,-0.088c0.049,-0.02 0.101,-0.03 0.154,-0.03c0.053,-0 0.105,0.01 0.154,0.03c0.049,0.021 0.093,0.05 0.13,0.088c0.074,0.076 0.115,0.178 0.115,0.284c0,0.105 -0.041,0.207 -0.115,0.283l-1.711,1.759l1.695,1.048c0.044,0.027 0.083,0.062 0.114,0.104c0.03,0.042 0.052,0.09 0.064,0.141c0.012,0.05 0.013,0.103 0.005,0.154c-0.009,0.051 -0.027,0.1 -0.055,0.144c-0.034,0.059 -0.083,0.108 -0.142,0.142c-0.059,0.033 -0.126,0.051 -0.194,0.05c-0.073,0.002 -0.145,-0.018 -0.208,-0.056l-1.851,-1.139l-0.828,0.851c-0.078,0.074 -0.181,0.114 -0.288,0.112c-0.104,-0.001 -0.204,-0.041 -0.28,-0.112c-0.037,-0.037 -0.067,-0.081 -0.088,-0.13c-0.02,-0.048 -0.03,-0.101 -0.03,-0.153c0,-0.053 0.01,-0.105 0.03,-0.154c0.021,-0.049 0.051,-0.093 0.088,-0.13l0.97,-0.996c0.002,-0.004 0.004,-0.008 0.006,-0.012c0.034,-0.054 0.079,-0.098 0.132,-0.131Z" style="fill-rule:nonzero;"/><path d="M32.162,30.316c-0.104,-0 -0.203,-0.04 -0.278,-0.112c-0.074,-0.071 -0.118,-0.169 -0.122,-0.272l-0.072,-2.159c-0.002,-0.052 0.006,-0.105 0.024,-0.154c0.018,-0.049 0.046,-0.095 0.082,-0.133c0.035,-0.039 0.078,-0.07 0.126,-0.092c0.048,-0.022 0.099,-0.034 0.152,-0.036c0.105,-0.003 0.208,0.036 0.285,0.108c0.078,0.071 0.124,0.17 0.131,0.275l0.072,2.159c0.002,0.053 -0.007,0.105 -0.025,0.154c-0.018,0.05 -0.045,0.095 -0.081,0.133c-0.036,0.039 -0.079,0.07 -0.127,0.092c-0.047,0.022 -0.099,0.035 -0.151,0.037l-0.016,-0Z" style="fill-rule:nonzero;"/><path d="M23.9,30.628c-0.103,-0 -0.203,-0.04 -0.277,-0.111c-0.075,-0.072 -0.119,-0.169 -0.123,-0.273l-0.072,-2.158c-0.002,-0.106 0.037,-0.208 0.108,-0.286c0.072,-0.077 0.171,-0.124 0.276,-0.13c0.106,0.002 0.207,0.043 0.284,0.115c0.077,0.073 0.124,0.171 0.132,0.277l0.072,2.158c0.002,0.053 -0.006,0.105 -0.025,0.153c-0.018,0.049 -0.046,0.094 -0.081,0.132c-0.036,0.038 -0.079,0.068 -0.127,0.09c-0.047,0.021 -0.099,0.032 -0.151,0.033l-0.016,-0Z" style="fill-rule:nonzero;"/><path d="M22.694,26.516c-0.075,0.025 -0.157,0.027 -0.234,0.004c-0.076,-0.023 -0.144,-0.068 -0.194,-0.13c-0.05,-0.062 -0.08,-0.138 -0.085,-0.218c-0.006,-0.08 0.013,-0.159 0.054,-0.228c0.516,-0.755 1.258,-1.328 2.12,-1.636c0.049,-0.018 0.101,-0.027 0.154,-0.025c0.053,0.002 0.104,0.016 0.152,0.039c0.047,0.023 0.089,0.055 0.123,0.095c0.034,0.04 0.06,0.087 0.075,0.137c0.019,0.049 0.028,0.101 0.026,0.153c-0.001,0.053 -0.014,0.104 -0.036,0.152c-0.022,0.047 -0.053,0.09 -0.092,0.125c-0.039,0.036 -0.084,0.063 -0.133,0.08c-0.677,0.245 -1.263,0.691 -1.678,1.277c-0.058,0.089 -0.149,0.152 -0.252,0.175Z" style="fill-rule:nonzero;"/><path d="M32.838,26.334c-0.067,-0.019 -0.129,-0.052 -0.181,-0.099c-0.56,-0.446 -1.245,-0.707 -1.96,-0.748c-0.053,-0.003 -0.104,-0.017 -0.151,-0.04c-0.047,-0.023 -0.09,-0.055 -0.124,-0.094c-0.035,-0.04 -0.062,-0.085 -0.079,-0.135c-0.017,-0.05 -0.024,-0.102 -0.021,-0.155c0.002,-0.052 0.015,-0.104 0.037,-0.152c0.023,-0.048 0.055,-0.09 0.094,-0.125c0.04,-0.035 0.086,-0.062 0.136,-0.079c0.051,-0.016 0.103,-0.023 0.156,-0.018c0.91,0.051 1.779,0.395 2.478,0.978c0.061,0.063 0.1,0.143 0.111,0.23c0.011,0.086 -0.007,0.174 -0.05,0.25c-0.044,0.075 -0.111,0.134 -0.192,0.168c-0.08,0.034 -0.169,0.04 -0.254,0.019Z" style="fill-rule:nonzero;"/><path d="M38.88,27.43c0,-0 -1.008,4.061 -1.536,3.949c-0.528,-0.112 -0.248,-6.396 1.216,-6.787c1.464,-0.392 0.32,2.838 0.32,2.838Z" style="fill-rule:nonzero;"/><path d="M38.2,26.91c0,-0 -4.447,-0.184 -7.518,-2.351c-1.606,-1.171 -2.877,-2.742 -3.687,-4.557c0,-0 -1.919,-0.16 -4.559,1.599c-2.639,1.759 -2.631,6.956 -2.631,6.956c0,-0 -5.407,-8.523 -3.151,-11.721c2.255,-3.198 6.286,-0.799 6.286,-0.799c0,-0 -0.944,-5.685 7.062,-3.822c2.272,0.481 4.388,1.521 6.156,3.026c1.768,1.505 3.132,3.427 3.97,5.593c0,-0 2.687,-0.352 3.135,2.134c0.226,1.703 0.068,3.436 -0.464,5.069c-0.426,-0.32 -0.931,-0.518 -1.461,-0.572c-0.529,-0.055 -1.064,0.035 -1.546,0.26l-1.776,0.752l0.184,-1.567Z" style="fill:#865dff;fill-rule:nonzero;"/><path d="M24.644,46.675c0,-0 1.535,1.463 5.102,1.551c3.568,0.088 6.687,-2.79 6.687,-2.79l2.295,4.213l-5.679,3.462l-9.509,-0.8l0,-4.261l1.104,-1.375Z" style="fill:#f5534f;fill-rule:nonzero;"/><path d="M28.571,53.518c-1.141,-0.007 -2.266,-0.264 -3.296,-0.755c-1.03,-0.49 -1.939,-1.202 -2.663,-2.083c-0.051,-0.086 -0.068,-0.188 -0.047,-0.286c0.021,-0.098 0.077,-0.185 0.159,-0.243c0.081,-0.058 0.181,-0.084 0.281,-0.072c0.099,0.012 0.19,0.061 0.255,0.137c0.9,1.101 2.118,1.898 3.488,2.282c1.37,0.383 2.825,0.335 4.166,-0.139c0.052,-0.023 0.108,-0.034 0.164,-0.034c0.057,0.001 0.112,0.013 0.163,0.037c0.052,0.023 0.097,0.057 0.134,0.1c0.038,0.042 0.065,0.092 0.082,0.146c0.016,0.054 0.021,0.111 0.014,0.167c-0.007,0.056 -0.026,0.11 -0.055,0.158c-0.03,0.048 -0.069,0.089 -0.115,0.121c-0.047,0.032 -0.1,0.054 -0.155,0.064c-0.833,0.263 -1.702,0.397 -2.575,0.4Z" style="fill:#590083;fill-rule:nonzero;"/><path d="M30.136,37.912c0.041,0.007 0.082,0.007 0.122,-0c0.095,-0.033 0.173,-0.102 0.217,-0.192c0.044,-0.089 0.051,-0.193 0.02,-0.288c-0.046,-0.122 -0.45,-1.198 -1.243,-1.281c-0.496,-0.046 -0.969,0.297 -1.403,1.021c-0.05,0.087 -0.063,0.19 -0.038,0.287c0.026,0.096 0.088,0.179 0.174,0.23c0.086,0.051 0.189,0.066 0.286,0.042c0.097,-0.023 0.181,-0.085 0.233,-0.17c0.298,-0.495 0.534,-0.655 0.671,-0.648c0.138,0.008 0.489,0.458 0.603,0.763c0.027,0.072 0.076,0.134 0.141,0.176c0.064,0.043 0.14,0.064 0.217,0.06Z" style="fill-rule:nonzero;"/><path d="M5.691,31.187l-0.037,-0.054c-0.244,-0.353 -0.406,-0.656 -0.486,-0.91c-0.079,-0.256 -0.101,-0.491 -0.067,-0.707c0.034,-0.216 0.101,-0.439 0.202,-0.668c0.063,-0.151 0.108,-0.303 0.136,-0.456c0.028,-0.152 0.028,-0.305 -0.001,-0.457c-0.028,-0.152 -0.091,-0.298 -0.19,-0.438c-0.118,-0.167 -0.26,-0.285 -0.426,-0.351c-0.165,-0.067 -0.337,-0.087 -0.516,-0.06c-0.178,0.024 -0.347,0.093 -0.507,0.206c-0.145,0.102 -0.263,0.23 -0.352,0.384c-0.089,0.153 -0.132,0.324 -0.129,0.514c0.003,0.187 0.068,0.386 0.196,0.595l-0.86,0.606c-0.226,-0.348 -0.343,-0.695 -0.349,-1.041c-0.008,-0.347 0.076,-0.673 0.251,-0.977c0.177,-0.306 0.423,-0.57 0.74,-0.794c0.347,-0.244 0.696,-0.394 1.048,-0.447c0.351,-0.055 0.68,-0.018 0.987,0.113c0.307,0.128 0.569,0.345 0.786,0.652c0.149,0.212 0.25,0.425 0.304,0.642c0.052,0.214 0.064,0.43 0.034,0.649c-0.027,0.217 -0.09,0.436 -0.188,0.658c-0.09,0.212 -0.147,0.408 -0.171,0.586c-0.022,0.177 -0.004,0.354 0.055,0.533c0.058,0.179 0.162,0.378 0.311,0.598l0.038,0.054l-0.809,0.57Zm1.64,1.418c-0.154,0.109 -0.326,0.148 -0.514,0.118c-0.19,-0.033 -0.34,-0.128 -0.45,-0.284c-0.109,-0.155 -0.147,-0.326 -0.113,-0.514c0.033,-0.19 0.127,-0.339 0.281,-0.448c0.153,-0.108 0.324,-0.145 0.514,-0.112c0.19,0.029 0.34,0.121 0.449,0.276c0.073,0.103 0.114,0.217 0.122,0.341c0.009,0.121 -0.011,0.237 -0.06,0.347c-0.049,0.111 -0.125,0.203 -0.229,0.276Z" style="fill:#f5534f;fill-rule:nonzero;"/><path d="M49.056,27.412l0.028,-0.104c0.19,-0.678 0.402,-1.201 0.638,-1.569c0.239,-0.367 0.513,-0.642 0.821,-0.826c0.308,-0.184 0.659,-0.333 1.054,-0.446c0.256,-0.08 0.495,-0.183 0.717,-0.308c0.221,-0.124 0.413,-0.285 0.575,-0.48c0.162,-0.196 0.279,-0.429 0.352,-0.699c0.087,-0.325 0.086,-0.628 -0.004,-0.906c-0.09,-0.279 -0.246,-0.517 -0.467,-0.713c-0.217,-0.199 -0.481,-0.34 -0.792,-0.424c-0.281,-0.075 -0.566,-0.089 -0.853,-0.04c-0.287,0.048 -0.548,0.174 -0.783,0.378c-0.233,0.2 -0.415,0.49 -0.544,0.87l-1.667,-0.446c0.202,-0.651 0.517,-1.162 0.945,-1.533c0.43,-0.375 0.928,-0.612 1.495,-0.71c0.571,-0.098 1.163,-0.065 1.777,0.1c0.673,0.18 1.228,0.464 1.665,0.851c0.437,0.384 0.735,0.838 0.892,1.362c0.162,0.521 0.163,1.08 0.004,1.675c-0.11,0.41 -0.273,0.762 -0.489,1.056c-0.215,0.292 -0.476,0.533 -0.782,0.725c-0.302,0.194 -0.644,0.345 -1.026,0.454c-0.363,0.11 -0.669,0.244 -0.919,0.4c-0.245,0.158 -0.45,0.367 -0.615,0.629c-0.164,0.261 -0.306,0.601 -0.426,1.02l-0.028,0.104l-1.568,-0.42Zm-0.065,3.555c-0.3,-0.08 -0.529,-0.255 -0.688,-0.525c-0.158,-0.273 -0.196,-0.562 -0.115,-0.865c0.081,-0.3 0.257,-0.527 0.529,-0.681c0.274,-0.158 0.56,-0.197 0.86,-0.116c0.296,0.079 0.523,0.255 0.681,0.529c0.163,0.271 0.204,0.556 0.123,0.856c-0.053,0.201 -0.154,0.371 -0.301,0.512c-0.143,0.138 -0.31,0.235 -0.501,0.289c-0.191,0.055 -0.387,0.055 -0.588,0.001Z" style="fill:#f5534f;fill-rule:nonzero;"/><path d="M19.158,8.18l-0.013,-0.041c-0.077,-0.27 -0.114,-0.492 -0.111,-0.667c0.005,-0.174 0.04,-0.325 0.106,-0.452c0.067,-0.127 0.155,-0.251 0.265,-0.372c0.071,-0.081 0.131,-0.166 0.18,-0.254c0.049,-0.089 0.081,-0.184 0.095,-0.284c0.014,-0.1 0.005,-0.204 -0.027,-0.311c-0.038,-0.129 -0.102,-0.231 -0.19,-0.307c-0.089,-0.076 -0.192,-0.124 -0.308,-0.145c-0.116,-0.022 -0.235,-0.015 -0.358,0.022c-0.111,0.033 -0.211,0.088 -0.298,0.164c-0.088,0.077 -0.15,0.174 -0.187,0.292c-0.038,0.117 -0.039,0.254 -0.003,0.41l-0.66,0.197c-0.068,-0.264 -0.068,-0.503 0,-0.719c0.068,-0.217 0.188,-0.402 0.36,-0.554c0.174,-0.152 0.382,-0.265 0.625,-0.337c0.266,-0.08 0.514,-0.099 0.744,-0.059c0.229,0.039 0.425,0.131 0.588,0.276c0.164,0.143 0.281,0.333 0.351,0.569c0.049,0.162 0.067,0.316 0.055,0.461c-0.012,0.144 -0.05,0.281 -0.114,0.41c-0.063,0.129 -0.147,0.252 -0.254,0.369c-0.1,0.113 -0.176,0.222 -0.229,0.328c-0.05,0.105 -0.076,0.219 -0.077,0.342c-0.001,0.123 0.022,0.269 0.068,0.436l0.013,0.041l-0.621,0.185Zm0.721,1.222c-0.119,0.036 -0.233,0.024 -0.344,-0.034c-0.111,-0.06 -0.184,-0.15 -0.22,-0.271c-0.035,-0.118 -0.023,-0.232 0.038,-0.342c0.06,-0.11 0.149,-0.184 0.268,-0.219c0.117,-0.035 0.231,-0.022 0.342,0.038c0.112,0.058 0.185,0.146 0.221,0.265c0.023,0.079 0.025,0.158 0.004,0.237c-0.019,0.077 -0.056,0.144 -0.109,0.203c-0.054,0.058 -0.12,0.1 -0.2,0.123Z" style="fill:#f5534f;fill-rule:nonzero;"/><path d="M42.768,41.938l0.009,-0.036c0.066,-0.235 0.14,-0.416 0.222,-0.544c0.084,-0.127 0.179,-0.222 0.286,-0.286c0.107,-0.064 0.229,-0.115 0.367,-0.155c0.089,-0.028 0.172,-0.063 0.249,-0.106c0.077,-0.044 0.144,-0.099 0.201,-0.167c0.056,-0.068 0.097,-0.148 0.122,-0.242c0.03,-0.113 0.03,-0.218 -0.001,-0.314c-0.032,-0.097 -0.086,-0.179 -0.163,-0.247c-0.076,-0.07 -0.167,-0.118 -0.275,-0.147c-0.098,-0.026 -0.197,-0.031 -0.297,-0.014c-0.1,0.016 -0.191,0.06 -0.273,0.131c-0.081,0.069 -0.144,0.17 -0.189,0.301l-0.58,-0.154c0.07,-0.226 0.18,-0.403 0.329,-0.532c0.149,-0.13 0.323,-0.212 0.52,-0.246c0.199,-0.034 0.405,-0.022 0.618,0.035c0.234,0.062 0.427,0.161 0.579,0.295c0.153,0.133 0.256,0.29 0.311,0.472c0.056,0.181 0.057,0.374 0.001,0.581c-0.038,0.142 -0.095,0.264 -0.17,0.366c-0.075,0.101 -0.165,0.185 -0.272,0.251c-0.105,0.067 -0.224,0.12 -0.357,0.157c-0.126,0.039 -0.233,0.085 -0.32,0.139c-0.085,0.055 -0.156,0.128 -0.214,0.218c-0.057,0.091 -0.106,0.209 -0.148,0.354l-0.01,0.036l-0.545,-0.146Zm-0.023,1.233c-0.104,-0.028 -0.184,-0.089 -0.239,-0.182c-0.055,-0.095 -0.069,-0.195 -0.04,-0.3c0.028,-0.104 0.089,-0.183 0.184,-0.236c0.095,-0.055 0.195,-0.068 0.299,-0.041c0.103,0.028 0.182,0.089 0.237,0.184c0.057,0.094 0.071,0.193 0.043,0.297c-0.019,0.069 -0.054,0.128 -0.105,0.177c-0.05,0.048 -0.108,0.082 -0.174,0.1c-0.067,0.019 -0.135,0.02 -0.205,0.001Z" style="fill:#f5534f;fill-rule:nonzero;"/></g></g></g></svg>