<svg width="100%" height="100%" viewBox="0 0 61 60" version="1.1" xmlns="http://www.w3.org/2000/svg" xmlns:xlink="http://www.w3.org/1999/xlink" xml:space="preserve" xmlns:serif="http://www.serif.com/" style="fill-rule:evenodd;clip-rule:evenodd;stroke-linejoin:round;stroke-miterlimit:2;">
<g transform="matrix(1,0,0,1,-129,0)">
<g id="dialog_error" transform="matrix(0.882914,0,0,0.78531,130.995,3.56979)">
<rect x="-1.695" y="-4.546" width="67.957" height="76.403" style="fill:none;"/>
<g transform="matrix(1.13261,0,0,1.27338,-1.69519,-4.54571)">
<rect x="0" y="0" width="60" height="60" style="fill:white;"/>
</g>
<g transform="matrix(1.13261,0,0,1.27338,-1.69519,-4.54571)">
<g transform="matrix(1,0,0,1,-129.498,-3.10862e-15)">
<path d="M141.809,54.225C147.669,50.963 151.941,50.447 151.941,50.447C151.941,50.447 151.653,48.321 151.941,47.745C152.228,47.169 153.644,46.674 153.644,46.674C153.644,46.674 165.089,44.699 166.84,45.506C167.168,45.658 167.552,46.674 167.552,46.674C171.417,46.206 175.324,46.206 179.189,46.674C180.237,46.793 181.865,47.047 183.885,47.468C178.44,55.054 169.542,60 159.498,60C152.885,60 146.769,57.856 141.809,54.225Z" style="fill:rgb(245,83,79);fill-rule:nonzero;"/>
</g>
<path d="M22.298,29.054C22.298,29.054 15.396,26.839 15.356,32.028C15.308,38.04 22.442,37.433 22.442,37.433L22.298,29.054Z" style="fill:rgb(255,192,148);fill-rule:nonzero;"/>
<path d="M19.459,34.737C19.395,34.736 19.332,34.721 19.276,34.692C19.219,34.662 19.169,34.621 19.131,34.569L16.532,30.979C16.501,30.936 16.479,30.888 16.468,30.836C16.456,30.785 16.454,30.732 16.463,30.68C16.472,30.628 16.491,30.578 16.52,30.533C16.548,30.489 16.584,30.45 16.628,30.42C16.714,30.359 16.821,30.334 16.926,30.351C17.03,30.367 17.124,30.423 17.188,30.508L19.755,34.106C19.815,34.191 19.84,34.296 19.823,34.399C19.807,34.502 19.751,34.595 19.667,34.657C19.608,34.705 19.535,34.733 19.459,34.737Z" style="fill-rule:nonzero;"/>
<path d="M16.772,33.833C16.674,33.832 16.58,33.796 16.507,33.731C16.433,33.667 16.385,33.578 16.372,33.481C16.361,33.376 16.391,33.271 16.457,33.189C16.523,33.107 16.619,33.054 16.724,33.042L18.619,32.826C18.725,32.817 18.83,32.849 18.912,32.916C18.994,32.984 19.047,33.08 19.059,33.186C19.07,33.29 19.04,33.395 18.974,33.478C18.908,33.56 18.812,33.613 18.707,33.625L16.812,33.833L16.772,33.833Z" style="fill-rule:nonzero;"/>
<path d="M35.599,42.1L36.302,49.063C34.501,50.171 32.483,50.88 30.384,51.142C25.849,51.638 24.066,49.087 24.066,49.087L23.33,40.908L35.599,42.1Z" style="fill:rgb(255,192,148);fill-rule:nonzero;"/>
<path d="M35.591,42.093C35.591,42.093 33.943,47.937 28.713,47.649C24.498,47.417 22.762,41.629 22.762,41.629L35.591,42.093Z" style="fill-rule:nonzero;"/>
<path d="M19.659,23.552C19.659,23.552 17.931,36.585 22.114,41.893C26.601,47.586 32.751,45.187 34.911,43.149C36.677,41.511 37.838,39.325 38.206,36.944C38.206,36.944 42.669,37.408 43.804,33.698C44.988,29.805 41.981,27.03 39.806,27.054C37.63,27.078 37.406,27.502 37.406,27.502L37.678,23.433C37.678,23.433 22.93,9.873 19.659,23.552Z" style="fill:rgb(255,192,148);fill-rule:nonzero;"/>
<path d="M38.59,33.226C38.486,33.225 38.386,33.185 38.31,33.114C38.273,33.077 38.243,33.033 38.222,32.984C38.202,32.936 38.192,32.883 38.192,32.831C38.192,32.778 38.202,32.726 38.222,32.677C38.243,32.628 38.273,32.584 38.31,32.547L41.421,29.349C41.458,29.311 41.503,29.282 41.551,29.261C41.6,29.241 41.652,29.231 41.705,29.231C41.758,29.231 41.81,29.241 41.859,29.261C41.908,29.282 41.952,29.311 41.989,29.349C42.063,29.425 42.104,29.527 42.104,29.633C42.104,29.738 42.063,29.84 41.989,29.916L38.878,33.114C38.8,33.188 38.697,33.228 38.59,33.226Z" style="fill-rule:nonzero;"/>
<path d="M41.765,33.458C41.692,33.46 41.62,33.44 41.557,33.402L39.414,32.083C39.325,32.027 39.263,31.939 39.239,31.837C39.215,31.736 39.232,31.629 39.286,31.539C39.342,31.449 39.431,31.385 39.534,31.36C39.637,31.334 39.746,31.35 39.838,31.403L41.973,32.723C42.017,32.75 42.056,32.785 42.087,32.827C42.117,32.869 42.139,32.917 42.151,32.968C42.163,33.018 42.164,33.071 42.156,33.122C42.147,33.173 42.129,33.222 42.101,33.266C42.067,33.325 42.018,33.374 41.959,33.408C41.9,33.441 41.833,33.459 41.765,33.458Z" style="fill-rule:nonzero;"/>
<path d="M31.664,30.316C31.56,30.316 31.461,30.276 31.386,30.204C31.312,30.133 31.268,30.035 31.264,29.932L31.192,27.773C31.19,27.721 31.198,27.668 31.216,27.619C31.234,27.57 31.262,27.524 31.298,27.486C31.333,27.447 31.376,27.416 31.424,27.394C31.472,27.372 31.523,27.36 31.576,27.358C31.681,27.355 31.784,27.394 31.861,27.466C31.939,27.537 31.985,27.636 31.992,27.741L32.064,29.9C32.066,29.953 32.057,30.005 32.039,30.054C32.021,30.104 31.994,30.149 31.958,30.187C31.922,30.226 31.879,30.257 31.831,30.279C31.784,30.301 31.732,30.314 31.68,30.316L31.664,30.316Z" style="fill-rule:nonzero;"/>
<path d="M23.402,30.628C23.299,30.628 23.199,30.588 23.125,30.517C23.05,30.445 23.006,30.348 23.002,30.244L22.93,28.086C22.928,27.98 22.967,27.878 23.038,27.8C23.11,27.723 23.209,27.676 23.314,27.67C23.42,27.672 23.521,27.713 23.598,27.785C23.675,27.858 23.722,27.956 23.73,28.062L23.802,30.22C23.804,30.273 23.796,30.325 23.777,30.373C23.759,30.422 23.731,30.467 23.696,30.505C23.66,30.543 23.617,30.573 23.569,30.595C23.522,30.616 23.47,30.627 23.418,30.628L23.402,30.628Z" style="fill-rule:nonzero;"/>
<path d="M22.196,26.516C22.121,26.541 22.039,26.543 21.962,26.52C21.886,26.497 21.818,26.452 21.768,26.39C21.718,26.328 21.688,26.252 21.683,26.172C21.677,26.092 21.696,26.013 21.737,25.944C22.253,25.189 22.995,24.616 23.857,24.308C23.906,24.29 23.958,24.281 24.011,24.283C24.064,24.285 24.115,24.299 24.163,24.322C24.21,24.345 24.252,24.377 24.286,24.417C24.32,24.457 24.346,24.504 24.361,24.554C24.38,24.603 24.389,24.655 24.387,24.707C24.386,24.76 24.373,24.811 24.351,24.859C24.329,24.906 24.298,24.949 24.259,24.984C24.22,25.02 24.175,25.047 24.126,25.064C23.449,25.309 22.863,25.755 22.448,26.341C22.39,26.43 22.299,26.493 22.196,26.516Z" style="fill-rule:nonzero;"/>
<path d="M32.34,26.334C32.273,26.315 32.211,26.282 32.159,26.235C31.599,25.789 30.914,25.528 30.199,25.487C30.146,25.484 30.095,25.47 30.048,25.447C30.001,25.424 29.958,25.392 29.924,25.353C29.889,25.313 29.862,25.268 29.845,25.218C29.828,25.168 29.821,25.116 29.824,25.063C29.826,25.011 29.839,24.959 29.861,24.911C29.884,24.863 29.916,24.821 29.955,24.786C29.995,24.751 30.041,24.724 30.091,24.707C30.142,24.691 30.194,24.684 30.247,24.689C31.157,24.74 32.026,25.084 32.725,25.667C32.786,25.73 32.825,25.81 32.836,25.897C32.847,25.983 32.829,26.071 32.786,26.147C32.742,26.222 32.675,26.281 32.594,26.315C32.514,26.349 32.425,26.355 32.34,26.334Z" style="fill-rule:nonzero;"/>
<path d="M38.382,27.43C38.382,27.43 37.374,31.491 36.846,31.379C36.318,31.267 36.598,24.983 38.062,24.592C39.526,24.2 38.382,27.43 38.382,27.43Z" style="fill-rule:nonzero;"/>
<path d="M37.702,26.91C37.702,26.91 33.255,26.726 30.184,24.559C28.578,23.388 27.307,21.817 26.497,20.002C26.497,20.002 24.578,19.842 21.938,21.601C19.299,23.36 19.307,28.557 19.307,28.557C19.307,28.557 13.9,20.034 16.156,16.836C18.411,13.638 22.442,16.037 22.442,16.037C22.442,16.037 21.498,10.352 29.504,12.215C31.776,12.696 33.892,13.736 35.66,15.241C37.428,16.746 38.792,18.668 39.63,20.834C39.63,20.834 42.317,20.482 42.765,22.968C42.991,24.671 42.833,26.404 42.301,28.037C41.875,27.717 41.37,27.519 40.84,27.465C40.311,27.41 39.776,27.5 39.294,27.725L37.518,28.477L37.702,26.91Z" style="fill:rgb(134,93,255);fill-rule:nonzero;"/>
<path d="M24.146,46.675C24.146,46.675 25.681,48.138 29.248,48.226C32.816,48.314 35.935,45.436 35.935,45.436L38.23,49.649L32.551,53.111L23.042,52.311L23.042,48.05L24.146,46.675Z" style="fill:rgb(245,83,79);fill-rule:nonzero;"/>
<path d="M28.073,53.518C26.932,53.511 25.807,53.254 24.777,52.763C23.747,52.273 22.838,51.561 22.114,50.68C22.063,50.594 22.046,50.492 22.067,50.394C22.088,50.296 22.144,50.209 22.226,50.151C22.307,50.093 22.407,50.067 22.507,50.079C22.606,50.091 22.697,50.14 22.762,50.216C23.662,51.317 24.88,52.114 26.25,52.498C27.62,52.881 29.075,52.833 30.416,52.359C30.468,52.336 30.524,52.325 30.58,52.325C30.637,52.326 30.692,52.338 30.743,52.362C30.795,52.385 30.84,52.419 30.877,52.462C30.915,52.504 30.942,52.554 30.959,52.608C30.975,52.662 30.98,52.719 30.973,52.775C30.966,52.831 30.947,52.885 30.918,52.933C30.888,52.981 30.849,53.022 30.803,53.054C30.756,53.086 30.703,53.108 30.648,53.118C29.815,53.381 28.946,53.515 28.073,53.518Z" style="fill:rgb(89,0,131);fill-rule:nonzero;"/>
<path d="M29.638,37.912C29.679,37.919 29.72,37.919 29.76,37.912C29.855,37.879 29.933,37.81 29.977,37.72C30.021,37.631 30.028,37.527 29.997,37.432C29.951,37.31 29.547,36.234 28.754,36.151C28.258,36.105 27.785,36.448 27.351,37.172C27.301,37.259 27.288,37.362 27.313,37.459C27.339,37.555 27.401,37.638 27.487,37.689C27.573,37.74 27.676,37.755 27.773,37.731C27.87,37.708 27.954,37.646 28.006,37.561C28.304,37.066 28.54,36.906 28.677,36.913C28.815,36.921 29.166,37.371 29.28,37.676C29.307,37.748 29.356,37.81 29.421,37.852C29.485,37.895 29.561,37.916 29.638,37.912Z" style="fill-rule:nonzero;"/>
<path d="M52.492,19.944L50.206,27.905L48.688,27.498L50.689,19.46L52.492,19.944ZM48.557,31.036C48.253,30.954 48.022,30.779 47.863,30.509C47.705,30.236 47.669,29.948 47.754,29.645C47.83,29.345 48.005,29.117 48.277,28.963C48.551,28.805 48.839,28.767 49.143,28.848C49.439,28.927 49.666,29.104 49.824,29.377C49.983,29.647 50.024,29.932 49.947,30.233C49.889,30.433 49.787,30.603 49.64,30.744C49.497,30.882 49.33,30.979 49.139,31.033C48.948,31.088 48.754,31.089 48.557,31.036Z" style="fill:rgb(245,83,79);fill-rule:nonzero;"/>
<path d="M3.099,26.283L6.005,30.568L5.201,31.134L2.145,26.955L3.099,26.283ZM6.846,32.613C6.686,32.726 6.509,32.767 6.316,32.735C6.122,32.701 5.969,32.603 5.858,32.442C5.744,32.284 5.705,32.11 5.74,31.917C5.774,31.723 5.871,31.569 6.031,31.456C6.188,31.346 6.363,31.307 6.558,31.341C6.751,31.373 6.904,31.467 7.018,31.625C7.091,31.732 7.132,31.85 7.14,31.977C7.149,32.1 7.129,32.219 7.078,32.333C7.028,32.446 6.951,32.54 6.846,32.613Z" style="fill:rgb(245,83,79);fill-rule:nonzero;"/>
<path d="M18.496,4.702L19.309,7.968L18.692,8.133L17.763,4.899L18.496,4.702ZM19.364,9.404C19.241,9.437 19.124,9.423 19.013,9.36C18.902,9.296 18.831,9.202 18.799,9.078C18.765,8.957 18.78,8.841 18.845,8.732C18.909,8.621 19.003,8.549 19.126,8.516C19.246,8.483 19.362,8.499 19.473,8.563C19.584,8.626 19.656,8.718 19.69,8.84C19.711,8.922 19.709,9.002 19.686,9.082C19.664,9.159 19.625,9.227 19.569,9.285C19.512,9.343 19.444,9.383 19.364,9.404Z" style="fill:rgb(245,83,79);fill-rule:nonzero;"/>
<path d="M43.705,39.395L42.822,42.102L42.305,41.943L43.091,39.207L43.705,39.395ZM42.217,43.157C42.114,43.126 42.036,43.062 41.985,42.968C41.934,42.872 41.925,42.773 41.958,42.67C41.988,42.567 42.051,42.491 42.146,42.442C42.242,42.391 42.342,42.381 42.445,42.413C42.546,42.444 42.622,42.507 42.672,42.603C42.724,42.698 42.734,42.796 42.704,42.898C42.682,42.966 42.645,43.024 42.592,43.07C42.542,43.116 42.483,43.147 42.417,43.163C42.351,43.18 42.284,43.178 42.217,43.157Z" style="fill:rgb(245,83,79);fill-rule:nonzero;"/>
</g>
</g>
</g>
</svg>
