<svg width="100%" height="100%" viewBox="0 0 61 60" version="1.1" xmlns="http://www.w3.org/2000/svg" xmlns:xlink="http://www.w3.org/1999/xlink" xml:space="preserve" xmlns:serif="http://www.serif.com/" style="fill-rule:evenodd;clip-rule:evenodd;stroke-linecap:round;">
    <g transform="matrix(1,0,0,1,-196,0)">
        <g id="dialog_success" transform="matrix(0.882914,0,0,0.78531,197.98,3.56979)">
            <rect x="-1.695" y="-4.546" width="67.957" height="76.403" style="fill:none;"/>
            <clipPath id="_clip1">
                <rect x="-1.695" y="-4.546" width="67.957" height="76.403"/>
            </clipPath>
            <g clip-path="url(#_clip1)">
                <g transform="matrix(1.13261,0,0,1.27338,-1.69519,-4.54571)">
                    <rect x="0" y="0" width="60" height="60" style="fill:white;"/>
                </g>
                <g transform="matrix(1.13261,0,0,1.27338,-1.69519,-4.54571)">
                    <g transform="matrix(1,0,0,1,-196.483,-3.10862e-15)">
                        <path d="M249.932,48.704L217.956,37.118C217.956,37.118 215.847,31.601 217.956,28.901C220.066,26.2 223.798,26.356 223.798,26.356L224.551,23.76C225.304,21.202 228.868,19.145 228.868,19.145L247.368,20.923C247.368,20.923 251.911,22.195 252.755,26.025C253.266,28.378 253.266,30.813 252.755,33.165C252.755,33.165 254.729,34.733 255.278,38.437C254.17,42.223 252.334,45.699 249.932,48.704Z" style="fill:rgb(134,93,255);fill-rule:nonzero;"/>
                    </g>
                    <g transform="matrix(1,0,0,1,-196.483,-3.10862e-15)">
                        <path d="M197.929,20.782C200.267,22.894 203.334,25.479 206.2,27.326C211.893,30.993 223.882,33.882 223.882,33.882C223.882,33.882 236.676,34.797 245.375,40.107C248.188,41.825 250.201,44.081 251.636,46.348C246.281,54.564 237.012,60 226.483,60C221.332,60 216.483,58.699 212.247,56.408C212.292,56.232 212.339,56.056 212.387,55.88C212.387,55.88 211.679,55.744 210.451,55.356C202.058,50.034 196.483,40.663 196.483,30C196.483,26.785 196.99,23.687 197.929,20.782Z" style="fill:rgb(7,198,106);fill-rule:nonzero;"/>
                    </g>
                    <path d="M42.699,35.936C42.699,35.936 44.841,37.085 45.341,38.26C45.905,39.558 43.913,42.453 39.369,44.154C37.454,44.889 35.45,45.37 33.41,45.582C33.41,45.582 31.463,41.506 31.313,39.214C31.164,36.923 33.553,34.365 33.553,34.365L42.699,35.936Z" style="fill:rgb(238,229,243);fill-rule:nonzero;"/>
                    <path d="M32.514,23.381C32.514,23.381 30.515,18.72 30.898,16.675C31.281,14.631 39.382,8.613 46.172,11.885C52.961,15.156 53.312,24.134 51.728,27.827C47.645,37.337 39.46,32.838 39.46,32.838C39.46,32.838 26.38,28.658 32.514,23.381Z" style="fill:rgb(134,93,255);fill-rule:nonzero;"/>
                    <path d="M33.566,34.189L33.566,37.869L33.527,40.615C33.527,40.615 33.261,41.264 36.455,41.199C40.745,41.141 42.219,39.375 42.219,39.375L42.699,32.975L41.401,33.15L33.566,34.189Z" style="fill:rgb(255,192,148);fill-rule:nonzero;"/>
                    <path d="M33.559,34.368L33.559,37.866C35.643,37.73 39.473,37.029 41.173,33.848C41.29,33.632 41.375,33.4 41.426,33.16L33.637,34.316L33.559,34.368Z" style="fill-rule:nonzero;"/>
                    <path d="M33.105,17.592C33.105,17.592 28.645,26.472 29.801,31.652C30.956,36.832 35.643,36.28 38.486,35.442C40.089,35.013 41.547,34.158 42.705,32.969C43.485,33.245 44.332,33.268 45.126,33.035C45.919,32.802 46.619,32.325 47.126,31.671C48.995,29.347 48.074,26.517 46.626,25.797C45.179,25.076 43.38,26.056 43.38,26.056L44.906,23.46C44.906,23.46 39.778,9.75 33.105,17.592Z" style="fill:rgb(255,192,148);fill-rule:nonzero;"/>
                    <path d="M43.549,30.365C43.591,30.366 43.633,30.359 43.672,30.343C43.711,30.328 43.746,30.304 43.776,30.274L46.372,27.775C46.403,27.745 46.427,27.71 46.443,27.671C46.46,27.632 46.468,27.59 46.468,27.548C46.468,27.506 46.46,27.464 46.443,27.425C46.427,27.386 46.403,27.35 46.372,27.321C46.342,27.29 46.306,27.266 46.267,27.25C46.227,27.233 46.185,27.225 46.142,27.225C46.099,27.225 46.057,27.233 46.017,27.25C45.978,27.266 45.942,27.29 45.912,27.321L43.315,29.82C43.269,29.864 43.237,29.922 43.223,29.985C43.21,30.047 43.215,30.113 43.239,30.173C43.262,30.233 43.303,30.284 43.356,30.321C43.409,30.357 43.472,30.377 43.536,30.378L43.549,30.365Z" style="fill-rule:nonzero;"/>
                    <path d="M46.198,29.785C46.273,29.785 46.345,29.76 46.403,29.712C46.461,29.665 46.501,29.599 46.516,29.526C46.531,29.442 46.514,29.355 46.467,29.283C46.419,29.212 46.346,29.162 46.263,29.143L44.569,28.805C44.483,28.788 44.393,28.806 44.32,28.854C44.247,28.903 44.196,28.979 44.179,29.065C44.162,29.151 44.18,29.24 44.228,29.313C44.277,29.387 44.353,29.437 44.439,29.454L46.133,29.792L46.198,29.785Z" style="fill-rule:nonzero;"/>
                    <path d="M38.921,22.824C38.968,22.822 39.015,22.811 39.057,22.791C39.136,22.756 39.197,22.691 39.227,22.611C39.257,22.53 39.255,22.441 39.22,22.363C38.648,21.11 37.091,21.357 37.026,21.37C36.94,21.384 36.863,21.431 36.811,21.502C36.76,21.572 36.739,21.66 36.753,21.746C36.767,21.832 36.814,21.909 36.885,21.961C36.955,22.012 37.043,22.033 37.13,22.019C37.175,22.019 38.266,21.844 38.629,22.668C38.659,22.718 38.702,22.759 38.753,22.787C38.805,22.814 38.863,22.827 38.921,22.824Z" style="fill-rule:nonzero;"/>
                    <path d="M33.417,21.544C33.476,21.545 33.535,21.529 33.585,21.498C33.622,21.476 33.653,21.446 33.678,21.412C33.703,21.377 33.721,21.338 33.73,21.296C33.74,21.254 33.741,21.211 33.734,21.169C33.727,21.127 33.712,21.087 33.689,21.051C33.59,20.872 33.453,20.717 33.286,20.598C33.12,20.479 32.93,20.399 32.729,20.363C32.148,20.324 31.573,20.505 31.119,20.869C31.081,20.894 31.049,20.926 31.025,20.964C31.001,21.002 30.985,21.044 30.978,21.089C30.971,21.133 30.973,21.178 30.985,21.222C30.996,21.265 31.016,21.306 31.044,21.341C31.072,21.376 31.107,21.405 31.147,21.426C31.187,21.447 31.231,21.46 31.275,21.463C31.32,21.466 31.365,21.46 31.408,21.445C31.45,21.43 31.488,21.406 31.521,21.375C31.832,21.121 32.224,20.987 32.625,20.999C32.733,21.023 32.835,21.071 32.923,21.138C33.012,21.205 33.085,21.29 33.138,21.388C33.166,21.436 33.207,21.476 33.256,21.504C33.305,21.531 33.361,21.545 33.417,21.544Z" style="fill-rule:nonzero;"/>
                    <path d="M43.348,26.044C43.348,26.044 39.453,23.824 38.155,20.903C36.857,17.982 36.857,16.541 36.857,16.541C36.857,16.541 36.208,18.384 34.721,18.761C33.947,18.971 33.153,19.1 32.352,19.144L31.307,21.74L32.203,15.418C32.203,15.418 36.227,13.509 36.746,13.535C37.266,13.561 43.841,15.054 44.205,15.483C44.568,15.911 46.412,21.143 46.412,21.143L46.412,23.473L43.348,26.044Z" style="fill:rgb(134,93,255);fill-rule:nonzero;"/>
                    <path d="M38.493,24.994L38.57,24.994C38.612,24.984 38.651,24.965 38.685,24.94C38.719,24.914 38.748,24.882 38.769,24.845C38.791,24.808 38.805,24.767 38.811,24.725C38.817,24.683 38.815,24.64 38.804,24.599C38.763,24.367 38.665,24.148 38.519,23.964C38.373,23.779 38.183,23.634 37.967,23.541C37.657,23.466 37.334,23.459 37.021,23.518C36.708,23.577 36.411,23.702 36.149,23.885C36.078,23.932 36.029,24.006 36.012,24.09C35.995,24.174 36.011,24.261 36.058,24.332C36.081,24.368 36.111,24.399 36.146,24.423C36.182,24.448 36.221,24.464 36.263,24.473C36.305,24.481 36.348,24.481 36.39,24.473C36.431,24.464 36.471,24.447 36.506,24.423C36.866,24.175 37.308,24.075 37.74,24.144C37.86,24.208 37.964,24.3 38.039,24.413C38.115,24.527 38.162,24.657 38.174,24.793C38.201,24.855 38.245,24.908 38.302,24.944C38.359,24.979 38.425,24.997 38.493,24.994Z" style="fill-rule:nonzero;"/>
                    <path d="M32.992,29.536L32.887,29.536C32.832,29.545 32.779,29.56 32.733,29.581C32.687,29.603 32.648,29.63 32.619,29.66C32.59,29.691 32.571,29.725 32.563,29.76C32.555,29.795 32.558,29.831 32.572,29.865C32.628,30.058 32.76,30.24 32.957,30.393C33.153,30.547 33.409,30.668 33.7,30.745C34.118,30.807 34.552,30.813 34.974,30.764C35.396,30.715 35.796,30.611 36.148,30.459C36.244,30.42 36.311,30.358 36.334,30.288C36.357,30.219 36.334,30.146 36.271,30.087C36.24,30.057 36.2,30.031 36.152,30.011C36.105,29.991 36.051,29.977 35.995,29.97C35.939,29.963 35.881,29.963 35.825,29.97C35.768,29.977 35.715,29.991 35.668,30.011C35.183,30.218 34.588,30.301 34.006,30.243C33.844,30.191 33.705,30.113 33.602,30.019C33.5,29.925 33.438,29.816 33.421,29.703C33.385,29.652 33.325,29.608 33.249,29.578C33.172,29.548 33.083,29.534 32.992,29.536Z" style="fill-rule:nonzero;"/>
                    <path d="M33.203,23.946C33.237,23.953 33.272,23.953 33.307,23.946C33.387,23.918 33.453,23.86 33.491,23.783C33.529,23.706 33.535,23.618 33.508,23.537C33.469,23.433 33.125,22.518 32.45,22.447C32.028,22.408 31.625,22.7 31.255,23.317C31.213,23.391 31.202,23.478 31.224,23.56C31.245,23.643 31.299,23.713 31.372,23.757C31.445,23.8 31.532,23.813 31.615,23.792C31.698,23.772 31.769,23.72 31.814,23.648C32.067,23.226 32.268,23.089 32.385,23.096C32.502,23.102 32.8,23.485 32.898,23.745C32.921,23.806 32.963,23.859 33.018,23.895C33.072,23.931 33.137,23.949 33.203,23.946Z" style="fill-rule:nonzero;"/>
                    <path d="M42.426,36.361C42.426,36.361 37.233,39.756 34.637,39.321C32.04,38.886 32.786,36.796 32.786,36.796L32.332,41.846L34.494,43.002L40.621,41.704L44.471,38.672L42.426,36.361Z" style="fill:rgb(238,229,243);fill-rule:nonzero;"/>
                    <path d="M36.331,43.565C37.294,45.847 37.682,48.33 37.46,50.796C37.123,55.035 33.877,59.287 33.877,59.287C33.877,59.287 30.775,54.204 30.846,50.796C30.917,47.389 33.527,43.007 33.527,43.007C33.527,43.007 31.06,46.694 30.197,49.063C29.333,51.433 28.178,54.477 28.178,54.477C28.178,54.477 26.374,50.939 27.165,47.265C27.957,43.591 32.358,41.852 32.358,41.852L36.331,43.565Z" style="fill:rgb(238,229,243);fill-rule:nonzero;"/>
                    <path d="M15.903,56.201C15.974,56.2 16.043,56.176 16.1,56.133C16.156,56.09 16.196,56.029 16.215,55.96C16.215,55.902 17.695,50.456 18.409,49.21C18.431,49.173 18.445,49.133 18.451,49.09C18.457,49.048 18.455,49.005 18.444,48.964C18.433,48.923 18.414,48.885 18.388,48.851C18.362,48.817 18.329,48.789 18.292,48.768C18.217,48.725 18.128,48.714 18.044,48.735C17.961,48.757 17.889,48.811 17.844,48.885C17.091,50.183 15.65,55.564 15.585,55.792C15.575,55.833 15.572,55.876 15.578,55.918C15.584,55.961 15.598,56.001 15.62,56.038C15.642,56.075 15.67,56.107 15.705,56.133C15.739,56.158 15.778,56.177 15.819,56.188L15.903,56.201Z" style="fill:rgb(238,229,243);fill-rule:nonzero;"/>
                    <path d="M8.666,34.411C8.84,34.411 9.013,34.382 9.179,34.326C11.21,33.677 13.028,29.406 13.073,29.218C13.099,29.157 13.105,29.091 13.091,29.027C13.077,28.963 13.044,28.905 12.995,28.861C12.949,28.816 12.89,28.786 12.826,28.776C12.762,28.765 12.697,28.775 12.638,28.802C12.087,29.049 7.277,31.301 7.14,33.067C7.127,33.281 7.174,33.494 7.278,33.681C7.381,33.869 7.536,34.023 7.725,34.125C8.002,34.314 8.33,34.414 8.666,34.411ZM12.139,29.776C11.444,31.191 10.191,33.346 8.99,33.71C8.844,33.758 8.689,33.772 8.537,33.749C8.384,33.727 8.24,33.669 8.114,33.58C7.835,33.391 7.809,33.229 7.822,33.119C7.893,32.236 10.243,30.756 12.139,29.802L12.139,29.776Z" style="fill:rgb(238,229,243);fill-rule:nonzero;"/>
                    <path d="M36.169,44.725L36.363,44.725C37.707,44.583 38.356,41.739 38.311,40.61C38.306,40.525 38.269,40.445 38.208,40.386C38.146,40.327 38.065,40.293 37.98,40.292C37.937,40.293 37.894,40.302 37.854,40.32C37.815,40.337 37.779,40.362 37.75,40.394C37.72,40.425 37.697,40.462 37.682,40.503C37.667,40.543 37.66,40.586 37.662,40.629C37.701,41.928 36.948,44.011 36.279,44.083C35.376,44.004 34.495,43.757 33.683,43.356C34.143,42.57 35.176,40.636 34.76,39.578C34.689,39.416 34.581,39.272 34.445,39.16C34.308,39.047 34.147,38.968 33.975,38.929C33.812,38.875 33.638,38.866 33.471,38.904C33.304,38.942 33.151,39.024 33.027,39.143C32.125,40.013 32.761,43.038 32.897,43.602C32.914,43.673 32.952,43.737 33.008,43.784L33.072,43.823C34.046,44.296 35.093,44.601 36.169,44.725ZM33.65,39.493L33.793,39.493C33.871,39.507 33.944,39.54 34.006,39.59C34.067,39.64 34.115,39.705 34.143,39.779C34.364,40.35 33.877,41.584 33.352,42.557C33.15,41.33 33.085,39.909 33.462,39.545C33.488,39.524 33.518,39.509 33.551,39.5C33.583,39.491 33.617,39.489 33.65,39.493Z" style="fill:rgb(7,198,106);fill-rule:nonzero;"/>
                    <path d="M34.669,50.31C34.782,50.311 34.893,50.288 34.997,50.245C35.101,50.201 35.195,50.138 35.273,50.057C36.247,49.077 35.611,45.124 35.474,44.345C35.462,44.275 35.428,44.212 35.376,44.164C35.325,44.116 35.259,44.086 35.189,44.079C35.119,44.07 35.048,44.085 34.988,44.12C34.927,44.155 34.879,44.209 34.851,44.273C34.676,44.702 33.118,48.506 33.832,49.81C33.898,49.934 33.99,50.042 34.102,50.127C34.214,50.211 34.344,50.269 34.481,50.297L34.669,50.31ZM35.014,45.688C35.202,47.331 35.241,49.168 34.812,49.583C34.788,49.609 34.757,49.628 34.722,49.638C34.688,49.648 34.652,49.649 34.618,49.642C34.572,49.634 34.529,49.616 34.492,49.589C34.455,49.562 34.424,49.527 34.403,49.486C34.072,48.895 34.507,47.142 35.014,45.688Z" style="fill:rgb(7,198,106);fill-rule:nonzero;"/>
                    <path d="M18.313,7.268L19.108,8.084C19.275,8.255 19.358,8.34 19.461,8.337C19.563,8.333 19.641,8.243 19.796,8.061L21.438,6.141" style="fill:none;fill-rule:nonzero;stroke:rgb(7,198,106);stroke-width:0.47px;"/>
                    <path d="M43.747,15.457L45.33,17.269C45.661,17.648 45.826,17.837 46.043,17.842C46.26,17.847 46.433,17.665 46.781,17.301L50.464,13.443" style="fill:none;fill-rule:nonzero;stroke:rgb(7,198,106);stroke-width:0.98px;"/>
                    <path d="M1.664,17.627L3.836,18.881C4.29,19.143 4.517,19.275 4.733,19.206C4.948,19.138 5.058,18.9 5.278,18.424L7.611,13.377" style="fill:none;fill-rule:nonzero;stroke:rgb(7,198,106);stroke-width:1.02px;"/>
                </g>
            </g>
        </g>
    </g>
</svg>
