<svg width="139" height="23" viewBox="0 0 139 23" fill="none" xmlns="http://www.w3.org/2000/svg">
<path d="M11.8795 4.64449C11.9658 4.59269 12.0349 4.54089 12.1212 4.47182C12.7946 3.97107 13.4508 3.45305 13.8479 2.69329C14.2796 1.8472 13.8997 1.10471 12.9846 0.914772C12.691 0.845703 12.3802 0.828436 12.0867 0.86297C10.878 0.983841 9.72108 1.29465 8.63324 1.81267C8.21883 2.00261 7.82169 2.20981 7.47634 2.65876C8.04616 2.46882 8.52964 2.27888 9.03039 2.14074C9.89375 1.899 10.7571 1.76086 11.655 1.96807C12.3284 2.12348 12.5356 2.77963 12.1212 3.31491C12.0003 3.47032 11.8449 3.62572 11.6723 3.72933C10.6535 4.47182 9.41027 4.97257 8.16703 5.12797C7.70082 5.12797 7.2346 5.02437 6.75112 4.83443C4.05744 3.74659 0.966606 5.28337 0.224116 8.04613C-0.570175 10.9643 0.811201 14.7113 3.34948 16.4207C4.76539 17.3877 5.81869 17.664 7.87349 17.1977C8.21883 17.1287 8.40877 17.1977 8.73685 17.2495C10.3082 17.5258 11.914 17.5949 13.3127 16.4553C15.3502 14.8149 16.1617 12.5701 16.2653 10.5499C16.3172 7.20003 14.4178 4.98983 11.8795 4.64449ZM8.25337 5.12797H8.30517C8.2879 5.1107 8.27063 5.12797 8.25337 5.12797Z" fill="white"/>
<path d="M26.5055 17.4609C24.7098 17.4609 23.1557 16.822 21.9125 15.5442C20.6692 14.2837 20.0476 12.7297 20.0476 10.9339C20.0476 9.15535 20.6865 7.6013 21.947 6.3408C23.1902 5.08029 24.727 4.44141 26.5055 4.44141C28.1459 4.44141 29.5791 4.99396 30.7705 6.09906C31.962 7.18689 32.6527 8.53373 32.8599 10.1223C32.9289 10.4331 32.9462 10.7094 32.9462 10.9684C32.9462 11.1929 32.9117 11.4346 32.8599 11.6418L32.7563 12.0562H22.724C22.8967 12.8333 23.2766 13.4722 23.8637 14.0074C24.6061 14.6636 25.4522 14.9917 26.5055 14.9917C27.2135 14.9917 27.8869 14.819 28.5085 14.4909C29.1302 14.1628 29.6136 13.7139 29.9935 13.1441L30.2007 12.8505L32.6872 13.334L32.3764 13.9729C31.8584 15.0262 31.0468 15.8723 29.9763 16.5112C28.8884 17.1501 27.7315 17.4609 26.5055 17.4609ZM22.7413 9.72517H30.1662C29.9935 9.01722 29.6309 8.3956 29.0611 7.87758C28.3531 7.22143 27.5243 6.91062 26.5055 6.91062C25.4695 6.91062 24.6061 7.22143 23.8809 7.89485C23.3111 8.3956 22.9312 8.99995 22.7413 9.72517Z" fill="white"/>
<path d="M39.7497 17.4772C37.9885 17.4772 36.4689 16.8383 35.2257 15.5606C33.9997 14.2828 33.3608 12.746 33.3608 10.9847C33.3608 9.17169 33.9825 7.61764 35.2257 6.33987C36.4689 5.09663 37.9885 4.45775 39.7324 4.45775C40.8203 4.45775 41.8045 4.71675 42.6851 5.25204C43.065 5.47651 43.4276 5.75279 43.7384 6.04633V0.917969H46.363V17.2873H43.7557V15.9059C43.4449 16.1994 43.0823 16.4757 42.7024 16.7002C41.8218 17.2182 40.8375 17.4772 39.7497 17.4772ZM39.8706 6.92696C38.7655 6.92696 37.833 7.30683 37.056 8.10113C36.279 8.89542 35.8991 9.82785 35.8991 10.9847C35.8991 12.1071 36.279 13.0223 37.056 13.8166C37.833 14.6109 38.7482 14.9907 39.8706 14.9907C40.9757 14.9907 41.8908 14.6109 42.6679 13.8166C43.4449 13.0223 43.842 12.0899 43.842 10.9847C43.842 9.86238 43.4622 8.92995 42.6679 8.11839C41.8908 7.3241 40.9757 6.92696 39.8706 6.92696Z" fill="white"/>
<path d="M53.909 17.4609C52.1132 17.4609 50.5591 16.822 49.3159 15.5442C48.0727 14.2837 47.451 12.7297 47.451 10.9339C47.451 9.15535 48.0899 7.6013 49.3504 6.3408C50.5937 5.08029 52.1305 4.44141 53.909 4.44141C55.5494 4.44141 56.9825 4.99396 58.174 6.09906C59.3654 7.18689 60.0561 8.53373 60.2633 10.1223C60.3324 10.4331 60.3497 10.7094 60.3497 10.9684C60.3497 11.1929 60.3151 11.4346 60.2633 11.6418L60.1597 12.0562H50.1275C50.3001 12.8333 50.68 13.4722 51.2671 14.0074C52.0096 14.6636 52.8557 14.9917 53.909 14.9917C54.6169 14.9917 55.2904 14.819 55.912 14.4909C56.5336 14.1628 57.0171 13.7139 57.397 13.1441L57.6042 12.8505L60.0906 13.334L59.7798 13.9729C59.2618 15.0262 58.4503 15.8723 57.3797 16.5112C56.3091 17.1501 55.135 17.4609 53.909 17.4609ZM50.162 9.72517H57.5869C57.4142 9.01722 57.0516 8.3956 56.4818 7.87758C55.7738 7.22143 54.945 6.91062 53.9263 6.91062C52.8902 6.91062 52.0269 7.22143 51.3016 7.89485C50.7146 8.3956 50.3347 8.99995 50.162 9.72517Z" fill="white"/>
<path d="M72.799 17.284H70.1916V10.2735C70.1916 9.20294 69.8981 8.40865 69.311 7.82156C68.7066 7.23448 67.9987 6.94093 67.1008 6.94093C66.1166 6.94093 65.3223 7.28628 64.6834 8.0115C64.0272 8.75399 63.6991 9.66915 63.6991 10.8433V17.284H61.0918V4.62713H63.6991V5.83583C63.9409 5.61136 64.2172 5.38689 64.528 5.19695C65.3395 4.67893 66.272 4.41992 67.3425 4.41992C68.8275 4.41992 70.1225 4.9034 71.1758 5.87037C72.2464 6.8546 72.799 8.16691 72.799 9.79002V17.284Z" fill="white"/>
<path d="M82.0707 17.4362H80.5339L75.8545 4.7793H78.6518L82.2779 14.7943L85.8867 4.7793H88.684L84.0046 17.4362H82.4506H82.0707Z" fill="white"/>
<path d="M91.9646 17.4381H89.3572V4.78125H91.9646V17.4381ZM90.6523 3.86608C90.1861 3.86608 89.7889 3.71068 89.4781 3.39987C89.15 3.08906 88.9946 2.67465 88.9946 2.20843C88.9946 1.74222 89.1673 1.34507 89.4781 1.017L89.4954 0.999728C89.8234 0.706186 90.2033 0.550781 90.6695 0.550781C91.153 0.550781 91.5502 0.706186 91.8782 1.017C92.2063 1.32781 92.379 1.74222 92.379 2.20843C92.379 2.67465 92.2063 3.08906 91.8955 3.39987C91.5502 3.71068 91.1358 3.86608 90.6523 3.86608Z" fill="white"/>
<path d="M99.6141 17.611C97.8528 17.611 96.3333 16.9721 95.0901 15.6943C93.8641 14.4165 93.2252 12.8797 93.2252 11.084C93.2252 9.30543 93.8468 7.75138 95.0901 6.49088C96.3333 5.23037 97.8528 4.57422 99.6141 4.57422C100.685 4.57422 101.669 4.83323 102.55 5.35124C102.947 5.57572 103.292 5.85199 103.62 6.1628V4.76416H106.227V17.421H103.62V16.0224C103.309 16.3332 102.947 16.5922 102.55 16.8167C101.669 17.352 100.685 17.611 99.6141 17.611ZM99.7522 7.0607C98.6471 7.0607 97.7147 7.44057 96.9549 8.23487C96.1779 9.02916 95.798 9.96159 95.798 11.084C95.798 12.2236 96.1779 13.1733 96.9549 13.9676C97.732 14.7619 98.6471 15.1417 99.7695 15.1417C100.875 15.1417 101.79 14.7446 102.567 13.9503C103.361 13.1388 103.741 12.2063 103.741 11.084C103.741 9.96159 103.361 9.02916 102.567 8.23487C101.772 7.44057 100.857 7.0607 99.7522 7.0607Z" fill="white"/>
<path d="M114.118 22.45C112.702 22.45 111.407 22.0528 110.233 21.2931C109.042 20.4988 108.265 19.3419 107.954 17.8569L107.816 17.2008H110.423L110.527 17.5979C110.751 18.3922 111.183 18.9448 111.839 19.3419C112.53 19.739 113.289 19.9462 114.101 19.9462C114.55 19.9462 114.982 19.8772 115.379 19.739C115.776 19.6009 116.156 19.3764 116.518 19.0829C116.864 18.8066 117.14 18.3749 117.347 17.8224C117.572 17.2526 117.692 16.5446 117.71 15.7676C117.399 16.0611 117.036 16.3201 116.639 16.5273C115.776 17.0108 114.774 17.2698 113.704 17.2698C111.908 17.2698 110.371 16.6655 109.162 15.4568C107.954 14.2481 107.332 12.7286 107.332 10.9155C107.332 9.11971 107.954 7.61746 109.162 6.40876C110.371 5.21732 111.891 4.5957 113.635 4.5957H113.704C114.792 4.5957 115.776 4.85471 116.639 5.33819C117.036 5.56267 117.382 5.82168 117.71 6.11522V4.78564H120.317V15.5949C120.317 16.7691 120.127 17.8224 119.782 18.7203C119.419 19.6527 118.918 20.3779 118.28 20.9132C117.675 21.4312 117.002 21.8111 116.311 22.0701C115.603 22.3291 114.878 22.45 114.118 22.45ZM113.825 7.04765C112.685 7.04765 111.77 7.41026 110.993 8.17001C110.233 8.9125 109.853 9.8104 109.853 10.9155C109.853 12.0551 110.233 12.9703 110.993 13.6955C111.77 14.438 112.685 14.8006 113.807 14.8006C114.912 14.8006 115.828 14.438 116.622 13.6783C117.399 12.9358 117.779 12.0379 117.779 10.9155C117.779 9.82767 117.399 8.94704 116.622 8.18728C115.862 7.41026 114.947 7.04765 113.825 7.04765Z" fill="white"/>
<path d="M128.14 22.45C126.724 22.45 125.429 22.0528 124.255 21.2931C123.063 20.4988 122.286 19.3419 121.975 17.8569L121.837 17.2008H124.444L124.548 17.5979C124.773 18.3922 125.204 18.9448 125.86 19.3419C126.551 19.739 127.311 19.9462 128.122 19.9462C128.571 19.9462 129.003 19.8772 129.4 19.739C129.797 19.6009 130.177 19.3764 130.54 19.0829C130.885 18.8066 131.161 18.3749 131.369 17.8224C131.593 17.2526 131.714 16.5446 131.731 15.7676C131.42 16.0611 131.058 16.3201 130.661 16.5273C129.797 17.0108 128.796 17.2698 127.725 17.2698C125.929 17.2698 124.393 16.6655 123.184 15.4568C121.975 14.2481 121.354 12.7286 121.354 10.9155C121.354 9.11971 121.975 7.61746 123.184 6.40876C124.393 5.21732 125.912 4.5957 127.656 4.5957H127.725C128.813 4.5957 129.797 4.85471 130.661 5.33819C131.058 5.56267 131.403 5.82168 131.731 6.11522V4.78564H134.339V15.5949C134.339 16.7691 134.149 17.8224 133.803 18.7203C133.441 19.6527 132.94 20.3779 132.301 20.9132C131.697 21.4312 131.023 21.8111 130.333 22.0701C129.642 22.3291 128.899 22.45 128.14 22.45ZM127.863 7.04765C126.724 7.04765 125.809 7.41026 125.032 8.17001C124.272 8.9125 123.892 9.8104 123.892 10.9155C123.892 12.0551 124.272 12.9703 125.032 13.6955C125.809 14.438 126.724 14.8006 127.846 14.8006C128.951 14.8006 129.866 14.438 130.661 13.6783C131.438 12.9358 131.818 12.0379 131.818 10.9155C131.818 9.82767 131.438 8.94704 130.661 8.18728C129.901 7.41026 128.968 7.04765 127.863 7.04765Z" fill="white"/>
<path d="M138.586 17.4381H135.979V4.78125H138.586V17.4381ZM137.274 3.86608C136.807 3.86608 136.41 3.71068 136.099 3.39987C135.771 3.08906 135.616 2.67465 135.616 2.20843C135.616 1.74222 135.789 1.34507 136.099 1.017L136.117 0.999728C136.445 0.706186 136.825 0.550781 137.291 0.550781C137.774 0.550781 138.172 0.706186 138.5 1.017C138.828 1.32781 139 1.74222 139 2.20843C139 2.67465 138.828 3.08906 138.517 3.39987C138.154 3.71068 137.757 3.86608 137.274 3.86608Z" fill="white"/>
</svg>
