<svg width="144" height="144" viewBox="0 0 144 144" fill="none" xmlns="http://www.w3.org/2000/svg">
<path d="M80.1042 27.7607C79.5199 25.162 77.5593 23.3782 75.714 23.7934L74.753 23.9395C74.6368 23.9473 74.5212 23.9627 74.407 23.9856C72.5694 24.4008 71.5468 26.8458 72.1004 29.4522C72.654 32.0586 74.6453 33.8346 76.4906 33.4195L77.444 33.2734C77.5628 33.2661 77.6809 33.2507 77.7976 33.2272C79.6659 32.8121 80.6655 30.3671 80.1042 27.7607Z" fill="url(#paint0_linear_7489_45216)"/>
<path d="M104.284 94.0969C104.284 94.0969 104.399 94.958 104.499 96.0959C104.676 98.0334 104.815 100.771 104.284 101.478C103.446 102.554 96.9261 108.867 85.7931 112.173C74.6601 115.479 56.6919 115.786 54.6391 114.225C52.5863 112.665 51.0486 108.436 51.0486 108.436C51.0486 108.436 36.7017 109.12 31.8272 102.516C26.9527 95.9114 25.9147 80.6727 33.6033 66.6642C41.2918 52.6557 50.0029 50.2491 50.0029 50.2491C49.8338 50.0646 48.0039 47.9426 50.0029 44.0214C52.6324 38.8932 60.7669 35.7255 60.7669 35.7255L75.1829 34.8721C79.2654 35.3915 83.0186 37.3815 85.7393 40.4693C89.4528 44.7211 88.8146 47.389 88.4379 48.2424C88.4046 48.3343 88.3607 48.422 88.3072 48.5039C88.3072 48.5039 119.169 58.6297 121.045 75.4137C122.921 92.1978 104.284 94.0969 104.284 94.0969Z" fill="url(#paint1_linear_7489_45216)"/>
<path d="M88.4916 48.2112C84.0142 50.9525 79.0948 52.8958 73.9526 53.9545C61.3127 56.7455 50.0259 50.2179 50.0259 50.2179C49.8567 50.0334 48.0269 47.9113 50.0259 43.9902C52.6554 38.8619 60.7898 35.6942 60.7898 35.6942L75.2058 34.8408C79.2884 35.3602 83.0415 37.3502 85.7622 40.4381C89.5065 44.6898 88.8453 47.3885 88.4916 48.2112Z" fill="#62EAFD"/>
<path d="M62.9114 45.1598C62.9114 45.1598 57.1988 42.1843 57.5294 40.439C57.86 38.6937 63.4112 37.5251 66.9633 38.194C70.5154 38.8629 78.9113 38.9628 78.9113 42.0382C78.9113 44.7446 75.067 47.3433 75.067 47.3433L66.9787 45.0368L62.9114 45.1598Z" fill="#62EAFD"/>
<path d="M62.7119 36.2256L62.9118 45.1597C62.9118 45.1597 64.5802 47.6969 69.8315 48.0044C73.7296 48.2351 75.0751 47.3278 75.0751 47.3278L74.4369 42.807L73.7988 38.4091L64.3111 36.5408L62.7119 36.2256Z" fill="#FFC094"/>
<path d="M64.3037 36.54C64.3538 36.8375 64.4498 37.1254 64.5882 37.3935C66.6872 41.8144 72.1768 42.6601 74.4295 42.7754L73.7914 38.3776L64.3037 36.54Z" fill="black"/>
<path d="M75.3364 17.9879C75.3364 17.9879 80.2725 29.0901 78.5656 35.3563C76.8588 41.6224 71.1462 40.6767 67.7248 39.4927C65.7901 38.8747 64.0581 37.7457 62.7118 36.2251C61.7425 36.5169 60.7058 36.4957 59.7493 36.1644C58.7927 35.8331 57.9649 35.2086 57.3837 34.3798C55.2309 31.4351 56.5226 28.0214 58.3371 27.2295C60.1516 26.4376 62.3197 27.7369 62.3197 27.7369L60.6052 24.5154C60.6052 24.5154 67.5941 8.01582 75.3364 17.9879Z" fill="#FFC094"/>
<path d="M61.851 32.9885C61.7976 32.9893 61.7446 32.9788 61.6956 32.9576C61.6465 32.9364 61.6026 32.905 61.5666 32.8655L58.545 29.667C58.4746 29.5926 58.4367 29.4933 58.4396 29.3909C58.4425 29.2885 58.4859 29.1915 58.5603 29.1211C58.6348 29.0508 58.7341 29.0129 58.8365 29.0158C58.9388 29.0187 59.0359 29.0621 59.1062 29.1365L62.1278 32.3426C62.1822 32.3958 62.2192 32.4641 62.2339 32.5387C62.2487 32.6132 62.2406 32.6905 62.2107 32.7604C62.1808 32.8302 62.1304 32.8894 62.0662 32.9301C62.002 32.9708 61.927 32.9912 61.851 32.9885Z" fill="black"/>
<path d="M58.6447 32.1656C58.5942 32.1692 58.5435 32.1627 58.4955 32.1467C58.4475 32.1306 58.4032 32.1053 58.365 32.0721C58.2878 32.005 58.2405 31.9101 58.2334 31.8081C58.2262 31.7062 58.2599 31.6056 58.3269 31.5284C58.394 31.4513 58.4889 31.4039 58.5909 31.3968L60.6822 31.0816C60.7321 31.0739 60.7831 31.0762 60.8322 31.0883C60.8813 31.1004 60.9276 31.1221 60.9683 31.1521C61.009 31.1821 61.0434 31.2198 61.0695 31.2631C61.0956 31.3064 61.1129 31.3545 61.1204 31.4045C61.1338 31.5051 61.1076 31.607 61.0474 31.6888C60.9871 31.7705 60.8976 31.8257 60.7975 31.8427L58.7062 32.158L58.6447 32.1656Z" fill="black"/>
<path d="M62.3199 27.7372C62.4841 27.8403 62.6681 27.908 62.86 27.9359C63.0518 27.9638 63.2474 27.9513 63.4342 27.8991C63.621 27.847 63.7948 27.7564 63.9445 27.6332C64.0942 27.51 64.2165 27.3568 64.3036 27.1836C65.1416 25.8765 63.3117 22.0169 63.3117 22.0169C63.3117 22.0169 66.7639 22.7858 68.8936 21.6555C71.0234 20.5253 72.069 17.3807 72.069 17.3807C72.069 17.3807 73.6067 20.6483 78.3428 19.2106C83.079 17.7728 83.9478 11.3683 78.9272 10.0612C73.9065 8.75417 71.1541 10.9762 71.1541 10.9762C71.1541 10.9762 70.5159 6.36304 64.3036 8.62347C58.6448 10.7148 57.6914 17.8036 57.6914 17.8036C56.6807 17.8912 55.7296 18.3192 54.9936 19.0175C54.2576 19.7158 53.7802 20.6431 53.6396 21.6479C52.986 25.346 57.307 28.0217 57.307 28.0217C58.0708 27.6103 58.9157 27.3716 59.7819 27.3225C60.648 27.2733 61.5145 27.4149 62.3199 27.7372Z" fill="#865DFF"/>
<path d="M69.901 28.0141C69.8081 28.0134 69.7185 27.9798 69.6481 27.9193C69.5777 27.8587 69.5311 27.7752 69.5166 27.6835L69.2552 25.6076C69.2421 25.5067 69.2695 25.4047 69.3315 25.324C69.3935 25.2433 69.4849 25.1904 69.5858 25.177C69.6867 25.1639 69.7886 25.1914 69.8694 25.2533C69.9501 25.3153 70.0029 25.4068 70.0163 25.5076L70.2854 27.5835C70.2918 27.6341 70.2882 27.6854 70.2746 27.7345C70.261 27.7836 70.2378 27.8295 70.2063 27.8696C70.1749 27.9097 70.1357 27.9431 70.0912 27.9679C70.0467 27.9927 69.9977 28.0084 69.9471 28.0141H69.901Z" fill="black"/>
<path d="M76.0523 27.5527C75.9603 27.5518 75.8718 27.5179 75.8026 27.4573C75.7335 27.3966 75.6884 27.3132 75.6756 27.2221L75.368 25.1539C75.3609 25.1034 75.3639 25.052 75.3767 25.0027C75.3895 24.9534 75.4118 24.907 75.4425 24.8663C75.4732 24.8256 75.5117 24.7914 75.5556 24.7655C75.5995 24.7397 75.6481 24.7227 75.6986 24.7157C75.7491 24.7086 75.8005 24.7115 75.8498 24.7243C75.8992 24.7371 75.9455 24.7595 75.9862 24.7902C76.0269 24.8209 76.0612 24.8593 76.087 24.9033C76.1129 24.9472 76.1298 24.9958 76.1369 25.0463L76.4444 27.1145C76.451 27.1697 76.4457 27.2257 76.4289 27.2787C76.4122 27.3318 76.3843 27.3806 76.3472 27.4221C76.3101 27.4635 76.2647 27.4966 76.2138 27.5191C76.163 27.5417 76.1079 27.5531 76.0523 27.5527Z" fill="black"/>
<path d="M67.9398 24.0389C67.8789 24.0381 67.8187 24.0251 67.763 24.0005C67.7172 23.9777 67.6763 23.946 67.6429 23.9072C67.6095 23.8684 67.5842 23.8234 67.5685 23.7747C67.5527 23.726 67.5468 23.6746 67.5512 23.6236C67.5556 23.5726 67.57 23.523 67.5938 23.4777C68.3627 21.9938 70.2387 22.3782 70.3233 22.4013C70.4252 22.4227 70.5145 22.4837 70.5715 22.571C70.6284 22.6582 70.6484 22.7645 70.627 22.8664C70.6056 22.9684 70.5445 23.0577 70.4573 23.1146C70.37 23.1716 70.2638 23.1915 70.1618 23.1701C70.1003 23.1701 68.7702 22.8933 68.2781 23.8544C68.243 23.9122 68.1932 23.9597 68.1338 23.9921C68.0744 24.0245 68.0075 24.0407 67.9398 24.0389Z" fill="#865DFF"/>
<path d="M73.9526 22.7547C73.8761 22.758 73.8006 22.7364 73.7373 22.6932C73.6952 22.6646 73.6591 22.628 73.6312 22.5854C73.6033 22.5428 73.5841 22.495 73.5748 22.445C73.5655 22.3949 73.5663 22.3435 73.577 22.2937C73.5878 22.2439 73.6083 22.1968 73.6374 22.155C73.7682 21.9462 73.9435 21.769 74.1509 21.6361C74.3583 21.5032 74.5925 21.4178 74.8368 21.3861C75.5469 21.3745 76.2355 21.6297 76.7666 22.1012C76.8051 22.1336 76.8366 22.1734 76.8594 22.2182C76.8822 22.2631 76.8958 22.312 76.8993 22.3621C76.9029 22.4123 76.8964 22.4627 76.8802 22.5103C76.8641 22.5579 76.8385 22.6018 76.8051 22.6394C76.7319 22.7103 76.634 22.7499 76.5321 22.7499C76.4302 22.7499 76.3323 22.7103 76.2592 22.6394C75.892 22.3126 75.4205 22.1272 74.9291 22.1165C74.7918 22.1375 74.6611 22.1892 74.5466 22.2678C74.4321 22.3463 74.3368 22.4497 74.2679 22.5702C74.2353 22.6251 74.1893 22.6709 74.1341 22.7032C74.079 22.7355 74.0165 22.7532 73.9526 22.7547Z" fill="#865DFF"/>
<path d="M110.405 78.1128C110.405 78.1128 114.779 75.714 115.464 81.7187C116.148 87.7235 114.003 92.8364 108.629 94.0204C105.422 94.7354 105.038 92.821 105.038 92.821L110.405 78.1128Z" fill="#62EAFD"/>
<path d="M112.603 91.6216C112.506 91.6223 112.413 91.5866 112.342 91.5216L109.059 88.5077C109.021 88.4734 108.991 88.432 108.97 88.386C108.948 88.34 108.936 88.2903 108.934 88.2396C108.932 88.1889 108.94 88.1383 108.957 88.0906C108.975 88.043 109.001 87.9992 109.035 87.9619C109.07 87.9245 109.111 87.8943 109.157 87.8729C109.203 87.8515 109.253 87.8394 109.304 87.8373C109.354 87.8351 109.405 87.843 109.453 87.8604C109.5 87.8778 109.544 87.9044 109.581 87.9388L112.864 90.9527C112.9 90.9884 112.929 91.0309 112.949 91.0778C112.968 91.1246 112.978 91.1749 112.978 91.2256C112.978 91.2764 112.968 91.3266 112.949 91.3735C112.929 91.4203 112.9 91.4628 112.864 91.4986C112.796 91.5707 112.702 91.6146 112.603 91.6216Z" fill="#62EAFD"/>
<path d="M103.085 72.915H103.015C102.949 72.9112 102.885 72.89 102.83 72.8535C102.775 72.8171 102.73 72.7667 102.7 72.7074C102.666 72.6504 102.648 72.5854 102.648 72.5191C102.648 72.4528 102.666 72.3877 102.7 72.3307C102.908 71.977 107.836 63.6888 111.488 65.3418C111.814 65.4402 112.09 65.6606 112.257 65.9571C112.425 66.2536 112.472 66.6033 112.388 66.9333C111.811 69.3322 104.961 72.915 103.085 72.915ZM110.458 65.8954C108.213 65.8954 105.237 69.7397 103.792 72.0462C106.098 71.4388 111.242 68.4249 111.642 66.7565C111.696 66.5335 111.688 66.2798 111.181 66.0492C110.952 65.9533 110.706 65.9062 110.458 65.9108V65.8954Z" fill="#62EAFD"/>
<path d="M100.893 71.9534C100.8 71.9541 100.711 71.9208 100.642 71.8599C100.572 71.7989 100.527 71.7145 100.516 71.6228C99.6474 65.3028 93.8809 58.5523 93.8271 58.4677C93.7867 58.4313 93.7545 58.3866 93.7326 58.3367C93.7107 58.2869 93.6997 58.2329 93.7002 58.1785C93.7008 58.124 93.7128 58.0703 93.7357 58.0209C93.7586 57.9714 93.7917 57.9274 93.8329 57.8918C93.874 57.8561 93.9223 57.8296 93.9744 57.814C94.0266 57.7984 94.0815 57.794 94.1355 57.8012C94.1895 57.8084 94.2413 57.827 94.2876 57.8558C94.3338 57.8845 94.3734 57.9228 94.4038 57.968C94.6498 58.2525 100.378 64.9722 101.277 71.5152C101.291 71.617 101.263 71.7199 101.202 71.8018C101.14 71.8838 101.048 71.9382 100.947 71.9534H100.893Z" fill="#62EAFD"/>
<path d="M111.134 73.9297C111.134 73.9297 114.41 75.698 111.18 80.0036C107.951 84.3092 107.536 76.9667 107.536 76.9667L111.134 73.9297Z" fill="#FFC094"/>
<path d="M99.8866 86.5775C99.8866 86.5775 98.2182 93.9585 104.269 94.0892C110.32 94.2199 111.189 85.6318 111.189 85.6318L99.8866 86.5775Z" fill="#FFC094"/>
<path d="M115.44 84.9552L110.265 84.6169C110.215 84.6139 110.165 84.601 110.12 84.5789C110.074 84.5569 110.034 84.526 110 84.4881C109.967 84.4503 109.941 84.4062 109.924 84.3583C109.908 84.3105 109.901 84.2599 109.904 84.2094C109.912 84.1081 109.959 84.0138 110.035 83.9464C110.111 83.879 110.21 83.8437 110.312 83.848L115.471 84.1863C115.573 84.1863 115.67 84.2268 115.742 84.2989C115.814 84.371 115.855 84.4688 115.855 84.5707C115.855 84.6727 115.814 84.7705 115.742 84.8426C115.67 84.9147 115.573 84.9552 115.471 84.9552H115.44Z" fill="#62EAFD"/>
<path d="M75.6522 82.1417C75.6522 82.1417 84.4095 72.3465 87.9539 71.6622C91.4983 70.978 99.3637 73.9688 99.2022 74.9606C99.0407 75.9524 91.3215 75.8525 91.3215 75.8525C91.3215 75.8525 94.3046 83.9485 94.097 85.6169C93.8894 87.2853 89.2609 91.4833 88.3383 91.8216C87.4157 92.1599 85.7704 89.1152 85.7704 89.1152C83.9913 90.5824 81.8414 91.5297 79.558 91.8523C76.1443 92.1676 73.2227 86.5703 73.2227 86.5703L75.6522 82.1417Z" fill="#FFC094"/>
<path d="M110.073 70.3829L101.875 66.6229C101.003 66.2228 99.9716 66.6056 99.5715 67.4778L91.8014 84.4179C91.4013 85.2901 91.7841 86.3216 92.6564 86.7217L100.854 90.4817C101.726 90.8818 102.758 90.499 103.158 89.6267L110.928 72.6867C111.328 71.8144 110.945 70.783 110.073 70.3829Z" fill="#62EAFD"/>
<path d="M111.311 70.9561L103.114 67.1961C102.241 66.796 101.21 67.1788 100.81 68.0511L93.0397 84.9911C92.6396 85.8634 93.0223 86.8948 93.8946 87.2949L102.092 91.0549C102.964 91.455 103.996 91.0723 104.396 90.2L112.166 73.26C112.566 72.3877 112.183 71.3562 111.311 70.9561Z" fill="white"/>
<path d="M109.743 83.033C109.743 83.033 115.079 83.1714 113.81 80.5265C112.541 77.8817 103.2 75.3906 101.785 78.0816C100.37 80.7726 109.743 83.033 109.743 83.033Z" fill="#FFC094"/>
<path d="M108.567 87.2852C108.567 87.2852 113.903 87.4313 112.626 84.7864C111.35 82.1416 102.016 79.6428 100.601 82.3338C99.1867 85.0248 108.567 87.2852 108.567 87.2852Z" fill="#FFC094"/>
<path d="M105.015 90.4912C106.082 91.0399 107.277 91.2922 108.475 91.2216C109.543 91.1371 110.527 90.745 110.174 89.4994C109.459 87.0006 101.716 83.4178 100.056 85.5475C98.8332 87.139 102.877 89.4302 105.015 90.4912Z" fill="#FFC094"/>
<path d="M111.134 82.6175H111.049L103.853 81.0798C103.751 81.0574 103.662 80.9954 103.606 80.9074C103.55 80.8195 103.531 80.7128 103.553 80.6108C103.576 80.5088 103.638 80.42 103.726 80.3637C103.814 80.3075 103.92 80.2885 104.022 80.311L111.219 81.8487C111.321 81.8599 111.414 81.9111 111.478 81.9912C111.542 82.0712 111.572 82.1734 111.561 82.2754C111.55 82.3773 111.498 82.4707 111.418 82.5348C111.338 82.599 111.236 82.6287 111.134 82.6175Z" fill="black"/>
<path d="M109.32 86.9697H109.236L102.039 85.432C101.99 85.422 101.943 85.4022 101.901 85.3738C101.86 85.3455 101.825 85.3091 101.797 85.2668C101.77 85.2245 101.752 85.1772 101.743 85.1277C101.734 85.0781 101.736 85.0274 101.747 84.9784C101.771 84.8788 101.832 84.7923 101.918 84.7365C102.004 84.6807 102.108 84.6599 102.208 84.6785L109.405 86.2162C109.454 86.2262 109.501 86.246 109.542 86.2744C109.584 86.3027 109.619 86.3392 109.646 86.3814C109.674 86.4237 109.692 86.471 109.701 86.5205C109.709 86.5701 109.708 86.6208 109.697 86.6698C109.678 86.7553 109.63 86.8315 109.561 86.8861C109.493 86.9406 109.408 86.9701 109.32 86.9697Z" fill="black"/>
<path d="M72.4081 78.1121C72.4081 78.1121 76.6444 77.5509 77.3595 78.5504C78.0745 79.5499 80.9961 93.3278 78.8357 94.0351C76.6752 94.7424 74.63 95.4575 74.63 95.4575C74.63 95.4575 69.3403 90.4599 72.4081 78.1121Z" fill="#62EAFD"/>
<path d="M104.284 101.447C103.446 102.523 96.9263 108.836 85.7933 112.142C74.6603 115.448 56.6922 115.755 54.6394 114.195C52.5865 112.634 51.0488 108.405 51.0488 108.405C51.0488 108.405 61.313 112.119 77.3667 108.813C87.2543 106.674 96.5301 102.327 104.5 96.0957C104.676 98.0332 104.815 100.77 104.284 101.447Z" fill="#62EAFD"/>
<path d="M69.0861 55.3313C57.2458 54.6701 52.648 51.956 52.4558 51.8407C52.3693 51.7867 52.3073 51.701 52.2829 51.602C52.2585 51.5029 52.2736 51.3983 52.3251 51.3102C52.3512 51.2666 52.3856 51.2286 52.4265 51.1984C52.4673 51.1682 52.5138 51.1464 52.5631 51.1342C52.6125 51.1221 52.6637 51.1198 52.7139 51.1276C52.7641 51.1353 52.8123 51.153 52.8556 51.1795C52.9017 51.1795 57.5149 53.9166 69.1092 54.5625C69.2112 54.5625 69.3089 54.603 69.381 54.6751C69.4531 54.7472 69.4936 54.8449 69.4936 54.9469C69.4936 55.0488 69.4531 55.1466 69.381 55.2187C69.3089 55.2908 69.2112 55.3313 69.1092 55.3313H69.0861Z" fill="#62EAFD"/>
<path d="M69.4089 68.8092C69.3574 68.8082 69.3066 68.7971 69.2595 68.7764C69.2123 68.7558 69.1696 68.7261 69.1339 68.6889C69.0982 68.6518 69.0701 68.608 69.0514 68.5601C69.0326 68.5121 69.0235 68.4609 69.0245 68.4094L69.3551 58.8141C69.3551 58.7122 69.3956 58.6144 69.4677 58.5423C69.5398 58.4702 69.6376 58.4297 69.7395 58.4297C69.8415 58.4297 69.9393 58.4702 70.0114 58.5423C70.0835 58.6144 70.124 58.7122 70.124 58.8141L69.7933 68.4094C69.7954 68.4612 69.787 68.5128 69.7686 68.5612C69.7502 68.6097 69.7223 68.6539 69.6864 68.6912C69.6504 68.7286 69.6074 68.7583 69.5597 68.7785C69.512 68.7988 69.4607 68.8093 69.4089 68.8092Z" fill="#62EAFD"/>
<path d="M85.055 65.9033C84.9874 65.905 84.9205 65.8889 84.8611 65.8565C84.8017 65.8241 84.7519 65.7766 84.7167 65.7188L79.9344 57.6304C79.8836 57.5415 79.8696 57.4361 79.8955 57.337C79.9214 57.2378 79.985 57.1527 80.0729 57.0999C80.1607 57.0495 80.2648 57.0357 80.3627 57.0616C80.4606 57.0875 80.5443 57.151 80.5957 57.2383L85.3856 65.3266C85.4116 65.3699 85.4287 65.4179 85.4358 65.4678C85.4429 65.5177 85.44 65.5686 85.427 65.6173C85.4141 65.6661 85.3916 65.7118 85.3607 65.7516C85.3298 65.7915 85.2912 65.8248 85.2472 65.8495C85.1895 65.8851 85.1229 65.9038 85.055 65.9033Z" fill="#62EAFD"/>
<path d="M85.0553 50.6184C84.9696 50.6188 84.8862 50.5905 84.8183 50.5381C84.7505 50.4857 84.7021 50.4121 84.6809 50.329C84.6597 50.246 84.6669 50.1582 84.7013 50.0797C84.7357 50.0011 84.7953 49.9364 84.8708 49.8956L88.1845 48.158C88.2294 48.1273 88.2802 48.1065 88.3337 48.0969C88.3871 48.0873 88.442 48.0891 88.4947 48.1022C88.5474 48.1154 88.5968 48.1396 88.6395 48.1732C88.6821 48.2068 88.7172 48.249 88.7424 48.2972C88.7676 48.3453 88.7822 48.3982 88.7854 48.4525C88.7887 48.5067 88.7804 48.561 88.7611 48.6118C88.7418 48.6625 88.7119 48.7087 88.6735 48.7471C88.6351 48.7855 88.589 48.8153 88.5382 48.8346L85.2321 50.5799C85.1771 50.6066 85.1165 50.6198 85.0553 50.6184Z" fill="#62EAFD"/>
<path d="M72.2071 78.3359H72.0995C71.9841 78.3359 60.9127 75.0529 44.7437 76.4599C44.6421 76.4663 44.542 76.433 44.4645 76.367C44.387 76.301 44.3382 76.2075 44.3285 76.1062C44.3243 76.0557 44.3301 76.0048 44.3456 75.9566C44.3611 75.9083 44.3861 75.8636 44.4189 75.825C44.4518 75.7864 44.492 75.7547 44.5372 75.7317C44.5823 75.7087 44.6316 75.6949 44.6822 75.691C60.9972 74.2763 72.2071 77.567 72.3148 77.5978C72.4126 77.6263 72.4952 77.6926 72.5442 77.782C72.5932 77.8714 72.6047 77.9766 72.5762 78.0745C72.5492 78.1508 72.4992 78.2169 72.4331 78.2637C72.367 78.3105 72.2881 78.3357 72.2071 78.3359Z" fill="#62EAFD"/>
<path d="M52.5323 76.0899C52.4764 76.1005 52.419 76.1005 52.3631 76.0899C51.7019 75.7746 45.8894 72.9529 45.6356 70.5387C45.6031 70.2408 45.6533 69.9396 45.7808 69.6683C45.9083 69.397 46.1081 69.1661 46.3584 69.001C46.6042 68.7981 46.8963 68.6589 47.2088 68.5959C47.5213 68.5328 47.8445 68.5479 48.1498 68.6397C50.6947 69.4085 52.8014 75.3364 52.8936 75.5594C52.9128 75.6174 52.9182 75.6791 52.9093 75.7396C52.9004 75.8001 52.8775 75.8577 52.8423 75.9077C52.8072 75.9578 52.7609 75.9989 52.7071 76.0279C52.6532 76.0568 52.5934 76.0728 52.5323 76.0745V76.0899ZM47.6039 69.3086C47.3217 69.3149 47.0502 69.418 46.835 69.6007C46.6915 69.6817 46.5745 69.8024 46.4981 69.9484C46.4217 70.0944 46.3892 70.2594 46.4045 70.4234C46.5583 71.8612 49.8259 73.8679 51.8249 74.9135C51.056 72.976 49.4645 69.816 47.9345 69.3624C47.8271 69.3302 47.716 69.3121 47.6039 69.3086Z" fill="#62EAFD"/>
<path d="M88.6298 89.5067H85.7927C85.7128 89.5061 85.635 89.4806 85.5702 89.4338C85.5055 89.3869 85.4569 89.321 85.4314 89.2453C85.4034 89.1683 85.4018 89.0843 85.4269 89.0063C85.4519 88.9284 85.5022 88.861 85.5698 88.8147L88.107 86.9772C88.1479 86.9474 88.1942 86.9259 88.2434 86.9141C88.2926 86.9022 88.3436 86.9001 88.3936 86.908C88.4436 86.9158 88.4915 86.9335 88.5347 86.9598C88.5778 86.9862 88.6154 87.0208 88.6452 87.0617C88.675 87.1026 88.6964 87.149 88.7083 87.1982C88.7201 87.2473 88.7222 87.2984 88.7143 87.3484C88.7065 87.3983 88.6889 87.4463 88.6625 87.4894C88.6361 87.5326 88.6015 87.5702 88.5606 87.5999L87.0229 88.7378H88.6682C88.7702 88.7378 88.868 88.7783 88.9401 88.8504C89.0122 88.9225 89.0527 89.0203 89.0527 89.1223C89.0529 89.1762 89.0419 89.2295 89.0202 89.2788C88.9985 89.3282 88.9667 89.3724 88.9268 89.4087C88.887 89.4449 88.8399 89.4724 88.7887 89.4893C88.7376 89.5061 88.6834 89.5121 88.6298 89.5067Z" fill="black"/>
<path d="M91.3442 76.2444H86.7311C86.6292 76.2444 86.5314 76.2039 86.4593 76.1318C86.3872 76.0597 86.3467 75.962 86.3467 75.86C86.3467 75.7581 86.3872 75.6603 86.4593 75.5882C86.5314 75.5161 86.6292 75.4756 86.7311 75.4756H91.3442C91.4462 75.4756 91.544 75.5161 91.6161 75.5882C91.6881 75.6603 91.7287 75.7581 91.7287 75.86C91.7287 75.962 91.6881 76.0597 91.6161 76.1318C91.544 76.2039 91.4462 76.2444 91.3442 76.2444Z" fill="black"/>
<path d="M60.7753 115.202C60.698 115.203 60.6223 115.18 60.5588 115.136C60.4954 115.092 60.4474 115.029 60.4216 114.956L58.5764 110.297C58.5567 110.25 58.5466 110.201 58.5469 110.15C58.5471 110.1 58.5577 110.05 58.5778 110.004C58.598 109.958 58.6274 109.917 58.6641 109.882C58.7009 109.848 58.7443 109.822 58.7917 109.805C58.8386 109.786 58.8888 109.777 58.9393 109.777C58.9899 109.778 59.0398 109.789 59.0862 109.809C59.1326 109.829 59.1746 109.858 59.2098 109.894C59.2451 109.93 59.2728 109.973 59.2914 110.02L61.1367 114.672C61.1724 114.767 61.17 114.872 61.1298 114.965C61.0897 115.058 61.015 115.132 60.9214 115.171C60.8754 115.192 60.8256 115.202 60.7753 115.202Z" fill="#62EAFD"/>
<path d="M65.6028 115.202C65.5166 115.201 65.433 115.172 65.3649 115.12C65.2968 115.067 65.248 114.993 65.226 114.91L64.0035 110.258C63.9908 110.209 63.9879 110.158 63.995 110.108C64.002 110.058 64.0189 110.01 64.0446 109.966C64.0703 109.923 64.1044 109.885 64.1448 109.854C64.1853 109.824 64.2313 109.802 64.2803 109.789C64.3782 109.763 64.4823 109.777 64.5701 109.827C64.6579 109.878 64.7223 109.961 64.7493 110.058L65.9718 114.718C65.9978 114.815 65.984 114.92 65.9337 115.007C65.8833 115.095 65.8003 115.16 65.7027 115.187L65.6028 115.202Z" fill="#62EAFD"/>
<path d="M102.116 103.624C102.016 103.622 101.92 103.582 101.849 103.512C101.777 103.442 101.735 103.347 101.732 103.247L101.616 98.2877C101.616 98.1858 101.657 98.088 101.729 98.0159C101.801 97.9438 101.899 97.9033 102.001 97.9033C102.103 97.9033 102.2 97.9438 102.272 98.0159C102.345 98.088 102.385 98.1858 102.385 98.2877L102.5 103.247C102.501 103.297 102.492 103.348 102.474 103.395C102.456 103.442 102.428 103.485 102.393 103.521C102.358 103.557 102.316 103.587 102.27 103.607C102.224 103.627 102.174 103.638 102.124 103.639L102.116 103.624Z" fill="#62EAFD"/>
<path d="M98.0182 106.699C97.9163 106.699 97.8185 106.658 97.7464 106.586C97.6743 106.514 97.6338 106.416 97.6338 106.314V101.055C97.6338 100.953 97.6743 100.856 97.7464 100.783C97.8185 100.711 97.9163 100.671 98.0182 100.671C98.1202 100.671 98.2179 100.711 98.29 100.783C98.3621 100.856 98.4026 100.953 98.4026 101.055V106.314C98.4026 106.416 98.3621 106.514 98.29 106.586C98.2179 106.658 98.1202 106.699 98.0182 106.699Z" fill="#62EAFD"/>
<path d="M72.9145 92.2977C72.8125 92.3058 72.7115 92.2732 72.6336 92.2068C72.5557 92.1405 72.5074 92.046 72.4993 91.944C72.4911 91.842 72.5238 91.741 72.5901 91.6632C72.6565 91.5853 72.751 91.537 72.8529 91.5288L79.1883 90.4755C79.2378 90.4667 79.2886 90.468 79.3377 90.4792C79.3868 90.4903 79.4331 90.5112 79.4739 90.5406C79.5148 90.57 79.5493 90.6073 79.5756 90.6502C79.6018 90.6932 79.6191 90.741 79.6265 90.7907C79.6364 90.8404 79.636 90.8916 79.6253 90.941C79.6146 90.9905 79.5938 91.0373 79.5642 91.0784C79.5347 91.1195 79.4969 91.1541 79.4534 91.18C79.4099 91.2059 79.3615 91.2226 79.3113 91.229L72.976 92.2977H72.9145Z" fill="#62EAFD"/>
<path d="M71.8918 88.046C71.8 88.0456 71.7113 88.0131 71.6411 87.9541C71.5709 87.8951 71.5235 87.8133 71.5073 87.7231C71.4997 87.6731 71.502 87.6221 71.5141 87.573C71.5262 87.5239 71.5479 87.4776 71.5779 87.4369C71.6079 87.3962 71.6456 87.3618 71.6889 87.3357C71.7322 87.3096 71.7803 87.2923 71.8303 87.2848L78.75 86.1238C78.8507 86.1081 78.9536 86.1322 79.0368 86.1911C79.1201 86.2499 79.1771 86.3389 79.1959 86.4391C79.2116 86.5398 79.1875 86.6427 79.1287 86.7259C79.0698 86.8092 78.9809 86.8662 78.8806 86.885L71.961 88.0383L71.8918 88.046Z" fill="#62EAFD"/>
<path d="M51.0491 108.79C50.9579 108.79 50.8694 108.758 50.8001 108.699C50.7308 108.639 50.6854 108.557 50.6724 108.467C50.6624 108.418 50.6626 108.367 50.6729 108.318C50.6831 108.269 50.7032 108.222 50.732 108.181C50.7608 108.14 50.7976 108.106 50.8402 108.079C50.8828 108.053 50.9304 108.036 50.9799 108.028C66.58 105.276 74.2531 95.3269 74.3223 95.227C74.3847 95.1471 74.4756 95.0944 74.5759 95.0801C74.6763 95.0658 74.7783 95.0909 74.8605 95.1501C74.9421 95.2113 74.996 95.3023 75.0104 95.4033C75.0249 95.5042 74.9986 95.6067 74.9374 95.6883C74.8605 95.7959 67.0105 105.983 51.1029 108.759L51.0491 108.79Z" fill="#62EAFD"/>
<path d="M64.7803 31.0199C65.1186 33.6724 63.8731 36.0098 62.0048 36.2481C60.1365 36.4864 58.3373 34.5412 57.999 31.8887C57.6607 29.2362 58.8986 26.9065 60.7746 26.6605C62.6506 26.4145 64.442 28.375 64.7803 31.0199Z" fill="url(#paint2_linear_7489_45216)"/>
<path d="M60.774 26.6611L59.4746 26.9225L60.7048 36.5101L61.9964 36.2487L63.4111 34.7264L63.8263 29.4136L60.774 26.6611Z" fill="url(#paint3_linear_7489_45216)"/>
<path d="M63.4813 31.2816C63.8195 33.9342 62.5817 36.2715 60.7057 36.5098C58.8297 36.7482 57.0383 34.803 56.7 32.1504C56.3617 29.4979 57.6072 27.1682 59.4755 26.9222C61.3438 26.6762 63.143 28.6368 63.4813 31.2816Z" fill="#62EAFD"/>
<path d="M58.537 14.79C57.7399 15.7462 57.1202 16.8372 56.7071 18.0115C56.3073 19.5492 58.6446 29.0446 58.6446 29.0446L61.6047 28.368L58.537 14.79Z" fill="#62EAFD"/>
<ellipse cx="75.5" cy="129.5" rx="37.5" ry="7.5" fill="#D9D9D9" fill-opacity="0.5"/>
<defs>
<linearGradient id="paint0_linear_7489_45216" x1="76.105" y1="23.7334" x2="76.105" y2="33.4797" gradientUnits="userSpaceOnUse">
<stop stop-color="#590083"/>
<stop offset="1" stop-color="#865DFF"/>
</linearGradient>
<linearGradient id="paint1_linear_7489_45216" x1="74.5888" y1="34.8721" x2="74.5888" y2="115.134" gradientUnits="userSpaceOnUse">
<stop stop-color="#590083"/>
<stop offset="1" stop-color="#865DFF"/>
</linearGradient>
<linearGradient id="paint2_linear_7489_45216" x1="61.3896" y1="26.6396" x2="61.3896" y2="36.2679" gradientUnits="userSpaceOnUse">
<stop stop-color="#590083"/>
<stop offset="1" stop-color="#865DFF"/>
</linearGradient>
<linearGradient id="paint3_linear_7489_45216" x1="61.6505" y1="26.6611" x2="61.6505" y2="36.5101" gradientUnits="userSpaceOnUse">
<stop stop-color="#590083"/>
<stop offset="1" stop-color="#865DFF"/>
</linearGradient>
</defs>
</svg>
