<svg width="260" height="159" viewBox="0 0 260 159" fill="none" xmlns="http://www.w3.org/2000/svg">
<path d="M67.6142 149.635C60.1551 151.125 50.6295 143.003 47.561 134.131C44.4031 125 50.1932 121.175 50.1492 108.504C50.0985 94.111 42.6021 91.942 37.6431 72.5418C36.5238 68.165 30.0493 42.8346 38.0741 38.0874C45.4931 33.6974 66.3348 46.296 69.9876 62.4213C72.5918 73.9194 64.5404 78.7465 67.6155 92.1392C70.3131 103.889 77.4053 104.06 80.1216 115.397C83.4289 129.198 77.4093 147.68 67.6155 149.636L67.6142 149.635Z" fill="#865DFF"/>
<path d="M67.0723 153.122C69.0828 137.615 65.1605 113.691 61.5157 96.3524C57.5693 77.5797 53.0907 62.2685 53.0466 62.1152L52.4263 62.2978C52.4716 62.4497 56.9436 77.7423 60.8846 96.491C64.5188 113.779 68.4304 137.624 66.4319 153.041L67.0736 153.123L67.0723 153.122Z" fill="#7D97F4"/>
<path d="M59.0242 147.901C68.8086 142.81 72.1573 125.326 66.5966 119.645C62.8384 115.805 57.4499 119.843 52.2495 115.863C45.6109 110.782 50.4951 101.212 45.276 88.801C40.8347 78.2382 30.1804 68.2443 23.9554 70.2947C17.4382 72.4411 14.0069 88.3693 19.5715 97.9541C23.191 104.188 28.7316 104.495 29.9323 110.292C31.3264 117.019 24.5891 120.087 24.5518 126.609C24.4864 138.324 46.0792 154.636 59.0228 147.901H59.0242Z" fill="url(#paint0_linear_14239_199745)"/>
<path d="M53.7433 152.379C53.802 152.379 53.8607 152.366 53.9167 152.339C54.1142 152.243 54.1969 152.005 54.1009 151.808C41.1292 125.114 37.3256 94.1465 37.2882 93.8361C37.2629 93.6176 37.0641 93.4617 36.8453 93.4883C36.6265 93.5136 36.4704 93.7122 36.4971 93.9307C36.5345 94.2411 40.3541 125.342 53.3844 152.155C53.4538 152.297 53.5952 152.379 53.7433 152.379Z" fill="#865DFF"/>
<path d="M27.1311 101.855C27.1724 101.855 27.2138 101.842 27.2485 101.815C27.3312 101.75 27.3459 101.632 27.2818 101.549C23.1874 96.3009 18.6501 88.4148 20.283 80.6552C21.2556 76.0333 23.9946 73.6231 24.0212 73.5992C24.1013 73.5299 24.1093 73.41 24.0413 73.3314C23.9719 73.2514 23.8518 73.2434 23.7731 73.3127C23.657 73.4126 20.9101 75.8322 19.9108 80.578C18.9929 84.94 19.4746 92.16 26.9817 101.783C27.019 101.831 27.075 101.857 27.1324 101.857L27.1311 101.855Z" fill="#E2E6F1"/>
<path d="M59.9059 145.571C59.9673 145.571 60.026 145.542 60.0633 145.488C66.3551 136.318 68.5017 129.231 66.4404 124.427C64.6087 120.155 59.9833 119.36 59.9366 119.352C59.8325 119.336 59.7351 119.405 59.7178 119.509C59.7004 119.613 59.7712 119.71 59.8752 119.728C59.9192 119.734 64.3459 120.502 66.0922 124.58C68.0947 129.257 65.9602 136.219 59.7485 145.273C59.6884 145.359 59.7111 145.478 59.7978 145.538C59.8312 145.56 59.8685 145.571 59.9059 145.571Z" fill="#F0F0F0"/>
<path d="M208.678 149.635C216.138 151.125 225.663 143.003 228.732 134.131C231.89 125 226.099 121.175 226.143 108.504C226.194 94.111 233.691 91.942 238.65 72.5418C239.769 68.165 246.243 42.8346 238.219 38.0874C230.8 33.6974 209.958 46.296 206.305 62.4213C203.701 73.9194 211.752 78.7465 208.677 92.1392C205.98 103.889 198.887 104.06 196.171 115.397C192.864 129.198 198.883 147.68 208.677 149.636L208.678 149.635Z" fill="#865DFF"/>
<path d="M209.219 153.122C207.209 137.615 211.131 113.691 214.776 96.3524C218.722 77.5797 223.201 62.2685 223.245 62.1152L223.865 62.2978C223.82 62.4497 219.348 77.7423 215.407 96.491C211.773 113.779 207.861 137.624 209.86 153.041L209.218 153.123L209.219 153.122Z" fill="#7D97F4"/>
<path d="M217.269 147.901C207.485 142.81 204.136 125.326 209.697 119.645C213.455 115.805 218.843 119.843 224.044 115.863C230.682 110.782 225.798 101.212 231.017 88.801C235.459 78.2382 246.113 68.2443 252.338 70.2947C258.855 72.4411 262.286 88.3693 256.722 97.9541C253.102 104.188 247.562 104.495 246.361 110.292C244.967 117.019 251.704 120.087 251.742 126.609C251.807 138.324 230.214 154.636 217.27 147.901H217.269Z" fill="url(#paint1_linear_14239_199745)"/>
<path d="M222.549 152.379C222.491 152.379 222.432 152.366 222.376 152.339C222.179 152.243 222.096 152.005 222.192 151.808C235.164 125.114 238.967 94.1465 239.005 93.8361C239.03 93.6176 239.229 93.4617 239.447 93.4883C239.666 93.5136 239.822 93.7122 239.796 93.9307C239.758 94.2411 235.939 125.342 222.908 152.155C222.839 152.297 222.698 152.379 222.549 152.379Z" fill="#865DFF"/>
<path d="M249.163 101.855C249.121 101.855 249.08 101.842 249.045 101.815C248.963 101.75 248.948 101.632 249.012 101.549C253.106 96.3009 257.644 88.4148 256.011 80.6552C255.038 76.0333 252.299 73.6231 252.273 73.5992C252.193 73.5299 252.185 73.41 252.253 73.3314C252.322 73.2514 252.442 73.2434 252.521 73.3127C252.637 73.4126 255.384 75.8322 256.383 80.578C257.301 84.94 256.819 92.16 249.312 101.783C249.275 101.831 249.219 101.857 249.161 101.857L249.163 101.855Z" fill="#E2E6F1"/>
<path d="M216.387 145.571C216.326 145.571 216.267 145.542 216.23 145.488C209.938 136.318 207.792 129.231 209.853 124.427C211.685 120.155 216.31 119.36 216.357 119.352C216.461 119.336 216.558 119.405 216.576 119.509C216.593 119.613 216.522 119.71 216.418 119.728C216.374 119.734 211.947 120.502 210.201 124.58C208.199 129.257 210.333 136.219 216.545 145.273C216.605 145.359 216.582 145.478 216.496 145.538C216.462 145.56 216.425 145.571 216.387 145.571Z" fill="#F0F0F0"/>
<path d="M56.8174 58.7432V140.473C56.8174 146.487 62.1072 151.362 68.6324 151.362H206.055C212.58 151.362 217.87 146.487 217.87 140.473V58.7432H56.8174Z" fill="url(#paint2_linear_14239_199745)"/>
<path d="M177.691 34.4075L142.761 13.3006C139.363 11.2475 135.327 11.2475 131.929 13.3006L96.9989 34.4022L56.6523 58.776L96.9989 83.0886L137.345 107.401L177.692 83.062L218.038 58.776L177.692 34.4089L177.691 34.4075Z" fill="url(#paint3_linear_14239_199745)"/>
<g style="mix-blend-mode:soft-light">
<path d="M59.9726 147.83C59.9059 147.83 59.8392 147.806 59.7845 147.758C59.6684 147.654 59.6578 147.476 59.7605 147.36L110.082 90.8191C110.186 90.7031 110.365 90.6925 110.481 90.7951C110.597 90.899 110.608 91.0775 110.505 91.1934L60.1834 147.734C60.1274 147.797 60.05 147.829 59.9726 147.829V147.83Z" fill="white"/>
<path d="M214.713 147.83C214.636 147.83 214.557 147.798 214.503 147.735L164.181 91.1944C164.077 91.0785 164.088 90.9 164.205 90.7961C164.321 90.6921 164.5 90.7028 164.604 90.82L214.926 147.361C215.03 147.477 215.019 147.655 214.902 147.759C214.848 147.807 214.78 147.831 214.713 147.831V147.83Z" fill="white"/>
</g>
<mask id="mask0_14239_199745" style="mask-type:luminance" maskUnits="userSpaceOnUse" x="63" y="0" width="145" height="108">
<path d="M63.5029 62.7771L137.444 107.351L207.168 65.4111V0.479492H69.309L63.5029 62.7771Z" fill="white"/>
</mask>
<g mask="url(#mask0_14239_199745)">
<path d="M187.44 19.1937H74.7093C72.7215 19.1937 71.0752 20.9164 71.0752 22.9016V114.263H203.612V35.5988L187.44 19.1924V19.1937Z" fill="url(#paint4_linear_14239_199745)"/>
<path d="M203.55 35.5989L188.757 35.7268C188.365 35.7308 188.058 35.5775 187.779 35.3017C187.5 35.0246 187.472 34.6489 187.472 34.2585V19.3057L203.548 35.5989H203.55Z" fill="#865DFF"/>
<path d="M166.583 62.1682C166.583 65.603 166.033 68.746 164.935 71.5958C163.837 74.4457 162.285 76.6827 160.278 78.3042C158.271 79.9256 155.943 80.737 153.293 80.737C151.525 80.737 149.961 80.3133 148.599 79.4673C147.238 78.6199 146.259 77.5061 145.661 76.1218H145.088C142.509 79.1982 139.224 80.737 135.235 80.737C131.007 80.737 127.676 79.4673 125.24 76.9265C122.804 74.3858 121.586 70.9097 121.586 66.497C121.586 61.4647 123.185 57.4091 126.386 54.3327C129.586 51.2563 133.766 49.7175 138.925 49.7175C140.98 49.7175 143.243 49.9147 145.715 50.3077C148.187 50.7007 150.223 51.1724 151.822 51.7213L150.998 69.2163C150.998 72.5311 151.905 74.1899 153.721 74.1899C155.25 74.1899 156.468 73.0747 157.375 70.8444C158.282 68.6141 158.736 65.6989 158.736 62.0962C158.736 58.2564 157.935 54.863 156.336 51.9172C154.736 48.9714 152.484 46.7237 149.582 45.1729C146.681 43.622 143.367 42.8479 139.64 42.8479C134.816 42.8479 130.624 43.8378 127.066 45.8177C123.508 47.7976 120.779 50.6541 118.88 54.386C116.982 58.1192 116.032 62.4293 116.032 67.319C116.032 73.9021 117.793 78.953 121.316 82.4704C124.84 85.9891 129.944 87.7478 136.632 87.7478C139.164 87.7478 141.946 87.468 144.98 86.9071C148.013 86.3462 150.998 85.5295 153.936 84.4569V91.3265C148.825 93.4969 143.152 94.5827 136.919 94.5827C127.843 94.5827 120.768 92.1978 115.692 87.4267C110.617 82.6569 108.079 76.0259 108.079 67.5349C108.079 61.6433 109.375 56.2952 111.967 51.4881C114.558 46.6824 118.248 42.9132 123.037 40.1819C127.825 37.4506 133.337 36.085 139.571 36.085C144.825 36.085 149.518 37.1588 153.65 39.3052C157.782 41.4516 160.97 44.5054 163.216 48.4637C165.461 52.4235 166.583 56.9907 166.583 62.1669V62.1682ZM129.897 66.6409C129.897 71.6731 131.952 74.1899 136.06 74.1899C138.209 74.1899 139.845 73.4331 140.968 71.9183C142.09 70.4034 142.772 67.9412 143.01 64.5304L143.476 56.623C142.258 56.3605 140.885 56.23 139.356 56.23C136.371 56.23 134.048 57.1599 132.388 59.0212C130.729 60.8812 129.899 63.4219 129.899 66.6422L129.897 66.6409Z" fill="white"/>
</g>
<path d="M250.254 64.7779L250.324 65.6199V65.6239C250.33 65.7038 250.401 65.7638 250.481 65.7571C250.561 65.7505 250.621 65.6799 250.615 65.5999L250.536 64.7486C250.529 64.6713 250.46 64.614 250.381 64.6206C250.304 64.6273 250.246 64.6953 250.253 64.7725V64.7765L250.254 64.7779Z" fill="url(#paint5_linear_14239_199745)"/>
<path d="M250.4 67.5919L250.396 68.4366V68.4406C250.396 68.5298 250.467 68.6018 250.556 68.6018C250.645 68.6018 250.718 68.5312 250.718 68.4419L250.714 67.5865C250.714 67.4999 250.643 67.4307 250.556 67.4307C250.471 67.4307 250.401 67.4999 250.4 67.5865V67.5905V67.5919Z" fill="url(#paint6_linear_14239_199745)"/>
<path d="M250.301 70.4062L250.225 71.2483V71.2523C250.216 71.3482 250.287 71.4335 250.384 71.4428C250.48 71.4508 250.566 71.3802 250.575 71.2843L250.643 70.4316C250.651 70.337 250.58 70.2557 250.487 70.2477C250.394 70.2397 250.312 70.309 250.303 70.4023V70.4062H250.301Z" fill="url(#paint7_linear_14239_199745)"/>
<path d="M249.967 73.2032L249.821 74.0359V74.0399C249.803 74.1425 249.872 74.2411 249.975 74.2597C250.078 74.2784 250.176 74.2091 250.195 74.1052L250.332 73.2605C250.348 73.1592 250.28 73.0646 250.179 73.0473C250.079 73.0313 249.984 73.0979 249.967 73.1978V73.2018V73.2032Z" fill="url(#paint8_linear_14239_199745)"/>
<path d="M249.405 75.9632L249.195 76.7799V76.7839C249.165 76.8931 249.231 77.0051 249.34 77.033C249.449 77.061 249.56 76.9957 249.589 76.8865V76.8838L249.795 76.0551C249.822 75.9485 249.756 75.8392 249.648 75.8126C249.541 75.786 249.433 75.8512 249.407 75.9565V75.9618L249.405 75.9632Z" fill="url(#paint9_linear_14239_199745)"/>
<path d="M248.628 78.6682L248.355 79.4676V79.4729C248.313 79.5875 248.375 79.7114 248.489 79.75C248.604 79.7887 248.728 79.7287 248.767 79.6142V79.6115L249.036 78.8001C249.074 78.6882 249.012 78.5669 248.9 78.5296C248.788 78.4923 248.668 78.5523 248.63 78.6642V78.6695L248.628 78.6682Z" fill="url(#paint10_linear_14239_199745)"/>
<path d="M247.645 81.3063L247.312 82.083L247.309 82.0884C247.258 82.2069 247.313 82.3442 247.432 82.3948C247.55 82.4454 247.688 82.3908 247.739 82.2722V82.2696L248.069 81.4795C248.119 81.3636 248.063 81.229 247.947 81.1797C247.831 81.1317 247.697 81.185 247.648 81.3009L247.645 81.3063Z" fill="url(#paint11_linear_14239_199745)"/>
<path d="M246.466 83.86L246.075 84.6088L246.072 84.6141C246.01 84.7354 246.056 84.8846 246.178 84.9485C246.299 85.0112 246.448 84.9645 246.513 84.8433V84.8406L246.902 84.0785C246.963 83.9586 246.915 83.8121 246.795 83.7508C246.677 83.6908 246.531 83.7374 246.468 83.8547L246.466 83.86Z" fill="url(#paint12_linear_14239_199745)"/>
<path d="M245.098 86.3195L244.653 87.0363L244.65 87.0416C244.574 87.1642 244.611 87.3268 244.736 87.4027C244.858 87.4786 245.021 87.4413 245.097 87.3174V87.3148L245.543 86.5833C245.616 86.4621 245.577 86.3035 245.456 86.2289C245.335 86.1556 245.177 86.1929 245.102 86.3129L245.1 86.3182L245.098 86.3195Z" fill="url(#paint13_linear_14239_199745)"/>
<path d="M243.553 88.6707L243.056 89.3529L243.052 89.3582C242.961 89.4821 242.989 89.6553 243.113 89.7446C243.237 89.8352 243.411 89.8072 243.5 89.6833V89.6806L243.999 88.9838C244.087 88.8612 244.058 88.6907 243.935 88.6041C243.814 88.5175 243.644 88.5455 243.556 88.6654L243.552 88.6707H243.553Z" fill="url(#paint14_linear_14239_199745)"/>
<path d="M241.838 90.8987L241.291 91.5409L241.287 91.5462C241.183 91.6688 241.198 91.8526 241.32 91.9565C241.443 92.0605 241.627 92.0458 241.731 91.9232V91.9206L242.281 91.2624C242.382 91.1412 242.366 90.96 242.244 90.8587C242.122 90.7574 241.943 90.7734 241.841 90.8933L241.837 90.8987H241.838Z" fill="url(#paint15_linear_14239_199745)"/>
<path d="M239.961 92.9898L239.367 93.5893L239.362 93.5947C239.243 93.7146 239.244 93.9078 239.364 94.0277C239.484 94.1463 239.678 94.1463 239.798 94.025L239.801 94.0223L240.398 93.4068C240.514 93.2869 240.512 93.0964 240.392 92.9805C240.273 92.8659 240.083 92.8672 239.967 92.9845L239.962 92.9898H239.961Z" fill="url(#paint16_linear_14239_199745)"/>
<path d="M237.928 94.9303L237.291 95.4805L237.285 95.4859C237.151 95.6018 237.136 95.8043 237.252 95.9375C237.368 96.0721 237.571 96.0867 237.704 95.9708L237.707 95.9682L238.35 95.4019C238.481 95.286 238.494 95.0862 238.378 94.9556C238.263 94.825 238.065 94.813 237.934 94.9249L237.928 94.9303Z" fill="url(#paint17_linear_14239_199745)"/>
<path d="M235.753 96.7052L235.074 97.2022L235.067 97.2075C234.918 97.3168 234.886 97.526 234.995 97.6752C235.105 97.8244 235.314 97.8564 235.463 97.7471L235.466 97.7445L236.153 97.2315C236.3 97.1223 236.329 96.9144 236.22 96.7692C236.11 96.624 235.905 96.5933 235.76 96.7013L235.753 96.7066V96.7052Z" fill="url(#paint18_linear_14239_199745)"/>
<path d="M233.444 98.2983L232.727 98.7393L232.719 98.7433C232.557 98.8432 232.506 99.0564 232.606 99.2189C232.706 99.3815 232.92 99.4321 233.082 99.3322H233.084L233.812 98.8765C233.973 98.7766 234.022 98.5648 233.921 98.4035C233.821 98.2437 233.611 98.1944 233.451 98.293L233.442 98.297L233.444 98.2983Z" fill="url(#paint19_linear_14239_199745)"/>
<path d="M231.014 99.6969L230.264 100.075L230.256 100.079C230.081 100.167 230.012 100.38 230.1 100.555C230.188 100.729 230.402 100.799 230.576 100.711H230.578L231.342 100.319C231.516 100.231 231.584 100.019 231.494 99.8461C231.406 99.6742 231.195 99.6063 231.023 99.6929L231.015 99.6969H231.014Z" fill="url(#paint20_linear_14239_199745)"/>
<path d="M228.475 100.881L227.694 101.193L227.686 101.197C227.5 101.272 227.409 101.482 227.484 101.667C227.559 101.853 227.77 101.943 227.955 101.869H227.956L228.753 101.545C228.937 101.47 229.025 101.26 228.95 101.076C228.876 100.892 228.668 100.804 228.483 100.877L228.474 100.881H228.475Z" fill="url(#paint21_linear_14239_199745)"/>
<path d="M225.842 101.848L225.037 102.096L225.029 102.099C224.833 102.159 224.724 102.366 224.785 102.561C224.845 102.757 225.053 102.866 225.248 102.805H225.251L226.07 102.546C226.263 102.485 226.371 102.279 226.31 102.085C226.249 101.892 226.043 101.786 225.851 101.844L225.843 101.847L225.842 101.848Z" fill="url(#paint22_linear_14239_199745)"/>
<path d="M223.14 102.6L222.318 102.786H222.31C222.106 102.834 221.978 103.036 222.025 103.24C222.07 103.444 222.273 103.572 222.477 103.526H222.48L223.316 103.332C223.519 103.285 223.644 103.083 223.598 102.882C223.551 102.68 223.35 102.554 223.148 102.6H223.14Z" fill="url(#paint23_linear_14239_199745)"/>
<path d="M220.387 103.144L219.555 103.267H219.547C219.336 103.299 219.189 103.496 219.221 103.706C219.252 103.917 219.449 104.063 219.66 104.033H219.663L220.511 103.902C220.721 103.87 220.865 103.674 220.833 103.464C220.801 103.255 220.606 103.112 220.397 103.143H220.389L220.387 103.144Z" fill="url(#paint24_linear_14239_199745)"/>
<path d="M217.603 103.486L216.763 103.55H216.755C216.538 103.567 216.375 103.756 216.391 103.973C216.407 104.191 216.598 104.353 216.815 104.337H216.818L217.673 104.267C217.889 104.249 218.051 104.06 218.032 103.844C218.015 103.63 217.827 103.469 217.611 103.484H217.603V103.486Z" fill="url(#paint25_linear_14239_199745)"/>
<path d="M214.798 103.628L213.956 103.635H213.948C213.725 103.636 213.547 103.818 213.548 104.041C213.549 104.263 213.732 104.442 213.955 104.441H213.957L214.815 104.429C215.037 104.426 215.214 104.243 215.21 104.022C215.208 103.802 215.026 103.625 214.806 103.628H214.798Z" fill="url(#paint26_linear_14239_199745)"/>
<path d="M211.99 103.588L211.148 103.54H211.14C210.913 103.526 210.718 103.7 210.706 103.926C210.693 104.153 210.868 104.347 211.095 104.359H211.097L211.954 104.403C212.179 104.415 212.371 104.241 212.383 104.015C212.395 103.79 212.222 103.6 211.998 103.586H211.99V103.588Z" fill="url(#paint27_linear_14239_199745)"/>
<path d="M209.189 103.368L208.351 103.27H208.343C208.112 103.242 207.904 103.407 207.877 103.636C207.851 103.867 208.015 104.074 208.246 104.101H208.248L209.101 104.197C209.33 104.222 209.536 104.058 209.562 103.829C209.588 103.601 209.425 103.396 209.197 103.37H209.189V103.368Z" fill="url(#paint28_linear_14239_199745)"/>
<path d="M206.405 102.985L205.574 102.838H205.567C205.335 102.795 205.112 102.951 205.071 103.183C205.03 103.415 205.186 103.637 205.418 103.679H205.421L206.266 103.824C206.499 103.864 206.717 103.708 206.757 103.476C206.797 103.246 206.643 103.027 206.412 102.986H206.405V102.985Z" fill="url(#paint29_linear_14239_199745)"/>
<path d="M203.647 102.442L202.827 102.25H202.82C202.585 102.194 202.35 102.34 202.296 102.574C202.241 102.809 202.386 103.043 202.621 103.098H202.624L203.459 103.288C203.693 103.341 203.925 103.195 203.978 102.962C204.031 102.73 203.886 102.498 203.654 102.443H203.647V102.442Z" fill="url(#paint30_linear_14239_199745)"/>
<path d="M200.922 101.752L200.11 101.518H200.104C199.868 101.447 199.622 101.583 199.553 101.819C199.485 102.055 199.619 102.3 199.856 102.369H199.858L200.684 102.604C200.919 102.67 201.163 102.534 201.23 102.3C201.296 102.067 201.16 101.823 200.928 101.756H200.922V101.752Z" fill="url(#paint31_linear_14239_199745)"/>
<path d="M198.233 100.921L197.436 100.646L197.429 100.643C197.193 100.562 196.935 100.687 196.854 100.923C196.773 101.159 196.898 101.416 197.134 101.497H197.137L197.949 101.773C198.184 101.853 198.44 101.726 198.52 101.492C198.6 101.257 198.475 101.003 198.241 100.923L198.235 100.92L198.233 100.921Z" fill="url(#paint32_linear_14239_199745)"/>
<path d="M195.591 99.9597L194.808 99.6452L194.802 99.6426C194.566 99.548 194.297 99.6625 194.203 99.8984C194.108 100.134 194.223 100.402 194.459 100.497H194.461L195.259 100.812C195.494 100.906 195.761 100.79 195.854 100.555C195.946 100.321 195.833 100.057 195.598 99.9623L195.591 99.9597Z" fill="url(#paint33_linear_14239_199745)"/>
<path d="M192.998 98.8704L192.231 98.52L192.225 98.5173C191.99 98.4094 191.711 98.5133 191.603 98.7478C191.495 98.9836 191.599 99.2607 191.834 99.3687H191.836L192.618 99.7217C192.853 99.827 193.129 99.7217 193.234 99.4886C193.34 99.2554 193.237 98.9809 193.004 98.8744L192.997 98.8717L192.998 98.8704Z" fill="url(#paint34_linear_14239_199745)"/>
<path d="M190.459 97.6577L189.708 97.2714L189.702 97.2687C189.468 97.1488 189.181 97.2394 189.059 97.4739C188.939 97.7084 189.03 97.9948 189.265 98.1161H189.267L190.033 98.5065C190.267 98.625 190.552 98.5318 190.671 98.2986C190.79 98.0654 190.698 97.7817 190.465 97.6631L190.459 97.6604V97.6577Z" fill="url(#paint35_linear_14239_199745)"/>
<path d="M187.978 96.3324L187.245 95.914L187.24 95.9113C187.009 95.7808 186.716 95.8607 186.585 96.0899C186.453 96.3204 186.534 96.6135 186.764 96.744L187.507 97.1664C187.738 97.297 188.03 97.217 188.16 96.9865C188.291 96.756 188.211 96.4643 187.98 96.3337L187.976 96.331L187.978 96.3324Z" fill="url(#paint36_linear_14239_199745)"/>
<path d="M185.553 94.905L184.835 94.4587L184.831 94.456C184.604 94.3148 184.307 94.3841 184.165 94.6106C184.024 94.8371 184.093 95.1342 184.32 95.2754L185.047 95.7271C185.274 95.867 185.57 95.7977 185.711 95.5725C185.851 95.346 185.782 95.0503 185.557 94.909L185.553 94.9064V94.905Z" fill="url(#paint37_linear_14239_199745)"/>
<path d="M183.181 93.3863L182.481 92.9133L182.477 92.9107C182.254 92.7601 181.953 92.8187 181.803 93.0412C181.653 93.2637 181.711 93.5648 181.934 93.7141L182.644 94.191C182.867 94.3403 183.167 94.2816 183.316 94.0591C183.466 93.8366 183.407 93.5369 183.184 93.3876L183.18 93.385L183.181 93.3863Z" fill="url(#paint38_linear_14239_199745)"/>
<path d="M180.864 91.7837L180.18 91.2881L180.176 91.2854C179.957 91.1269 179.651 91.1762 179.494 91.3934C179.337 91.6105 179.385 91.917 179.602 92.0742L180.296 92.5751C180.515 92.7324 180.819 92.6831 180.976 92.4659C181.134 92.2474 181.084 91.9436 180.867 91.7864L180.864 91.7837Z" fill="url(#paint39_linear_14239_199745)"/>
<path d="M178.6 90.1044L177.931 89.5875L177.927 89.5848C177.712 89.4196 177.404 89.4582 177.238 89.6727C177.073 89.8872 177.111 90.195 177.326 90.3602L178.004 90.8825C178.219 91.0477 178.527 91.0077 178.691 90.7932C178.857 90.5787 178.817 90.2709 178.602 90.1057L178.599 90.1031L178.6 90.1044Z" fill="url(#paint40_linear_14239_199745)"/>
<path d="M176.387 88.3566L175.732 87.821L175.729 87.8183C175.519 87.6451 175.208 87.6758 175.034 87.8863C174.861 88.0968 174.892 88.4072 175.102 88.5804L175.764 89.1214C175.975 89.2932 176.286 89.2626 176.458 89.0521C176.63 88.8416 176.599 88.5311 176.388 88.3593H176.386L176.387 88.3566Z" fill="url(#paint41_linear_14239_199745)"/>
<path d="M174.222 86.549L173.581 85.9961L173.579 85.9934C173.371 85.8149 173.057 85.8375 172.878 86.0441C172.7 86.2519 172.722 86.565 172.929 86.7435L173.576 87.3005C173.784 87.479 174.096 87.455 174.275 87.2485C174.454 87.0407 174.43 86.7289 174.223 86.5503H174.22L174.222 86.549Z" fill="url(#paint42_linear_14239_199745)"/>
<path d="M172.099 84.6887L171.471 84.1211L171.468 84.1184C171.264 83.9332 170.948 83.9492 170.763 84.1531C170.577 84.3569 170.593 84.6727 170.797 84.8579L171.431 85.4295C171.635 85.6133 171.951 85.5973 172.135 85.3935C172.32 85.1896 172.304 84.8739 172.099 84.69H172.098L172.099 84.6887Z" fill="url(#paint43_linear_14239_199745)"/>
<path d="M170.018 82.7821L169.401 82.2026H169.399C169.197 82.0107 168.88 82.02 168.689 82.2225C168.499 82.4237 168.509 82.7408 168.71 82.9313L169.332 83.5149C169.533 83.7041 169.851 83.6934 170.04 83.4923C170.23 83.2911 170.219 82.974 170.018 82.7848H170.016L170.018 82.7821Z" fill="url(#paint44_linear_14239_199745)"/>
<path d="M167.974 80.8338L167.367 80.2422H167.366C167.165 80.0464 166.847 80.0504 166.652 80.2489C166.457 80.4488 166.461 80.7672 166.661 80.9617L167.273 81.5559C167.474 81.7491 167.792 81.7451 167.986 81.5453C168.179 81.3454 168.175 81.027 167.975 80.8338H167.974Z" fill="url(#paint45_linear_14239_199745)"/>
<path d="M165.961 78.8522L165.362 78.2513H165.361C165.163 78.0515 164.842 78.0501 164.643 78.2486C164.444 78.4458 164.444 78.7669 164.642 78.9654L165.245 79.569C165.442 79.7662 165.764 79.7675 165.961 79.569C166.158 79.3718 166.158 79.0507 165.961 78.8535V78.8522Z" fill="url(#paint46_linear_14239_199745)"/>
<path d="M163.973 76.8395L163.381 76.2307C163.185 76.0281 162.862 76.0228 162.659 76.2187C162.456 76.4145 162.452 76.7369 162.648 76.9395L163.243 77.551C163.439 77.7522 163.762 77.7562 163.964 77.5603C164.165 77.3645 164.169 77.042 163.973 76.8409V76.8395Z" fill="url(#paint47_linear_14239_199745)"/>
<path d="M162.009 74.803L161.422 74.1874C161.228 73.9822 160.903 73.9729 160.698 74.1674C160.492 74.362 160.483 74.6857 160.678 74.8909H160.679L161.269 75.5091C161.464 75.713 161.788 75.7209 161.993 75.5251C162.197 75.3292 162.205 75.0055 162.009 74.8016V74.803Z" fill="url(#paint48_linear_14239_199745)"/>
<path d="M160.061 72.7485L159.48 72.129C159.285 71.9211 158.959 71.9105 158.751 72.105C158.543 72.2995 158.532 72.6246 158.727 72.8325L159.312 73.4533C159.506 73.6598 159.832 73.6692 160.039 73.4746C160.245 73.2801 160.255 72.955 160.06 72.7485H160.061Z" fill="url(#paint49_linear_14239_199745)"/>
<path d="M158.126 70.6815L157.547 70.0593C157.352 69.8502 157.024 69.8368 156.814 70.0313C156.605 70.2259 156.592 70.5536 156.786 70.7628L157.367 71.385C157.562 71.5942 157.888 71.6048 158.098 71.4103C158.307 71.2158 158.318 70.8894 158.123 70.6802L158.126 70.6815Z" fill="url(#paint50_linear_14239_199745)"/>
<path d="M156.198 68.6048L155.619 67.9812C155.424 67.7707 155.093 67.7574 154.882 67.9532C154.672 68.1491 154.658 68.4782 154.854 68.6887L155.435 69.3122C155.631 69.5227 155.959 69.5347 156.17 69.3389C156.381 69.143 156.393 68.8153 156.198 68.6048Z" fill="url(#paint51_linear_14239_199745)"/>
<path d="M154.271 66.5261L153.692 65.9026C153.496 65.6907 153.164 65.6788 152.952 65.8746C152.74 66.0705 152.728 66.4022 152.924 66.6141L153.503 67.2363C153.699 67.4481 154.03 67.4601 154.242 67.2629C154.454 67.0671 154.466 66.7366 154.27 66.5248L154.271 66.5261Z" fill="url(#paint52_linear_14239_199745)"/>
<path d="M152.34 64.4498L151.759 63.829C151.56 63.6171 151.228 63.6051 151.015 63.8037C150.803 64.0022 150.791 64.3339 150.989 64.5471L151.571 65.168C151.77 65.3798 152.102 65.3905 152.314 65.1933C152.526 64.9961 152.537 64.663 152.34 64.4512V64.4498Z" fill="url(#paint53_linear_14239_199745)"/>
<path d="M150.399 62.3811L149.813 61.7629C149.613 61.5511 149.278 61.5417 149.064 61.7416C148.852 61.9414 148.843 62.2759 149.043 62.489H149.044L149.629 63.1059C149.829 63.3178 150.164 63.3271 150.376 63.1272C150.588 62.9274 150.597 62.593 150.397 62.3811H150.399Z" fill="url(#paint54_linear_14239_199745)"/>
<path d="M148.442 60.326L147.851 59.7131C147.647 59.5013 147.311 59.4946 147.099 59.6985C146.886 59.9023 146.88 60.2381 147.084 60.4499V60.4512L147.674 61.0614C147.878 61.2733 148.214 61.28 148.425 61.0761C148.635 60.8723 148.642 60.5378 148.439 60.3273L148.442 60.326Z" fill="url(#paint55_linear_14239_199745)"/>
<path d="M146.466 58.2897L145.868 57.6822C145.661 57.4717 145.322 57.469 145.112 57.6755C144.901 57.882 144.898 58.2205 145.105 58.431L145.106 58.4336L145.703 59.0372H145.704C145.911 59.2477 146.248 59.2504 146.459 59.0439C146.669 58.8373 146.671 58.5003 146.464 58.2911L146.466 58.2897Z" fill="url(#paint56_linear_14239_199745)"/>
<path d="M144.464 56.273L143.857 55.6734C143.646 55.4656 143.306 55.4669 143.098 55.6774C142.89 55.888 142.891 56.2277 143.102 56.4355L143.103 56.4382L143.708 57.0324H143.709C143.92 57.2416 144.26 57.2389 144.468 57.0284C144.676 56.8179 144.675 56.4795 144.463 56.2717L144.464 56.273Z" fill="url(#paint57_linear_14239_199745)"/>
<path d="M142.431 54.2868L141.815 53.6979C141.6 53.4914 141.257 53.4993 141.052 53.7139C140.845 53.9284 140.853 54.2708 141.068 54.476L141.07 54.4786L141.684 55.0635H141.687C141.901 55.27 142.243 55.262 142.448 55.0475C142.654 54.833 142.647 54.4919 142.431 54.2868Z" fill="url(#paint58_linear_14239_199745)"/>
<path d="M140.362 52.3373L139.732 51.7591C139.513 51.5579 139.173 51.5725 138.972 51.791C138.77 52.0095 138.785 52.3493 139.004 52.5505H139.005L139.629 53.1261L139.632 53.1287C139.851 53.3299 140.192 53.3166 140.394 53.0981C140.595 52.8796 140.582 52.5385 140.363 52.3373H140.362Z" fill="url(#paint59_linear_14239_199745)"/>
<path d="M138.25 50.4294L137.608 49.8658C137.385 49.67 137.046 49.6926 136.851 49.9151C136.655 50.1376 136.678 50.476 136.901 50.6706H136.903L137.538 51.2315L137.541 51.2341C137.764 51.43 138.103 51.4087 138.299 51.1862C138.495 50.9637 138.474 50.6252 138.251 50.4294H138.25Z" fill="url(#paint60_linear_14239_199745)"/>
<path d="M136.094 48.5693L135.439 48.0217C135.212 47.8325 134.876 47.8631 134.686 48.0883C134.497 48.3148 134.528 48.6505 134.753 48.8397L134.756 48.8424L135.404 49.386L135.407 49.3887C135.634 49.5778 135.97 49.5485 136.161 49.322C136.35 49.0955 136.321 48.7598 136.095 48.5693H136.094Z" fill="url(#paint61_linear_14239_199745)"/>
<path d="M133.893 46.7648L133.223 46.2358C132.992 46.0533 132.657 46.0932 132.476 46.3224C132.293 46.5529 132.333 46.8873 132.562 47.0685L132.565 47.0712L133.227 47.5961L133.231 47.5988C133.462 47.7813 133.796 47.7427 133.979 47.5122C134.162 47.2817 134.123 46.9473 133.893 46.7648Z" fill="url(#paint62_linear_14239_199745)"/>
<path d="M131.639 45.0207L130.953 44.5117C130.719 44.3372 130.386 44.3865 130.212 44.621C130.037 44.8555 130.086 45.1872 130.321 45.3617L130.325 45.3644L131.003 45.868L131.007 45.8707C131.242 46.0452 131.574 45.9973 131.75 45.7628C131.925 45.5283 131.877 45.1965 131.642 45.0207H131.639Z" fill="url(#paint63_linear_14239_199745)"/>
<path d="M129.332 43.3476L128.629 42.86C128.391 42.6935 128.061 42.7534 127.894 42.9919C127.728 43.2317 127.788 43.5595 128.026 43.726L128.03 43.7287L128.724 44.211L128.728 44.2137C128.968 44.3802 129.296 44.3216 129.463 44.0818C129.63 43.8419 129.571 43.5142 129.331 43.3476H129.332Z" fill="url(#paint64_linear_14239_199745)"/>
<path d="M126.97 41.7525L126.249 41.2888C126.005 41.1316 125.68 41.2022 125.522 41.4461C125.365 41.6899 125.436 42.015 125.68 42.1722L125.684 42.1748L126.394 42.6318L126.399 42.6345C126.643 42.7917 126.969 42.7211 127.127 42.4773C127.285 42.2335 127.215 41.9084 126.97 41.7498V41.7525Z" fill="url(#paint65_linear_14239_199745)"/>
<path d="M124.548 40.2396L123.812 39.8039C123.562 39.656 123.242 39.7386 123.094 39.9878C122.947 40.2369 123.029 40.5567 123.278 40.7046L123.282 40.7072L124.008 41.1376L124.013 41.1402C124.263 41.2881 124.584 41.2055 124.732 40.9577C124.88 40.7086 124.798 40.3875 124.549 40.2396H124.548Z" fill="url(#paint66_linear_14239_199745)"/>
<path d="M122.074 38.8196L121.321 38.4119C121.068 38.2747 120.752 38.3679 120.614 38.6211C120.477 38.8742 120.57 39.19 120.824 39.3272L120.828 39.3299L121.569 39.7336L121.575 39.7363C121.828 39.8748 122.146 39.7816 122.283 39.5284C122.422 39.2753 122.328 38.9582 122.075 38.8209L122.074 38.8196Z" fill="url(#paint67_linear_14239_199745)"/>
<path d="M119.548 37.4912L118.781 37.1101C118.524 36.9822 118.213 37.0875 118.085 37.3433C117.957 37.6004 118.062 37.9109 118.318 38.0388L118.322 38.0414L119.079 38.4185L119.084 38.4212C119.342 38.5491 119.654 38.4451 119.782 38.188C119.91 37.9309 119.806 37.6191 119.548 37.4912Z" fill="url(#paint68_linear_14239_199745)"/>
<path d="M116.978 36.2545L116.197 35.9015C115.937 35.7842 115.63 35.8988 115.513 36.1586C115.395 36.4184 115.51 36.7248 115.77 36.8421H115.774L116.543 37.1938L116.548 37.1965C116.808 37.3151 117.116 37.1991 117.234 36.9393C117.353 36.6795 117.237 36.3718 116.976 36.2545H116.978Z" fill="url(#paint69_linear_14239_199745)"/>
<path d="M114.364 35.1119L113.572 34.7868C113.309 34.6789 113.007 34.8041 112.899 35.0679C112.791 35.3304 112.916 35.6315 113.181 35.7394H113.185L113.966 36.0632L113.972 36.0658C114.236 36.1737 114.537 36.0485 114.645 35.786C114.754 35.5236 114.628 35.2211 114.365 35.1132L114.364 35.1119Z" fill="url(#paint70_linear_14239_199745)"/>
<path d="M111.71 34.0642L110.907 33.7685C110.642 33.6699 110.345 33.8058 110.248 34.0722C110.149 34.3374 110.285 34.6331 110.552 34.7304H110.556L111.349 35.0262H111.354C111.619 35.1261 111.916 34.9916 112.014 34.7251C112.113 34.4586 111.977 34.1642 111.712 34.0656L111.71 34.0642Z" fill="url(#paint71_linear_14239_199745)"/>
<path d="M109.022 33.1089L108.208 32.8411C107.94 32.7532 107.65 32.8984 107.562 33.1662C107.474 33.434 107.62 33.7231 107.888 33.811H107.892L108.694 34.0775H108.699C108.967 34.1681 109.257 34.0229 109.346 33.7551C109.435 33.4873 109.29 33.1982 109.021 33.1089H109.022Z" fill="url(#paint72_linear_14239_199745)"/>
<path d="M106.301 32.2502L105.479 32.0117C105.209 31.9331 104.926 32.0876 104.848 32.3581C104.769 32.6272 104.924 32.9097 105.195 32.9883H105.199L106.01 33.2268H106.015C106.286 33.3067 106.569 33.1522 106.647 32.883C106.726 32.6126 106.571 32.3301 106.302 32.2515L106.301 32.2502Z" fill="url(#paint73_linear_14239_199745)"/>
<path d="M103.551 31.4876L102.721 31.2771C102.449 31.2091 102.174 31.373 102.105 31.6435C102.035 31.9153 102.201 32.1897 102.472 32.259H102.476L103.295 32.4682H103.3C103.572 32.5388 103.848 32.3749 103.918 32.1031C103.987 31.8313 103.823 31.5555 103.551 31.4863V31.4876Z" fill="url(#paint74_linear_14239_199745)"/>
<path d="M100.775 30.8215L99.9389 30.6403C99.6668 30.5817 99.3973 30.7549 99.3386 31.0267C99.2799 31.2985 99.4533 31.5676 99.7255 31.6262H99.7295L100.555 31.8074H100.561C100.834 31.8674 101.102 31.6955 101.162 31.4224C101.222 31.1493 101.049 30.8815 100.775 30.8215Z" fill="url(#paint75_linear_14239_199745)"/>
<path d="M97.9791 30.2547L97.1359 30.1028C96.8624 30.0535 96.6009 30.236 96.5516 30.5078C96.5022 30.7809 96.6836 31.0421 96.9571 31.0914H96.9611L97.7936 31.2433H97.799C98.0725 31.2939 98.3353 31.1127 98.3846 30.8396C98.434 30.5664 98.2526 30.304 97.9791 30.2547Z" fill="url(#paint76_linear_14239_199745)"/>
<path d="M95.1643 29.7854L94.3171 29.6642C94.0436 29.6255 93.7888 29.8147 93.7501 30.0879C93.7114 30.361 93.9009 30.6155 94.1744 30.6541H94.1784L95.0149 30.7754H95.0202C95.295 30.8153 95.5485 30.6261 95.5885 30.3517C95.6286 30.0785 95.4378 29.8241 95.1643 29.7841V29.7854Z" fill="url(#paint77_linear_14239_199745)"/>
<path d="M92.3358 29.4151L91.4847 29.3232C91.2112 29.2939 90.9644 29.4911 90.935 29.7655C90.9057 30.0387 91.1031 30.2851 91.3779 30.3145H91.382L92.2225 30.4064H92.2278C92.5026 30.437 92.7481 30.2385 92.7788 29.9654C92.8081 29.6909 92.6107 29.4458 92.3358 29.4151Z" fill="url(#paint78_linear_14239_199745)"/>
<path d="M89.4946 29.1447L88.6407 29.0834C88.3672 29.0634 88.1297 29.2686 88.1097 29.543C88.0897 29.8162 88.2965 30.0533 88.57 30.0733H88.574L89.4172 30.1359H89.4225C89.696 30.1559 89.9348 29.9507 89.9548 29.6776C89.9748 29.4045 89.7694 29.166 89.4946 29.146V29.1447Z" fill="url(#paint79_linear_14239_199745)"/>
<path d="M86.6466 28.9753L85.7914 28.9446C85.5179 28.9353 85.2884 29.1471 85.2791 29.4203C85.2698 29.6934 85.4819 29.9226 85.7554 29.9319H85.7594L86.6039 29.9639H86.6092C86.8827 29.9745 87.1122 29.7614 87.1229 29.4882C87.1335 29.2151 86.9201 28.9859 86.6466 28.9753Z" fill="url(#paint80_linear_14239_199745)"/>
<path d="M83.7956 28.9072H82.9391C82.6669 28.9072 82.4468 29.1271 82.4468 29.3989C82.4468 29.6707 82.6669 29.8905 82.9391 29.8918H83.7889L83.7942 29.8932C84.0664 29.8932 84.2879 29.6733 84.2879 29.4015C84.2879 29.1297 84.0677 28.9086 83.7956 28.9086V28.9072Z" fill="url(#paint81_linear_14239_199745)"/>
<path d="M80.9411 28.9417L80.086 28.9723C79.8151 28.9817 79.603 29.2095 79.6137 29.48C79.623 29.7504 79.8511 29.9623 80.122 29.9516H80.126L80.9705 29.9223H80.9758C81.2466 29.913 81.4588 29.6865 81.4494 29.4147C81.4401 29.1442 81.2133 28.9324 80.9411 28.9417Z" fill="url(#paint82_linear_14239_199745)"/>
<path d="M78.0925 29.0783L77.2386 29.1396C76.9691 29.1596 76.7677 29.3928 76.7864 29.6619C76.8064 29.931 77.0398 30.1322 77.3093 30.1136H77.3147L78.1578 30.0536H78.1632C78.4327 30.0336 78.6355 29.8005 78.6168 29.5313C78.5981 29.2622 78.3633 29.0597 78.0938 29.0783H78.0925Z" fill="url(#paint83_linear_14239_199745)"/>
<path d="M75.2499 29.3213L74.3987 29.4145C74.1319 29.4439 73.9384 29.6837 73.9678 29.9501C73.9971 30.2166 74.2373 30.4098 74.5041 30.3805H74.5081L75.3486 30.2899H75.3539C75.6208 30.2606 75.8142 30.0208 75.7862 29.753C75.7568 29.4865 75.5167 29.292 75.2499 29.3213Z" fill="url(#paint84_linear_14239_199745)"/>
<path d="M72.4176 29.6686L71.5704 29.7925C71.3063 29.8311 71.1222 30.0776 71.1622 30.3414C71.2009 30.6052 71.4477 30.7891 71.7119 30.7491H71.7172L72.5537 30.6266H72.559C72.8245 30.5866 73.0073 30.3414 72.9686 30.0763C72.9299 29.8112 72.6844 29.6286 72.4189 29.6673L72.4176 29.6686Z" fill="url(#paint85_linear_14239_199745)"/>
<path d="M69.6002 30.1207L68.7584 30.2792C68.4969 30.3285 68.3248 30.5803 68.3742 30.8415C68.4235 31.1026 68.6757 31.2745 68.9372 31.2252H68.9425L69.7723 31.0693H69.779C70.0418 31.0187 70.2139 30.7669 70.1646 30.5057C70.1152 30.2446 69.863 30.0714 69.6016 30.1207H69.6002Z" fill="url(#paint86_linear_14239_199745)"/>
<path d="M66.8026 30.6923L65.9688 30.8881C65.71 30.9481 65.5499 31.2066 65.6112 31.465C65.6713 31.7235 65.9301 31.8834 66.1889 31.8221H66.1943L67.0161 31.6289H67.0227C67.2816 31.5676 67.4417 31.3092 67.3816 31.0507C67.3216 30.7922 67.0628 30.6323 66.804 30.6923H66.8026Z" fill="url(#paint87_linear_14239_199745)"/>
<path d="M64.0311 31.3893L63.2066 31.6238C62.9532 31.6957 62.8051 31.9595 62.8771 32.214C62.9492 32.4671 63.2133 32.615 63.4681 32.5431H63.4748L64.2859 32.3126H64.2926C64.5474 32.2393 64.6955 31.9742 64.6235 31.7197C64.5514 31.4652 64.2873 31.3173 64.0325 31.3893H64.0311Z" fill="url(#paint88_linear_14239_199745)"/>
<path d="M61.2947 32.2217L60.4823 32.4989C60.2355 32.5828 60.1034 32.8519 60.1874 33.0984C60.2715 33.3449 60.541 33.4768 60.7878 33.3929H60.7931L61.5923 33.1224L61.5989 33.1197C61.8471 33.0358 61.9805 32.768 61.8978 32.5202C61.8137 32.2724 61.5456 32.1391 61.2961 32.2217H61.2947Z" fill="url(#paint89_linear_14239_199745)"/>
<path d="M58.6065 33.195L57.81 33.5161C57.5712 33.612 57.4552 33.8838 57.5526 34.1223C57.6486 34.3608 57.9208 34.4767 58.1596 34.3794L58.1649 34.3768L58.9481 34.065L58.9561 34.0623C59.1962 33.9664 59.3136 33.6946 59.2175 33.4548C59.1215 33.215 58.8493 33.0977 58.6092 33.1936H58.6078L58.6065 33.195Z" fill="url(#paint90_linear_14239_199745)"/>
<path d="M55.9744 34.3191L55.1979 34.6868C54.9685 34.7961 54.8711 35.0692 54.9791 35.2984C55.0885 35.5275 55.362 35.6248 55.5915 35.5169L55.5968 35.5142L56.3586 35.1571L56.3666 35.1531C56.5974 35.0452 56.6975 34.7707 56.5881 34.5389C56.48 34.3084 56.2052 34.2085 55.973 34.3177H55.9717L55.9744 34.3191Z" fill="url(#paint91_linear_14239_199745)"/>
<path d="M53.4144 35.6025L52.6633 36.0195C52.4445 36.1408 52.3658 36.4166 52.4872 36.6364C52.6086 36.8549 52.8848 36.9335 53.1049 36.8123L53.1116 36.8083L53.8494 36.4032L53.8574 36.3992C54.0775 36.278 54.1575 36.0009 54.0375 35.781C53.9161 35.5612 53.6386 35.4813 53.4184 35.6025H53.4171H53.4144Z" fill="url(#paint92_linear_14239_199745)"/>
<path d="M50.9436 37.0537L50.2232 37.5227C50.0164 37.6572 49.9577 37.9344 50.0925 38.1409C50.2272 38.3474 50.5047 38.406 50.7115 38.2714L50.7182 38.2674L51.4252 37.8118L51.4333 37.8064C51.6414 37.6719 51.7014 37.3948 51.5667 37.1856C51.4319 36.9777 51.1544 36.9178 50.945 37.0523H50.9436V37.0537Z" fill="url(#paint93_linear_14239_199745)"/>
<path d="M48.5831 38.6811L47.9001 39.2047C47.7066 39.3526 47.6706 39.6298 47.8187 39.8229C47.9668 40.0161 48.2443 40.0521 48.4377 39.9042L48.4444 39.8989L49.1128 39.3913L49.1208 39.3846C49.3156 39.2367 49.3543 38.9596 49.2062 38.7651C49.0581 38.5705 48.7806 38.5319 48.5858 38.6798H48.5845L48.5831 38.6811Z" fill="url(#paint94_linear_14239_199745)"/>
<path d="M46.3553 40.4872L45.7162 41.0641C45.5388 41.2254 45.5241 41.4998 45.6855 41.6783C45.847 41.8555 46.1218 41.8702 46.3006 41.709L46.3072 41.7023L46.9316 41.1427L46.9396 41.1348C47.1197 40.9735 47.1344 40.6977 46.973 40.5192C46.8115 40.3393 46.5354 40.3247 46.3566 40.4859H46.3553V40.4872Z" fill="url(#paint95_linear_14239_199745)"/>
<path d="M44.2846 42.4754L43.6976 43.1056C43.5361 43.2788 43.5468 43.5492 43.7202 43.7104C43.8937 43.8717 44.1645 43.861 44.3259 43.6878L44.3326 43.6811L44.9063 43.0696L44.9143 43.0616C45.077 42.8884 45.0677 42.6166 44.8943 42.454C44.7208 42.2915 44.4487 42.3008 44.2859 42.474L44.2846 42.4754Z" fill="url(#paint96_linear_14239_199745)"/>
<path d="M42.3968 44.6399L41.8712 45.3247C41.7297 45.5099 41.7644 45.7737 41.9485 45.9163C42.134 46.0575 42.3995 46.0228 42.5409 45.839L42.5476 45.8296L43.0599 45.1688L43.0679 45.1581C43.212 44.973 43.1773 44.7065 42.9918 44.5639C42.8064 44.4214 42.5396 44.4547 42.3968 44.6399Z" fill="url(#paint97_linear_14239_199745)"/>
<path d="M40.727 46.9814L40.2734 47.7142C40.152 47.91 40.2133 48.1658 40.4081 48.2858C40.6042 48.407 40.8604 48.3457 40.9804 48.1512L40.9858 48.1419L41.4287 47.4331L41.4354 47.4224C41.5581 47.2265 41.4981 46.9694 41.302 46.8468C41.1059 46.7243 40.8484 46.7842 40.7256 46.9801L40.727 46.9814Z" fill="url(#paint98_linear_14239_199745)"/>
<path d="M39.3003 49.4724L38.9201 50.2451C38.82 50.4477 38.9041 50.6928 39.1082 50.7927C39.311 50.8927 39.5565 50.8087 39.6565 50.6049L39.6605 50.5956L40.0328 49.8454L40.0381 49.8348C40.1395 49.6309 40.0554 49.3845 39.8513 49.2832C39.6472 49.1819 39.4004 49.2659 39.299 49.4697L39.3003 49.4724Z" fill="url(#paint99_linear_14239_199745)"/>
<path d="M38.1226 52.0903L37.8171 52.895C37.7384 53.1028 37.8438 53.336 38.0519 53.4146C38.26 53.4932 38.4935 53.388 38.5722 53.1801L38.5762 53.1708L38.8764 52.3874L38.8804 52.3767C38.9605 52.1675 38.8564 51.933 38.6469 51.8531C38.4375 51.7732 38.2027 51.8771 38.1226 52.0863V52.0903Z" fill="url(#paint100_linear_14239_199745)"/>
<path d="M37.1931 54.8036L36.9623 55.631C36.9036 55.8428 37.0277 56.0613 37.2385 56.12C37.4506 56.1786 37.6694 56.0547 37.7281 55.8442L37.7308 55.8362L37.9589 55.0301L37.9616 55.0194C38.0216 54.8076 37.8975 54.5878 37.6854 54.5278C37.4733 54.4678 37.2532 54.5918 37.1931 54.8036Z" fill="url(#paint101_linear_14239_199745)"/>
<path d="M36.5109 57.5855L36.3535 58.4316C36.3134 58.6434 36.4549 58.8473 36.667 58.8872C36.8791 58.9259 37.0832 58.786 37.1232 58.5741V58.5661L37.282 57.7414V57.7308C37.3247 57.5176 37.1846 57.3124 36.9712 57.2724C36.7577 57.2325 36.5522 57.3724 36.5122 57.5855H36.5109Z" fill="url(#paint102_linear_14239_199745)"/>
<path d="M36.0733 60.4177L35.9893 61.2731C35.9679 61.4849 36.1227 61.6728 36.3348 61.6928C36.5469 61.7141 36.735 61.5595 36.7551 61.3477V61.3397L36.8418 60.5043V60.495C36.8645 60.2832 36.7097 60.0926 36.4976 60.0713C36.2854 60.05 36.0947 60.2045 36.0733 60.4164V60.4177Z" fill="url(#paint103_linear_14239_199745)"/>
<path d="M35.8787 63.2735L35.8667 64.1329C35.8641 64.3421 36.0308 64.5126 36.2403 64.5166C36.4497 64.5193 36.6218 64.3527 36.6245 64.1435V64.1355L36.6392 63.2962V63.2868C36.6432 63.0763 36.4751 62.9045 36.2656 62.9005C36.0548 62.8965 35.8827 63.0643 35.8787 63.2735Z" fill="url(#paint104_linear_14239_199745)"/>
<path d="M35.9253 66.1366L35.9853 66.9933C36 67.1985 36.1774 67.3531 36.3829 67.3384C36.5883 67.3237 36.7431 67.1465 36.7284 66.9414V66.9334L36.6724 66.0953V66.086C36.6577 65.8795 36.4803 65.7236 36.2735 65.7383C36.0667 65.7516 35.9106 65.9301 35.9253 66.1353V66.1366Z" fill="url(#paint105_linear_14239_199745)"/>
<path d="M36.2108 68.9836L36.3429 69.8323C36.3736 70.0321 36.5617 70.168 36.7605 70.1374C36.9606 70.1067 37.0967 69.9189 37.066 69.719V69.711L36.9393 68.881V68.8716C36.9072 68.6705 36.7205 68.5332 36.519 68.5625C36.3176 68.5932 36.1801 68.7797 36.2108 68.9809V68.9836Z" fill="url(#paint106_linear_14239_199745)"/>
<path d="M36.7366 71.7987L36.9407 72.6328C36.9874 72.8259 37.1835 72.9432 37.3756 72.8966C37.5691 72.8499 37.6865 72.6554 37.6398 72.4622V72.4542L37.441 71.6375L37.4383 71.6282C37.3916 71.4336 37.1969 71.3151 37.0021 71.3617C36.8073 71.4083 36.6886 71.6028 36.7352 71.7974L36.7366 71.7987Z" fill="url(#paint107_linear_14239_199745)"/>
<path d="M37.5022 74.5559L37.7797 75.37C37.8424 75.5552 38.0439 75.6538 38.228 75.5912C38.4134 75.5285 38.5122 75.3273 38.4495 75.1435L38.4468 75.1355L38.18 74.3387L38.1773 74.3294C38.1146 74.1429 37.9131 74.043 37.7277 74.1056C37.5409 74.1682 37.4409 74.3694 37.5036 74.5546L37.5022 74.5559Z" fill="url(#paint108_linear_14239_199745)"/>
<path d="M38.5096 77.2352L38.8578 78.0199C38.9352 78.1945 39.1407 78.2744 39.3168 78.1958C39.4915 78.1185 39.5716 77.9133 39.4929 77.7375L39.4902 77.7295L39.1527 76.962L39.1487 76.9527C39.0713 76.7768 38.8645 76.6956 38.6884 76.7742C38.5123 76.8515 38.4309 77.058 38.5083 77.2338L38.5096 77.2352Z" fill="url(#paint109_linear_14239_199745)"/>
<path d="M39.7564 79.8122L40.178 80.561C40.2701 80.7248 40.4782 80.7835 40.6423 80.6915C40.8064 80.5996 40.8651 80.3917 40.773 80.2279L40.769 80.2212L40.3608 79.4871L40.3555 79.4791C40.2634 79.3139 40.0539 79.2539 39.8885 79.3459C39.7231 79.4378 39.663 79.647 39.7551 79.8122H39.7564Z" fill="url(#paint110_linear_14239_199745)"/>
<path d="M41.2469 82.2581L41.7405 82.9616C41.8446 83.1108 42.0514 83.1468 42.2008 83.0429C42.3489 82.9389 42.3863 82.7351 42.2835 82.5859L42.2782 82.5779L41.8019 81.8864L41.7966 81.8784C41.6925 81.7265 41.4844 81.6892 41.3323 81.7931C41.1802 81.8971 41.1415 82.1049 41.2469 82.2568V82.2594V82.2581Z" fill="url(#paint111_linear_14239_199745)"/>
<path d="M42.9717 84.546L43.5334 85.1962C43.6481 85.3294 43.8495 85.3441 43.983 85.2295C44.1164 85.1149 44.131 84.9151 44.0176 84.7819L44.011 84.7739L43.468 84.1343L43.4613 84.1263C43.3466 83.9904 43.1425 83.9745 43.0064 84.089C42.8703 84.2036 42.8543 84.4075 42.969 84.5434H42.9704L42.9717 84.546Z" fill="url(#paint112_linear_14239_199745)"/>
<path d="M44.9217 86.6451L45.5474 87.2353C45.6715 87.3512 45.8663 87.3459 45.9823 87.2233C46.0984 87.1007 46.0931 86.9075 45.9717 86.7903L45.965 86.7836L45.3566 86.2014L45.35 86.1947C45.2259 86.0762 45.0284 86.0802 44.9097 86.2041C44.791 86.328 44.795 86.5252 44.919 86.6437H44.9204L44.9217 86.6451Z" fill="url(#paint113_linear_14239_199745)"/>
<path d="M47.0739 88.5358L47.7543 89.0594C47.8837 89.1593 48.0704 89.1353 48.1705 89.0061C48.2706 88.8768 48.2465 88.6916 48.1185 88.5917L48.1118 88.5864L47.4487 88.0681L47.4421 88.0628C47.3113 87.9602 47.1232 87.9842 47.0205 88.1147C46.9178 88.2453 46.9418 88.4332 47.0712 88.5358H47.0725H47.0739Z" fill="url(#paint114_linear_14239_199745)"/>
<path d="M49.3998 90.2028L50.1269 90.6584C50.2603 90.7424 50.4364 90.7011 50.5205 90.5678C50.6032 90.4346 50.5645 90.2601 50.4324 90.1761L50.4257 90.1721L49.716 89.7191L49.7093 89.7151C49.5746 89.6299 49.3958 89.6685 49.3104 89.8031C49.225 89.9376 49.2637 90.1162 49.3985 90.2015H49.3998V90.2028Z" fill="url(#paint115_linear_14239_199745)"/>
<path d="M51.8725 91.6408L52.6382 92.0272C52.773 92.0951 52.9384 92.0405 53.0065 91.9059C53.0745 91.7714 53.0211 91.6075 52.8864 91.5382L52.8797 91.5342L52.1299 91.1492L52.1233 91.1452C51.9872 91.0746 51.8191 91.1292 51.7497 91.2651C51.679 91.401 51.7337 91.5689 51.8698 91.6395H51.8711L51.8725 91.6408Z" fill="url(#paint116_linear_14239_199745)"/>
<path d="M54.4662 92.8452L55.2627 93.161C55.3974 93.2143 55.5509 93.149 55.6042 93.0131C55.6576 92.8785 55.5922 92.7266 55.4588 92.672L55.4521 92.6693L54.6717 92.3536L54.665 92.3509C54.5289 92.2949 54.3728 92.3616 54.3181 92.4975C54.2634 92.6334 54.3288 92.7892 54.4649 92.8439H54.4662V92.8452Z" fill="#EEEEEE"/>
<path d="M57.1516 93.8127L57.9735 94.0579C58.1069 94.0979 58.2469 94.0219 58.287 93.8887C58.327 93.7555 58.2523 93.6169 58.1189 93.5756H58.1122L57.3051 93.3265H57.2984C57.1636 93.2838 57.0209 93.3584 56.9795 93.493C56.9382 93.6276 57.0142 93.7701 57.149 93.8114H57.1503L57.1516 93.8127Z" fill="url(#paint117_linear_14239_199745)"/>
<path d="M59.913 94.5479L60.7522 94.7224C60.8829 94.7491 61.0097 94.6665 61.0377 94.5359C61.0644 94.4067 60.9817 94.2788 60.8522 94.2521H60.8456L60.0198 94.0722H60.0131C59.881 94.0429 59.7516 94.1269 59.7222 94.2574C59.6942 94.3893 59.7769 94.5186 59.909 94.5479H59.9104H59.913Z" fill="url(#paint118_linear_14239_199745)"/>
<path d="M62.7237 95.0461L63.5735 95.15C63.7003 95.166 63.8137 95.0754 63.8297 94.9502C63.8443 94.825 63.7563 94.7104 63.6309 94.6944H63.6256L62.7877 94.5851H62.7824C62.6543 94.5678 62.5369 94.6584 62.5209 94.785C62.5049 94.9129 62.5943 95.0301 62.7224 95.0461H62.7237Z" fill="url(#paint119_linear_14239_199745)"/>
<path d="M65.5652 95.3072L66.4204 95.3391C66.5418 95.3431 66.6432 95.2499 66.6472 95.1286C66.6512 95.0087 66.5578 94.9075 66.4391 94.9021H66.4337L65.5892 94.8635H65.5839C65.4612 94.8582 65.3571 94.9528 65.3518 95.0753C65.3464 95.1979 65.4412 95.3018 65.5639 95.3072H65.5652Z" fill="url(#paint120_linear_14239_199745)"/>
<path d="M68.4179 95.3286L69.2731 95.2886C69.3878 95.2833 69.4758 95.186 69.4705 95.0714C69.4652 94.9569 69.3691 94.8689 69.2544 94.8743H69.249L68.4045 94.9076H68.3992C68.2831 94.9129 68.1924 95.0102 68.1964 95.1261C68.2004 95.242 68.2991 95.3326 68.4152 95.3286H68.4166H68.4179Z" fill="url(#paint121_linear_14239_199745)"/>
<path d="M71.2621 95.1087L72.112 94.9954C72.22 94.9808 72.2947 94.8822 72.2801 94.7742C72.2654 94.6677 72.168 94.5917 72.0613 94.605H72.0559L71.2154 94.7116H71.2101C71.1007 94.7263 71.0233 94.8262 71.0367 94.9355C71.05 95.0447 71.1501 95.122 71.2594 95.1087H71.2608H71.2621Z" fill="url(#paint122_linear_14239_199745)"/>
<path d="M74.0786 94.644L74.9138 94.4561C75.0138 94.4335 75.0765 94.3349 75.0538 94.2349C75.0312 94.135 74.9324 94.0737 74.8337 94.095H74.8284L74.0026 94.2749H73.9972C73.8958 94.2976 73.8305 94.3988 73.8531 94.5001C73.8758 94.6013 73.9759 94.6666 74.0773 94.644H74.0786Z" fill="url(#paint123_linear_14239_199745)"/>
<path d="M76.839 93.9297L77.6515 93.6672C77.7435 93.6379 77.7929 93.5393 77.7635 93.4474C77.7342 93.3568 77.6368 93.3062 77.5447 93.3355H77.5394L76.7336 93.5899H76.7283C76.6349 93.6206 76.5828 93.7205 76.6122 93.8138C76.6415 93.907 76.7416 93.959 76.835 93.9297H76.839Z" fill="url(#paint124_linear_14239_199745)"/>
<path d="M79.519 92.9655L80.3048 92.6271C80.3875 92.5912 80.4262 92.4952 80.3902 92.4126C80.3542 92.33 80.2594 92.2927 80.1767 92.3274H80.1727L79.3936 92.6578H79.3896C79.3042 92.6951 79.2655 92.7923 79.3015 92.8776C79.3376 92.9629 79.4349 93.0015 79.5203 92.9655H79.519Z" fill="url(#paint125_linear_14239_199745)"/>
<path d="M82.0968 91.7472L82.8453 91.3329C82.9187 91.2916 82.9454 91.1997 82.904 91.1264C82.864 91.0531 82.7719 91.0264 82.6985 91.0664L82.6945 91.0691L81.9514 91.4728L81.9474 91.4754C81.8714 91.5167 81.8447 91.6113 81.8847 91.686C81.9261 91.7619 82.0208 91.7899 82.0955 91.7486L82.0968 91.7472Z" fill="url(#paint126_linear_14239_199745)"/>
<path d="M84.5378 90.2803L85.0888 89.9005C85.1528 89.8566 85.1688 89.7673 85.1248 89.7034C85.0808 89.6394 84.9927 89.6234 84.9287 89.6674H84.926L84.3777 90.0404H84.375C84.3097 90.0871 84.2923 90.1763 84.3364 90.243C84.3817 90.3082 84.4711 90.3256 84.5365 90.2816L84.5378 90.2803Z" fill="url(#paint127_linear_14239_199745)"/>
<path d="M21.4853 102.03C21.4853 102.03 13.337 102.36 15.1111 104.67C16.3626 106.299 19.3331 105.481 19.3331 105.481C19.3331 105.481 19.9244 117.538 21.7741 118.06C25.336 119.057 25.7692 107.186 21.4853 102.03Z" fill="#FFC094"/>
<path d="M82.4086 85.236C84.0282 84.8221 85.744 85.0255 87.2219 85.8065C88.0208 86.2659 88.7192 86.8811 89.2756 87.6155C89.8319 88.35 90.2349 89.1888 90.4606 90.0821C92.0627 95.5812 90.2268 97.3409 93.6649 99.0937C97.1029 100.847 98.767 99.348 101.373 104.332C103.979 109.315 101.655 116.65 95.0263 115.962C88.3977 115.275 72.225 112.793 72.225 112.793L68.9038 89.6834L76.5157 86.6726L82.4086 85.236Z" fill="#FF1D6E"/>
<path d="M1.95703 111.522C1.95703 111.522 11.3911 121.565 17.9304 120.685C22.1042 120.115 24.1945 110.732 24.1945 110.732L15.3931 106.607L1.95703 111.522Z" fill="#FFC094"/>
<path d="M12.9648 115.865L20.2019 112.305C20.9719 111.926 21.289 110.995 20.9101 110.225L13.5511 95.2749C13.1722 94.5051 12.2408 94.1881 11.4707 94.5669L4.23364 98.1268C3.46356 98.5056 3.14647 99.4367 3.52539 100.207L10.8843 115.157C11.2633 115.927 12.1947 116.244 12.9648 115.865Z" fill="#865DFF"/>
<path d="M68.903 106.538C68.903 106.538 61.8206 107.549 57.2135 115.88C52.6065 124.211 48.7834 147.183 49.4847 147.912C50.1861 148.641 65.4787 150.813 78.1514 150.813C90.8242 150.813 94.8055 150.325 96.0294 149.603C97.2534 148.881 96.9371 109.659 89.9165 106.538C82.896 103.418 76.4324 104.043 68.903 106.538Z" fill="#865DFF"/>
<path d="M14.0668 115.326L21.3039 111.766C22.074 111.387 22.3911 110.456 22.0121 109.686L14.6532 94.7359C14.2743 93.9661 13.3428 93.6491 12.5728 94.0279L5.33569 97.5877C4.56561 97.9665 4.24852 98.8977 4.62744 99.6675L11.9864 114.618C12.3653 115.388 13.2968 115.705 14.0668 115.326Z" fill="#EEE5F3"/>
<path d="M15.4135 111.715C15.5421 111.914 15.7255 112.072 15.9417 112.17C16.1579 112.267 16.3977 112.3 16.6321 112.264C16.8666 112.229 17.0858 112.126 17.2634 111.969C17.441 111.812 17.5694 111.607 17.6331 111.379C17.6968 111.15 17.6933 110.908 17.6227 110.682C17.5522 110.456 17.4178 110.254 17.2356 110.103C17.0534 109.951 16.8313 109.855 16.5959 109.826C16.3604 109.798 16.1218 109.838 15.9085 109.942C15.7593 110.025 15.628 110.138 15.5223 110.272C15.4166 110.407 15.3385 110.561 15.2925 110.726C15.2465 110.89 15.2335 111.063 15.2542 111.232C15.275 111.402 15.3291 111.566 15.4135 111.715Z" fill="#865DFF"/>
<path d="M13.0547 109.522L19.0232 106.401L15.4476 103.225C15.4476 103.225 13.8386 98.001 11.1431 99.5957C8.09699 101.41 12.1745 104.407 12.1745 104.407L10.2423 107.528L12.1745 110.917L13.0547 109.522Z" fill="#FF1D6E"/>
<path d="M4.10253 109.392C4.10253 109.392 -0.504478 110.643 0.0456137 108.072C0.595705 105.502 8.17322 101.364 9.97477 103.405C11.7763 105.447 4.10253 109.392 4.10253 109.392Z" fill="#FFC094"/>
<path d="M6.03459 112.835C6.03459 112.835 1.42758 114.086 1.97079 111.522C2.51401 108.958 10.1053 104.807 11.8999 106.848C13.6946 108.89 6.03459 112.835 6.03459 112.835Z" fill="#FFC094"/>
<path d="M9.79581 114.856C8.9849 115.562 7.99939 116.037 6.94221 116.231C5.99331 116.389 5.05814 116.231 5.10627 115.097C5.19566 112.774 11.1779 108.017 13.0551 109.522C14.4578 110.65 11.4255 113.482 9.79581 114.856Z" fill="#FFC094"/>
<path d="M2.72696 109.357C2.66286 109.355 2.60032 109.337 2.54589 109.303C2.49145 109.269 2.44712 109.221 2.41755 109.164C2.3976 109.124 2.38585 109.08 2.383 109.034C2.38016 108.989 2.38625 108.944 2.40095 108.901C2.41564 108.858 2.43864 108.819 2.46862 108.785C2.49861 108.751 2.53499 108.724 2.57568 108.704L8.49608 105.817C8.53678 105.79 8.58265 105.773 8.63068 105.765C8.6787 105.757 8.72779 105.76 8.77469 105.773C8.8216 105.786 8.86525 105.808 8.90278 105.839C8.94031 105.87 8.97086 105.909 8.99241 105.952C9.01396 105.996 9.02601 106.043 9.02779 106.092C9.02956 106.14 9.021 106.189 9.00269 106.234C8.98438 106.279 8.95672 106.32 8.92154 106.353C8.88637 106.387 8.84449 106.412 8.79864 106.429L2.87824 109.322C2.83049 109.344 2.77913 109.355 2.72696 109.357Z" fill="black"/>
<path d="M5.22364 112.725C5.1457 112.726 5.06996 112.7 5.00884 112.651C4.94773 112.603 4.90487 112.535 4.88728 112.459C4.8697 112.383 4.87844 112.304 4.91207 112.233C4.94569 112.163 5.00221 112.106 5.07236 112.072L10.9927 109.185C11.0334 109.166 11.0775 109.154 11.1227 109.151C11.1678 109.148 11.2131 109.154 11.2558 109.169C11.2986 109.184 11.3381 109.207 11.372 109.237C11.4059 109.267 11.4336 109.303 11.4534 109.343C11.4733 109.384 11.485 109.428 11.4878 109.473C11.4906 109.518 11.4845 109.564 11.4698 109.606C11.4551 109.649 11.4321 109.689 11.4022 109.723C11.3722 109.756 11.3359 109.784 11.2953 109.804L5.37492 112.691C5.32747 112.713 5.27592 112.725 5.22364 112.725Z" fill="black"/>
<path d="M21.4854 102.03C21.4854 102.03 14.6092 101.239 15.1112 104.669C15.4068 106.635 21.4235 106.395 21.4235 106.395L21.4854 102.03Z" fill="#FFC094"/>
<path d="M26.4571 110.189L14.3345 122.417C14.3345 122.417 21.7538 137.1 38.2841 139.238C54.8144 141.375 64.3791 130.9 64.3791 130.9L67.1296 106.944C67.1296 106.944 49.2516 114.973 42.8568 115.805C36.4619 116.636 26.4571 110.189 26.4571 110.189Z" fill="#865DFF"/>
<path d="M67.1362 106.91C67.1362 106.91 56.0175 124.342 53.8171 135.622C52.4655 142.727 51.5902 149.915 51.1973 157.137L91.5259 159L92.3373 124.479L88.0741 106.298L76.2815 104.703L67.1362 106.91Z" fill="url(#paint128_angular_14239_199745)"/>
<path d="M67.1365 106.91C67.1365 106.91 61.4637 127.896 60.2604 135.23C59.5131 139.98 59.031 144.767 58.8164 149.569L51.397 148.463L54.2299 131.278L64.3517 109.282L67.1365 106.91Z" fill="#865DFF"/>
<path d="M62.5084 92.2209C62.5084 92.2209 58.8228 87.5123 58.8228 85.347C58.8228 79.9167 65.9327 75.3525 73.7303 77.0365C81.5278 78.7206 84.1133 87.8904 83.3981 92.0834C81.5485 102.889 72.0043 100.277 72.0043 100.277C72.0043 100.277 57.5025 99.191 62.5084 92.2209Z" fill="#FF1D6E"/>
<path d="M66.2695 103.109L66.3039 103.302L67.1359 106.91L67.7823 109.742C67.7823 109.742 67.6585 110.43 70.9453 109.626C75.3392 108.498 76.4462 106.326 76.4462 106.326L75.4011 99.5967L74.1015 100.105L66.2695 103.109Z" fill="#FFC094"/>
<path d="M66.3042 103.302L67.1362 106.911C69.2541 106.223 73.0222 104.587 74.0124 100.896C74.078 100.642 74.1081 100.381 74.1018 100.119L66.3317 103.24L66.3042 103.302Z" fill="black"/>
<path d="M61.69 86.1372C61.69 86.1372 59.2902 96.3792 61.7657 101.425C64.2411 106.47 68.9375 104.745 71.6467 103.184C73.1927 102.347 74.483 101.107 75.3804 99.5962C76.2536 99.6873 77.1332 99.5005 77.8939 99.0623C78.6545 98.6241 79.2573 97.9569 79.6161 97.1559C80.9914 94.3033 79.3136 91.6156 77.6427 91.2376C75.9718 90.8595 74.3353 92.3099 74.3353 92.3099L75.2773 89.2923C75.2773 89.2923 66.6271 76.4107 61.69 86.1372Z" fill="#FFC094"/>
<path d="M75.5316 96.7169C75.4654 96.7189 75.4004 96.6996 75.346 96.6619C75.2695 96.6126 75.2157 96.535 75.1963 96.4461C75.177 96.3572 75.1937 96.2642 75.2428 96.1876L77.3057 92.9776C77.3296 92.9392 77.3609 92.9059 77.3976 92.8796C77.4344 92.8533 77.4761 92.8345 77.5201 92.8243C77.5642 92.8141 77.6098 92.8127 77.6544 92.8201C77.699 92.8275 77.7417 92.8437 77.7801 92.8676C77.8185 92.8915 77.8518 92.9227 77.8781 92.9595C77.9044 92.9963 77.9232 93.0379 77.9334 93.0819C77.9436 93.126 77.945 93.1716 77.9376 93.2162C77.9302 93.2608 77.9141 93.3035 77.8901 93.3419L75.8273 96.5588C75.7961 96.6087 75.7524 96.6495 75.7005 96.6772C75.6486 96.705 75.5904 96.7187 75.5316 96.7169Z" fill="black"/>
<path d="M76.2816 95.541C76.1932 95.5394 76.1088 95.5045 76.045 95.4434C75.9813 95.3822 75.943 95.2992 75.9378 95.211C75.9359 95.1659 75.943 95.1208 75.9586 95.0784C75.9742 95.036 75.998 94.9971 76.0287 94.9639C76.0593 94.9307 76.0962 94.9039 76.1373 94.8849C76.1783 94.866 76.2227 94.8554 76.2679 94.8536L78.1038 94.778C78.1492 94.7752 78.1946 94.7816 78.2375 94.7968C78.2803 94.8121 78.3196 94.8358 78.353 94.8667C78.3864 94.8975 78.4132 94.9348 78.4319 94.9762C78.4505 95.0177 78.4605 95.0625 78.4614 95.1079C78.4632 95.1531 78.4561 95.1981 78.4405 95.2405C78.4249 95.2829 78.4011 95.3218 78.3705 95.355C78.3398 95.3882 78.3029 95.4151 78.2619 95.434C78.2208 95.4529 78.1765 95.4636 78.1313 95.4654L76.2953 95.541H76.2816Z" fill="black"/>
<path d="M68.9035 90.1099C68.8507 90.1107 68.7984 90.0993 68.7507 90.0767C68.703 90.054 68.6611 90.0207 68.6284 89.9793C68.0577 89.2507 66.9781 89.6906 66.93 89.7043C66.8469 89.739 66.7536 89.7396 66.67 89.7062C66.5865 89.6728 66.5193 89.6079 66.4831 89.5256C66.4649 89.4841 66.455 89.4394 66.4542 89.3941C66.4533 89.3488 66.4614 89.3038 66.478 89.2616C66.4947 89.2194 66.5194 89.181 66.551 89.1484C66.5825 89.1159 66.6202 89.0899 66.6618 89.0719C66.7306 89.0719 68.2777 88.3846 69.1716 89.5531C69.2271 89.6252 69.2517 89.7163 69.2401 89.8065C69.2285 89.8967 69.1816 89.9786 69.1097 90.0343C69.0526 90.0839 68.9791 90.1108 68.9035 90.1099Z" fill="black"/>
<path d="M61.4019 90.3987C61.3245 90.3977 61.2495 90.3711 61.1888 90.3231C61.1524 90.2961 61.1218 90.262 61.0989 90.2229C61.076 90.1839 61.0613 90.1406 61.0555 90.0956C61.0497 90.0507 61.053 90.0051 61.0653 89.9615C61.0776 89.9179 61.0985 89.8772 61.1269 89.8419C61.5053 89.3545 62.0521 89.026 62.6603 88.9208C62.8825 88.9096 63.1044 88.9489 63.3093 89.0359C63.5141 89.1228 63.6966 89.255 63.843 89.4226C63.8752 89.4546 63.9008 89.4926 63.9182 89.5344C63.9357 89.5763 63.9447 89.6212 63.9447 89.6666C63.9447 89.712 63.9357 89.7569 63.9182 89.7988C63.9008 89.8407 63.8752 89.8787 63.843 89.9107C63.7775 89.9741 63.69 90.0095 63.5989 90.0095C63.5077 90.0095 63.4202 89.9741 63.3548 89.9107C63.2783 89.8202 63.1822 89.7483 63.0738 89.7007C62.9653 89.653 62.8474 89.6308 62.729 89.6357C62.3097 89.7283 61.9396 89.9732 61.6907 90.3231C61.6509 90.3557 61.6044 90.3794 61.5546 90.3925C61.5047 90.4055 61.4527 90.4076 61.4019 90.3987Z" fill="black"/>
<path d="M62.5838 94.3721C62.4949 94.3722 62.4095 94.3378 62.3454 94.2763C62.2813 94.2148 62.2435 94.1309 62.24 94.0421L62.1712 92.3855L61.4836 91.7806C61.4488 91.7517 61.4201 91.7163 61.399 91.6763C61.378 91.6363 61.365 91.5926 61.3608 91.5476C61.3567 91.5026 61.3614 91.4572 61.3748 91.4141C61.3882 91.3709 61.41 91.3308 61.4389 91.296C61.4678 91.2613 61.5032 91.2326 61.5432 91.2115C61.5832 91.1904 61.627 91.1775 61.672 91.1733C61.717 91.1692 61.7624 91.1739 61.8056 91.1873C61.8488 91.2007 61.8889 91.2225 61.9237 91.2514L62.7557 91.9387C62.8273 92.0022 62.8716 92.0908 62.8795 92.1862L62.9551 94.0009C62.9569 94.046 62.9499 94.0911 62.9343 94.1335C62.9187 94.1759 62.8949 94.2148 62.8642 94.248C62.8335 94.2812 62.7966 94.3081 62.7556 94.327C62.7146 94.3459 62.6702 94.3566 62.625 94.3583L62.5838 94.3721Z" fill="black"/>
<path d="M67.8995 93.7948C67.8124 93.7949 67.7288 93.7613 67.666 93.7011C67.6032 93.6408 67.5661 93.5587 67.5626 93.4717L67.4594 91.8358L66.428 91.1484C66.3903 91.1228 66.358 91.0901 66.333 91.052C66.3081 91.0139 66.291 90.9712 66.2826 90.9265C66.2743 90.8817 66.275 90.8357 66.2846 90.7912C66.2942 90.7467 66.3126 90.7045 66.3386 90.6672C66.3635 90.6297 66.3956 90.5976 66.4331 90.5727C66.4706 90.5479 66.5127 90.5308 66.557 90.5224C66.6012 90.5141 66.6466 90.5147 66.6906 90.5242C66.7346 90.5337 66.7762 90.552 66.8131 90.5778L67.982 91.3546C68.0259 91.3848 68.0624 91.4247 68.0886 91.4711C68.1148 91.5176 68.1301 91.5694 68.1333 91.6227L68.2433 93.4305C68.249 93.5206 68.219 93.6093 68.1598 93.6774C68.1006 93.7456 68.017 93.7877 67.927 93.7948H67.8995Z" fill="black"/>
<path d="M78.1178 82.5009C78.1178 82.5009 75.5323 71.2003 83.5156 71.3791C91.9663 71.5715 85.9635 85.8141 80.5726 85.8141C78.1728 85.8416 78.1178 82.5009 78.1178 82.5009Z" fill="#FF1D6E"/>
<path d="M68.1402 126.149C68.1402 126.149 65.4585 112.127 64.0833 110.614C62.708 109.102 53.6178 105.115 52.4626 106.188C51.3074 107.26 52.4626 108.676 52.4626 108.676C52.4626 108.676 50.7366 107.693 50.0834 108.724C49.4302 109.755 50.6954 111.364 50.6954 111.364C50.6954 111.364 49.3202 110.491 49.4989 112.415C49.6777 114.34 53.4527 117.852 53.4527 117.852C53.7471 120.723 54.6446 123.498 56.0863 125.998C58.4998 130.219 65.8504 130.404 65.8504 130.404L68.1402 126.149Z" fill="#FFC094"/>
<path d="M59.7168 112.554C59.6615 112.554 59.6071 112.539 59.5586 112.513L52.3593 108.76C52.3163 108.74 52.2777 108.713 52.2459 108.678C52.2142 108.643 52.19 108.602 52.1747 108.557C52.1595 108.513 52.1536 108.465 52.1574 108.419C52.1612 108.372 52.1746 108.326 52.1968 108.284C52.219 108.243 52.2495 108.206 52.2865 108.177C52.3234 108.148 52.3659 108.126 52.4115 108.114C52.457 108.102 52.5046 108.099 52.5512 108.106C52.5978 108.113 52.6425 108.13 52.6824 108.155L59.8749 111.908C59.9559 111.949 60.0173 112.021 60.0456 112.107C60.0739 112.193 60.067 112.287 60.0262 112.369C59.9963 112.425 59.9517 112.472 59.8972 112.504C59.8427 112.537 59.7803 112.554 59.7168 112.554Z" fill="black"/>
<path d="M57.7574 116.114C57.6938 116.112 57.632 116.093 57.5786 116.059L50.5305 111.653C50.454 111.603 50.4002 111.526 50.3809 111.437C50.3616 111.348 50.3783 111.255 50.4274 111.178C50.4768 111.102 50.5539 111.048 50.6424 111.028C50.7309 111.007 50.8239 111.022 50.9018 111.068L57.943 115.475C58.0193 115.524 58.0733 115.601 58.0938 115.689C58.1143 115.778 58.0997 115.871 58.053 115.949C58.0212 115.999 57.9776 116.04 57.926 116.069C57.8744 116.097 57.8164 116.113 57.7574 116.114Z" fill="black"/>
<path d="M67.136 110.677C67.0489 110.677 66.9653 110.643 66.9025 110.583C66.8397 110.523 66.8026 110.44 66.799 110.353C66.7933 110.263 66.8233 110.175 66.8825 110.107C66.9417 110.038 67.0253 109.996 67.1153 109.989C67.1635 109.989 72.0112 109.652 75.6693 106.889C75.7054 106.862 75.7465 106.842 75.7902 106.831C75.834 106.82 75.8795 106.817 75.9242 106.824C75.9689 106.83 76.0119 106.845 76.0507 106.868C76.0896 106.891 76.1235 106.922 76.1506 106.958C76.1777 106.994 76.1974 107.035 76.2086 107.079C76.2198 107.122 76.2223 107.168 76.2159 107.213C76.2095 107.257 76.1944 107.3 76.1714 107.339C76.1484 107.378 76.1179 107.412 76.0818 107.439C73.4402 109.288 70.3561 110.405 67.1428 110.677H67.136Z" fill="#865DFF"/>
<path d="M56.1064 131.257C56.1064 131.257 68.236 158.808 86.726 157.378C105.216 155.948 103.724 121.18 97.8791 112.932C92.0344 104.683 83.8311 104.786 83.8311 104.786L76.2674 125.999L70.0788 120.74L56.1064 131.257Z" fill="#865DFF"/>
<path d="M76.2816 104.676C76.2816 104.676 65.9055 150.188 67.8996 150.421C69.8937 150.655 85.6607 151.425 85.6607 151.425L83.8316 104.786L76.2816 104.676Z" fill="#865DFF"/>
<path d="M82.408 85.5808C82.3288 85.5808 82.2519 85.5534 82.1906 85.5033C82.1292 85.4532 82.087 85.3834 82.0711 85.3058C81.0259 80.4116 77.4985 78.9956 77.4572 78.9819C77.3735 78.9468 77.3067 78.8806 77.2708 78.7973C77.2349 78.714 77.2327 78.62 77.2647 78.5351C77.2971 78.4507 77.3614 78.3824 77.4438 78.3451C77.5262 78.3078 77.6199 78.3044 77.7048 78.3357C77.8629 78.3976 81.6173 79.8823 82.745 85.1683C82.754 85.2126 82.7542 85.2581 82.7456 85.3025C82.7371 85.3468 82.7198 85.389 82.6949 85.4266C82.67 85.4643 82.6379 85.4967 82.6005 85.522C82.5631 85.5472 82.521 85.5649 82.4768 85.5739L82.408 85.5808Z" fill="#865DFF"/>
<path d="M87.9571 137.08C87.8707 137.08 87.7872 137.048 87.7233 136.99L72.7814 123.057C72.7492 123.025 72.7236 122.987 72.7061 122.945C72.6887 122.903 72.6797 122.858 72.6797 122.813C72.6797 122.768 72.6887 122.723 72.7061 122.681C72.7236 122.639 72.7492 122.601 72.7814 122.569C72.8127 122.537 72.8502 122.511 72.8915 122.494C72.9328 122.477 72.9772 122.468 73.022 122.468C73.0669 122.468 73.1112 122.477 73.1526 122.494C73.1939 122.511 73.2313 122.537 73.2627 122.569L88.2115 136.502C88.2606 136.549 88.2945 136.61 88.3089 136.677C88.3234 136.743 88.3177 136.813 88.2927 136.876C88.2676 136.939 88.2243 136.994 88.1682 137.033C88.1121 137.071 88.0458 137.092 87.9777 137.093L87.9571 137.08Z" fill="url(#paint129_angular_14239_199745)"/>
<path d="M88.3149 132.405C86.0584 132.307 83.8227 131.931 81.6588 131.285C81.5862 131.263 81.5226 131.219 81.4779 131.158C81.4331 131.097 81.4097 131.023 81.4112 130.948C81.4139 130.872 81.4417 130.799 81.4902 130.74C81.5387 130.682 81.6053 130.641 81.6794 130.625C83.1578 130.288 90.5702 128.679 91.6911 130.095C91.7992 130.24 91.8611 130.414 91.8684 130.594C91.8758 130.775 91.8283 130.953 91.7323 131.106C91.2579 132.089 89.8895 132.405 88.3149 132.405ZM83.2265 131.03C86.362 131.779 90.4258 132.24 91.1203 130.838C91.2166 130.638 91.1685 130.577 91.1203 130.556C90.6596 129.882 86.9465 130.247 83.2265 130.996V131.03Z" fill="url(#paint130_angular_14239_199745)"/>
<path d="M43.3447 123.695C43.1143 123.687 42.8896 123.621 42.6915 123.503C39.941 121.956 42.4371 115.894 42.5471 115.632C42.5735 115.566 42.6206 115.511 42.6813 115.473C42.742 115.436 42.8131 115.42 42.884 115.426C42.9548 115.43 43.0226 115.457 43.078 115.501C43.1334 115.545 43.1737 115.606 43.1935 115.674C43.6473 117.275 45.05 122.548 43.8467 123.524C43.705 123.639 43.5271 123.699 43.3447 123.695ZM42.8084 116.89C42.1208 118.849 41.4813 122.032 43.0284 122.898C43.1178 122.946 43.331 123.056 43.4204 122.987C43.9361 122.582 43.5235 119.667 42.8084 116.918V116.89Z" fill="url(#paint131_angular_14239_199745)"/>
<path d="M50.7778 138.79C50.733 138.782 50.6902 138.765 50.652 138.74C50.6138 138.715 50.5809 138.683 50.5553 138.645C50.5297 138.607 50.5119 138.565 50.5029 138.52C50.4939 138.475 50.4938 138.429 50.5028 138.385L51.6992 131.889C51.7175 131.799 51.7702 131.72 51.8461 131.669C51.9219 131.617 52.0148 131.598 52.1049 131.614C52.1941 131.631 52.2731 131.682 52.3246 131.757C52.3762 131.831 52.396 131.923 52.38 132.013L51.1766 138.515C51.1692 138.56 51.1529 138.602 51.1287 138.641C51.1045 138.679 51.0728 138.712 51.0356 138.737C50.9984 138.763 50.9564 138.781 50.9121 138.79C50.8678 138.799 50.8222 138.799 50.7778 138.79Z" fill="url(#paint132_angular_14239_199745)"/>
<path d="M66.1183 81.5322C65.4467 82.7989 65.1351 84.2253 65.2176 85.6565L65.3345 88.1449L75.8756 89.9733L75.5318 85.0104L66.1183 81.5322Z" fill="#FF1D6E"/>
<path d="M65.4583 83.2366C64.9558 83.8114 64.5808 84.4861 64.3581 85.2163C64.132 86.2801 63.9713 87.3567 63.8768 88.4401H60.8857L60.645 83.2366L64.3581 80.3496H66.7992V83.7178L65.4583 83.2366Z" fill="#FF1D6E"/>
<defs>
<linearGradient id="paint0_linear_14239_199745" x1="16.7812" y1="70.0254" x2="19.3972" y2="151.087" gradientUnits="userSpaceOnUse">
<stop stop-color="#27C2EC"/>
<stop offset="1" stop-color="#2782EC"/>
</linearGradient>
<linearGradient id="paint1_linear_14239_199745" x1="207.013" y1="70.0254" x2="209.629" y2="151.087" gradientUnits="userSpaceOnUse">
<stop stop-color="#27C2EC"/>
<stop offset="1" stop-color="#2782EC"/>
</linearGradient>
<linearGradient id="paint2_linear_14239_199745" x1="137.344" y1="58.7432" x2="137.344" y2="151.362" gradientUnits="userSpaceOnUse">
<stop stop-color="#590083"/>
<stop offset="1" stop-color="#865DFF"/>
</linearGradient>
<linearGradient id="paint3_linear_14239_199745" x1="136.826" y1="12.0852" x2="136.826" y2="106.463" gradientUnits="userSpaceOnUse">
<stop offset="1" stop-color="#FF1D6E"/>
</linearGradient>
<linearGradient id="paint4_linear_14239_199745" x1="71.0752" y1="19.1924" x2="72.56" y2="116.267" gradientUnits="userSpaceOnUse">
<stop stop-color="#27C2EC"/>
<stop offset="1" stop-color="#2782EC"/>
</linearGradient>
<linearGradient id="paint5_linear_14239_199745" x1="250.254" y1="65.1896" x2="250.616" y2="65.1896" gradientUnits="userSpaceOnUse">
<stop stop-color="#DAE3FE"/>
<stop offset="1" stop-color="#E9EFFD"/>
</linearGradient>
<linearGradient id="paint6_linear_14239_199745" x1="250.396" y1="68.0169" x2="250.716" y2="68.0169" gradientUnits="userSpaceOnUse">
<stop stop-color="#DAE3FE"/>
<stop offset="1" stop-color="#E9EFFD"/>
</linearGradient>
<linearGradient id="paint7_linear_14239_199745" x1="250.224" y1="70.8446" x2="250.643" y2="70.8446" gradientUnits="userSpaceOnUse">
<stop stop-color="#DAE3FE"/>
<stop offset="1" stop-color="#E9EFFD"/>
</linearGradient>
<linearGradient id="paint8_linear_14239_199745" x1="249.817" y1="73.6535" x2="250.335" y2="73.6535" gradientUnits="userSpaceOnUse">
<stop stop-color="#DAE3FE"/>
<stop offset="1" stop-color="#E9EFFD"/>
</linearGradient>
<linearGradient id="paint9_linear_14239_199745" x1="249.188" y1="76.4241" x2="249.8" y2="76.4241" gradientUnits="userSpaceOnUse">
<stop stop-color="#DAE3FE"/>
<stop offset="1" stop-color="#E9EFFD"/>
</linearGradient>
<linearGradient id="paint10_linear_14239_199745" x1="248.341" y1="79.1398" x2="249.047" y2="79.1398" gradientUnits="userSpaceOnUse">
<stop stop-color="#DAE3FE"/>
<stop offset="1" stop-color="#E9EFFD"/>
</linearGradient>
<linearGradient id="paint11_linear_14239_199745" x1="247.29" y1="81.7872" x2="248.087" y2="81.7872" gradientUnits="userSpaceOnUse">
<stop stop-color="#DAE3FE"/>
<stop offset="1" stop-color="#E9EFFD"/>
</linearGradient>
<linearGradient id="paint12_linear_14239_199745" x1="246.044" y1="84.3503" x2="246.927" y2="84.3503" gradientUnits="userSpaceOnUse">
<stop stop-color="#DAE3FE"/>
<stop offset="1" stop-color="#E9EFFD"/>
</linearGradient>
<linearGradient id="paint13_linear_14239_199745" x1="244.611" y1="86.8165" x2="245.58" y2="86.8165" gradientUnits="userSpaceOnUse">
<stop stop-color="#DAE3FE"/>
<stop offset="1" stop-color="#E9EFFD"/>
</linearGradient>
<linearGradient id="paint14_linear_14239_199745" x1="243" y1="89.1743" x2="244.051" y2="89.1743" gradientUnits="userSpaceOnUse">
<stop stop-color="#DAE3FE"/>
<stop offset="1" stop-color="#E9EFFD"/>
</linearGradient>
<linearGradient id="paint15_linear_14239_199745" x1="241.218" y1="91.4089" x2="242.349" y2="91.4089" gradientUnits="userSpaceOnUse">
<stop stop-color="#DAE3FE"/>
<stop offset="1" stop-color="#E9EFFD"/>
</linearGradient>
<linearGradient id="paint16_linear_14239_199745" x1="239.272" y1="93.5054" x2="240.482" y2="93.5054" gradientUnits="userSpaceOnUse">
<stop stop-color="#DAE3FE"/>
<stop offset="1" stop-color="#E9EFFD"/>
</linearGradient>
<linearGradient id="paint17_linear_14239_199745" x1="237.173" y1="95.4486" x2="238.457" y2="95.4486" gradientUnits="userSpaceOnUse">
<stop stop-color="#DAE3FE"/>
<stop offset="1" stop-color="#E9EFFD"/>
</linearGradient>
<linearGradient id="paint18_linear_14239_199745" x1="234.93" y1="97.2249" x2="236.285" y2="97.2249" gradientUnits="userSpaceOnUse">
<stop stop-color="#DAE3FE"/>
<stop offset="1" stop-color="#E9EFFD"/>
</linearGradient>
<linearGradient id="paint19_linear_14239_199745" x1="232.555" y1="98.8126" x2="233.975" y2="98.8126" gradientUnits="userSpaceOnUse">
<stop stop-color="#DAE3FE"/>
<stop offset="1" stop-color="#E9EFFD"/>
</linearGradient>
<linearGradient id="paint20_linear_14239_199745" x1="230.06" y1="100.202" x2="231.532" y2="100.202" gradientUnits="userSpaceOnUse">
<stop stop-color="#DAE3FE"/>
<stop offset="1" stop-color="#E9EFFD"/>
</linearGradient>
<linearGradient id="paint21_linear_14239_199745" x1="227.458" y1="101.374" x2="228.978" y2="101.374" gradientUnits="userSpaceOnUse">
<stop stop-color="#DAE3FE"/>
<stop offset="1" stop-color="#E9EFFD"/>
</linearGradient>
<linearGradient id="paint22_linear_14239_199745" x1="224.768" y1="102.325" x2="226.327" y2="102.325" gradientUnits="userSpaceOnUse">
<stop stop-color="#DAE3FE"/>
<stop offset="1" stop-color="#E9EFFD"/>
</linearGradient>
<linearGradient id="paint23_linear_14239_199745" x1="222.015" y1="103.061" x2="223.607" y2="103.061" gradientUnits="userSpaceOnUse">
<stop stop-color="#DAE3FE"/>
<stop offset="1" stop-color="#E9EFFD"/>
</linearGradient>
<linearGradient id="paint24_linear_14239_199745" x1="219.216" y1="103.588" x2="220.837" y2="103.588" gradientUnits="userSpaceOnUse">
<stop stop-color="#DAE3FE"/>
<stop offset="1" stop-color="#E9EFFD"/>
</linearGradient>
<linearGradient id="paint25_linear_14239_199745" x1="216.389" y1="103.911" x2="218.034" y2="103.911" gradientUnits="userSpaceOnUse">
<stop stop-color="#DAE3FE"/>
<stop offset="1" stop-color="#E9EFFD"/>
</linearGradient>
<linearGradient id="paint26_linear_14239_199745" x1="213.548" y1="104.034" x2="215.21" y2="104.034" gradientUnits="userSpaceOnUse">
<stop stop-color="#DAE3FE"/>
<stop offset="1" stop-color="#E9EFFD"/>
</linearGradient>
<linearGradient id="paint27_linear_14239_199745" x1="210.706" y1="103.971" x2="212.383" y2="103.971" gradientUnits="userSpaceOnUse">
<stop stop-color="#DAE3FE"/>
<stop offset="1" stop-color="#E9EFFD"/>
</linearGradient>
<linearGradient id="paint28_linear_14239_199745" x1="207.875" y1="103.733" x2="209.565" y2="103.733" gradientUnits="userSpaceOnUse">
<stop stop-color="#DAE3FE"/>
<stop offset="1" stop-color="#E9EFFD"/>
</linearGradient>
<linearGradient id="paint29_linear_14239_199745" x1="205.066" y1="103.33" x2="206.764" y2="103.33" gradientUnits="userSpaceOnUse">
<stop stop-color="#DAE3FE"/>
<stop offset="1" stop-color="#E9EFFD"/>
</linearGradient>
<linearGradient id="paint30_linear_14239_199745" x1="202.284" y1="102.769" x2="203.989" y2="102.769" gradientUnits="userSpaceOnUse">
<stop stop-color="#DAE3FE"/>
<stop offset="1" stop-color="#E9EFFD"/>
</linearGradient>
<linearGradient id="paint31_linear_14239_199745" x1="199.535" y1="102.057" x2="201.247" y2="102.057" gradientUnits="userSpaceOnUse">
<stop stop-color="#DAE3FE"/>
<stop offset="1" stop-color="#E9EFFD"/>
</linearGradient>
<linearGradient id="paint32_linear_14239_199745" x1="196.83" y1="101.209" x2="198.543" y2="101.209" gradientUnits="userSpaceOnUse">
<stop stop-color="#DAE3FE"/>
<stop offset="1" stop-color="#E9EFFD"/>
</linearGradient>
<linearGradient id="paint33_linear_14239_199745" x1="194.169" y1="100.227" x2="195.885" y2="100.227" gradientUnits="userSpaceOnUse">
<stop stop-color="#DAE3FE"/>
<stop offset="1" stop-color="#E9EFFD"/>
</linearGradient>
<linearGradient id="paint34_linear_14239_199745" x1="191.561" y1="99.1182" x2="193.277" y2="99.1182" gradientUnits="userSpaceOnUse">
<stop stop-color="#DAE3FE"/>
<stop offset="1" stop-color="#E9EFFD"/>
</linearGradient>
<linearGradient id="paint35_linear_14239_199745" x1="189.006" y1="97.8856" x2="190.723" y2="97.8856" gradientUnits="userSpaceOnUse">
<stop stop-color="#DAE3FE"/>
<stop offset="1" stop-color="#E9EFFD"/>
</linearGradient>
<linearGradient id="paint36_linear_14239_199745" x1="186.521" y1="96.5389" x2="188.225" y2="96.5389" gradientUnits="userSpaceOnUse">
<stop stop-color="#DAE3FE"/>
<stop offset="1" stop-color="#E9EFFD"/>
</linearGradient>
<linearGradient id="paint37_linear_14239_199745" x1="184.092" y1="95.0902" x2="185.785" y2="95.0902" gradientUnits="userSpaceOnUse">
<stop stop-color="#DAE3FE"/>
<stop offset="1" stop-color="#E9EFFD"/>
</linearGradient>
<linearGradient id="paint38_linear_14239_199745" x1="181.718" y1="93.5515" x2="183.399" y2="93.5515" gradientUnits="userSpaceOnUse">
<stop stop-color="#DAE3FE"/>
<stop offset="1" stop-color="#E9EFFD"/>
</linearGradient>
<linearGradient id="paint39_linear_14239_199745" x1="179.401" y1="91.9303" x2="181.07" y2="91.9303" gradientUnits="userSpaceOnUse">
<stop stop-color="#DAE3FE"/>
<stop offset="1" stop-color="#E9EFFD"/>
</linearGradient>
<linearGradient id="paint40_linear_14239_199745" x1="177.136" y1="90.2336" x2="178.794" y2="90.2336" gradientUnits="userSpaceOnUse">
<stop stop-color="#DAE3FE"/>
<stop offset="1" stop-color="#E9EFFD"/>
</linearGradient>
<linearGradient id="paint41_linear_14239_199745" x1="174.922" y1="88.4685" x2="176.571" y2="88.4685" gradientUnits="userSpaceOnUse">
<stop stop-color="#DAE3FE"/>
<stop offset="1" stop-color="#E9EFFD"/>
</linearGradient>
<linearGradient id="paint42_linear_14239_199745" x1="172.757" y1="86.6476" x2="174.395" y2="86.6476" gradientUnits="userSpaceOnUse">
<stop stop-color="#DAE3FE"/>
<stop offset="1" stop-color="#E9EFFD"/>
</linearGradient>
<linearGradient id="paint43_linear_14239_199745" x1="170.635" y1="84.774" x2="172.266" y2="84.774" gradientUnits="userSpaceOnUse">
<stop stop-color="#DAE3FE"/>
<stop offset="1" stop-color="#E9EFFD"/>
</linearGradient>
<linearGradient id="paint44_linear_14239_199745" x1="168.554" y1="82.8554" x2="170.178" y2="82.8554" gradientUnits="userSpaceOnUse">
<stop stop-color="#DAE3FE"/>
<stop offset="1" stop-color="#E9EFFD"/>
</linearGradient>
<linearGradient id="paint45_linear_14239_199745" x1="166.508" y1="80.8991" x2="168.129" y2="80.8991" gradientUnits="userSpaceOnUse">
<stop stop-color="#DAE3FE"/>
<stop offset="1" stop-color="#E9EFFD"/>
</linearGradient>
<linearGradient id="paint46_linear_14239_199745" x1="164.493" y1="78.9082" x2="166.109" y2="78.9082" gradientUnits="userSpaceOnUse">
<stop stop-color="#DAE3FE"/>
<stop offset="1" stop-color="#E9EFFD"/>
</linearGradient>
<linearGradient id="paint47_linear_14239_199745" x1="162.504" y1="76.8888" x2="164.118" y2="76.8888" gradientUnits="userSpaceOnUse">
<stop stop-color="#DAE3FE"/>
<stop offset="1" stop-color="#E9EFFD"/>
</linearGradient>
<linearGradient id="paint48_linear_14239_199745" x1="160.538" y1="74.8469" x2="162.151" y2="74.8469" gradientUnits="userSpaceOnUse">
<stop stop-color="#DAE3FE"/>
<stop offset="1" stop-color="#E9EFFD"/>
</linearGradient>
<linearGradient id="paint49_linear_14239_199745" x1="158.587" y1="72.7898" x2="160.201" y2="72.7898" gradientUnits="userSpaceOnUse">
<stop stop-color="#DAE3FE"/>
<stop offset="1" stop-color="#E9EFFD"/>
</linearGradient>
<linearGradient id="paint50_linear_14239_199745" x1="156.649" y1="70.7215" x2="158.265" y2="70.7215" gradientUnits="userSpaceOnUse">
<stop stop-color="#DAE3FE"/>
<stop offset="1" stop-color="#E9EFFD"/>
</linearGradient>
<linearGradient id="paint51_linear_14239_199745" x1="154.716" y1="68.6461" x2="156.337" y2="68.6461" gradientUnits="userSpaceOnUse">
<stop stop-color="#DAE3FE"/>
<stop offset="1" stop-color="#E9EFFD"/>
</linearGradient>
<linearGradient id="paint52_linear_14239_199745" x1="152.785" y1="66.5701" x2="154.41" y2="66.5701" gradientUnits="userSpaceOnUse">
<stop stop-color="#DAE3FE"/>
<stop offset="1" stop-color="#E9EFFD"/>
</linearGradient>
<linearGradient id="paint53_linear_14239_199745" x1="150.848" y1="64.4978" x2="152.481" y2="64.4978" gradientUnits="userSpaceOnUse">
<stop stop-color="#DAE3FE"/>
<stop offset="1" stop-color="#E9EFFD"/>
</linearGradient>
<linearGradient id="paint54_linear_14239_199745" x1="148.9" y1="62.4344" x2="150.543" y2="62.4344" gradientUnits="userSpaceOnUse">
<stop stop-color="#DAE3FE"/>
<stop offset="1" stop-color="#E9EFFD"/>
</linearGradient>
<linearGradient id="paint55_linear_14239_199745" x1="146.936" y1="60.3873" x2="148.59" y2="60.3873" gradientUnits="userSpaceOnUse">
<stop stop-color="#DAE3FE"/>
<stop offset="1" stop-color="#E9EFFD"/>
</linearGradient>
<linearGradient id="paint56_linear_14239_199745" x1="144.953" y1="58.359" x2="146.619" y2="58.359" gradientUnits="userSpaceOnUse">
<stop stop-color="#DAE3FE"/>
<stop offset="1" stop-color="#E9EFFD"/>
</linearGradient>
<linearGradient id="paint57_linear_14239_199745" x1="142.942" y1="56.3543" x2="144.623" y2="56.3543" gradientUnits="userSpaceOnUse">
<stop stop-color="#DAE3FE"/>
<stop offset="1" stop-color="#E9EFFD"/>
</linearGradient>
<linearGradient id="paint58_linear_14239_199745" x1="140.901" y1="54.3814" x2="142.598" y2="54.3814" gradientUnits="userSpaceOnUse">
<stop stop-color="#DAE3FE"/>
<stop offset="1" stop-color="#E9EFFD"/>
</linearGradient>
<linearGradient id="paint59_linear_14239_199745" x1="138.829" y1="52.4452" x2="140.535" y2="52.4452" gradientUnits="userSpaceOnUse">
<stop stop-color="#DAE3FE"/>
<stop offset="1" stop-color="#E9EFFD"/>
</linearGradient>
<linearGradient id="paint60_linear_14239_199745" x1="136.717" y1="50.5493" x2="138.431" y2="50.5493" gradientUnits="userSpaceOnUse">
<stop stop-color="#DAE3FE"/>
<stop offset="1" stop-color="#E9EFFD"/>
</linearGradient>
<linearGradient id="paint61_linear_14239_199745" x1="134.562" y1="48.7052" x2="136.286" y2="48.7052" gradientUnits="userSpaceOnUse">
<stop stop-color="#DAE3FE"/>
<stop offset="1" stop-color="#E9EFFD"/>
</linearGradient>
<linearGradient id="paint62_linear_14239_199745" x1="132.36" y1="46.918" x2="134.094" y2="46.918" gradientUnits="userSpaceOnUse">
<stop stop-color="#DAE3FE"/>
<stop offset="1" stop-color="#E9EFFD"/>
</linearGradient>
<linearGradient id="paint63_linear_14239_199745" x1="130.107" y1="45.1912" x2="131.853" y2="45.1912" gradientUnits="userSpaceOnUse">
<stop stop-color="#DAE3FE"/>
<stop offset="1" stop-color="#E9EFFD"/>
</linearGradient>
<linearGradient id="paint64_linear_14239_199745" x1="127.801" y1="43.5382" x2="129.559" y2="43.5382" gradientUnits="userSpaceOnUse">
<stop stop-color="#DAE3FE"/>
<stop offset="1" stop-color="#E9EFFD"/>
</linearGradient>
<linearGradient id="paint65_linear_14239_199745" x1="125.438" y1="41.963" x2="127.211" y2="41.963" gradientUnits="userSpaceOnUse">
<stop stop-color="#DAE3FE"/>
<stop offset="1" stop-color="#E9EFFD"/>
</linearGradient>
<linearGradient id="paint66_linear_14239_199745" x1="123.021" y1="40.4727" x2="124.804" y2="40.4727" gradientUnits="userSpaceOnUse">
<stop stop-color="#DAE3FE"/>
<stop offset="1" stop-color="#E9EFFD"/>
</linearGradient>
<linearGradient id="paint67_linear_14239_199745" x1="120.55" y1="39.0741" x2="122.346" y2="39.0741" gradientUnits="userSpaceOnUse">
<stop stop-color="#DAE3FE"/>
<stop offset="1" stop-color="#E9EFFD"/>
</linearGradient>
<linearGradient id="paint68_linear_14239_199745" x1="118.031" y1="37.7656" x2="119.838" y2="37.7656" gradientUnits="userSpaceOnUse">
<stop stop-color="#DAE3FE"/>
<stop offset="1" stop-color="#E9EFFD"/>
</linearGradient>
<linearGradient id="paint69_linear_14239_199745" x1="115.467" y1="36.5503" x2="117.282" y2="36.5503" gradientUnits="userSpaceOnUse">
<stop stop-color="#DAE3FE"/>
<stop offset="1" stop-color="#E9EFFD"/>
</linearGradient>
<linearGradient id="paint70_linear_14239_199745" x1="112.86" y1="35.4263" x2="114.684" y2="35.4263" gradientUnits="userSpaceOnUse">
<stop stop-color="#DAE3FE"/>
<stop offset="1" stop-color="#E9EFFD"/>
</linearGradient>
<linearGradient id="paint71_linear_14239_199745" x1="110.216" y1="34.3973" x2="112.046" y2="34.3973" gradientUnits="userSpaceOnUse">
<stop stop-color="#DAE3FE"/>
<stop offset="1" stop-color="#E9EFFD"/>
</linearGradient>
<linearGradient id="paint72_linear_14239_199745" x1="107.537" y1="33.4606" x2="109.374" y2="33.4606" gradientUnits="userSpaceOnUse">
<stop stop-color="#DAE3FE"/>
<stop offset="1" stop-color="#E9EFFD"/>
</linearGradient>
<linearGradient id="paint73_linear_14239_199745" x1="104.828" y1="32.6192" x2="106.669" y2="32.6192" gradientUnits="userSpaceOnUse">
<stop stop-color="#DAE3FE"/>
<stop offset="1" stop-color="#E9EFFD"/>
</linearGradient>
<linearGradient id="paint74_linear_14239_199745" x1="102.09" y1="31.874" x2="103.935" y2="31.874" gradientUnits="userSpaceOnUse">
<stop stop-color="#DAE3FE"/>
<stop offset="1" stop-color="#E9EFFD"/>
</linearGradient>
<linearGradient id="paint75_linear_14239_199745" x1="99.3266" y1="31.2252" x2="101.174" y2="31.2252" gradientUnits="userSpaceOnUse">
<stop stop-color="#DAE3FE"/>
<stop offset="1" stop-color="#E9EFFD"/>
</linearGradient>
<linearGradient id="paint76_linear_14239_199745" x1="96.5449" y1="30.6743" x2="98.394" y2="30.6743" gradientUnits="userSpaceOnUse">
<stop stop-color="#DAE3FE"/>
<stop offset="1" stop-color="#E9EFFD"/>
</linearGradient>
<linearGradient id="paint77_linear_14239_199745" x1="93.7448" y1="30.2198" x2="95.5952" y2="30.2198" gradientUnits="userSpaceOnUse">
<stop stop-color="#DAE3FE"/>
<stop offset="1" stop-color="#E9EFFD"/>
</linearGradient>
<linearGradient id="paint78_linear_14239_199745" x1="90.931" y1="29.8655" x2="92.7814" y2="29.8655" gradientUnits="userSpaceOnUse">
<stop stop-color="#DAE3FE"/>
<stop offset="1" stop-color="#E9EFFD"/>
</linearGradient>
<linearGradient id="paint79_linear_14239_199745" x1="88.1084" y1="29.6096" x2="89.9575" y2="29.6096" gradientUnits="userSpaceOnUse">
<stop stop-color="#DAE3FE"/>
<stop offset="1" stop-color="#E9EFFD"/>
</linearGradient>
<linearGradient id="paint80_linear_14239_199745" x1="85.2791" y1="29.4536" x2="87.1242" y2="29.4536" gradientUnits="userSpaceOnUse">
<stop stop-color="#DAE3FE"/>
<stop offset="1" stop-color="#E9EFFD"/>
</linearGradient>
<linearGradient id="paint81_linear_14239_199745" x1="82.4468" y1="29.4002" x2="84.2879" y2="29.4002" gradientUnits="userSpaceOnUse">
<stop stop-color="#DAE3FE"/>
<stop offset="1" stop-color="#E9EFFD"/>
</linearGradient>
<linearGradient id="paint82_linear_14239_199745" x1="79.6137" y1="29.4467" x2="81.4508" y2="29.4467" gradientUnits="userSpaceOnUse">
<stop stop-color="#DAE3FE"/>
<stop offset="1" stop-color="#E9EFFD"/>
</linearGradient>
<linearGradient id="paint83_linear_14239_199745" x1="76.785" y1="29.5966" x2="78.6168" y2="29.5966" gradientUnits="userSpaceOnUse">
<stop stop-color="#DAE3FE"/>
<stop offset="1" stop-color="#E9EFFD"/>
</linearGradient>
<linearGradient id="paint84_linear_14239_199745" x1="73.9651" y1="29.8502" x2="75.7902" y2="29.8502" gradientUnits="userSpaceOnUse">
<stop stop-color="#DAE3FE"/>
<stop offset="1" stop-color="#E9EFFD"/>
</linearGradient>
<linearGradient id="paint85_linear_14239_199745" x1="71.1569" y1="30.2082" x2="72.9739" y2="30.2082" gradientUnits="userSpaceOnUse">
<stop stop-color="#DAE3FE"/>
<stop offset="1" stop-color="#E9EFFD"/>
</linearGradient>
<linearGradient id="paint86_linear_14239_199745" x1="68.3648" y1="30.6736" x2="70.1726" y2="30.6736" gradientUnits="userSpaceOnUse">
<stop stop-color="#DAE3FE"/>
<stop offset="1" stop-color="#E9EFFD"/>
</linearGradient>
<linearGradient id="paint87_linear_14239_199745" x1="65.5966" y1="31.2572" x2="67.3923" y2="31.2572" gradientUnits="userSpaceOnUse">
<stop stop-color="#DAE3FE"/>
<stop offset="1" stop-color="#E9EFFD"/>
</linearGradient>
<linearGradient id="paint88_linear_14239_199745" x1="62.8584" y1="31.9662" x2="64.6408" y2="31.9662" gradientUnits="userSpaceOnUse">
<stop stop-color="#DAE3FE"/>
<stop offset="1" stop-color="#E9EFFD"/>
</linearGradient>
<linearGradient id="paint89_linear_14239_199745" x1="60.1634" y1="32.8066" x2="61.9231" y2="32.8066" gradientUnits="userSpaceOnUse">
<stop stop-color="#DAE3FE"/>
<stop offset="1" stop-color="#E9EFFD"/>
</linearGradient>
<linearGradient id="paint90_linear_14239_199745" x1="57.5179" y1="33.7879" x2="59.2496" y2="33.7879" gradientUnits="userSpaceOnUse">
<stop stop-color="#DAE3FE"/>
<stop offset="1" stop-color="#E9EFFD"/>
</linearGradient>
<linearGradient id="paint91_linear_14239_199745" x1="54.9351" y1="34.9173" x2="56.6348" y2="34.9173" gradientUnits="userSpaceOnUse">
<stop stop-color="#DAE3FE"/>
<stop offset="1" stop-color="#E9EFFD"/>
</linearGradient>
<linearGradient id="paint92_linear_14239_199745" x1="52.4298" y1="36.2074" x2="54.0922" y2="36.2074" gradientUnits="userSpaceOnUse">
<stop stop-color="#DAE3FE"/>
<stop offset="1" stop-color="#E9EFFD"/>
</linearGradient>
<linearGradient id="paint93_linear_14239_199745" x1="50.0204" y1="37.6626" x2="51.6387" y2="37.6626" gradientUnits="userSpaceOnUse">
<stop stop-color="#DAE3FE"/>
<stop offset="1" stop-color="#E9EFFD"/>
</linearGradient>
<linearGradient id="paint94_linear_14239_199745" x1="47.7266" y1="39.2913" x2="49.2956" y2="39.2913" gradientUnits="userSpaceOnUse">
<stop stop-color="#DAE3FE"/>
<stop offset="1" stop-color="#E9EFFD"/>
</linearGradient>
<linearGradient id="paint95_linear_14239_199745" x1="45.5735" y1="41.0988" x2="47.085" y2="41.0988" gradientUnits="userSpaceOnUse">
<stop stop-color="#DAE3FE"/>
<stop offset="1" stop-color="#E9EFFD"/>
</linearGradient>
<linearGradient id="paint96_linear_14239_199745" x1="43.5828" y1="43.0829" x2="45.0303" y2="43.0829" gradientUnits="userSpaceOnUse">
<stop stop-color="#DAE3FE"/>
<stop offset="1" stop-color="#E9EFFD"/>
</linearGradient>
<linearGradient id="paint97_linear_14239_199745" x1="41.7831" y1="45.2381" x2="43.1573" y2="45.2381" gradientUnits="userSpaceOnUse">
<stop stop-color="#DAE3FE"/>
<stop offset="1" stop-color="#E9EFFD"/>
</linearGradient>
<linearGradient id="paint98_linear_14239_199745" x1="40.2107" y1="47.5663" x2="41.5008" y2="47.5663" gradientUnits="userSpaceOnUse">
<stop stop-color="#DAE3FE"/>
<stop offset="1" stop-color="#E9EFFD"/>
</linearGradient>
<linearGradient id="paint99_linear_14239_199745" x1="38.8787" y1="50.0386" x2="40.0821" y2="50.0386" gradientUnits="userSpaceOnUse">
<stop stop-color="#DAE3FE"/>
<stop offset="1" stop-color="#E9EFFD"/>
</linearGradient>
<linearGradient id="paint100_linear_14239_199745" x1="37.7918" y1="52.6352" x2="38.9071" y2="52.6352" gradientUnits="userSpaceOnUse">
<stop stop-color="#DAE3FE"/>
<stop offset="1" stop-color="#E9EFFD"/>
</linearGradient>
<linearGradient id="paint101_linear_14239_199745" x1="36.949" y1="55.3232" x2="37.9776" y2="55.3232" gradientUnits="userSpaceOnUse">
<stop stop-color="#DAE3FE"/>
<stop offset="1" stop-color="#E9EFFD"/>
</linearGradient>
<linearGradient id="paint102_linear_14239_199745" x1="36.3468" y1="58.0785" x2="37.29" y2="58.0785" gradientUnits="userSpaceOnUse">
<stop stop-color="#DAE3FE"/>
<stop offset="1" stop-color="#E9EFFD"/>
</linearGradient>
<linearGradient id="paint103_linear_14239_199745" x1="35.9879" y1="60.8827" x2="36.8458" y2="60.8827" gradientUnits="userSpaceOnUse">
<stop stop-color="#DAE3FE"/>
<stop offset="1" stop-color="#E9EFFD"/>
</linearGradient>
<linearGradient id="paint104_linear_14239_199745" x1="35.8681" y1="63.7079" x2="36.6405" y2="63.7079" gradientUnits="userSpaceOnUse">
<stop stop-color="#DAE3FE"/>
<stop offset="1" stop-color="#E9EFFD"/>
</linearGradient>
<linearGradient id="paint105_linear_14239_199745" x1="35.9239" y1="66.5377" x2="36.7298" y2="66.5377" gradientUnits="userSpaceOnUse">
<stop stop-color="#DAE3FE"/>
<stop offset="1" stop-color="#E9EFFD"/>
</linearGradient>
<linearGradient id="paint106_linear_14239_199745" x1="36.2068" y1="69.3513" x2="37.0713" y2="69.3513" gradientUnits="userSpaceOnUse">
<stop stop-color="#DAE3FE"/>
<stop offset="1" stop-color="#E9EFFD"/>
</linearGradient>
<linearGradient id="paint107_linear_14239_199745" x1="36.7259" y1="72.1291" x2="37.6505" y2="72.1291" gradientUnits="userSpaceOnUse">
<stop stop-color="#DAE3FE"/>
<stop offset="1" stop-color="#E9EFFD"/>
</linearGradient>
<linearGradient id="paint108_linear_14239_199745" x1="37.4836" y1="74.8477" x2="38.4681" y2="74.8477" gradientUnits="userSpaceOnUse">
<stop stop-color="#DAE3FE"/>
<stop offset="1" stop-color="#E9EFFD"/>
</linearGradient>
<linearGradient id="paint109_linear_14239_199745" x1="38.4803" y1="77.4856" x2="39.5236" y2="77.4856" gradientUnits="userSpaceOnUse">
<stop stop-color="#DAE3FE"/>
<stop offset="1" stop-color="#E9EFFD"/>
</linearGradient>
<linearGradient id="paint110_linear_14239_199745" x1="39.7124" y1="80.0187" x2="40.8171" y2="80.0187" gradientUnits="userSpaceOnUse">
<stop stop-color="#DAE3FE"/>
<stop offset="1" stop-color="#E9EFFD"/>
</linearGradient>
<linearGradient id="paint111_linear_14239_199745" x1="41.1869" y1="82.4193" x2="42.3409" y2="82.4193" gradientUnits="userSpaceOnUse">
<stop stop-color="#DAE3FE"/>
<stop offset="1" stop-color="#E9EFFD"/>
</linearGradient>
<linearGradient id="paint112_linear_14239_199745" x1="42.8943" y1="84.6606" x2="44.0937" y2="84.6606" gradientUnits="userSpaceOnUse">
<stop stop-color="#DAE3FE"/>
<stop offset="1" stop-color="#E9EFFD"/>
</linearGradient>
<linearGradient id="paint113_linear_14239_199745" x1="44.8243" y1="86.713" x2="46.0664" y2="86.713" gradientUnits="userSpaceOnUse">
<stop stop-color="#DAE3FE"/>
<stop offset="1" stop-color="#E9EFFD"/>
</linearGradient>
<linearGradient id="paint114_linear_14239_199745" x1="46.9578" y1="88.5597" x2="48.2332" y2="88.5597" gradientUnits="userSpaceOnUse">
<stop stop-color="#DAE3FE"/>
<stop offset="1" stop-color="#E9EFFD"/>
</linearGradient>
<linearGradient id="paint115_linear_14239_199745" x1="49.2637" y1="90.1855" x2="50.5645" y2="90.1855" gradientUnits="userSpaceOnUse">
<stop stop-color="#DAE3FE"/>
<stop offset="1" stop-color="#E9EFFD"/>
</linearGradient>
<linearGradient id="paint116_linear_14239_199745" x1="51.7204" y1="91.5849" x2="53.0371" y2="91.5849" gradientUnits="userSpaceOnUse">
<stop stop-color="#DAE3FE"/>
<stop offset="1" stop-color="#E9EFFD"/>
</linearGradient>
<linearGradient id="paint117_linear_14239_199745" x1="56.9702" y1="93.6902" x2="58.299" y2="93.6902" gradientUnits="userSpaceOnUse">
<stop stop-color="#DAE3FE"/>
<stop offset="1" stop-color="#E9EFFD"/>
</linearGradient>
<linearGradient id="paint118_linear_14239_199745" x1="59.7182" y1="94.396" x2="61.0417" y2="94.396" gradientUnits="userSpaceOnUse">
<stop stop-color="#DAE3FE"/>
<stop offset="1" stop-color="#E9EFFD"/>
</linearGradient>
<linearGradient id="paint119_linear_14239_199745" x1="62.5182" y1="94.8663" x2="63.831" y2="94.8663" gradientUnits="userSpaceOnUse">
<stop stop-color="#DAE3FE"/>
<stop offset="1" stop-color="#E9EFFD"/>
</linearGradient>
<linearGradient id="paint120_linear_14239_199745" x1="65.3504" y1="95.1007" x2="66.6472" y2="95.1007" gradientUnits="userSpaceOnUse">
<stop stop-color="#DAE3FE"/>
<stop offset="1" stop-color="#E9EFFD"/>
</linearGradient>
<linearGradient id="paint121_linear_14239_199745" x1="68.1978" y1="95.1021" x2="69.4718" y2="95.1021" gradientUnits="userSpaceOnUse">
<stop stop-color="#DAE3FE"/>
<stop offset="1" stop-color="#E9EFFD"/>
</linearGradient>
<linearGradient id="paint122_linear_14239_199745" x1="71.0353" y1="94.8582" x2="72.2827" y2="94.8582" gradientUnits="userSpaceOnUse">
<stop stop-color="#DAE3FE"/>
<stop offset="1" stop-color="#E9EFFD"/>
</linearGradient>
<linearGradient id="paint123_linear_14239_199745" x1="73.8478" y1="94.3695" x2="75.0578" y2="94.3695" gradientUnits="userSpaceOnUse">
<stop stop-color="#DAE3FE"/>
<stop offset="1" stop-color="#E9EFFD"/>
</linearGradient>
<linearGradient id="paint124_linear_14239_199745" x1="76.6069" y1="93.6326" x2="77.7729" y2="93.6326" gradientUnits="userSpaceOnUse">
<stop stop-color="#DAE3FE"/>
<stop offset="1" stop-color="#E9EFFD"/>
</linearGradient>
<linearGradient id="paint125_linear_14239_199745" x1="79.2869" y1="92.6471" x2="80.4035" y2="92.6471" gradientUnits="userSpaceOnUse">
<stop stop-color="#DAE3FE"/>
<stop offset="1" stop-color="#E9EFFD"/>
</linearGradient>
<linearGradient id="paint126_linear_14239_199745" x1="81.866" y1="91.4075" x2="82.9227" y2="91.4075" gradientUnits="userSpaceOnUse">
<stop stop-color="#DAE3FE"/>
<stop offset="1" stop-color="#E9EFFD"/>
</linearGradient>
<linearGradient id="paint127_linear_14239_199745" x1="84.311" y1="89.9752" x2="85.1488" y2="89.9752" gradientUnits="userSpaceOnUse">
<stop stop-color="#DAE3FE"/>
<stop offset="1" stop-color="#E9EFFD"/>
</linearGradient>
<radialGradient id="paint128_angular_14239_199745" cx="0" cy="0" r="1" gradientUnits="userSpaceOnUse" gradientTransform="translate(71.7673 131.851) rotate(90) scale(27.1483 20.57)">
<stop offset="0.0520833" stop-color="#865DFF"/>
<stop offset="0.505208" stop-color="#42E8E0"/>
<stop offset="0.828125" stop-color="#865DFF"/>
</radialGradient>
<radialGradient id="paint129_angular_14239_199745" cx="0" cy="0" r="1" gradientUnits="userSpaceOnUse" gradientTransform="translate(80.4982 129.781) rotate(90) scale(7.31277 7.81852)">
<stop offset="0.0520833" stop-color="#865DFF"/>
<stop offset="0.505208" stop-color="#42E8E0"/>
<stop offset="0.828125" stop-color="#865DFF"/>
</radialGradient>
<radialGradient id="paint130_angular_14239_199745" cx="0" cy="0" r="1" gradientUnits="userSpaceOnUse" gradientTransform="translate(86.6401 130.963) rotate(90) scale(1.44173 5.22901)">
<stop offset="0.0520833" stop-color="#865DFF"/>
<stop offset="0.505208" stop-color="#42E8E0"/>
<stop offset="0.828125" stop-color="#865DFF"/>
</radialGradient>
<radialGradient id="paint131_angular_14239_199745" cx="0" cy="0" r="1" gradientUnits="userSpaceOnUse" gradientTransform="translate(42.8636 119.56) rotate(90) scale(4.13541 1.45926)">
<stop offset="0.0520833" stop-color="#865DFF"/>
<stop offset="0.505208" stop-color="#42E8E0"/>
<stop offset="0.828125" stop-color="#865DFF"/>
</radialGradient>
<radialGradient id="paint132_angular_14239_199745" cx="0" cy="0" r="1" gradientUnits="userSpaceOnUse" gradientTransform="translate(51.4407 135.203) rotate(90) scale(3.59423 0.944653)">
<stop offset="0.0520833" stop-color="#865DFF"/>
<stop offset="0.505208" stop-color="#42E8E0"/>
<stop offset="0.828125" stop-color="#865DFF"/>
</radialGradient>
</defs>
</svg>
