<svg width="301" height="253" viewBox="0 0 301 253" fill="none" xmlns="http://www.w3.org/2000/svg">
<g filter="url(#filter0_d_4804_19477)">
<path d="M76.3012 111.433C75.0112 109.553 72.9312 108.723 71.6012 109.593C70.2712 110.463 70.1912 112.793 71.4712 114.753C72.7512 116.713 74.8912 117.573 76.2412 116.693L80.3812 113.593L76.3012 111.433Z" fill="#27C2EC"/>
<path d="M74.9734 115.235C75.745 114.73 75.7796 113.417 75.0506 112.304C74.3216 111.19 73.1051 110.697 72.3334 111.202C71.5617 111.707 71.5271 113.019 72.2561 114.133C72.9851 115.247 74.2017 115.74 74.9734 115.235Z" fill="#865DFF"/>
<path d="M92.1212 119.463C90.8312 117.583 88.7512 116.763 87.4212 117.633C86.0912 118.503 86.0112 120.833 87.2912 122.833C88.5712 124.833 90.7112 125.663 92.0612 124.773L96.2012 121.673L92.1212 119.463Z" fill="#27C2EC"/>
<path d="M90.8031 123.277C91.5747 122.772 91.6093 121.459 90.8803 120.346C90.1513 119.232 88.9348 118.739 88.1631 119.244C87.3914 119.749 87.3568 121.061 88.0859 122.175C88.8149 123.289 90.0314 123.782 90.8031 123.277Z" fill="#865DFF"/>
<path d="M64.9512 107.723C20.6212 130.913 15.9512 127.173 15.9512 127.173C15.9512 127.173 9.95117 127.433 11.1612 123.083C13.9169 114.978 19.3066 108.029 26.4712 103.343C38.2112 95.9531 80.1112 73.6331 121.911 58.6431L126.121 69.8331C126.121 69.8331 102.601 86.0131 86.2012 94.3731C69.8012 102.733 64.9512 107.723 64.9512 107.723Z" fill="#F3EFFF"/>
<path d="M118.741 62.7229L132.641 45.1229C132.688 45.0616 132.747 45.0105 132.814 44.9725C132.881 44.9346 132.955 44.9107 133.032 44.9023C133.109 44.8939 133.186 44.9012 133.26 44.9236C133.334 44.946 133.402 44.9832 133.461 45.0329L135.131 46.3829C135.218 46.4532 135.283 46.5476 135.317 46.6543C135.35 46.761 135.352 46.8752 135.321 46.9829L129.671 67.8329L118.741 62.7229Z" fill="#F3EFFF"/>
<path d="M117.311 61.393L112.581 48.443L116.781 46.7729L128.691 58.943L144.541 66.473L142.961 69.453L124.311 62.623L117.311 61.393Z" fill="#F3EFFF"/>
<path d="M35.8887 114.04C36.5336 113.219 36.5284 112.139 35.877 111.627C35.2256 111.115 34.1747 111.366 33.5298 112.186C32.8849 113.007 32.8901 114.087 33.5415 114.599C34.1929 115.111 35.2437 114.861 35.8887 114.04Z" fill="#865DFF"/>
<path d="M43.8577 109.769C44.5026 108.948 44.4974 107.868 43.846 107.356C43.1946 106.844 42.1437 107.095 41.4988 107.915C40.8539 108.736 40.8591 109.816 41.5105 110.328C42.1619 110.84 43.2127 110.59 43.8577 109.769Z" fill="#865DFF"/>
<path d="M51.9536 105.74C52.5986 104.919 52.5933 103.839 51.9419 103.327C51.2906 102.815 50.2397 103.066 49.5948 103.886C48.9498 104.707 48.9551 105.787 49.6064 106.299C50.2578 106.811 51.3087 106.561 51.9536 105.74Z" fill="#865DFF"/>
<path d="M59.9367 101.467C60.5816 100.646 60.5764 99.5661 59.925 99.0542C59.2736 98.5424 58.2227 98.7928 57.5778 99.6135C56.9329 100.434 56.9381 101.515 57.5895 102.026C58.2408 102.538 59.2917 102.288 59.9367 101.467Z" fill="#865DFF"/>
<path d="M69.7493 97.758C70.3965 96.9334 70.3906 95.8485 69.7361 95.3349C69.0817 94.8213 68.0265 95.0734 67.3793 95.898C66.7322 96.7226 66.7381 97.8075 67.3925 98.3211C68.047 98.8347 69.1022 98.5826 69.7493 97.758Z" fill="#865DFF"/>
<path d="M75.9793 92.8489C76.6242 92.0282 76.619 90.9479 75.9676 90.4361C75.3162 89.9242 74.2653 90.1746 73.6204 90.9954C72.9755 91.8161 72.9807 92.8964 73.6321 93.4082C74.2835 93.9201 75.3343 93.6697 75.9793 92.8489Z" fill="#865DFF"/>
<path d="M84.0913 88.8123C84.7363 87.9916 84.731 86.9113 84.0796 86.3994C83.4283 85.8876 82.3774 86.138 81.7325 86.9587C81.0875 87.7795 81.0927 88.8598 81.7441 89.3716C82.3955 89.8835 83.4464 89.6331 84.0913 88.8123Z" fill="#865DFF"/>
<path d="M92.0682 84.5472C92.7132 83.7264 92.7079 82.6462 92.0566 82.1343C91.4052 81.6225 90.3543 81.8729 89.7094 82.6936C89.0644 83.5143 89.0697 84.5946 89.7211 85.1065C90.3724 85.6183 91.4233 85.3679 92.0682 84.5472Z" fill="#865DFF"/>
<path d="M100.581 80.2415C101.226 79.4208 101.221 78.3405 100.57 77.8286C99.9184 77.3168 98.8675 77.5672 98.2226 78.3879C97.5776 79.2087 97.5829 80.289 98.2342 80.8008C98.8856 81.3127 99.9365 81.0623 100.581 80.2415Z" fill="#865DFF"/>
<path d="M20.0711 111.703C21.8678 113.585 24.0513 115.056 26.4711 116.013C30.3611 117.483 25.0611 119.873 25.0611 119.873C22.8143 120.064 20.58 119.384 18.8211 117.973C15.8211 115.603 18.2311 112.183 18.2311 112.183C18.2311 112.183 19.0111 110.833 20.0711 111.703Z" fill="#865DFF"/>
<path d="M11.0112 123.833C11.0112 123.833 16.0112 126.463 26.3512 122.443C36.6912 118.423 61.4612 105.653 61.4612 105.653" stroke="#173C6A" stroke-width="0.97" stroke-linecap="round" stroke-linejoin="round"/>
<path d="M84.1112 92.7531L113.461 75.8931" stroke="#173C6A" stroke-width="0.97" stroke-linecap="round" stroke-linejoin="round"/>
<path d="M64.9512 107.723L110.521 128.233L108.761 113.113L86.2012 94.4131C86.2012 94.4131 71.5012 99.9031 64.9512 107.723Z" fill="#E1E0E4"/>
<path d="M40.5712 78.3831L40.5012 78.1531C40.5914 76.9759 40.2736 75.8036 39.6012 74.8331L39.4812 74.6631L38.4812 71.1831L35.3512 72.6631C35.173 72.7165 35.0043 72.7975 34.8512 72.9031C33.4912 73.7831 33.4312 76.0931 34.7112 78.0531C35.9912 80.0131 38.1312 80.8731 39.4912 79.9931C39.767 79.7949 39.9984 79.5414 40.1706 79.2486C40.3428 78.9559 40.452 78.6304 40.4912 78.2931L40.5712 78.3831Z" fill="#27C2EC"/>
<path d="M38.1998 78.5439C38.9715 78.0387 39.0061 76.7264 38.2771 75.6128C37.548 74.4992 36.3315 74.0059 35.5598 74.5111C34.7882 75.0163 34.7536 76.3285 35.4826 77.4422C36.2116 78.5558 37.4281 79.049 38.1998 78.5439Z" fill="#865DFF"/>
<path d="M47.6111 89.4529L47.5512 89.2229C47.6415 88.0489 47.3236 86.8796 46.6511 85.9129L46.5211 85.7329L45.5211 82.2529L42.3811 83.7329C42.2063 83.7945 42.0386 83.875 41.8811 83.9729C40.5311 84.8629 40.4712 87.1629 41.7512 89.1229C43.0312 91.0829 45.1711 91.9529 46.5311 91.0629C46.8083 90.8661 47.0407 90.6129 47.213 90.3199C47.3854 90.0269 47.4938 89.7008 47.5311 89.3629L47.6111 89.4529Z" fill="#27C2EC"/>
<path d="M45.2469 89.6127C46.0186 89.1075 46.0532 87.7953 45.3242 86.6817C44.5952 85.568 43.3786 85.0748 42.607 85.58C41.8353 86.0851 41.8007 87.3974 42.5297 88.511C43.2587 89.6246 44.4752 90.1179 45.2469 89.6127Z" fill="#865DFF"/>
<path d="M47.8612 91.373L31.9312 62.873L40.0312 55.583L38.4112 60.713L67.1712 83.403L47.8612 91.373Z" fill="#E1E0E4"/>
<path d="M283.711 73.6927L162.151 2.77277C161.296 2.26688 160.32 2 159.326 2C158.332 2 157.357 2.26688 156.501 2.77277L124.501 22.0028L255.571 95.4128L255.011 187.763L287.861 170.563C288.577 170.2 289.177 169.644 289.594 168.959C290.011 168.273 290.228 167.485 290.221 166.683L289.491 83.6028C289.472 81.5912 288.928 79.6194 287.915 77.8817C286.901 76.144 285.452 74.7002 283.711 73.6927Z" fill="#F5534F"/>
<path d="M127.521 21.8329L255.571 95.4129C255.939 95.6191 256.245 95.9197 256.457 96.2836C256.67 96.6474 256.782 97.0614 256.781 97.4829L257.011 185.233C257.006 185.66 256.887 186.077 256.666 186.442C256.446 186.808 256.132 187.108 255.757 187.312C255.382 187.515 254.96 187.615 254.534 187.602C254.107 187.588 253.692 187.46 253.331 187.233L123.571 106.103C123.217 105.883 122.926 105.575 122.728 105.208C122.53 104.842 122.431 104.43 122.441 104.013L123.921 23.9129C123.924 23.4926 124.036 23.0804 124.248 22.7171C124.459 22.3538 124.762 22.0521 125.125 21.8418C125.489 21.6316 125.902 21.5201 126.322 21.5186C126.742 21.517 127.156 21.6254 127.521 21.8329Z" fill="#FFC043"/>
<path d="M152.853 41.7644L149.155 39.6294C147.141 38.4669 144.566 39.1568 143.404 41.1704L138.934 48.9126C137.771 50.9263 138.461 53.501 140.475 54.6636L144.173 56.7986C146.186 57.9612 148.761 57.2713 149.924 55.2576L154.394 47.5154C155.556 45.5018 154.866 42.927 152.853 41.7644Z" fill="#865DFF"/>
<path d="M143.301 30.9531L141.001 117.933L153.551 125.003L155.141 37.8431L143.301 30.9531Z" fill="#865DFF"/>
<path d="M142.701 42.7129L143.541 40.3429C143.679 39.9605 143.898 39.6119 144.181 39.3205C144.465 39.029 144.807 38.8014 145.186 38.6528C145.564 38.5042 145.97 38.4381 146.376 38.4588C146.783 38.4795 147.18 38.5866 147.541 38.7729L154.541 42.4929C155.138 42.7898 155.612 43.2865 155.881 43.8968C156.149 44.507 156.196 45.1922 156.011 45.8329L154.751 49.9529" stroke="#FEE5CB" stroke-width="2.23" stroke-linecap="round" stroke-linejoin="round"/>
<path d="M149.071 42.7129L147.661 46.4229" stroke="#FEE5CB" stroke-width="2.23" stroke-linecap="round" stroke-linejoin="round"/>
<path d="M143.301 30.9528L177.031 10.0527L186.581 16.4228L155.141 37.8427L143.301 30.9528Z" fill="#865DFF"/>
<path d="M235.768 89.3933L232.071 87.2583C230.057 86.0958 227.482 86.7857 226.32 88.7993L221.85 96.5416C220.687 98.5552 221.377 101.13 223.391 102.293L227.088 104.428C229.102 105.59 231.677 104.9 232.839 102.887L237.309 95.1443C238.472 93.1307 237.782 90.5559 235.768 89.3933Z" fill="#865DFF"/>
<path d="M226.221 78.583L223.931 165.563L236.481 172.633L238.071 85.473L226.221 78.583Z" fill="#865DFF"/>
<path d="M225.631 90.343L226.471 87.973C226.608 87.5895 226.826 87.2398 227.109 86.9475C227.392 86.6551 227.735 86.4269 228.114 86.2781C228.493 86.1293 228.9 86.0635 229.306 86.085C229.713 86.1066 230.11 86.215 230.471 86.403L237.471 90.123C238.056 90.433 238.516 90.9364 238.771 91.5474C239.026 92.1583 239.062 92.8389 238.871 93.473L237.611 97.593" stroke="#FEE5CB" stroke-width="2.23" stroke-linecap="round" stroke-linejoin="round"/>
<path d="M231.991 90.3428L230.581 94.0528" stroke="#FEE5CB" stroke-width="2.23" stroke-linecap="round" stroke-linejoin="round"/>
<path d="M226.221 78.5831L259.951 57.6831L269.511 64.0531L238.071 85.4731L226.221 78.5831Z" fill="#865DFF"/>
<path d="M141.891 11.7129L264.741 81.1329C264.741 81.1329 273.351 85.1329 273.521 93.6129C273.691 102.093 274.751 177.083 274.751 177.083" stroke="#173C6A" stroke-width="1.49" stroke-linecap="round" stroke-linejoin="round"/>
<path d="M16.8711 149.253L72.3011 158.653C72.51 158.693 72.7076 158.779 72.8802 158.903C73.0529 159.027 73.1965 159.188 73.3011 159.373L89.6911 187.833C89.8925 188.173 90.2192 188.421 90.6011 188.523L131.011 199.253C131.301 199.322 131.561 199.484 131.751 199.713L161.261 233.523C161.489 233.78 161.798 233.95 162.136 234.007C162.475 234.063 162.822 234.002 163.121 233.833L247.581 185.013C247.775 184.899 247.941 184.742 248.066 184.555C248.191 184.368 248.272 184.155 248.304 183.932C248.336 183.709 248.317 183.482 248.249 183.268C248.181 183.053 248.065 182.857 247.911 182.693L212.561 145.693C212.344 145.466 212.06 145.316 211.751 145.263L166.401 137.143C166.07 137.081 165.768 136.912 165.541 136.663L143.631 111.663C143.452 111.453 143.216 111.3 142.951 111.223L100.191 97.9329C99.9938 97.8732 99.7863 97.8548 99.5816 97.8789C99.3768 97.903 99.1792 97.969 99.0011 98.0729L16.3711 146.473C16.0976 146.623 15.8782 146.855 15.7438 147.137C15.6094 147.419 15.5668 147.735 15.622 148.043C15.6773 148.35 15.8276 148.632 16.0517 148.849C16.2758 149.066 16.5624 149.207 16.8711 149.253Z" fill="#F3EFFF"/>
<path d="M30.5712 146.423L99.8112 105.273L136.761 115.013L77.6912 154.173L30.5712 146.423Z" fill="#27C2EC"/>
<path d="M77.6912 154.173L92.7312 180.963L160.721 141.973L136.761 115.013L77.6912 154.173Z" fill="#865DFF"/>
<path d="M92.7312 180.963L139.691 192.083L207.751 150.043L160.721 141.973L92.7312 180.963Z" fill="#27C2EC"/>
<path d="M236.921 181.213L207.751 150.043L139.691 192.083L166.281 224.113L236.921 181.213Z" fill="#865DFF"/>
<path d="M86.9812 111.983L94.4312 131.533" stroke="#FEE5CB" stroke-width="2.23" stroke-linecap="round" stroke-linejoin="round"/>
<path d="M51.5012 132.943L113.791 131.133L143.221 153.103L197.641 156.333L195.831 202.693L167.411 175.883L165.791 155.723L115.201 169.633L86.5712 142.213L42.4312 150.683" stroke="#FEE5CB" stroke-width="2.23" stroke-linecap="round" stroke-linejoin="round"/>
<path d="M86.5712 142.223L113.791 131.133" stroke="#FEE5CB" stroke-width="2.23" stroke-linecap="round" stroke-linejoin="round"/>
<path d="M116.721 181.043L122.421 182.863L130.641 174.883L116.721 181.043Z" fill="#865DFF"/>
<path d="M151.391 168.153L137.481 174.313L143.181 176.133" fill="#865DFF"/>
<path d="M146.151 179.783L132.231 185.943L137.941 187.773" fill="#865DFF"/>
<path d="M60.4112 136.233L46.5012 142.393L52.2012 144.213" fill="#865DFF"/>
<path d="M108.571 116.803L94.6511 122.953L100.351 124.783" fill="#865DFF"/>
<path d="M134.011 92.7329L140.551 96.0729C140.362 101.003 140.853 105.937 142.011 110.733C142.098 111.073 142.209 111.407 142.341 111.733L152.501 137.733C153.509 140.596 154.824 143.342 156.421 145.923L154.121 158.003L165.341 151.203C165.471 151.123 165.611 151.053 165.731 150.963C166.613 150.358 167.351 149.566 167.891 148.643C168.731 147.263 170.891 143.713 175.831 135.803C179.94 128.96 181.365 120.836 179.831 113.003C177.781 101.133 169.041 92.0029 164.171 87.7729C162.491 86.246 160.51 85.0872 158.356 84.3708C156.202 83.6544 153.921 83.3963 151.661 83.6129C149.174 83.9061 146.801 84.8209 144.761 86.2729L134.011 92.7329Z" fill="#F3EFFF"/>
<path d="M141.741 144.193L131.581 118.193C131.452 117.867 131.345 117.533 131.261 117.193C130.491 113.983 126.991 97.653 133.981 92.733C136.021 91.281 138.394 90.3662 140.881 90.073C143.142 89.8559 145.423 90.1147 147.578 90.833C149.732 91.5512 151.713 92.7128 153.391 94.2431C158.261 98.5031 167.011 107.603 169.051 119.473C170.591 127.303 169.166 135.426 165.051 142.263C160.131 150.183 157.961 153.733 157.111 155.113C156.591 156.032 155.874 156.824 155.011 157.433C153.431 158.433 150.931 159.163 148.311 156.043C145.475 152.488 143.254 148.482 141.741 144.193Z" fill="#F5534F"/>
<path d="M156.607 129.028C161.481 126.214 162.17 118.283 158.147 111.315C154.123 104.346 146.911 100.978 142.037 103.792C137.163 106.606 136.474 114.536 140.497 121.505C144.52 128.473 151.733 131.842 156.607 129.028Z" fill="#F3EFFF"/>
<path d="M243.631 88.5728C243.631 88.5728 241.401 106.083 256.861 110.373L256.811 98.5028C256.811 98.5028 257.221 95.8028 255.061 95.1728L243.631 88.5728Z" fill="#27C2EC"/>
<path d="M197.917 35.6013L193.067 32.8013C190.455 31.2935 187.116 32.1883 185.608 34.7998C184.101 37.4113 184.995 40.7505 187.607 42.2583L192.457 45.0583C195.068 46.566 198.407 45.6713 199.915 43.0598C201.423 40.4483 200.528 37.109 197.917 35.6013Z" fill="#27C2EC"/>
<path d="M230.297 54.4199L225.563 51.4291C223.013 49.8187 219.641 50.5799 218.031 53.1293C216.42 55.6788 217.182 59.051 219.731 60.6614L224.466 63.6522C227.015 65.2626 230.387 64.5014 231.998 61.9519C233.608 59.4025 232.847 56.0303 230.297 54.4199Z" fill="#27C2EC"/>
<path d="M233.495 32.8909L192.008 10.2149C189.721 8.96469 186.853 9.80548 185.603 12.0929L184.648 13.8391C183.398 16.1265 184.239 18.9943 186.526 20.2446L228.013 42.9206C230.301 44.1708 233.169 43.33 234.419 41.0426L235.373 39.2964C236.624 37.009 235.783 34.1412 233.495 32.8909Z" fill="#865DFF"/>
<path d="M193.351 18.4028H193.341C190.447 18.4028 188.101 20.7489 188.101 23.6429V35.7228C188.101 38.6168 190.447 40.9628 193.341 40.9628H193.351C196.245 40.9628 198.591 38.6168 198.591 35.7228V23.6429C198.591 20.7489 196.245 18.4028 193.351 18.4028Z" fill="#865DFF"/>
<path d="M225.531 34.2329H225.521C222.627 34.2329 220.281 36.5789 220.281 39.4729V54.3329C220.281 57.2269 222.627 59.5729 225.521 59.5729H225.531C228.425 59.5729 230.771 57.2269 230.771 54.3329V39.4729C230.771 36.5789 228.425 34.2329 225.531 34.2329Z" fill="#865DFF"/>
<path d="M138.941 28.2529V28.3628C137.862 31.5536 135.774 34.3066 132.992 36.2062C130.21 38.1058 126.886 39.0488 123.521 38.8928L123.821 24.6229C123.821 24.6229 123.721 20.7528 127.251 21.7028" fill="#27C2EC"/>
<path d="M167.581 61.6831L201.761 74.2431L201.111 95.7631L167.261 82.6531L167.581 61.6831Z" fill="#27C2EC"/>
<path d="M217.285 138.447C222.372 135.864 223.341 127.559 219.451 119.897C215.56 112.234 208.282 108.117 203.195 110.7C198.108 113.283 197.139 121.588 201.029 129.25C204.92 136.913 212.198 141.03 217.285 138.447Z" fill="#27C2EC"/>
<path d="M173.651 68.063L195.241 75.993L194.821 89.583L173.441 81.303L173.651 68.063Z" fill="#F5534F"/>
<path d="M215.009 134.157C218.491 132.389 219.152 126.701 216.487 121.451C213.821 116.202 208.838 113.379 205.356 115.147C201.875 116.915 201.213 122.604 203.879 127.853C206.544 133.102 211.528 135.925 215.009 134.157Z" fill="#865DFF"/>
</g>
<defs>
<filter id="filter0_d_4804_19477" x="0.526123" y="0" width="299.695" height="252.027" filterUnits="userSpaceOnUse" color-interpolation-filters="sRGB">
<feFlood flood-opacity="0" result="BackgroundImageFix"/>
<feColorMatrix in="SourceAlpha" type="matrix" values="0 0 0 0 0 0 0 0 0 0 0 0 0 0 0 0 0 0 127 0" result="hardAlpha"/>
<feOffset dy="8"/>
<feGaussianBlur stdDeviation="5"/>
<feComposite in2="hardAlpha" operator="out"/>
<feColorMatrix type="matrix" values="0 0 0 0 0 0 0 0 0 0 0 0 0 0 0 0 0 0 0.25 0"/>
<feBlend mode="normal" in2="BackgroundImageFix" result="effect1_dropShadow_4804_19477"/>
<feBlend mode="normal" in="SourceGraphic" in2="effect1_dropShadow_4804_19477" result="shape"/>
</filter>
</defs>
</svg>
