<?xml version="1.0" encoding="UTF-8" standalone="no"?>
<!DOCTYPE svg PUBLIC "-//W3C//DTD SVG 1.1//EN" "http://www.w3.org/Graphics/SVG/1.1/DTD/svg11.dtd">
<svg width="100%" height="100%" viewBox="0 0 62 61" version="1.1" xmlns="http://www.w3.org/2000/svg" xmlns:xlink="http://www.w3.org/1999/xlink" xml:space="preserve" xmlns:serif="http://www.serif.com/" style="fill-rule:evenodd;clip-rule:evenodd;stroke-linejoin:round;stroke-miterlimit:2;">
    <g transform="matrix(1,0,0,1,-133,0)">
        <g id="female_happy" transform="matrix(1,0,0,1,133.848,0.180842)">
            <rect x="0" y="0" width="61" height="60" style="fill:none;"/>
            <g transform="matrix(1.43048,0,0,2.36743,-298.101,-190.645)">
                <ellipse cx="229.714" cy="93.2" rx="20.972" ry="12.672" style="fill:white;"/>
            </g>
            <g>
                <g transform="matrix(1,0,0,1,-133.848,0)">
                    <path d="M140.149,41.951C141.29,39.591 143.096,37.143 145.832,35.361C147.476,34.289 149.299,33.424 151.136,32.743L151.216,32.713C154.587,31.426 157.978,30.713 160.323,30.369L160.41,30.354C162.209,30.029 163.365,29.941 163.365,29.941C163.365,29.941 165.867,29.297 168.941,28.244L169.082,28.196C172.055,27.179 175.53,25.786 177.79,24.232C182.434,21.039 187.724,15.308 187.724,15.308L191.758,17.797C193.423,21.525 194.348,25.655 194.348,30C194.348,30.182 194.347,30.364 194.343,30.545C192.188,34.457 189.324,38.828 186.087,41.645C179.018,47.8 172.743,49.095 172.743,49.095C173.505,52.113 174.03,55.193 174.311,58.303C171.194,59.402 167.84,60 164.348,60C153.463,60 143.925,54.19 138.666,45.505C138.991,44.444 139.444,43.23 140.122,42.007L140.149,41.951ZM156.388,36.315L156.326,36.315C156.347,36.315 156.368,36.315 156.388,36.315ZM156.711,36.31L156.688,36.311L156.639,36.312C156.663,36.311 156.687,36.311 156.711,36.31ZM155.816,36.308C155.862,36.309 155.909,36.31 155.957,36.311C155.923,36.311 155.889,36.31 155.856,36.309L155.816,36.308ZM157.526,36.245C157.371,36.268 157.189,36.287 156.973,36.299C157.189,36.287 157.371,36.268 157.526,36.245ZM155.273,36.28C155.298,36.282 155.323,36.284 155.348,36.285L155.311,36.283L155.273,36.28ZM157.579,36.237L157.553,36.241L157.579,36.237ZM154.832,36.236L154.865,36.24L154.832,36.236ZM157.819,36.19C157.797,36.196 157.773,36.201 157.749,36.206C157.773,36.201 157.797,36.196 157.819,36.19ZM157.9,36.17L157.879,36.175C157.871,36.177 157.864,36.179 157.857,36.181L157.841,36.185C157.861,36.18 157.881,36.175 157.9,36.17ZM154.244,36.146C154.255,36.148 154.265,36.15 154.276,36.152C154.265,36.15 154.255,36.148 154.244,36.146ZM154.06,36.109C154.08,36.114 154.1,36.118 154.12,36.122L154.09,36.116L154.06,36.109ZM158.342,35.925C158.313,35.971 158.256,36.026 158.147,36.079C158.256,36.026 158.313,35.971 158.342,35.925ZM153.882,36.07C153.894,36.073 153.907,36.076 153.919,36.078L153.882,36.07ZM153.124,35.85C153.314,35.916 153.52,35.979 153.744,36.036C153.52,35.979 153.314,35.916 153.124,35.85ZM158.359,35.89L158.357,35.895C158.354,35.903 158.35,35.911 158.345,35.919C158.351,35.909 158.356,35.9 158.359,35.89ZM152.612,35.644C152.745,35.705 152.888,35.764 153.044,35.821L153.021,35.812C152.889,35.764 152.767,35.714 152.652,35.662L152.612,35.644ZM158.369,35.816C158.369,35.813 158.368,35.811 158.368,35.809L158.369,35.816ZM151.575,35.012C151.593,35.027 151.612,35.042 151.632,35.058C151.612,35.042 151.593,35.027 151.575,35.012ZM151.298,34.75C151.302,34.754 151.305,34.758 151.308,34.761C151.305,34.758 151.302,34.754 151.298,34.75ZM168.344,32.315L168.338,32.336L168.344,32.315L168.354,32.281L168.344,32.315ZM159.066,31.366C158.881,31.452 158.69,31.522 158.495,31.577C158.69,31.522 158.881,31.452 159.066,31.366ZM159.308,31.242C159.251,31.274 159.194,31.304 159.136,31.332C159.194,31.304 159.251,31.274 159.308,31.242ZM159.387,31.196C159.37,31.206 159.354,31.216 159.337,31.226C159.354,31.216 159.37,31.206 159.387,31.196ZM168.673,31.014L168.665,31.052L168.673,31.014ZM159.866,30.85C159.859,30.856 159.853,30.862 159.846,30.868C159.853,30.862 159.859,30.856 159.866,30.85ZM160.058,30.671C160.034,30.695 160.01,30.719 159.986,30.742C160.01,30.719 160.034,30.695 160.058,30.671ZM160.113,30.614L160.097,30.63L160.113,30.614ZM160.283,30.421C160.268,30.438 160.253,30.456 160.239,30.473C160.253,30.456 160.268,30.438 160.283,30.421ZM168.947,28.502L168.947,28.554C168.947,28.53 168.947,28.506 168.947,28.482L168.947,28.502ZM158.014,36.134L157.997,36.14L157.978,36.146C157.991,36.142 158.003,36.138 158.014,36.134ZM152.458,35.572C152.483,35.584 152.508,35.596 152.533,35.608L152.495,35.59L152.458,35.572ZM152.349,35.517C152.15,35.413 151.981,35.309 151.841,35.212L151.816,35.195C151.969,35.302 152.158,35.419 152.385,35.535L152.349,35.517ZM151.769,35.162C151.761,35.156 151.754,35.151 151.746,35.145C151.761,35.156 151.777,35.167 151.792,35.179L151.769,35.162Z" style="fill:rgb(66,232,224);"/>
                </g>
                <g transform="matrix(1,0,0,1,-133.848,0)">
                    <path d="M155.663,39.591C154.965,39.398 154.276,39.163 153.601,38.886C149.894,37.406 148.269,34.885 148.729,33.754C149.137,32.731 150.885,31.731 150.885,31.731L158.346,30.363C158.346,30.363 160.295,32.59 160.173,34.585C160.13,35.283 159.908,36.171 159.637,37.031C160.528,37.486 163.029,38.976 163.557,41.594C164.203,44.793 162.731,47.873 162.731,47.873C162.731,47.873 161.789,45.222 161.084,43.159C160.629,41.825 159.625,40.01 158.974,38.895C158.96,38.932 158.945,38.969 158.931,39.005C159.566,40.358 160.516,42.7 160.555,44.668C160.613,47.636 158.082,52.061 158.082,52.061C158.082,52.061 155.434,48.359 155.159,44.668C155.015,42.953 155.187,41.228 155.663,39.591Z" style="fill:rgb(238,229,243);fill-rule:nonzero;"/>
                </g>
                <g transform="matrix(1,0,0,1,-133.848,0)">
                    <path d="M149.96,18.844C151.448,15.766 154.744,10.783 158.71,15.756L159.894,18.767L159.941,18.892C160.918,21.536 161.962,25.331 161.405,27.998C160.931,30.265 159.73,31.271 158.357,31.615L158.334,31.62L158.334,33.412L158.366,35.803C158.366,35.803 158.583,36.368 155.978,36.312C152.478,36.261 151.276,34.723 151.276,34.723L150.884,29.152L150.878,29.145C150.242,29.386 149.551,29.406 148.903,29.203C148.256,29 147.685,28.584 147.271,28.015C145.746,25.992 146.498,23.527 147.679,22.9C148.86,22.273 150.327,23.126 150.327,23.126L149.082,20.865C149.082,20.865 149.391,19.985 149.96,18.844Z" style="fill:rgb(255,192,148);"/>
                </g>
                <path d="M18.643,30.483L20.471,31.299C21.621,31.66 23.139,31.96 24.492,31.619L24.492,33.409C22.92,33.3 20.128,32.769 18.643,30.483Z"/>
                <g transform="matrix(1,0,0,1,-133.848,0)">
                    <path d="M148.862,25.626L147.887,24.624C147.862,24.598 147.842,24.567 147.829,24.533C147.816,24.499 147.809,24.463 147.809,24.426C147.809,24.389 147.816,24.353 147.829,24.319C147.842,24.285 147.862,24.254 147.887,24.228C147.911,24.202 147.94,24.181 147.973,24.166C148.005,24.152 148.04,24.145 148.075,24.145C148.109,24.145 148.144,24.152 148.176,24.166C148.209,24.181 148.238,24.202 148.262,24.228L149.567,25.569C149.589,25.585 149.608,25.604 149.623,25.626L150.381,26.404C150.418,26.443 150.445,26.493 150.456,26.548C150.467,26.602 150.462,26.659 150.443,26.712C150.424,26.764 150.391,26.808 150.347,26.84C150.304,26.872 150.253,26.889 150.201,26.89L150.19,26.879C150.156,26.88 150.121,26.874 150.09,26.86C150.058,26.846 150.029,26.826 150.005,26.8L149.336,26.112L148.081,26.379L148.028,26.374C147.967,26.374 147.908,26.351 147.86,26.31C147.813,26.269 147.781,26.211 147.768,26.148C147.756,26.074 147.77,25.999 147.809,25.937C147.847,25.874 147.907,25.83 147.975,25.814L148.862,25.626Z" style="fill-rule:nonzero;"/>
                </g>
                <g transform="matrix(1,0,0,1,-133.848,0)">
                    <path d="M149.832,29.341C150.186,29.338 150.54,29.273 150.878,29.145L150.884,29.152L151.136,32.743C149.299,33.424 147.476,34.289 145.832,35.361C143.075,37.157 141.261,39.629 140.122,42.007C139.556,41.447 139.09,40.788 138.713,40.067C138.069,38.837 137.704,37.463 137.646,36.055C137.498,31.279 142.417,22.027 142.417,22.027C141.193,23.251 141.193,24.066 138.746,23.659C142.166,21.361 141.601,20.395 141.601,20.395L142.894,20.155C143.033,16.701 144.402,12.665 148.053,10.788C153.592,7.939 160.2,13.178 160.513,14.959C160.636,15.662 160.456,16.722 160.189,17.745C161.098,18.459 162.428,19.704 162.821,21.128C162.821,21.128 166.48,23.253 168.201,25.605C168.728,26.324 168.932,27.273 168.941,28.244C165.867,29.297 163.365,29.941 163.365,29.941C163.365,29.941 162.172,30.032 160.323,30.369C160.815,29.818 161.187,29.042 161.405,27.998C161.962,25.331 160.918,21.536 159.941,18.892L159.894,18.767L159.246,17.12L159.285,17.113L159.282,17.105C158.644,17.065 158.011,16.954 157.394,16.775C156.181,16.447 155.651,14.842 155.651,14.842C155.651,14.842 155.651,16.096 154.592,18.64C153.533,21.183 150.356,23.116 150.356,23.116L150.288,23.055L150.327,23.126C150.327,23.126 149.553,22.676 148.676,22.67L148.648,22.67C148.327,22.671 147.993,22.733 147.679,22.9C146.498,23.527 145.746,25.992 147.271,28.015C147.685,28.584 148.256,29 148.903,29.203C149.197,29.295 149.499,29.341 149.801,29.341L149.832,29.341Z" style="fill:rgb(34,164,58);"/>
                </g>
                <path d="M24.784,21.291C24.756,21.297 24.727,21.297 24.699,21.291C24.633,21.267 24.579,21.216 24.548,21.149C24.517,21.083 24.513,21.006 24.535,20.935C24.566,20.845 24.847,20.048 25.398,19.986C25.742,19.952 26.07,20.206 26.372,20.743C26.407,20.807 26.416,20.884 26.398,20.955C26.38,21.027 26.337,21.088 26.277,21.126C26.217,21.164 26.146,21.175 26.079,21.157C26.011,21.14 25.953,21.094 25.917,21.031C25.71,20.664 25.546,20.545 25.451,20.551C25.355,20.557 25.112,20.89 25.032,21.116C25.014,21.17 24.979,21.215 24.935,21.247C24.89,21.278 24.837,21.294 24.784,21.291Z" style="fill-rule:nonzero;"/>
                <path d="M24.609,19.198C24.56,19.199 24.512,19.185 24.471,19.158C24.441,19.138 24.416,19.113 24.395,19.083C24.375,19.052 24.36,19.018 24.353,18.982C24.345,18.946 24.344,18.908 24.35,18.871C24.355,18.835 24.368,18.8 24.386,18.768C24.467,18.612 24.579,18.478 24.715,18.374C24.85,18.27 25.006,18.2 25.17,18.169C25.644,18.136 26.112,18.293 26.483,18.61C26.514,18.631 26.54,18.66 26.559,18.693C26.579,18.726 26.592,18.763 26.598,18.801C26.604,18.84 26.602,18.879 26.593,18.917C26.583,18.955 26.567,18.99 26.544,19.021C26.521,19.052 26.493,19.077 26.46,19.095C26.428,19.113 26.392,19.124 26.355,19.127C26.319,19.13 26.282,19.124 26.248,19.111C26.213,19.098 26.182,19.078 26.155,19.051C25.901,18.829 25.582,18.713 25.255,18.723C25.166,18.744 25.083,18.786 25.011,18.844C24.939,18.903 24.879,18.977 24.836,19.062C24.813,19.104 24.78,19.139 24.74,19.163C24.7,19.186 24.654,19.198 24.609,19.198Z" style="fill-rule:nonzero;"/>
                <path d="M20.466,22.203L20.402,22.203C20.369,22.194 20.337,22.177 20.309,22.155C20.281,22.133 20.258,22.105 20.24,22.073C20.222,22.041 20.211,22.005 20.206,21.968C20.201,21.932 20.203,21.894 20.212,21.858C20.245,21.656 20.325,21.466 20.444,21.305C20.564,21.145 20.718,21.018 20.895,20.937C21.148,20.872 21.411,20.866 21.666,20.917C21.922,20.969 22.164,21.078 22.377,21.236C22.436,21.278 22.476,21.342 22.49,21.415C22.504,21.488 22.49,21.564 22.452,21.626C22.433,21.658 22.408,21.685 22.38,21.706C22.351,21.727 22.319,21.741 22.285,21.749C22.251,21.756 22.215,21.756 22.181,21.748C22.147,21.741 22.115,21.726 22.086,21.705C21.793,21.489 21.432,21.402 21.08,21.462C20.981,21.517 20.897,21.598 20.835,21.697C20.773,21.796 20.735,21.909 20.725,22.028C20.704,22.081 20.668,22.127 20.621,22.158C20.575,22.19 20.521,22.205 20.466,22.203Z" style="fill-rule:nonzero;"/>
                <path d="M20.116,20.312C20.078,20.311 20.04,20.301 20.005,20.284C19.941,20.253 19.891,20.197 19.866,20.127C19.842,20.057 19.844,19.979 19.873,19.911C20.339,18.82 21.609,19.035 21.662,19.046C21.733,19.058 21.796,19.1 21.837,19.161C21.879,19.223 21.896,19.299 21.885,19.374C21.874,19.449 21.835,19.516 21.777,19.561C21.72,19.605 21.648,19.624 21.578,19.612C21.541,19.612 20.651,19.459 20.354,20.177C20.33,20.221 20.295,20.256 20.253,20.28C20.211,20.304 20.164,20.315 20.116,20.312Z" style="fill-rule:nonzero;"/>
                <g transform="matrix(1,0,0,1,-133.848,0)">
                    <path d="M140.24,47.849C140.244,47.82 140.252,47.792 140.263,47.767C140.277,47.733 140.298,47.702 140.323,47.677C140.349,47.652 140.379,47.633 140.411,47.62C140.444,47.607 140.478,47.602 140.513,47.604C140.548,47.606 140.582,47.615 140.613,47.631C140.695,47.671 146.59,50.623 150.42,56.573C150.07,56.389 149.725,56.198 149.383,56.001C145.965,51.21 141.312,48.628 140.51,48.207C140.419,48.088 140.329,47.969 140.24,47.849Z" style="fill:rgb(238,229,243);fill-rule:nonzero;"/>
                </g>
                <path d="M38.896,49.374C38.839,49.374 38.782,49.353 38.736,49.315C38.69,49.277 38.657,49.224 38.642,49.165C38.642,49.114 37.435,44.372 36.852,43.287C36.835,43.255 36.823,43.22 36.818,43.183C36.813,43.146 36.815,43.109 36.824,43.073C36.833,43.037 36.848,43.004 36.87,42.974C36.891,42.945 36.917,42.921 36.948,42.903C37.009,42.865 37.082,42.855 37.15,42.874C37.218,42.893 37.277,42.94 37.313,43.004C37.927,44.135 39.103,48.82 39.156,49.018C39.165,49.054 39.167,49.091 39.162,49.128C39.157,49.165 39.145,49.2 39.128,49.232C39.11,49.264 39.087,49.292 39.059,49.315C39.031,49.337 38.999,49.353 38.965,49.362L38.896,49.374Z" style="fill:rgb(238,229,243);fill-rule:nonzero;"/>
                <path d="M44.8,30.402C44.658,30.402 44.516,30.378 44.382,30.329C42.724,29.764 41.242,26.045 41.204,25.881C41.184,25.828 41.179,25.77 41.19,25.715C41.202,25.659 41.229,25.609 41.268,25.57C41.306,25.531 41.354,25.505 41.406,25.496C41.458,25.487 41.512,25.495 41.559,25.519C42.009,25.734 45.933,27.695 46.044,29.232C46.056,29.419 46.017,29.604 45.932,29.767C45.848,29.93 45.721,30.065 45.568,30.154C45.342,30.319 45.074,30.406 44.8,30.402ZM41.967,26.367C42.533,27.599 43.556,29.475 44.535,29.792C44.654,29.834 44.781,29.846 44.905,29.827C45.03,29.807 45.148,29.756 45.25,29.679C45.478,29.515 45.499,29.374 45.488,29.278C45.43,28.509 43.513,27.22 41.967,26.39L41.967,26.367Z" style="fill:rgb(238,229,243);fill-rule:nonzero;"/>
                <g transform="matrix(1,0,0,1,-133.848,0)">
                    <path d="M156.739,39.297C156.564,39.331 156.389,39.359 156.212,39.381L156.053,39.381C154.957,39.257 154.427,36.781 154.464,35.798C154.468,35.724 154.498,35.654 154.548,35.603C154.598,35.552 154.665,35.522 154.734,35.521C154.77,35.522 154.804,35.53 154.837,35.545C154.869,35.56 154.898,35.582 154.922,35.61C154.946,35.637 154.965,35.669 154.977,35.705C154.99,35.74 154.995,35.777 154.994,35.815C154.962,36.945 155.576,38.76 156.122,38.822C156.858,38.753 157.577,38.538 158.24,38.189C157.864,37.505 157.022,35.821 157.361,34.899C157.419,34.758 157.507,34.633 157.618,34.535C157.729,34.437 157.861,34.368 158.002,34.334C158.134,34.287 158.276,34.28 158.412,34.313C158.549,34.346 158.674,34.417 158.775,34.521C159.511,35.278 158.992,37.912 158.881,38.403C158.867,38.465 158.836,38.52 158.791,38.562L158.738,38.596C158.291,38.827 157.825,39.013 157.347,39.15C157.636,39.922 158.649,42.773 158.117,43.81C158.064,43.918 157.989,44.012 157.897,44.086C157.806,44.159 157.7,44.21 157.588,44.234L157.434,44.245C157.342,44.246 157.252,44.227 157.167,44.189C157.082,44.151 157.006,44.095 156.942,44.025C156.219,43.248 156.584,40.326 156.739,39.297ZM157.153,40.221C157,41.651 156.968,43.251 157.318,43.612C157.338,43.635 157.363,43.651 157.391,43.66C157.419,43.669 157.448,43.67 157.477,43.663C157.514,43.657 157.549,43.641 157.579,43.618C157.609,43.594 157.634,43.563 157.651,43.528C157.921,43.013 157.567,41.487 157.153,40.221ZM158.266,34.826L158.15,34.826C158.086,34.838 158.026,34.867 157.976,34.91C157.926,34.954 157.888,35.01 157.864,35.075C157.684,35.572 158.081,36.646 158.51,37.494C158.674,36.425 158.727,35.188 158.42,34.871C158.399,34.853 158.374,34.839 158.348,34.832C158.321,34.824 158.294,34.822 158.266,34.826Z" style="fill:rgb(66,232,224);fill-rule:nonzero;"/>
                </g>
            </g>
        </g>
    </g>
</svg>
