<svg width="128" height="128" viewBox="0 0 128 128" fill="none" xmlns="http://www.w3.org/2000/svg">
<path d="M113.328 104.233L27.9247 116.387C27.1881 116.492 26.4381 116.451 25.7174 116.266C24.9968 116.081 24.3196 115.756 23.7246 115.31C23.1296 114.863 22.6284 114.304 22.2496 113.664C21.8709 113.024 21.622 112.315 21.5172 111.579L11.9208 44.2064C11.7091 42.7195 12.097 41.2094 12.9992 40.0083C13.9014 38.8073 15.2439 38.0136 16.7316 37.8019L102.135 25.648C102.871 25.543 103.622 25.5841 104.343 25.769C105.064 25.954 105.741 26.279 106.336 26.7257C106.931 27.1723 107.433 27.7318 107.811 28.3721C108.19 29.0125 108.439 29.7211 108.544 30.4576L118.14 97.8285C118.245 98.5649 118.203 99.3146 118.018 100.035C117.833 100.755 117.508 101.432 117.061 102.027C116.614 102.622 116.054 103.123 115.414 103.501C114.773 103.88 114.065 104.128 113.328 104.233Z" fill="#F4F4F7"/>
<path d="M106.495 41.7667V101.076C106.496 101.515 106.409 101.95 106.241 102.356C106.073 102.762 105.827 103.13 105.516 103.441C105.205 103.751 104.836 103.998 104.43 104.166C104.024 104.334 103.589 104.42 103.15 104.42H15.1483C14.9582 104.42 14.7681 104.413 14.5815 104.395C11.4508 104.16 9 101.963 9 99.2878C9 96.6128 11.4508 94.4131 14.5815 94.1769C14.7681 94.1598 14.9582 94.1524 15.1483 94.1524C16.5293 94.1524 17.8041 94.5324 18.8288 95.1732V25.2231H88.4186L106.495 41.7667Z" fill="#F4F4F7"/>
<path d="M28.9336 69.6606H38.1778L48.566 76.3481L53.8483 81.7158L32.4548 90.6915L28.9336 69.6606Z" fill="#FFC043"/>
<path d="M83.2539 51.0932L91.265 41.7661H106.495L106.245 67.6648L83.2539 51.0932Z" fill="#FFC043"/>
<path d="M78.8725 104.42H71.0795L68.5105 101.339C65.6368 97.8863 64.0616 93.5381 64.0577 89.0472C64.0642 86.8189 63.504 84.6256 62.4298 82.6732C61.3555 80.7208 59.8023 79.0733 57.9162 77.8855L44.105 69.1284C38.5161 65.5873 35.1816 59.5263 35.1816 52.9124V25.2231H41.1678V52.9141C41.1619 55.1423 41.7227 57.3354 42.7976 59.2874C43.8725 61.2395 45.4262 62.8864 47.3128 64.0734L61.1245 72.8311C66.7128 76.3723 70.0479 82.4333 70.0479 89.0472C70.0503 92.1392 71.1339 95.1331 73.1112 97.511L78.8725 104.42Z" fill="#27C2EC"/>
<path d="M18.8317 22.678V95.1707C17.8041 94.5299 16.5322 94.1499 15.1513 94.1499C14.9612 94.1499 14.7711 94.1573 14.5844 94.1744C11.4537 94.4107 9.00293 96.6104 9.00293 99.2854V26.7927C9.00293 23.9556 11.7568 21.6572 15.1513 21.6572C16.5322 21.6572 17.807 22.0373 18.8317 22.678Z" fill="#F4F4F7"/>
<g opacity="0.55">
<path opacity="0.55" d="M18.8317 22.678V23.5505C18.3734 23.4611 17.9075 23.4163 17.4405 23.417C14.0455 23.417 11.2921 25.7154 11.2921 28.5524V95.2888C9.89749 96.232 9.00293 97.6717 9.00293 99.287V26.7927C9.00293 23.9556 11.7568 21.6572 15.1513 21.6572C16.5322 21.6572 17.807 22.0373 18.8317 22.678Z" fill="white"/>
</g>
<path d="M106.495 41.7667H92.6444C91.524 41.7667 90.4495 41.3219 89.6572 40.53C88.865 39.7381 88.4199 38.6641 88.4199 37.5442V25.2231L106.495 41.7667Z" fill="#F4F4F7"/>
<g opacity="0.3">
<path opacity="0.3" d="M106.45 46.4584H94.9906C93.8702 46.4584 92.7957 46.0136 92.0034 45.2217C91.2112 44.4298 90.7661 43.3558 90.7661 42.236V41.3281C91.3504 41.6183 91.9941 41.7689 92.6466 41.7681H106.31L106.45 46.4584Z" fill="#865DFF"/>
<path opacity="0.3" d="M106.631 46.6339H94.9904C93.8233 46.6326 92.7045 46.1686 91.8792 45.3437C91.054 44.5189 90.5897 43.4005 90.5884 42.234V41.042L90.843 41.1687C91.4028 41.4473 92.0199 41.5915 92.6452 41.5898H106.48L106.631 46.6339ZM90.9406 41.6V42.234C90.9415 43.3073 91.3685 44.3363 92.1278 45.0953C92.8871 45.8542 93.9166 46.281 94.9904 46.2819H106.269L106.138 41.9418H92.6452C92.0598 41.9434 91.4801 41.8272 90.9406 41.6V41.6Z" fill="#865DFF"/>
</g>
<path d="M95.0509 104.419H91.1769V84.9082L52.1598 52.2335L49.9819 25.3791L53.8428 25.0664L55.8899 50.306L95.0509 83.1005V104.419Z" fill="white"/>
<path d="M34.8324 104.419H30.959V89.7887L58.4741 77.4888L71.1744 65.3525L73.8512 68.1514L60.6668 80.7503L34.8324 92.2983V104.419Z" fill="white"/>
<path d="M71.6484 25.2231L73.6128 37.1905L82.1965 36.5748L81.3162 25.2231H71.6484Z" fill="#FFC043"/>
<path d="M30.9856 91.362L25.6211 59.1889H18.8311V55.3174H28.9025L34.8065 90.7252L30.9856 91.362Z" fill="white"/>
<path d="M30.9593 25.2231L27.614 43.8785L18.8311 48.982V25.2231H30.9593Z" fill="#B6B6C7"/>
<path d="M27.6834 59.1423L26.8379 55.3643L53.2866 49.4511L67.3901 40.8002L64.7926 25.5473L68.6112 24.8979L71.6482 42.7317L54.7623 53.0882L27.6834 59.1423Z" fill="white"/>
<path d="M105.983 68.6184L98.5717 66.5865L68.3369 43.2989L70.7015 40.2319L100.332 63.0545L107.007 64.885L105.983 68.6184Z" fill="white"/>
<path d="M106.495 92.6279H93.1133V96.4995H106.495V92.6279Z" fill="white"/>
<path d="M76.9749 79.0405L87.6726 86.4681V96.4993L82.9012 97.0277L73.8511 82.479L76.9749 79.0405Z" fill="#B6B6C7"/>
<path d="M65.0293 50.1255L69.5192 47.0459L82.1967 57.165L78.8725 61.3008L65.0293 50.1255Z" fill="#B6B6C7"/>
<path d="M37.2388 94.1824V102.102L58.984 97.4382L57.6739 85.2969L37.2388 94.1824Z" fill="#B6B6C7"/>
<path d="M41.3909 2C32.6399 2 25.5439 9.08921 25.5439 17.8395C25.5439 24.2137 33.9644 36.0652 38.528 42.0275C38.865 42.4669 39.2987 42.8228 39.7954 43.0678C40.2922 43.3128 40.8387 43.4402 41.3926 43.4402C41.9465 43.4402 42.493 43.3128 42.9898 43.0678C43.4866 42.8228 43.9202 42.4669 44.2573 42.0275C48.8214 36.0652 57.2379 24.2137 57.2379 17.8395C57.2379 9.08921 50.1436 2 41.3909 2ZM41.3909 24.1572C40.0676 24.1571 38.7741 23.7648 37.6739 23.0299C36.5737 22.295 35.7162 21.2505 35.2099 20.0285C34.7036 18.8065 34.5712 17.4619 34.8294 16.1647C35.0877 14.8675 35.7249 13.6759 36.6607 12.7407C37.5964 11.8055 38.7886 11.1687 40.0864 10.9107C41.3842 10.6527 42.7295 10.7851 43.952 11.2913C45.1745 11.7975 46.2194 12.6546 46.9546 13.7544C47.6898 14.8541 48.0821 16.1471 48.0821 17.4697C48.0818 19.2433 47.3768 20.9443 46.122 22.1984C44.8672 23.4525 43.1654 24.1571 41.3909 24.1572Z" fill="#F5534F"/>
<g opacity="0.3">
<path opacity="0.3" d="M23.2713 25.2231V104.42H15.1483C14.9582 104.42 14.7681 104.413 14.5815 104.395C11.4508 104.16 9 101.963 9 99.2878C9 96.6128 11.4508 94.4131 14.5815 94.1769C14.7681 94.1598 14.9582 94.1524 15.1483 94.1524C16.5293 94.1524 17.8041 94.5324 18.8288 95.1732V25.2231H23.2713Z" fill="#865DFF"/>
</g>
<g opacity="0.3">
<path opacity="0.3" d="M22.0559 108.295C22.9122 108.295 95.6698 106.747 95.6698 106.747L98.6076 104.834H20.5557L22.0559 108.295Z" fill="#865DFF"/>
</g>
<path d="M110.18 117.352L102.366 123.26L81.6987 96.2489L89.5129 90.3408L110.18 117.352Z" fill="#27C2EC"/>
<path d="M109.237 123.938L109.147 124.007C106.682 125.87 103.552 125.883 102.151 124.035L85.9956 103.019L95.1091 95.8125L111.17 117.218C112.566 119.066 111.702 122.075 109.237 123.938Z" fill="#865DFF"/>
<path d="M86.3938 102.817L95.0648 95.9608C95.2081 95.8468 95.3042 95.6838 95.3346 95.5033C95.3649 95.3227 95.3274 95.1373 95.2292 94.9828L95.163 94.8789C95.1068 94.7915 95.0328 94.717 94.9459 94.66C94.8589 94.6031 94.761 94.565 94.6584 94.5483C94.5559 94.5315 94.4509 94.5365 94.3504 94.5629C94.2499 94.5893 94.156 94.6365 94.0749 94.7015L85.4604 101.65C85.384 101.712 85.3208 101.788 85.2743 101.875C85.2277 101.961 85.1989 102.056 85.1895 102.154C85.18 102.252 85.1901 102.351 85.2192 102.445C85.2483 102.539 85.2957 102.626 85.3588 102.701L85.3679 102.713C85.492 102.86 85.6684 102.953 85.8597 102.972C86.0511 102.992 86.2426 102.936 86.3938 102.817Z" fill="#27C2EC"/>
<path opacity="0.3" d="M69.3928 97.044C84.1034 97.044 96.0287 85.1244 96.0287 70.4207C96.0287 55.717 84.1034 43.7974 69.3928 43.7974C54.6822 43.7974 42.7568 55.717 42.7568 70.4207C42.7568 85.1244 54.6822 97.044 69.3928 97.044Z" fill="#27C2EC"/>
<path d="M69.7952 98.6825C62.746 98.674 55.9513 96.0488 50.7291 91.3162C45.5068 86.5836 42.2294 80.0809 41.5324 73.0696C40.8355 66.0583 42.7688 59.0381 46.9574 53.371C51.1459 47.7038 57.291 43.7936 64.2007 42.3989C71.1104 41.0042 78.292 42.2244 84.3525 45.8228C90.4131 49.4212 94.9204 55.1413 97.0002 61.8735C99.08 68.6057 98.5841 75.87 95.6085 82.2573C92.6329 88.6447 87.3899 93.6997 80.8965 96.4418C77.3846 97.9276 73.6088 98.6897 69.7952 98.6825V98.6825ZM69.7952 45.4364C63.6797 45.4448 57.7853 47.7231 53.2553 51.8295C48.7254 55.9359 45.8828 61.5777 45.2789 67.6604C44.6751 73.7431 46.3531 79.8332 49.9874 84.7493C53.6217 89.6654 58.9532 93.0571 64.9478 94.2665C70.9424 95.4758 77.1728 94.4166 82.4303 91.2944C87.6878 88.1721 91.5977 83.2093 93.4016 77.3687C95.2054 71.5281 94.7747 65.226 92.1929 59.6848C89.6111 54.1437 85.0622 49.7585 79.4287 47.3799C76.3811 46.0909 73.1045 45.4299 69.7952 45.4364Z" fill="#865DFF"/>
<g opacity="0.22">
<path opacity="0.22" d="M51.97 63.7306C54.857 55.8157 62.6957 50.6505 71.1252 51.3678C79.5337 52.0833 86.5126 58.5786 87.8993 66.8974C88.2898 69.242 91.9576 68.8084 91.566 66.4603C89.9676 56.8838 82.4223 49.3587 72.831 47.8586C63.3796 46.379 54.0594 51.4237 49.6534 59.7991C49.2332 60.6122 48.8683 61.4527 48.5613 62.3149C47.749 64.5402 51.1525 65.9759 51.9712 63.7323L51.97 63.7306Z" fill="white"/>
</g>
<path opacity="0.31" d="M92.1144 74.5452C92.5731 73.2834 91.9216 71.8889 90.6592 71.4304C89.3969 70.9719 88.0017 71.623 87.543 72.8848C87.0843 74.1466 87.7357 75.5411 88.9981 75.9996C90.2605 76.4581 91.6557 75.8069 92.1144 74.5452Z" fill="white"/>
</svg>
