<svg width="98" height="18" viewBox="0 0 98 18" fill="none" xmlns="http://www.w3.org/2000/svg">
<g clip-path="url(#clip0_14206_200782)">
<path d="M54.4378 8.92766C54.4378 6.66754 54.4355 4.40742 54.4378 2.14844C54.44 0.944263 55.0348 0.277174 56.1909 0.271472C58.5656 0.260069 60.9403 0.246385 63.3139 0.309103C65.9092 0.377522 67.6434 2.18037 67.8539 4.83505C67.9609 6.17949 67.7459 7.40533 66.9317 8.48294C66.7668 8.70074 66.7925 8.81135 66.9874 8.98468C68.9678 10.7499 68.7606 13.7866 67.9119 15.383C67.1667 16.7845 65.9537 17.4641 64.4501 17.6534C63.0277 17.8324 61.5964 17.7161 60.1685 17.7355C58.8887 17.7526 57.6077 17.7424 56.3279 17.7378C55.0615 17.7332 54.4411 17.1049 54.4389 15.8198C54.4344 13.522 54.4389 11.2243 54.4389 8.92652L54.4378 8.92766ZM61.0239 14.8767C61.5429 14.8767 62.062 14.8995 62.5799 14.8722C63.7896 14.8083 64.7352 13.7718 64.7207 12.5528C64.7062 11.3486 63.765 10.3565 62.5576 10.3348C61.1319 10.3097 59.7051 10.3348 58.2794 10.3234C57.9887 10.3211 57.8951 10.4146 57.9018 10.7134C57.9196 11.5664 57.8918 12.4205 57.9152 13.2723C57.9397 14.1903 58.5723 14.8345 59.469 14.8722C59.9869 14.8938 60.506 14.8756 61.025 14.8767H61.0239ZM60.1974 3.09377C59.567 3.09377 58.9365 3.1086 58.3061 3.08693C57.9864 3.07667 57.8918 3.18842 57.9007 3.50999C57.9218 4.23067 57.894 4.9525 57.9118 5.67318C57.933 6.55009 58.5033 7.14306 59.3453 7.16016C60.1974 7.17727 61.0506 7.16701 61.9038 7.16358C63.0823 7.16016 63.9622 6.31176 63.97 5.176C63.9778 3.99691 63.1179 3.11772 61.9216 3.09491C61.3469 3.08465 60.7722 3.09263 60.1974 3.09263V3.09377Z" fill="white"/>
<path d="M0.0111001 9.58142C0.0111001 7.11262 0.00887238 4.64268 0.0122139 2.17388C0.0144416 0.934352 0.644874 0.269543 1.86119 0.267263C5.8142 0.25814 9.7661 0.268403 13.7191 0.255859C14.0934 0.255859 14.2593 0.335682 14.2259 0.755321C14.1903 1.20803 14.2326 1.66758 14.2137 2.12257C14.1702 3.18991 13.5097 3.8456 12.4705 3.84902C10.1693 3.85472 7.86812 3.84902 5.56804 3.8513C4.61794 3.8513 4.37512 4.09875 4.37289 5.05662C4.37289 5.56976 4.36955 6.08291 4.37289 6.59491C4.37846 7.39998 4.28601 7.30876 5.10023 7.3099C7.2711 7.31332 9.44309 7.32586 11.614 7.29963C12.0918 7.29393 12.2288 7.44674 12.1876 7.90971C12.1508 8.32479 12.1909 8.74556 12.1742 9.16292C12.1319 10.228 11.4825 10.8837 10.4311 10.8917C8.59434 10.9053 6.75651 10.9088 4.91979 10.886C4.49096 10.8802 4.35507 10.9874 4.36175 11.447C4.38849 13.365 4.36175 15.2842 4.3818 17.2022C4.38626 17.615 4.30049 17.7655 3.86498 17.753C2.75226 17.7199 1.63842 17.7233 0.525694 17.753C0.113573 17.7632 -0.00449369 17.6538 -0.00115217 17.2193C0.0200108 14.6741 0.00998622 12.1289 0.00998622 9.5837L0.0111001 9.58142Z" fill="white"/>
<path d="M93.8599 0.209455C95.0105 0.209455 96.1611 0.224279 97.3106 0.201473C97.6759 0.194631 97.8073 0.302962 97.7795 0.679268C97.7505 1.0761 97.7784 1.47635 97.7717 1.87547C97.7517 3.11158 97.0778 3.80717 95.8581 3.81744C94.1695 3.83112 92.4821 3.822 90.7935 3.822C90.0873 3.822 89.5839 4.17208 89.2909 4.8061C89.0047 5.42643 89.1027 6.0308 89.5193 6.56676C89.8512 6.99438 90.299 7.17569 90.8325 7.18481C91.777 7.20192 92.7238 7.11297 93.6661 7.25323C96.0608 7.60673 97.8319 9.61712 97.9911 12.1669C98.1337 14.4521 96.5131 16.7977 94.3411 17.4409C93.9501 17.5572 93.5536 17.6678 93.1415 17.6712C91.2312 17.6849 89.321 17.7225 87.4108 17.6929C86.3259 17.6769 85.7244 16.9927 85.6854 15.8718C85.671 15.4544 85.701 15.0348 85.6721 14.6197C85.6442 14.2229 85.7801 14.1077 86.1711 14.1123C88.3041 14.1317 90.4382 14.1271 92.5712 14.1191C93.5926 14.1146 94.3389 13.4258 94.3689 12.4885C94.4012 11.4895 93.6962 10.7529 92.6558 10.7255C91.8962 10.7061 91.1343 10.7346 90.3747 10.7107C88.3419 10.6457 86.5654 9.33888 85.8525 7.40603C85.123 5.42985 85.613 3.15377 87.0766 1.73635C88.1203 0.726021 89.3544 0.203753 90.798 0.209455C91.8182 0.214016 92.8385 0.209455 93.8588 0.209455H93.8599Z" fill="white"/>
<path d="M83.8086 6.99469C83.8086 8.8557 83.8275 10.7167 83.8042 12.5777C83.7663 15.6212 82.3194 17.3887 79.4011 17.8243C77.7293 18.0741 76.0273 18.0684 74.3577 17.74C72.0621 17.2884 70.5651 15.5163 70.5283 13.092C70.4715 9.35174 70.5005 5.61034 70.5127 1.86894C70.5161 0.95554 71.1498 0.307837 72.0543 0.243979C72.5343 0.209769 73.02 0.259943 73.5 0.222313C73.9311 0.189243 74.0625 0.31924 74.0603 0.783352C74.0402 4.48598 74.048 8.18975 74.0492 11.8935C74.0492 13.7887 74.9146 14.6691 76.7781 14.6713C77.149 14.6713 77.521 14.6793 77.8908 14.6668C79.341 14.6178 80.2722 13.6451 80.2744 12.1592C80.28 8.85456 80.2755 5.5499 80.2766 2.24639C80.2766 0.823263 80.848 0.226874 82.2292 0.237137C82.7248 0.240558 83.3642 0.0181947 83.6783 0.332924C83.9946 0.648793 83.773 1.30562 83.7774 1.81192C83.7908 3.53951 83.7819 5.26824 83.7819 6.99583C83.7908 6.99583 83.7997 6.99583 83.8086 6.99583V6.99469Z" fill="white"/>
<path d="M16.0549 8.36005C16.0549 5.85362 16.0683 3.34719 16.0426 0.841899C16.0371 0.353841 16.1796 0.226125 16.6341 0.253492C17.2623 0.292263 17.895 0.258054 18.5254 0.263755C19.8509 0.276299 20.4679 0.902336 20.4701 2.25932C20.4757 5.80915 20.4701 9.36011 20.4735 12.9099C20.4735 13.1369 20.4557 13.3798 20.5258 13.5861C20.6651 13.9944 20.9881 14.1267 21.4058 14.1244C23.5198 14.1141 25.635 14.1301 27.7491 14.1107C28.1668 14.1073 28.3606 14.1905 28.3082 14.6626C28.2659 15.0378 28.3015 15.4209 28.2993 15.8007C28.2904 17.0425 27.6655 17.6947 26.4414 17.7039C24.9389 17.7164 23.4363 17.7073 21.9348 17.7073C20.5994 17.7073 19.2639 17.7153 17.9284 17.705C16.682 17.6959 16.0582 17.0459 16.056 15.763C16.0515 13.2954 16.0549 10.8266 16.0549 8.35891V8.36005Z" fill="white"/>
<path d="M39.7484 0C40.4078 0.0444726 40.9848 0.280519 41.3813 0.839278C43.2414 3.46544 45.0893 6.10073 46.9516 8.72461C47.1042 8.93899 47.0742 9.07127 46.9327 9.2674C45.077 11.8491 43.2392 14.4456 41.3724 17.0193C40.6584 18.0034 39.4277 18.1471 38.4553 17.4253C37.5965 16.7878 37.425 15.5004 38.1 14.5277C39.2595 12.8571 40.4201 11.1888 41.6197 9.54906C41.9483 9.09978 41.9806 8.809 41.6342 8.34146C40.458 6.75527 39.3363 5.12575 38.1958 3.51219C37.7769 2.92037 37.5386 2.28521 37.7547 1.54058C38.0075 0.67165 38.8629 0.00570162 39.7462 0L39.7484 0Z" fill="white"/>
<path d="M34.577 12.3623C34.577 13.9759 34.5669 15.5894 34.5847 17.203C34.5892 17.5816 34.5135 17.7378 34.1025 17.7275C32.953 17.699 31.8035 17.7093 30.654 17.723C30.3466 17.7264 30.1918 17.6853 30.194 17.2988C30.2107 14.4331 30.194 11.5664 30.2074 8.70074C30.2118 7.60831 30.8901 6.94236 31.9617 6.93095C32.6845 6.92297 33.4096 6.95376 34.1303 6.91955C34.5224 6.90017 34.5859 7.05867 34.5836 7.40875C34.5692 9.05994 34.577 10.7111 34.577 12.3635V12.3623Z" fill="white"/>
<path d="M48.1913 10.4277C49.1091 11.738 49.979 13.0094 50.8824 14.2558C51.329 14.8716 51.6776 15.4885 51.4849 16.2936C51.2789 17.1522 50.7465 17.687 49.9233 17.8854C49.1125 18.0816 48.3996 17.8319 47.8906 17.1625C47.1744 16.2194 46.5094 15.2365 45.8188 14.2729C45.7164 14.1292 45.6328 14.0175 45.7698 13.8282C46.5718 12.7186 47.3593 11.5988 48.1902 10.4289L48.1913 10.4277Z" fill="white"/>
<path d="M48.1914 7.52094C47.3527 6.36123 46.5641 5.25968 45.761 4.17067C45.6084 3.96313 45.6919 3.83314 45.8078 3.67235C46.4794 2.74071 47.1299 1.7931 47.8216 0.877419C48.5233 -0.0519438 49.7307 -0.188783 50.7064 0.509095C51.524 1.09408 51.7523 2.33133 51.1408 3.25499C50.1963 4.6804 49.2005 6.06931 48.1936 7.52094H48.1914Z" fill="white"/>
<path d="M30.204 3.38355C30.204 2.90918 30.1884 2.43252 30.2085 1.95929C30.2486 0.975188 30.8567 0.334327 31.818 0.264767C33.6046 0.137051 34.7418 0.391343 34.5803 2.83049C34.5614 3.11443 34.5892 3.40065 34.5714 3.6846C34.5157 4.53642 33.9755 5.18184 33.1512 5.24684C32.2657 5.31526 31.3713 5.27535 30.4814 5.29473C30.2007 5.30043 30.2007 5.1271 30.2018 4.92299C30.2062 4.40984 30.2029 3.8967 30.204 3.38469V3.38355Z" fill="white"/>
</g>
<defs>
<clipPath id="clip0_14206_200782">
<rect width="98" height="18" fill="white"/>
</clipPath>
</defs>
</svg>
