<svg width="14" height="15" viewBox="0 0 14 15" fill="none" xmlns="http://www.w3.org/2000/svg">
    <defs>
        <linearGradient id="paint0_linear_5362_36580" x1="1.77314" y1="2.62273" x2="8.92583" y2="0.0855495"
                        gradientUnits="userSpaceOnUse">
            <stop stop-color="#076BFF"/>
            <stop offset="1" stop-color="#DD65F5"/>
        </linearGradient>
        <linearGradient id="paint1_linear_5362_36580" x1="7.24284" y1="0.651057" x2="2.39337" y2="2.16544"
                        gradientUnits="userSpaceOnUse">
            <stop stop-color="white" stop-opacity="0"/>
            <stop offset="1" stop-color="#7800B1"/>
        </linearGradient>
        <linearGradient id="paint2_linear_5362_36580" x1="-0.396335" y1="13.8698" x2="15.0196" y2="9.31014"
                        gradientUnits="userSpaceOnUse">
            <stop stop-color="#4037FF"/>
            <stop offset="1" stop-color="#FF87FF"/>
        </linearGradient>
        <linearGradient id="paint3_linear_5362_36580" x1="11.873" y1="8.64193" x2="-0.880729" y2="13.6298"
                        gradientUnits="userSpaceOnUse">
            <stop stop-color="#FF89FF"/>
            <stop offset="1" stop-color="#6091FF"/>
        </linearGradient>
        <linearGradient id="paint4_linear_5362_36580" x1="19.7009" y1="5.94506" x2="7.22141" y2="11.2311"
                        gradientUnits="userSpaceOnUse">
            <stop stop-color="white" stop-opacity="0"/>
            <stop offset="0.15" stop-color="#E8D3F2" stop-opacity="0.17"/>
            <stop offset="0.56" stop-color="#AC62CF" stop-opacity="0.61"/>
            <stop offset="0.85" stop-color="#861BB9" stop-opacity="0.89"/>
            <stop offset="1" stop-color="#7800B1"/>
        </linearGradient>
        <linearGradient id="paint5_linear_5362_36580" x1="5.81663" y1="15.0622" x2="9.80756" y2="12.9595"
                        gradientUnits="userSpaceOnUse">
            <stop stop-color="#076BFF"/>
            <stop offset="1" stop-color="#DD65F5"/>
        </linearGradient>
        <linearGradient id="paint6_linear_5362_36580" x1="10.5233" y1="12.6857" x2="6.19382" y2="14.6012"
                        gradientUnits="userSpaceOnUse">
            <stop stop-color="white" stop-opacity="0"/>
            <stop offset="1" stop-color="#7800B1"/>
        </linearGradient>
        <linearGradient id="paint7_linear_5362_36580" x1="-1.00549" y1="8.72034" x2="14.1692" y2="3.06797"
                        gradientUnits="userSpaceOnUse">
            <stop stop-color="#4037FF"/>
            <stop offset="1" stop-color="#FF87FF"/>
        </linearGradient>
        <linearGradient id="paint8_linear_5362_36580" x1="10.9914" y1="2.87982" x2="-0.784366" y2="6.57428"
                        gradientUnits="userSpaceOnUse">
            <stop stop-color="#FF89FF"/>
            <stop offset="0.06" stop-color="#F38AFF"/>
            <stop offset="0.38" stop-color="#B58DFF"/>
            <stop offset="0.66" stop-color="#878FFF"/>
            <stop offset="0.87" stop-color="#6B90FF"/>
            <stop offset="1" stop-color="#6091FF"/>
        </linearGradient>
        <linearGradient id="paint9_linear_5362_36580" x1="16.4129" y1="2.09171" x2="0.386134" y2="7.53791"
                        gradientUnits="userSpaceOnUse">
            <stop stop-color="white" stop-opacity="0"/>
            <stop offset="0.15" stop-color="#E8D3F2" stop-opacity="0.17"/>
            <stop offset="0.56" stop-color="#AC62CF" stop-opacity="0.61"/>
            <stop offset="0.85" stop-color="#861BB9" stop-opacity="0.89"/>
            <stop offset="1" stop-color="#7800B1"/>
        </linearGradient>
        <linearGradient id="paint10_linear_5362_36580" x1="7.26855" y1="1.10475" x2="7.25947" y2="13.0001"
                        gradientUnits="userSpaceOnUse">
            <stop stop-color="white" stop-opacity="0"/>
            <stop offset="0.152595" stop-color="#AF85C3" stop-opacity="0.4803"/>
            <stop offset="0.416667" stop-color="#9F1DDC"/>
            <stop offset="0.6875" stop-color="#865DFF"/>
            <stop offset="0.903543" stop-color="#C5B1FF" stop-opacity="0.483224"/>
            <stop offset="1" stop-color="white" stop-opacity="0"/>
        </linearGradient>
        <radialGradient id="paint11_diamond_5362_36580" cx="0" cy="0" r="1" gradientUnits="userSpaceOnUse"
                        gradientTransform="translate(7.27373 7.04534) rotate(95.234) scale(6.47796 6.43703)">
            <stop stop-color="#F156C0"/>
            <stop offset="1" stop-color="#F156C0" stop-opacity="0"/>
        </radialGradient>
        <linearGradient id="paint12_linear_5362_36580" x1="1.28771" y1="2.91818" x2="5.07544" y2="0.666722"
                        gradientUnits="userSpaceOnUse">
            <stop stop-color="#865DFF"/>
            <stop offset="1" stop-color="#763CD3"/>
        </linearGradient>
        <linearGradient id="paint13_linear_5362_36580" x1="1.11554" y1="4.32241" x2="3.58808" y2="1.55051"
                        gradientUnits="userSpaceOnUse">
            <stop stop-color="#6DBDFB"/>
            <stop offset="1" stop-color="#865DFF"/>
        </linearGradient>
        <linearGradient id="paint14_linear_5362_36580" x1="1.42282" y1="6.73049" x2="8.57453" y2="1.99858"
                        gradientUnits="userSpaceOnUse">
            <stop stop-color="#65CDFD"/>
            <stop offset="1" stop-color="#A736FF"/>
        </linearGradient>
        <linearGradient id="paint15_linear_5362_36580" x1="2.06294" y1="13.199" x2="13.787" y2="5.96275"
                        gradientUnits="userSpaceOnUse">
            <stop stop-color="#18C8FF"/>
            <stop offset="0.833333" stop-color="#865DFF"/>
        </linearGradient>
        <linearGradient id="paint16_linear_5362_36580" x1="9.51488" y1="13.1749" x2="13.6603" y2="9.90803"
                        gradientUnits="userSpaceOnUse">
            <stop stop-color="#6DBDFB"/>
            <stop offset="1" stop-color="#865DFF"/>
        </linearGradient>
        <linearGradient id="paint17_linear_5362_36580" x1="0.733478" y1="9.4804" x2="9.68179" y2="2.039"
                        gradientUnits="userSpaceOnUse">
            <stop stop-color="#AC3CE1" stop-opacity="0.76"/>
            <stop offset="1" stop-color="#A736FF"/>
        </linearGradient>
        <linearGradient id="paint18_linear_5362_36580" x1="13.6436" y1="-0.645924" x2="1.37725" y2="7.89112"
                        gradientUnits="userSpaceOnUse">
            <stop stop-color="white" stop-opacity="0"/>
            <stop offset="0.15" stop-color="#E8D3F2" stop-opacity="0.17"/>
            <stop offset="0.56" stop-color="#AC62CF" stop-opacity="0.61"/>
            <stop offset="0.85" stop-color="#861BB9" stop-opacity="0.89"/>
            <stop offset="1" stop-color="#7800B1"/>
        </linearGradient>
        <linearGradient id="paint19_linear_5362_36580" x1="3.62042" y1="8.68511" x2="7.87672" y2="6.15488"
                        gradientUnits="userSpaceOnUse">
            <stop stop-color="#13D2FD"/>
            <stop offset="1" stop-color="#A736FF"/>
        </linearGradient>
        <linearGradient id="paint20_linear_5362_36580" x1="7.81043" y1="6.12115" x2="5.63489" y2="7.49518"
                        gradientUnits="userSpaceOnUse">
            <stop stop-color="white" stop-opacity="0"/>
            <stop offset="1" stop-color="#7800B1"/>
        </linearGradient>
        <linearGradient id="paint21_linear_5362_36580" x1="5.12189" y1="14.0409" x2="12.2767" y2="6.39011"
                        gradientUnits="userSpaceOnUse">
            <stop stop-color="#65CDFD"/>
            <stop offset="1" stop-color="#865DFF"/>
        </linearGradient>
        <linearGradient id="paint22_linear_5362_36580" x1="17.8112" y1="4.5423" x2="4.1702" y2="13.0673"
                        gradientUnits="userSpaceOnUse">
            <stop stop-color="white" stop-opacity="0"/>
            <stop offset="0.15" stop-color="#1263FF" stop-opacity="0.17"/>
            <stop offset="0.56" stop-color="#B822FF" stop-opacity="0.61"/>
            <stop offset="0.85" stop-color="#861BB9" stop-opacity="0.89"/>
            <stop offset="1" stop-color="#7800B1"/>
        </linearGradient>
        <linearGradient id="paint23_linear_5362_36580" x1="1.22369" y1="2.81241" x2="5.01104" y2="0.560564"
                        gradientUnits="userSpaceOnUse">
            <stop stop-color="white" stop-opacity="0"/>
            <stop offset="1" stop-color="white" stop-opacity="0.5"/>
        </linearGradient>
        <linearGradient id="paint24_linear_5362_36580" x1="0.687835" y1="8.10103" x2="9.48029" y2="0.789707"
                        gradientUnits="userSpaceOnUse">
            <stop stop-color="white" stop-opacity="0"/>
            <stop offset="1" stop-color="white" stop-opacity="0.5"/>
        </linearGradient>
        <linearGradient id="paint25_linear_5362_36580" x1="2.92999" y1="8.65926" x2="13.6192" y2="8.65926"
                        gradientUnits="userSpaceOnUse">
            <stop stop-color="white" stop-opacity="0"/>
            <stop offset="1" stop-color="white" stop-opacity="0.5"/>
        </linearGradient>
    </defs>
    <path d="M10.1921 0.77266C9.93519 0.652222 9.58788 0.500705 9.32362 0.398527C8.80401 0.235354 8.51889 0.145997 7.95369 0.0675188C7.96567 0.0675188 7.95176 0.0675188 7.95369 0.0675188L7.91506 0.0624683L7.87642 0.0570292C7.83779 0.0519786 7.79916 0.0473165 7.76323 0.0430429C7.25868 0.00419221 7.19377 -0.00241242 6.77228 0.00419221C6.65214 0.0111853 6.49219 0.0193441 6.37243 0.0294452C5.3614 0.143666 4.60612 0.412902 4.15025 0.619199L4.02121 0.67903C3.83345 0.771883 3.82998 0.773437 3.73417 0.82472C3.53018 0.937775 3.52593 0.941272 3.42085 1.00343C2.91371 1.31386 2.44658 1.68601 2.03005 2.11146C1.88016 2.27502 1.68544 2.49724 1.54443 2.66858C2.41098 1.73849 6.4354 0.122687 9.34835 0.531785C9.75786 0.588896 9.89578 0.640179 10.1921 0.77266Z"
          fill="url(#paint0_linear_5362_36580)"/>
    <path style="mix-blend-mode:overlay" opacity="0.48"
          d="M10.1921 0.77266C9.93519 0.652222 9.58788 0.500705 9.32362 0.398527C8.80401 0.235354 8.51889 0.145997 7.95369 0.0675188C7.96567 0.0675188 7.95176 0.0675188 7.95369 0.0675188L7.91506 0.0624683L7.87642 0.0570292C7.83779 0.0519786 7.79916 0.0473165 7.76323 0.0430429C7.25868 0.00419221 7.19377 -0.00241242 6.77228 0.00419221C6.65214 0.0111853 6.49219 0.0193441 6.37243 0.0294452C5.3614 0.143666 4.60612 0.412902 4.15025 0.619199L4.02121 0.67903C3.83345 0.771883 3.82998 0.773437 3.73417 0.82472C3.53018 0.937775 3.52593 0.941272 3.42085 1.00343C2.91371 1.31386 2.44658 1.68601 2.03005 2.11146C1.88016 2.27502 1.68544 2.49724 1.54443 2.66858C2.41098 1.73849 6.4354 0.122687 9.34835 0.531785C9.75786 0.588896 9.89578 0.640179 10.1921 0.77266Z"
          fill="url(#paint1_linear_5362_36580)"/>
    <path d="M12.8317 8.59151C9.43197 7.12023 1.67402 11.0422 1.8189 11.6568C1.82619 11.6758 1.83579 11.6938 1.84748 11.7104L2.14496 12.0213C2.66574 12.4945 2.68583 12.5127 3.02 12.7497C3.591 13.1192 3.625 13.1413 4.00322 13.3262L4.27018 13.4475C3.72429 13.0928 6.41625 11.7136 8.63573 11.2116C9.49262 11.0173 11.0418 10.7454 11.6654 11.2796C12.3677 12.1452 9.92261 13.4708 9.58457 13.3845C9.56889 13.3785 9.55376 13.3711 9.53937 13.3624C9.53937 13.3076 9.53937 13.289 9.66145 13.1907C9.84959 12.9882 9.58959 12.9708 9.46828 12.9727C8.71764 12.9844 7.04443 13.7563 7.31139 13.9677C7.34422 13.9941 7.41724 14.0038 7.5285 13.9968C7.64904 13.9855 7.81014 13.9708 7.93029 13.9556C8.25481 13.9063 8.25481 13.9063 8.42557 13.8713C8.68712 13.8127 8.68712 13.8127 8.81886 13.7773C9.04216 13.714 9.04216 13.714 9.15226 13.6782C9.35277 13.611 9.35277 13.611 9.45128 13.5741C9.63943 13.5011 9.63943 13.5011 9.73215 13.4618C9.91759 13.3803 9.91759 13.3802 10.0091 13.3363C10.1969 13.2439 10.2023 13.2423 10.2962 13.191C10.5006 13.078 10.5044 13.0745 10.6095 13.0119C11.0927 12.7156 11.5399 12.3635 11.942 11.963C12.2228 11.6634 12.4442 11.4268 12.7583 10.9738C12.909 10.7361 13.0994 10.4121 13.2339 10.165C13.3714 9.86037 13.7373 9.04684 12.8317 8.59151Z"
          fill="url(#paint2_linear_5362_36580)"/>
    <path d="M12.8307 8.59142C11.0088 7.80314 7.93514 8.56345 5.49699 9.53355C5.1999 9.65011 4.34611 9.92867 4.9851 9.4916C5.62409 9.05453 5.48192 8.74178 4.6374 9.16136C3.79288 9.58095 1.29176 11.0534 1.8446 11.7104L2.14208 12.0212C2.57516 12.4147 2.66247 12.4936 2.87147 12.6455C3.95089 11.6801 9.84053 8.96478 12.5789 10.1497C12.8018 10.2616 12.9385 10.3984 13.0173 10.5429C13.0946 10.4116 13.1684 10.2807 13.2306 10.1664C13.3704 9.86029 13.7363 9.04675 12.8307 8.59142Z"
          fill="url(#paint3_linear_5362_36580)"/>
    <path style="mix-blend-mode:overlay" opacity="0.48"
          d="M13.1827 10.2552L13.2325 10.1643C13.3704 9.85811 13.7347 9.04457 12.8307 8.58924C12.7759 8.56554 12.7195 8.5434 12.6619 8.52203C12.6426 8.51504 12.6233 8.50882 12.6032 8.50222C12.5645 8.48862 12.5259 8.47541 12.4873 8.46337L12.4154 8.44316C12.3791 8.43267 12.3428 8.42218 12.3057 8.41247C12.2794 8.40587 12.2528 8.40004 12.2265 8.39382C12.1902 8.38566 12.1543 8.37712 12.1179 8.36973C12.0901 8.36391 12.0619 8.35886 12.0337 8.35342L11.9244 8.33399L11.8367 8.32078L11.7254 8.30602C11.6957 8.30213 11.6652 8.29903 11.635 8.29592C11.5964 8.29203 11.5578 8.28815 11.5214 8.28504C11.4908 8.28219 11.4599 8.27986 11.4287 8.27805C11.3901 8.27533 11.3515 8.273 11.3128 8.27105L11.2189 8.26678C11.1803 8.26678 11.139 8.26445 11.0988 8.26367C11.0675 8.26367 11.0362 8.26367 11.0045 8.26367C10.9632 8.26367 10.9215 8.26367 10.8801 8.26367H10.7862C10.743 8.26367 10.6993 8.26639 10.6561 8.26833L10.5645 8.27183C10.5181 8.27416 10.4714 8.27727 10.4246 8.28038L10.3366 8.28582L10.1762 8.2998L10.109 8.30602C9.95447 8.3213 9.7993 8.34008 9.64348 8.36235L9.57548 8.37245C9.51985 8.381 9.46422 8.38916 9.4082 8.39848L9.32166 8.41286C9.27144 8.42141 9.22083 8.42995 9.1706 8.43928L9.07788 8.45676L8.93146 8.48473L8.8345 8.50455C8.78698 8.51426 8.73907 8.52436 8.69155 8.53485L8.59304 8.55661L8.45009 8.58885L8.35081 8.61255C8.30329 8.62382 8.25538 8.63547 8.20786 8.64752L8.10974 8.67199L7.96486 8.71084L7.86828 8.73649C7.81883 8.7497 7.76976 8.76329 7.72031 8.77728L7.62836 8.80292C7.57698 8.81729 7.52599 8.83245 7.47383 8.84721L7.38691 8.87285L7.22619 8.92141L7.14893 8.9455L6.97276 9.00106L6.91133 9.02087C6.83909 9.04418 6.76646 9.06827 6.6946 9.09236L6.67567 9.09857C6.51547 9.15271 6.35656 9.20826 6.19893 9.26524L6.17266 9.27457C6.10415 9.30047 6.03629 9.32546 5.96907 9.34955L5.91498 9.37014C5.85677 9.3919 5.79882 9.41391 5.74113 9.43619L5.67739 9.46105C5.6233 9.48203 5.56999 9.50262 5.51667 9.52399L5.49504 9.53215C5.19795 9.6487 4.34415 9.92726 4.98315 9.49019C5.62214 9.05312 5.47997 8.74037 4.63545 9.15996C3.79092 9.57955 1.28981 11.052 1.84265 11.709L2.14013 12.0198L2.22203 12.0944L2.24714 12.1173C2.26568 12.1336 2.28346 12.1499 2.30007 12.1651L2.32866 12.1907C2.34141 12.2027 2.35415 12.214 2.36729 12.2253L2.39626 12.2513L2.43297 12.2843L2.45499 12.3038L2.49362 12.3395L2.51912 12.362L2.55196 12.3908L2.57089 12.4075L2.59561 12.4289C2.60218 12.4343 2.60836 12.4393 2.61416 12.4448L2.63618 12.463L2.65472 12.4786L2.67597 12.4961L2.6922 12.5093L2.71924 12.531L2.74049 12.5477L2.76444 12.5664L2.78182 12.5796L2.8023 12.5948C2.80887 12.5998 2.81544 12.6049 2.82239 12.6095L2.84248 12.6247L2.86411 12.6406L2.86913 12.6441L3.01478 12.7482C3.58578 13.1177 3.61978 13.1398 3.998 13.3248L4.26495 13.446C3.71907 13.0913 6.41103 11.7121 8.63051 11.2101C9.4874 11.0159 11.0366 10.7439 11.6601 11.2781C12.3625 12.1437 9.91739 13.4693 9.57934 13.383C9.56366 13.377 9.54854 13.3696 9.53414 13.3609C9.53414 13.3061 9.53414 13.2875 9.65584 13.1892C9.84437 12.9868 9.58437 12.9693 9.46267 12.9712C8.71203 12.9829 7.03882 13.7548 7.30578 13.9662C7.33862 13.9926 7.41163 14.0023 7.5229 13.9953C7.64343 13.9841 7.80453 13.9693 7.92468 13.9541C8.2492 13.9048 8.2492 13.9048 8.41996 13.8698C8.68151 13.8112 8.68151 13.8112 8.81325 13.7758C9.03655 13.7125 9.03655 13.7125 9.14665 13.6767C9.34716 13.6095 9.34716 13.6095 9.44567 13.5726C9.63382 13.4996 9.63382 13.4996 9.72654 13.4603C9.91198 13.3788 9.91198 13.3788 10.0035 13.3349C10.1913 13.2424 10.1967 13.2408 10.2906 13.1896C10.495 13.0765 10.4988 13.073 10.6039 13.0105C11.0871 12.7141 11.5343 12.362 11.9364 11.9615C12.2172 11.6619 12.4386 11.4253 12.7527 10.9723C12.8686 10.7901 13.0069 10.5574 13.1263 10.3468C13.1297 10.3406 13.1328 10.3348 13.1367 10.3286C13.1568 10.3061 13.1691 10.2792 13.1827 10.2552Z"
          fill="url(#paint4_linear_5362_36580)"/>
    <path d="M8.42438 13.8683C8.68593 13.8096 8.68593 13.8096 8.81767 13.7743C9.04097 13.711 9.04097 13.711 9.15107 13.6752C9.35158 13.608 9.35158 13.608 9.45009 13.5711C9.63824 13.4981 9.63824 13.4981 9.73096 13.4588C9.9164 13.3772 9.9164 13.3772 10.008 13.3333C10.1957 13.2409 10.2011 13.2393 10.295 13.188C10.4994 13.075 10.5032 13.0715 10.6083 13.0089C10.8789 12.8416 11.139 12.6578 11.3872 12.4584C11.3659 12.4468 11.3443 12.4359 11.3215 12.4258C10.7358 12.9817 9.78427 13.4328 9.58299 13.3815C9.56731 13.3755 9.55219 13.3681 9.53779 13.3594C9.53779 13.3046 9.53779 13.2859 9.65987 13.1876C9.84802 12.9852 9.58801 12.9677 9.46671 12.9697C8.71606 12.9813 7.04285 13.7533 7.30981 13.9647C7.34265 13.9911 7.41567 14.0008 7.52693 13.9938C7.64747 13.9825 7.80857 13.9678 7.92872 13.9526C8.25362 13.9033 8.25362 13.9033 8.42438 13.8683Z"
          fill="url(#paint5_linear_5362_36580)"/>
    <path style="mix-blend-mode:overlay" opacity="0.48"
          d="M8.42438 13.8683C8.68593 13.8096 8.68593 13.8096 8.81767 13.7743C9.04097 13.711 9.04097 13.711 9.15107 13.6752C9.35158 13.608 9.35158 13.608 9.45009 13.5711C9.63824 13.4981 9.63824 13.4981 9.73096 13.4588C9.9164 13.3772 9.9164 13.3772 10.008 13.3333C10.1957 13.2409 10.2011 13.2393 10.295 13.188C10.4994 13.075 10.5032 13.0715 10.6083 13.0089C10.8789 12.8416 11.139 12.6578 11.3872 12.4584C11.3659 12.4468 11.3443 12.4359 11.3215 12.4258C10.7358 12.9817 9.78427 13.4328 9.58299 13.3815C9.56731 13.3755 9.55219 13.3681 9.53779 13.3594C9.53779 13.3046 9.53779 13.2859 9.65987 13.1876C9.84802 12.9852 9.58801 12.9677 9.46671 12.9697C8.71606 12.9813 7.04285 13.7533 7.30981 13.9647C7.34265 13.9911 7.41567 14.0008 7.52693 13.9938C7.64747 13.9825 7.80857 13.9678 7.92872 13.9526C8.25362 13.9033 8.25362 13.9033 8.42438 13.8683Z"
          fill="url(#paint6_linear_5362_36580)"/>
    <path d="M13.805 5.43357C13.6156 4.73931 13.6002 4.68259 13.4148 4.23852C13.2722 3.93937 13.0671 3.54659 12.9025 3.25949C12.7317 3.0357 12.5161 2.75443 11.7613 2.53026C7.46794 1.48828 0.380668 4.81196 0.180161 5.65696C0.14655 5.86831 0.100577 6.15037 0.07817 6.36327C0.0395367 7.0688 0.039536 7.09638 0.0654203 7.50859C0.142687 8.22344 0.147323 8.25103 0.242747 8.65352L0.248542 8.67839C0.282153 7.59562 9.30109 3.69034 12.9002 5.31585C13.1934 5.44834 13.8455 5.69698 13.9514 6.37998C13.9147 6.07888 13.8587 5.7133 13.805 5.43357Z"
          fill="url(#paint7_linear_5362_36580)"/>
    <path d="M13.4148 4.23843C13.2723 3.93928 13.0671 3.5465 12.9026 3.2594C12.7318 3.03562 12.5162 2.75434 11.7613 2.53017C9.68942 2.02744 6.96694 2.54144 4.68139 3.30252C3.67036 3.59895 4.79729 2.89226 5.60473 2.67236C6.01501 2.56086 6.36542 2.252 5.58696 2.40546C4.30279 2.65838 0.201094 4.72446 0.1783 5.65687C0.144689 5.86822 0.0987148 6.15028 0.0763075 6.36318C0.0535139 6.77694 0.0438557 6.9576 0.0450147 7.11922C1.43234 5.83248 8.26695 2.80679 12.5622 3.88684C12.9872 4.01699 13.2545 4.16384 13.4419 4.30992L13.4148 4.23843Z"
          fill="url(#paint8_linear_5362_36580)"/>
    <path style="mix-blend-mode:overlay" opacity="0.48"
          d="M13.8044 5.43209C13.6151 4.73783 13.5996 4.68111 13.4142 4.23704C13.2717 3.93789 13.0665 3.54511 12.9019 3.25801C12.7312 3.03423 12.5156 2.75295 11.7607 2.52878C11.6948 2.51272 11.6281 2.49783 11.5606 2.4841L11.4926 2.47089C11.4474 2.46195 11.4026 2.45302 11.3574 2.44525C11.3296 2.4402 11.3014 2.43631 11.2735 2.43165C11.2326 2.42505 11.1916 2.41805 11.1503 2.41223L11.0595 2.40018C11.0209 2.39474 10.9799 2.3893 10.9397 2.38464L10.8439 2.37493C10.8053 2.37066 10.7667 2.36677 10.728 2.36327C10.6948 2.36017 10.6616 2.35783 10.6284 2.3555C10.5897 2.3524 10.5511 2.34929 10.5125 2.34696C10.4738 2.34463 10.4441 2.34307 10.4101 2.34152C10.3761 2.33996 10.3328 2.33724 10.2942 2.33608C10.2556 2.33491 10.2243 2.33375 10.1891 2.33297C10.1539 2.33219 10.1118 2.33064 10.0732 2.33025C10.0346 2.32986 10.0017 2.33025 9.9658 2.33025H9.8499H9.74018L9.62428 2.33297L9.51263 2.33647L9.39673 2.34152C9.3581 2.34152 9.31947 2.3454 9.28315 2.34735L9.16725 2.35473L9.05135 2.36289L8.93545 2.37221C8.89682 2.37532 8.85819 2.37881 8.81955 2.3827L8.70597 2.39397L8.58659 2.4064L8.47417 2.41961L8.35209 2.43476L8.2416 2.44913C8.20026 2.45496 8.15892 2.4604 8.11759 2.46662L8.00864 2.48255L7.88231 2.50197L7.77568 2.51945L7.64703 2.54121L7.5435 2.55986L7.41137 2.58395L7.31208 2.60298L7.17609 2.62979L7.08144 2.6496L6.9412 2.67874L6.85158 2.69856L6.70516 2.73002L6.62325 2.74906L6.47181 2.7848L6.40188 2.80229C6.34741 2.8155 6.29333 2.82871 6.23924 2.84114L6.18863 2.85396L6.00783 2.90097L5.99199 2.90524C5.545 3.02451 5.10612 3.15738 4.68232 3.29841C3.67129 3.59484 4.79822 2.88815 5.60565 2.66825C6.01594 2.55675 6.36634 2.24789 5.58788 2.40135C4.30371 2.65427 0.202019 4.72035 0.179225 5.65277C0.145614 5.86411 0.0996413 6.14617 0.077234 6.35907C0.077234 6.38316 0.0745294 6.40608 0.0733704 6.42861V6.43794C0.0698934 6.50826 0.066416 6.5712 0.0633254 6.62792C0.0602347 6.68581 0.0575307 6.73787 0.0552127 6.78332C0.0552127 6.79809 0.0552132 6.81246 0.0532815 6.82645V6.83111C0.0532815 6.84393 0.0532815 6.85675 0.0532815 6.86996V6.87307C0.0532815 6.88628 0.0532815 6.89923 0.0532815 6.91192C0.0513499 6.9632 0.050191 7.00827 0.0498047 7.05062V7.08247C0.0498047 7.20874 0.0559853 7.31558 0.0683479 7.50206C0.145614 8.21691 0.15025 8.2445 0.245674 8.64699L0.25147 8.67186C0.285081 7.58909 9.30401 3.68381 12.9031 5.30933C13.1963 5.44181 13.8484 5.69045 13.9543 6.37345C13.9141 6.0774 13.8581 5.71182 13.8044 5.43209Z"
          fill="url(#paint9_linear_5362_36580)"/>
    <ellipse cx="7.27266" cy="7.04645" rx="5.90947" ry="5.94769" transform="rotate(-180 7.27266 7.04645)"
             fill="url(#paint10_linear_5362_36580)"/>
    <ellipse cx="7.27373" cy="7.04534" rx="5.90947" ry="5.94769" fill="url(#paint11_diamond_5362_36580)"/>
    <path d="M1.50891 2.65914C1.65069 2.48839 1.84478 2.26435 1.99547 2.10138C2.42741 1.67353 2.76173 1.38688 3.39007 0.992483C3.59888 0.869963 3.59888 0.869963 3.70425 0.813566C3.89562 0.713605 3.89562 0.713605 3.99208 0.667709L4.12069 0.607422C3.36877 0.960589 3.48615 1.05705 3.50087 1.06677C3.58454 1.1185 3.98782 1.01193 4.33956 0.813566C4.86487 0.569694 5.2538 0.635815 5.1248 0.947364C4.75097 1.85051 1.66813 3.22117 1.45235 2.82327C1.42485 2.77271 1.47443 2.69881 1.5062 2.65914"
          fill="url(#paint12_linear_5362_36580)"/>
    <path d="M2.39083 1.81913C2.38466 1.8029 2.38246 1.78542 2.38441 1.76816C2.38637 1.7509 2.39242 1.73437 2.40206 1.71995C2.26802 1.83663 2.13709 1.96304 1.99569 2.10228C1.84499 2.26525 1.65091 2.49123 1.50913 2.66004C1.47736 2.69893 1.42777 2.77361 1.45528 2.82418C1.67106 3.22207 4.7539 1.8518 5.12773 0.948269C5.14646 0.907679 5.15459 0.862974 5.15136 0.818359C4.10309 1.50797 2.54229 2.09762 2.39083 1.81913Z"
          fill="url(#paint13_linear_5362_36580)"/>
    <path d="M10.1794 0.760494C13.2107 2.30891 5.73563 7.56362 1.5526 8.65619C1.01567 8.7966 0.306364 8.93273 0.208741 8.67291C0.104533 8.39559 -0.162765 7.03076 0.139786 5.64843C0.156444 6.49362 5.26302 4.48897 7.45564 2.10898C8.27497 1.21907 8.64067 0.133895 6.97567 0.00398533C8.27923 -0.0422998 9.31821 0.32098 10.1794 0.760494Z"
          fill="url(#paint14_linear_5362_36580)"/>
    <path d="M12.8971 3.25C12.9625 3.36688 13.0145 3.49084 13.052 3.6195C13.7726 6.58603 3.40602 12.7894 1.81152 11.7097C2.405 12.4673 3.78063 13.3328 4.24046 13.4487C6.66823 14.0609 14.1344 9.73614 13.9608 6.48062C13.8884 5.08974 13.3046 3.84782 12.8971 3.25Z"
          fill="url(#paint15_linear_5362_36580)"/>
    <path d="M12.7515 10.9746C12.5164 11.2986 12.313 11.5783 11.933 11.9649C11.5307 12.3668 11.0823 12.7193 10.5972 13.0151C10.3884 13.1376 10.3884 13.1376 10.2831 13.194C10.0913 13.294 10.0913 13.294 9.99524 13.3399C9.81046 13.4254 9.81046 13.4254 9.7171 13.4651C9.53037 13.5429 9.53037 13.5429 9.43546 13.5775C9.24177 13.6479 9.23712 13.6495 9.13601 13.6821C8.91985 13.749 8.91559 13.7502 8.80131 13.7813C8.55338 13.8443 8.54369 13.8467 8.40694 13.875C8.10594 13.9322 8.08773 13.9357 7.9107 13.9594C7.78983 13.9727 7.62868 13.991 7.50781 14.0011C8.67541 13.8587 12.1852 12.1061 13.2288 10.166C13.0936 10.4138 12.9103 10.7428 12.7515 10.9758"
          fill="url(#paint16_linear_5362_36580)"/>
    <path d="M10.8641 1.55787C10.84 1.43759 10.7931 1.32309 10.7258 1.22065L10.7231 1.21637C10.6069 1.04251 10.4298 0.888873 10.1808 0.760909C9.61752 0.465945 9.01662 0.250007 8.39489 0.119141C8.57826 0.177672 8.75676 0.250632 8.92871 0.337342C11.5219 1.66172 5.5437 6.35674 1.14217 7.23577C0.64709 7.33456 0.274034 7.31356 0.00634766 7.25871C0.0280415 7.96583 0.147358 8.51036 0.208565 8.67488C0.306187 8.9347 1.0155 8.79857 1.55242 8.65816C3.19921 8.2272 5.3562 7.15175 7.18119 5.91139C7.83317 5.46876 8.69202 5.11249 7.50776 6.0693C6.76088 6.67257 7.50776 6.69435 8.85898 5.60606C11.1442 3.76516 11.0489 2.21286 10.8641 1.55787Z"
          fill="url(#paint17_linear_5362_36580)"/>
    <path style="mix-blend-mode:overlay" opacity="0.68"
          d="M10.8641 1.55787C10.84 1.43759 10.7931 1.32309 10.7258 1.22065L10.7231 1.21637C10.6069 1.04251 10.4298 0.888873 10.1808 0.760909C9.61752 0.465945 9.01662 0.250007 8.39489 0.119141C8.57826 0.177672 8.75676 0.250632 8.92871 0.337342C11.5219 1.66172 5.5437 6.35674 1.14217 7.23577C0.64709 7.33456 0.274034 7.31356 0.00634766 7.25871C0.0280415 7.96583 0.147358 8.51036 0.208565 8.67488C0.306187 8.9347 1.0155 8.79857 1.55242 8.65816C3.19921 8.2272 5.3562 7.15175 7.18119 5.91139C7.83317 5.46876 8.69202 5.11249 7.50776 6.0693C6.76088 6.67257 7.50776 6.69435 8.85898 5.60606C11.1442 3.76516 11.0489 2.21286 10.8641 1.55787Z"
          fill="url(#paint18_linear_5362_36580)"/>
    <path d="M5.92384 7.11686C5.72395 7.31873 5.79678 7.43113 6.06911 7.36696C6.40924 7.28722 6.74898 7.0558 6.89503 6.88777C7.08872 6.66607 6.91517 6.59061 6.67422 6.6684C6.52275 6.71702 6.11831 6.92005 5.92384 7.11686Z"
          fill="url(#paint19_linear_5362_36580)"/>
    <path style="mix-blend-mode:overlay" opacity="0.68"
          d="M5.92384 7.11686C5.72395 7.31873 5.79678 7.43113 6.06911 7.36696C6.40924 7.28722 6.74898 7.0558 6.89503 6.88777C7.08872 6.66607 6.91517 6.59061 6.67422 6.6684C6.52275 6.71702 6.11831 6.92005 5.92384 7.11686Z"
          fill="url(#paint20_linear_5362_36580)"/>
    <path d="M13.5879 4.6582C13.5937 4.72744 13.5926 4.80717 13.5964 4.87718C13.7831 8.40496 5.90635 13.063 2.94824 12.7281C3.46231 13.1081 3.98296 13.3824 4.24057 13.4485C4.49819 13.5146 4.81972 13.5228 5.18077 13.4823C5.38454 13.464 5.49765 13.5519 5.25244 13.5939C4.97507 13.6414 4.68336 13.65 4.26847 13.6142C4.0523 13.5955 4.00272 14.1408 5.49959 13.8293C10.8576 12.7126 12.8894 9.35283 13.6193 7.8931C13.7006 7.87249 13.5275 8.15603 13.4829 8.35129C13.4155 8.64844 13.7901 8.71845 13.9644 7.46681C14.1008 6.4886 13.8149 5.28519 13.5879 4.6582Z"
          fill="url(#paint21_linear_5362_36580)"/>
    <path style="mix-blend-mode:overlay" opacity="0.68"
          d="M13.5879 4.6582C13.5937 4.72744 13.5926 4.80717 13.5964 4.87718C13.7831 8.40496 5.90635 13.063 2.94824 12.7281C3.46231 13.1081 3.98296 13.3824 4.24057 13.4485C4.49819 13.5146 4.81972 13.5228 5.18077 13.4823C5.38454 13.464 5.49765 13.5519 5.25244 13.5939C4.97507 13.6414 4.68336 13.65 4.26847 13.6142C4.0523 13.5955 4.00272 14.1408 5.49959 13.8293C10.8576 12.7126 12.8894 9.35283 13.6193 7.8931C13.7006 7.87249 13.5275 8.15603 13.4829 8.35129C13.4155 8.64845 13.7901 8.71846 13.9644 7.46681C14.1008 6.4886 13.8149 5.28519 13.5879 4.6582Z"
          fill="url(#paint22_linear_5362_36580)"/>
    <path d="M5.14059 0.802312C4.19807 1.42074 2.86003 1.95477 2.48581 1.85948C2.4702 1.85691 2.45528 1.85117 2.44195 1.84261C2.42863 1.83405 2.41719 1.82285 2.40833 1.80969C2.40358 1.7963 2.40211 1.78195 2.40407 1.76786C2.40603 1.75377 2.41134 1.74037 2.41956 1.72879L2.42886 1.71129L2.41802 1.70584L2.36959 1.74863C2.36066 1.77406 2.36205 1.80201 2.37347 1.82642C2.38493 1.84453 2.4 1.86007 2.41774 1.87205C2.43547 1.88403 2.45548 1.8922 2.47651 1.89604C2.51198 1.90403 2.54825 1.90782 2.58459 1.90732C3.06883 1.90732 4.28058 1.41024 5.1526 0.838873C5.15295 0.82406 5.15126 0.809268 5.14756 0.794922L5.14059 0.802312Z"
          fill="url(#paint23_linear_5362_36580)"/>
    <path d="M8.38682 0.138437C8.5693 0.196698 8.7469 0.2694 8.91793 0.355861C9.38512 0.594287 9.58928 0.952122 9.52497 1.41964C9.40255 2.31073 8.29656 3.55887 6.56686 4.75995C4.82826 5.96569 2.79756 6.88517 1.13566 7.21695C0.714177 7.30135 0.334535 7.30913 0.00757847 7.23989H0.00292969C0.00292969 7.25351 0.00292969 7.26712 0.00292969 7.27879C0.159627 7.31067 0.319151 7.32644 0.479032 7.32585C0.701846 7.32426 0.923972 7.30082 1.14224 7.25584C2.80802 6.9229 4.84491 6.00225 6.58817 4.79262C8.33142 3.58298 9.43897 2.32706 9.56293 1.42509C9.62956 0.939286 9.41844 0.569394 8.93459 0.320466C8.80976 0.257254 8.68131 0.201536 8.54991 0.153607C8.43369 0.127158 8.31748 0.103821 8.19777 0.0839844L8.38682 0.138437Z"
          fill="url(#paint24_linear_5362_36580)"/>
    <path d="M13.6157 4.87828C13.613 4.82616 13.6092 4.77015 13.6037 4.70636C13.5859 4.65385 13.5673 4.60251 13.5487 4.55078L13.5615 4.67058C13.5685 4.75109 13.5735 4.8176 13.5766 4.87944C13.6154 5.64256 13.288 6.90938 11.4917 8.60948C10.3016 9.73743 8.66878 10.8366 7.01153 11.6305C5.35428 12.4243 3.87987 12.8156 2.95052 12.7102L2.93115 12.7082V12.7168L2.98229 12.753C3.07526 12.7623 3.17275 12.767 3.27477 12.767C5.34769 12.767 9.1414 10.8895 11.52 8.63904C12.5163 7.69467 13.6894 6.27578 13.6157 4.87828Z"
          fill="url(#paint25_linear_5362_36580)"/>
</svg>
