<?xml version="1.0" encoding="UTF-8" standalone="no"?>
<!DOCTYPE svg PUBLIC "-//W3C//DTD SVG 1.1//EN" "http://www.w3.org/Graphics/SVG/1.1/DTD/svg11.dtd">
<svg width="100%" height="100%" viewBox="0 0 62 60" version="1.1" xmlns="http://www.w3.org/2000/svg" xmlns:xlink="http://www.w3.org/1999/xlink" xml:space="preserve" xmlns:serif="http://www.serif.com/" style="fill-rule:evenodd;clip-rule:evenodd;stroke-linejoin:round;stroke-miterlimit:2;">
    <g transform="matrix(1,0,0,1,-199,0)">
        <g id="male_happy" transform="matrix(1,0,0,1,199.62,0)">
            <rect x="0" y="0" width="61" height="60" style="fill:none;"/>
            <g transform="matrix(1.43048,0,0,2.36743,-298.101,-190.645)">
                <ellipse cx="229.714" cy="93.2" rx="20.972" ry="12.672" style="fill:white;"/>
            </g>
            <g>
                <g transform="matrix(1,0,0,1,-199.62,0)">
                    <path d="M204.257,45.203C204.921,44.746 205.605,44.319 206.308,43.924C218.585,37.018 239.223,37.18 246.06,40.689C249.262,42.332 252.185,45.125 254.389,47.63C248.932,55.125 240.091,60 230.12,60C219.109,60 209.476,54.055 204.257,45.203Z" style="fill:rgb(66,232,224);fill-rule:nonzero;"/>
                </g>
                <g transform="matrix(1,0,0,1,-199.62,0)">
                    <path d="M210.729,25.126C210.77,25.174 210.813,25.221 210.857,25.267C210.928,25.342 211.002,25.415 211.079,25.484C211.164,25.561 211.252,25.633 211.343,25.703C211.411,25.754 211.479,25.803 211.55,25.85C211.602,25.886 211.656,25.92 211.71,25.953C211.751,25.978 211.793,26.003 211.835,26.027C212.104,26.181 212.387,26.309 212.679,26.414C212.72,26.429 212.762,26.444 212.804,26.458C212.86,26.477 212.916,26.495 212.972,26.513C213.046,26.535 213.12,26.557 213.195,26.577C213.293,26.604 213.392,26.629 213.491,26.652C213.628,26.683 213.766,26.711 213.904,26.735C214.087,26.767 214.271,26.793 214.456,26.814C214.7,26.841 214.946,26.86 215.192,26.871C215.35,26.877 215.508,26.881 215.667,26.881C215.826,26.882 215.985,26.879 216.144,26.874C216.361,26.866 216.576,26.854 216.792,26.836C216.99,26.819 217.189,26.798 217.386,26.772C217.189,26.798 216.99,26.819 216.792,26.836C216.576,26.854 216.361,26.866 216.144,26.874C215.985,26.879 215.826,26.882 215.667,26.881C215.508,26.881 215.35,26.877 215.192,26.871C214.946,26.86 214.7,26.841 214.456,26.814C214.271,26.793 214.087,26.767 213.904,26.735C213.766,26.711 213.628,26.683 213.491,26.652C213.392,26.629 213.293,26.604 213.195,26.577C213.12,26.557 213.046,26.535 212.972,26.513C212.916,26.495 212.86,26.477 212.804,26.458C212.762,26.444 212.72,26.429 212.679,26.414C212.387,26.309 212.104,26.181 211.835,26.027C211.793,26.003 211.751,25.978 211.71,25.953C211.656,25.92 211.602,25.886 211.55,25.85C211.479,25.803 211.411,25.754 211.343,25.703C211.252,25.633 211.164,25.561 211.079,25.484C211.002,25.415 210.928,25.342 210.857,25.267C210.813,25.221 210.77,25.174 210.729,25.126ZM217.443,26.765C217.428,26.767 217.414,26.768 217.399,26.77C217.414,26.768 217.428,26.767 217.443,26.765ZM217.552,26.749C217.518,26.754 217.485,26.759 217.451,26.763C217.485,26.759 217.518,26.754 217.552,26.749ZM217.566,26.747C217.565,26.747 217.564,26.747 217.562,26.747C217.564,26.747 217.565,26.747 217.566,26.747ZM217.575,26.746L217.573,26.746L217.575,26.746ZM217.606,26.741L217.587,26.744C217.594,26.743 217.6,26.742 217.606,26.741ZM217.654,26.733L217.609,26.74C217.624,26.738 217.639,26.736 217.654,26.733ZM217.708,26.725L217.666,26.731C217.681,26.729 217.695,26.727 217.708,26.725ZM217.743,26.719L217.721,26.722C217.729,26.721 217.737,26.72 217.743,26.719ZM217.751,26.717L217.744,26.718C217.747,26.718 217.749,26.718 217.751,26.717ZM217.793,26.71C217.786,26.711 217.777,26.713 217.766,26.715C217.777,26.713 217.786,26.711 217.793,26.71ZM210.716,25.111C210.718,25.113 210.72,25.116 210.722,25.118C210.72,25.116 210.718,25.113 210.716,25.111ZM210.698,25.09C210.701,25.093 210.704,25.096 210.706,25.099C210.704,25.096 210.701,25.093 210.698,25.09ZM210.673,25.059C210.678,25.065 210.683,25.072 210.689,25.078C210.683,25.072 210.678,25.065 210.673,25.059ZM210.67,25.055L210.654,25.035C210.659,25.042 210.664,25.048 210.67,25.055ZM210.652,25.033L210.63,25.006C210.637,25.015 210.644,25.024 210.652,25.033ZM210.623,24.996L210.625,24.999L210.623,24.996ZM231.019,16.294C231.019,16.294 231.621,18.182 232.141,20.8C233.607,20.704 235.081,21.206 235.491,23.409C236.03,26.305 234.488,27.854 232.902,28.671C232.829,30.448 232.513,32.12 231.819,33.444C231.441,34.156 231.023,34.765 230.572,35.281L231.027,40.389C231.027,40.389 229.851,42.955 225.722,43.245C223.805,43.356 221.887,43.055 220.097,42.36L219.61,36.2C218.09,35.03 216.942,33.433 216.312,31.605C216.312,31.605 212.321,32.769 210.677,29.572C209.793,27.851 209.962,26.216 210.616,24.988L210.617,24.987C211.224,23.81 212.272,23.003 213.254,22.837C215.268,22.496 215.542,22.837 215.542,22.837L214.616,19.165C214.616,19.165 225.655,4.502 230.925,16.12L231.019,16.294Z" style="fill:rgb(154,104,69);"/>
                </g>
                <path d="M30.866,35.379C30.669,37.022 29.905,39.136 27.642,39.674C24.198,40.497 21.71,38.052 20.621,36.647L20.721,36.723C22.756,38.031 27.582,39.078 30.866,35.379Z"/>
                <g transform="matrix(1,0,0,1,-199.62,0)">
                    <path d="M232.717,24.544L233.701,22.532C233.745,22.44 233.825,22.368 233.924,22.333C234.023,22.298 234.132,22.302 234.228,22.344C234.324,22.387 234.398,22.465 234.435,22.56C234.471,22.656 234.467,22.761 234.423,22.854L233.53,24.678L234.412,24.599C234.463,24.594 234.516,24.601 234.565,24.621C234.615,24.641 234.661,24.673 234.7,24.715C234.74,24.757 234.772,24.808 234.796,24.866C234.819,24.924 234.834,24.987 234.838,25.052C234.844,25.183 234.809,25.313 234.739,25.412C234.67,25.511 234.572,25.573 234.467,25.583L233.029,25.704L232.854,26.061L232.841,25.583L232.717,24.544Z"/>
                </g>
                <g transform="matrix(1,0,0,1,-199.62,0)">
                    <path d="M214.991,22.693C214.651,22.67 214.109,22.692 213.254,22.837C212.271,23.003 211.223,23.811 210.616,24.988L210.447,24.816C208.405,21.895 207.065,19.639 209.396,15.14C212.104,9.92 215.204,12.147 215.204,12.147C215.204,12.147 219.414,4.589 223.625,2.815C227.835,1.04 229.1,7.291 229.1,7.291C229.1,7.291 232.592,4.465 233.539,7.137C234.238,9.11 232.406,13.208 231.395,15.217C232.963,19.225 232.82,23.915 231.733,21.103C229.919,16.412 223.389,13.096 223.389,13.096C223.389,13.096 224.159,17.603 220.805,20.544C217.94,23.036 215.305,23.073 215.305,23.073C215.195,22.945 215.09,22.818 214.991,22.693Z" style="fill:rgb(34,164,58);"/>
                </g>
                <g transform="matrix(1,0,0,1,-199.62,0)">
                    <path d="M213.616,27.276L211.751,26.012C211.671,25.955 211.618,25.871 211.603,25.777C211.587,25.684 211.611,25.589 211.668,25.511C211.697,25.473 211.733,25.44 211.775,25.414C211.817,25.389 211.864,25.372 211.914,25.364C211.963,25.356 212.013,25.357 212.062,25.368C212.11,25.378 212.156,25.398 212.197,25.425L214.373,26.903C214.381,26.906 214.389,26.909 214.397,26.912C214.445,26.93 214.49,26.958 214.527,26.992C214.542,27.006 214.556,27.021 214.569,27.037L215.628,27.756C215.669,27.783 215.704,27.818 215.731,27.858C215.757,27.898 215.775,27.942 215.784,27.989C215.792,28.035 215.791,28.083 215.78,28.129C215.769,28.175 215.748,28.218 215.719,28.257C215.684,28.304 215.638,28.342 215.584,28.369C215.53,28.395 215.47,28.408 215.409,28.407C215.331,28.407 215.255,28.384 215.19,28.343L214.269,27.718L212.663,29.045C212.594,29.118 212.496,29.163 212.391,29.17C212.335,29.169 212.28,29.157 212.229,29.136C212.178,29.114 212.132,29.083 212.095,29.045C212.058,29.012 212.028,28.972 212.008,28.928C211.988,28.884 211.977,28.836 211.977,28.788C211.977,28.741 211.988,28.693 212.008,28.649C212.028,28.605 212.058,28.565 212.095,28.532L213.616,27.276Z" style="fill-rule:nonzero;"/>
                </g>
                <path d="M30.315,19.262C30.242,19.263 30.171,19.234 30.11,19.179C29.577,18.775 28.966,18.604 28.359,18.688C28.269,18.696 28.18,18.658 28.111,18.58C28.041,18.503 27.996,18.392 27.984,18.271C27.979,18.21 27.983,18.149 27.996,18.09C28.009,18.032 28.03,17.977 28.059,17.93C28.087,17.882 28.122,17.843 28.162,17.814C28.202,17.786 28.246,17.768 28.29,17.762C29.065,17.658 29.843,17.891 30.513,18.429C30.569,18.486 30.611,18.567 30.633,18.659C30.654,18.751 30.654,18.849 30.633,18.941C30.611,19.033 30.569,19.113 30.512,19.171C30.455,19.228 30.386,19.26 30.315,19.262Z" style="fill-rule:nonzero;"/>
                <path d="M21.464,20.406C21.415,20.405 21.366,20.393 21.321,20.369C21.275,20.346 21.235,20.311 21.201,20.268C21.143,20.185 21.114,20.078 21.122,19.971C21.13,19.863 21.173,19.763 21.243,19.693C21.887,19.156 22.659,18.873 23.449,18.882C23.494,18.883 23.539,18.895 23.581,18.916C23.623,18.937 23.66,18.968 23.692,19.007C23.723,19.045 23.748,19.09 23.764,19.14C23.781,19.189 23.789,19.242 23.788,19.296C23.787,19.349 23.777,19.401 23.759,19.45C23.741,19.499 23.715,19.543 23.682,19.58C23.649,19.617 23.61,19.645 23.568,19.665C23.526,19.684 23.481,19.694 23.435,19.693C22.816,19.677 22.208,19.884 21.692,20.284C21.631,20.356 21.55,20.399 21.464,20.406Z" style="fill-rule:nonzero;"/>
                <path d="M25.374,43.648C23.215,43.606 21.081,43.204 19.067,42.462C19.022,42.445 18.981,42.42 18.947,42.388C18.913,42.355 18.885,42.317 18.867,42.275C18.848,42.232 18.839,42.187 18.839,42.141C18.84,42.095 18.85,42.05 18.869,42.008C18.909,41.924 18.982,41.857 19.072,41.822C19.162,41.787 19.263,41.786 19.353,41.82C19.449,41.861 29.024,45.603 32.24,39.272C32.26,39.231 32.289,39.194 32.325,39.164C32.36,39.133 32.402,39.11 32.447,39.095C32.492,39.08 32.54,39.074 32.587,39.077C32.635,39.079 32.682,39.091 32.725,39.111C32.769,39.131 32.808,39.158 32.841,39.193C32.874,39.227 32.899,39.267 32.916,39.31C32.932,39.354 32.939,39.4 32.937,39.446C32.934,39.492 32.922,39.537 32.901,39.579C31.271,42.783 28.201,43.648 25.374,43.648Z" style="fill:rgb(34,164,58);fill-rule:nonzero;"/>
                <path d="M22.462,23.853L22.376,23.853C22.33,23.841 22.287,23.821 22.25,23.792C22.212,23.764 22.18,23.728 22.156,23.688C22.132,23.647 22.116,23.602 22.11,23.555C22.103,23.508 22.106,23.461 22.118,23.415C22.163,23.158 22.271,22.917 22.433,22.713C22.595,22.509 22.805,22.348 23.044,22.245C23.387,22.163 23.743,22.154 24.09,22.22C24.436,22.285 24.765,22.423 25.054,22.625C25.133,22.678 25.188,22.759 25.206,22.852C25.225,22.945 25.207,23.041 25.155,23.121C25.129,23.16 25.096,23.195 25.057,23.221C25.018,23.248 24.975,23.266 24.928,23.276C24.882,23.285 24.834,23.285 24.788,23.276C24.742,23.266 24.698,23.248 24.659,23.221C24.262,22.946 23.773,22.835 23.295,22.912C23.161,22.982 23.047,23.085 22.963,23.21C22.879,23.336 22.828,23.48 22.814,23.63C22.785,23.699 22.736,23.757 22.673,23.797C22.61,23.836 22.537,23.856 22.462,23.853Z" style="fill-rule:nonzero;"/>
                <path d="M28.309,22.698C28.271,22.704 28.233,22.704 28.195,22.698C28.105,22.667 28.032,22.602 27.99,22.517C27.949,22.432 27.942,22.335 27.972,22.245C28.015,22.13 28.395,21.118 29.142,21.039C29.609,20.996 30.054,21.319 30.463,22.001C30.51,22.083 30.523,22.18 30.499,22.271C30.475,22.362 30.416,22.44 30.335,22.488C30.254,22.536 30.157,22.55 30.066,22.527C29.974,22.505 29.895,22.447 29.846,22.367C29.566,21.901 29.343,21.75 29.214,21.757C29.085,21.764 28.755,22.188 28.647,22.475C28.621,22.543 28.575,22.601 28.514,22.641C28.454,22.681 28.382,22.701 28.309,22.698Z" style="fill-rule:nonzero;"/>
            </g>
        </g>
    </g>
</svg>
