<?xml version="1.0" encoding="utf-8"?>
<!-- Generator: Adobe Illustrator 27.5.0, SVG Export Plug-In . SVG Version: 6.00 Build 0)  -->
<svg version="1.1" id="Livello_1" xmlns="http://www.w3.org/2000/svg" xmlns:xlink="http://www.w3.org/1999/xlink" x="0px" y="0px"
	 viewBox="0 0 14 14" enable-background="new 0 0 14 14" xml:space="preserve">
<linearGradient id="SVGID_1_" gradientUnits="userSpaceOnUse" x1="13.2937" y1="1074.8965" x2="-1.186" y2="1069.9937" gradientTransform="matrix(1 0 0 1 0 -1064)">
	<stop  offset="0" style="stop-color:#B71DFF"/>
	<stop  offset="0.5104" style="stop-color:#FF4F93"/>
	<stop  offset="1" style="stop-color:#8904FF"/>
</linearGradient>
<path fill="url(#SVGID_1_)" d="M1.2,10.8C0.1,9.3,0,7.8,1,6.4c0-0.1,0.1-0.1,0.1-0.2s0-0.1,0-0.2c0-0.3,0-0.5,0-0.9
	c-0.6,0.8-1,1.6-1,2.5c-0.2-1,0-2,0.5-2.9C1.2,3.7,2,3.1,3,2.5c0.1-0.1,0.3-0.1,0.4,0C3.5,2.7,3.5,2.8,3.5,3c0,0.3-0.2,0.4-0.4,0.5
	C2.8,3.7,2.5,3.9,2.3,4C2.2,4,2.2,4.1,2.2,4.1c0,0.1-0.1,0.1,0,0.2c0,0.3,0,0.6-0.1,1C2.2,5.2,2.3,5.1,2.5,5
	c1.2-0.8,2.6-1.2,4.1-1.3c1.5,0,3,0.3,4.4,1c0.2,0.1,0.3,0.2,0.5,0.3c0.4,0.3,0.4,0.9,0,1.1c-0.2,0.1-0.4,0.1-0.6,0
	c-1.1-0.7-2.3-1-3.5-1C7,5.1,7,5.1,7.1,5.5c0,0.2,0.1,0.4,0.1,0.6s0.1,0.3,0.4,0.3c0.7,0,1.3,0.2,2,0.4c0.4,0.1,0.6,0.5,0.5,0.9
	S9.7,8.3,9.3,8.2C8.4,7.8,7.5,7.8,6.5,7.8C6.1,7.8,5.8,7.9,5.4,8C5.2,8,5.1,8.1,5.2,8.3C5.3,8.5,5.4,8.7,5.6,9
	c0.1,0.2,0.3,0.3,0.5,0.2C7.2,9,8.4,9.1,9.4,9.7c0.4,0.2,0.7,0.5,1,0.8c0.6,0.8,0.4,1.8-0.4,2.5c-0.7,0.6-1.6,0.9-2.5,0.9
	c-0.6,0-1.2,0-1.8-0.1c-0.1,0-0.3,0-0.2-0.2c0-0.1,0.2-0.1,0.3-0.1c0.8,0.2,1.7,0.2,2.5-0.1c0.3-0.1,0.6-0.3,0.8-0.5
	c0.6-0.5,0.6-1.4,0-1.9c-0.7-0.6-1.6-0.7-2.5-0.6C6,10.5,5.5,10.6,5,11c-0.6,0.5-0.7,1.2-0.2,1.8C4.9,13,5.1,13,5,13.2
	c-0.1,0.1-0.3,0.1-0.4,0.1c-0.8-0.3-1.3-1.1-1.2-2c0-0.6,0.4-1,0.9-1.4c0.2-0.2,0.3-0.3,0.1-0.5C4.2,9.2,4.1,9,4,8.8
	S3.8,8.6,3.6,8.7C3.5,8.8,3.4,8.9,3.2,9C3,9.2,2.8,9.3,2.6,9.1C2.3,9,2.3,8.8,2.3,8.5S2.4,8,2.6,7.8C3.2,7.3,3.9,7,4.7,6.7
	c0.3-0.1,0.6-0.2,1-0.2c0.2,0,0.2-0.1,0.2-0.3C5.8,5.9,5.7,5.7,5.7,5.4c0-0.1-0.1-0.2-0.2-0.2c-1.6,0.3-3,0.9-4,2.2
	c-0.8,1-0.9,2.1-0.4,3.3C1.2,10.7,1.2,10.7,1.2,10.8L1.2,10.8z"/>
<linearGradient id="SVGID_00000176752046609198831370000018256946873810196366_" gradientUnits="userSpaceOnUse" x1="14.5096" y1="1071.7007" x2="0.8133" y2="1063.7612" gradientTransform="matrix(1 0 0 1 0 -1064)">
	<stop  offset="0" style="stop-color:#B71DFF"/>
	<stop  offset="0.5104" style="stop-color:#FF4F93"/>
	<stop  offset="1" style="stop-color:#8904FF"/>
</linearGradient>
<path fill="url(#SVGID_00000176752046609198831370000018256946873810196366_)" d="M0.7,4.1C1.3,2.2,3.8,0.2,6.6,0
	c3.1-0.2,5.9,2,6.7,3.9c-0.6-0.9-1.3-1.5-2.2-2c0.1,0.5,0.2,0.8,0.6,1.1c1,0.6,1.7,1.4,2.1,2.5C14,6.1,14,6.8,14,7.6
	C13.9,7,13.8,6.5,13.6,6c-0.5-1.1-1.4-1.8-2.5-2.4s-2.3-0.9-3.6-1c-0.2,0-0.5-0.1-0.7,0c-0.3,0-0.5-0.1-0.5-0.4c0-0.1,0-0.3,0.1-0.4
	s0.2-0.2,0.3-0.2c0.4-0.1,0.9,0,1.3,0C8.7,1.7,9.3,1.8,9.9,2c0.1,0,0.2,0.1,0.2,0c0.1-0.1,0-0.2,0-0.2C10,1.4,9.8,1.3,9.4,1.2
	C6.8,0.5,4.3,0.8,2.1,2.5C1.6,2.9,1.1,3.4,0.8,4L0.7,4.1z"/>
<linearGradient id="SVGID_00000124148906814419450100000001506788509821231292_" gradientUnits="userSpaceOnUse" x1="8.2938" y1="1077.0096" x2="5.8086" y2="1075.6892" gradientTransform="matrix(1 0 0 1 0 -1064)">
	<stop  offset="0" style="stop-color:#B71DFF"/>
	<stop  offset="0.5104" style="stop-color:#FF4F93"/>
	<stop  offset="1" style="stop-color:#8904FF"/>
</linearGradient>
<path fill="url(#SVGID_00000124148906814419450100000001506788509821231292_)" d="M7,11.6c0.3,0,0.5,0,0.8,0.2
	c0.2,0.1,0.4,0.3,0.4,0.5c0,0.3-0.1,0.4-0.4,0.5c-0.6,0.3-1.1,0.3-1.7,0c-0.4-0.3-0.4-0.6,0-0.9C6.4,11.7,6.7,11.6,7,11.6z"/>
<linearGradient id="SVGID_00000181806890360773095630000018219289017924975027_" gradientUnits="userSpaceOnUse" x1="13.9867" y1="1072.606" x2="12.0547" y2="1072.4033" gradientTransform="matrix(1 0 0 1 0 -1064)">
	<stop  offset="0" style="stop-color:#B71DFF"/>
	<stop  offset="0.5104" style="stop-color:#FF4F93"/>
	<stop  offset="1" style="stop-color:#8904FF"/>
</linearGradient>
<path fill="url(#SVGID_00000181806890360773095630000018219289017924975027_)" d="M12.9,10.7c0.2-0.4,0.3-0.8,0.3-1.3
	c0-0.7-0.2-1.4-0.6-2c-0.1-0.2-0.2-0.3-0.3-0.5c-0.1-0.3,0-0.5,0.2-0.6s0.4,0,0.6,0.2c0.8,1.2,0.8,2.5,0.1,3.7
	C13.1,10.4,13.1,10.6,12.9,10.7C13,10.7,12.9,10.7,12.9,10.7z"/>
<linearGradient id="SVGID_00000063593290156773203100000010117441441103538311_" gradientUnits="userSpaceOnUse" x1="13.0305" y1="1075.6975" x2="9.6869" y2="1074.9856" gradientTransform="matrix(1 0 0 1 0 -1064)">
	<stop  offset="0" style="stop-color:#B71DFF"/>
	<stop  offset="0.5104" style="stop-color:#FF4F93"/>
	<stop  offset="1" style="stop-color:#8904FF"/>
</linearGradient>
<path fill="url(#SVGID_00000063593290156773203100000010117441441103538311_)" d="M10,13.3c0.4-0.3,0.9-0.6,1.2-1
	c0.4-0.6,0.6-1.2,0.5-1.9c-0.1-0.3,0.1-0.6,0.3-0.9c0.1-0.1,0.2-0.2,0.3-0.2c0.2,0,0.2,0.2,0.2,0.3c0.1,0.7,0,1.3-0.3,1.8
	C11.7,12.4,10.9,12.9,10,13.3z"/>
<linearGradient id="SVGID_00000063624646541720266350000014422229609177155990_" gradientUnits="userSpaceOnUse" x1="4.5841" y1="1075.8888" x2="1.0761" y2="1075.0664" gradientTransform="matrix(1 0 0 1 0 -1064)">
	<stop  offset="0" style="stop-color:#B71DFF"/>
	<stop  offset="0.5104" style="stop-color:#FF4F93"/>
	<stop  offset="1" style="stop-color:#8904FF"/>
</linearGradient>
<path fill="url(#SVGID_00000063624646541720266350000014422229609177155990_)" d="M4.1,13.4c-1-0.4-1.9-1-2.4-2.1
	c-0.2-0.4-0.3-0.9-0.2-1.3c0-0.2,0-0.3,0.2-0.4c0.2,0,0.2,0.1,0.3,0.2c0.2,0.2,0.3,0.5,0.3,0.8c0,1.2,0.7,2,1.7,2.6
	C4,13.3,4,13.3,4.1,13.4C4.1,13.3,4.1,13.4,4.1,13.4z"/>
<linearGradient id="SVGID_00000033359808326729650280000003053541685087773061_" gradientUnits="userSpaceOnUse" x1="11.9519" y1="1072.6375" x2="10.5055" y2="1072.2656" gradientTransform="matrix(1 0 0 1 0 -1064)">
	<stop  offset="0" style="stop-color:#B71DFF"/>
	<stop  offset="0.5104" style="stop-color:#FF4F93"/>
	<stop  offset="1" style="stop-color:#8904FF"/>
</linearGradient>
<path fill="url(#SVGID_00000033359808326729650280000003053541685087773061_)" d="M11.8,8.4c0,0.4-0.3,0.8-0.6,0.8s-0.5-0.3-0.5-0.7
	s0.3-0.8,0.6-0.8C11.5,7.8,11.8,8.1,11.8,8.4z"/>
<linearGradient id="SVGID_00000060009301891296258810000007991726707680306090_" gradientUnits="userSpaceOnUse" x1="5.619" y1="1066.6761" x2="4.1743" y2="1066.1384" gradientTransform="matrix(1 0 0 1 0 -1064)">
	<stop  offset="0" style="stop-color:#B71DFF"/>
	<stop  offset="0.5104" style="stop-color:#FF4F93"/>
	<stop  offset="1" style="stop-color:#8904FF"/>
</linearGradient>
<path fill="url(#SVGID_00000060009301891296258810000007991726707680306090_)" d="M5,1.9c0.3,0,0.5,0.2,0.5,0.4
	c0,0.3-0.4,0.6-0.8,0.6c-0.2,0-0.4-0.2-0.4-0.4C4.3,2.2,4.6,1.9,5,1.9z"/>
<linearGradient id="SVGID_00000025436712120977462930000015591797066436921781_" gradientUnits="userSpaceOnUse" x1="7" y1="1064.9551" x2="7" y2="1076.9551" gradientTransform="matrix(1 0 0 1 0 -1064)">
	<stop  offset="0" style="stop-color:#F5B7FF"/>
	<stop  offset="1" style="stop-color:#8E40F2"/>
</linearGradient>
<ellipse fill="url(#SVGID_00000025436712120977462930000015591797066436921781_)" cx="7" cy="7" rx="5.9" ry="6"/>
<linearGradient id="SVGID_00000089564560923013643450000001970935139057863073_" gradientUnits="userSpaceOnUse" x1="0.6862" y1="1067.1644" x2="15.1659" y2="1072.0671" gradientTransform="matrix(1 0 0 1 0 -1064)">
	<stop  offset="0" style="stop-color:#D680FF"/>
	<stop  offset="0.5104" style="stop-color:#FF72A9"/>
	<stop  offset="1" style="stop-color:#9B4DE0"/>
</linearGradient>
<path fill="url(#SVGID_00000089564560923013643450000001970935139057863073_)" d="M12.8,3.2c1.1,1.4,1.2,3,0.1,4.4
	c0,0.1-0.1,0.1-0.1,0.2s0,0.1,0,0.2c0,0.3,0,0.5,0,0.9c0.6-0.8,1-1.6,1-2.5c0.2,1,0,2-0.5,2.9c-0.6,1-1.4,1.6-2.4,2.2
	c-0.1,0.1-0.3,0.1-0.4,0c-0.2-0.1-0.2-0.3-0.1-0.5c0-0.3,0.2-0.4,0.4-0.5c0.3-0.2,0.6-0.3,0.8-0.5c0.1,0,0.1-0.1,0.1-0.1
	c0-0.1,0.1-0.1,0-0.2c0-0.3,0-0.6,0.1-1c-0.2,0.1-0.3,0.2-0.5,0.3c-1.2,0.8-2.6,1.2-4.1,1.3c-1.3,0-2.8-0.3-4.2-1
	C2.8,9.3,2.7,9.1,2.5,9c-0.3-0.3-0.3-0.8,0-1c0.2-0.1,0.4-0.1,0.6,0c1.1,0.6,2.2,0.9,3.5,0.9C7,8.9,7,8.9,7,8.5
	c0-0.2-0.1-0.4-0.1-0.6c0-0.2-0.1-0.3-0.4-0.3c-0.7,0-1.3-0.2-2-0.4C4.1,7.1,3.9,6.7,3.9,6.3C4,5.9,4.3,5.7,4.7,5.8
	c0.9,0.3,1.8,0.4,2.8,0.3c0.4,0,0.8-0.1,1.2-0.2c0.2,0,0.2-0.1,0.2-0.3C8.7,5.5,8.6,5.3,8.4,5C8.3,4.8,8.2,4.8,7.9,4.8
	C6.8,5,5.6,4.9,4.6,4.3c-0.4-0.2-0.7-0.5-1-0.8C3,2.7,3.1,1.7,3.9,1.1c0.7-0.6,1.6-0.9,2.5-0.9c0.6,0,1.2,0,1.8,0.1
	c0.1,0,0.3,0,0.2,0.2c0,0.1-0.2,0.1-0.3,0.1c-0.8-0.3-1.7-0.3-2.5,0C5.3,0.7,5.1,0.9,4.8,1.1C4.2,1.6,4.2,2.5,4.8,3
	c0.7,0.6,1.6,0.7,2.5,0.6C8,3.5,8.5,3.4,9,3c0.6-0.5,0.7-1.2,0.2-1.8C9.1,1,8.9,1,9,0.8c0.1-0.1,0.3-0.1,0.4-0.1
	c0.8,0.3,1.3,1.1,1.2,2c0,0.6-0.4,1-0.9,1.4c-0.1,0.1-0.2,0.3,0,0.5C9.8,4.8,9.9,5,10,5.2s0.2,0.2,0.4,0.1c0.1-0.1,0.3-0.2,0.4-0.3
	c0.2-0.1,0.4-0.2,0.7-0.1c0.2,0.1,0.3,0.4,0.3,0.6c0,0.3-0.1,0.5-0.3,0.7C10.8,6.7,10.1,7,9.3,7.3C9,7.4,8.7,7.4,8.4,7.5
	c-0.2,0-0.2,0.1-0.2,0.3c0.1,0.3,0.1,0.6,0.1,0.9c0,0.1,0.1,0.2,0.2,0.2c1.6-0.3,3-0.9,4-2.2c0.8-1,0.9-2.1,0.4-3.3
	C12.8,3.3,12.8,3.3,12.8,3.2L12.8,3.2z"/>
<linearGradient id="SVGID_00000010291766237765352010000005978155901776753552_" gradientUnits="userSpaceOnUse" x1="-0.5092" y1="1070.2996" x2="13.1871" y2="1078.239" gradientTransform="matrix(1 0 0 1 0 -1064)">
	<stop  offset="0" style="stop-color:#D680FF"/>
	<stop  offset="0.5104" style="stop-color:#FF72A9"/>
	<stop  offset="1" style="stop-color:#9B4DE0"/>
</linearGradient>
<path fill="url(#SVGID_00000010291766237765352010000005978155901776753552_)" d="M13.3,9.9c-0.6,1.9-3.2,3.9-5.9,4.1
	c-3.1,0.2-5.9-2-6.7-3.9c0.6,0.9,1.3,1.5,2.2,2c-0.1-0.5-0.2-0.8-0.6-1.1c-1-0.6-1.7-1.4-2.1-2.5C0,7.9,0,7.2,0,6.4
	C0.1,7,0.2,7.5,0.4,8C1,9.1,1.9,9.8,2.9,10.4c1.1,0.6,2.3,0.9,3.6,1c0.2,0,0.5,0.1,0.7,0c0.3,0,0.5,0.1,0.5,0.4c0,0.1,0,0.3-0.1,0.4
	c-0.1,0.1-0.2,0.2-0.3,0.2c-0.4,0.1-0.9,0-1.3,0c-0.7-0.1-1.3-0.2-1.9-0.4c-0.1,0-0.2-0.1-0.2,0c-0.1,0.1,0,0.2,0,0.2
	c0.1,0.4,0.3,0.5,0.7,0.6c2.6,0.7,5.1,0.4,7.4-1.3C12.5,11.1,13,10.6,13.3,9.9C13.2,10,13.3,9.9,13.3,9.9z"/>
<linearGradient id="SVGID_00000080924342241909004020000017804835410565703553_" gradientUnits="userSpaceOnUse" x1="5.7066" y1="1064.9905" x2="8.1918" y2="1066.311" gradientTransform="matrix(1 0 0 1 0 -1064)">
	<stop  offset="0" style="stop-color:#D680FF"/>
	<stop  offset="0.5104" style="stop-color:#FF72A9"/>
	<stop  offset="1" style="stop-color:#9B4DE0"/>
</linearGradient>
<path fill="url(#SVGID_00000080924342241909004020000017804835410565703553_)" d="M7,2.4c-0.3,0-0.5,0-0.8-0.2
	C6,2.1,5.8,1.9,5.8,1.7c0-0.3,0.1-0.4,0.4-0.5c0.6-0.3,1.1-0.3,1.7,0c0.4,0.3,0.4,0.6,0,0.9C7.6,2.3,7.3,2.4,7,2.4z"/>
<linearGradient id="SVGID_00000045619628548068143340000013867544345801536641_" gradientUnits="userSpaceOnUse" x1="1.880977e-02" y1="1069.3446" x2="1.9508" y2="1069.5472" gradientTransform="matrix(1 0 0 1 0 -1064)">
	<stop  offset="0" style="stop-color:#D680FF"/>
	<stop  offset="0.5104" style="stop-color:#FF72A9"/>
	<stop  offset="1" style="stop-color:#9B4DE0"/>
</linearGradient>
<path fill="url(#SVGID_00000045619628548068143340000013867544345801536641_)" d="M1.1,3.3C0.9,3.7,0.8,4.1,0.8,4.6
	c0,0.7,0.2,1.4,0.6,2C1.5,6.7,1.7,6.9,1.7,7c0.1,0.3,0,0.5-0.2,0.6s-0.4,0-0.6-0.2C0.1,6.2,0.1,5,0.8,3.7C0.9,3.6,0.9,3.4,1.1,3.3
	C1,3.3,1.1,3.3,1.1,3.3z"/>
<linearGradient id="SVGID_00000030462282354875369060000013253952655283494528_" gradientUnits="userSpaceOnUse" x1="0.9787" y1="1066.2589" x2="4.3223" y2="1066.9709" gradientTransform="matrix(1 0 0 1 0 -1064)">
	<stop  offset="0" style="stop-color:#D680FF"/>
	<stop  offset="0.5104" style="stop-color:#FF72A9"/>
	<stop  offset="1" style="stop-color:#9B4DE0"/>
</linearGradient>
<path fill="url(#SVGID_00000030462282354875369060000013253952655283494528_)" d="M4,0.7C3.5,1,3.1,1.3,2.8,1.7
	C2.4,2.3,2.1,2.9,2.3,3.6c0.1,0.3,0,0.6-0.3,0.9c0,0.1-0.1,0.2-0.3,0.1c-0.2,0-0.2-0.2-0.2-0.3C1.3,3.7,1.5,3,1.8,2.5
	C2.3,1.6,3.1,1.1,4,0.7z"/>
<linearGradient id="SVGID_00000043430268518511550340000000834729361167497391_" gradientUnits="userSpaceOnUse" x1="9.4154" y1="1066.111" x2="12.9234" y2="1066.9336" gradientTransform="matrix(1 0 0 1 0 -1064)">
	<stop  offset="0" style="stop-color:#D680FF"/>
	<stop  offset="0.5104" style="stop-color:#FF72A9"/>
	<stop  offset="1" style="stop-color:#9B4DE0"/>
</linearGradient>
<path fill="url(#SVGID_00000043430268518511550340000000834729361167497391_)" d="M9.9,0.6c1,0.4,1.9,1,2.4,2.1
	c0.2,0.4,0.3,0.9,0.2,1.3c0,0.2,0,0.3-0.2,0.4c-0.2,0-0.2-0.1-0.3-0.2c-0.2-0.2-0.3-0.5-0.3-0.8c0-1.2-0.7-2-1.7-2.6
	C10,0.7,10,0.7,9.9,0.6C9.9,0.7,9.9,0.6,9.9,0.6z"/>
<linearGradient id="SVGID_00000177472240147984355930000004610116589177888666_" gradientUnits="userSpaceOnUse" x1="2.0484" y1="1069.3627" x2="3.4949" y2="1069.7345" gradientTransform="matrix(1 0 0 1 0 -1064)">
	<stop  offset="0" style="stop-color:#D680FF"/>
	<stop  offset="0.5104" style="stop-color:#FF72A9"/>
	<stop  offset="1" style="stop-color:#9B4DE0"/>
</linearGradient>
<path fill="url(#SVGID_00000177472240147984355930000004610116589177888666_)" d="M2.2,5.6c0-0.4,0.3-0.8,0.6-0.8s0.5,0.3,0.5,0.7
	c0,0.4-0.3,0.8-0.6,0.8C2.5,6.2,2.2,5.9,2.2,5.6z"/>
<linearGradient id="SVGID_00000021088946148472216200000006240975283198832048_" gradientUnits="userSpaceOnUse" x1="8.3814" y1="1075.3241" x2="9.8261" y2="1075.8617" gradientTransform="matrix(1 0 0 1 0 -1064)">
	<stop  offset="0" style="stop-color:#D680FF"/>
	<stop  offset="0.5104" style="stop-color:#FF72A9"/>
	<stop  offset="1" style="stop-color:#9B4DE0"/>
</linearGradient>
<path fill="url(#SVGID_00000021088946148472216200000006240975283198832048_)" d="M9,12.1c-0.3,0-0.5-0.2-0.5-0.4
	c0-0.3,0.4-0.6,0.8-0.6c0.2,0,0.4,0.2,0.4,0.4C9.7,11.8,9.4,12.1,9,12.1z"/>
</svg>
