<svg width="131" height="20" viewBox="0 0 131 20" fill="none" xmlns="http://www.w3.org/2000/svg">
<path fill-rule="evenodd" clip-rule="evenodd" d="M92.8547 6.37921L92.8556 6.38137L92.8575 6.38574C93.8895 8.75684 94.924 11.1336 95.9705 13.5224C95.4232 13.7586 94.8919 13.9947 94.3607 14.2308C93.8295 14.4669 93.2982 14.703 92.7509 14.9391C91.8279 12.7927 90.9264 10.6892 90.0249 8.58568C90.0035 8.58568 89.982 8.58568 89.9391 8.56422C88.4366 11.8912 86.9341 15.1967 85.3887 18.588C84.9798 17.63 84.5727 16.6771 84.1664 15.726C83.1433 13.3317 82.1251 10.9485 81.0958 8.52129C80.087 10.7321 79.1211 12.8571 78.1552 15.0035C77.29 14.615 76.4394 14.2411 75.5674 13.8578L75 13.6083C77.082 9.07936 79.1426 4.59334 81.2461 0C81.9647 1.65177 82.678 3.28745 83.3912 4.92313L83.3966 4.93543L83.3991 4.94121L83.4007 4.94495L83.4052 4.95523C84.1147 6.58214 84.8241 8.20915 85.5389 9.85207C87.04 6.57118 88.5196 3.33314 89.9992 0.095145L90.0032 0.0865562L90.0035 0.0858567H90.1108C91.0194 2.16256 91.9233 4.23926 92.8291 6.32028L92.838 6.3409L92.8441 6.35485L92.8469 6.36137L92.8502 6.3688L92.8515 6.37196L92.8522 6.37361L92.8547 6.37921ZM49.3429 8.54537H46.9395C46.9224 8.3465 46.877 8.1661 46.8031 8.00417C46.7321 7.84224 46.6327 7.70304 46.5048 7.58656C46.3798 7.46724 46.2278 7.37633 46.0489 7.31383C45.8699 7.24849 45.6667 7.21582 45.4395 7.21582C45.0417 7.21582 44.7051 7.31241 44.4295 7.50559C44.1568 7.69877 43.9494 7.97576 43.8074 8.33656C43.6682 8.69736 43.5986 9.13059 43.5986 9.63628C43.5986 10.1704 43.6696 10.6178 43.8116 10.9786C43.9565 11.3366 44.1653 11.6064 44.4381 11.7883C44.7108 11.9672 45.0389 12.0567 45.4224 12.0567C45.6412 12.0567 45.8372 12.0297 46.0105 11.9758C46.1838 11.9189 46.3344 11.838 46.4622 11.7329C46.59 11.6278 46.6937 11.5013 46.7733 11.3536C46.8557 11.203 46.9111 11.034 46.9395 10.8465L49.3429 10.8635C49.3145 11.2329 49.2108 11.6093 49.0318 11.9928C48.8528 12.3735 48.5986 12.7258 48.269 13.0496C47.9423 13.3707 47.5375 13.6292 47.0545 13.8252C46.5716 14.0212 46.0105 14.1192 45.3713 14.1192C44.5702 14.1192 43.8514 13.9474 43.215 13.6036C42.5815 13.2599 42.0801 12.7542 41.7108 12.0866C41.3443 11.4189 41.1611 10.6022 41.1611 9.63628C41.1611 8.66468 41.3486 7.8465 41.7236 7.18173C42.0986 6.51412 42.6042 6.00985 43.2406 5.66895C43.877 5.3252 44.5872 5.15332 45.3713 5.15332C45.9224 5.15332 46.4295 5.2286 46.8926 5.37917C47.3557 5.52974 47.7619 5.74991 48.1114 6.03968C48.4608 6.32662 48.742 6.68031 48.9551 7.10076C49.1682 7.52122 49.2974 8.00275 49.3429 8.54537ZM0.5625 13.9999V5.27264H4.32955C4.97727 5.27264 5.54403 5.40048 6.02983 5.65616C6.51563 5.91184 6.89347 6.27122 7.16335 6.73429C7.43324 7.19735 7.56818 7.73855 7.56818 8.35787C7.56818 8.98287 7.42898 9.52406 7.15057 9.98145C6.875 10.4388 6.48722 10.7911 5.98722 11.0383C5.49006 11.2854 4.90909 11.409 4.24432 11.409H2.93182V13.9999H0.5625ZM3.76705 9.56809H2.93182V7.16468H3.76705C4.04545 7.16468 4.28267 7.21298 4.47869 7.30957C4.67756 7.40332 4.82955 7.53968 4.93466 7.71866C5.04261 7.8948 5.09659 8.10787 5.09659 8.35787C5.09659 8.60502 5.04261 8.81951 4.93466 9.00133C4.82955 9.18315 4.67756 9.32377 4.47869 9.42321C4.28267 9.5198 4.04545 9.56809 3.76705 9.56809ZM9.9747 13.9999H7.41788L10.2986 5.27264H13.5372L16.4179 13.9999H13.8611L13.3568 12.3295H10.479L9.9747 13.9999ZM11.952 7.67605L12.8216 10.5567H11.0142L11.8838 7.67605H11.952ZM17.6184 5.27264V13.9999H19.9878V11.1192H20.8078L22.34 13.9999H24.9139L23.1416 10.746C23.5943 10.5288 23.9493 10.2199 24.2065 9.81951C24.4849 9.39054 24.6241 8.86355 24.6241 8.23855C24.6241 7.61923 24.4892 7.08798 24.2193 6.6448C23.9494 6.20162 23.5716 5.86213 23.0858 5.62633C22.6 5.39054 22.0332 5.27264 21.3855 5.27264H17.6184ZM19.9878 9.27832H20.823C21.1014 9.27832 21.3386 9.24423 21.5346 9.17605C21.7335 9.10502 21.8855 8.99281 21.9906 8.8394C22.0986 8.68599 22.1525 8.48571 22.1525 8.23855C22.1525 7.98855 22.0986 7.78542 21.9906 7.62917C21.8855 7.47008 21.7335 7.3536 21.5346 7.27974C21.3386 7.20304 21.1014 7.16468 20.823 7.16468H19.9878V9.27832ZM25.7554 7.18173V5.27264H33.3407V7.18173H30.7157V13.9999H28.3804V7.18173H25.7554ZM36.9617 13.9999V5.27264H34.5923V13.9999H36.9617ZM58.6656 12.0951C59.0434 11.4275 59.2324 10.6079 59.2324 9.63628C59.2324 8.66468 59.0434 7.8465 58.6656 7.18173C58.2878 6.51412 57.7778 6.00985 57.1358 5.66895C56.4937 5.3252 55.7778 5.15332 54.988 5.15332C54.1926 5.15332 53.4738 5.3252 52.8318 5.66895C52.1926 6.00985 51.6841 6.51412 51.3062 7.18173C50.9312 7.8465 50.7437 8.66468 50.7437 9.63628C50.7437 10.6022 50.9312 11.4189 51.3062 12.0866C51.6841 12.7513 52.1926 13.257 52.8318 13.6036C53.4738 13.9474 54.1926 14.1192 54.988 14.1192C55.7778 14.1192 56.4937 13.9488 57.1358 13.6079C57.7778 13.2641 58.2878 12.7599 58.6656 12.0951ZM56.5861 8.31525C56.7253 8.67321 56.7949 9.11355 56.7949 9.63628C56.7949 10.159 56.7253 10.6008 56.5861 10.9616C56.4497 11.3195 56.2466 11.5922 55.9767 11.7797C55.7096 11.9644 55.3801 12.0567 54.988 12.0567C54.596 12.0567 54.265 11.9644 53.9951 11.7797C53.7281 11.5922 53.525 11.3195 53.3858 10.9616C53.2494 10.6008 53.1812 10.159 53.1812 9.63628C53.1812 9.11355 53.2494 8.67321 53.3858 8.31525C53.525 7.95446 53.7281 7.68173 53.9951 7.49707C54.265 7.30957 54.596 7.21582 54.988 7.21582C55.3801 7.21582 55.7096 7.30957 55.9767 7.49707C56.2466 7.68173 56.4497 7.95446 56.5861 8.31525ZM68.2397 5.27264V13.9999H66.2625L63.1091 9.41468H63.0579V13.9999H60.6886V5.27264H62.7L65.8022 9.84082H65.8704V5.27264H68.2397ZM102.818 2.53108C99.7482 2.48815 97.2368 4.99947 97.2154 8.09031C97.1939 11.0094 99.5979 13.671 102.689 13.7139C105.865 13.7569 108.334 11.0738 108.334 8.1547C108.355 5.04239 105.93 2.55255 102.818 2.53108ZM100.156 8.04738C100.177 6.58782 101.379 5.40728 102.818 5.42875C104.277 5.45021 105.436 6.63075 105.436 8.06885C105.415 9.52841 104.213 10.7089 102.775 10.6875C101.294 10.666 100.135 9.48548 100.156 8.04738ZM127.581 8.29907L127.578 8.29985C126.985 8.46194 126.381 8.62704 125.741 8.79919L126.782 9.42572C128.197 10.2778 129.585 11.113 131 11.9759L130.912 12.0361L130.911 12.0367L130.911 12.0369L130.91 12.037L130.909 12.0378L130.909 12.0382L130.908 12.0388C130.474 12.3345 130.092 12.5952 129.691 12.8559C129.54 12.9525 129.39 13.0438 129.24 13.135C129.09 13.2262 128.939 13.3174 128.789 13.414C128.618 13.5213 128.489 13.5213 128.296 13.414C128.059 13.2637 127.818 13.1188 127.576 12.9739C127.335 12.8291 127.094 12.6842 126.857 12.534C124.346 11.01 121.835 9.48604 119.345 7.96208C119.281 7.91915 119.216 7.87623 119.13 7.81183C119.375 7.6623 119.611 7.51277 119.839 7.36869C119.97 7.28527 120.099 7.20368 120.225 7.12498C121.104 6.58892 121.989 6.05286 122.873 5.5168L122.874 5.51656L122.874 5.51633L122.874 5.51609L122.875 5.51586L122.875 5.51562L122.875 5.51538L122.876 5.51515C123.761 4.97855 124.647 4.44195 125.527 3.90535C125.934 3.65896 126.346 3.40722 126.759 3.15548L126.76 3.15431C127.174 2.90204 127.587 2.64976 127.995 2.40285C128.124 2.33846 128.338 2.27407 128.446 2.33846C129.219 2.76775 129.97 3.21849 130.785 3.71217C129.025 4.78538 127.308 5.83713 125.527 6.9318C126.088 7.08498 126.626 7.22844 127.153 7.36912C127.733 7.52413 128.301 7.67577 128.875 7.8333C128.897 7.89769 128.897 7.91915 128.897 7.94062C128.46 8.05895 128.027 8.17729 127.588 8.29725L127.581 8.29907ZM113.206 12.3837L114.172 15.3457C114.194 15.3457 114.215 15.3457 114.258 15.3672C114.394 14.9236 114.528 14.4799 114.661 14.0363L114.661 14.0362L114.661 14.0361L114.661 14.036L114.661 14.0359L114.661 14.0359L114.661 14.0358C114.929 13.1488 115.196 12.2618 115.482 11.3749C115.922 9.96915 116.367 8.5688 116.812 7.16845L116.812 7.16836L116.812 7.16827L116.812 7.16818L116.812 7.16809L116.812 7.168L116.812 7.16791C117.258 5.76736 117.703 4.36681 118.143 2.9609C118.165 2.85358 118.122 2.68186 118.057 2.59601C117.886 2.33844 117.671 2.10233 117.456 1.86622C117.352 1.75235 117.248 1.63428 117.14 1.51202C117.003 1.35773 116.861 1.19677 116.705 1.02912C116.302 2.28781 115.904 3.52761 115.509 4.75959L115.508 4.76186C115.061 6.1552 114.617 7.53855 114.172 8.92795H114.087C113.598 7.43659 113.102 5.95219 112.603 4.45889L112.601 4.45276L112.599 4.44758C112.223 3.32258 111.845 2.19251 111.468 1.05058C111.357 1.18245 111.249 1.31173 111.142 1.43906L111.142 1.43971L111.142 1.43977L111.142 1.44009L111.14 1.44151L111.14 1.44243L111.138 1.44381L111.138 1.44449C110.812 1.83328 110.502 2.20391 110.18 2.57454C110.051 2.72479 110.051 2.85358 110.116 3.02529C110.306 3.56079 110.482 4.11019 110.655 4.65112L110.655 4.65184C110.697 4.7828 110.739 4.91327 110.781 5.04293C111.017 5.76198 111.259 6.48639 111.5 7.21081L111.502 7.21543L111.502 7.21784C111.743 7.93991 111.984 8.66197 112.219 9.37869C112.38 9.88315 112.546 10.3822 112.713 10.8813L112.713 10.8814C112.879 11.3804 113.046 11.8793 113.206 12.3837ZM110.073 16.5543L109.386 18.3788H108.721L108.034 16.5543H108.699L109.043 17.6061L109.386 16.5543H110.073ZM110.846 15.6942C110.652 15.6942 110.502 15.8445 110.502 16.0377C110.502 16.2309 110.652 16.3811 110.846 16.3811C111.039 16.3811 111.189 16.2309 111.189 16.0377C111.189 15.8445 111.039 15.6942 110.846 15.6942ZM111.146 16.5528H110.545V18.3773H111.146V16.5528ZM113.679 16.5516V18.3761H113.078V18.2044C112.97 18.3331 112.799 18.419 112.563 18.419C112.069 18.419 111.704 18.0112 111.704 17.4531C111.704 16.895 112.069 16.4872 112.563 16.4872C112.799 16.4872 112.97 16.5731 113.078 16.7019V16.5301H113.679V16.5516ZM113.078 17.4531C113.078 17.217 112.928 17.0453 112.691 17.0453C112.455 17.0453 112.305 17.1955 112.305 17.4531C112.305 17.6892 112.455 17.8609 112.691 17.8609C112.928 17.8609 113.078 17.6892 113.078 17.4531ZM115.267 19.1497C115.761 19.1497 116.233 18.8921 116.233 18.2911V16.574H115.632V16.7457C115.503 16.5954 115.353 16.5096 115.117 16.5096C114.602 16.5096 114.237 16.9174 114.237 17.4325C114.237 17.9262 114.602 18.3555 115.117 18.3555C115.353 18.3555 115.525 18.2697 115.632 18.1194V18.2911C115.632 18.5058 115.482 18.6131 115.267 18.6131C115.074 18.6131 114.967 18.5272 114.881 18.3984L114.366 18.6989C114.538 18.9994 114.86 19.1497 115.267 19.1497ZM115.246 17.0462C115.482 17.0462 115.632 17.2179 115.632 17.4325C115.632 17.6472 115.482 17.8189 115.246 17.8189C115.01 17.8189 114.86 17.6472 114.86 17.4325C114.86 17.1964 115.01 17.0462 115.246 17.0462ZM118.787 18.2911C118.787 18.8921 118.315 19.1497 117.821 19.1497C117.413 19.1497 117.091 18.9994 116.92 18.6989L117.435 18.3984C117.521 18.5272 117.628 18.6131 117.821 18.6131C118.036 18.6131 118.186 18.5058 118.186 18.2911V18.1194C118.079 18.2697 117.907 18.3555 117.671 18.3555C117.156 18.3555 116.791 17.9262 116.791 17.4325C116.791 16.9174 117.156 16.5096 117.671 16.5096C117.907 16.5096 118.057 16.5954 118.186 16.7457V16.574H118.787V18.2911ZM118.186 17.4325C118.186 17.2179 118.036 17.0462 117.8 17.0462C117.564 17.0462 117.413 17.1964 117.413 17.4325C117.413 17.6472 117.564 17.8189 117.8 17.8189C118.036 17.8189 118.186 17.6472 118.186 17.4325ZM119.71 15.6942C119.517 15.6942 119.367 15.8445 119.367 16.0377C119.367 16.2309 119.517 16.3811 119.71 16.3811C119.903 16.3811 120.053 16.2309 120.053 16.0377C120.053 15.8445 119.903 15.6942 119.71 15.6942ZM120.032 16.5528H119.431V18.3773H120.032V16.5528Z" fill="white"/>
</svg>
