<svg width="115" height="99" viewBox="0 0 115 99" fill="none" xmlns="http://www.w3.org/2000/svg">
<path d="M24.0696 34.3447C24.0696 34.3447 14.9399 34.7144 16.9277 37.3022C18.3299 39.1275 21.6581 38.211 21.6581 38.211C21.6581 38.211 22.3207 51.72 24.3932 52.3053C28.3841 53.4221 28.8694 40.1211 24.0696 34.3447Z" fill="#DFDFDF"/>
<path d="M92.3306 15.5298C94.1453 15.0661 96.0677 15.294 97.7237 16.1691C98.6188 16.6837 99.4013 17.373 100.025 18.1959C100.648 19.0189 101.1 19.9587 101.352 20.9596C103.148 27.121 101.09 29.0927 104.943 31.0566C108.795 33.0206 110.659 31.3416 113.579 36.9254C116.499 42.5092 113.895 50.727 106.468 49.9568C99.0411 49.1866 80.9204 46.4063 80.9204 46.4063L77.1992 20.5129L85.728 17.1395L92.3306 15.5298Z" fill="#979797"/>
<path d="M2.19141 44.9804C2.19141 44.9804 12.7618 56.2327 20.0887 55.2469C24.7652 54.6076 27.1073 44.0947 27.1073 44.0947L17.2458 39.4736L2.19141 44.9804Z" fill="#DFDFDF"/>
<path d="M14.5243 49.846L22.633 45.8573C23.4959 45.4329 23.8511 44.3896 23.4266 43.5271L15.1813 26.7761C14.7567 25.9135 13.7131 25.5583 12.8502 25.9828L4.7415 29.9714C3.87867 30.3958 3.52338 31.4391 3.94795 32.3017L12.1932 49.0527C12.6178 49.9153 13.6615 50.2704 14.5243 49.846Z" fill="#D5D5D5"/>
<path d="M77.2021 39.3972C77.2021 39.3972 69.2666 40.5293 64.1047 49.8639C58.9428 59.1985 54.6591 84.9378 55.445 85.7542C56.2308 86.5706 73.3653 89.0044 87.5645 89.0044C101.764 89.0044 106.224 88.4575 107.596 87.6489C108.967 86.8402 108.613 42.8938 100.747 39.3972C92.8805 35.9006 85.6384 36.6014 77.2021 39.3972Z" fill="#F0F0F0"/>
<path d="M15.7587 49.2405L23.8674 45.2519C24.7302 44.8275 25.0855 43.7842 24.6609 42.9216L16.4156 26.1706C15.9911 25.3081 14.9474 24.9529 14.0846 25.3773L5.97588 29.366C5.11304 29.7904 4.75776 30.8337 5.18232 31.6962L13.4276 48.4472C13.8522 49.3098 14.8958 49.665 15.7587 49.2405Z" fill="#F0F0F0"/>
<path d="M17.2673 45.1966C17.4114 45.4198 17.6169 45.5966 17.8592 45.7058C18.1014 45.8149 18.37 45.8518 18.6328 45.812C18.8955 45.7721 19.1411 45.6573 19.34 45.4812C19.539 45.3051 19.6829 45.0754 19.7543 44.8195C19.8257 44.5637 19.8217 44.2926 19.7427 44.039C19.6637 43.7854 19.513 43.56 19.3089 43.3899C19.1048 43.2199 18.8559 43.1124 18.5921 43.0804C18.3283 43.0484 18.0609 43.0932 17.822 43.2096C17.6548 43.3033 17.5077 43.4292 17.3892 43.5799C17.2708 43.7306 17.1833 43.9032 17.1317 44.0879C17.0802 44.2725 17.0656 44.4655 17.0889 44.6558C17.1121 44.846 17.1728 45.0298 17.2673 45.1966V45.1966Z" fill="#D5D5D5"/>
<path d="M6.75941 46.4524C6.75941 46.4524 1.59749 47.8541 2.20613 44.9813C2.81478 42.1086 11.3204 37.4567 13.3312 39.7441C15.342 42.0315 6.75941 46.4524 6.75941 46.4524Z" fill="#DFDFDF"/>
<path d="M10.9751 48.7162C10.0665 49.5066 8.96233 50.0385 7.77782 50.2566C6.71462 50.4337 5.66682 50.2566 5.72075 48.9858C5.8209 46.3826 12.5237 41.0529 14.627 42.7396C16.1987 44.0027 12.8011 47.1758 10.9751 48.7162Z" fill="#DFDFDF"/>
<path d="M5.85165 46.3289C5.76432 46.3292 5.67946 46.2999 5.61098 46.2457C5.5425 46.1915 5.49448 46.1157 5.47478 46.0307C5.45507 45.9456 5.46486 45.8564 5.50254 45.7776C5.54022 45.6989 5.60355 45.6353 5.68215 45.5972L12.3156 42.3624C12.3611 42.3402 12.4106 42.3271 12.4612 42.324C12.5118 42.3208 12.5625 42.3277 12.6104 42.3441C12.6583 42.3606 12.7026 42.3863 12.7405 42.4198C12.7785 42.4534 12.8095 42.4941 12.8318 42.5396C12.8541 42.5851 12.8671 42.6345 12.8703 42.6851C12.8734 42.7357 12.8666 42.7864 12.8501 42.8343C12.8337 42.8822 12.8079 42.9264 12.7744 42.9644C12.7408 43.0023 12.7001 43.0333 12.6546 43.0556L6.02114 46.2904C5.96799 46.315 5.91023 46.3281 5.85165 46.3289Z" fill="black"/>
<path d="M24.0697 34.345C24.0697 34.345 16.3654 33.4593 16.9278 37.3025C17.2591 39.5052 24.0004 39.2356 24.0004 39.2356L24.0697 34.345Z" fill="#DFDFDF"/>
<path d="M29.6414 43.4868L16.0586 57.1883C16.0586 57.1883 24.3716 73.6393 42.8929 76.0346C61.4142 78.4298 72.131 66.6923 72.131 66.6923L75.2127 39.8516C75.2127 39.8516 55.1814 48.8473 48.0163 49.7792C40.8513 50.7111 29.6414 43.4868 29.6414 43.4868Z" fill="#F0F0F0"/>
<path d="M75.222 39.8131C75.222 39.8131 62.7641 59.3448 60.2987 71.9834C58.7842 79.9446 57.8036 87.9981 57.3633 96.09L102.549 98.1772L103.459 59.4988L98.6818 39.1276L85.4688 37.3408L75.222 39.8131Z" fill="#E5E5E5"/>
<path d="M75.2213 39.8125C75.2213 39.8125 68.8651 63.3261 67.5169 71.5439C66.6796 76.865 66.1395 82.2286 65.899 87.6098L57.5859 86.3698L60.7601 67.1153L72.101 42.4696L75.2213 39.8125Z" fill="#F0F0F0"/>
<path d="M70.0358 23.3543C70.0358 23.3543 65.9062 18.0785 65.9062 15.6525C65.9062 9.56807 73.8726 4.45407 82.6093 6.34101C91.3461 8.22795 94.2429 18.5021 93.4417 23.2002C91.3692 35.3074 80.6755 32.3808 80.6755 32.3808C80.6755 32.3808 64.427 31.1639 70.0358 23.3543Z" fill="#979797"/>
<path d="M74.25 35.5538L74.2885 35.7694L75.2208 39.8129L75.945 42.986C75.945 42.986 75.8063 43.7562 79.489 42.8551C84.412 41.592 85.6524 39.1582 85.6524 39.1582L84.4814 31.6182L83.0253 32.1881L74.25 35.5538Z" fill="#DFDFDF"/>
<path d="M74.2891 35.7691L75.2213 39.8125C77.5943 39.0423 81.8162 37.2093 82.9257 33.0734C82.9992 32.7894 83.0329 32.4965 83.0258 32.2031L74.3199 35.6997L74.2891 35.7691Z" fill="black"/>
<path d="M69.1195 16.5386C69.1195 16.5386 66.4307 28.0143 69.2043 33.6674C71.9779 39.3205 77.2399 37.3874 80.2754 35.6391C82.0077 34.7014 83.4534 33.3121 84.4589 31.6187C85.4372 31.7209 86.4228 31.5115 87.2751 31.0205C88.1273 30.5295 88.8027 29.782 89.2048 28.8846C90.7457 25.6884 88.8658 22.677 86.9936 22.2534C85.1215 21.8298 83.2879 23.4549 83.2879 23.4549L84.3433 20.0738C84.3433 20.0738 74.6513 5.64062 69.1195 16.5386Z" fill="#DFDFDF"/>
<path d="M84.6267 28.3909C84.5525 28.3932 84.4796 28.3716 84.4186 28.3293C84.3329 28.2741 84.2726 28.1871 84.251 28.0875C84.2293 27.9879 84.248 27.8837 84.3031 27.7979L86.6144 24.2012C86.6412 24.1582 86.6762 24.1209 86.7174 24.0914C86.7587 24.062 86.8053 24.0409 86.8547 24.0295C86.904 24.018 86.9552 24.0165 87.0051 24.0248C87.0551 24.0331 87.103 24.0512 87.146 24.078C87.189 24.1048 87.2263 24.1398 87.2558 24.181C87.2852 24.2222 87.3063 24.2688 87.3177 24.3181C87.3292 24.3675 87.3308 24.4186 87.3225 24.4686C87.3141 24.5185 87.2961 24.5664 87.2692 24.6094L84.9579 28.2138C84.923 28.2697 84.874 28.3154 84.8159 28.3465C84.7578 28.3776 84.6925 28.3929 84.6267 28.3909V28.3909Z" fill="black"/>
<path d="M85.4676 27.0743C85.3686 27.0726 85.2739 27.0335 85.2025 26.965C85.1311 26.8964 85.0882 26.8035 85.0824 26.7047C85.0803 26.6541 85.0882 26.6036 85.1057 26.5561C85.1232 26.5086 85.1498 26.465 85.1842 26.4278C85.2185 26.3906 85.2599 26.3605 85.3059 26.3393C85.3519 26.3181 85.4016 26.3062 85.4522 26.3042L87.5092 26.2195C87.5601 26.2163 87.611 26.2235 87.659 26.2406C87.707 26.2577 87.7511 26.2843 87.7885 26.3188C87.8259 26.3534 87.856 26.3951 87.8768 26.4416C87.8977 26.488 87.9089 26.5382 87.9099 26.5891C87.9119 26.6397 87.904 26.6902 87.8865 26.7377C87.8691 26.7852 87.8424 26.8288 87.808 26.866C87.7737 26.9032 87.7323 26.9333 87.6864 26.9545C87.6404 26.9757 87.5907 26.9877 87.5401 26.9896L85.483 27.0743H85.4676Z" fill="black"/>
<path d="M77.2014 20.9896C77.1422 20.9905 77.0837 20.9777 77.0302 20.9524C76.9768 20.927 76.9299 20.8896 76.8932 20.8432C76.2538 20.0268 75.0442 20.5198 74.9903 20.5352C74.8972 20.574 74.7926 20.5747 74.699 20.5373C74.6053 20.4998 74.5301 20.4272 74.4895 20.3349C74.4691 20.2884 74.4581 20.2383 74.4571 20.1876C74.4561 20.1368 74.4652 20.0863 74.4839 20.0391C74.5025 19.9919 74.5302 19.9488 74.5656 19.9123C74.6009 19.8758 74.6431 19.8467 74.6898 19.8266C74.7668 19.8266 76.5003 19.0564 77.5019 20.3657C77.564 20.4465 77.5916 20.5486 77.5786 20.6496C77.5656 20.7506 77.5131 20.8424 77.4325 20.9048C77.3685 20.9604 77.2862 20.9905 77.2014 20.9896V20.9896Z" fill="black"/>
<path d="M68.7975 21.3132C68.7107 21.3122 68.6267 21.2824 68.5587 21.2285C68.5179 21.1983 68.4837 21.1601 68.458 21.1163C68.4324 21.0725 68.4158 21.024 68.4093 20.9737C68.4029 20.9234 68.4066 20.8723 68.4203 20.8234C68.4341 20.7746 68.4575 20.729 68.4893 20.6894C68.9133 20.1433 69.526 19.7753 70.2074 19.6574C70.4564 19.6448 70.7051 19.6889 70.9346 19.7863C71.1641 19.8836 71.3686 20.0318 71.5326 20.2196C71.5687 20.2554 71.5973 20.298 71.6169 20.3449C71.6364 20.3918 71.6465 20.4422 71.6465 20.493C71.6465 20.5438 71.6364 20.5942 71.6169 20.6411C71.5973 20.688 71.5687 20.7306 71.5326 20.7664C71.4592 20.8375 71.3611 20.8772 71.259 20.8772C71.1569 20.8772 71.0589 20.8375 70.9855 20.7664C70.8999 20.665 70.7922 20.5846 70.6707 20.5312C70.5492 20.4778 70.4171 20.4529 70.2844 20.4583C69.8146 20.5621 69.4 20.8366 69.1211 21.2285C69.0764 21.2651 69.0244 21.2916 68.9685 21.3063C68.9127 21.3209 68.8544 21.3233 68.7975 21.3132V21.3132Z" fill="black"/>
<path d="M70.1219 25.7644C70.0223 25.7645 69.9266 25.726 69.8548 25.6571C69.783 25.5882 69.7406 25.4941 69.7367 25.3947L69.6596 23.5386L68.8892 22.8608C68.8502 22.8284 68.818 22.7887 68.7944 22.7439C68.7708 22.6991 68.7563 22.6501 68.7516 22.5997C68.747 22.5493 68.7523 22.4984 68.7673 22.4501C68.7823 22.4017 68.8067 22.3568 68.8391 22.3178C68.8715 22.2789 68.9112 22.2467 68.956 22.2231C69.0008 22.1995 69.0499 22.185 69.1003 22.1803C69.1507 22.1757 69.2016 22.181 69.25 22.196C69.2983 22.211 69.3433 22.2354 69.3822 22.2678L70.3145 23.0379C70.3947 23.109 70.4444 23.2084 70.4532 23.3152L70.5379 25.3485C70.54 25.3991 70.5321 25.4496 70.5146 25.4971C70.4971 25.5446 70.4704 25.5882 70.4361 25.6254C70.4017 25.6626 70.3604 25.6926 70.3144 25.7138C70.2684 25.7351 70.2187 25.747 70.1681 25.749L70.1219 25.7644Z" fill="black"/>
<path d="M76.0759 25.1183C75.9784 25.1184 75.8846 25.0808 75.8142 25.0133C75.7439 24.9459 75.7023 24.8538 75.6984 24.7564L75.5828 22.9234L74.4272 22.1532C74.3849 22.1246 74.3487 22.0879 74.3208 22.0452C74.2928 22.0025 74.2736 21.9547 74.2643 21.9045C74.255 21.8544 74.2557 21.8029 74.2665 21.753C74.2772 21.7031 74.2978 21.6559 74.327 21.614C74.3549 21.572 74.3909 21.536 74.4329 21.5082C74.4749 21.4803 74.5221 21.4612 74.5717 21.4518C74.6212 21.4425 74.6721 21.4432 74.7214 21.4538C74.7707 21.4645 74.8173 21.4849 74.8586 21.5139L76.1683 22.3842C76.2176 22.4181 76.2584 22.4628 76.2878 22.5148C76.3172 22.5669 76.3343 22.6249 76.3378 22.6846L76.4611 24.7102C76.4675 24.8111 76.4339 24.9105 76.3676 24.9869C76.3012 25.0632 76.2076 25.1105 76.1067 25.1183H76.0759Z" fill="black"/>
<path d="M87.5258 12.4638C87.5258 12.4638 84.6289 -0.197896 93.5737 0.00235039C103.042 0.218 96.3164 16.1761 90.2762 16.1761C87.5874 16.2069 87.5258 12.4638 87.5258 12.4638Z" fill="#979797"/>
<path d="M76.3459 61.3702C76.3459 61.3702 73.3412 45.6585 71.8003 43.9642C70.2595 42.2698 60.0743 37.8027 58.78 39.0042C57.4856 40.2057 58.78 41.7923 58.78 41.7923C58.78 41.7923 56.8461 40.6909 56.1142 41.8462C55.3823 43.0014 56.7999 44.8037 56.7999 44.8037C56.7999 44.8037 55.2591 43.8255 55.4594 45.982C55.6597 48.1385 59.8894 52.0741 59.8894 52.0741C60.2192 55.2901 61.2248 58.4001 62.8401 61.2007C65.5444 65.9296 73.7804 66.1376 73.7804 66.1376L76.3459 61.3702Z" fill="#DFDFDF"/>
<path d="M66.9086 46.1362C66.8467 46.1356 66.7858 46.1197 66.7314 46.09L58.665 41.8848C58.6168 41.8632 58.5736 41.8319 58.538 41.7929C58.5024 41.7539 58.4753 41.708 58.4582 41.658C58.4411 41.608 58.4345 41.5551 58.4388 41.5025C58.443 41.4499 58.4581 41.3987 58.4829 41.3521C58.5078 41.3055 58.542 41.2646 58.5834 41.2318C58.6248 41.199 58.6725 41.175 58.7235 41.1614C58.7745 41.1478 58.8278 41.1449 58.88 41.1527C58.9322 41.1606 58.9823 41.1791 59.0271 41.2071L67.0859 45.4123C67.1766 45.4584 67.2453 45.5386 67.2771 45.6353C67.3089 45.732 67.301 45.8373 67.2554 45.9283C67.2218 45.9911 67.1719 46.0436 67.1108 46.0803C67.0497 46.1169 66.9799 46.1362 66.9086 46.1362Z" fill="black"/>
<path d="M64.7112 50.1259C64.64 50.1243 64.5707 50.103 64.5109 50.0643L56.614 45.1275C56.5283 45.0722 56.468 44.9853 56.4463 44.8857C56.4246 44.786 56.4433 44.6819 56.4984 44.5961C56.5538 44.5107 56.6401 44.4501 56.7393 44.4271C56.8385 44.4042 56.9427 44.4205 57.03 44.4728L64.9193 49.4097C65.0047 49.4651 65.0652 49.5514 65.0882 49.6505C65.1112 49.7497 65.0948 49.8538 65.0425 49.9411C65.0069 49.9969 64.958 50.043 64.9001 50.0752C64.8423 50.1075 64.7774 50.1249 64.7112 50.1259V50.1259Z" fill="black"/>
<path d="M75.222 44.0336C75.1245 44.0337 75.0308 43.996 74.9604 43.9286C74.89 43.8611 74.8485 43.769 74.8445 43.6716C74.8381 43.5707 74.8717 43.4713 74.938 43.3949C75.0044 43.3185 75.0981 43.2713 75.1989 43.2634C75.2529 43.2634 80.6844 42.886 84.7832 39.7899C84.8236 39.7596 84.8697 39.7375 84.9187 39.7249C84.9677 39.7124 85.0187 39.7096 85.0687 39.7168C85.1188 39.7239 85.167 39.7408 85.2105 39.7666C85.2541 39.7924 85.2921 39.8265 85.3224 39.8669C85.3528 39.9074 85.3749 39.9534 85.3874 40.0024C85.4 40.0514 85.4028 40.1024 85.3956 40.1524C85.3885 40.2025 85.3715 40.2507 85.3457 40.2942C85.32 40.3377 85.2859 40.3757 85.2454 40.406C82.2856 42.4776 78.83 43.7292 75.2297 44.0336H75.222Z" fill="#F0F0F0"/>
<path d="M62.8633 67.0932C62.8633 67.0932 76.4538 97.962 97.1709 96.36C117.888 94.758 116.216 55.8024 109.667 46.5603C103.119 37.3181 93.9273 37.4337 93.9273 37.4337L85.4525 61.2014L78.5186 55.3095L62.8633 67.0932Z" fill="#F0F0F0"/>
<path d="M85.4659 37.3096C85.4659 37.3096 73.84 88.3031 76.0743 88.5649C78.3085 88.8268 95.9747 89.6894 95.9747 89.6894L93.9253 37.4328L85.4659 37.3096Z" fill="#F0F0F0"/>
<path d="M92.331 15.914C92.2422 15.914 92.1561 15.8833 92.0873 15.8272C92.0186 15.7711 91.9713 15.6929 91.9535 15.6059C90.7825 10.1222 86.8301 8.53566 86.7839 8.52026C86.6901 8.48094 86.6153 8.4068 86.575 8.31345C86.5348 8.22009 86.5323 8.11478 86.5682 8.01965C86.6045 7.92507 86.6766 7.8486 86.7689 7.80679C86.8612 7.76499 86.9662 7.76121 87.0613 7.79629C87.2385 7.8656 91.445 9.52919 92.7085 15.4519C92.7187 15.5014 92.7189 15.5525 92.7093 15.6022C92.6997 15.6518 92.6804 15.6991 92.6525 15.7413C92.6246 15.7835 92.5886 15.8198 92.5467 15.8481C92.5048 15.8764 92.4577 15.8962 92.4081 15.9063L92.331 15.914Z" fill="#A9A8A9"/>
<path d="M98.5511 73.6159C98.4543 73.6166 98.3608 73.5809 98.2891 73.5158L81.5475 57.9042C81.5114 57.8684 81.4828 57.8259 81.4632 57.7789C81.4437 57.732 81.4336 57.6817 81.4336 57.6308C81.4336 57.58 81.4437 57.5297 81.4632 57.4827C81.4828 57.4358 81.5114 57.3932 81.5475 57.3574C81.5827 57.3215 81.6246 57.293 81.6709 57.2736C81.7172 57.2541 81.767 57.2441 81.8172 57.2441C81.8674 57.2441 81.9171 57.2541 81.9634 57.2736C82.0097 57.293 82.0517 57.3215 82.0868 57.3574L98.8362 72.9689C98.8911 73.0219 98.9291 73.09 98.9453 73.1645C98.9615 73.2391 98.9552 73.3168 98.9271 73.3878C98.899 73.4588 98.8505 73.5198 98.7877 73.5632C98.7248 73.6065 98.6505 73.6302 98.5742 73.6313L98.5511 73.6159Z" fill="#A9A8A9"/>
<path d="M98.9501 68.3792C96.4219 68.2699 93.9169 67.8482 91.4923 67.1238C91.411 67.1001 91.3398 67.0503 91.2896 66.9821C91.2395 66.9139 91.2132 66.8311 91.2149 66.7464C91.218 66.6614 91.2491 66.5797 91.3034 66.5142C91.3578 66.4487 91.4323 66.4031 91.5154 66.3844C93.1718 66.0071 101.477 64.2048 102.733 65.7914C102.854 65.9534 102.923 66.1482 102.932 66.3503C102.94 66.5524 102.887 66.7523 102.779 66.9236C102.248 68.0249 100.714 68.3792 98.9501 68.3792ZM93.2489 66.8388C96.7621 67.6783 101.315 68.1944 102.093 66.6232C102.201 66.3998 102.147 66.3305 102.093 66.3074C101.577 65.5526 97.4169 65.9609 93.2489 66.8003V66.8388Z" fill="#A9A8A9"/>
<path d="M48.5648 58.6203C48.3066 58.6109 48.0549 58.5368 47.8329 58.4047C44.7511 56.6718 47.5478 49.8788 47.6711 49.5862C47.7006 49.5121 47.7534 49.4496 47.8214 49.4079C47.8895 49.3663 47.9691 49.3477 48.0486 49.3551C48.1279 49.3599 48.2038 49.3891 48.2659 49.4388C48.328 49.4884 48.3732 49.556 48.3953 49.6324C48.9038 51.4269 50.4755 57.3341 49.1272 58.4278C48.9685 58.5565 48.7691 58.6248 48.5648 58.6203ZM47.9638 50.9956C47.1934 53.1906 46.4769 56.7565 48.2104 57.7269C48.3105 57.7809 48.5494 57.9041 48.6495 57.8271C49.2273 57.3726 48.7651 54.1071 47.9638 51.0264V50.9956Z" fill="#A9A8A9"/>
<path d="M56.8899 75.5342C56.8396 75.5249 56.7917 75.5058 56.7489 75.4779C56.7061 75.45 56.6693 75.4138 56.6406 75.3715C56.6119 75.3292 56.5919 75.2816 56.5818 75.2315C56.5717 75.1814 56.5717 75.1299 56.5817 75.0798L57.9223 67.8016C57.9428 67.7011 58.0018 67.6125 58.0868 67.555C58.1717 67.4974 58.2758 67.4753 58.3768 67.4935C58.4768 67.5122 58.5653 67.5697 58.623 67.6534C58.6807 67.7371 58.703 67.8402 58.685 67.9402L57.3367 75.2261C57.3284 75.276 57.3102 75.3238 57.283 75.3665C57.2559 75.4093 57.2204 75.4461 57.1787 75.4749C57.137 75.5036 57.0899 75.5237 57.0403 75.5339C56.9907 75.5441 56.9395 75.5442 56.8899 75.5342V75.5342Z" fill="#B6B6C7"/>
<path d="M74.0824 11.3779C73.3298 12.7971 72.9808 14.3954 73.0731 15.999L73.2041 18.787L85.0149 20.8357L84.6297 15.275L74.0824 11.3779Z" fill="#979797"/>
<path d="M73.3423 13.2885C72.7792 13.9325 72.3591 14.6885 72.1096 15.5066C71.8562 16.6985 71.6761 17.9048 71.5703 19.1187H68.2189L67.9492 13.2885L72.1096 10.0537H74.8446V13.8276L73.3423 13.2885Z" fill="#979797"/>
<path d="M4.59667 42.5924C4.59667 42.5924 -0.565241 43.9941 0.0511077 41.1137C0.667456 38.2332 9.15765 33.5967 11.1762 35.8841C13.1947 38.1716 4.59667 42.5924 4.59667 42.5924Z" fill="#DFDFDF"/>
<path d="M3.05412 42.5536C2.98229 42.552 2.91223 42.5312 2.85123 42.4932C2.79024 42.4553 2.74057 42.4017 2.70743 42.338C2.68508 42.2925 2.67192 42.243 2.66873 42.1924C2.66554 42.1418 2.67237 42.0911 2.68883 42.0432C2.7053 41.9952 2.73106 41.951 2.76466 41.913C2.79826 41.8751 2.83903 41.8441 2.88462 41.8219L9.51811 38.5872C9.56371 38.5574 9.6151 38.5376 9.66892 38.5291C9.72273 38.5206 9.77772 38.5237 9.83028 38.538C9.88283 38.5523 9.93175 38.5776 9.9738 38.6123C10.0158 38.6469 10.0501 38.69 10.0742 38.7388C10.0984 38.7877 10.1119 38.841 10.1139 38.8955C10.1158 38.9499 10.1063 39.0041 10.0857 39.0545C10.0652 39.105 10.0342 39.1505 9.99481 39.1881C9.9554 39.2257 9.90848 39.2545 9.85711 39.2726L3.22361 42.5151C3.17012 42.5387 3.11257 42.5518 3.05412 42.5536Z" fill="black"/>
<circle cx="12.7322" cy="32.767" r="3.81917" transform="rotate(-23.9518 12.7322 32.767)" stroke="#B6B6C7" stroke-width="0.848704"/>
<circle cx="13.7644" cy="35.0941" r="0.212176" transform="rotate(-23.9518 13.7644 35.0941)" fill="#B6B6C7" stroke="#B6B6C7" stroke-width="0.424352"/>
<path d="M13.4209 34.3182L13.1765 33.7679C13.0138 33.4018 13.1037 32.9726 13.3997 32.7025V32.7025C13.6956 32.4323 13.7855 32.0031 13.6229 31.637L13.5345 31.4379C13.258 30.8156 12.5294 30.5352 11.907 30.8117L11.8705 30.8279C11.2279 31.1133 10.9384 31.8656 11.2239 32.5082V32.5082" stroke="#B6B6C7" stroke-width="0.848704"/>
</svg>
