<svg width="217" height="199" viewBox="0 0 217 199" fill="none" xmlns="http://www.w3.org/2000/svg">
<defs>
<linearGradient id="paint0_linear_6022_37128" x1="146.145" y1="90.4005" x2="108.884" y2="161.161" gradientUnits="userSpaceOnUse">
<stop offset="0.456264" stop-color="#F3EFFF"/>
<stop offset="1" stop-color="#F3EFFF" stop-opacity="0.13"/>
</linearGradient>
<linearGradient id="paint1_linear_6022_37128" x1="42.6492" y1="109.99" x2="152.777" y2="154.681" gradientUnits="userSpaceOnUse">
<stop stop-color="#F3EFFF"/>
<stop offset="1" stop-color="#F3EFFF" stop-opacity="0.13"/>
</linearGradient>
<linearGradient id="paint2_linear_6022_37128" x1="175.305" y1="198.881" x2="160.621" y2="123.815" gradientUnits="userSpaceOnUse">
<stop stop-color="#865DFF" stop-opacity="0"/>
<stop offset="0.96875" stop-color="#A98CFF" stop-opacity="0.44"/>
</linearGradient>
<linearGradient id="paint3_linear_6022_37128" x1="49.0836" y1="119.443" x2="47.791" y2="193.347" gradientUnits="userSpaceOnUse">
<stop stop-color="#F3EFFF"/>
<stop offset="1" stop-color="#F3EFFF" stop-opacity="0.41"/>
</linearGradient>
</defs>
<path fill-rule="evenodd" clip-rule="evenodd" d="M159.118 90.8178C167.439 91.0855 174.648 95.7967 178.788 102.744C182.69 100.159 187.329 98.7292 192.27 98.8881C205.588 99.3165 216.057 111.129 215.654 125.272C215.281 138.354 205.736 148.847 193.765 150.009C190.649 160.757 181.074 168.418 169.976 168.061C161.617 167.792 154.38 163.039 150.249 156.039C145.254 159.356 139.311 161.192 132.98 160.989C125.125 160.736 118.044 157.386 112.746 152.075C108.579 155.278 103.42 157.097 97.881 156.918C84.5627 156.49 74.0931 144.678 74.4965 130.535C74.8999 116.392 86.0236 105.274 99.3419 105.702C102.951 105.819 106.351 106.77 109.382 108.378C115.213 100.272 124.514 95.1671 134.849 95.4995C137.611 95.5884 140.278 96.0604 142.806 96.8661C147.194 92.921 152.918 90.6184 159.118 90.8178Z" fill="url(#paint0_linear_6022_37128)"/>
<path fill-rule="evenodd" clip-rule="evenodd" d="M69.559 101.405C76.2581 101.62 82.0535 105.714 85.3739 111.764C88.5201 109.502 92.2578 108.244 96.2356 108.372C106.959 108.717 115.366 118.999 115.014 131.337C114.689 142.75 106.981 151.925 97.3392 152.963C94.8089 162.345 87.0849 169.048 78.1492 168.761C71.4188 168.544 65.6006 164.413 62.288 158.316C58.2596 161.221 53.4709 162.836 48.3739 162.672C42.0489 162.468 36.3539 159.561 32.0978 154.939C28.7369 157.742 24.5792 159.34 20.1197 159.197C9.3966 158.852 0.989107 148.57 1.34104 136.232C1.69297 123.895 10.6711 114.172 21.3942 114.517C24.2999 114.611 27.0355 115.434 29.4729 116.83C34.184 109.746 41.6829 105.273 50.0035 105.541C52.2293 105.612 54.377 106.019 56.4114 106.717C59.9528 103.265 64.5668 101.244 69.559 101.405Z" fill="url(#paint1_linear_6022_37128)"/>
<path fill-rule="evenodd" clip-rule="evenodd" d="M157.465 150.374C157.438 151.256 157.364 152.126 157.246 152.981C164.952 157.203 170.068 165.499 169.783 174.884C169.38 188.202 158.256 198.672 144.938 198.268C136.579 198.015 129.342 193.539 125.211 186.947C120.216 190.071 114.273 191.8 107.943 191.608C100.087 191.37 93.006 188.216 87.7076 183.214C83.5411 186.23 78.3819 187.943 72.843 187.775C59.5247 187.372 49.0551 176.248 49.4585 162.93C49.862 149.611 60.9856 139.142 74.3039 139.545C77.9129 139.654 81.3127 140.551 84.3437 142.065C90.1751 134.431 99.4762 129.624 109.811 129.937C112.573 130.021 115.24 130.466 117.767 131.224C122.156 127.509 127.88 125.341 134.08 125.529C147.398 125.932 157.868 137.056 157.465 150.374Z" fill="url(#paint2_linear_6022_37128)"/>
<path fill-rule="evenodd" clip-rule="evenodd" d="M155.88 146.815C155.854 147.698 155.78 148.567 155.661 149.422C163.368 153.645 168.483 161.94 168.199 171.325C167.795 184.644 156.672 195.113 143.353 194.71C134.994 194.457 127.757 189.98 123.627 183.389C118.632 186.512 112.689 188.242 106.358 188.05C98.5023 187.812 91.4216 184.657 86.1232 179.655C81.9568 182.671 76.7975 184.384 71.2587 184.216C57.9403 183.813 47.4708 172.689 47.8742 159.371C48.2776 146.053 59.4013 135.583 72.7196 135.987C76.3286 136.096 79.7284 136.992 82.7594 138.506C88.5908 130.873 97.8918 126.066 108.226 126.379C110.989 126.463 113.656 126.907 116.183 127.666C120.572 123.951 126.296 121.782 132.496 121.97C145.814 122.373 156.284 133.497 155.88 146.815Z" fill="url(#paint3_linear_6022_37128)"/>
<path fill-rule="evenodd" clip-rule="evenodd" d="M131.698 146.895C131.78 147.717 131.944 156.424 131.944 156.424C131.944 156.424 136.134 156.425 136.873 158.725C137.448 160.45 137.612 162.011 136.873 162.257C136.052 162.504 123.729 161.518 123.729 161.518L122.333 146.238C122.333 146.238 131.616 146.074 131.698 146.895Z" fill="#590083"/>
<path fill-rule="evenodd" clip-rule="evenodd" d="M94.9726 143.937L93.3296 152.727C93.3296 152.727 96.6977 154.452 97.3549 155.684C98.0121 156.917 97.5192 158.477 97.5192 158.477C97.3549 159.217 88.4007 157.985 85.1147 157.492L87.7435 142.869L94.9726 143.937Z" fill="#590083"/>
<path fill-rule="evenodd" clip-rule="evenodd" d="M150.753 54.6406L150.671 162.174C150.671 162.174 149.685 162.584 149.275 162.42C148.864 162.256 148.946 161.763 148.946 161.763L149.357 54.7228L150.753 54.6406Z" fill="#5302BC"/>
<path fill-rule="evenodd" clip-rule="evenodd" d="M151.081 54.0664H148.945V64.1707C148.945 64.4172 149.027 64.6636 149.274 64.9101C149.438 65.0744 149.685 65.2387 150.013 65.2387H150.095C150.342 65.2387 150.588 65.1565 150.835 64.9101C150.999 64.7458 151.163 64.4993 151.163 64.1707C151.081 61.3777 151.081 54.0664 151.081 54.0664Z" fill="#5302BC"/>
<path fill-rule="evenodd" clip-rule="evenodd" d="M114.936 94.895C114.936 93.3342 119.618 113.379 121.672 117.897C119.865 129.398 119.783 149.771 123.397 149.36C128.162 148.785 133.091 150.428 133.337 149.36C134.077 146.074 133.337 123.894 131.366 116.993C131.53 99.9883 131.859 85.8586 130.38 76.4115C130.38 76.4115 108.611 74.2756 106.721 74.3578C104.832 74.4399 100.478 78.876 100.478 78.876L95.4667 112.968C88.7305 128.001 84.4587 142.87 86.9232 143.609C86.9232 143.609 93.8237 145.745 95.4667 145.499C97.3561 145.252 102.778 126.605 107.05 117.157C107.132 117.157 114.936 95.6344 114.936 94.895Z" fill="#590083"/>
<path fill-rule="evenodd" clip-rule="evenodd" d="M120.771 141.109C121.425 142.047 125.931 145.219 126.722 142.335C127.514 139.451 128.03 130.799 127.514 122.436C126.998 114.072 126.241 108.737 126.688 102.824C127.135 96.9123 125.794 79.6083 125.794 79.6083L127.72 78.3105L130.816 80.9782C130.816 80.9782 132.708 138.514 130.334 142.119C127.926 145.724 122.113 148.031 121.356 144.786C120.565 141.47 120.117 140.172 120.771 141.109Z" fill="#F26BDC"/>
<path fill-rule="evenodd" clip-rule="evenodd" d="M93.6429 144.771C94.6302 143.202 105.263 120.426 107.237 114.527C109.212 108.627 115.515 92.9453 115.515 92.9453L116.503 95.8577C116.503 95.8577 109.743 125.056 105.339 135.809C101.086 146.488 92.6556 146.339 93.6429 144.771Z" fill="#F26BDC"/>
<path fill-rule="evenodd" clip-rule="evenodd" d="M145.741 56.2017C146.398 54.9694 145.987 52.9157 146.644 52.4228C147.301 51.9299 147.548 52.3407 148.123 52.4228C148.698 52.505 149.273 50.6977 150.423 51.6013C151.491 52.505 152.312 55.8731 151.327 56.7767C150.341 57.6804 148.78 58.0911 148.78 58.0911C148.78 58.0911 145.083 57.4339 145.741 56.2017Z" fill="#FFC094"/>
<path fill-rule="evenodd" clip-rule="evenodd" d="M121.919 22.4398C122.247 21.6184 122.987 13.8142 121.344 8.80312C119.619 3.79203 115.429 2.8884 111.486 4.61353C107.543 6.4208 106.721 12.0069 107.461 15.5393C108.2 19.0717 110.418 23.5899 110.418 23.5899L110.747 28.026L120.44 28.3546L119.865 23.9185C119.783 23.9185 121.59 23.2613 121.919 22.4398Z" fill="#FFC094"/>
<path fill-rule="evenodd" clip-rule="evenodd" d="M121.178 11.5142C121.917 12.8285 123.396 13.9786 123.067 14.8001C122.657 15.6216 122 15.868 122 15.868C122 15.868 120.439 10.1998 121.178 11.5142Z" fill="#FFC094"/>
<path fill-rule="evenodd" clip-rule="evenodd" d="M129.89 30.2426C128.905 29.8318 123.319 27.6959 117.404 26.8745C111.489 26.053 99.8239 31.1462 98.9203 32.0498C98.0166 32.9535 94.5664 61.377 94.6485 72.385C94.7307 83.3108 101.467 79.5319 103.521 79.6141C115.514 80.107 124.797 81.0106 130.548 80.2713C131.862 80.107 132.848 66.9631 132.519 51.6834C132.355 40.1826 130.876 30.5712 129.89 30.2426Z" fill="#42E8E0"/>
<path fill-rule="evenodd" clip-rule="evenodd" d="M94.9729 63.0207C95.0551 66.2245 94.1514 77.1503 96.6981 79.0397C99.2447 80.847 98.6696 80.0255 99.6554 80.1077C100.641 80.1898 103.599 79.4505 104.091 79.6148C104.584 79.7791 117.4 80.6006 119.289 80.272C121.178 79.9434 123.396 73.2072 124.793 67.9496C126.19 62.6921 125.122 45.3586 124.547 39.0332C124.218 35.2543 122.575 30.0789 121.753 29.5039C120.603 28.6824 118.221 32.4613 116.249 32.1327C111.403 31.3112 95.1372 34.2685 94.3979 42.1548C93.7407 50.0411 94.8908 59.8169 94.9729 63.0207Z" fill="#534579"/>
<path fill-rule="evenodd" clip-rule="evenodd" d="M128.74 50.5352L120.525 65.4863L121.018 68.4436L129.233 52.9175L128.74 50.5352Z" fill="#865DFF"/>
<path fill-rule="evenodd" clip-rule="evenodd" d="M125.205 28.5189C122.494 28.8475 120.358 29.669 119.044 32.5442L116.169 29.4225L118.387 26.9581C120.03 25.3151 125.698 27.2867 125.205 28.5189Z" fill="#865DFF"/>
<path fill-rule="evenodd" clip-rule="evenodd" d="M119.867 9.04906C120.606 9.13121 121.51 8.55617 122.085 8.06327C123.81 6.66674 124.631 4.36657 123.81 2.31285C123.481 1.49136 122.824 0.17697 121.838 0.0126723C121.345 -0.0694766 121.017 0.259122 120.77 0.669867C120.688 0.834165 120.606 1.16275 120.36 1.16275C120.195 1.16275 119.949 0.916311 119.785 0.834162C119.538 0.669864 119.21 0.669862 118.881 0.587713C118.47 0.587713 117.977 0.669859 117.567 0.752008C117.32 0.834157 117.074 0.998457 116.827 0.998457C116.334 1.08061 115.841 0.669867 115.431 0.669867C114.363 0.505569 113.295 0.916314 112.391 1.49136C111.734 1.98425 111.077 2.55929 110.666 3.29863C110.42 3.70938 110.502 4.44871 110.091 4.69516C109.845 4.85946 109.516 4.69516 109.269 4.69516C108.941 4.69516 108.612 4.69516 108.284 4.85946C106.394 5.51665 105.491 7.32394 105.162 9.13121C104.998 9.87055 105.162 10.6099 105.326 11.3492C105.573 12.4993 105.901 13.4851 106.476 14.4709C106.805 15.0459 107.462 15.621 107.709 16.2782C107.955 16.7711 107.955 17.4282 108.037 18.0033C108.202 18.9891 108.612 20.2213 109.434 20.9607C110.584 21.9464 112.473 21.3714 113.706 20.8785C115.431 20.1392 116.909 19.0712 117.649 17.264C117.977 16.6068 117.895 15.8674 117.977 15.1281C118.059 14.6352 118.224 14.1423 118.224 13.5673C118.224 13.0744 118.224 12.5815 118.142 12.1707C118.059 11.76 117.977 11.1028 118.142 10.7742C118.388 10.2813 119.21 9.54195 119.867 9.04906Z" fill="#FF1D6E"/>
<path fill-rule="evenodd" clip-rule="evenodd" d="M117.978 20.2202C117.978 20.2202 124.468 47.9865 120.853 75.5064C120.114 81.0926 89.883 79.8603 89.0615 76.7387C84.7898 59.7338 83.8862 25.8063 88.733 21.4524C94.3191 16.3592 119.128 16.277 117.978 20.2202Z" fill="#865DFF"/>
<path fill-rule="evenodd" clip-rule="evenodd" d="M114.771 19.0708C113.293 19.4816 109.678 23.9997 109.103 27.6965C108.61 31.3932 119.372 81.7505 105.16 79.286C102.695 78.8753 122.083 81.504 123.397 78.3824C124.794 75.2607 121.672 39.2795 121.097 31.2289C120.522 23.1783 118.797 18.8244 117.318 18.9887C116.004 19.2351 116.25 18.6601 114.771 19.0708Z" fill="#A384FF"/>
<path fill-rule="evenodd" clip-rule="evenodd" d="M117.651 13.4023C118.308 13.4023 118.883 14.306 118.966 15.4561C119.048 16.6062 118.555 17.5919 117.898 17.6741C117.24 17.6741 116.665 16.7704 116.583 15.6204C116.501 14.4703 116.994 13.4845 117.651 13.4023Z" fill="#FFC094"/>
<path fill-rule="evenodd" clip-rule="evenodd" d="M119.128 26.0547C119.128 26.0547 118.06 24.7403 115.267 25.2332C109.928 26.0547 110.749 34.1874 109.763 34.4339C106.888 35.1732 85.9401 37.3912 85.3651 35.1732C84.3793 31.3122 84.5436 27.7798 84.8722 25.0689C85.3651 20.8793 88.6511 19.8935 92.5942 18.9077C99.0018 17.2647 113.707 16.1968 116.91 17.6755C120.196 19.1542 119.128 26.0547 119.128 26.0547Z" fill="#590083"/>
<path fill-rule="evenodd" clip-rule="evenodd" d="M131.613 66.4713C131.367 66.3892 131.12 66.307 130.956 66.1427C129.313 64.6641 121.673 34.9261 122.002 32.5438C122.33 30.1615 122.33 28.6828 125.452 28.6828C126.602 28.6828 129.066 28.5185 130.217 30.5722C133.174 35.7476 136.624 45.7698 138.678 53.2454C141.8 53.5739 144.757 54.0668 144.757 54.0668C145.414 52.9168 151.082 55.8741 149.111 59.0779C147.961 61.0495 138.924 65.2391 135.638 66.4713C133.913 67.1285 132.599 67.2107 131.613 66.4713Z" fill="#42E8E0"/>
<path fill-rule="evenodd" clip-rule="evenodd" d="M122.999 32.3187C122.999 32.3187 130.645 61.4291 133.301 63.1647C136.037 64.9003 150.524 58.1157 150.524 58.1157C150.524 58.1157 148.432 63.7958 144.971 65.7681C141.43 67.8192 130.967 72.0004 128.955 67.8192C126.942 63.638 119.297 32.7131 121.148 30.0309C122.999 27.4275 122.999 32.3187 122.999 32.3187Z" fill="#534579"/>
<path fill-rule="evenodd" clip-rule="evenodd" d="M95.6288 52.5884C95.3824 51.5204 85.0316 52.9991 85.1959 53.5742L86.4281 66.0608C89.2212 67.0466 92.1786 66.5537 95.7931 65.65C95.7931 65.65 95.711 52.917 95.6288 52.5884Z" fill="#865DFF"/>
<path fill-rule="evenodd" clip-rule="evenodd" d="M96.0433 52.0121C94.8932 52.0943 93.1681 52.7515 93.0038 54.0659C92.9216 55.3803 94.0717 61.1307 93.661 64.4166C93.3324 67.2919 91.7715 66.9633 92.4287 67.1276C93.0859 67.374 95.7147 67.7848 96.3719 65.731C97.1112 63.6773 97.1934 51.93 96.0433 52.0121Z" fill="#590083"/>
<path fill-rule="evenodd" clip-rule="evenodd" d="M113.045 39.5269C113.21 38.459 123.643 38.8697 123.56 39.5269L123.478 52.0957C120.849 53.328 117.81 53.1637 114.113 52.5886C114.113 52.5886 112.963 39.9377 113.045 39.5269Z" fill="#865DFF"/>
<path fill-rule="evenodd" clip-rule="evenodd" d="M112.554 39.1152C113.704 39.1152 115.511 39.6081 115.758 40.8404C116.004 42.0726 115.347 47.9873 116.086 51.2733C116.743 54.0663 118.222 53.5735 117.565 53.902C116.99 54.1485 114.361 54.8878 113.54 52.8341C112.554 50.7804 111.404 39.1152 112.554 39.1152Z" fill="#590083"/>
<path fill-rule="evenodd" clip-rule="evenodd" d="M110.008 51.7661C109.762 50.6982 99.411 52.1768 99.5753 52.7519L100.808 65.2385C103.601 66.2243 106.558 65.7314 110.173 64.8278C110.173 64.8278 110.09 52.0947 110.008 51.7661Z" fill="#865DFF"/>
<path fill-rule="evenodd" clip-rule="evenodd" d="M110.503 51.2739C109.353 51.356 107.628 52.0132 107.464 53.3276C107.382 54.642 108.532 60.3924 108.121 63.6784C107.793 66.5536 106.232 66.225 106.889 66.3893C107.546 66.6357 110.175 67.0465 110.832 64.9928C111.571 62.8569 111.654 51.1917 110.503 51.2739Z" fill="#590083"/>
<path fill-rule="evenodd" clip-rule="evenodd" d="M95.6327 53.7376C92.2646 52.9161 92.5111 56.2021 92.5111 56.2842C92.4289 57.0236 85.3641 58.338 84.9534 56.7771C84.5426 55.2984 84.8712 53.4912 85.0355 52.9161C85.6105 51.5196 92.4289 50.9446 94.4826 51.4374C96.6185 52.0125 95.6327 53.7376 95.6327 53.7376Z" fill="#FF1D6E"/>
<path fill-rule="evenodd" clip-rule="evenodd" d="M113.046 40.6754C116.25 39.5253 116.415 42.8113 116.415 42.9756C116.579 43.7149 123.726 44.29 123.972 42.7291C124.219 41.1683 123.808 39.5253 123.479 38.9503C122.822 37.5537 115.922 37.718 113.95 38.3752C111.979 39.0324 113.046 40.6754 113.046 40.6754Z" fill="#FF1D6E"/>
<path fill-rule="evenodd" clip-rule="evenodd" d="M110.091 52.9173C106.723 52.0958 106.97 55.3818 106.97 55.4639C106.888 56.2033 99.8227 57.5176 99.412 55.9568C99.0012 54.4781 99.3298 52.6708 99.4941 52.0958C100.069 50.6993 106.888 50.1242 108.941 50.6171C111.077 51.1922 110.091 52.9173 110.091 52.9173Z" fill="#FF1D6E"/>
<path fill-rule="evenodd" clip-rule="evenodd" d="M106.393 34.0225C106.228 34.8439 106.803 47.6592 106.803 47.6592L105.078 47.7413L104.914 33.9403C104.914 33.9403 106.557 33.201 106.393 34.0225Z" fill="#FF1D6E"/>
<path fill-rule="evenodd" clip-rule="evenodd" d="M89.5529 34.7621C89.3886 35.5015 90.0458 48.481 90.0458 48.481C89.3886 48.2346 88.8136 48.3167 88.3207 48.5632L87.8278 34.5978C87.8278 34.5978 89.7172 34.0228 89.5529 34.7621Z" fill="#FF1D6E"/>
<path fill-rule="evenodd" clip-rule="evenodd" d="M82.0775 67.9497L117.402 66.2246L117.894 76.3289L82.5704 78.0541C82.4882 78.0541 82.4882 78.0541 82.4061 78.0541C80.4345 78.1362 78.7094 76.0003 78.5451 73.2073C78.3808 70.4142 79.9416 68.114 81.9132 67.9497C81.9953 67.9497 81.9953 67.9497 82.0775 67.9497Z" fill="#590083"/>
<path fill-rule="evenodd" clip-rule="evenodd" d="M117.4 66.307C119.372 66.2248 121.097 68.3607 121.261 71.1538C121.425 73.9468 119.865 76.247 117.893 76.4113C115.921 76.5756 114.196 74.3576 114.032 71.5645C113.95 68.6893 115.429 66.3891 117.4 66.307Z" fill="#865DFF"/>
<path fill-rule="evenodd" clip-rule="evenodd" d="M116.418 76.3284C116.418 76.3284 116.5 76.3284 116.582 76.3284C116.747 76.3284 116.911 76.2463 117.075 76.1642C117.815 75.9177 118.801 75.3427 119.129 74.9319C119.951 73.9461 120.115 72.6317 120.197 71.3173C120.197 70.6602 120.197 70.003 120.033 69.4279C119.704 68.5243 118.965 67.7028 118.061 67.5385C117.404 67.4564 116.993 67.6207 116.5 67.9493C115.925 68.2779 114.775 69.5922 115.022 71.4817C115.186 72.9603 115.35 73.9461 116.747 74.6033C117.568 75.014 118.472 74.439 118.883 73.7818C119.047 73.5354 119.622 72.0567 119.54 70.7423C119.458 69.8387 119.129 69.0172 118.061 68.7707C117.815 68.6886 117.568 68.7707 117.404 68.8529C117.075 69.0172 116.829 69.3458 116.665 69.5922C116.09 70.4959 116.007 72.1388 116.747 73.0425C116.993 73.3711 117.404 73.5354 117.815 73.4532C118.061 73.3711 118.225 73.2068 118.39 72.9603C118.554 72.5496 118.472 71.9746 118.39 71.5638C118.39 71.4817 118.308 71.4817 118.308 71.4817C118.225 71.4817 118.225 71.5638 118.225 71.5638C118.308 71.9746 118.39 72.4675 118.225 72.8782C118.143 73.1246 117.979 73.2889 117.815 73.2889C117.568 73.3711 117.158 73.2068 116.993 72.9603C116.254 72.1388 116.336 70.6602 116.911 69.7565C117.075 69.5101 117.322 69.2636 117.568 69.0993C117.733 69.0172 117.897 68.935 118.143 69.0172C119.129 69.2636 119.458 70.003 119.458 70.8245C119.54 72.0567 118.965 73.5354 118.883 73.7818C118.554 74.439 117.733 74.9319 116.993 74.5212C115.597 73.864 115.515 72.8782 115.35 71.4817C115.104 69.5922 116.172 68.4421 116.747 68.1135C117.24 67.7849 117.65 67.6206 118.225 67.7028C119.129 67.8671 119.786 68.6886 120.115 69.5101C120.361 70.0851 120.361 70.7423 120.279 71.3173C120.197 72.5496 120.033 73.7818 119.293 74.7676C118.965 75.1784 117.979 75.6713 117.322 75.9998C117.158 76.082 116.993 76.082 116.911 76.1642C116.829 76.1642 116.829 76.1642 116.747 76.1642C116.665 76.1642 116.665 76.1641 116.665 76.2463C116.336 76.2463 116.418 76.3284 116.418 76.3284Z" fill="#6A1F0D"/>
<path fill-rule="evenodd" clip-rule="evenodd" d="M92.015 77.8903C91.7685 77.9725 91.4399 78.0546 91.1935 78.0546C89.0576 78.1368 87.1682 75.8366 87.0039 72.7971C86.8396 69.8397 88.4826 67.2931 90.7006 67.2109C91.1113 67.2109 91.5221 67.2931 91.8507 67.3752C90.1256 68.0324 88.8933 70.2505 89.0576 72.7971C89.1397 75.2616 90.4541 77.2331 92.015 77.8903Z" fill="#FF1D6E"/>
<path fill-rule="evenodd" clip-rule="evenodd" d="M109.68 76.986C109.434 77.0682 109.105 77.1503 108.859 77.1503C106.723 77.2324 104.834 74.9323 104.669 71.8928C104.505 68.9354 106.148 66.3888 108.366 66.3066C108.777 66.3066 109.188 66.3888 109.516 66.4709C107.791 67.1281 106.559 69.3461 106.723 71.8928C106.805 74.4394 108.038 76.411 109.68 76.986Z" fill="#FF1D6E"/>
<path fill-rule="evenodd" clip-rule="evenodd" d="M148.372 52.3413C148.372 52.3413 149.604 51.6841 150.262 53.9021C151.001 56.1201 150.015 57.4345 150.179 57.5166C150.426 57.5988 150.672 58.256 150.755 57.8452C150.837 57.5166 151.905 55.1343 151.247 53.7378C150.672 52.3413 150.179 51.3555 149.604 51.3555C148.865 51.3555 148.372 52.3413 148.372 52.3413Z" fill="#5302BC"/>
</svg>
