<svg width="95" height="44" viewBox="0 0 95 44" fill="none" xmlns="http://www.w3.org/2000/svg">
<path d="M94.7273 0.420805C94.5818 0.983599 94.4238 1.57803 94.272 2.17876L90.402 17.1908L88.5049 24.5008C88.3911 24.9245 88.1318 25.032 87.7587 24.8043L78.4948 19.1132C78.0837 18.8602 78.2039 18.8539 77.913 19.1827C76.4206 20.8311 74.9451 22.4815 73.4865 24.134C73.4385 24.2248 73.3596 24.2954 73.2641 24.333C73.1686 24.3706 73.0627 24.3728 72.9657 24.3392C72.8687 24.3056 72.7869 24.2384 72.7351 24.1497C72.6834 24.0611 72.665 23.9568 72.6835 23.8558C72.5001 21.3833 72.3104 18.9172 72.1333 16.451C72.1333 16.2044 72.0384 16.1158 71.7855 16.0779C68.9905 15.6605 66.1955 15.2179 63.4005 14.8132H63.2234C62.9705 14.8132 62.7618 14.712 62.7239 14.4274C62.686 14.1429 62.863 14.0417 63.0843 13.9405C64.2036 13.4473 65.3165 12.9414 66.4295 12.4418L93.8357 0.167887C93.9551 0.110816 94.0775 0.0601231 94.2024 0.0160898C94.2644 -0.00179999 94.3298 -0.00480922 94.3932 0.00725136C94.4566 0.0193119 94.5162 0.0461158 94.5673 0.0855236C94.6184 0.124931 94.6596 0.17583 94.6874 0.234079C94.7151 0.292328 94.7288 0.356287 94.7273 0.420805ZM77.1289 17.2604L87.822 23.8558C89.7317 16.4657 91.6287 9.08825 93.5132 1.72345L93.4626 1.69184L77.1289 17.2604ZM90.3451 2.62771L90.3135 2.58348L64.5956 14.1049L64.7664 14.1429C67.2262 14.5223 69.6861 14.908 72.1523 15.2811C72.2881 15.2974 72.4252 15.2637 72.538 15.1863C74.1231 14.0818 75.7061 12.9667 77.287 11.8411L87.1327 4.88522L90.3451 2.62771ZM89.6684 4.18964L89.6305 4.1517L86.3486 6.44715C81.9558 9.54989 77.5589 12.6505 73.1577 15.749C73.0601 15.8091 72.9835 15.8978 72.9382 16.0031C72.8929 16.1083 72.8812 16.225 72.9048 16.3372C73.0123 17.6525 73.1071 18.9741 73.2083 20.2894C73.2589 20.9597 73.3095 21.6299 73.3664 22.3698L73.5182 22.1105C74.3339 20.517 75.1433 18.9487 75.959 17.3362C76.0491 17.1664 76.1666 17.0125 76.3068 16.881C77.6727 15.5657 79.0407 14.2588 80.4108 12.9604L86.9809 6.76965L89.6684 4.18964ZM75.0295 21.0292L75.0737 21.0735L77.4514 18.4429L76.6103 17.9307L75.0295 21.0292Z" fill="#865DFF"/>
<path d="M77.1289 17.26L93.4753 1.7168L93.5258 1.74845C91.6288 9.10903 89.7317 16.4865 87.8346 23.8808L77.1289 17.26Z" fill="url(#paint0_linear_16222_6875)"/>
<path d="M90.3451 2.62731L87.1328 4.89748L77.287 11.8534C75.7061 12.9747 74.1232 14.0898 72.5381 15.1985C72.4253 15.2759 72.2882 15.3097 72.1523 15.2934C69.6862 14.9203 67.2263 14.5345 64.7665 14.1551L64.5957 14.1172L90.3135 2.5957L90.3451 2.62731Z" fill="url(#paint1_linear_16222_6875)"/>
<path d="M89.6688 4.19028L86.9813 6.77029L80.4681 12.961C79.1022 14.2637 77.7342 15.5705 76.3641 16.8816C76.2239 17.0132 76.1063 17.167 76.0163 17.3369C75.2005 18.9241 74.3911 20.4986 73.5754 22.1111L73.4236 22.3704C73.3667 21.6306 73.3161 20.9603 73.2656 20.29C73.1644 18.9747 73.0695 17.6531 72.962 16.3378C72.9385 16.2257 72.9502 16.109 72.9955 16.0037C73.0407 15.8985 73.1174 15.8097 73.215 15.7497C77.6161 12.6596 82.0131 9.55896 86.4059 6.44779L89.6625 4.15234L89.6688 4.19028Z" fill="url(#paint2_linear_16222_6875)"/>
<path d="M75.0293 21.0282L76.6102 17.9297L77.4512 18.4419L75.0736 21.0725L75.0293 21.0282Z" fill="url(#paint3_linear_16222_6875)"/>
<path d="M71.1912 27.0817C69.6651 28.4592 68.0175 29.6923 66.269 30.7656C63.3634 32.4977 59.9956 33.5993 56.6383 33.2983C53.3651 33.0007 50.0113 31.0348 49.0836 27.8433C48.8344 27.1531 48.8557 26.3927 49.1431 25.7179C49.3969 25.2981 49.7417 24.942 50.1513 24.6766C51.8693 23.4172 53.8568 22.5859 55.9522 22.2501C57.2615 22.0447 58.6758 22.0553 59.824 22.7248C60.8743 23.3341 61.557 24.4144 61.9981 25.5586C62.8004 27.6474 62.8549 29.9545 62.1521 32.0797C61.1019 35.1544 58.5603 37.517 55.6791 38.9516C52.7979 40.3862 49.5982 40.9955 46.4265 41.4985C38.3746 42.7701 30.1617 43.4148 22.0293 42.7099C14.7757 42.0829 7.56051 40.3579 1 37.1947" stroke="url(#paint4_linear_16222_6875)" stroke-width="1.18882" stroke-linecap="round" stroke-linejoin="round" stroke-dasharray="4.81 4.81"/>
<defs>
<linearGradient id="paint0_linear_16222_6875" x1="77.1289" y1="1.7168" x2="77.7808" y2="24.3346" gradientUnits="userSpaceOnUse">
<stop stop-color="#27C2EC"/>
<stop offset="1" stop-color="#2782EC"/>
</linearGradient>
<linearGradient id="paint1_linear_16222_6875" x1="64.5957" y1="2.5957" x2="64.7321" y2="15.5668" gradientUnits="userSpaceOnUse">
<stop stop-color="#27C2EC"/>
<stop offset="1" stop-color="#2782EC"/>
</linearGradient>
<linearGradient id="paint2_linear_16222_6875" x1="72.9502" y1="4.15234" x2="73.3823" y2="22.7489" gradientUnits="userSpaceOnUse">
<stop stop-color="#27C2EC"/>
<stop offset="1" stop-color="#2782EC"/>
</linearGradient>
<linearGradient id="paint3_linear_16222_6875" x1="75.0293" y1="17.9297" x2="75.118" y2="21.1371" gradientUnits="userSpaceOnUse">
<stop stop-color="#27C2EC"/>
<stop offset="1" stop-color="#2782EC"/>
</linearGradient>
<linearGradient id="paint4_linear_16222_6875" x1="36.0956" y1="22.1328" x2="36.0956" y2="43.0005" gradientUnits="userSpaceOnUse">
<stop stop-color="#590083"/>
<stop offset="1" stop-color="#865DFF"/>
</linearGradient>
</defs>
</svg>
