<svg width="173" height="148" viewBox="0 0 173 148" fill="none" xmlns="http://www.w3.org/2000/svg">
<path d="M116.611 6.25119C116.611 6.25119 93.0323 36.1172 55.3069 18.3023C17.5814 0.487496 -20.1442 48.6924 12.3417 78.0344C44.8276 107.376 13.0377 123.5 35.1073 141.482C60.1909 161.921 82.0291 120.476 101.94 129.907C145.884 150.722 178.439 142.482 171.103 118.38C158.227 76.0712 141.761 73.3188 154.336 51.3122C166.911 29.3056 139.158 -16.4514 116.611 6.25119Z" fill="#93E0F5"/>
<path d="M103.774 88.8525L101.911 98.8533L93.0389 146.393L77.0566 143.409L87.3044 88.492L87.7916 85.8751L103.774 88.8525Z" fill="url(#paint0_linear_9400_180226)"/>
<path d="M143.134 64.9363L137.623 94.4817C137.607 94.5683 137.574 94.6509 137.526 94.7247C137.478 94.7985 137.416 94.8621 137.343 94.9119C137.271 94.9617 137.189 94.9967 137.103 95.0149C137.016 95.0331 136.927 95.0341 136.841 95.0179L59.416 80.5774L68.5289 31.7173L127.322 42.683C137.979 44.67 145.056 54.6312 143.134 64.9363Z" fill="#865DFF"/>
<path d="M85.0665 55.0213L79.5986 84.3373L38.958 76.7574L44.4258 47.4414C46.4389 36.6476 57.169 29.5942 68.3913 31.6872C79.6137 33.7803 87.0796 44.2273 85.0665 55.0213Z" fill="url(#paint1_linear_9400_180226)"/>
<path d="M103.987 68.7256C100.993 68.167 99.0165 65.2563 99.5805 62.2337C100.144 59.211 103.037 57.2077 106.031 57.7666C106.986 57.9459 107.876 58.3749 108.611 59.0099C109.346 59.6449 109.9 60.4633 110.216 61.3818L148.047 68.4376L147.025 73.9172L109.194 66.8614C108.568 67.6043 107.757 68.1682 106.842 68.4956C105.928 68.8231 104.943 68.9024 103.987 68.7256V68.7256Z" fill="url(#paint2_linear_9400_180226)"/>
<path d="M83.7187 55.5601L78.3914 84.1227L40.1064 76.9822L45.4341 48.4194C47.3955 37.9032 57.5562 30.9761 68.1282 32.948C78.7002 34.9198 85.6801 45.0437 83.7187 55.5601Z" fill="url(#paint3_linear_9400_180226)"/>
<path d="M105.06 65.9575C106.599 65.9575 107.847 64.7097 107.847 63.1704C107.847 61.6311 106.599 60.3833 105.06 60.3833C103.52 60.3833 102.272 61.6311 102.272 63.1704C102.272 64.7097 103.52 65.9575 105.06 65.9575Z" fill="white"/>
<path d="M148.483 68.4181L145.142 86.3352C145.127 86.4123 145.083 86.4806 145.018 86.525C144.953 86.5694 144.874 86.5862 144.796 86.5718L136.012 84.9334C135.997 84.9306 135.983 84.9218 135.975 84.909C135.966 84.8963 135.962 84.8805 135.965 84.8653L139.351 66.7148C139.353 66.6995 139.362 66.6861 139.375 66.6773C139.388 66.6685 139.404 66.6652 139.419 66.6681L148.437 68.35C148.452 68.3528 148.465 68.3616 148.474 68.3744C148.483 68.3872 148.486 68.4029 148.483 68.4181V68.4181Z" fill="url(#paint4_linear_9400_180226)"/>
<path d="M51.7401 50.397C52.3998 55.5048 57.7254 61.576 57.7254 61.576C49.6105 62.1814 45.2157 57.3513 43.3246 54.4164C40.9866 55.1275 38.5837 55.5763 36.156 55.7554C19.4962 56.9982 5.15458 45.5508 4.11883 30.174C3.08309 14.7972 15.7473 1.33489 32.4071 0.0923125C49.0669 -1.15026 63.4076 10.2965 64.4431 25.6735C65.1168 35.6756 59.9888 44.8691 51.7401 50.397Z" fill="white"/>
<path d="M79.6369 84.3554C79.2139 85.4261 71.4783 117.323 46.4455 112.654C18.9955 108.007 38.8507 76.7483 38.8507 76.7483L79.6369 84.3554Z" fill="#865DFF"/>
<path d="M103.773 88.8525L101.911 98.8533L87.3037 88.492L87.791 85.8751L103.773 88.8525Z" fill="url(#paint5_linear_9400_180226)"/>
<path d="M44.5637 39.3192C44.2581 39.6249 44.029 39.8541 43.7234 40.0833C42.8831 40.7709 41.6609 40.7709 40.897 39.9305L38.4525 37.4856C36.7719 35.8047 36.7719 32.9778 38.4525 31.2969L47.6957 22.0522C50.3693 27.8588 49.1471 34.7351 44.5637 39.3192Z" fill="#865DFF"/>
<path d="M45.2512 21.2117L42.8068 23.6566C41.9665 24.4971 40.897 24.9555 39.6748 24.9555C38.5289 24.9555 37.3831 24.4971 36.5428 23.6566L27.2996 14.4119C29.3621 13.495 31.501 13.0366 33.64 13.0366C37.6122 13.0366 41.5845 14.5647 44.5637 17.5444C44.7929 17.85 45.0985 18.0792 45.3276 18.3848C46.0915 19.2253 46.0151 20.4477 45.2512 21.2117Z" fill="#865DFF"/>
<path d="M28.9802 25.5667L19.6606 34.8115C16.9869 29.0049 18.2856 22.0522 22.7926 17.5444C23.0981 17.2388 23.3273 17.0096 23.6329 16.7804C24.0148 16.3984 24.5495 16.2456 25.0079 16.2456C25.5426 16.2456 26.0773 16.4748 26.5357 16.8568L28.9802 19.3017C30.6607 21.0589 30.6607 23.8095 28.9802 25.5667Z" fill="#865DFF"/>
<path d="M40.0567 42.4518C34.2511 45.1259 27.2996 43.9034 22.7926 39.3193C22.5634 39.0901 22.2579 38.7844 22.0287 38.4788C21.2648 37.6384 21.3412 36.4159 22.1051 35.6519L24.5496 33.207C25.3898 32.3666 26.5357 31.9082 27.6815 31.9082C28.8274 31.9082 29.8969 32.3666 30.8135 33.207L40.0567 42.4518Z" fill="#865DFF"/>
<defs>
<linearGradient id="paint0_linear_9400_180226" x1="77.0566" y1="85.8751" x2="80.0351" y2="147.54" gradientUnits="userSpaceOnUse">
<stop stop-color="#A98CFF"/>
<stop offset="1" stop-color="#865DFF"/>
</linearGradient>
<linearGradient id="paint1_linear_9400_180226" x1="38.958" y1="31.3195" x2="40.2755" y2="85.4358" gradientUnits="userSpaceOnUse">
<stop stop-color="#A98CFF"/>
<stop offset="1" stop-color="#865DFF"/>
</linearGradient>
<linearGradient id="paint2_linear_9400_180226" x1="123.766" y1="57.673" x2="123.766" y2="73.9172" gradientUnits="userSpaceOnUse">
<stop stop-color="#590083"/>
<stop offset="1" stop-color="#865DFF"/>
</linearGradient>
<linearGradient id="paint3_linear_9400_180226" x1="62.0776" y1="32.6127" x2="62.0776" y2="84.1227" gradientUnits="userSpaceOnUse">
<stop stop-color="#590083"/>
<stop offset="1" stop-color="#865DFF"/>
</linearGradient>
<linearGradient id="paint4_linear_9400_180226" x1="148.494" y1="68.3607" x2="139.149" y2="66.7206" gradientUnits="userSpaceOnUse">
<stop stop-color="#A98CFF"/>
<stop offset="1" stop-color="#865DFF"/>
</linearGradient>
<linearGradient id="paint5_linear_9400_180226" x1="95.5386" y1="85.8751" x2="95.5386" y2="98.8533" gradientUnits="userSpaceOnUse">
<stop stop-color="#590083"/>
<stop offset="1" stop-color="#865DFF"/>
</linearGradient>
</defs>
</svg>
