<svg width="56" height="21" viewBox="0 0 56 21" fill="none" xmlns="http://www.w3.org/2000/svg">
<g clip-path="url(#clip0_14206_200765)">
<path d="M14.4879 15.2294C14.4879 13.7828 14.4987 12.3362 14.4807 10.8896C14.4759 10.4711 14.6063 10.2752 15.0273 10.3181C15.5344 10.3695 16.2161 10.0855 16.5127 10.5188C17.0114 11.247 17.3212 10.788 17.7457 10.5347C18.7025 9.96315 19.8817 10.0562 20.4163 10.9373C20.5718 11.1943 20.6794 11.0793 20.8206 10.9349C21.2786 10.4662 21.861 10.2765 22.4841 10.1908C23.5258 10.0488 24.4324 10.7183 24.497 11.7879C24.5651 12.9249 24.5591 14.0704 24.4993 15.2086C24.4443 16.2464 23.6107 17.0688 22.6241 17.212C22.2318 17.2683 22.0261 17.163 22.0333 16.7029C22.0524 15.5415 22.0369 14.38 22.0404 13.2186C22.0404 12.778 22.0775 12.3191 21.4556 12.3019C20.8911 12.286 20.7273 12.4892 20.7261 13.1868C20.7261 14.6138 20.7081 16.0396 20.7356 17.4653C20.7452 17.9524 20.6376 18.1911 20.1161 18.1238C19.5325 18.0491 18.7743 18.382 18.3987 17.9769C18.0543 17.6036 18.3078 16.8485 18.2995 16.2611C18.2839 15.1816 18.3078 14.101 18.2887 13.0215C18.2779 12.3937 17.9813 12.204 17.3845 12.3386C17.0317 12.4182 16.9743 12.6275 16.9755 12.9542C16.9863 15.1143 16.9624 17.2744 16.9935 19.4345C17.0018 20.0269 16.8248 20.2545 16.2472 20.1872C15.9123 20.148 15.5667 20.1456 15.233 20.1872C14.6063 20.2667 14.458 19.9889 14.4747 19.3868C14.5154 18.0026 14.4879 16.616 14.4879 15.2306V15.2294Z" fill="white"/>
<path d="M37.4326 13.9915C37.5271 14.6426 37.2819 15.4283 37.6575 16.1957C37.8201 16.5286 37.5498 16.903 37.1743 17.067C36.5452 17.3412 35.9125 17.3155 35.3528 16.9214C35.1041 16.7464 34.9641 16.7758 34.7297 16.903C33.6593 17.4868 32.4813 17.3143 31.6884 16.4319C31.4588 16.1761 31.3248 16.3009 31.143 16.4294C30.0834 17.1698 28.9245 17.3669 27.6711 17.1307C26.4189 16.8945 25.6464 16.1443 25.333 14.9021C25.1321 14.1041 25.1369 13.289 25.3318 12.4911C25.7839 10.6345 27.347 10.0422 29.0393 10.1915C29.2941 10.2135 29.5488 10.2845 29.7952 10.3604C30.7866 10.6663 31.2279 11.5842 30.8536 12.5584C30.7268 12.8876 30.4912 12.8093 30.2616 12.6918C29.8119 12.4605 29.3515 12.2879 28.8348 12.3161C28.0933 12.3565 27.5743 13.0332 27.6687 13.852C27.774 14.7601 28.372 15.2766 29.1517 15.1321C29.7964 15.0122 30.3274 14.6597 30.8632 14.2999C31.4922 13.8777 32.0555 13.3355 32.7994 13.1116C33.3424 12.9476 33.8997 12.9684 34.4582 12.9794C34.6484 12.9831 34.9773 13.2866 35.0215 12.8521C35.0586 12.4813 34.9617 12.1019 34.4666 12.0786C33.9057 12.0517 33.3556 12.097 32.8138 12.2622C31.7494 12.5853 31.5102 12.3516 31.7279 11.2183C31.7936 10.878 32.0256 10.6896 32.3163 10.5855C33.584 10.1303 34.8744 9.98219 36.1768 10.4032C36.9758 10.6614 37.4039 11.337 37.4338 12.2867C37.4494 12.8166 37.4362 13.3465 37.4362 13.994L37.4326 13.9915ZM35.0299 14.9694C35.0646 14.5117 35.1232 14.0613 34.4738 14.076C33.9918 14.087 33.7335 14.3574 33.7287 14.8898C33.7227 15.4344 33.9787 15.7367 34.4415 15.7294C34.9558 15.7208 35.1447 15.4503 35.0311 14.9694H35.0299Z" fill="white"/>
<path d="M24.3726 7.729C24.9275 6.30322 24.6955 5.6301 23.417 4.9423C23.1778 4.8138 23.2256 4.7012 23.2843 4.51518C23.417 4.09785 23.4385 3.66093 23.2854 3.25462C23.1575 2.91683 23.3094 2.85931 23.5641 2.74672C24.5137 2.32449 24.8904 1.43231 24.5185 0.437319C24.375 0.0530312 24.4599 0.000405734 24.8139 0.00407728C26.3471 0.0175396 27.8816 0.0187634 29.4148 0.00407728C29.8214 0.000405734 30.0032 0.137477 29.9865 0.567047C29.9673 1.05536 29.9697 1.54613 29.9865 2.03444C29.9996 2.42974 29.8405 2.57416 29.4542 2.56804C28.2989 2.5509 27.1436 2.58517 25.9883 2.5509C25.498 2.53622 25.3593 2.7149 25.3904 3.18608C25.4238 3.69275 25.4107 4.20555 25.3939 4.71344C25.3832 5.05367 25.5111 5.18585 25.8472 5.1834C27.2812 5.17361 28.7151 5.17239 30.1491 5.1834C30.5091 5.18585 30.6311 5.04633 30.6383 4.67795C30.6466 4.21901 30.4194 3.63279 30.7483 3.33294C31.0891 3.02209 31.6668 3.25829 32.1392 3.22402C32.3174 3.21056 32.498 3.23014 32.6762 3.22157C32.9883 3.20689 33.0948 3.36721 33.0936 3.6695C33.0876 4.87254 33.0852 6.07436 33.0936 7.2774C33.096 7.62742 32.9405 7.7339 32.62 7.7339C29.892 7.72778 27.164 7.73023 24.3726 7.73023V7.729Z" fill="white"/>
<path d="M47.6079 10.8173C47.6079 10.2458 47.5959 9.70362 47.6102 9.16145C47.6366 8.15055 48.4379 7.2498 49.4102 7.10049C49.8802 7.02828 50.1026 7.15556 50.0991 7.70262C50.0787 10.2078 50.0883 12.7131 50.0919 15.2195C50.0919 15.4973 50.1134 15.7506 50.2581 16.0285C50.4698 16.4348 50.2713 16.8142 49.8802 17.0491C49.3061 17.3931 48.445 17.3074 47.8722 16.8117C47.6545 16.6232 47.5301 16.5816 47.2694 16.7566C46.1177 17.5326 45.009 17.3465 44.0929 16.2634C42.9532 14.9172 42.9831 12.39 44.1539 11.0645C45.0892 10.0071 46.0926 9.92513 47.6091 10.8185L47.6079 10.8173ZM47.6079 13.735C47.6079 13.5318 47.6067 13.3287 47.6079 13.1255C47.6103 12.7632 47.6856 12.3961 47.1438 12.319C46.6331 12.2455 46.1476 12.2272 45.9215 12.7718C45.6776 13.3592 45.6226 13.9932 45.8952 14.6039C46.1368 15.1448 46.5913 15.2073 47.1008 15.1363C47.6162 15.0641 47.6437 14.6994 47.6102 14.2845C47.5959 14.1033 47.6079 13.9185 47.6079 13.7362V13.735Z" fill="white"/>
<path d="M2.4314 16.5787C2.4314 17.6593 2.41944 18.6788 2.43738 19.697C2.44456 20.0618 2.35606 20.2612 1.96737 20.3139C1.49018 20.3787 1.068 20.6235 0.638647 20.8389C0.0813259 21.1192 0.00239194 21.0678 0.00119597 20.413C0 17.2542 0 14.0955 0 10.9367C0 10.8352 0.00239194 10.7336 0.00239194 10.6308C0.00239194 10.4276 0.121989 10.3138 0.300188 10.3309C0.983086 10.397 1.75927 10.0409 2.29745 10.7764C2.4314 10.96 2.53426 10.8327 2.63831 10.7422C4.0352 9.51219 5.81838 10.4668 6.408 11.8767C6.9115 13.0809 6.92824 14.2974 6.4068 15.4895C5.64856 17.2212 4.24808 17.6092 2.43021 16.5775L2.4314 16.5787ZM4.30548 13.6304C4.32701 13.3906 4.29592 13.1078 4.19546 12.8411C4.01367 12.3589 3.5903 12.2108 2.95284 12.2989C2.42662 12.3723 2.40629 12.6966 2.42542 13.1152C2.44815 13.5998 2.44575 14.0869 2.42542 14.5716C2.41346 14.8714 2.53904 14.9987 2.80574 15.0856C3.72664 15.3818 4.29711 14.8531 4.30548 13.6292V13.6304Z" fill="white"/>
<path d="M11.7683 14.2131C11.3306 14.2131 10.8928 14.2082 10.4551 14.2156C10.3056 14.218 10.1095 14.1544 10.0305 14.3404C9.94203 14.5485 10.0485 14.7406 10.1752 14.8997C10.3929 15.1714 10.711 15.2399 11.028 15.2742C11.669 15.3452 12.3017 15.2962 12.9032 15.0441C13.3864 14.8422 13.5419 15.0111 13.5395 15.5214C13.5335 16.4968 13.3924 16.7392 12.4715 16.9839C12.0314 17.1002 11.5745 17.1761 11.1213 17.2091C8.94101 17.367 7.64338 16.2043 7.48791 13.9794C7.30373 11.3457 9.20651 9.68122 11.7168 10.2834C12.8482 10.555 13.5048 11.3885 13.6256 12.7066C13.7596 14.1691 13.7225 14.2119 12.3065 14.2119C12.1271 14.2119 11.9489 14.2119 11.7695 14.2119L11.7683 14.2131ZM10.6835 13.0431C10.8916 12.7665 11.4932 13.332 11.4765 12.5793C11.4657 12.1057 11.2325 11.8217 10.7577 11.7985C10.308 11.7752 9.96595 12.1387 9.96117 12.6576C9.95519 13.2695 10.4372 12.8339 10.6835 13.0431Z" fill="white"/>
<path d="M50.7042 15.6415C50.7042 15.404 50.709 15.2816 50.7042 15.1593C50.6779 14.6244 50.9291 14.5743 51.3381 14.7652C51.6814 14.9255 52.0282 15.0785 52.3786 15.2204C52.625 15.3208 52.8869 15.3171 53.144 15.2657C53.3067 15.2327 53.4466 15.147 53.4693 14.9561C53.4944 14.7431 53.3964 14.6012 53.1942 14.5473C52.8678 14.4617 52.5365 14.3919 52.2112 14.3026C51.2915 14.0517 50.837 13.5658 50.7628 12.6699C50.6899 11.7912 50.9877 11.0496 51.7627 10.6041C52.9862 9.90161 54.2192 10.0766 55.4176 10.6861C55.8266 10.8941 56.0024 11.9907 55.7309 12.3395C55.5635 12.5537 55.3793 12.4509 55.1939 12.375C54.7873 12.2061 54.3771 12.0507 53.9262 12.0678C53.6559 12.0776 53.2959 11.9797 53.2552 12.375C53.2134 12.7764 53.6164 12.7324 53.858 12.8205C54.0434 12.8878 54.2467 12.8988 54.4393 12.9502C55.3745 13.1974 55.8935 13.7017 55.9785 14.4372C56.1076 15.5741 55.7476 16.4321 54.8686 16.8567C53.6104 17.4638 52.3583 17.3328 51.1384 16.6952C50.6456 16.437 50.6863 15.9805 50.7078 15.6427L50.7042 15.6415Z" fill="white"/>
<path d="M40.7981 11.0009C41.463 10.1527 42.0024 9.96794 42.7236 10.3118C43.2749 10.575 43.3993 10.9262 43.1218 11.4831C42.9401 11.849 42.8013 12.2308 42.7164 12.6274C42.6243 13.0582 42.3995 13.0839 42.061 12.9174C41.1975 12.4915 40.7969 12.7534 40.7778 13.7264C40.7658 14.3554 40.8507 14.9882 40.6761 15.6111C40.4489 16.4225 39.7002 17.1005 38.8917 17.2168C38.4659 17.278 38.271 17.1421 38.2746 16.6636C38.2913 14.7275 38.2901 12.7901 38.2746 10.854C38.271 10.4183 38.4444 10.2959 38.8439 10.2898C39.943 10.2739 40.2276 10.3583 40.7981 10.9996V11.0009Z" fill="white"/>
<path d="M21.2871 2.43091C22.1075 2.43091 22.7366 3.06609 22.7258 3.88484C22.7151 4.69258 22.0453 5.3608 21.268 5.34244C20.5025 5.32409 19.8794 4.67667 19.8699 3.88974C19.8603 3.04039 20.4523 2.43091 21.2883 2.42969L21.2871 2.43091Z" fill="white"/>
<path d="M30.6287 1.26993C30.6479 -0.153408 30.4242 0.00691589 31.8677 0.00691589C33.2706 0.00691589 33.1092 -0.170542 33.108 1.27237C33.108 2.74833 33.2742 2.55007 31.8247 2.55986C30.6275 2.56721 30.6275 2.56109 30.6275 1.26993H30.6287Z" fill="white"/>
<path d="M23.9983 1.12011C23.9887 1.71368 23.502 2.19955 22.9207 2.19343C22.3299 2.18731 21.8731 1.70633 21.8778 1.09686C21.8826 0.495949 22.3658 0.00641034 22.9435 0.0137534C23.5127 0.0210965 24.0067 0.540008 23.9983 1.12011Z" fill="white"/>
<path d="M19.4417 2.59608C19.3962 3.20922 18.9035 3.63267 18.3019 3.5776C17.7458 3.5262 17.3344 3.01463 17.3822 2.43575C17.43 1.86299 17.9144 1.44688 18.4885 1.48482C19.0434 1.52031 19.4835 2.03433 19.4417 2.5973V2.59608Z" fill="white"/>
<path d="M23.9695 6.6179C23.9743 7.20045 23.5318 7.66919 22.9649 7.68387C22.3586 7.69978 21.8981 7.24206 21.9005 6.62647C21.9029 6.05615 22.3705 5.58008 22.9279 5.58008C23.4864 5.58008 23.9648 6.05738 23.9684 6.6179H23.9695Z" fill="white"/>
<path d="M16.8931 3.59296C16.8823 4.04333 16.6288 4.25751 16.2485 4.24404C15.9004 4.23058 15.6433 3.99683 15.6397 3.61866C15.6349 3.21356 15.8873 2.96145 16.2712 2.959C16.6563 2.95656 16.8919 3.18909 16.8931 3.59296Z" fill="white"/>
</g>
<defs>
<clipPath id="clip0_14206_200765">
<rect width="56" height="21" fill="white"/>
</clipPath>
</defs>
</svg>
