<svg width="134" height="100" viewBox="0 0 134 100" fill="none" xmlns="http://www.w3.org/2000/svg">
<path fill-rule="evenodd" clip-rule="evenodd" d="M82.0848 49.7677L114.458 68.8794L112.884 70.3577L86.8595 63.1248L70.8564 60.9074L80.7731 47.7087L82.0848 49.7677Z" fill="#865DFF"/>
<path fill-rule="evenodd" clip-rule="evenodd" d="M114.301 69.0378L112.884 70.3577L86.8595 63.1248L70.8564 60.9074L79.0941 49.9261L79.5139 50.1373L114.301 69.0378Z" fill="#865DFF"/>
<path fill-rule="evenodd" clip-rule="evenodd" d="M53.0698 70.2523V60.9604L54.8538 58.6375L58.1593 63.9169L53.0698 70.2523Z" fill="#865DFF"/>
<path fill-rule="evenodd" clip-rule="evenodd" d="M53.0166 70.3578V61.3299L54.6956 59.2181L57.6339 64.8144L53.0166 70.3578Z" fill="#865DFF"/>
<path fill-rule="evenodd" clip-rule="evenodd" d="M59.8905 74.4229L70.3318 80.1775L68.9676 81.8141L54.6436 77.8017L59.8905 74.4229Z" fill="#865DFF"/>
<path fill-rule="evenodd" clip-rule="evenodd" d="M70.2269 80.2304L68.9676 81.8142L54.6436 77.8018L55.9553 76.9571L56.3226 77.0099L59.5757 75.1621L70.2269 80.2304Z" fill="#865DFF"/>
<path fill-rule="evenodd" clip-rule="evenodd" d="M50.5506 79.2802C55.9024 80.1249 62.8808 72.0473 66.8685 66.8206L95.7265 28.8085C99.5567 23.793 99.6617 19.3582 98.1401 18.1967L97.1432 17.8272C94.1 16.7185 89.4302 17.9855 87.4889 20.7309L56.8469 63.4946C54.853 66.2927 53.174 69.2492 52.0197 71.8889C50.603 75.1622 49.9734 77.9075 50.5506 79.2802Z" fill="#FEEAD3"/>
<path fill-rule="evenodd" clip-rule="evenodd" d="M70.961 61.4355L79.5134 50.1375H79.461L78.1492 50.8766L94.0474 29.9699C100.659 21.2588 91.1616 23.4761 87.5937 28.2277L70.5412 50.771V47.7089L69.8591 47.6561L68.285 47.4449L62.5659 58.8486L62.5134 61.3299L60.9918 63.3361C58.9455 66.0815 55.7449 70.6746 53.9609 72.9976C53.2788 73.8951 52.7017 74.687 52.177 75.4789V72.7864L51.5474 72.7336C50.4455 75.3733 49.9733 77.6435 50.3406 78.9634C50.2881 79.1745 50.2357 79.3857 50.2357 79.5441C51.1801 79.6497 52.177 79.4385 53.1739 79.0162C55.1153 78.4354 57.1091 77.0628 59.0505 75.3733L57.3714 76.3764C60.7819 73.4727 64.14 69.2491 66.4486 66.187L68.5999 63.3889C69.8066 62.597 70.6986 61.8051 70.961 61.4355Z" fill="#27C2EC"/>
<path fill-rule="evenodd" clip-rule="evenodd" d="M89.2734 19.4109H90.4277C92.8413 17.8271 94.4679 17.5103 97.1963 17.8799L97.1438 17.8271C94.7827 16.9824 91.4247 17.4047 89.2734 19.4109Z" fill="#865DFF"/>
<path fill-rule="evenodd" clip-rule="evenodd" d="M34.1805 70.0411L33.0786 72.3641L50.4984 76.4293L52.02 73.3672C52.3873 72.6809 52.5447 71.9945 51.9675 71.9417L34.1805 70.0411Z" fill="#865DFF"/>
<path fill-rule="evenodd" clip-rule="evenodd" d="M33.9706 70.4635L33.0786 72.3641L50.4984 76.4293L52.02 73.3672C52.1249 73.2088 52.1774 72.9977 52.2299 72.8393L33.9706 70.4635Z" fill="#865DFF"/>
<path fill-rule="evenodd" clip-rule="evenodd" d="M70.6989 45.0163L69.3872 45.4386L19.5415 40.0536V43.0629L50.0261 52.4603L62.6711 58.7957L70.1742 48.3952C71.6434 46.3362 72.1681 44.5939 70.6989 45.0163Z" fill="#865DFF"/>
<path fill-rule="evenodd" clip-rule="evenodd" d="M19.5415 43.063L50.0261 52.4605L62.6711 58.7958L70.1742 48.3953C70.3316 48.1841 70.489 47.9729 70.594 47.7617V47.709L69.9119 47.6562L19.5415 40.6873V43.063V43.063Z" fill="#865DFF"/>
<path fill-rule="evenodd" clip-rule="evenodd" d="M89.8502 28.7028L92.736 29.8642L90.6372 32.7679L90.27 34.4574L89.2206 35.7245C89.378 35.9356 89.4305 36.2524 89.3255 36.5692C89.6403 36.3052 90.0601 36.1996 90.4274 36.358C90.8996 36.5692 91.057 37.0971 90.7946 37.5195L90.4274 38.2058C90.165 38.6282 89.5879 38.8393 89.1681 38.6282C88.7483 38.417 88.5909 37.9418 88.7484 37.5723C88.4335 37.8362 88.0138 37.9418 87.6465 37.7834C87.1743 37.5723 87.0169 37.0443 87.2792 36.622L87.6465 35.9356C87.9088 35.5133 88.486 35.3021 88.9058 35.5133C89.0107 35.5661 89.1156 35.6717 89.2206 35.7245V32.2928L88.5385 32.0288L89.8502 30.1282V28.7028Z" fill="#111111"/>
<path fill-rule="evenodd" clip-rule="evenodd" d="M59.2079 51.299V53.094L58.8931 53.7275L63.1431 55.6809L64.4548 53.8859L59.2079 51.299Z" fill="#111111"/>
<path fill-rule="evenodd" clip-rule="evenodd" d="M76.2077 57.2646L74.791 58.9541L77.4145 59.2708L79.0935 62.1218L78.8836 63.4944C78.6213 63.5472 78.4114 63.7056 78.254 63.9696L77.9916 64.4447C77.5719 64.3919 77.1521 64.5503 76.9423 64.9199L76.575 65.6062C76.3126 66.0286 76.47 66.5565 76.9423 66.7677C77.3095 66.9261 77.7818 66.8205 78.0441 66.5565C77.8342 66.9789 77.9916 67.454 78.4639 67.6124C78.9361 67.8236 79.4608 67.6124 79.7231 67.19L79.9855 66.7149C80.4052 66.7677 80.825 66.6093 81.0348 66.2397L81.4021 65.5534C81.6645 65.1311 81.5071 64.6031 81.0348 64.3919C80.6676 64.2335 80.1953 64.3391 79.933 64.6031C80.0379 64.3919 80.0379 64.2335 79.9855 64.0224L80.6151 61.2242L82.0842 59.6932V57.8982L76.2077 57.2646ZM79.2509 61.1187L78.2015 59.3236L79.5132 59.482L79.2509 61.1187Z" fill="#111111"/>
<path fill-rule="evenodd" clip-rule="evenodd" d="M55.4833 42.0071C54.224 43.8549 52.9648 46.2835 52.0728 49.3456C51.2857 51.9325 54.1715 52.8301 55.7981 51.563C57.8444 50.0319 59.6808 48.3953 61.5172 45.3332C62.9864 42.9574 62.0944 41.0568 60.5728 40.2649C59.0512 39.4202 57.1623 39.6842 55.4833 42.0071Z" fill="#FEEAD3"/>
<path fill-rule="evenodd" clip-rule="evenodd" d="M53.0172 46.653C52.7024 47.4977 52.3351 48.3952 52.0728 49.3455C51.2857 51.9325 54.1715 52.83 55.7981 51.5629C56.9524 50.6654 58.0543 49.7679 59.1036 48.6064C58.5789 49.0816 57.9493 49.4511 57.3721 49.7151C58.4215 48.448 59.6283 46.7058 60.3629 45.8611C59.5759 46.2306 58.2117 46.125 56.8999 44.9108C56.4277 45.5971 54.8012 48.184 54.0141 49.4511C53.332 48.976 52.9123 48.0257 53.0172 46.653Z" fill="#865DFF"/>
<path fill-rule="evenodd" clip-rule="evenodd" d="M57.9495 44.9108C59.2087 45.7555 60.9402 45.6499 61.6223 44.2772C62.3569 42.8518 61.8847 41.2679 60.3631 40.5816C59.3661 40.1064 58.002 40.212 57.2674 41.0567C56.218 42.271 56.6902 44.066 57.9495 44.9108Z" fill="#111111"/>
<path fill-rule="evenodd" clip-rule="evenodd" d="M91.2669 51.5099C89.5354 53.3049 87.699 56.4198 86.8594 59.5347C86.2823 61.6993 88.8533 62.7552 90.2175 61.8577C92.6311 60.2739 94.7298 58.7956 96.6712 55.3639C97.6156 53.7801 97.1434 52.1435 95.8841 51.1932C94.5724 50.0845 92.6835 50.0317 91.2669 51.5099Z" fill="#FEEAD3"/>
<path fill-rule="evenodd" clip-rule="evenodd" d="M92.0015 51.8268C91.4243 52.8827 91.6342 54.3082 92.4212 55.1001C93.3132 55.9976 95.5169 56.3672 96.3039 55.1529C97.1959 53.7802 96.8286 52.3548 95.6743 51.4572C94.52 50.5069 92.736 50.4541 92.0015 51.8268Z" fill="#111111"/>
<path fill-rule="evenodd" clip-rule="evenodd" d="M58.5259 54.2027L57.9487 58.0039L58.9456 58.6374L60.2049 53.0412L59.7327 52.3549L58.5259 54.2027Z" fill="#111111"/>
<path fill-rule="evenodd" clip-rule="evenodd" d="M62.2516 53.9915L58.9985 56.5785L58.8936 55.8921L61.4645 53.8331L62.2516 53.9915Z" fill="#111111"/>
<path fill-rule="evenodd" clip-rule="evenodd" d="M57.6338 58.3206C58.106 58.5318 58.2634 59.0598 58.0011 59.4821L57.6338 60.1685C57.3714 60.5908 56.7943 60.802 56.3745 60.5908C55.9023 60.3796 55.7449 59.8517 56.0072 59.4293L56.3745 58.743C56.6369 58.3206 57.214 58.1095 57.6338 58.3206Z" fill="#111111"/>
<path fill-rule="evenodd" clip-rule="evenodd" d="M59.1558 59.2182C59.628 59.4294 59.7854 59.9574 59.523 60.3797L59.1558 61.0661C58.8934 61.4884 58.3162 61.6996 57.8965 61.4884C57.4243 61.2772 57.2669 60.7493 57.5292 60.3269L57.8965 59.6406C58.1588 59.1654 58.736 59.0071 59.1558 59.2182Z" fill="#111111"/>
<path fill-rule="evenodd" clip-rule="evenodd" d="M58.998 57.3703C59.4703 57.5815 59.6277 58.1095 59.3653 58.5318L58.998 59.2182C58.7357 59.6405 58.1585 59.8517 57.7388 59.6405C57.2666 59.4293 57.1092 58.9014 57.3715 58.479L57.7388 57.7927C57.9487 57.3175 58.5258 57.1592 58.998 57.3703Z" fill="#111111"/>
<path fill-rule="evenodd" clip-rule="evenodd" d="M60.4673 58.2149C60.9395 58.4261 61.0969 58.954 60.8346 59.3764L60.4673 60.0627C60.2049 60.4851 59.6278 60.6963 59.208 60.4851C58.7358 60.2739 58.5784 59.746 58.8407 59.3236L59.208 58.6373C59.4704 58.2149 60.0475 58.0037 60.4673 58.2149Z" fill="#111111"/>
<path fill-rule="evenodd" clip-rule="evenodd" d="M86.8071 59.4293C86.02 62.0163 88.9058 62.9138 90.5849 61.7523C91.7916 60.9076 92.7361 60.1685 93.8379 59.0598C93.2608 59.5349 92.6836 59.8517 92.1065 60.0101C93.1558 58.743 94.2577 57.0536 94.9923 56.2616C94.2052 56.6312 92.6836 56.5784 91.5818 55.2585C91.2145 55.8393 89.9028 57.8983 89.0108 59.2709C88.3287 58.5846 87.9614 57.5815 88.0139 56.2089C87.5941 57.1592 87.1219 58.3734 86.8071 59.4293Z" fill="#865DFF"/>
</svg>
