<svg width="96" height="16" viewBox="0 0 96 16" fill="none" xmlns="http://www.w3.org/2000/svg">
<path d="M10.5548 13.3161C10.7764 13.3161 10.9874 13.2633 11.1879 13.1472L13.4986 11.8178C13.9629 11.554 14.501 11.4379 15.0391 11.5012C17.8458 11.8283 19.8083 12.3559 20.3887 12.5247C20.5047 12.5564 20.6419 12.5142 20.7158 12.4192C20.8107 12.3031 20.9268 12.1132 21.0218 11.8389C21.1062 11.5751 21.1167 11.3535 21.1062 11.1952C21.0956 11.0686 21.0112 10.9525 20.8846 10.9209C19.9772 10.6571 15.9571 9.57031 10.5548 9.57031C5.15246 9.57031 1.13238 10.6571 0.224956 10.9209C0.0983388 10.9525 0.0139278 11.0686 0.00337641 11.1952C-0.00717498 11.3429 0.00337674 11.5645 0.0877879 11.8389C0.172199 12.1132 0.298816 12.3031 0.393779 12.4192C0.467638 12.5142 0.604806 12.5564 0.720872 12.5247C1.3012 12.3559 3.27431 11.8283 6.07043 11.5012C6.60855 11.4379 7.14667 11.554 7.61093 11.8178L9.92169 13.1472C10.1222 13.2633 10.3437 13.3161 10.5548 13.3161Z" fill="white"/>
<path d="M6.70351 5.8352C6.83013 6.05678 7.03061 6.2045 7.26274 6.26781C7.49487 6.33112 7.73755 6.29946 7.95913 6.17285C8.18071 6.04623 8.32843 5.84575 8.39174 5.61362C8.45505 5.38149 8.42339 5.13881 8.29677 4.91723L6.21815 1.3192C6.15484 1.20314 6.01767 1.16093 5.89106 1.17148C5.72223 1.18204 5.4901 1.26645 5.21577 1.42472C4.94143 1.58299 4.75151 1.74126 4.65654 1.87843C4.58268 1.98394 4.56158 2.12111 4.62489 2.23718L6.70351 5.8352Z" fill="white"/>
<path d="M4.8042 8.41054C5.02578 8.53716 5.27901 8.55826 5.50059 8.50551C5.73272 8.4422 5.9332 8.29448 6.05982 8.0729C6.18643 7.85132 6.20754 7.59809 6.15478 7.37651C6.10202 7.15493 5.94375 6.9439 5.72217 6.81728L2.12415 4.73866C2.00808 4.67535 1.87091 4.69645 1.7654 4.77031C1.62823 4.86527 1.46996 5.0552 1.31169 5.32954C1.15342 5.60387 1.06901 5.836 1.05845 6.00483C1.0479 6.14199 1.10066 6.26861 1.20617 6.33192L4.8042 8.41054Z" fill="white"/>
<path d="M11.4727 4.5582C11.4727 4.81144 11.3671 5.04357 11.2089 5.21239C11.0401 5.38121 10.8185 5.47617 10.5547 5.47617C10.3015 5.47617 10.0693 5.37066 9.9005 5.21239C9.73168 5.04357 9.63672 4.82199 9.63672 4.5582V0.411504C9.63672 0.274336 9.72113 0.168822 9.84775 0.116065C9.99547 0.0422054 10.2381 0 10.5547 0C10.8712 0 11.1139 0.0422054 11.2616 0.116065C11.3777 0.179374 11.4727 0.274336 11.4727 0.411504V4.5582Z" fill="white"/>
<path d="M14.4062 5.8352C14.2795 6.05678 14.0791 6.2045 13.8469 6.26781C13.6148 6.33112 13.3721 6.29946 13.1505 6.17285C12.929 6.04623 12.7812 5.84575 12.7179 5.61362C12.6546 5.38149 12.6863 5.13881 12.8129 4.91723L14.8915 1.3192C14.9548 1.20314 15.092 1.16093 15.2186 1.17148C15.3874 1.18204 15.6196 1.26645 15.8939 1.42472C16.1682 1.58299 16.3582 1.74126 16.4531 1.87843C16.527 1.98394 16.5481 2.12111 16.4848 2.23718L14.4062 5.8352Z" fill="white"/>
<path d="M16.3053 8.41054C16.0837 8.53716 15.8305 8.55826 15.6089 8.50551C15.3768 8.4422 15.1763 8.29448 15.0497 8.0729C14.923 7.85132 14.9019 7.59809 14.9547 7.37651C15.018 7.14438 15.1657 6.9439 15.3873 6.81728L18.9853 4.73866C19.1014 4.67535 19.2386 4.69645 19.3441 4.77031C19.4812 4.86527 19.6395 5.0552 19.7978 5.32954C19.9561 5.60387 20.0405 5.836 20.051 6.00483C20.0616 6.14199 20.0088 6.26861 19.9033 6.33192L16.3053 8.41054Z" fill="white"/>
<path d="M39.2548 5.55078H40.9853C41.0486 5.55078 41.1013 5.59299 41.133 5.64574L42.8529 10.0562L44.52 5.64574C44.5411 5.58244 44.6044 5.55078 44.6677 5.55078H46.3665C46.4826 5.55078 46.5564 5.66685 46.5037 5.76181L42.2831 15.448C42.262 15.5008 42.1987 15.543 42.1459 15.543H40.6476C40.5421 15.543 40.4577 15.4269 40.5105 15.3319L41.956 11.9449L39.1282 5.76181C39.0649 5.66685 39.1388 5.55078 39.2548 5.55078Z" fill="white"/>
<path d="M64.7996 6.53072V5.70771C64.7996 5.6233 64.8735 5.54944 64.9579 5.54944H66.4878C66.5723 5.54944 66.6461 5.6233 66.6461 5.70771V12.2812C66.6461 12.3656 66.5723 12.4395 66.4878 12.4395H64.9579C64.8735 12.4395 64.7996 12.3656 64.7996 12.2812V11.416C64.4725 11.9225 63.755 12.5872 62.5838 12.5872C60.3469 12.5872 59.1863 10.8779 59.1863 8.96809C59.1863 6.47796 60.9167 5.41227 62.5311 5.41227C63.5968 5.40172 64.3354 5.90819 64.7996 6.53072ZM61.0328 8.97864C61.0328 10.1604 61.7608 11.0678 62.932 11.0678C64.1032 11.0678 64.8524 10.2765 64.8524 9.06305C64.8524 7.84964 64.1243 6.92112 62.8793 6.92112C61.7081 6.92112 61.0328 7.82854 61.0328 8.97864Z" fill="white"/>
<path d="M68.0283 12.283V5.7095C68.0283 5.62509 68.1022 5.55123 68.1866 5.55123H69.7165C69.801 5.55123 69.8748 5.62509 69.8748 5.7095V6.60637C70.2336 5.98384 70.9089 5.41406 72.059 5.41406C73.2407 5.41406 74.5596 5.99439 74.5596 8.66389V12.283C74.5596 12.3674 74.4858 12.4413 74.4014 12.4413H72.8714C72.787 12.4413 72.7131 12.3674 72.7131 12.283V8.69555C72.7131 8.05191 72.5549 6.94402 71.4153 6.94402C70.2758 6.94402 69.8748 7.9464 69.8748 8.87492V12.283C69.8748 12.3674 69.801 12.4413 69.7165 12.4413H68.1866C68.0916 12.4307 68.0283 12.3674 68.0283 12.283Z" fill="white"/>
<path d="M75.8682 12.283V5.7095C75.8682 5.62509 75.942 5.55123 76.0264 5.55123H77.5564C77.6408 5.55123 77.7147 5.62509 77.7147 5.7095V6.60637C78.0734 5.98384 78.7487 5.41406 79.8988 5.41406C81.0806 5.41406 82.3995 5.99439 82.3995 8.66389V12.283C82.3995 12.3674 82.3256 12.4413 82.2412 12.4413H80.7113C80.6268 12.4413 80.553 12.3674 80.553 12.283V8.69555C80.553 8.05191 80.3947 6.94402 79.2552 6.94402C78.1156 6.94402 77.7147 7.9464 77.7147 8.87492V12.283C77.7147 12.3674 77.6408 12.4413 77.5564 12.4413H76.0264C75.942 12.4307 75.8682 12.3674 75.8682 12.283Z" fill="white"/>
<path d="M91.9379 5.54973H93.4256C93.51 5.54973 93.5839 5.62359 93.5839 5.708V7.06913C93.8793 5.71855 95.04 5.25429 95.8841 5.45477C95.9579 5.46532 96.0002 5.52863 96.0002 5.60249V7.10079C96.0002 7.19575 95.9157 7.26961 95.8102 7.24851C94.2486 6.94252 93.6155 7.78663 93.6155 8.96839C93.6155 9.8125 93.6155 11.7223 93.6155 12.2815C93.6155 12.3659 93.5417 12.4398 93.4573 12.4398H91.9273C91.8429 12.4398 91.769 12.3659 91.769 12.2815V5.708C91.7796 5.62359 91.8535 5.54973 91.9379 5.54973Z" fill="white"/>
<path d="M29.1149 7.0479C28.64 6.88963 28.3868 6.79467 28.007 6.66805C27.6166 6.53088 26.9518 6.15103 26.9518 5.53905C26.9518 4.92707 27.3739 4.53667 28.2285 4.53667C29.0093 4.53667 29.442 4.91652 29.7268 5.5285C29.769 5.61291 29.864 5.64456 29.9484 5.60236L31.204 4.87431C31.2673 4.83211 31.299 4.74769 31.2673 4.67383C30.8875 3.84027 30.0012 2.83789 28.2496 2.83789C26.2976 2.83789 25.0737 3.99854 25.0737 5.5285C25.0737 7.0479 26.0761 7.83925 27.4372 8.30352C27.9331 8.47234 28.1336 8.5462 28.5556 8.68337C29.3575 8.9577 29.7268 9.31645 29.7268 9.81237C29.7268 10.3083 29.4103 10.8992 28.1652 10.8992C27.0257 10.8992 26.6247 10.2977 26.3926 9.72795C26.3609 9.64354 26.2554 9.60134 26.171 9.65409L24.8521 10.4138C24.7888 10.456 24.7571 10.5299 24.7888 10.6037C25.2953 11.8488 26.6775 12.5874 28.2285 12.5874C30.0539 12.5874 31.5944 11.6589 31.5944 9.78071C31.5944 7.90256 29.5897 7.20617 29.1149 7.0479Z" fill="white"/>
<path d="M39.1914 10.6362C39.1492 10.5624 39.0436 10.5307 38.9698 10.5835C38.3789 11.0161 37.6825 11.0266 37.1549 10.2142C36.7118 9.52833 36.1737 8.68422 36.1737 8.68422L38.495 5.80369C38.5794 5.69817 38.5055 5.55045 38.3789 5.55045H36.5641C36.5113 5.55045 36.4691 5.57156 36.4374 5.61376L34.4327 8.36768V2.82819C34.4327 2.74378 34.3588 2.66992 34.2744 2.66992H32.7445C32.66 2.66992 32.5862 2.74378 32.5862 2.82819V12.2822C32.5862 12.3667 32.66 12.4405 32.7445 12.4405H34.285C34.3694 12.4405 34.4432 12.3667 34.4432 12.2822V9.21179C34.4432 9.21179 35.4667 10.8262 35.8571 11.4276C36.3847 12.2506 37.1233 12.5882 37.9252 12.5882C38.6849 12.5882 39.1703 12.3878 39.7506 11.818C39.8033 11.7652 39.8139 11.6914 39.7822 11.6281L39.1914 10.6362Z" fill="white"/>
<path d="M50.1755 8.46342C49.6901 8.28404 49.5213 8.22073 49.152 8.08356C48.7827 7.9464 48.4556 7.74592 48.4556 7.45048C48.4556 7.15504 48.7299 6.82795 49.2891 6.82795C49.7745 6.82795 50.0699 7.01787 50.2388 7.35552C50.281 7.43993 50.3759 7.46103 50.4498 7.41883L51.526 6.79629C51.5999 6.75409 51.621 6.65913 51.5788 6.58527C51.2834 6.06825 50.703 5.41406 49.2997 5.41406C47.5798 5.41406 46.6935 6.40589 46.6935 7.50324C46.6935 8.60058 47.5904 9.1176 48.4134 9.4447C49.3419 9.82455 49.4052 9.84565 49.5213 9.88785C49.8062 10.0039 50.1544 10.1833 50.1544 10.5104C50.1544 10.8375 49.7745 11.1329 49.1942 11.1329C48.6561 11.1329 48.0441 10.9113 47.7908 10.2888C47.7592 10.2044 47.6537 10.1622 47.5693 10.2149L46.4825 10.8375C46.4192 10.8797 46.3875 10.9535 46.4192 11.0274C46.7357 11.8504 47.6748 12.5785 49.1942 12.5785C50.8402 12.5785 51.9375 11.7027 51.9375 10.4682C51.9375 9.23367 51.0934 8.80106 50.1755 8.46342Z" fill="white"/>
<path d="M56.3586 7.04836C57.0444 7.04836 57.5509 7.25939 58.0257 7.59703C58.0996 7.64979 58.2051 7.62869 58.2473 7.55483L58.8804 6.45748C58.9226 6.38362 58.9015 6.29921 58.8276 6.25701C58.1734 5.81385 57.361 5.40234 56.2636 5.40234C55.1768 5.40234 54.1744 5.69778 53.4569 6.42583C52.7394 7.14332 52.4124 7.99799 52.4124 9.01092C52.4124 10.2349 52.9188 11.0157 53.4675 11.5644C54.0162 12.113 55.008 12.5773 56.2742 12.5773C57.4137 12.5773 58.2578 12.1025 58.8382 11.7226C58.9015 11.6804 58.9226 11.5855 58.8804 11.5222L58.2578 10.4354C58.2156 10.3615 58.1101 10.3298 58.0362 10.3826C57.6247 10.678 57.0339 10.9313 56.3691 10.9313C55.62 10.9313 54.2588 10.5092 54.2588 8.98982C54.2588 7.47042 55.6094 7.04836 56.3586 7.04836Z" fill="white"/>
<path d="M87.4007 11.0579C86.7887 11.0579 86.2084 10.9102 85.7864 10.5725C85.3643 10.2349 85.1638 9.88669 85.1638 9.47518H90.6294C90.7139 9.47518 90.7877 9.40132 90.7877 9.31691C90.7561 7.692 90.2285 6.9323 89.722 6.41528C89.1945 5.88771 88.2976 5.40234 87.1158 5.40234C85.9341 5.40234 85.0267 5.83495 84.4041 6.44693C83.7921 7.05891 83.3279 7.83972 83.3279 9.02147C83.3279 10.2032 83.8027 10.984 84.383 11.5644C84.9633 12.1447 85.913 12.5773 87.2741 12.5773C88.5614 12.5773 89.6482 12.1236 90.429 11.2267C90.4923 11.1529 90.4712 11.0368 90.3868 10.9946L89.3 10.3615C89.2472 10.3298 89.1734 10.3298 89.1206 10.3826C88.5825 10.8891 87.8966 11.0579 87.4007 11.0579ZM87.1053 6.87954C87.981 6.87954 88.783 7.40711 88.9096 8.35674H85.2271C85.4698 7.33325 86.2295 6.87954 87.1053 6.87954Z" fill="white"/>
</svg>
