<svg width="63" height="19" viewBox="0 0 63 19" fill="none" xmlns="http://www.w3.org/2000/svg">
<path d="M22.4266 13.0941C21.8761 13.417 21.2993 13.5978 20.7226 13.5978C19.674 13.5978 18.7826 13.0037 18.7826 11.6091L18.7826 8.0578L17.7996 8.0578L17.7996 6.94723L18.7826 6.94723L18.7826 5.07474L20.2769 5.07474L20.2769 6.94723L22.3217 6.94723L22.3217 8.0578L20.2638 8.0578L20.2638 11.3379C20.2638 12.0481 20.5391 12.2677 21.011 12.2677C21.3255 12.2677 21.6532 12.1644 22.0596 11.9707L22.4266 13.0941ZM30.4222 9.27975L30.4222 13.5413L28.9148 13.5413L28.9148 9.69299C28.9148 8.65989 28.2857 8.04004 27.2501 8.04004C26.0049 8.05295 25.2709 8.96982 25.2709 10.1708L25.2709 13.5413L23.7635 13.5413L23.7635 3.99805L25.2709 3.99805L25.2709 8.04004C25.769 7.07151 26.6603 6.64536 27.84 6.64536C29.4522 6.64536 30.4222 7.63971 30.4222 9.27975ZM36.8669 9.60352C36.8145 8.49295 36.0674 7.82143 34.9401 7.82143C33.8391 7.82143 33.0788 8.50586 32.9084 9.59061L36.8669 9.59061L36.8669 9.60352ZM38.1777 10.6754L32.9215 10.6754C33.1574 11.7343 33.9832 12.38 35.0712 12.38C35.8314 12.38 36.5261 12.0959 37.0242 11.5793L37.8238 12.4187C37.1422 13.1548 36.1591 13.5809 34.9532 13.5809C32.8166 13.5809 31.401 12.1733 31.401 10.1201C31.401 8.05388 32.856 6.64629 34.9139 6.63337C37.365 6.63337 38.3612 8.20884 38.1777 10.6754Z" fill="white"/>
<path d="M41.1986 6.04274L41.1986 6.86944L43.0081 6.86944L43.0081 7.99796L41.1986 7.99796L41.1986 13.5618L39.7169 13.5618L39.7169 7.99796L38.7991 7.99796L38.7991 6.86944L39.7169 6.86944L39.7169 6.18708C39.7169 4.55992 40.9101 3.79883 42.1034 3.79883C42.6672 3.79883 43.231 3.9563 43.6768 4.28435L43.0999 5.43911C42.8114 5.22916 42.4574 5.11106 42.1427 5.11106C41.6313 5.09794 41.1986 5.38663 41.1986 6.04274ZM44.6244 10.0949C44.6244 11.4465 45.5029 12.3519 46.7485 12.3519C47.9942 12.3519 48.8596 11.4334 48.8596 10.0949C48.8596 8.75643 47.9811 7.85099 46.7485 7.85099C45.5029 7.83787 44.6244 8.75643 44.6244 10.0949ZM50.3675 10.0687C50.3675 12.1551 48.8858 13.5986 46.7485 13.5986C44.5981 13.5986 43.1165 12.1551 43.1165 10.0687C43.1165 7.96909 44.5981 6.53876 46.7485 6.53876C48.8989 6.55189 50.3675 7.96909 50.3675 10.0687ZM52.9645 7.97938C53.4365 7.03458 54.2757 6.53593 55.364 6.53593L55.364 7.97938C53.961 7.90065 53.0825 8.72735 52.9645 9.90836L52.9645 13.5432L51.4566 13.5432L51.4566 6.58842L52.9645 6.58842L52.9645 7.97938ZM57.8027 11.6052L57.8027 13.5473L56.3079 13.5473L56.3079 3.85006L57.8158 3.85006L57.8158 9.7026L60.884 6.59262L62.6017 6.59262L60.0317 9.28269L62.7984 13.5474L61.0283 13.5474L58.9959 10.3587L57.8027 11.6052Z" fill="white"/>
<path d="M20.1191 16.8892C19.688 16.8762 19.1915 16.9544 19.1915 17.3848C19.1915 17.6456 19.3613 17.763 19.5704 17.763C19.8578 17.763 20.0407 17.5804 20.093 17.3978C20.106 17.3587 20.1191 17.3065 20.1191 17.2674L20.1191 16.8892ZM20.1714 17.9977L20.1452 17.7238L20.1322 17.7238C20.0146 17.8934 19.7794 18.0499 19.4659 18.0499C19.0217 18.0499 18.7996 17.7369 18.7996 17.4239C18.7996 16.9023 19.2699 16.6024 20.1191 16.6154L20.1191 16.5763C20.1191 16.3937 20.0668 16.0677 19.6226 16.0677C19.4136 16.0677 19.2046 16.1329 19.0478 16.2242L18.9563 15.9634C19.1392 15.846 19.4005 15.7678 19.6749 15.7678C20.3412 15.7678 20.511 16.2242 20.511 16.6676L20.511 17.4891C20.511 17.6847 20.5241 17.8673 20.5502 18.0107C20.5372 17.9977 20.1714 17.9977 20.1714 17.9977ZM22.6324 15.2927L21.7048 15.2927L21.7048 14.9536L23.965 14.9536L23.965 15.2927L23.0374 15.2927L23.0374 18.0051L22.6455 18.0051L22.6455 15.2927L22.6324 15.2927ZM24.1537 16.4983C24.1537 16.2375 24.1537 16.0158 24.1406 15.8202L24.4934 15.8202L24.5064 16.2506L24.5195 16.2506C24.624 15.9637 24.8592 15.7681 25.1205 15.7681C25.1597 15.7681 25.1989 15.7681 25.2381 15.7811L25.2381 16.1593C25.1989 16.1463 25.1597 16.1463 25.1074 16.1463C24.833 16.1463 24.624 16.3549 24.5718 16.6548C24.5587 16.707 24.5587 16.7722 24.5587 16.8374L24.5587 17.998L24.1667 17.998L24.1667 16.4983L24.1537 16.4983ZM25.707 15.8153L26.1042 15.8153L26.1042 17.9957L25.707 17.9957L25.707 15.8153ZM26.1565 15.1998C26.1565 15.3354 26.0624 15.4398 25.9056 15.4398C25.7697 15.4398 25.6652 15.3354 25.6652 15.1998C25.6652 15.0642 25.7697 14.9494 25.9161 14.9494C26.0624 14.9599 26.1565 15.0642 26.1565 15.1998ZM27.2194 17.1102C27.2194 17.1754 27.2325 17.2276 27.2325 17.2667C27.3108 17.5405 27.546 17.7361 27.8334 17.7361C28.2515 17.7361 28.4997 17.3971 28.4997 16.8885C28.4997 16.4451 28.2646 16.08 27.8465 16.08C27.5721 16.08 27.3239 16.2756 27.2455 16.5755C27.2325 16.6277 27.2194 16.6799 27.2194 16.732L27.2194 17.1102ZM26.8275 16.5234C26.8275 16.2495 26.8144 16.0148 26.8144 15.8062L27.1671 15.8062L27.1802 16.1843L27.1933 16.1843C27.35 15.9235 27.6113 15.754 27.9771 15.754C28.4997 15.754 28.9047 16.1974 28.9047 16.8624C28.9047 17.6449 28.4213 18.0361 27.9118 18.0361C27.6244 18.0361 27.3631 17.9057 27.2325 17.697L27.2194 17.697L27.2194 18.8837L26.8275 18.8837L26.8275 16.5234ZM30.9716 16.7432L30.6711 15.8695C30.6058 15.6739 30.5535 15.4913 30.5143 15.3087L30.5012 15.3087C30.4621 15.4913 30.4098 15.6739 30.3445 15.8564L30.044 16.7302L30.9716 16.7302L30.9716 16.7432ZM29.9787 17.0431L29.6651 17.9951L29.2601 17.9951L30.2922 14.9566L30.7625 14.9566L31.8077 17.9951L31.3896 17.9951L31.063 17.0431L29.9787 17.0431ZM33.7338 16.7047C33.7338 16.6525 33.7338 16.5873 33.7207 16.5352C33.6554 16.2874 33.4463 16.0788 33.1459 16.0788C32.7409 16.0788 32.4926 16.4439 32.4926 16.9264C32.4926 17.3698 32.7147 17.7349 33.1328 17.7349C33.3941 17.7349 33.6423 17.5523 33.7207 17.2654C33.7338 17.2133 33.7338 17.1611 33.7338 17.0959L33.7338 16.7047ZM34.1388 14.8008L34.1388 17.435C34.1388 17.6306 34.1388 17.8523 34.1518 17.9957L33.7991 17.9957L33.786 17.6175L33.773 17.6175C33.6554 17.8653 33.381 18.0479 33.0283 18.0479C32.5057 18.0479 32.0876 17.6045 32.0876 16.9394C32.0876 16.2092 32.5318 15.7658 33.0675 15.7658C33.4072 15.7658 33.6293 15.9223 33.7338 16.1048L33.7468 16.1048L33.7468 14.8008L34.1388 14.8008ZM35.0099 15.8188L35.4411 17.0446C35.5195 17.2402 35.5717 17.4228 35.624 17.6053L35.637 17.6053C35.6893 17.4228 35.7546 17.2402 35.8199 17.0446L36.2511 15.8188L36.6691 15.8188L35.8069 17.9965L35.428 17.9965L34.5919 15.8188L35.0099 15.8188ZM37.0994 15.8153L37.4966 15.8153L37.4966 17.9957L37.0994 17.9957L37.0994 15.8153ZM37.5384 15.1998C37.5384 15.3354 37.4444 15.4398 37.2876 15.4398C37.1517 15.4398 37.0472 15.3354 37.0472 15.1998C37.0472 15.0642 37.1517 14.9494 37.298 14.9494C37.4444 14.9599 37.5384 15.0642 37.5384 15.1998ZM38.1638 17.5906C38.2813 17.6689 38.4904 17.7471 38.6863 17.7471C38.9738 17.7471 39.1175 17.6037 39.1175 17.4211C39.1175 17.2255 38.9999 17.1342 38.7125 17.0168C38.3205 16.8734 38.1376 16.6647 38.1376 16.4039C38.1376 16.0518 38.425 15.7649 38.8954 15.7649C39.1175 15.7649 39.3134 15.8301 39.431 15.8954L39.3265 16.1822C39.2351 16.1301 39.0783 16.0518 38.8823 16.0518C38.6471 16.0518 38.5165 16.1822 38.5165 16.3518C38.5165 16.5343 38.6471 16.6126 38.9346 16.7169C39.3134 16.8604 39.5094 17.056 39.5094 17.382C39.5094 17.7601 39.2089 18.034 38.6863 18.034C38.4512 18.034 38.2291 17.9688 38.0723 17.8906L38.1638 17.5906ZM40.3164 16.9112C40.3164 17.3937 40.5908 17.7457 40.9827 17.7457C41.3616 17.7457 41.649 17.3937 41.649 16.8981C41.649 16.533 41.4661 16.0635 40.9958 16.0635C40.5254 16.0635 40.3164 16.4939 40.3164 16.9112ZM42.054 16.8851C42.054 17.6936 41.4922 18.0457 40.9696 18.0457C40.3817 18.0457 39.9245 17.6153 39.9245 16.9242C39.9245 16.1939 40.4079 15.7636 41.0088 15.7636C41.6229 15.7636 42.054 16.22 42.054 16.8851ZM42.6154 16.4983C42.6154 16.2375 42.6154 16.0158 42.6023 15.8202L42.9551 15.8202L42.9681 16.2506L42.9812 16.2506C43.0857 15.9637 43.3209 15.7681 43.5822 15.7681C43.6214 15.7681 43.6605 15.7681 43.6997 15.7811L43.6997 16.1593C43.6605 16.1463 43.6214 16.1463 43.5691 16.1463C43.2947 16.1463 43.0857 16.3549 43.0334 16.6548C43.0204 16.707 43.0204 16.7722 43.0204 16.8374L43.0204 17.998L42.6284 17.998L42.6284 16.4983L42.6154 16.4983ZM46.7484 17.9177C46.6439 17.9698 46.4087 18.0481 46.1213 18.0481C45.455 18.0481 45.0369 17.6047 45.0369 16.9397C45.0369 16.2616 45.4942 15.7791 46.2128 15.7791C46.4479 15.7791 46.657 15.8313 46.7615 15.8965L46.67 16.2095C46.5786 16.1573 46.4218 16.1051 46.2128 16.1051C45.7163 16.1051 45.4419 16.4703 45.4419 16.9267C45.4419 17.4353 45.7686 17.7483 46.1997 17.7483C46.4218 17.7483 46.5786 17.683 46.6831 17.6439L46.7484 17.9177ZM47.4936 16.9112C47.4936 17.3937 47.768 17.7458 48.1599 17.7458C48.5388 17.7458 48.8262 17.3937 48.8262 16.8981C48.8262 16.533 48.6433 16.0635 48.173 16.0635C47.6896 16.0635 47.4936 16.4939 47.4936 16.9112ZM49.2312 16.8851C49.2312 17.6936 48.6694 18.0457 48.1469 18.0457C47.5589 18.0457 47.1017 17.6153 47.1017 16.9242C47.1017 16.1939 47.5851 15.7636 48.1861 15.7636C48.8001 15.7636 49.2312 16.22 49.2312 16.8851ZM49.7927 16.4126C49.7927 16.1909 49.7927 16.0083 49.7796 15.8258L50.1324 15.8258L50.1454 16.1648L50.1585 16.1648C50.2761 15.9562 50.4851 15.7606 50.8509 15.7606C51.1514 15.7606 51.3735 15.9431 51.465 16.2039L51.478 16.2039C51.5434 16.0866 51.6348 15.9823 51.7263 15.9171C51.8569 15.8127 52.0006 15.7606 52.2097 15.7606C52.4971 15.7606 52.9282 15.9562 52.9282 16.7125L52.9282 18.0035L52.5363 18.0035L52.5363 16.7647C52.5363 16.3474 52.3795 16.0866 52.066 16.0866C51.8439 16.0866 51.6609 16.2561 51.5956 16.4517C51.5826 16.5039 51.5695 16.5821 51.5695 16.6473L51.5695 17.9905L51.1776 17.9905L51.1776 16.6864C51.1776 16.3343 51.0208 16.0866 50.7203 16.0866C50.4721 16.0866 50.2892 16.2822 50.2238 16.4778C50.1977 16.53 50.1977 16.6082 50.1977 16.6734L50.1977 17.9905L49.8058 17.9905L49.8058 16.4126L49.7927 16.4126ZM54.0227 17.1102C54.0227 17.1754 54.0358 17.2276 54.0358 17.2667C54.1142 17.5405 54.3494 17.7362 54.6368 17.7362C55.0548 17.7362 55.3031 17.3971 55.3031 16.8885C55.3031 16.4451 55.0679 16.08 54.6498 16.08C54.3755 16.08 54.1273 16.2756 54.0489 16.5755C54.0358 16.6277 54.0227 16.6799 54.0227 16.732L54.0227 17.1102ZM53.6308 16.5234C53.6308 16.2495 53.6177 16.0148 53.6177 15.8062L53.9705 15.8062L53.9835 16.1843L53.9966 16.1843C54.1534 15.9235 54.4147 15.754 54.7805 15.754C55.3031 15.754 55.7081 16.1974 55.7081 16.8624C55.7081 17.6449 55.2247 18.0361 54.7152 18.0361C54.4277 18.0361 54.1664 17.9057 54.0358 17.697L54.0227 17.697L54.0227 18.8837L53.6308 18.8837L53.6308 16.5234ZM57.4126 16.8892C56.9814 16.8762 56.485 16.9545 56.485 17.3848C56.485 17.6456 56.6548 17.763 56.8638 17.763C57.1513 17.763 57.3342 17.5804 57.3864 17.3978C57.3995 17.3587 57.4126 17.3065 57.4126 17.2674L57.4126 16.8892ZM57.4779 17.9977L57.4518 17.7238L57.4387 17.7238C57.3211 17.8934 57.0859 18.0499 56.7724 18.0499C56.3282 18.0499 56.1061 17.7369 56.1061 17.4239C56.1061 16.9023 56.5764 16.6024 57.4256 16.6154L57.4256 16.5763C57.4256 16.3937 57.3734 16.0677 56.9292 16.0677C56.7201 16.0677 56.5111 16.1329 56.3543 16.2242L56.2629 15.9634C56.4458 15.846 56.7071 15.7678 56.9814 15.7678C57.6477 15.7678 57.8176 16.2242 57.8176 16.6676L57.8176 17.4891C57.8176 17.6847 57.8306 17.8673 57.8568 18.0107C57.8306 17.9977 57.4779 17.9977 57.4779 17.9977ZM58.5 16.4126C58.5 16.1909 58.5 16.0083 58.4869 15.8258L58.8396 15.8258L58.8658 16.1909L58.8788 16.1909C58.9834 15.9823 59.2446 15.7866 59.5974 15.7866C59.8979 15.7866 60.3682 15.9692 60.3682 16.7125L60.3682 18.0166L59.9763 18.0166L59.9763 16.7516C59.9763 16.3996 59.8456 16.1127 59.4667 16.1127C59.2055 16.1127 58.9964 16.2952 58.9311 16.5169C58.918 16.5691 58.905 16.6343 58.905 16.6995L58.905 18.0166L58.513 18.0166L58.513 16.4126L58.5 16.4126ZM61.1653 15.8188L61.6487 17.1098C61.7009 17.2532 61.7532 17.4228 61.7924 17.5532L61.8054 17.5532C61.8446 17.4228 61.8969 17.2532 61.9491 17.0968L62.3803 15.8188L62.7983 15.8188L62.1974 17.3706C61.9099 18.1139 61.714 18.5051 61.4527 18.7399C61.3126 18.8611 61.1476 18.9501 60.9693 19.0007L60.8648 18.6616C60.9693 18.6355 61.0999 18.5703 61.2175 18.466C61.322 18.3747 61.4657 18.2313 61.5572 18.0226C61.5703 17.9835 61.5833 17.9444 61.5833 17.9313C61.5833 17.9053 61.5703 17.8792 61.5572 17.827L60.7472 15.8188L61.1653 15.8188Z" fill="white"/>
<path d="M7.76348 7.22082L8.44562 7.22082L8.44562 7.3834e-07L7.76348 6.78705e-07L7.76348 7.22082ZM10.138 0.190925L9.45582 0.0998845L9.45582 7.12302L10.138 6.99296L10.138 0.190925ZM6.75738 0.0893758L6.07524 0.180416L6.07524 6.96945L6.75738 7.0995L6.75738 0.0893758ZM7.30676 17.4308C7.333 16.9886 7.35923 16.2603 7.35923 16.0262C7.35923 15.7921 7.37235 15.7791 7.30676 15.0507C7.25429 14.3354 7.16246 14.0623 7.10999 13.7762C7.07064 13.49 6.97881 13.1519 6.83451 12.7227C6.70333 12.2935 6.58527 12.0594 6.40162 11.6432C6.21796 11.227 5.87689 10.6548 5.56206 10.0825C5.26034 9.52327 4.97175 8.85997 4.85368 8.20968C4.7225 7.46835 4.73562 6.60997 4.76186 6.12875C4.78809 5.64754 4.8668 4.42499 4.91927 3.78771C2.00706 4.91921 -6.62e-07 7.5724 -9.36018e-07 10.7068C-1.27598e-06 14.5955 3.16145 17.808 7.22805 18.1981C7.25429 18.2242 7.28053 17.873 7.30676 17.4308ZM8.89279 17.4308C8.86655 16.9886 8.84032 16.2603 8.84032 16.0262C8.84032 15.7921 8.8272 15.7791 8.89279 15.0507C8.94526 14.3354 9.03709 14.0623 9.08956 13.7762C9.12891 13.49 9.22074 13.1519 9.36504 12.7227C9.49622 12.2935 9.61428 12.0594 9.79793 11.6432C9.98159 11.227 10.3227 10.6548 10.6375 10.0825C10.9392 9.52327 11.2278 8.85997 11.3459 8.20968C11.477 7.46835 11.4639 6.60997 11.4377 6.12875C11.4115 5.64754 11.3327 4.42499 11.2803 3.78771C14.1925 4.91921 16.1996 7.5724 16.1996 10.7068C16.1996 14.5955 13.0381 17.808 8.9715 18.1981C8.94526 18.2242 8.91902 17.873 8.89279 17.4308Z" fill="white"/>
</svg>
