<svg width="148" height="20" viewBox="0 0 148 20" fill="none" xmlns="http://www.w3.org/2000/svg">
<path d="M15.6241 4.14097H8.90553C7.84729 4.14097 7.05565 5.01835 7.05565 6.0163V11.3606C7.05565 12.2882 7.70321 13.0635 8.5957 13.2108C8.73024 13.6615 9.14014 13.9994 9.65203 13.9994H10.3985C10.8627 13.9994 11.2953 13.6876 11.4458 13.2359H13.0826C13.2246 13.6741 13.6288 13.9994 14.1311 13.9994H14.8776C15.3506 13.9994 15.7909 13.6755 15.9332 13.2098C16.8034 13.061 17.474 12.2945 17.474 11.3606V6.0163C17.474 5.0083 16.6492 4.14097 15.6241 4.14097Z" stroke="white" stroke-width="1.46024"/>
<path d="M13.4317 1.13376H11.3101V3.02335H10.2493V1.13376C10.2493 0.519639 10.7134 0 11.3101 0H13.4317C14.0063 0 14.4926 0.519639 14.4926 1.13376V3.02335H13.4317V1.13376Z" fill="white"/>
<path d="M1 12.6016H4.87758" stroke="white" stroke-width="1.45409" stroke-linecap="round"/>
<path d="M3.90814 9.69531H4.87754" stroke="white" stroke-width="1.45409" stroke-linecap="round"/>
<path d="M22.8719 14V5.53983H26.5237C27.1516 5.53983 27.701 5.66376 28.1719 5.91162C28.6429 6.15947 29.0091 6.50785 29.2708 6.95674C29.5324 7.40564 29.6632 7.93027 29.6632 8.53063C29.6632 9.1365 29.5283 9.66113 29.2584 10.1045C28.9912 10.5479 28.6153 10.8894 28.1306 11.129C27.6487 11.3686 27.0855 11.4884 26.4411 11.4884H24.2599V9.70382H25.9784C26.2483 9.70382 26.4783 9.657 26.6683 9.56337C26.8611 9.46698 27.0084 9.33066 27.1103 9.1544C27.2149 8.97815 27.2673 8.77023 27.2673 8.53063C27.2673 8.28828 27.2149 8.08174 27.1103 7.91099C27.0084 7.73749 26.8611 7.6053 26.6683 7.51442C26.4783 7.42079 26.2483 7.37397 25.9784 7.37397H25.1687V14H22.8719ZM31.9961 14H29.5175L32.31 5.53983H35.4495L38.2421 14H35.7635L33.9128 7.86968H33.8467L31.9961 14ZM31.5334 10.6622H36.1931V12.3807H31.5334V10.6622ZM39.4059 14V5.53983H43.0576C43.6855 5.53983 44.2349 5.65412 44.7059 5.8827C45.1768 6.11128 45.5431 6.44038 45.8047 6.86999C46.0663 7.29961 46.1971 7.8146 46.1971 8.41497C46.1971 9.02084 46.0622 9.5317 45.7923 9.94755C45.5252 10.3634 45.1493 10.6773 44.6646 10.8894C44.1826 11.1015 43.6194 11.2075 42.975 11.2075H40.7939V9.42292H42.5123C42.7822 9.42292 43.0122 9.38987 43.2022 9.32377C43.395 9.25492 43.5423 9.14614 43.6442 8.99743C43.7489 8.84871 43.8012 8.65456 43.8012 8.41497C43.8012 8.17262 43.7489 7.97571 43.6442 7.82424C43.5423 7.67002 43.395 7.55711 43.2022 7.4855C43.0122 7.41115 42.7822 7.37397 42.5123 7.37397H41.7027V14H39.4059ZM44.363 10.1169L46.478 14H43.983L41.9175 10.1169H44.363ZM47.2938 7.39049V5.53983H54.6469V7.39049H52.1022V14H49.8385V7.39049H47.2938ZM58.1571 5.53983V14H55.8603V5.53983H58.1571ZM70.1594 8.71239H67.8295C67.813 8.51962 67.7689 8.34474 67.6973 8.18776C67.6285 8.03079 67.5321 7.89584 67.4082 7.78293C67.287 7.66727 67.1397 7.57914 66.9662 7.51855C66.7927 7.45521 66.5958 7.42354 66.3754 7.42354C65.9899 7.42354 65.6635 7.51717 65.3964 7.70444C65.132 7.89171 64.931 8.16022 64.7933 8.50998C64.6583 8.85973 64.5909 9.27971 64.5909 9.76992C64.5909 10.2877 64.6597 10.7214 64.7974 11.0712C64.9379 11.4182 65.1403 11.6798 65.4047 11.856C65.669 12.0295 65.9871 12.1163 66.3589 12.1163C66.571 12.1163 66.761 12.0901 66.929 12.0378C67.097 11.9827 67.2429 11.9042 67.3669 11.8023C67.4908 11.7004 67.5913 11.5779 67.6684 11.4347C67.7483 11.2887 67.802 11.1249 67.8295 10.9431L70.1594 10.9596C70.1318 11.3176 70.0313 11.6825 69.8578 12.0543C69.6843 12.4234 69.4378 12.7648 69.1184 13.0788C68.8017 13.39 68.4092 13.6406 67.9411 13.8306C67.4729 14.0207 66.929 14.1157 66.3093 14.1157C65.5327 14.1157 64.836 13.9491 64.2191 13.6158C63.605 13.2826 63.1189 12.7924 62.7609 12.1452C62.4056 11.498 62.228 10.7063 62.228 9.76992C62.228 8.82806 62.4097 8.03492 62.7733 7.39049C63.1368 6.74331 63.627 6.25448 64.2439 5.92401C64.8608 5.59078 65.5492 5.42416 66.3093 5.42416C66.8436 5.42416 67.3352 5.49714 67.7841 5.6431C68.233 5.78906 68.6268 6.0025 68.9655 6.2834C69.3043 6.56155 69.5769 6.90442 69.7835 7.312C69.99 7.71959 70.1153 8.18639 70.1594 8.71239ZM79.7462 9.76992C79.7462 10.7118 79.563 11.5063 79.1968 12.1535C78.8305 12.7979 78.3361 13.2867 77.7138 13.62C77.0914 13.9504 76.3974 14.1157 75.6318 14.1157C74.8607 14.1157 74.1639 13.9491 73.5415 13.6158C72.9219 13.2798 72.4289 12.7896 72.0626 12.1452C71.6991 11.498 71.5173 10.7063 71.5173 9.76992C71.5173 8.82806 71.6991 8.03492 72.0626 7.39049C72.4289 6.74331 72.9219 6.25448 73.5415 5.92401C74.1639 5.59078 74.8607 5.42416 75.6318 5.42416C76.3974 5.42416 77.0914 5.59078 77.7138 5.92401C78.3361 6.25448 78.8305 6.74331 79.1968 7.39049C79.563 8.03492 79.7462 8.82806 79.7462 9.76992ZM77.3833 9.76992C77.3833 9.26319 77.3158 8.83632 77.1809 8.48932C77.0487 8.13957 76.8518 7.87519 76.5901 7.69618C76.3313 7.51442 76.0118 7.42354 75.6318 7.42354C75.2517 7.42354 74.9309 7.51442 74.6693 7.69618C74.4104 7.87519 74.2135 8.13957 74.0785 8.48932C73.9463 8.83632 73.8802 9.26319 73.8802 9.76992C73.8802 10.2766 73.9463 10.7049 74.0785 11.0546C74.2135 11.4016 74.4104 11.666 74.6693 11.8478C74.9309 12.0268 75.2517 12.1163 75.6318 12.1163C76.0118 12.1163 76.3313 12.0268 76.5901 11.8478C76.8518 11.666 77.0487 11.4016 77.1809 11.0546C77.3158 10.7049 77.3833 10.2766 77.3833 9.76992ZM88.4779 5.53983V14H86.5611L83.5042 9.55511H83.4546V14H81.1578V5.53983H83.1076L86.115 9.9682H86.1811V5.53983H88.4779Z" fill="white"/>
<path d="M102.53 8.06938C102.309 7.52856 101.976 7.05986 101.606 6.62721C101.236 6.23062 100.755 5.90613 100.275 5.6898C99.7939 5.47348 99.2392 5.36532 98.6844 5.36532C98.3146 5.36532 97.9818 5.40137 97.686 5.50953C97.4271 5.6177 97.1682 5.6898 96.9463 5.79797C96.7245 5.94218 96.5026 6.05034 96.3177 6.23062L96.2437 6.30272V3.16602L94.0618 3.70683V14.2346H96.0588V13.2972L96.1328 13.3693C96.3177 13.5496 96.5395 13.6938 96.7984 13.838C97.0203 13.9822 97.2792 14.0904 97.612 14.1625C97.9078 14.2707 98.2776 14.3067 98.6475 14.3067C99.2022 14.3067 99.7569 14.1986 100.238 13.9822C100.755 13.7659 101.199 13.4414 101.569 13.0448C101.939 12.6482 102.272 12.1795 102.493 11.6027C102.715 11.0619 102.826 10.4489 102.826 9.79997C102.863 9.22311 102.752 8.61019 102.53 8.06938ZM100.053 11.6387C99.609 12.0714 99.0542 12.3238 98.3886 12.3238C97.7229 12.3238 97.1682 12.1074 96.7245 11.6387C96.2807 11.2061 96.0588 10.5932 96.0588 9.83603C96.0588 9.07889 96.2807 8.50202 96.7245 8.03332C97.1682 7.60067 97.7229 7.34829 98.3886 7.34829C99.0542 7.34829 99.609 7.56462 100.053 8.03332C100.497 8.46597 100.718 9.07889 100.718 9.83603C100.718 10.5932 100.46 11.2061 100.053 11.6387Z" fill="white"/>
<path d="M106.34 3.16602V14.2346H104.158V3.70683L106.34 3.16602Z" fill="white"/>
<path d="M110.407 3.12924C110.407 3.45373 110.296 3.74216 110.038 3.95848C109.779 4.21086 109.483 4.31902 109.187 4.31902C108.854 4.31902 108.558 4.21086 108.336 3.95848C108.078 3.7061 107.967 3.41767 107.967 3.12924C107.967 2.80475 108.078 2.51632 108.336 2.29999C108.595 2.04762 108.891 1.93945 109.187 1.93945C109.52 1.93945 109.816 2.04762 110.038 2.29999C110.296 2.51632 110.407 2.80475 110.407 3.12924Z" fill="white"/>
<path d="M110.223 5.47266H108.041V14.2699H110.223V5.47266Z" fill="white"/>
<path d="M120.207 9.07986V14.2356H118.026V9.3683C118.026 8.79143 117.841 8.28667 117.471 7.92613C117.101 7.56559 116.657 7.38532 116.066 7.38532C115.511 7.38532 115.03 7.56559 114.66 7.92613C114.29 8.28667 114.106 8.75538 114.106 9.3683V14.2356H111.924V5.47445H113.921V6.41186L113.995 6.33975C114.216 6.15948 114.475 6.01526 114.734 5.87105C114.956 5.76288 115.215 5.65472 115.511 5.54656C115.807 5.4384 116.176 5.40234 116.546 5.40234C117.064 5.40234 117.582 5.47445 118.026 5.65472C118.469 5.83499 118.839 6.08737 119.172 6.41186C119.505 6.73635 119.727 7.13294 119.912 7.56559C120.096 7.99824 120.207 8.503 120.207 9.07986Z" fill="white"/>
<path d="M129.564 14.2346H127.123L123.906 10.0884V14.2346H121.724V3.70683L123.906 3.16602V9.22311L126.753 5.47348H129.194L125.939 9.65575L129.564 14.2346Z" fill="white"/>
<path d="M137.515 8.10624C137.293 7.56543 136.96 7.09673 136.553 6.66408C136.146 6.23143 135.666 5.943 135.111 5.69062C134.556 5.47429 134.001 5.33008 133.373 5.33008C132.744 5.33008 132.189 5.43824 131.635 5.69062C131.08 5.90694 130.599 6.26748 130.192 6.66408C129.786 7.06068 129.453 7.56543 129.194 8.10624C128.972 8.64706 128.824 9.22392 128.824 9.83684C128.824 10.4498 128.935 11.0627 129.194 11.5674C129.416 12.1083 129.749 12.577 130.192 13.0096C130.599 13.4062 131.08 13.7307 131.635 13.9831C132.189 14.1994 132.744 14.3436 133.373 14.3436C133.965 14.3436 134.556 14.2354 135.111 13.9831C135.666 13.7667 136.146 13.4062 136.553 13.0096C136.96 12.613 137.293 12.1083 137.515 11.5674C137.737 11.0266 137.884 10.4498 137.884 9.83684C137.884 9.22392 137.774 8.64706 137.515 8.10624ZM135.037 11.6395C134.593 12.0722 134.038 12.3246 133.373 12.3246C132.707 12.3246 132.152 12.1083 131.709 11.6395C131.265 11.2069 131.043 10.594 131.043 9.83684C131.043 9.07971 131.265 8.50284 131.709 8.03414C132.152 7.60149 132.707 7.34911 133.373 7.34911C134.038 7.34911 134.593 7.56543 135.037 8.03414C135.481 8.46679 135.703 9.07971 135.703 9.83684C135.703 10.594 135.481 11.2069 135.037 11.6395Z" fill="white"/>
<path d="M147.425 8.10624C147.167 7.56543 146.834 7.09673 146.427 6.66408C146.02 6.26748 145.539 5.943 144.985 5.69062C144.43 5.47429 143.875 5.33008 143.247 5.33008C142.655 5.33008 142.063 5.43824 141.509 5.69062C140.954 5.90694 140.473 6.26748 140.066 6.66408C139.659 7.06068 139.327 7.56543 139.068 8.10624C138.846 8.64706 138.698 9.22392 138.698 9.83684C138.698 10.4498 138.809 11.0627 139.068 11.5674C139.327 12.1083 139.622 12.577 140.066 13.0096C140.473 13.4062 140.954 13.7307 141.509 13.9831C142.063 14.1994 142.618 14.3436 143.247 14.3436C143.838 14.3436 144.43 14.2354 144.985 13.9831C145.539 13.7667 146.02 13.4062 146.427 13.0096C146.834 12.613 147.167 12.1083 147.425 11.5674C147.647 11.0266 147.795 10.4498 147.795 9.83684C147.795 9.22392 147.684 8.64706 147.425 8.10624ZM144.948 11.6395C144.504 12.0722 143.949 12.3246 143.284 12.3246C142.618 12.3246 142.063 12.1083 141.619 11.6395C141.176 11.2069 140.954 10.594 140.954 9.83684C140.954 9.07971 141.176 8.50284 141.619 8.03414C142.063 7.60149 142.618 7.34911 143.284 7.34911C143.949 7.34911 144.504 7.56543 144.948 8.03414C145.392 8.46679 145.613 9.07971 145.613 9.83684C145.613 10.594 145.392 11.2069 144.948 11.6395Z" fill="white"/>
</svg>
