<svg width="188" height="63" viewBox="0 0 188 63" fill="none" xmlns="http://www.w3.org/2000/svg">
<mask id="path-1-outside-1_12062_181628" maskUnits="userSpaceOnUse" x="-0.0976562" y="0.40625" width="188" height="62" fill="black">
<rect fill="white" x="-0.0976562" y="0.40625" width="188" height="62"/>
<path d="M2.34697 6.21626V1.40625H25.0093V6.21626H16.5614V28.9998H10.7948V6.21626H2.34697ZM27.6229 28.9998V8.30465H33.1874V11.9155H33.403C33.7802 10.6311 34.4135 9.66097 35.3027 9.00527C36.192 8.34058 37.2159 8.00823 38.3746 8.00823C38.6621 8.00823 38.972 8.0262 39.3043 8.06212C39.6367 8.09805 39.9286 8.14746 40.1801 8.21033V13.3033C39.9106 13.2224 39.5379 13.1506 39.0618 13.0877C38.5857 13.0248 38.1501 12.9934 37.7549 12.9934C36.9105 12.9934 36.156 13.1775 35.4913 13.5458C34.8356 13.9051 34.3147 14.4081 33.9284 15.0548C33.5512 15.7016 33.3625 16.4471 33.3625 17.2914V28.9998H27.6229ZM49.5944 29.3906C48.274 29.3906 47.0973 29.1615 46.0643 28.7034C45.0314 28.2363 44.214 27.5492 43.6122 26.642C43.0193 25.7258 42.7229 24.585 42.7229 23.2197C42.7229 22.07 42.934 21.1044 43.3562 20.3229C43.7783 19.5415 44.3532 18.9127 45.0808 18.4367C45.8083 17.9606 46.6347 17.6013 47.5599 17.3588C48.494 17.1163 49.4731 16.9456 50.4971 16.8468C51.7007 16.721 52.6708 16.6043 53.4074 16.4965C54.1439 16.3797 54.6784 16.2091 55.0107 15.9845C55.343 15.7599 55.5092 15.4276 55.5092 14.9875V14.9066C55.5092 14.0533 55.2397 13.3931 54.7008 12.926C54.1709 12.459 53.4163 12.2254 52.4373 12.2254C51.4043 12.2254 50.5824 12.4545 49.9716 12.9126C49.3608 13.3617 48.9566 13.9276 48.759 14.6102L43.4505 14.1791C43.72 12.9215 44.2499 11.8347 45.0404 10.9185C45.8308 9.99332 46.8503 9.28371 48.0988 8.78969C49.3563 8.28668 50.8115 8.03518 52.4642 8.03518C53.614 8.03518 54.7143 8.16991 55.7652 8.43938C56.8251 8.70885 57.7638 9.12653 58.5812 9.69241C59.4075 10.2583 60.0587 10.9859 60.5348 11.8751C61.0109 12.7554 61.2489 13.8108 61.2489 15.0414V28.9998H55.8056V26.13H55.6439C55.3116 26.7767 54.867 27.3471 54.3101 27.8411C53.7532 28.3262 53.084 28.7079 52.3025 28.9864C51.5211 29.2558 50.6184 29.3906 49.5944 29.3906ZM51.2381 25.4294C52.0825 25.4294 52.828 25.2632 53.4747 24.9309C54.1214 24.5895 54.6289 24.1314 54.9972 23.5566C55.3655 22.9817 55.5496 22.3305 55.5496 21.6029V19.4068C55.37 19.5235 55.123 19.6313 54.8086 19.7301C54.5032 19.8199 54.1574 19.9053 53.7711 19.9861C53.3849 20.058 52.9987 20.1253 52.6124 20.1882C52.2262 20.2421 51.8759 20.2915 51.5615 20.3364C50.8878 20.4352 50.2995 20.5924 49.7965 20.808C49.2935 21.0236 48.9027 21.3155 48.6243 21.6838C48.3458 22.0431 48.2066 22.4922 48.2066 23.0311C48.2066 23.8126 48.4896 24.4099 49.0554 24.8231C49.6303 25.2273 50.3579 25.4294 51.2381 25.4294ZM85.393 8.30465L78.1578 28.9998H71.6905L64.4553 8.30465H70.5183L74.8164 23.1119H75.0319L79.3165 8.30465H85.393ZM98.2329 29.404C96.1041 29.404 94.2717 28.9729 92.7358 28.1106C91.2088 27.2393 90.0321 26.0087 89.2057 24.4189C88.3794 22.82 87.9662 20.9292 87.9662 18.7466C87.9662 16.6178 88.3794 14.7494 89.2057 13.1416C90.0321 11.5338 91.1953 10.2807 92.6953 9.38252C94.2044 8.48429 95.9739 8.03518 98.0039 8.03518C99.3692 8.03518 100.64 8.25524 101.817 8.69538C103.003 9.12653 104.035 9.77774 104.916 10.649C105.805 11.5203 106.497 12.6161 106.991 13.9365C107.485 15.248 107.732 16.7839 107.732 18.5445V20.1208H90.2567V16.5639H102.329C102.329 15.7375 102.149 15.0054 101.79 14.3677C101.431 13.7299 100.932 13.2314 100.294 12.8721C99.6656 12.5039 98.9335 12.3197 98.0982 12.3197C97.2269 12.3197 96.4544 12.5218 95.7808 12.926C95.1161 13.3213 94.5951 13.8557 94.2178 14.5294C93.8406 15.1941 93.6475 15.9351 93.6385 16.7525V20.1343C93.6385 21.1583 93.8271 22.0431 94.2044 22.7886C94.5906 23.5341 95.134 24.109 95.8346 24.5132C96.5353 24.9174 97.3661 25.1195 98.3272 25.1195C98.965 25.1195 99.5488 25.0297 100.079 24.85C100.609 24.6704 101.062 24.4009 101.44 24.0416C101.817 23.6823 102.104 23.2422 102.302 22.7212L107.61 23.0715C107.341 24.347 106.789 25.4608 105.953 26.4129C105.127 27.3561 104.058 28.0926 102.747 28.6226C101.444 29.1436 99.9396 29.404 98.2329 29.404ZM118.355 1.40625V28.9998H112.616V1.40625H118.355ZM8.15402 60.9998H1.90234L11.4281 33.4062H18.9462L28.4585 60.9998H22.2068L15.2949 39.7118H15.0794L8.15402 60.9998ZM7.76329 50.1537H22.5302V54.7077H7.76329V50.1537ZM49.5475 46.206L44.2929 46.5294C44.203 46.0803 44.0099 45.6761 43.7135 45.3168C43.4171 44.9485 43.0263 44.6566 42.5413 44.441C42.0652 44.2164 41.4949 44.1042 40.8302 44.1042C39.9409 44.1042 39.1909 44.2928 38.5801 44.67C37.9693 45.0383 37.6639 45.5323 37.6639 46.1521C37.6639 46.6461 37.8615 47.0638 38.2568 47.4051C38.652 47.7465 39.3301 48.0204 40.2912 48.227L44.0369 48.9815C46.0489 49.3947 47.5489 50.0594 48.537 50.9756C49.525 51.8918 50.0191 53.0954 50.0191 54.5865C50.0191 55.9428 49.6193 57.133 48.8199 58.1569C48.0295 59.1809 46.9426 59.9803 45.5594 60.5552C44.1851 61.1211 42.5997 61.404 40.8032 61.404C38.0636 61.404 35.8809 60.8337 34.2551 59.6929C32.6383 58.5432 31.6907 56.9803 31.4123 55.0042L37.0576 54.7077C37.2283 55.5431 37.6415 56.1808 38.2972 56.621C38.9529 57.0521 39.7927 57.2677 40.8167 57.2677C41.8227 57.2677 42.6311 57.0746 43.2419 56.6883C43.8617 56.2931 44.1761 55.7856 44.1851 55.1658C44.1761 54.6449 43.956 54.2182 43.5249 53.8859C43.0937 53.5445 42.429 53.2841 41.5308 53.1044L37.9469 52.3903C35.9259 51.9861 34.4213 51.2855 33.4333 50.2885C32.4542 49.2914 31.9647 48.0204 31.9647 46.4755C31.9647 45.1461 32.324 44.0009 33.0425 43.0398C33.7701 42.0786 34.7896 41.3376 36.101 40.8166C37.4214 40.2957 38.9664 40.0352 40.7359 40.0352C43.3497 40.0352 45.4067 40.5876 46.9067 41.6924C48.4157 42.7972 49.296 44.3018 49.5475 46.206ZM71.9906 46.206L66.736 46.5294C66.6461 46.0803 66.453 45.6761 66.1566 45.3168C65.8602 44.9485 65.4694 44.6566 64.9844 44.441C64.5083 44.2164 63.938 44.1042 63.2733 44.1042C62.384 44.1042 61.634 44.2928 61.0232 44.67C60.4124 45.0383 60.107 45.5323 60.107 46.1521C60.107 46.6461 60.3046 47.0638 60.6999 47.4051C61.0951 47.7465 61.7732 48.0204 62.7343 48.227L66.48 48.9815C68.492 49.3947 69.992 50.0594 70.9801 50.9756C71.9681 51.8918 72.4622 53.0954 72.4622 54.5865C72.4622 55.9428 72.0624 57.133 71.263 58.1569C70.4726 59.1809 69.3857 59.9803 68.0025 60.5552C66.6282 61.1211 65.0428 61.404 63.2463 61.404C60.5067 61.404 58.324 60.8337 56.6982 59.6929C55.0814 58.5432 54.1338 56.9803 53.8554 55.0042L59.5007 54.7077C59.6714 55.5431 60.0846 56.1808 60.7403 56.621C61.396 57.0521 62.2358 57.2677 63.2598 57.2677C64.2658 57.2677 65.0742 57.0746 65.685 56.6883C66.3048 56.2931 66.6192 55.7856 66.6282 55.1658C66.6192 54.6449 66.3991 54.2182 65.968 53.8859C65.5368 53.5445 64.8721 53.2841 63.9739 53.1044L60.39 52.3903C58.369 51.9861 56.8644 51.2855 55.8764 50.2885C54.8973 49.2914 54.4078 48.0204 54.4078 46.4755C54.4078 45.1461 54.7671 44.0009 55.4856 43.0398C56.2132 42.0786 57.2327 41.3376 58.5441 40.8166C59.8645 40.2957 61.4095 40.0352 63.179 40.0352C65.7928 40.0352 67.8498 40.5876 69.3498 41.6924C70.8588 42.7972 71.7391 44.3018 71.9906 46.206ZM77.2146 60.9998V40.3046H82.9543V60.9998H77.2146ZM80.098 37.6369C79.2446 37.6369 78.5126 37.354 77.9018 36.7881C77.3 36.2132 76.9991 35.5261 76.9991 34.7266C76.9991 33.9362 77.3 33.258 77.9018 32.6922C78.5126 32.1173 79.2446 31.8299 80.098 31.8299C80.9513 31.8299 81.6788 32.1173 82.2806 32.6922C82.8914 33.258 83.1968 33.9362 83.1968 34.7266C83.1968 35.5261 82.8914 36.2132 82.2806 36.7881C81.6788 37.354 80.9513 37.6369 80.098 37.6369ZM105.909 46.206L100.655 46.5294C100.565 46.0803 100.372 45.6761 100.075 45.3168C99.779 44.9485 99.3883 44.6566 98.9032 44.441C98.4272 44.2164 97.8568 44.1042 97.1921 44.1042C96.3028 44.1042 95.5528 44.2928 94.942 44.67C94.3312 45.0383 94.0258 45.5323 94.0258 46.1521C94.0258 46.6461 94.2234 47.0638 94.6187 47.4051C95.0139 47.7465 95.6921 48.0204 96.6532 48.227L100.399 48.9815C102.411 49.3947 103.911 50.0594 104.899 50.9756C105.887 51.8918 106.381 53.0954 106.381 54.5865C106.381 55.9428 105.981 57.133 105.182 58.1569C104.391 59.1809 103.305 59.9803 101.921 60.5552C100.547 61.1211 98.9616 61.404 97.1651 61.404C94.4255 61.404 92.2429 60.8337 90.6171 59.6929C89.0002 58.5432 88.0526 56.9803 87.7742 55.0042L93.4195 54.7077C93.5902 55.5431 94.0034 56.1808 94.6591 56.621C95.3148 57.0521 96.1546 57.2677 97.1786 57.2677C98.1846 57.2677 98.993 57.0746 99.6038 56.6883C100.224 56.2931 100.538 55.7856 100.547 55.1658C100.538 54.6449 100.318 54.2182 99.8868 53.8859C99.4556 53.5445 98.7909 53.2841 97.8927 53.1044L94.3088 52.3903C92.2878 51.9861 90.7832 51.2855 89.7952 50.2885C88.8161 49.2914 88.3266 48.0204 88.3266 46.4755C88.3266 45.1461 88.6859 44.0009 89.4044 43.0398C90.132 42.0786 91.1515 41.3376 92.4629 40.8166C93.7833 40.2957 95.3283 40.0352 97.0978 40.0352C99.7116 40.0352 101.769 40.5876 103.269 41.6924C104.778 42.7972 105.658 44.3018 105.909 46.206ZM122.141 40.3046V44.6161H109.678V40.3046H122.141ZM112.508 35.3464H118.247V54.6404C118.247 55.1703 118.328 55.5835 118.49 55.8799C118.652 56.1674 118.876 56.3695 119.164 56.4862C119.46 56.603 119.801 56.6614 120.188 56.6614C120.457 56.6614 120.727 56.6389 120.996 56.594C121.265 56.5401 121.472 56.4997 121.616 56.4728L122.519 60.7438C122.231 60.8337 121.827 60.937 121.306 61.0537C120.785 61.1795 120.152 61.2558 119.406 61.2828C118.023 61.3367 116.81 61.1525 115.768 60.7304C114.735 60.3082 113.931 59.6525 113.357 58.7632C112.782 57.874 112.499 56.7512 112.508 55.3949V35.3464ZM132.92 61.3906C131.599 61.3906 130.423 61.1615 129.39 60.7034C128.357 60.2363 127.539 59.5492 126.938 58.642C126.345 57.7258 126.048 56.585 126.048 55.2197C126.048 54.07 126.259 53.1044 126.682 52.3229C127.104 51.5415 127.679 50.9127 128.406 50.4367C129.134 49.9606 129.96 49.6013 130.885 49.3588C131.819 49.1163 132.798 48.9456 133.822 48.8468C135.026 48.721 135.996 48.6043 136.733 48.4965C137.469 48.3797 138.004 48.2091 138.336 47.9845C138.668 47.7599 138.835 47.4276 138.835 46.9875V46.9066C138.835 46.0533 138.565 45.3931 138.026 44.926C137.496 44.459 136.742 44.2254 135.763 44.2254C134.73 44.2254 133.908 44.4545 133.297 44.9126C132.686 45.3617 132.282 45.9276 132.084 46.6102L126.776 46.1791C127.045 44.9215 127.575 43.8347 128.366 42.9185C129.156 41.9933 130.176 41.2837 131.424 40.7897C132.682 40.2867 134.137 40.0352 135.79 40.0352C136.939 40.0352 138.04 40.1699 139.091 40.4394C140.15 40.7088 141.089 41.1265 141.907 41.6924C142.733 42.2583 143.384 42.9859 143.86 43.8751C144.336 44.7554 144.574 45.8108 144.574 47.0414V60.9998H139.131V58.13H138.969C138.637 58.7767 138.192 59.3471 137.635 59.8411C137.079 60.3262 136.409 60.7079 135.628 60.9864C134.846 61.2558 133.944 61.3906 132.92 61.3906ZM134.563 57.4294C135.408 57.4294 136.153 57.2632 136.8 56.9309C137.447 56.5895 137.954 56.1314 138.323 55.5566C138.691 54.9817 138.875 54.3305 138.875 53.6029V51.4068C138.695 51.5235 138.448 51.6313 138.134 51.7301C137.829 51.8199 137.483 51.9053 137.096 51.9861C136.71 52.058 136.324 52.1253 135.938 52.1882C135.552 52.2421 135.201 52.2915 134.887 52.3364C134.213 52.4352 133.625 52.5924 133.122 52.808C132.619 53.0236 132.228 53.3155 131.95 53.6838C131.671 54.0431 131.532 54.4922 131.532 55.0311C131.532 55.8126 131.815 56.4099 132.381 56.8231C132.956 57.2273 133.683 57.4294 134.563 57.4294ZM155.905 49.0354V60.9998H150.165V40.3046H155.636V43.9559H155.878C156.336 42.7523 157.104 41.8002 158.182 41.0996C159.26 40.39 160.567 40.0352 162.103 40.0352C163.54 40.0352 164.793 40.3496 165.862 40.9783C166.931 41.6071 167.762 42.5053 168.355 43.673C168.947 44.8317 169.244 46.215 169.244 47.8228V60.9998H163.504V48.8468C163.513 47.5803 163.19 46.5922 162.534 45.8826C161.878 45.1641 160.976 44.8048 159.826 44.8048C159.053 44.8048 158.371 44.9709 157.778 45.3033C157.194 45.6356 156.736 46.1207 156.404 46.7584C156.08 47.3872 155.914 48.1462 155.905 49.0354ZM185.914 40.3046V44.6161H173.451V40.3046H185.914ZM176.28 35.3464H182.02V54.6404C182.02 55.1703 182.101 55.5835 182.262 55.8799C182.424 56.1674 182.648 56.3695 182.936 56.4862C183.232 56.603 183.574 56.6614 183.96 56.6614C184.229 56.6614 184.499 56.6389 184.768 56.594C185.038 56.5401 185.244 56.4997 185.388 56.4728L186.291 60.7438C186.003 60.8337 185.599 60.937 185.078 61.0537C184.557 61.1795 183.924 61.2558 183.178 61.2828C181.795 61.3367 180.583 61.1525 179.541 60.7304C178.508 60.3082 177.704 59.6525 177.129 58.7632C176.554 57.874 176.271 56.7512 176.28 55.3949V35.3464Z"/>
</mask>
<path d="M2.34697 6.21626V1.40625H25.0093V6.21626H16.5614V28.9998H10.7948V6.21626H2.34697ZM27.6229 28.9998V8.30465H33.1874V11.9155H33.403C33.7802 10.6311 34.4135 9.66097 35.3027 9.00527C36.192 8.34058 37.2159 8.00823 38.3746 8.00823C38.6621 8.00823 38.972 8.0262 39.3043 8.06212C39.6367 8.09805 39.9286 8.14746 40.1801 8.21033V13.3033C39.9106 13.2224 39.5379 13.1506 39.0618 13.0877C38.5857 13.0248 38.1501 12.9934 37.7549 12.9934C36.9105 12.9934 36.156 13.1775 35.4913 13.5458C34.8356 13.9051 34.3147 14.4081 33.9284 15.0548C33.5512 15.7016 33.3625 16.4471 33.3625 17.2914V28.9998H27.6229ZM49.5944 29.3906C48.274 29.3906 47.0973 29.1615 46.0643 28.7034C45.0314 28.2363 44.214 27.5492 43.6122 26.642C43.0193 25.7258 42.7229 24.585 42.7229 23.2197C42.7229 22.07 42.934 21.1044 43.3562 20.3229C43.7783 19.5415 44.3532 18.9127 45.0808 18.4367C45.8083 17.9606 46.6347 17.6013 47.5599 17.3588C48.494 17.1163 49.4731 16.9456 50.4971 16.8468C51.7007 16.721 52.6708 16.6043 53.4074 16.4965C54.1439 16.3797 54.6784 16.2091 55.0107 15.9845C55.343 15.7599 55.5092 15.4276 55.5092 14.9875V14.9066C55.5092 14.0533 55.2397 13.3931 54.7008 12.926C54.1709 12.459 53.4163 12.2254 52.4373 12.2254C51.4043 12.2254 50.5824 12.4545 49.9716 12.9126C49.3608 13.3617 48.9566 13.9276 48.759 14.6102L43.4505 14.1791C43.72 12.9215 44.2499 11.8347 45.0404 10.9185C45.8308 9.99332 46.8503 9.28371 48.0988 8.78969C49.3563 8.28668 50.8115 8.03518 52.4642 8.03518C53.614 8.03518 54.7143 8.16991 55.7652 8.43938C56.8251 8.70885 57.7638 9.12653 58.5812 9.69241C59.4075 10.2583 60.0587 10.9859 60.5348 11.8751C61.0109 12.7554 61.2489 13.8108 61.2489 15.0414V28.9998H55.8056V26.13H55.6439C55.3116 26.7767 54.867 27.3471 54.3101 27.8411C53.7532 28.3262 53.084 28.7079 52.3025 28.9864C51.5211 29.2558 50.6184 29.3906 49.5944 29.3906ZM51.2381 25.4294C52.0825 25.4294 52.828 25.2632 53.4747 24.9309C54.1214 24.5895 54.6289 24.1314 54.9972 23.5566C55.3655 22.9817 55.5496 22.3305 55.5496 21.6029V19.4068C55.37 19.5235 55.123 19.6313 54.8086 19.7301C54.5032 19.8199 54.1574 19.9053 53.7711 19.9861C53.3849 20.058 52.9987 20.1253 52.6124 20.1882C52.2262 20.2421 51.8759 20.2915 51.5615 20.3364C50.8878 20.4352 50.2995 20.5924 49.7965 20.808C49.2935 21.0236 48.9027 21.3155 48.6243 21.6838C48.3458 22.0431 48.2066 22.4922 48.2066 23.0311C48.2066 23.8126 48.4896 24.4099 49.0554 24.8231C49.6303 25.2273 50.3579 25.4294 51.2381 25.4294ZM85.393 8.30465L78.1578 28.9998H71.6905L64.4553 8.30465H70.5183L74.8164 23.1119H75.0319L79.3165 8.30465H85.393ZM98.2329 29.404C96.1041 29.404 94.2717 28.9729 92.7358 28.1106C91.2088 27.2393 90.0321 26.0087 89.2057 24.4189C88.3794 22.82 87.9662 20.9292 87.9662 18.7466C87.9662 16.6178 88.3794 14.7494 89.2057 13.1416C90.0321 11.5338 91.1953 10.2807 92.6953 9.38252C94.2044 8.48429 95.9739 8.03518 98.0039 8.03518C99.3692 8.03518 100.64 8.25524 101.817 8.69538C103.003 9.12653 104.035 9.77774 104.916 10.649C105.805 11.5203 106.497 12.6161 106.991 13.9365C107.485 15.248 107.732 16.7839 107.732 18.5445V20.1208H90.2567V16.5639H102.329C102.329 15.7375 102.149 15.0054 101.79 14.3677C101.431 13.7299 100.932 13.2314 100.294 12.8721C99.6656 12.5039 98.9335 12.3197 98.0982 12.3197C97.2269 12.3197 96.4544 12.5218 95.7808 12.926C95.1161 13.3213 94.5951 13.8557 94.2178 14.5294C93.8406 15.1941 93.6475 15.9351 93.6385 16.7525V20.1343C93.6385 21.1583 93.8271 22.0431 94.2044 22.7886C94.5906 23.5341 95.134 24.109 95.8346 24.5132C96.5353 24.9174 97.3661 25.1195 98.3272 25.1195C98.965 25.1195 99.5488 25.0297 100.079 24.85C100.609 24.6704 101.062 24.4009 101.44 24.0416C101.817 23.6823 102.104 23.2422 102.302 22.7212L107.61 23.0715C107.341 24.347 106.789 25.4608 105.953 26.4129C105.127 27.3561 104.058 28.0926 102.747 28.6226C101.444 29.1436 99.9396 29.404 98.2329 29.404ZM118.355 1.40625V28.9998H112.616V1.40625H118.355ZM8.15402 60.9998H1.90234L11.4281 33.4062H18.9462L28.4585 60.9998H22.2068L15.2949 39.7118H15.0794L8.15402 60.9998ZM7.76329 50.1537H22.5302V54.7077H7.76329V50.1537ZM49.5475 46.206L44.2929 46.5294C44.203 46.0803 44.0099 45.6761 43.7135 45.3168C43.4171 44.9485 43.0263 44.6566 42.5413 44.441C42.0652 44.2164 41.4949 44.1042 40.8302 44.1042C39.9409 44.1042 39.1909 44.2928 38.5801 44.67C37.9693 45.0383 37.6639 45.5323 37.6639 46.1521C37.6639 46.6461 37.8615 47.0638 38.2568 47.4051C38.652 47.7465 39.3301 48.0204 40.2912 48.227L44.0369 48.9815C46.0489 49.3947 47.5489 50.0594 48.537 50.9756C49.525 51.8918 50.0191 53.0954 50.0191 54.5865C50.0191 55.9428 49.6193 57.133 48.8199 58.1569C48.0295 59.1809 46.9426 59.9803 45.5594 60.5552C44.1851 61.1211 42.5997 61.404 40.8032 61.404C38.0636 61.404 35.8809 60.8337 34.2551 59.6929C32.6383 58.5432 31.6907 56.9803 31.4123 55.0042L37.0576 54.7077C37.2283 55.5431 37.6415 56.1808 38.2972 56.621C38.9529 57.0521 39.7927 57.2677 40.8167 57.2677C41.8227 57.2677 42.6311 57.0746 43.2419 56.6883C43.8617 56.2931 44.1761 55.7856 44.1851 55.1658C44.1761 54.6449 43.956 54.2182 43.5249 53.8859C43.0937 53.5445 42.429 53.2841 41.5308 53.1044L37.9469 52.3903C35.9259 51.9861 34.4213 51.2855 33.4333 50.2885C32.4542 49.2914 31.9647 48.0204 31.9647 46.4755C31.9647 45.1461 32.324 44.0009 33.0425 43.0398C33.7701 42.0786 34.7896 41.3376 36.101 40.8166C37.4214 40.2957 38.9664 40.0352 40.7359 40.0352C43.3497 40.0352 45.4067 40.5876 46.9067 41.6924C48.4157 42.7972 49.296 44.3018 49.5475 46.206ZM71.9906 46.206L66.736 46.5294C66.6461 46.0803 66.453 45.6761 66.1566 45.3168C65.8602 44.9485 65.4694 44.6566 64.9844 44.441C64.5083 44.2164 63.938 44.1042 63.2733 44.1042C62.384 44.1042 61.634 44.2928 61.0232 44.67C60.4124 45.0383 60.107 45.5323 60.107 46.1521C60.107 46.6461 60.3046 47.0638 60.6999 47.4051C61.0951 47.7465 61.7732 48.0204 62.7343 48.227L66.48 48.9815C68.492 49.3947 69.992 50.0594 70.9801 50.9756C71.9681 51.8918 72.4622 53.0954 72.4622 54.5865C72.4622 55.9428 72.0624 57.133 71.263 58.1569C70.4726 59.1809 69.3857 59.9803 68.0025 60.5552C66.6282 61.1211 65.0428 61.404 63.2463 61.404C60.5067 61.404 58.324 60.8337 56.6982 59.6929C55.0814 58.5432 54.1338 56.9803 53.8554 55.0042L59.5007 54.7077C59.6714 55.5431 60.0846 56.1808 60.7403 56.621C61.396 57.0521 62.2358 57.2677 63.2598 57.2677C64.2658 57.2677 65.0742 57.0746 65.685 56.6883C66.3048 56.2931 66.6192 55.7856 66.6282 55.1658C66.6192 54.6449 66.3991 54.2182 65.968 53.8859C65.5368 53.5445 64.8721 53.2841 63.9739 53.1044L60.39 52.3903C58.369 51.9861 56.8644 51.2855 55.8764 50.2885C54.8973 49.2914 54.4078 48.0204 54.4078 46.4755C54.4078 45.1461 54.7671 44.0009 55.4856 43.0398C56.2132 42.0786 57.2327 41.3376 58.5441 40.8166C59.8645 40.2957 61.4095 40.0352 63.179 40.0352C65.7928 40.0352 67.8498 40.5876 69.3498 41.6924C70.8588 42.7972 71.7391 44.3018 71.9906 46.206ZM77.2146 60.9998V40.3046H82.9543V60.9998H77.2146ZM80.098 37.6369C79.2446 37.6369 78.5126 37.354 77.9018 36.7881C77.3 36.2132 76.9991 35.5261 76.9991 34.7266C76.9991 33.9362 77.3 33.258 77.9018 32.6922C78.5126 32.1173 79.2446 31.8299 80.098 31.8299C80.9513 31.8299 81.6788 32.1173 82.2806 32.6922C82.8914 33.258 83.1968 33.9362 83.1968 34.7266C83.1968 35.5261 82.8914 36.2132 82.2806 36.7881C81.6788 37.354 80.9513 37.6369 80.098 37.6369ZM105.909 46.206L100.655 46.5294C100.565 46.0803 100.372 45.6761 100.075 45.3168C99.779 44.9485 99.3883 44.6566 98.9032 44.441C98.4272 44.2164 97.8568 44.1042 97.1921 44.1042C96.3028 44.1042 95.5528 44.2928 94.942 44.67C94.3312 45.0383 94.0258 45.5323 94.0258 46.1521C94.0258 46.6461 94.2234 47.0638 94.6187 47.4051C95.0139 47.7465 95.6921 48.0204 96.6532 48.227L100.399 48.9815C102.411 49.3947 103.911 50.0594 104.899 50.9756C105.887 51.8918 106.381 53.0954 106.381 54.5865C106.381 55.9428 105.981 57.133 105.182 58.1569C104.391 59.1809 103.305 59.9803 101.921 60.5552C100.547 61.1211 98.9616 61.404 97.1651 61.404C94.4255 61.404 92.2429 60.8337 90.6171 59.6929C89.0002 58.5432 88.0526 56.9803 87.7742 55.0042L93.4195 54.7077C93.5902 55.5431 94.0034 56.1808 94.6591 56.621C95.3148 57.0521 96.1546 57.2677 97.1786 57.2677C98.1846 57.2677 98.993 57.0746 99.6038 56.6883C100.224 56.2931 100.538 55.7856 100.547 55.1658C100.538 54.6449 100.318 54.2182 99.8868 53.8859C99.4556 53.5445 98.7909 53.2841 97.8927 53.1044L94.3088 52.3903C92.2878 51.9861 90.7832 51.2855 89.7952 50.2885C88.8161 49.2914 88.3266 48.0204 88.3266 46.4755C88.3266 45.1461 88.6859 44.0009 89.4044 43.0398C90.132 42.0786 91.1515 41.3376 92.4629 40.8166C93.7833 40.2957 95.3283 40.0352 97.0978 40.0352C99.7116 40.0352 101.769 40.5876 103.269 41.6924C104.778 42.7972 105.658 44.3018 105.909 46.206ZM122.141 40.3046V44.6161H109.678V40.3046H122.141ZM112.508 35.3464H118.247V54.6404C118.247 55.1703 118.328 55.5835 118.49 55.8799C118.652 56.1674 118.876 56.3695 119.164 56.4862C119.46 56.603 119.801 56.6614 120.188 56.6614C120.457 56.6614 120.727 56.6389 120.996 56.594C121.265 56.5401 121.472 56.4997 121.616 56.4728L122.519 60.7438C122.231 60.8337 121.827 60.937 121.306 61.0537C120.785 61.1795 120.152 61.2558 119.406 61.2828C118.023 61.3367 116.81 61.1525 115.768 60.7304C114.735 60.3082 113.931 59.6525 113.357 58.7632C112.782 57.874 112.499 56.7512 112.508 55.3949V35.3464ZM132.92 61.3906C131.599 61.3906 130.423 61.1615 129.39 60.7034C128.357 60.2363 127.539 59.5492 126.938 58.642C126.345 57.7258 126.048 56.585 126.048 55.2197C126.048 54.07 126.259 53.1044 126.682 52.3229C127.104 51.5415 127.679 50.9127 128.406 50.4367C129.134 49.9606 129.96 49.6013 130.885 49.3588C131.819 49.1163 132.798 48.9456 133.822 48.8468C135.026 48.721 135.996 48.6043 136.733 48.4965C137.469 48.3797 138.004 48.2091 138.336 47.9845C138.668 47.7599 138.835 47.4276 138.835 46.9875V46.9066C138.835 46.0533 138.565 45.3931 138.026 44.926C137.496 44.459 136.742 44.2254 135.763 44.2254C134.73 44.2254 133.908 44.4545 133.297 44.9126C132.686 45.3617 132.282 45.9276 132.084 46.6102L126.776 46.1791C127.045 44.9215 127.575 43.8347 128.366 42.9185C129.156 41.9933 130.176 41.2837 131.424 40.7897C132.682 40.2867 134.137 40.0352 135.79 40.0352C136.939 40.0352 138.04 40.1699 139.091 40.4394C140.15 40.7088 141.089 41.1265 141.907 41.6924C142.733 42.2583 143.384 42.9859 143.86 43.8751C144.336 44.7554 144.574 45.8108 144.574 47.0414V60.9998H139.131V58.13H138.969C138.637 58.7767 138.192 59.3471 137.635 59.8411C137.079 60.3262 136.409 60.7079 135.628 60.9864C134.846 61.2558 133.944 61.3906 132.92 61.3906ZM134.563 57.4294C135.408 57.4294 136.153 57.2632 136.8 56.9309C137.447 56.5895 137.954 56.1314 138.323 55.5566C138.691 54.9817 138.875 54.3305 138.875 53.6029V51.4068C138.695 51.5235 138.448 51.6313 138.134 51.7301C137.829 51.8199 137.483 51.9053 137.096 51.9861C136.71 52.058 136.324 52.1253 135.938 52.1882C135.552 52.2421 135.201 52.2915 134.887 52.3364C134.213 52.4352 133.625 52.5924 133.122 52.808C132.619 53.0236 132.228 53.3155 131.95 53.6838C131.671 54.0431 131.532 54.4922 131.532 55.0311C131.532 55.8126 131.815 56.4099 132.381 56.8231C132.956 57.2273 133.683 57.4294 134.563 57.4294ZM155.905 49.0354V60.9998H150.165V40.3046H155.636V43.9559H155.878C156.336 42.7523 157.104 41.8002 158.182 41.0996C159.26 40.39 160.567 40.0352 162.103 40.0352C163.54 40.0352 164.793 40.3496 165.862 40.9783C166.931 41.6071 167.762 42.5053 168.355 43.673C168.947 44.8317 169.244 46.215 169.244 47.8228V60.9998H163.504V48.8468C163.513 47.5803 163.19 46.5922 162.534 45.8826C161.878 45.1641 160.976 44.8048 159.826 44.8048C159.053 44.8048 158.371 44.9709 157.778 45.3033C157.194 45.6356 156.736 46.1207 156.404 46.7584C156.08 47.3872 155.914 48.1462 155.905 49.0354ZM185.914 40.3046V44.6161H173.451V40.3046H185.914ZM176.28 35.3464H182.02V54.6404C182.02 55.1703 182.101 55.5835 182.262 55.8799C182.424 56.1674 182.648 56.3695 182.936 56.4862C183.232 56.603 183.574 56.6614 183.96 56.6614C184.229 56.6614 184.499 56.6389 184.768 56.594C185.038 56.5401 185.244 56.4997 185.388 56.4728L186.291 60.7438C186.003 60.8337 185.599 60.937 185.078 61.0537C184.557 61.1795 183.924 61.2558 183.178 61.2828C181.795 61.3367 180.583 61.1525 179.541 60.7304C178.508 60.3082 177.704 59.6525 177.129 58.7632C176.554 57.874 176.271 56.7512 176.28 55.3949V35.3464Z" stroke="white" stroke-width="2" mask="url(#path-1-outside-1_12062_181628)"/>
</svg>
