<svg width="168" height="166" viewBox="0 0 168 166" fill="none" xmlns="http://www.w3.org/2000/svg">
<path d="M35.1694 72.1748C35.1694 72.1748 21.8316 72.7149 24.7355 76.4955C26.784 79.1621 31.6464 77.8232 31.6464 77.8232C31.6464 77.8232 32.6144 97.5587 35.6421 98.4138C41.4725 100.045 42.1816 80.6136 35.1694 72.1748Z" fill="#FFC094"/>
<path d="M134.893 44.6869C137.544 44.0095 140.353 44.3424 142.772 45.6208C144.08 46.3727 145.223 47.3797 146.133 48.5819C147.044 49.7842 147.704 51.1572 148.073 52.6194C150.696 61.6208 147.69 64.5012 153.318 67.3704C158.946 70.2396 161.67 67.7867 165.936 75.9442C170.201 84.1017 166.397 96.1073 155.547 94.9821C144.696 93.8569 118.224 89.7951 118.224 89.7951L112.787 51.9668L125.247 47.0385L134.893 44.6869Z" fill="#FF1D6E"/>
<path d="M3.20361 87.7139C3.20361 87.7139 18.6462 104.153 29.3502 102.712C36.1823 101.779 39.6039 86.42 39.6039 86.42L25.1969 79.6689L3.20361 87.7139Z" fill="#FFC094"/>
<path d="M21.2215 94.8199L33.0677 88.9928C34.3283 88.3728 34.8473 86.8486 34.227 85.5885L22.1813 61.1165C21.561 59.8564 20.0363 59.3375 18.7758 59.9575L6.92955 65.7847C5.66902 66.4047 5.14997 67.9289 5.77023 69.189L17.816 93.661C18.4362 94.9211 19.9609 95.44 21.2215 94.8199Z" fill="#865DFF"/>
<path d="M112.787 79.5555C112.787 79.5555 101.194 81.2095 93.6529 94.8466C86.1117 108.484 79.8536 146.087 81.0017 147.28C82.1498 148.472 107.182 152.028 127.926 152.028C148.67 152.028 155.187 151.229 157.19 150.048C159.194 148.866 158.676 84.6638 147.184 79.5555C135.692 74.4472 125.112 75.4712 112.787 79.5555Z" fill="#865DFF"/>
<path d="M23.0258 93.9371L34.872 88.11C36.1326 87.4899 36.6516 85.9658 36.0313 84.7057L23.9856 60.2337C23.3653 58.9736 21.8407 58.4547 20.5801 59.0747L8.73387 64.9019C7.47334 65.5219 6.95429 67.0461 7.57455 68.3062L19.6203 92.7782C20.2406 94.0383 21.7653 94.5572 23.0258 93.9371Z" fill="#EEE5F3"/>
<path d="M25.2307 88.0282C25.4412 88.3543 25.7415 88.6126 26.0954 88.772C26.4493 88.9315 26.8417 88.9854 27.2255 88.9272C27.6093 88.869 27.9682 88.7012 28.2588 88.444C28.5495 88.1868 28.7597 87.8511 28.864 87.4773C28.9684 87.1035 28.9625 86.7076 28.847 86.3371C28.7316 85.9666 28.5116 85.6373 28.2134 85.3888C27.9152 85.1403 27.5515 84.9833 27.1662 84.9365C26.7808 84.8898 26.3901 84.9554 26.0411 85.1253C25.7968 85.2623 25.5819 85.4461 25.4088 85.6664C25.2358 85.8866 25.1079 86.1387 25.0326 86.4085C24.9573 86.6782 24.9361 86.9601 24.9701 87.2381C25.004 87.5161 25.0926 87.7846 25.2307 88.0282Z" fill="#865DFF"/>
<path d="M6.71539 84.225C6.71539 84.225 -0.825774 86.2729 0.0746645 82.0647C0.975103 77.8566 13.3786 71.083 16.3276 74.4248C19.2765 77.7666 6.71539 84.225 6.71539 84.225Z" fill="#FFC094"/>
<path d="M9.87818 89.8637C9.87818 89.8637 2.33702 91.9115 3.2262 87.7146C4.11538 83.5177 16.5414 76.7217 19.4791 80.0634C22.4168 83.4052 9.87818 89.8637 9.87818 89.8637Z" fill="#FFC094"/>
<path d="M16.035 93.1709C14.7076 94.3256 13.0945 95.1027 11.364 95.4212C9.81072 95.68 8.27996 95.4212 8.35875 93.5647C8.50507 89.7616 18.2974 81.9754 21.3701 84.4395C23.6662 86.2848 18.7025 90.9205 16.035 93.1709Z" fill="#FFC094"/>
<path d="M4.46428 84.1695C4.35935 84.1672 4.25699 84.1368 4.16788 84.0814C4.07877 84.0259 4.00621 83.9476 3.9578 83.8545C3.92515 83.788 3.90592 83.7158 3.90126 83.6419C3.8966 83.568 3.90658 83.4939 3.93063 83.4238C3.95468 83.3538 3.99232 83.2892 4.04141 83.2337C4.09049 83.1783 4.15005 83.133 4.21665 83.1006L13.9077 78.3749C13.9743 78.3314 14.0494 78.3025 14.128 78.2901C14.2066 78.2777 14.287 78.2821 14.3637 78.303C14.4405 78.324 14.512 78.361 14.5734 78.4115C14.6348 78.4621 14.6848 78.5251 14.7201 78.5965C14.7554 78.6678 14.7751 78.7458 14.778 78.8253C14.7809 78.9048 14.7669 78.984 14.7369 79.0577C14.707 79.1314 14.6617 79.1979 14.6041 79.2528C14.5465 79.3077 14.478 79.3498 14.4029 79.3763L4.7119 84.1133C4.63375 84.1478 4.54967 84.1669 4.46428 84.1695Z" fill="black"/>
<path d="M8.54995 89.683C8.42237 89.6835 8.2984 89.6407 8.19836 89.5615C8.09832 89.4823 8.02816 89.3716 7.99937 89.2473C7.97059 89.1231 7.98489 88.9927 8.03994 88.8776C8.09499 88.7626 8.1875 88.6697 8.30233 88.6141L17.9933 83.8883C18.0598 83.8558 18.1321 83.8367 18.206 83.8321C18.2799 83.8276 18.354 83.8375 18.424 83.8616C18.494 83.8856 18.5586 83.9232 18.6141 83.9722C18.6696 84.0212 18.7149 84.0806 18.7474 84.1471C18.7799 84.2136 18.799 84.2858 18.8036 84.3597C18.8082 84.4336 18.7982 84.5076 18.7742 84.5776C18.7501 84.6476 18.7125 84.7122 18.6635 84.7677C18.6145 84.8232 18.555 84.8685 18.4885 84.901L8.79758 89.6267C8.71992 89.6627 8.63554 89.6818 8.54995 89.683Z" fill="black"/>
<path d="M35.1694 72.1747C35.1694 72.1747 23.9139 70.8807 24.7355 76.4954C25.2195 79.7133 35.0681 79.3195 35.0681 79.3195L35.1694 72.1747Z" fill="#FFC094"/>
<path d="M43.3071 85.5305L23.4636 105.547C23.4636 105.547 35.6083 129.581 62.6665 133.08C89.7247 136.58 105.381 119.432 105.381 119.432L109.883 80.2197C109.883 80.2197 80.6191 93.3618 70.1514 94.7232C59.6838 96.0847 43.3071 85.5305 43.3071 85.5305Z" fill="#865DFF"/>
<path d="M109.895 80.1636C109.895 80.1636 91.6945 108.698 88.0927 127.162C85.8802 138.793 84.4475 150.558 83.8043 162.38L149.818 165.429L151.146 108.923L144.168 79.1621L124.864 76.5518L109.895 80.1636Z" fill="#42E8E0"/>
<path d="M109.895 80.1631C109.895 80.1631 100.609 114.515 98.6391 126.52C97.416 134.294 96.6268 142.13 96.2754 149.991L84.1307 148.18L88.768 120.05L105.336 84.0449L109.895 80.1631Z" fill="#865DFF"/>
<path d="M102.32 56.1196C102.32 56.1196 96.2867 48.4122 96.2867 44.8679C96.2867 35.979 107.925 28.5079 120.689 31.2645C133.452 34.0212 137.684 49.031 136.514 55.8946C133.486 73.5823 117.864 69.3066 117.864 69.3066C117.864 69.3066 94.1257 67.5289 102.32 56.1196Z" fill="#FF1D6E"/>
<path d="M108.476 73.9411L108.533 74.2561L109.895 80.1633L110.953 84.799C110.953 84.799 110.75 85.9242 116.13 84.6077C123.322 82.7624 125.135 79.2069 125.135 79.2069L123.424 68.1914L121.296 69.0241L108.476 73.9411Z" fill="#FFC094"/>
<path d="M108.533 74.2564L109.895 80.1636C113.361 79.0384 119.529 76.3605 121.15 70.3183C121.258 69.9033 121.307 69.4754 121.296 69.0469L108.578 74.1552L108.533 74.2564Z" fill="black"/>
<path d="M100.98 46.1611C100.98 46.1611 97.0521 62.9262 101.104 71.1849C105.156 79.4437 112.844 76.6195 117.278 74.0654C119.809 72.6955 121.921 70.6658 123.39 68.192C124.819 68.3412 126.259 68.0353 127.504 67.318C128.749 66.6007 129.736 65.5087 130.323 64.1976C132.574 59.5282 129.828 55.1287 127.093 54.5099C124.358 53.891 121.679 56.2652 121.679 56.2652L123.221 51.3256C123.221 51.3256 109.062 30.2399 100.98 46.1611Z" fill="#FFC094"/>
<path d="M123.637 63.4781C123.529 63.4814 123.423 63.4498 123.334 63.3881C123.208 63.3074 123.12 63.1803 123.089 63.0348C123.057 62.8893 123.084 62.7371 123.165 62.6117L126.541 57.3572C126.581 57.2944 126.632 57.2399 126.692 57.1969C126.752 57.1538 126.82 57.1231 126.892 57.1063C126.965 57.0896 127.039 57.0873 127.112 57.0994C127.185 57.1116 127.255 57.138 127.318 57.1772C127.381 57.2163 127.435 57.2674 127.478 57.3277C127.521 57.3879 127.552 57.456 127.569 57.528C127.586 57.6001 127.588 57.6748 127.576 57.7478C127.564 57.8208 127.537 57.8907 127.498 57.9535L124.121 63.2193C124.07 63.3009 123.999 63.3678 123.914 63.4132C123.829 63.4586 123.734 63.4809 123.637 63.4781Z" fill="black"/>
<path d="M124.864 61.5527C124.72 61.5501 124.581 61.4931 124.477 61.3929C124.373 61.2928 124.31 61.157 124.301 61.0126C124.298 60.9387 124.31 60.865 124.336 60.7956C124.361 60.7261 124.4 60.6625 124.45 60.6081C124.5 60.5538 124.561 60.5098 124.628 60.4789C124.695 60.4479 124.768 60.4304 124.842 60.4275L127.847 60.3038C127.921 60.2992 127.996 60.3097 128.066 60.3346C128.136 60.3596 128.2 60.3985 128.255 60.449C128.31 60.4994 128.354 60.5604 128.384 60.6283C128.414 60.6961 128.431 60.7695 128.432 60.8438C128.435 60.9177 128.424 60.9915 128.398 61.0609C128.373 61.1303 128.334 61.194 128.284 61.2484C128.233 61.3027 128.173 61.3466 128.106 61.3776C128.039 61.4086 127.966 61.426 127.892 61.4289L124.887 61.5527H124.864Z" fill="black"/>
<path d="M112.787 52.6645C112.701 52.6658 112.615 52.6472 112.537 52.6101C112.459 52.5731 112.391 52.5185 112.337 52.4507C111.403 51.258 109.636 51.9781 109.557 52.0006C109.421 52.0573 109.268 52.0584 109.131 52.0037C108.994 51.949 108.885 51.8429 108.825 51.7081C108.795 51.6401 108.779 51.567 108.778 51.4928C108.777 51.4186 108.79 51.3449 108.817 51.2759C108.844 51.2069 108.885 51.1439 108.936 51.0907C108.988 51.0374 109.05 50.9948 109.118 50.9655C109.23 50.9655 111.763 49.8403 113.226 51.7531C113.317 51.8711 113.357 52.0202 113.338 52.1678C113.319 52.3154 113.242 52.4495 113.125 52.5407C113.031 52.6219 112.911 52.6659 112.787 52.6645Z" fill="black"/>
<path d="M100.507 53.137C100.381 53.1354 100.258 53.0919 100.159 53.0132C100.099 52.969 100.049 52.9133 100.012 52.8493C99.9741 52.7854 99.9499 52.7145 99.9404 52.641C99.931 52.5674 99.9364 52.4928 99.9565 52.4214C99.9766 52.35 100.011 52.2835 100.057 52.2256C100.677 51.4278 101.572 50.8901 102.567 50.7179C102.931 50.6996 103.294 50.7639 103.63 50.9062C103.965 51.0485 104.264 51.2649 104.503 51.5393C104.556 51.5916 104.598 51.6538 104.626 51.7223C104.655 51.7909 104.67 51.8644 104.67 51.9387C104.67 52.013 104.655 52.0865 104.626 52.1551C104.598 52.2236 104.556 52.2859 104.503 52.3382C104.396 52.442 104.253 52.5 104.104 52.5C103.954 52.5 103.811 52.442 103.704 52.3382C103.579 52.19 103.422 52.0725 103.244 51.9945C103.067 51.9165 102.874 51.8801 102.68 51.8881C101.993 52.0396 101.388 52.4406 100.98 53.0132C100.915 53.0667 100.839 53.1055 100.757 53.1268C100.676 53.1482 100.591 53.1517 100.507 53.137Z" fill="black"/>
<path d="M102.443 59.6398C102.298 59.6399 102.158 59.5837 102.053 59.483C101.948 59.3823 101.886 59.2449 101.881 59.0997L101.768 56.388L100.643 55.3978C100.586 55.3506 100.539 55.2925 100.504 55.2271C100.47 55.1616 100.448 55.09 100.442 55.0164C100.435 54.9427 100.443 54.8684 100.465 54.7978C100.486 54.7271 100.522 54.6615 100.569 54.6046C100.617 54.5477 100.675 54.5007 100.74 54.4662C100.806 54.4318 100.877 54.4105 100.951 54.4037C101.025 54.397 101.099 54.4047 101.17 54.4266C101.24 54.4486 101.306 54.4842 101.363 54.5315L102.725 55.6566C102.842 55.7605 102.915 55.9056 102.927 56.0617L103.051 59.0322C103.054 59.106 103.043 59.1798 103.017 59.2492C102.992 59.3186 102.953 59.3823 102.902 59.4367C102.852 59.491 102.792 59.5349 102.725 59.5659C102.658 59.5969 102.585 59.6143 102.511 59.6172L102.443 59.6398Z" fill="black"/>
<path d="M111.144 58.6951C111.001 58.6952 110.864 58.6403 110.762 58.5417C110.659 58.4431 110.598 58.3086 110.592 58.1663L110.424 55.4884L108.735 54.3632C108.673 54.3214 108.621 54.2678 108.58 54.2055C108.539 54.1431 108.511 54.0733 108.497 54C108.484 53.9267 108.485 53.8515 108.5 53.7786C108.516 53.7058 108.546 53.6367 108.589 53.5756C108.63 53.5142 108.682 53.4617 108.744 53.421C108.805 53.3803 108.874 53.3523 108.946 53.3386C109.019 53.325 109.093 53.326 109.165 53.3416C109.237 53.3572 109.305 53.387 109.365 53.4293L111.279 54.7008C111.351 54.7503 111.411 54.8155 111.453 54.8916C111.496 54.9676 111.521 55.0525 111.527 55.1396L111.707 58.0988C111.716 58.2462 111.667 58.3915 111.57 58.503C111.473 58.6146 111.336 58.6836 111.189 58.6951H111.144Z" fill="black"/>
<path d="M127.87 40.2087C127.87 40.2087 123.638 21.7109 136.705 22.0034C150.538 22.3185 140.712 45.6321 131.888 45.6321C127.96 45.6771 127.87 40.2087 127.87 40.2087Z" fill="#FF1D6E"/>
<path d="M111.538 111.657C111.538 111.657 107.148 88.7038 104.897 86.2284C102.646 83.753 87.7662 77.227 85.8753 78.9823C83.9844 80.7376 85.8753 83.0554 85.8753 83.0554C85.8753 83.0554 83.0501 81.4464 81.9809 83.1342C80.9116 84.8219 82.9826 87.4549 82.9826 87.4549C82.9826 87.4549 80.7315 86.0259 81.0242 89.1764C81.3168 92.3269 87.4961 98.0765 87.4961 98.0765C87.978 102.775 89.447 107.318 91.8069 111.41C95.7576 118.318 107.79 118.622 107.79 118.622L111.538 111.657Z" fill="#FFC094"/>
<path d="M97.75 89.401C97.6594 89.4001 97.5705 89.3769 97.4911 89.3335L85.7066 83.1901C85.6362 83.1585 85.5731 83.1128 85.5211 83.0558C85.4691 82.9988 85.4294 82.9317 85.4045 82.8587C85.3796 82.7857 85.3699 82.7084 85.3761 82.6315C85.3823 82.5546 85.4043 82.4798 85.4406 82.4118C85.477 82.3438 85.527 82.2839 85.5874 82.236C85.6479 82.1881 85.7175 82.1531 85.7921 82.1333C85.8666 82.1134 85.9445 82.109 86.0208 82.1205C86.0971 82.132 86.1702 82.159 86.2356 82.1999L98.0089 88.3434C98.1414 88.4108 98.2419 88.528 98.2883 88.6692C98.3347 88.8105 98.3232 88.9644 98.2565 89.0973C98.2075 89.189 98.1345 89.2658 98.0453 89.3193C97.9561 89.3728 97.854 89.401 97.75 89.401Z" fill="black"/>
<path d="M94.542 95.229C94.438 95.2266 94.3367 95.1955 94.2494 95.139L82.7125 87.9267C82.5873 87.8459 82.4992 87.7189 82.4676 87.5734C82.4359 87.4278 82.4633 87.2757 82.5436 87.1503C82.6246 87.0256 82.7508 86.9371 82.8956 86.9035C83.0405 86.8699 83.1927 86.8939 83.3203 86.9703L94.8459 94.1826C94.9707 94.2635 95.0592 94.3897 95.0928 94.5345C95.1264 94.6793 95.1024 94.8315 95.026 94.959C94.9739 95.0405 94.9025 95.1078 94.818 95.1549C94.7335 95.202 94.6387 95.2275 94.542 95.229Z" fill="black"/>
<path d="M109.895 86.3298C109.752 86.3299 109.615 86.2749 109.512 86.1763C109.41 86.0778 109.349 85.9433 109.343 85.801C109.334 85.6535 109.383 85.5083 109.48 85.3967C109.577 85.2851 109.713 85.2162 109.861 85.2046C109.94 85.2046 117.875 84.6533 123.863 80.1301C123.922 80.0858 123.989 80.0535 124.061 80.0352C124.132 80.0168 124.207 80.0128 124.28 80.0232C124.353 80.0337 124.423 80.0584 124.487 80.0961C124.551 80.1337 124.606 80.1835 124.65 80.2426C124.695 80.3017 124.727 80.369 124.745 80.4405C124.764 80.5121 124.768 80.5866 124.757 80.6597C124.747 80.7328 124.722 80.8032 124.685 80.8668C124.647 80.9304 124.597 80.9859 124.538 81.0302C120.214 84.0567 115.166 85.8851 109.906 86.3298H109.895Z" fill="#865DFF"/>
<path d="M91.8407 120.017C91.8407 120.017 111.695 165.114 141.961 162.774C172.228 160.433 169.785 103.522 160.218 90.0199C150.651 76.5179 137.223 76.6866 137.223 76.6866L124.842 111.409L114.712 102.802L91.8407 120.017Z" fill="#865DFF"/>
<path d="M124.864 76.5059C124.864 76.5059 107.88 151.004 111.144 151.386C114.408 151.769 140.217 153.029 140.217 153.029L137.223 76.6859L124.864 76.5059Z" fill="#865DFF"/>
<path d="M134.893 45.2496C134.763 45.2496 134.637 45.2048 134.537 45.1228C134.436 45.0408 134.367 44.9266 134.341 44.7995C132.631 36.7883 126.857 34.4704 126.789 34.4479C126.652 34.3905 126.543 34.2822 126.484 34.1458C126.425 34.0094 126.421 33.8556 126.474 33.7166C126.527 33.5784 126.632 33.4667 126.767 33.4056C126.902 33.3446 127.055 33.339 127.194 33.3903C127.453 33.4915 133.599 35.9219 135.444 44.5745C135.459 44.6469 135.46 44.7215 135.446 44.7941C135.432 44.8666 135.403 44.9357 135.363 44.9973C135.322 45.059 135.269 45.112 135.208 45.1534C135.147 45.1947 135.078 45.2236 135.005 45.2383L134.893 45.2496Z" fill="#865DFF"/>
<path d="M143.976 129.547C143.835 129.548 143.698 129.496 143.594 129.401L119.135 106.593C119.083 106.541 119.041 106.479 119.012 106.41C118.984 106.342 118.969 106.268 118.969 106.194C118.969 106.12 118.984 106.046 119.012 105.977C119.041 105.909 119.083 105.847 119.135 105.794C119.187 105.742 119.248 105.7 119.316 105.672C119.383 105.644 119.456 105.629 119.529 105.629C119.603 105.629 119.675 105.644 119.743 105.672C119.811 105.7 119.872 105.742 119.923 105.794L144.393 128.602C144.473 128.679 144.528 128.778 144.552 128.887C144.576 128.996 144.567 129.11 144.526 129.214C144.485 129.317 144.414 129.406 144.322 129.47C144.23 129.533 144.122 129.568 144.01 129.569L143.976 129.547Z" fill="#42E8E0"/>
<path d="M144.562 121.897C140.868 121.737 137.208 121.121 133.666 120.063C133.547 120.028 133.443 119.955 133.37 119.856C133.297 119.756 133.259 119.635 133.261 119.511C133.265 119.387 133.311 119.268 133.39 119.172C133.47 119.076 133.579 119.01 133.7 118.982C136.12 118.431 148.253 115.798 150.088 118.116C150.265 118.353 150.366 118.637 150.378 118.933C150.39 119.228 150.313 119.52 150.155 119.77C149.379 121.379 147.139 121.897 144.562 121.897ZM136.232 119.646C141.365 120.873 148.017 121.627 149.154 119.331C149.311 119.005 149.233 118.904 149.154 118.87C148.4 117.767 142.322 118.364 136.232 119.59V119.646Z" fill="#42E8E0"/>
<path d="M70.9506 107.64C70.5734 107.626 70.2056 107.518 69.8813 107.325C65.3791 104.793 69.4648 94.869 69.6449 94.4414C69.6881 94.3332 69.7652 94.2419 69.8646 94.181C69.964 94.1202 70.0804 94.0931 70.1964 94.1039C70.3123 94.1109 70.4233 94.1536 70.5139 94.2261C70.6046 94.2987 70.6706 94.3974 70.7029 94.5089C71.4458 97.1306 73.7419 105.761 71.7722 107.358C71.5403 107.546 71.2491 107.646 70.9506 107.64ZM70.0726 96.5005C68.9471 99.7072 67.9003 104.917 70.4328 106.335C70.5791 106.413 70.928 106.593 71.0744 106.481C71.9185 105.817 71.2432 101.046 70.0726 96.5455V96.5005Z" fill="#42E8E0"/>
<path d="M83.1177 132.349C83.0442 132.335 82.9742 132.307 82.9117 132.266C82.8492 132.226 82.7953 132.173 82.7534 132.111C82.7115 132.049 82.6824 131.98 82.6676 131.907C82.6528 131.833 82.6528 131.758 82.6675 131.685L84.6259 121.052C84.6559 120.905 84.7421 120.776 84.8662 120.692C84.9903 120.608 85.1424 120.575 85.29 120.602C85.436 120.629 85.5653 120.713 85.6496 120.835C85.7339 120.958 85.7665 121.108 85.7402 121.254L83.7705 131.899C83.7583 131.972 83.7317 132.041 83.692 132.104C83.6523 132.166 83.6005 132.22 83.5395 132.262C83.4786 132.304 83.4099 132.333 83.3374 132.348C83.265 132.363 83.1902 132.363 83.1177 132.349Z" fill="#42E8E0"/>
<path d="M108.229 38.6221C107.129 40.6954 106.619 43.0303 106.754 45.3731L106.946 49.4462L124.2 52.4392L123.638 44.3154L108.229 38.6221Z" fill="#FF1D6E"/>
<path d="M107.148 41.4132C106.326 42.3541 105.712 43.4585 105.347 44.6537C104.977 46.395 104.714 48.1573 104.559 49.9308H99.6634L99.2694 41.4132L105.347 36.6875H109.343V42.2008L107.148 41.4132Z" fill="#FF1D6E"/>
<path d="M89.9832 21.412L90.1489 20.9828C90.7259 19.513 91.3096 18.3891 91.9 17.6112C92.4988 16.8365 93.1505 16.2757 93.855 15.9287C94.5596 15.5817 95.3457 15.3241 96.2132 15.1561C96.8651 15.0209 97.467 14.8519 98.0192 14.6491C98.5713 14.4464 99.0539 14.1733 99.467 13.8298C99.8833 13.4779 100.197 13.0284 100.408 12.4813C100.632 11.9005 100.69 11.3376 100.581 10.7927C100.472 10.2478 100.228 9.76652 99.8474 9.3489C99.4754 8.93452 99.0075 8.61849 98.4435 8.40081C97.8964 8.18963 97.3316 8.11187 96.7492 8.16753C96.17 8.21477 95.6338 8.41397 95.1404 8.76513C94.6502 9.10787 94.2593 9.61947 93.9677 10.2999L88.8163 8.31157C89.5082 6.64436 90.4483 5.41147 91.6366 4.61288C92.8282 3.80588 94.1593 3.3767 95.6298 3.32534C97.1036 3.26556 98.6022 3.5297 100.126 4.11776C101.801 4.76431 103.175 5.61389 104.248 6.66652C105.325 7.71073 106.028 8.89604 106.358 10.2224C106.687 11.5488 106.567 12.9485 105.999 14.4216C105.619 15.4064 105.117 16.2184 104.493 16.8577C103.88 17.4918 103.17 17.9913 102.362 18.3564C101.557 18.713 100.668 18.9743 99.6948 19.1402C98.8772 19.2792 98.1708 19.4804 97.5759 19.744C96.9893 20.0108 96.482 20.3856 96.0538 20.8684C95.6342 21.3543 95.2609 22.0082 94.9341 22.8298L94.7684 23.2591L89.9832 21.412ZM89.3641 30.4575C88.5224 30.1326 87.9164 29.5603 87.5462 28.7404C87.1877 27.9153 87.1735 27.0878 87.5035 26.2577C87.8135 25.4296 88.3768 24.8346 89.1934 24.4728C90.0185 24.1143 90.8519 24.0975 91.6936 24.4224C92.4932 24.731 93.0824 25.2969 93.461 26.12C93.8396 26.9432 93.8739 27.7688 93.5639 28.597C93.3411 29.1492 92.9972 29.6016 92.5323 29.9541C92.0791 30.3014 91.5717 30.5263 91.0099 30.6286C90.4514 30.7225 89.9028 30.6655 89.3641 30.4575Z" fill="#865DFF"/>
</svg>
