<svg width="88" height="19" viewBox="0 0 88 19" fill="none" xmlns="http://www.w3.org/2000/svg">
<path d="M87.2788 12.5058C87.0059 12.5058 86.7829 12.7288 86.7829 13.0017C86.7829 13.2745 87.0033 13.4975 87.2788 13.4975C87.5516 13.4975 87.7746 13.2771 87.7746 13.0017C87.772 12.7262 87.5516 12.5058 87.2788 12.5058ZM87.2788 13.4162C87.0479 13.4162 86.8616 13.2299 86.8616 12.999C86.8616 12.7681 87.0479 12.5819 87.2788 12.5819C87.5096 12.5819 87.6959 12.7681 87.6959 12.999C87.6959 13.2299 87.5096 13.4162 87.2788 13.4162ZM87.4388 12.9151C87.4388 12.8259 87.3758 12.7708 87.2814 12.7708H87.124V13.222H87.2V13.0594H87.284L87.3653 13.222H87.4493L87.3601 13.041C87.4099 13.02 87.4388 12.978 87.4388 12.9151ZM87.2788 12.9885H87.2027V12.839H87.2788C87.3312 12.839 87.3627 12.8652 87.3627 12.9124C87.3627 12.9623 87.3286 12.9885 87.2788 12.9885ZM27.6746 7.49985V6.30346H25.8406V13.4214H27.6746V9.15275C27.6746 8.37877 28.1705 8.00097 28.9444 8.00097H29.9493V6.30346H29.0914C28.4197 6.30346 27.8346 6.65241 27.6746 7.49985ZM31.6652 3.48828C31.0381 3.48828 30.5554 3.98415 30.5554 4.6112C30.5554 5.22514 31.0355 5.72101 31.6652 5.72101C32.2948 5.72101 32.775 5.22514 32.775 4.6112C32.775 3.98415 32.2948 3.48828 31.6652 3.48828ZM30.7521 13.4214H32.5834V6.30346H30.7521V13.4214ZM41.2992 9.86114C41.2992 11.8918 39.6516 13.5395 37.6209 13.5395C36.7997 13.5395 36.0572 13.2719 35.4616 12.818V15.5099H33.6303V6.30346H35.4616V6.9069C36.0572 6.45301 36.8023 6.1854 37.6209 6.1854C39.6516 6.18277 41.2992 7.83043 41.2992 9.86114ZM39.4574 9.86114C39.4574 8.75658 38.5627 7.86191 37.4582 7.86191C36.3536 7.86191 35.459 8.75658 35.459 9.86114C35.459 10.9657 36.3536 11.8604 37.4582 11.8604C38.5627 11.8604 39.4574 10.9657 39.4574 9.86114ZM73.1084 9.23671L72.0406 8.94286C71.3374 8.7592 71.0646 8.54406 71.0646 8.17413C71.0646 7.81206 71.4502 7.56019 71.9986 7.56019C72.5233 7.56019 72.9326 7.90389 72.9326 8.34204V8.38402H74.6196V8.34204C74.6196 7.0512 73.5675 6.18277 71.9986 6.18277C70.4454 6.18277 69.3172 7.04858 69.3172 8.24497C69.3172 9.17374 69.9338 9.87426 71.0095 10.1655L72.0327 10.4436C72.8093 10.6587 73.0979 10.8975 73.0979 11.3251C73.0979 11.7764 72.6807 12.0781 72.0589 12.0781C71.4109 12.0781 70.9754 11.6688 70.9754 11.0601V11.0182H69.186V11.0601C69.186 12.5189 70.3614 13.5395 72.0458 13.5395C73.6672 13.5395 74.8453 12.5425 74.8453 11.1703C74.8453 10.5013 74.5435 9.61976 73.1084 9.23671ZM47.7901 6.30346H49.6214V13.4214H47.7901V12.818C47.1946 13.2719 46.4494 13.5395 45.6309 13.5395C43.6002 13.5395 41.9525 11.8918 41.9525 9.86114C41.9525 7.83043 43.6002 6.18277 45.6309 6.18277C46.4521 6.18277 47.1946 6.45039 47.7901 6.90428V6.30346ZM47.7901 9.86114C47.7901 8.75658 46.8955 7.86191 45.7909 7.86191C44.6864 7.86191 43.7917 8.75658 43.7917 9.86114C43.7917 10.9657 44.6864 11.8604 45.7909 11.8604C46.8981 11.8604 47.7901 10.9657 47.7901 9.86114ZM56.2304 3.76901H58.0617V13.4214H56.2304V12.818C55.6349 13.2719 54.8897 13.5395 54.0712 13.5395C52.0405 13.5395 50.3928 11.8918 50.3928 9.86114C50.3928 7.83043 52.0405 6.18277 54.0712 6.18277C54.8897 6.18277 55.6349 6.45039 56.2304 6.90428V3.76901ZM56.2304 9.86114C56.2304 8.75658 55.3358 7.86191 54.2312 7.86191C53.1266 7.86191 52.232 8.75658 52.232 9.86114C52.232 10.9657 53.1266 11.8604 54.2312 11.8604C55.3358 11.8604 56.2304 10.9657 56.2304 9.86114ZM66.5571 13.4214H68.3884V6.30346H66.5571V13.4214ZM67.4728 3.48828C66.8457 3.48828 66.363 3.98415 66.363 4.6112C66.363 5.22514 66.8431 5.72101 67.4728 5.72101C68.1025 5.72101 68.5826 5.22514 68.5826 4.6112C68.58 3.98415 68.0998 3.48828 67.4728 3.48828ZM82.7556 9.86114C82.7556 11.8918 81.1079 13.5395 79.0772 13.5395C77.0465 13.5395 75.3988 11.8918 75.3988 9.86114C75.3988 7.83043 77.0465 6.18277 79.0772 6.18277C81.1079 6.18277 82.7556 7.83043 82.7556 9.86114ZM81.0738 9.86114C81.0738 8.75658 80.1791 7.86191 79.0746 7.86191C77.97 7.86191 77.0754 8.75658 77.0754 9.86114C77.0754 10.9657 77.97 11.8604 79.0746 11.8604C80.1791 11.8604 81.0738 10.9657 81.0738 9.86114ZM26.7379 3.76901H19.717V5.40092H22.3171V13.4188H24.1405V5.40092H26.7406L26.7379 3.76901ZM62.2412 11.4721L60.6119 6.30346H58.6914L61.134 13.4214H63.3353L65.791 6.30346H63.8679L62.2412 11.4721ZM85.4369 7.49985V6.30346H83.603V13.4214H85.4369V9.15275C85.4369 8.37877 85.9328 8.00097 86.7068 8.00097H87.7117V6.30346H86.8537C86.1794 6.30346 85.597 6.65241 85.4369 7.49985Z" fill="white"/>
<path fill-rule="evenodd" clip-rule="evenodd" d="M18.7171 9.35857C18.7171 14.5272 14.5272 18.7171 9.35857 18.7171C4.18998 18.7171 0 14.5272 0 9.35857C0 4.18998 4.18998 0 9.35857 0C14.5272 0 18.7171 4.18998 18.7171 9.35857ZM16.2666 6.30565L15.1384 7.53352C15.8311 8.16319 16.2666 9.0736 16.2666 10.0837C16.2666 11.9911 14.7186 13.5364 12.8112 13.5364C11.9061 13.5364 11.0823 13.1901 10.4657 12.6182L9.35852 13.8224L8.25134 12.6182C7.6374 13.1901 6.81095 13.5391 5.90579 13.5391C3.9984 13.5391 2.45306 11.9937 2.45306 10.0863C2.45306 9.07622 2.88597 8.16582 3.57861 7.53352L2.45044 6.30565H4.96128C6.21276 5.45034 7.72398 4.94922 9.35852 4.94922C10.9957 4.94922 12.5095 5.45034 13.7636 6.30565H16.2666ZM3.57074 10.0863C3.57074 11.3745 4.61495 12.4214 5.90579 12.4214C7.19663 12.4214 8.24084 11.3745 8.24084 10.0863C8.24084 8.79812 7.19401 7.75128 5.90579 7.75128C4.61758 7.75128 3.57074 8.79812 3.57074 10.0863ZM6.76373 6.59425C8.24084 7.15833 9.35852 8.47803 9.35852 10.0155C9.35852 8.47803 10.4762 7.16096 11.9507 6.59425C11.1505 6.26104 10.2742 6.07477 9.3559 6.07477C8.43762 6.07477 7.56132 6.26104 6.76373 6.59425ZM10.4762 10.0863C10.4762 11.3745 11.5204 12.4214 12.8112 12.4214C14.1021 12.4214 15.1463 11.3745 15.1463 10.0863C15.1463 8.79812 14.0995 7.75128 12.8112 7.75128C11.523 7.75128 10.4762 8.79812 10.4762 10.0863ZM11.586 10.0837C11.586 9.40681 12.1343 8.85846 12.8112 8.85846C13.4882 8.85846 14.0365 9.40681 14.0365 10.0837C14.0365 10.7606 13.4882 11.309 12.8112 11.309C12.1343 11.309 11.586 10.7606 11.586 10.0837ZM5.90579 11.309C6.58269 11.309 7.13104 10.7606 7.13104 10.0837C7.13104 9.40681 6.58269 8.85846 5.90579 8.85846C5.22889 8.85846 4.68055 9.40681 4.68055 10.0837C4.68055 10.7606 5.22889 11.309 5.90579 11.309Z" fill="white"/>
</svg>
