<svg width="170" height="145" viewBox="0 0 170 145" fill="none" xmlns="http://www.w3.org/2000/svg">
<path d="M88.4935 60.2329L79.0086 52.0381L78.5651 52.8118L87.9435 60.8067L88.4935 60.2329Z" fill="#263238"/>
<path d="M166.685 143.916C166.685 144.499 129.551 145 83.7571 145C37.9632 145 0.818176 144.499 0.818176 143.916C0.818176 143.332 37.9448 142.831 83.7571 142.831C129.569 142.831 166.685 143.332 166.685 143.916Z" fill="#263238"/>
<path d="M141.268 78.0531C141.213 77.5233 140.764 77.1187 140.231 77.1187L132.376 77.126C131.722 77.126 131.232 77.7257 131.357 78.3658C131.457 78.8624 131.894 79.2156 132.402 79.2009H140.231C140.849 79.2009 141.331 78.6638 141.268 78.0494V78.0531Z" fill="#263238"/>
<path d="M158.4 140.354C158.198 141.723 159.147 142.996 160.516 143.198C161.884 143.4 163.157 142.451 163.356 141.083C163.554 139.714 162.609 138.441 161.24 138.243C159.872 138.04 158.599 138.989 158.4 140.358V140.354Z" fill="#263238"/>
<path d="M160.361 140.73L158.831 137.573L159.633 137.065L161.115 140.358L160.361 140.73Z" fill="#455A64"/>
<path d="M146.209 101.873L136.721 77.1187L134.922 78.0236L144.116 102.55L146.209 101.873Z" fill="#263238"/>
<path d="M168.121 134.568L154.118 140.132C153.598 140.339 153.006 140.083 152.799 139.564L138.858 104.476C137.761 101.717 139.111 98.5884 141.87 97.4921L147.764 95.1501C150.523 94.0539 153.652 95.4034 154.748 98.1624L168.69 133.25C168.897 133.769 168.641 134.362 168.121 134.568Z" fill="#865DFF"/>
<path d="M152.764 139.733C152.764 139.733 152.742 139.659 152.691 139.52C152.636 139.372 152.558 139.163 152.459 138.898C152.246 138.342 151.94 137.54 151.547 136.51C150.741 134.432 149.582 131.445 148.151 127.751C146.709 124.054 144.991 119.654 143.089 114.769C142.133 112.326 141.132 109.762 140.091 107.106C139.83 106.44 139.568 105.77 139.304 105.097C139.024 104.438 138.932 103.714 139.009 103C139.179 101.569 140.176 100.248 141.559 99.7149C142.938 99.1667 144.568 99.4537 145.664 100.388C146.205 100.859 146.632 101.451 146.875 102.124C147.139 102.801 147.404 103.471 147.662 104.133C148.707 106.789 149.711 109.353 150.671 111.792C152.592 116.671 154.324 121.063 155.777 124.757C157.238 128.439 158.419 131.419 159.239 133.49C159.651 134.513 159.971 135.311 160.192 135.859C160.299 136.124 160.383 136.326 160.446 136.474C160.505 136.613 160.538 136.68 160.538 136.68C160.538 136.68 160.516 136.606 160.464 136.466C160.409 136.319 160.332 136.109 160.232 135.845C160.019 135.289 159.714 134.487 159.32 133.461C158.514 131.386 157.356 128.395 155.925 124.701C154.482 121.004 152.764 116.604 150.859 111.719C149.902 109.276 148.902 106.712 147.861 104.056C147.599 103.39 147.338 102.72 147.073 102.044C146.823 101.348 146.374 100.712 145.804 100.219C144.649 99.2329 142.931 98.9276 141.478 99.5088C140.021 100.072 138.969 101.466 138.792 102.971C138.708 103.721 138.811 104.494 139.101 105.171C139.366 105.847 139.631 106.517 139.889 107.179C140.933 109.835 141.938 112.396 142.898 114.838C144.818 119.717 146.551 124.109 148.004 127.803C149.465 131.485 150.645 134.465 151.466 136.536C151.878 137.559 152.198 138.357 152.419 138.905C152.525 139.17 152.61 139.372 152.672 139.52C152.731 139.659 152.764 139.726 152.764 139.726V139.733Z" fill="#263238"/>
<path d="M151.859 114.794C151.889 114.89 153.721 114.165 155.954 113.183C158.187 112.197 159.971 111.325 159.942 111.229C159.912 111.134 158.08 111.858 155.847 112.841C153.614 113.826 151.83 114.698 151.859 114.794Z" fill="#263238"/>
<path d="M139.465 77.1187L137.825 73.8813C137.644 73.5171 137.335 73.2339 136.964 73.0794L134.385 72.0088L127.447 62.5947L126.799 69.8015L131.225 74.3633C131.225 74.3633 133.995 80.1979 136.258 79.8999C136.258 79.8999 136.18 79.0427 135.805 78.3916C135.069 77.1224 135.853 77.1224 135.956 77.1261H137.836L139.473 77.1224L139.465 77.1187Z" fill="#FFBE9D"/>
<path d="M128.135 72.142C128.344 72.4547 130.062 74.7798 130.062 74.7798L134.922 71.2444L133.156 69.519L128.135 72.142Z" fill="#865DFF"/>
<path d="M135.801 78.3884C135.801 78.3884 137.063 79.1058 137.221 79.7202V80.0807L135.706 79.86L135.801 78.3848V78.3884Z" fill="#FFBE9D"/>
<path d="M137.494 79.0837C137.288 78.8887 137.071 78.6864 136.986 78.4141C136.901 78.1419 137.004 77.7924 137.273 77.7004C137.534 77.6121 137.803 77.8034 138.009 77.9874C138.27 78.2228 138.516 78.4693 138.748 78.7305C138.939 78.9475 139.138 79.2198 139.068 79.4994C139.013 79.7238 138.785 79.882 138.549 79.8967C138.318 79.9114 138.09 79.801 137.92 79.6428C137.751 79.4847 137.633 79.275 137.534 79.0653" fill="#FFBE9D"/>
<path d="M138.781 78.9733C138.575 78.7783 138.358 78.576 138.274 78.3038C138.189 78.0315 138.292 77.682 138.56 77.5901C138.822 77.5018 139.09 77.6931 139.296 77.877C139.557 78.1125 139.804 78.359 140.036 78.6201C140.227 78.8372 140.426 79.1094 140.356 79.389C140.301 79.6134 140.072 79.7716 139.837 79.7863C139.605 79.801 139.377 79.6907 139.208 79.5325C139.039 79.3743 138.921 79.1646 138.822 78.9549" fill="#FFBE9D"/>
<path d="M134.922 73.4443C134.918 73.4002 135.25 73.4186 135.625 73.746C135.805 73.9299 135.919 74.1838 136.066 74.4597C136.202 74.7393 136.342 75.0814 136.316 75.4677C136.287 75.8613 136.074 76.1667 135.919 76.4242C135.757 76.6743 135.673 76.9355 135.617 77.1526C135.503 77.5977 135.592 77.8773 135.566 77.8847C135.544 77.8994 135.4 77.6051 135.485 77.1231C135.525 76.8877 135.603 76.6044 135.768 76.3322C135.919 76.0636 136.103 75.7804 136.125 75.4493C136.147 75.1182 136.029 74.8018 135.908 74.5296C135.776 74.2574 135.665 73.9925 135.529 73.8306C135.382 73.6761 135.213 73.5768 135.106 73.5179C134.996 73.4554 134.926 73.4517 134.926 73.437L134.922 73.4443Z" fill="#EB996E"/>
<path d="M91.6041 129.696L90.2908 137.267C90.2908 137.267 82.1532 138.473 81.7743 139.849L96.3645 142.925L98.8955 131.211L91.6041 129.696Z" fill="#865DFF"/>
<g opacity="0.6">
<path d="M94.9334 137.587C95.1983 137.723 95.3271 138.084 95.202 138.353C95.0769 138.625 94.7127 138.757 94.4441 138.625C94.1756 138.492 94.01 138.066 94.1645 137.812C94.3191 137.554 94.7568 137.422 94.9849 137.617" fill="white"/>
</g>
<path opacity="0.6" d="M96.3645 142.924L96.6183 141.754L82.5064 139.23C82.5064 139.23 81.7964 139.378 81.7743 139.849L96.3645 142.924Z" fill="white"/>
<path d="M90.07 137.145C90.059 137.219 90.4085 137.325 90.7102 137.627C91.0192 137.921 91.1369 138.267 91.2068 138.256C91.2767 138.256 91.2583 137.807 90.8867 137.447C90.5189 137.083 90.07 137.079 90.07 137.145Z" fill="#263238"/>
<path d="M88.4072 137.455C88.3778 137.521 88.661 137.705 88.8376 138.058C89.0252 138.404 89.0179 138.742 89.0914 138.757C89.1577 138.783 89.2938 138.374 89.062 137.94C88.8339 137.506 88.4219 137.385 88.4072 137.455Z" fill="#263238"/>
<path d="M87.1491 139.103C87.2116 139.132 87.3845 138.798 87.2852 138.367C87.1859 137.937 86.8842 137.712 86.84 137.768C86.7885 137.819 86.9614 138.073 87.0387 138.426C87.1233 138.776 87.0828 139.081 87.1491 139.103Z" fill="#263238"/>
<path d="M90.5593 135.452C90.574 135.522 90.9235 135.493 91.3208 135.607C91.7218 135.71 92.0051 135.912 92.0566 135.861C92.1081 135.817 91.8579 135.489 91.3907 135.364C90.9235 135.235 90.5409 135.39 90.563 135.456L90.5593 135.452Z" fill="#263238"/>
<path opacity="0.3" d="M91.3466 131.198L91.1111 132.548L98.2922 133.994L98.5571 132.787L91.3466 131.198Z" fill="black"/>
<path d="M90.8536 133.931C90.8462 133.96 91.1185 134.063 91.5857 134.082C91.8174 134.089 92.097 134.071 92.3987 134.008C92.5495 133.975 92.7077 133.931 92.8659 133.872C92.9432 133.843 93.0315 133.817 93.1234 133.747C93.2191 133.688 93.3037 133.512 93.2375 133.376C93.186 133.247 93.0646 133.173 92.9579 133.147C92.8512 133.122 92.7592 133.125 92.6746 133.129C92.5054 133.133 92.3398 133.155 92.189 133.188C91.8837 133.254 91.6225 133.368 91.4238 133.49C91.0191 133.732 90.8462 133.975 90.8683 133.994C90.8941 134.023 91.1074 133.835 91.5047 133.648C91.7034 133.556 91.9499 133.468 92.2332 133.42C92.3729 133.394 92.5238 133.379 92.6783 133.379C92.8402 133.372 92.9726 133.398 92.9983 133.475C93.0057 133.504 93.0057 133.515 92.9652 133.552C92.9248 133.585 92.8512 133.615 92.7776 133.644C92.6305 133.699 92.487 133.747 92.3435 133.784C92.0639 133.857 91.7991 133.891 91.5783 133.905C91.1369 133.935 90.8573 133.894 90.8499 133.935L90.8536 133.931Z" fill="#263238"/>
<path d="M90.9235 134.051C90.9456 134.066 91.1405 133.842 91.2656 133.385C91.3245 133.161 91.3613 132.878 91.3355 132.565C91.3208 132.411 91.2914 132.245 91.2435 132.083C91.1884 131.921 91.1258 131.704 90.8536 131.616C90.7101 131.579 90.5666 131.667 90.5041 131.756C90.4342 131.844 90.4085 131.929 90.3717 132.01C90.3091 132.175 90.276 132.341 90.2687 132.503C90.2503 132.823 90.3202 133.11 90.4232 133.323C90.6292 133.761 90.9088 133.908 90.9198 133.886C90.9529 133.856 90.7322 133.665 90.5887 133.257C90.5188 133.054 90.4747 132.797 90.5004 132.521C90.5151 132.381 90.5482 132.241 90.6034 132.102C90.6586 131.951 90.7432 131.837 90.7984 131.866C90.872 131.881 90.9713 132.024 91.0044 132.16C91.0522 132.308 91.0817 132.455 91.1037 132.595C91.1405 132.878 91.1258 133.139 91.0927 133.352C91.0228 133.786 90.8904 134.037 90.9272 134.055L90.9235 134.051Z" fill="#263238"/>
<path d="M139.546 130.16L136.39 126.04L136.224 125.826L130.85 129.825L135.827 135.292L135.647 140.825C132.873 141.542 132.457 142.925 132.457 142.925L138.218 142.918L143.453 132.834L139.546 130.152V130.16Z" fill="#865DFF"/>
<path opacity="0.6" d="M143.453 132.837L138.222 142.921L132.457 142.925L133.108 142.06L137.792 141.795L142.622 132.267L143.453 132.837Z" fill="white"/>
<path d="M135.684 138.29C135.728 138.349 136.059 138.162 136.504 138.173C136.949 138.173 137.277 138.371 137.321 138.312C137.376 138.268 137.048 137.922 136.508 137.919C135.963 137.908 135.632 138.246 135.684 138.29Z" fill="#263238"/>
<path d="M135.776 136.918C135.834 136.959 136.088 136.62 136.548 136.528C137.008 136.433 137.376 136.65 137.413 136.587C137.431 136.561 137.365 136.466 137.203 136.377C137.045 136.289 136.784 136.223 136.497 136.278C136.213 136.337 135.996 136.499 135.882 136.642C135.768 136.786 135.743 136.9 135.772 136.918H135.776Z" fill="#263238"/>
<path d="M135.735 135.152C135.798 135.185 135.993 134.85 136.397 134.711C136.798 134.567 137.159 134.703 137.188 134.637C137.203 134.608 137.129 134.527 136.971 134.468C136.813 134.409 136.567 134.383 136.313 134.468C136.059 134.556 135.882 134.733 135.798 134.88C135.709 135.027 135.706 135.134 135.735 135.148V135.152Z" fill="#263238"/>
<path d="M134.194 133.787C134.264 133.813 134.425 133.482 134.782 133.25C135.132 133.007 135.5 132.985 135.503 132.911C135.522 132.845 135.077 132.746 134.643 133.04C134.205 133.327 134.128 133.78 134.194 133.787Z" fill="#263238"/>
<path d="M133.44 132.606C133.469 132.625 133.66 132.393 133.944 132.003C134.105 131.775 134.264 131.547 134.429 131.311C134.514 131.175 134.628 131.057 134.698 130.844C134.727 130.737 134.727 130.609 134.661 130.494C134.602 130.373 134.44 130.296 134.311 130.314C134.061 130.351 133.921 130.48 133.774 130.594C133.635 130.715 133.517 130.851 133.425 130.995C133.241 131.278 133.153 131.576 133.123 131.826C133.068 132.338 133.234 132.625 133.256 132.613C133.3 132.602 133.204 132.308 133.3 131.856C133.348 131.631 133.443 131.37 133.616 131.127C133.704 131.006 133.807 130.888 133.933 130.785C134.054 130.686 134.212 130.579 134.33 130.568C134.389 130.568 134.414 130.579 134.44 130.62C134.466 130.664 134.473 130.723 134.455 130.781C134.425 130.903 134.311 131.046 134.234 131.182C134.083 131.429 133.936 131.668 133.793 131.907C133.546 132.323 133.41 132.591 133.44 132.61V132.606Z" fill="#263238"/>
<path d="M133.234 132.776C133.259 132.776 133.237 132.47 132.925 132.125C132.619 131.797 131.953 131.448 131.218 131.816C131.166 131.86 131.122 131.944 131.129 132.022C131.129 132.103 131.166 132.161 131.199 132.206C131.269 132.294 131.343 132.338 131.405 132.386C131.538 132.478 131.677 132.555 131.814 132.618C132.086 132.743 132.351 132.805 132.571 132.827C133.02 132.875 133.289 132.787 133.285 132.761C133.285 132.721 133.013 132.739 132.601 132.651C132.398 132.607 132.159 132.529 131.917 132.404C131.795 132.342 131.674 132.268 131.552 132.18C131.493 132.136 131.431 132.092 131.402 132.051C131.372 132 131.379 132.014 131.39 132C131.409 131.977 131.486 131.955 131.556 131.937C131.626 131.919 131.699 131.908 131.769 131.904C131.913 131.893 132.049 131.904 132.178 131.933C132.435 131.989 132.645 132.114 132.799 132.25C133.108 132.522 133.193 132.787 133.23 132.772L133.234 132.776Z" fill="#263238"/>
<path opacity="0.6" d="M138.858 132.666C138.858 133.045 139.164 133.35 139.543 133.35C139.922 133.35 140.227 133.045 140.227 132.666C140.227 132.287 139.922 131.981 139.543 131.981C139.164 131.981 138.858 132.287 138.858 132.666Z" fill="white"/>
<path opacity="0.3" d="M131.354 130.374L132.457 131.588L137.111 126.978L136.464 126.136L131.354 130.374Z" fill="black"/>
<path d="M117.028 34.4234C120.078 33.3566 123.44 33.2057 126.575 33.9893C127.976 34.3388 129.4 34.9237 130.301 36.0531C131.365 37.3922 131.497 39.2169 131.663 40.9202C131.994 44.382 132.634 47.8143 133.568 51.1657C134.348 53.9542 135.334 56.6986 135.757 59.5644C136.177 62.4302 135.985 65.4947 134.525 67.9963C132.273 71.8517 127.487 73.555 123.025 73.6322C120.674 73.6727 118.272 73.3269 116.19 72.2416C114.107 71.1564 112.375 69.2508 111.867 66.9552" fill="#865DFF"/>
<path d="M123.161 37.9565C123.132 37.9896 123.779 38.3943 124.437 39.3875C124.772 39.8805 125.1 40.5059 125.434 41.2233C125.773 41.937 126.122 42.7426 126.623 43.5262C127.123 44.3061 127.756 44.9683 128.466 45.373C129.172 45.7887 129.952 45.888 130.555 45.7813C131.166 45.682 131.615 45.4134 131.861 45.1817C131.986 45.0676 132.071 44.9609 132.119 44.8874C132.167 44.8138 132.189 44.7696 132.185 44.766C132.167 44.7513 132.06 44.9058 131.802 45.1118C131.549 45.3141 131.115 45.5459 130.533 45.6158C129.956 45.693 129.242 45.5863 128.576 45.1854C127.91 44.7954 127.307 44.159 126.821 43.4011C126.336 42.6396 125.983 41.8413 125.633 41.1313C125.287 40.4176 124.938 39.7849 124.577 39.2956C124.22 38.8026 123.867 38.4568 123.602 38.2434C123.338 38.0337 123.168 37.9454 123.161 37.9565Z" fill="#E0E0E0"/>
<path d="M129.628 72.4156C129.628 72.4156 129.639 72.3163 129.639 72.1287C129.639 71.9153 129.632 71.6431 129.625 71.3046C129.61 70.5873 129.569 69.5535 129.514 68.2733C129.404 65.7165 129.202 62.1849 128.896 58.289C128.591 54.3931 128.238 50.8725 127.947 48.3304C127.804 47.0576 127.678 46.0312 127.583 45.3212C127.535 44.9864 127.498 44.7178 127.469 44.5045C127.439 44.3168 127.421 44.2212 127.414 44.2212C127.406 44.2212 127.41 44.3205 127.421 44.5081C127.439 44.7215 127.461 44.9937 127.491 45.3285C127.561 46.0716 127.66 47.0943 127.781 48.3451C128.028 50.8909 128.355 54.4115 128.661 58.3037C128.966 62.1959 129.194 65.7239 129.349 68.277C129.426 69.5314 129.488 70.5578 129.533 71.301C129.558 71.6394 129.577 71.9116 129.591 72.125C129.606 72.3126 129.621 72.412 129.628 72.412V72.4156Z" fill="#E0E0E0"/>
<path d="M128.709 56.774C128.709 56.8365 130.121 56.8218 131.839 56.6048C133.561 56.3914 134.929 56.064 134.918 56.0051C134.904 55.9389 133.524 56.1596 131.81 56.3693C130.099 56.5827 128.701 56.7041 128.705 56.774H128.709Z" fill="#E0E0E0"/>
<path d="M129.849 56.7409C129.82 56.7335 129.728 56.9874 129.658 57.4104C129.621 57.6238 129.592 57.8776 129.58 58.1646C129.58 58.3081 129.58 58.4773 129.658 58.6465C129.735 58.8194 129.915 58.9629 130.136 58.9666C130.246 58.9666 130.368 58.9151 130.438 58.8268C130.511 58.7385 130.537 58.6355 130.544 58.5472C130.559 58.3632 130.511 58.2124 130.478 58.0763C130.408 57.7967 130.316 57.5539 130.228 57.3589C130.048 56.9653 129.878 56.7556 129.853 56.7703C129.823 56.7887 129.937 57.0241 130.07 57.4215C130.136 57.6201 130.206 57.8592 130.265 58.1278C130.29 58.2639 130.324 58.4037 130.313 58.5288C130.302 58.6539 130.235 58.7311 130.136 58.7311C129.886 58.7238 129.786 58.4331 129.798 58.1683C129.798 57.8923 129.809 57.6422 129.82 57.4325C129.849 57.0131 129.878 56.7519 129.845 56.7446L129.849 56.7409Z" fill="#E0E0E0"/>
<path d="M113.99 35.7595L128.771 34.0337C130.706 33.8077 132.092 32.0556 131.866 30.1203L131.545 27.3762C131.319 25.4409 129.567 24.0552 127.632 24.2812L112.852 26.007C110.916 26.233 109.531 27.9851 109.757 29.9204L110.077 32.6645C110.303 34.5998 112.055 35.9855 113.99 35.7595Z" fill="#455A64"/>
<path d="M127.388 24.5186C127.388 24.5186 127.344 24.4892 127.248 24.4561C127.152 24.4266 127.005 24.3972 126.814 24.3899C126.435 24.3788 125.854 24.4965 125.302 24.9159C124.765 25.3206 124.14 25.8982 123.779 26.7443C123.404 27.5757 123.282 28.5947 123.36 29.6285C123.418 30.6733 123.797 31.6445 124.353 32.3655C124.908 33.0903 125.633 33.5464 126.284 33.7561C126.935 33.9732 127.506 33.9805 127.881 33.9327C128.068 33.9106 128.216 33.8738 128.308 33.8481C128.403 33.8187 128.451 33.8003 128.451 33.7929C128.447 33.7708 128.245 33.8223 127.874 33.8444C127.506 33.8665 126.961 33.8297 126.343 33.6016C125.725 33.3809 125.048 32.9357 124.529 32.2368C124.007 31.5452 123.658 30.6218 123.599 29.6175C123.521 28.6095 123.636 27.6383 123.981 26.8399C124.309 26.0343 124.894 25.4677 125.405 25.0594C125.92 24.6437 126.457 24.5113 126.818 24.4929C127.186 24.4782 127.388 24.548 127.392 24.526L127.388 24.5186Z" fill="#263238"/>
<path d="M118.941 25.2659L121.218 25.0415C120.611 25.2071 120.1 25.6412 119.758 26.1672C119.416 26.6933 119.228 27.3077 119.133 27.9294C118.724 30.5487 120.119 33.3703 122.359 34.7867L120.527 35.0295C120.527 35.0295 115.266 30.328 118.945 25.2622" fill="#263238"/>
<path d="M116.355 30.0886C117.525 30.4123 118.842 30.1511 119.799 29.4043C120.755 28.6575 121.333 27.4472 121.303 26.2332C121.277 25.1001 120.766 23.945 121.119 22.8708C121.362 22.1313 121.98 21.5537 122.19 20.8069C122.499 19.6886 121.822 18.5555 121.178 17.5917C120.762 16.9736 120.339 16.3445 119.762 15.8737C119.184 15.4028 118.419 15.1048 117.691 15.263" fill="#263238"/>
<path d="M105.911 15.354C105.974 16.2075 105.411 16.9727 104.84 17.6128C104.27 18.2529 103.638 18.9225 103.516 19.7723C103.299 21.2769 104.771 22.6712 104.465 24.1611C104.303 24.9594 103.649 25.5995 103.535 26.4052C103.42 27.1851 103.84 27.9466 104.359 28.5426C104.877 29.1348 105.506 29.6315 105.966 30.2716C106.448 30.9485 106.713 31.7468 107.059 32.501C107.405 33.2551 107.872 34.0019 108.6 34.3992C109.697 34.9952 111.234 34.7156 112.073 35.6353C112.886 36.5256 113.883 36.6654 114.884 37.3386" fill="#263238"/>
<path d="M119.052 16.6636C119.074 15.8874 118.356 15.2878 117.635 15.0045C116.914 14.7212 116.112 14.6145 115.469 14.1804C114.898 13.7978 114.516 13.1982 114.034 12.7089C112.849 11.5096 111.003 11.013 109.376 11.4544C107.75 11.8996 106.411 13.2644 106.003 14.8978C105.727 16.0014 105.915 17.3074 106.787 18.0432C107.798 18.8967 109.296 18.7054 110.59 18.4405C111.885 18.1756 113.35 17.9144 114.431 18.6759C115.082 19.1358 115.458 19.8789 115.855 20.5705C116.252 21.2622 116.752 21.9648 117.507 22.226C118.261 22.4872 119.284 22.0384 119.313 21.2401" fill="#263238"/>
<path d="M115.995 16.8231C116.664 16.8966 117.168 17.4668 117.154 18.1401L116.381 35.666C116.348 37.7371 113.324 38.8996 111.106 38.8481C108.869 38.7966 108.795 37.7003 108.766 35.7285C108.718 32.4396 108.722 31.2035 108.722 31.2219C108.722 31.2219 105.896 30.7474 105.319 27.0538C105.032 25.2181 105.131 22.2088 105.289 19.7514C105.433 17.5367 106.908 14.8255 109.112 15.0646L115.995 16.8194V16.8231Z" fill="#FFBE9D"/>
<path d="M105.988 21.8641C105.977 22.1142 106.183 22.3276 106.444 22.3423C106.706 22.357 106.923 22.1657 106.934 21.9156C106.945 21.6654 106.739 21.452 106.478 21.4373C106.216 21.4226 105.999 21.6139 105.988 21.8641Z" fill="#263238"/>
<path d="M105.94 21.3226C105.999 21.3852 106.36 21.1203 106.867 21.124C107.375 21.1203 107.75 21.3815 107.806 21.319C107.831 21.2932 107.772 21.1792 107.611 21.0614C107.452 20.9437 107.177 20.826 106.86 20.8297C106.544 20.8297 106.275 20.9474 106.121 21.0651C105.963 21.1865 105.911 21.2969 105.94 21.3226Z" fill="#263238"/>
<path d="M111.058 21.9959C111.047 22.2461 111.253 22.4594 111.514 22.4741C111.775 22.4889 111.992 22.2976 112.003 22.0474C112.014 21.7972 111.808 21.5839 111.547 21.5692C111.286 21.5544 111.069 21.7457 111.058 21.9959Z" fill="#263238"/>
<path d="M110.944 21.4286C111.002 21.4911 111.363 21.2263 111.871 21.2299C112.378 21.2263 112.754 21.4875 112.809 21.4249C112.835 21.3992 112.776 21.2851 112.614 21.1674C112.456 21.0497 112.18 20.932 111.863 20.9356C111.547 20.9356 111.278 21.0534 111.124 21.1711C110.966 21.2925 110.914 21.4028 110.944 21.4286Z" fill="#263238"/>
<path d="M109.086 25.1995C109.086 25.1701 108.773 25.1149 108.258 25.0487C108.129 25.034 108.004 25.0082 107.982 24.9199C107.953 24.8243 108.008 24.6845 108.071 24.5336C108.192 24.2209 108.321 23.8899 108.457 23.544C108.994 22.1351 109.384 20.9762 109.325 20.9578C109.27 20.9358 108.788 22.0615 108.251 23.4705C108.122 23.8163 107.997 24.1474 107.879 24.4674C107.831 24.6146 107.743 24.7838 107.809 24.9788C107.842 25.0744 107.938 25.148 108.023 25.1701C108.107 25.1958 108.181 25.1958 108.243 25.1995C108.758 25.2289 109.079 25.2326 109.082 25.1995H109.086Z" fill="#263238"/>
<path d="M108.722 31.2249C108.722 31.2249 111.205 31.3905 113.666 29.9189C113.666 29.9189 112.463 32.45 108.769 32.0968L108.722 31.2249Z" fill="#EB996E"/>
<path d="M109.299 26.4285C109.483 26.1857 109.803 26.0533 110.123 26.0901C110.344 26.1158 110.568 26.2225 110.701 26.4028C110.833 26.583 110.863 26.8369 110.741 27.0098C110.605 27.2011 110.315 27.2452 110.072 27.1753C109.829 27.1054 109.619 26.9435 109.421 26.7854C109.365 26.7412 109.31 26.6934 109.277 26.6345C109.244 26.5757 109.237 26.4947 109.277 26.4432" fill="#EB996E"/>
<path d="M110.587 25.5565C110.506 25.5528 110.502 26.1046 110.028 26.4946C109.553 26.8882 108.964 26.822 108.961 26.8993C108.953 26.9324 109.093 27.0059 109.34 27.0133C109.582 27.0207 109.939 26.9434 110.23 26.7043C110.521 26.4652 110.646 26.1451 110.664 25.917C110.686 25.6852 110.624 25.5491 110.587 25.5528V25.5565Z" fill="#263238"/>
<path d="M110.716 20.534C110.767 20.6738 111.275 20.6075 111.871 20.6811C112.47 20.7436 112.952 20.9166 113.03 20.7952C113.066 20.7363 112.982 20.6039 112.787 20.4714C112.595 20.339 112.286 20.2102 111.926 20.1698C111.569 20.1293 111.238 20.1845 111.021 20.2728C110.8 20.3611 110.69 20.4677 110.712 20.534H110.716Z" fill="#263238"/>
<path d="M106.128 19.8461C106.216 19.9601 106.57 19.8461 106.989 19.8387C107.412 19.8203 107.769 19.9196 107.85 19.7982C107.887 19.7394 107.831 19.6253 107.673 19.515C107.519 19.4046 107.261 19.3163 106.974 19.3237C106.684 19.331 106.433 19.4377 106.286 19.5554C106.135 19.6732 106.088 19.7946 106.128 19.8497V19.8461Z" fill="#263238"/>
<path d="M118.57 28.9615C117.554 29.1675 116.451 28.8548 115.693 28.1485C114.935 27.4422 114.541 26.3643 114.674 25.3379C114.788 24.4329 115.277 23.5095 114.965 22.6524C114.549 21.5193 112.96 21.1698 112.537 20.0367C112.29 19.3782 112.511 18.6093 112.235 17.9655C111.974 17.3585 111.337 17.009 110.716 16.7846C110.094 16.5602 109.428 16.4057 108.909 16.0011C108.387 15.5964 108.063 14.8312 108.398 14.2646C111.15 14.5957 113.865 15.2542 116.458 16.2218C117.061 16.4462 117.694 16.7184 118.047 17.2518C118.423 17.8184 118.404 18.5505 118.375 19.2311C118.22 22.5457 118.066 25.8566 117.911 29.1712" fill="#263238"/>
<path d="M120.56 32.0257C120.531 32.0294 120.608 31.6689 120.369 31.106C120.251 30.8264 120.041 30.5137 119.74 30.2084C119.438 29.8993 119.03 29.6198 118.548 29.3622C118.066 29.101 117.514 28.8619 116.944 28.5382C116.381 28.2144 115.8 27.7693 115.417 27.1182C115.226 26.7944 115.108 26.4081 115.108 26.0108C115.108 25.6135 115.196 25.2272 115.274 24.841C115.351 24.4584 115.428 24.0611 115.351 23.6821C115.285 23.2995 115.02 22.9832 114.67 22.7845C114.321 22.5785 113.923 22.4497 113.548 22.2732C113.177 22.1003 112.798 21.8501 112.595 21.4749C112.389 21.107 112.334 20.6913 112.32 20.3087C112.305 19.9224 112.331 19.5472 112.327 19.1903C112.323 18.8335 112.294 18.484 112.18 18.1713C112.069 17.8623 111.874 17.5974 111.621 17.4134C111.113 17.0382 110.513 16.9094 109.983 16.7733C109.45 16.6409 108.961 16.4827 108.593 16.2215C108.218 15.964 108.015 15.6071 107.931 15.3055C107.842 15.0001 107.887 14.7426 107.942 14.5918C108.004 14.4373 108.07 14.3784 108.07 14.3784C108.082 14.3858 108.03 14.4557 107.979 14.6065C107.934 14.7573 107.909 15.0001 108.001 15.2871C108.093 15.5704 108.295 15.9014 108.652 16.1332C109.009 16.3723 109.483 16.5195 110.017 16.6409C110.546 16.7696 111.164 16.891 111.716 17.2847C111.992 17.4797 112.217 17.7703 112.338 18.1087C112.463 18.4472 112.496 18.8151 112.503 19.183C112.511 19.5508 112.489 19.9224 112.503 20.2976C112.518 20.6692 112.577 21.0518 112.761 21.3755C112.941 21.7066 113.272 21.9273 113.633 22.0966C113.997 22.2695 114.394 22.3946 114.773 22.6153C114.961 22.7257 115.137 22.8654 115.274 23.042C115.413 23.2149 115.498 23.4283 115.542 23.638C115.627 24.0684 115.542 24.4841 115.461 24.8704C115.38 25.2604 115.292 25.6356 115.296 26.0035C115.296 26.3677 115.399 26.7208 115.575 27.0262C115.928 27.6406 116.484 28.0746 117.028 28.3984C117.58 28.7221 118.132 28.9686 118.618 29.2408C119.103 29.5057 119.519 29.8037 119.821 30.1311C120.126 30.4548 120.332 30.7859 120.442 31.0766C120.556 31.3672 120.586 31.6137 120.586 31.7755C120.59 31.8565 120.578 31.919 120.575 31.9595C120.571 31.9999 120.567 32.022 120.564 32.022L120.56 32.0257Z" fill="#263238"/>
<path d="M109.807 34.5577C109.807 34.5577 109.748 34.5834 109.627 34.6129C109.568 34.6313 109.491 34.6423 109.399 34.6533C109.307 34.6681 109.204 34.6754 109.086 34.6754C108.615 34.6865 107.901 34.5614 107.188 34.0795C106.838 33.8366 106.485 33.5092 106.231 33.0678C105.966 32.63 105.837 32.0966 105.738 31.5521C105.635 31.0076 105.55 30.4264 105.26 29.9224C104.973 29.4147 104.436 29.0726 103.958 28.6385C103.457 28.2117 103.137 27.5937 103.053 26.9757C102.964 26.3576 103.1 25.7322 103.395 25.2429C103.678 24.7537 104.013 24.349 104.167 23.8891C104.325 23.4366 104.355 22.9768 104.325 22.5684C104.252 21.7444 104.013 21.1006 103.858 20.6591C103.7 20.2177 103.604 19.9749 103.619 19.9712C103.626 19.9712 103.656 20.0264 103.711 20.1367C103.763 20.2471 103.84 20.4126 103.928 20.6334C104.101 21.0675 104.366 21.7076 104.462 22.5574C104.502 22.9805 104.484 23.4624 104.322 23.9443C104.164 24.4336 103.821 24.8603 103.553 25.3312C103.281 25.7984 103.159 26.3723 103.244 26.9499C103.329 27.5275 103.615 28.0903 104.09 28.4987C104.55 28.9181 105.109 29.2712 105.425 29.8304C105.738 30.3822 105.815 30.9819 105.915 31.5227C106.007 32.0671 106.124 32.5748 106.371 32.9905C106.606 33.4099 106.937 33.73 107.269 33.9728C107.942 34.451 108.63 34.5945 109.09 34.6055C109.553 34.6202 109.807 34.5467 109.811 34.5651L109.807 34.5577Z" fill="#263238"/>
<path d="M120.52 16.9744C120.52 16.9744 120.564 17.0185 120.582 17.1252C120.604 17.2319 120.575 17.4085 120.439 17.5703C120.31 17.7285 120.082 17.8867 119.78 17.9051C119.478 17.9125 119.162 17.78 118.846 17.6255C118.529 17.4673 118.18 17.3239 117.768 17.3092C117.363 17.2834 116.925 17.3459 116.465 17.4269C116.006 17.5078 115.516 17.6108 114.994 17.6182C114.475 17.6255 113.89 17.471 113.482 17.0664C113.066 16.6727 112.831 16.1761 112.614 15.7162C112.397 15.2564 112.191 14.8112 111.911 14.4507C111.367 13.7076 110.436 13.5016 109.781 13.6745C109.108 13.8437 108.7 14.3036 108.497 14.6236C108.291 14.9547 108.247 15.1754 108.225 15.1718C108.218 15.1718 108.225 15.1166 108.254 15.0136C108.284 14.9106 108.335 14.7634 108.431 14.5868C108.622 14.2447 109.027 13.7444 109.744 13.542C110.097 13.4464 110.517 13.439 110.929 13.5641C111.345 13.6818 111.749 13.9577 112.047 14.3403C112.349 14.7193 112.562 15.1754 112.783 15.6353C113.004 16.0915 113.235 16.5697 113.614 16.9266C113.986 17.2908 114.505 17.4306 114.994 17.4306C115.491 17.4306 115.973 17.3312 116.436 17.254C116.9 17.1767 117.352 17.1179 117.779 17.151C118.209 17.173 118.596 17.3386 118.905 17.5041C119.217 17.666 119.512 17.7948 119.776 17.7984C120.041 17.7948 120.258 17.6586 120.383 17.5225C120.512 17.3827 120.553 17.2319 120.545 17.1326C120.542 17.0332 120.512 16.9817 120.523 16.9781L120.52 16.9744Z" fill="#455A64"/>
<path d="M118.456 15.9144C117.253 15.6348 116.326 14.4429 116.359 13.2068C116.388 11.9707 117.371 10.8266 118.588 10.6058C119.177 10.4992 119.854 10.6316 120.207 11.1135C120.545 11.5734 120.523 12.2613 120.954 12.6366C121.414 13.0375 122.124 12.8646 122.719 12.9934C123.647 13.1921 124.265 14.2074 124.158 15.1492C124.051 16.091 123.33 16.8929 122.455 17.2535C121.579 17.614 120.578 17.5735 119.666 17.3087C118.757 17.0438 117.922 16.5692 117.12 16.0726" fill="#263238"/>
<path d="M122.889 13.2472C122.907 13.2545 122.848 13.5304 122.616 13.9241C122.392 14.3177 121.973 14.807 121.38 15.1786C120.788 15.5464 120.163 15.7083 119.71 15.7377C119.258 15.7708 118.982 15.701 118.982 15.6826C118.982 15.6494 119.261 15.6678 119.692 15.6016C120.122 15.5391 120.711 15.3662 121.277 15.0167C121.84 14.6635 122.256 14.211 122.502 13.8505C122.753 13.49 122.856 13.2325 122.889 13.2472Z" fill="#455A64"/>
<path d="M120.935 17.3276C120.887 17.368 120.325 16.4263 119.188 15.7861C118.062 15.1276 116.966 15.1166 116.977 15.0541C116.977 15.032 117.245 15.0026 117.68 15.0614C118.11 15.1203 118.702 15.2858 119.283 15.6206C119.865 15.9554 120.306 16.3821 120.575 16.7242C120.843 17.0701 120.954 17.3165 120.935 17.3276Z" fill="#865DFF"/>
<path d="M94.1314 57.3934C94.1314 57.3934 90.3655 54.9687 88.1828 56.2346C86 57.5005 87 58.5002 87 58.5002L86.7002 59.0379L84.367 57.7613C84.367 57.7613 84.721 58.5081 85.1882 59.288C85.6554 60.0679 86.2771 60.6896 86.6818 60.7228C87.2888 60.7706 87.3955 60.7779 86.6818 60.7228C86.6818 60.7228 86.8106 61.4475 87.4728 62.1501C87.8664 62.5695 88.9001 63.2317 90.162 62.8933L94.1682 61.4475L94.1314 57.3971V57.3934Z" fill="#FFBE9D"/>
<path d="M88.1166 60.3804C88.1534 60.4135 87.8223 60.7226 87.2962 60.7814C86.7664 60.844 86.3765 60.6195 86.4059 60.5791C86.4243 60.5276 86.8069 60.6527 87.2741 60.5938C87.745 60.5423 88.0871 60.3363 88.1166 60.3841V60.3804Z" fill="#EB996E"/>
<path d="M88.8928 61.6544C88.9296 61.6875 88.6757 61.9781 88.2306 62.0921C87.7891 62.2099 87.4249 62.0811 87.4396 62.0333C87.4507 61.9781 87.7891 62.0112 88.1828 61.9045C88.5764 61.8052 88.856 61.6102 88.8928 61.6544Z" fill="#EB996E"/>
<path d="M90.4011 57.1472C90.4121 57.1766 90.1988 57.2612 89.8824 57.4488C89.5623 57.6328 89.154 57.9344 88.6794 58.2545C88.2085 58.5782 87.7303 58.8173 87.3624 58.913C86.9908 59.0123 86.7517 58.9903 86.7517 58.9682C86.7517 58.9387 86.9798 58.913 87.3219 58.7842C87.6641 58.6592 88.1092 58.4127 88.5764 58.0963C89.0436 57.7762 89.4777 57.4856 89.8235 57.3274C90.1657 57.1656 90.4011 57.1214 90.4085 57.1435L90.4011 57.1472Z" fill="#EB996E"/>
<path d="M126.571 67.2881C126.571 67.2881 126.777 67.4168 127.281 68.3182C128.837 71.0957 129.466 77.7506 123.595 83.6919C116.006 91.3696 107.125 103.925 107.125 103.925L100.15 133.415L89.6139 131.134L95.0438 100.482L109.932 72.8652L126.568 67.2918L126.571 67.2881Z" fill="#263238"/>
<path d="M138.196 124.364L121.965 99.5249L117.039 78.0811L104.506 84.2431L110.793 106.007L130.85 130.993L138.196 124.364Z" fill="#263238"/>
<path d="M100.154 133.415C100.154 133.415 100.157 133.363 100.179 133.268C100.201 133.165 100.231 133.025 100.271 132.845C100.356 132.462 100.481 131.921 100.636 131.222C100.963 129.806 101.434 127.775 102.011 125.27C103.196 120.237 104.826 113.303 106.625 105.644C106.764 105.048 106.908 104.455 107.037 103.9V103.878L107.055 103.863C111.657 97.9805 115.844 92.775 118.93 89.0778C120.475 87.231 121.734 85.7558 122.631 84.7589C123.073 84.2549 123.43 83.8796 123.669 83.6221C123.783 83.5007 123.875 83.4051 123.945 83.3315C124.007 83.2653 124.04 83.2358 124.044 83.2358C124.044 83.2358 124.018 83.2726 123.959 83.3425C123.893 83.4161 123.808 83.5191 123.698 83.6442C123.47 83.9127 123.121 84.2953 122.686 84.8067C121.811 85.8184 120.564 87.3046 119.033 89.1624C115.976 92.8817 111.808 98.0983 107.21 103.984L107.228 103.948C107.096 104.499 106.956 105.092 106.816 105.691C104.995 113.347 103.343 120.274 102.148 125.303C101.544 127.805 101.051 129.832 100.713 131.244C100.54 131.936 100.408 132.477 100.312 132.856C100.268 133.032 100.231 133.172 100.201 133.275C100.176 133.371 100.161 133.419 100.157 133.415H100.154Z" fill="#455A64"/>
<path d="M119.188 75.1319C119.188 75.1319 119.103 75.1981 118.934 75.2716C118.765 75.3489 118.507 75.4372 118.18 75.5144C117.532 75.669 116.572 75.7315 115.575 75.4409C114.582 75.1502 113.802 74.5874 113.339 74.1055C113.103 73.8663 112.938 73.6493 112.835 73.4948C112.732 73.3403 112.684 73.2446 112.695 73.2409C112.72 73.2225 112.952 73.5647 113.434 74.0098C113.912 74.455 114.674 74.981 115.63 75.2569C116.587 75.5365 117.514 75.4997 118.154 75.382C118.802 75.2643 119.177 75.0987 119.192 75.1319H119.188Z" fill="#455A64"/>
<path d="M128.135 68.5441C121.789 71.8881 111.481 73.8857 108.188 72.5282L108.074 60.2998C108.074 60.2998 103.56 52.8539 103.542 50.0396C103.516 45.9819 108.567 36.7333 108.567 36.7333L116.149 34.7247C117.933 34.7173 119.375 35.1257 120.538 35.7437C123.459 37.2962 125.048 40.5556 124.721 43.8445L122.811 56.0103L128.138 68.5441H128.135Z" fill="#865DFF"/>
<path d="M120.534 35.7405C120.534 35.7405 119.445 33.9415 115.785 34.7214C113.338 35.2438 107.997 40.3721 109.487 48.62C110.977 56.8679 114.972 59.7852 114.972 59.7852C114.972 59.7852 111.297 47.1632 113.338 41.656C115.38 36.1488 120.534 35.7405 120.534 35.7405Z" fill="#263238"/>
<path d="M112.757 50.4189C112.757 50.4189 112.264 59.7043 123.591 57.8575L124.732 60.543C124.732 60.543 112.823 63.0594 111.135 53.1965L112.757 50.4189Z" fill="#263238"/>
<path d="M123.08 38.8752C124.07 40.2879 124.327 42.0868 123.919 43.7607L121.097 56.3901C119.887 59.9438 116.432 62.0996 114.284 62.3902L94.1645 64.5092V57.0118L112.842 54.238L113.717 44.0109C113.795 42.635 114.472 40.1628 115.347 39.096C116.326 37.904 117.83 36.2853 120.288 36.6974C121.796 36.9512 122.433 37.9519 123.08 38.8752Z" fill="#865DFF"/>
<path d="M123.665 44.2495C123.665 44.2495 123.665 44.3488 123.643 44.5328C123.624 44.7204 123.588 44.9926 123.544 45.3458C123.448 46.0485 123.297 47.0675 123.076 48.3183C122.856 49.5691 122.561 51.0553 122.186 52.6924C121.995 53.5128 121.796 54.3699 121.55 55.2529C121.303 56.1358 121.005 57.0444 120.564 57.92C120.126 58.7956 119.552 59.5828 118.864 60.2045C118.18 60.8299 117.418 61.3082 116.649 61.665C115.112 62.3861 113.589 62.651 112.327 62.7871C111.058 62.9158 110.028 62.9232 109.318 62.9305C108.975 62.9305 108.703 62.9305 108.501 62.9269C108.313 62.9269 108.214 62.9195 108.214 62.9122C108.214 62.9048 108.313 62.8974 108.497 62.8901C108.703 62.8827 108.975 62.8717 109.314 62.857C110.024 62.8275 111.05 62.7981 112.308 62.651C113.559 62.5001 115.064 62.2205 116.572 61.5032C117.323 61.15 118.069 60.6754 118.735 60.0647C119.405 59.4577 119.964 58.6925 120.391 57.8354C120.821 56.9782 121.119 56.0806 121.366 55.205C121.612 54.3295 121.814 53.4723 122.009 52.6556C122.396 51.0222 122.701 49.5433 122.937 48.2962C123.176 47.0491 123.345 46.0374 123.463 45.3348C123.518 45 123.566 44.7314 123.599 44.5291C123.632 44.3452 123.65 44.2495 123.658 44.2495H123.665Z" fill="#263238"/>
<path d="M113.386 56.3899C113.335 56.4046 113.132 55.9153 112.934 55.2973C112.735 54.6793 112.614 54.1605 112.662 54.1458C112.713 54.1311 112.915 54.6204 113.114 55.2384C113.313 55.8565 113.434 56.3752 113.386 56.3899Z" fill="#263238"/>
<path d="M114.53 56.1033C114.501 56.1438 114.001 55.8311 113.504 55.305C113.004 54.7826 112.717 54.2639 112.761 54.2382C112.805 54.2087 113.158 54.6612 113.644 55.1726C114.129 55.6839 114.564 56.0592 114.53 56.1033Z" fill="#263238"/>
<path d="M95.9156 56.7507C95.9156 56.7507 95.945 56.7397 96.0002 56.7286C96.0664 56.7176 96.1474 56.7029 96.2504 56.6808C96.4858 56.6403 96.8059 56.5888 97.2142 56.5189C98.0714 56.3865 99.2854 56.1952 100.794 55.9598C103.843 55.4999 108.07 54.8598 112.827 54.1388L112.746 54.2234C112.812 53.5244 112.882 52.7886 112.956 52.0418C113.199 49.3857 113.453 46.8621 113.578 44.5554C113.67 43.3966 113.89 42.3077 114.203 41.3254C114.516 40.3432 114.928 39.4492 115.52 38.7797C116.712 37.4811 118.047 36.7931 119.03 36.6681C119.519 36.5945 119.905 36.646 120.159 36.6864C120.284 36.7159 120.38 36.7416 120.442 36.76C120.505 36.7784 120.538 36.7895 120.538 36.7931C120.538 36.8299 120.008 36.5908 119.041 36.7416C118.084 36.8851 116.782 37.5804 115.619 38.868C115.056 39.5191 114.655 40.4021 114.354 41.3733C114.052 42.3481 113.839 43.426 113.754 44.5702C113.64 46.8768 113.39 49.4078 113.147 52.0639C113.074 52.8107 113.004 53.5501 112.937 54.2454L112.93 54.319L112.857 54.3301C108.092 55.0253 103.866 55.6434 100.812 56.0885C99.3038 56.3019 98.0824 56.4711 97.2253 56.5925C96.8132 56.6477 96.4895 56.6882 96.2541 56.7213C96.1511 56.7323 96.0701 56.7434 96.0002 56.7507C95.945 56.7544 95.9156 56.7581 95.9119 56.7507H95.9156Z" fill="#263238"/>
<path d="M107.434 62.8723C107.382 62.8759 107.169 61.1763 106.959 59.072C106.75 56.9678 106.621 55.2571 106.672 55.2534C106.724 55.2497 106.937 56.9494 107.147 59.0536C107.357 61.1579 107.485 62.8686 107.434 62.8723Z" fill="#FAFAFA"/>
<path d="M122.16 51.4681C122.16 51.4938 121.671 51.5012 120.88 51.4865C120.089 51.4754 119 51.4423 117.794 51.3982C116.587 51.354 115.498 51.3025 114.711 51.2547C113.923 51.2069 113.434 51.1664 113.438 51.1406C113.438 51.1149 113.927 51.1075 114.718 51.1222C115.509 51.1333 116.598 51.1664 117.801 51.2105C119.004 51.2547 120.093 51.3062 120.884 51.354C121.675 51.4018 122.16 51.4423 122.16 51.4681Z" fill="#FAFAFA"/>
<path d="M109.391 49.0767C109.391 49.1024 109.075 49.1503 108.556 49.1871C108.037 49.2238 107.324 49.2496 106.529 49.2349C105.738 49.2202 105.021 49.165 104.506 49.1061C103.991 49.0473 103.674 48.9884 103.678 48.9627C103.678 48.9369 104.002 48.9479 104.517 48.97C105.032 48.9921 105.745 49.0252 106.533 49.0399C107.32 49.0546 108.034 49.0509 108.549 49.0473C109.064 49.0473 109.387 49.0473 109.387 49.073L109.391 49.0767Z" fill="#FAFAFA"/>
<path d="M111.05 40.3395C111.021 40.3874 110.248 39.9827 109.248 39.6038C108.247 39.2212 107.397 39.0115 107.412 38.9563C107.419 38.9085 108.298 39.0372 109.318 39.4235C110.337 39.8098 111.08 40.2954 111.054 40.3359L111.05 40.3395Z" fill="#FAFAFA"/>
<path d="M125.663 63.2954C125.663 63.2954 125.607 63.3285 125.497 63.3763C125.365 63.4315 125.206 63.4977 125.011 63.575C124.588 63.7479 123.97 63.976 123.201 64.2445C121.664 64.7817 119.508 65.4438 117.084 65.9993C114.659 66.5548 112.43 66.897 110.811 67.0809C110.002 67.1729 109.347 67.2354 108.891 67.2649C108.681 67.2759 108.508 67.2869 108.368 67.2943C108.247 67.298 108.184 67.298 108.184 67.2943C108.184 67.2869 108.247 67.2759 108.365 67.2575C108.505 67.2391 108.677 67.217 108.883 67.1913C109.336 67.1398 109.987 67.0588 110.793 66.9485C112.404 66.7314 114.622 66.3672 117.039 65.8154C119.456 65.2599 121.612 64.6235 123.157 64.1195C123.93 63.8693 124.555 63.6559 124.982 63.5088C125.181 63.4426 125.346 63.3874 125.479 63.3432C125.593 63.3064 125.655 63.2917 125.655 63.2991L125.663 63.2954Z" fill="#FAFAFA"/>
<path d="M124.463 41.2928C124.463 41.3443 122.293 41.3185 119.618 41.2339C116.944 41.1493 114.781 41.0353 114.781 40.9801C114.781 40.9286 116.951 40.9543 119.626 41.039C122.3 41.1236 124.463 41.2376 124.463 41.2928Z" fill="#FAFAFA"/>
<path d="M98.5423 63.9645C98.4908 63.9645 98.3841 62.3238 98.3069 60.2931C98.2296 58.2624 98.2075 56.6179 98.2627 56.6143C98.3142 56.6143 98.4209 58.255 98.4981 60.2857C98.5754 62.3127 98.5975 63.9609 98.5423 63.9645Z" fill="#FAFAFA"/>
<path d="M57.3875 26.3396C60.6395 25.7253 64.0645 26.0821 67.1216 27.355C68.4901 27.9252 69.8403 28.7309 70.5797 30.0111C71.4516 31.5268 71.3081 33.3993 71.2161 35.1467C71.0248 38.7041 71.1499 42.2763 71.5877 45.8116C71.9519 48.7547 72.5331 51.683 72.5258 54.6481C72.5147 57.6132 71.8526 60.6887 69.9948 62.999C67.129 66.5601 62.0228 67.5571 57.4941 66.9538C55.1103 66.6374 52.7301 65.92 50.784 64.5037C48.8416 63.0873 47.3774 60.8948 47.2119 58.4962" fill="#455A64"/>
<path d="M63.0565 30.8496C63.0234 30.879 63.612 31.3867 64.1307 32.494C64.3919 33.0422 64.631 33.7264 64.8591 34.5064C65.0946 35.2789 65.3227 36.1508 65.7089 37.019C66.0952 37.8872 66.636 38.6524 67.2945 39.1674C67.9457 39.6935 68.7182 39.9142 69.3473 39.8995C69.98 39.8921 70.4767 39.6898 70.76 39.4911C70.9071 39.3955 71.0064 39.2999 71.0653 39.2336C71.1278 39.1637 71.1573 39.1269 71.1499 39.1196C71.1352 39.1012 71.0028 39.2447 70.7085 39.4102C70.4215 39.5794 69.9469 39.745 69.3473 39.7303C68.7513 39.7229 68.0413 39.5022 67.4343 38.9945C66.8199 38.4979 66.3049 37.7621 65.9297 36.9197C65.5544 36.0735 65.319 35.2164 65.0725 34.4401C64.8334 33.6639 64.5722 32.9686 64.2852 32.4205C64.002 31.8686 63.6966 31.4603 63.4575 31.2101C63.2221 30.9563 63.0639 30.8422 63.0565 30.8533V30.8496Z" fill="#263238"/>
<path d="M64.3551 66.7227C64.3551 66.7227 64.3809 66.6234 64.4103 66.4321C64.4397 66.215 64.4765 65.9391 64.5207 65.597C64.6126 64.8686 64.734 63.8164 64.8702 62.5141C65.1461 59.9058 65.4808 56.3006 65.7641 52.3128C66.0474 48.3212 66.2276 44.705 66.3196 42.0857C66.3674 40.776 66.3969 39.7165 66.4079 38.9844C66.4079 38.6386 66.4153 38.359 66.4153 38.142C66.4153 37.9507 66.4116 37.8477 66.4005 37.8477C66.3932 37.8477 66.3785 37.947 66.3638 38.142C66.349 38.359 66.3306 38.6386 66.3086 38.9844C66.2681 39.7459 66.2129 40.7981 66.143 42.082C66.0032 44.6976 65.7972 48.3102 65.5176 52.3017C65.2344 56.2896 64.929 59.8948 64.6936 62.5031C64.5795 63.7833 64.4876 64.8318 64.4213 65.5933C64.3956 65.9391 64.3735 66.215 64.3551 66.4357C64.3441 66.627 64.3404 66.73 64.3478 66.73L64.3551 66.7227Z" fill="#263238"/>
<path d="M65.8083 50.7457C65.8009 50.8083 67.2283 51.0069 69.0052 51.0511C70.782 51.0989 72.2168 50.9775 72.2131 50.9113C72.2131 50.8414 70.7747 50.8561 69.0088 50.8083C67.243 50.7641 65.812 50.6758 65.8046 50.7457H65.8083Z" fill="#263238"/>
<path d="M66.9671 50.8856C66.9377 50.8746 66.8089 51.1137 66.6691 51.5331C66.5992 51.7428 66.533 51.9966 66.4778 52.2836C66.4521 52.4307 66.43 52.5999 66.4852 52.7839C66.5367 52.9715 66.6985 53.1407 66.9193 53.1812C67.0296 53.1996 67.1621 53.1665 67.2467 53.0856C67.335 53.0083 67.3754 52.9053 67.3975 52.817C67.438 52.6331 67.4159 52.4749 67.4049 52.3314C67.3754 52.0371 67.3203 51.7796 67.2577 51.5662C67.1363 51.1395 66.9965 50.9003 66.9671 50.9114C66.934 50.9261 67.0112 51.1836 67.0885 51.603C67.1253 51.8127 67.1621 52.0665 67.1768 52.3461C67.1841 52.4896 67.1952 52.6331 67.1621 52.7581C67.1326 52.8832 67.0554 52.9531 66.9524 52.9384C66.7022 52.8943 66.647 52.5852 66.6949 52.3167C66.7353 52.0371 66.7868 51.7869 66.831 51.5772C66.923 51.1579 66.9965 50.8967 66.9634 50.8856H66.9671Z" fill="#263238"/>
<path d="M54.0216 27.2272L69.4165 27.7352C71.3639 27.7995 72.9946 26.2729 73.0589 24.3255L73.1577 21.3326C73.2219 19.3852 71.6953 17.7544 69.7479 17.6901L54.3531 17.1821C52.4057 17.1179 50.775 18.6445 50.7107 20.5919L50.6119 23.5848C50.5477 25.5322 52.0743 27.1629 54.0216 27.2272Z" fill="#263238"/>
<path d="M69.3841 17.8844C69.3841 17.8844 69.3437 17.8476 69.2517 17.7998C69.1597 17.7556 69.0163 17.7041 68.8213 17.6673C68.4387 17.5974 67.8317 17.6305 67.21 17.969C66.603 18.2964 65.8819 18.7857 65.3889 19.5877C64.8813 20.3712 64.6017 21.3866 64.5244 22.4424C64.4251 23.5093 64.6605 24.5504 65.113 25.3634C65.5655 26.1838 66.2314 26.754 66.8568 27.0667C67.4859 27.3867 68.0561 27.4824 68.446 27.4861C68.641 27.4934 68.7919 27.4787 68.8912 27.464C68.9905 27.4493 69.0457 27.4346 69.042 27.4272C69.042 27.4051 68.8286 27.4272 68.4497 27.3904C68.0745 27.3573 67.5263 27.2359 66.9341 26.9122C66.3418 26.5921 65.7237 26.0403 65.308 25.2567C64.885 24.4768 64.6679 23.4872 64.7636 22.4608C64.8371 21.4307 65.102 20.4595 65.5729 19.7054C66.0254 18.9402 66.706 18.4546 67.2835 18.1161C67.8685 17.774 68.4313 17.7188 68.8029 17.7593C69.1781 17.7998 69.3694 17.9028 69.3805 17.8807L69.3841 17.8844Z" fill="#455A64"/>
<path d="M60.7168 17.3516L63.0566 17.4693C62.4164 17.5466 61.8315 17.9071 61.4048 18.3853C60.978 18.8673 60.6948 19.4596 60.4998 20.0739C59.6868 22.6638 60.669 25.7319 62.7218 27.5088L60.8272 27.4757C60.8272 27.4757 56.2176 21.917 60.7132 17.3442" fill="#455A64"/>
<path d="M49.283 12.9452C48.3265 10.6349 48.2787 6.614 49.7391 4.49868C51.1996 2.38336 53.9367 0.989091 56.4493 0.448305C56.8687 0.356335 57.3212 0.297473 57.7185 0.46302C58.1158 0.628567 58.4101 1.10313 58.2409 1.49677C58.7449 1.18039 59.2636 0.860332 59.8412 0.727894C60.4187 0.595457 61.0883 0.680071 61.5114 1.09578C61.9381 1.51148 62.0043 2.29507 61.5518 2.68135C62.2545 2.42383 63.0969 2.62616 63.6083 3.16695C64.1233 3.70774 64.2741 4.56122 63.9798 5.24916C63.7003 5.90767 63.1043 6.63975 62.5745 7.12168C62.0485 7.6036 61.9602 8.10392 62.0485 8.81393" fill="#263238"/>
<path d="M49.8863 8.7078L49.2204 22.8639C49.1064 25.2698 51.0304 27.2821 53.44 27.2785C55.6878 27.2748 57.5382 25.5016 57.6412 23.2538C57.6891 22.187 57.7332 21.3004 57.7442 21.19C57.7442 21.19 61.3642 21.0208 61.7909 17.4671C61.997 15.7491 62.1368 12.1769 62.2214 8.94324C62.3133 5.47044 59.7234 2.50899 56.269 2.13743L55.9269 2.10064C52.2003 1.9167 49.9635 4.98116 49.8826 8.7078H49.8863Z" fill="#FFBE9D"/>
<path d="M57.759 21.1352C57.759 21.1352 55.4891 21.0763 53.2598 19.3179C53.2598 19.3179 53.9698 21.5436 57.5566 21.6061L57.759 21.1352Z" fill="#EB996E"/>
<path d="M60.93 11.215C60.9116 11.4835 60.6651 11.6896 60.3856 11.6748C60.106 11.6601 59.8926 11.4284 59.911 11.1598C59.9294 10.8913 60.1759 10.6852 60.4555 10.7C60.7387 10.7147 60.9484 10.9464 60.93 11.215Z" fill="#263238"/>
<path d="M61.2721 10.6078C61.2022 10.6667 60.8491 10.3393 60.3009 10.2841C59.7565 10.2179 59.3224 10.457 59.2709 10.3834C59.2451 10.3503 59.3224 10.2363 59.51 10.1296C59.6939 10.0229 60.003 9.93094 60.3414 9.96772C60.6835 10.0045 60.9558 10.1627 61.1066 10.3099C61.2611 10.457 61.3053 10.5821 61.2721 10.6078Z" fill="#263238"/>
<path d="M55.5479 10.821C55.5295 11.0895 55.283 11.2955 55.0034 11.2808C54.7239 11.2661 54.5105 11.0343 54.5289 10.7658C54.5473 10.4972 54.7937 10.2912 55.0733 10.3059C55.3566 10.3206 55.5663 10.5524 55.5479 10.821Z" fill="#263238"/>
<path d="M55.8864 10.1293C55.8165 10.1882 55.4597 9.86077 54.9152 9.80559C54.3707 9.73937 53.9366 9.97849 53.8851 9.90492C53.8594 9.87181 53.9366 9.75776 54.1242 9.65108C54.3082 9.54439 54.6172 9.45242 54.9557 9.48921C55.2978 9.52968 55.57 9.68419 55.7209 9.83134C55.8754 9.97849 55.9195 10.1036 55.8864 10.1293Z" fill="#263238"/>
<path d="M57.4315 14.3969C57.4315 14.3638 57.7773 14.3417 58.3365 14.3307C58.4763 14.3307 58.6124 14.3197 58.6455 14.224C58.6896 14.1284 58.6455 13.9702 58.5977 13.801C58.502 13.4478 58.4027 13.0799 58.2997 12.6936C57.8877 11.1191 57.6081 9.82783 57.6706 9.81312C57.7331 9.7984 58.1194 11.0602 58.5278 12.6384C58.6271 13.0284 58.7191 13.3963 58.8074 13.7494C58.8442 13.915 58.9141 14.1026 58.8221 14.3049C58.7743 14.4043 58.6639 14.4705 58.5719 14.4852C58.48 14.5036 58.399 14.4962 58.3328 14.4926C57.7736 14.4631 57.4315 14.4264 57.4315 14.3969Z" fill="#263238"/>
<path d="M55.7834 14.6026C55.8717 14.6063 55.8091 15.2022 56.2727 15.6768C56.7325 16.155 57.3726 16.155 57.369 16.2397C57.3726 16.2764 57.2144 16.339 56.9459 16.3169C56.6847 16.2985 56.3095 16.1734 56.0262 15.8791C55.7429 15.5885 55.6473 15.228 55.6546 14.9815C55.6583 14.7313 55.7392 14.5916 55.7797 14.5989L55.7834 14.6026Z" fill="#263238"/>
<path d="M56.258 7.99853C56.1881 8.14201 55.651 8.01325 54.9998 8.02061C54.3486 8.01693 53.8115 8.14936 53.7416 8.00589C53.7122 7.93967 53.8152 7.80723 54.0396 7.68583C54.264 7.56443 54.6098 7.4651 54.9961 7.46143C55.3861 7.46143 55.7319 7.56075 55.9563 7.68215C56.1807 7.80356 56.2874 7.93231 56.258 7.99853Z" fill="#263238"/>
<path d="M61.2428 8.99888C61.1324 9.11292 60.7719 8.9437 60.3194 8.88851C59.8706 8.81862 59.4733 8.88116 59.3997 8.74136C59.3666 8.67514 59.4401 8.55742 59.6204 8.45809C59.797 8.35876 60.0839 8.29255 60.3966 8.33669C60.7057 8.38084 60.9632 8.52063 61.1066 8.66778C61.2538 8.81126 61.2906 8.94737 61.2428 9.00256V8.99888Z" fill="#263238"/>
<path d="M49.8936 11.3757C49.8348 11.3426 47.5282 10.3898 47.3405 12.8288C47.1566 15.2715 49.6435 14.9515 49.6545 14.8816C49.6655 14.8117 49.8936 11.372 49.8936 11.372V11.3757Z" fill="#FFBE9D"/>
<path d="M48.9776 13.8996C48.9776 13.8996 48.9335 13.9253 48.8599 13.9548C48.7863 13.9805 48.6649 13.9952 48.5399 13.9364C48.2897 13.8223 48.1021 13.3956 48.1242 12.9541C48.1352 12.7297 48.1977 12.5237 48.2897 12.3545C48.378 12.1816 48.5031 12.0639 48.6355 12.0528C48.768 12.0344 48.8526 12.119 48.8783 12.1889C48.9041 12.2588 48.8857 12.3067 48.9004 12.314C48.9077 12.3214 48.9556 12.2772 48.9445 12.1742C48.9372 12.1264 48.9151 12.0639 48.8599 12.0124C48.8047 11.9609 48.7201 11.9278 48.6282 11.9314C48.4405 11.9314 48.2566 12.0896 48.1536 12.2772C48.0432 12.4649 47.966 12.6966 47.9549 12.9468C47.9329 13.4397 48.1499 13.918 48.4957 14.0467C48.665 14.1056 48.8121 14.0651 48.8894 14.01C48.9703 13.9548 48.985 13.9033 48.9776 13.8959V13.8996Z" fill="#EB996E"/>
<path d="M64.1343 4.45148C64.1785 7.63734 60.1796 8.66005 58.6014 6.76178C57.873 5.88254 57.2623 4.80833 56.2102 4.35583C55.5038 4.05049 54.6761 4.12407 53.9661 4.41837C53.9587 4.41837 53.9514 4.42573 53.944 4.42573C52.8992 4.87087 52.215 5.98923 51.9722 7.10023C51.6337 8.64901 51.7809 10.047 51.2658 11.4523C51.1922 11.6546 51.104 11.8717 50.9237 11.982C50.611 12.1733 50.199 11.9526 49.9782 11.662C49.6214 11.1984 49.5294 10.5877 49.489 10.0028C49.397 8.67476 49.5073 7.32096 49.9378 6.05912C50.3682 4.79729 51.126 3.63478 52.1818 2.82177C53.5025 1.80641 55.2426 1.39439 56.8944 1.6004C58.5462 1.80273 60.1023 2.60104 61.3163 3.74147C61.8792 4.27122 62.3832 4.88926 62.626 5.62502" fill="#263238"/>
<path d="M61.6843 2.512C61.6843 2.512 61.8093 2.4936 62.019 2.55247C62.2287 2.61133 62.5267 2.76584 62.7916 3.06382C63.0528 3.35813 63.2809 3.80694 63.3029 4.34037C63.325 4.8738 63.1043 5.45137 62.7143 5.9149C62.3207 6.37843 61.8093 6.68745 61.3127 6.84564C60.8161 7.00751 60.3452 7.0443 59.9589 7.04062C59.5689 7.03326 59.2599 6.98544 59.0465 6.94129C58.8332 6.89715 58.7228 6.86036 58.7228 6.84932C58.7265 6.81621 59.1974 6.91922 59.9589 6.90818C60.3378 6.89715 60.7903 6.84564 61.2575 6.68378C61.7247 6.52559 62.1993 6.23128 62.5709 5.79718C62.9351 5.36676 63.1447 4.83701 63.13 4.35141C63.119 3.8658 62.9203 3.44274 62.6886 3.15579C62.4531 2.86884 62.1883 2.7033 61.9933 2.62972C61.7983 2.55247 61.6769 2.53775 61.6806 2.51936L61.6843 2.512Z" fill="#455A64"/>
<path d="M60.1354 1.26886C60.1354 1.26886 60.2274 1.24679 60.3635 1.32772C60.496 1.40498 60.6615 1.5926 60.7057 1.87955C60.7498 2.16649 60.6358 2.49759 60.4481 2.79925C60.2605 3.10091 60.014 3.40993 59.7087 3.68217C59.098 4.23399 58.3954 4.53565 57.8767 4.65337C57.3543 4.78213 57.0195 4.74902 57.0232 4.73063C57.0232 4.69752 57.3469 4.67913 57.8435 4.52462C58.3365 4.37746 58.9987 4.06844 59.5836 3.53869C59.8779 3.2775 60.1134 2.98319 60.3047 2.7036C60.4923 2.42401 60.599 2.13339 60.5769 1.89058C60.5548 1.64778 60.4297 1.4712 60.3267 1.38658C60.2201 1.29829 60.1354 1.28358 60.1391 1.26886H60.1354Z" fill="#455A64"/>
<path d="M49.7869 36.0292L50.9347 27.6636L34.4904 30.9635L19.5287 25.7764L15.4893 29.9298L31.4112 38.1298C32.8313 38.8067 34.4315 39.0127 35.9766 38.7111L49.7906 36.0255L49.7869 36.0292Z" fill="#FFBE9D"/>
<path d="M19.5287 25.7804C19.5287 25.7804 13.8082 23.0433 13.4403 22.9513C13.157 22.8814 8.83808 22.6497 6.86991 22.5504C6.09 22.5099 5.97228 23.6687 6.74851 23.7754C6.77059 23.7754 6.79634 23.7828 6.82209 23.7828C7.92205 23.8747 10.339 24.4229 10.339 24.4229L9.23907 26.9944C9.12503 27.2592 9.20964 27.5646 9.44141 27.7338L12.7707 30.1949C13.6573 30.5959 14.6948 30.4966 15.4857 29.9301L16.9535 30.2317L19.5287 25.7767V25.7804Z" fill="#FFBE9D"/>
<path d="M9.22437 27.1448C9.33105 27.6267 10.4752 28.609 11.347 28.609C11.5383 28.609 11.7333 28.5538 11.8731 28.4214C12.0092 28.2889 12.0754 28.0719 11.9945 27.899C11.943 27.7849 11.84 27.704 11.7407 27.6267C11.0895 27.1227 10.4421 26.6187 9.7909 26.1147" fill="#FFBE9D"/>
<path d="M9.79451 26.114C9.80922 26.092 10.1219 26.3017 10.6075 26.6585C10.8687 26.8535 11.152 27.0632 11.4573 27.2913C11.6192 27.4163 11.7811 27.523 11.9577 27.6849C12.0459 27.7658 12.1232 27.9019 12.1232 28.0417C12.1269 28.1778 12.0791 28.314 11.9944 28.4207C11.8179 28.6377 11.5456 28.7039 11.3139 28.6966C11.0784 28.6892 10.865 28.6267 10.6737 28.5457C10.2948 28.3839 9.99317 28.1631 9.76508 27.9571C9.53699 27.7511 9.38248 27.5524 9.29787 27.3979C9.21326 27.2434 9.20958 27.1404 9.22061 27.1404C9.23533 27.1404 9.26476 27.225 9.36041 27.3575C9.45606 27.4899 9.6216 27.6665 9.85337 27.8541C10.0815 28.0417 10.3831 28.2367 10.74 28.3802C10.9165 28.4501 11.1152 28.5053 11.3175 28.5089C11.5125 28.5163 11.7259 28.4538 11.8436 28.3029C11.9613 28.1484 11.965 27.9424 11.8252 27.8173C11.6854 27.6849 11.4978 27.5524 11.3506 27.431C11.0527 27.1919 10.7768 26.9675 10.5266 26.7652C10.0594 26.3826 9.77979 26.1324 9.79451 26.1104V26.114Z" fill="#EB996E"/>
<path d="M13.8486 28.6311C13.8486 28.6311 13.7199 28.5649 13.5984 28.381C13.477 28.2007 13.363 27.9064 13.3483 27.5679C13.3336 27.2295 13.4219 26.9278 13.5249 26.7365C13.6279 26.5416 13.7309 26.4533 13.7493 26.4643C13.7971 26.4937 13.5028 26.9389 13.5396 27.5569C13.5617 28.1786 13.8928 28.5943 13.8486 28.6274V28.6311Z" fill="#EB996E"/>
<path d="M11.5603 27.3093C11.7332 27.5778 12.0937 27.7139 12.4027 27.622C12.7118 27.5337 12.9398 27.2247 12.9435 26.9046C12.9435 26.4852 12.6087 26.1504 12.2961 25.8709C11.8178 25.4404 11.3396 25.01 10.865 24.5796" fill="#FFBE9D"/>
<path d="M10.8614 24.5806C10.8798 24.5622 11.1079 24.7351 11.461 25.0294C11.656 25.195 11.862 25.3715 12.0754 25.5592C12.2998 25.7652 12.572 25.9675 12.7964 26.2655C12.9068 26.4163 12.9951 26.5892 13.0208 26.7732C13.0503 26.9571 13.0098 27.1447 12.9252 27.2919C12.7596 27.5936 12.4396 27.7407 12.1894 27.7186C11.9356 27.7039 11.759 27.5862 11.667 27.4869C11.5714 27.3875 11.5493 27.314 11.5603 27.3066C11.5751 27.2992 11.6155 27.3581 11.7149 27.428C11.8142 27.4979 11.9797 27.5825 12.1931 27.5788C12.4028 27.5788 12.6456 27.4501 12.7744 27.2036C12.9105 26.9608 12.8516 26.6371 12.6456 26.3722C12.4469 26.1073 12.1784 25.8939 11.9613 25.6842C11.7553 25.4893 11.5603 25.3016 11.3727 25.1251C11.0416 24.8013 10.8467 24.5953 10.8614 24.5732V24.5806Z" fill="#EB996E"/>
<path d="M14.0105 24.3638C12.859 24.636 11.7517 25.0995 10.7474 25.7286C10.6885 25.7654 10.6223 25.8095 10.6039 25.8794C10.5782 25.9751 10.6518 26.0671 10.729 26.1296C11.0233 26.365 11.4317 26.4055 11.8069 26.3761C12.1821 26.343 12.5574 26.251 12.9326 26.262C13.5875 26.2768 14.1908 26.5895 14.8235 26.7624C15.4526 26.9353 16.2215 26.9316 16.6556 26.4423" fill="#FFBE9D"/>
<path d="M16.6556 26.439C16.6556 26.439 16.6409 26.4721 16.5967 26.5273C16.5489 26.5788 16.4753 26.6524 16.3576 26.7186C16.1295 26.8621 15.7359 26.9614 15.2613 26.9136C14.7794 26.8768 14.2607 26.6487 13.6831 26.4795C13.3925 26.3948 13.0871 26.336 12.7634 26.3544C12.4397 26.3691 12.1049 26.45 11.7407 26.4758C11.3802 26.4978 10.9902 26.45 10.6922 26.2256C10.6187 26.1704 10.5414 26.1005 10.5083 25.9791C10.4936 25.9203 10.5046 25.8467 10.5377 25.7915C10.5708 25.74 10.6113 25.7069 10.6518 25.6812C10.7952 25.5892 10.9277 25.5119 11.0638 25.4347C11.6009 25.1293 12.1159 24.9086 12.55 24.7467C12.9878 24.5849 13.352 24.4855 13.6058 24.4267C13.8597 24.3678 14.0032 24.3494 14.0068 24.3605C14.0142 24.3936 13.455 24.5223 12.6015 24.8718C12.1748 25.0484 11.6782 25.2802 11.1521 25.5855C11.0233 25.6628 10.8835 25.7437 10.7584 25.8283C10.6996 25.8724 10.6812 25.8982 10.6922 25.935C10.7033 25.9755 10.7474 26.0306 10.8063 26.0711C11.0491 26.255 11.3912 26.3029 11.7297 26.2808C12.0718 26.2587 12.4102 26.1815 12.756 26.1631C13.1055 26.1447 13.4366 26.2146 13.7346 26.3066C14.3269 26.4942 14.8272 26.7259 15.2797 26.7774C15.7285 26.84 16.1001 26.7664 16.3245 26.6524C16.5526 26.542 16.6446 26.4243 16.6556 26.439Z" fill="#EB996E"/>
<path d="M34.748 33.8583C34.7001 33.8693 34.5052 33.2182 34.4831 32.3868C34.4573 31.5517 34.6119 30.8895 34.6634 30.9005C34.7185 30.9079 34.6486 31.5701 34.6744 32.3831C34.6965 33.1961 34.8032 33.8509 34.748 33.862V33.8583Z" fill="#EB996E"/>
<path d="M49.1358 23.781L44.4711 29.038C44.4711 29.038 41.9805 47.193 41.8003 48.6204C41.6237 50.0441 41.1491 54.6058 41.1491 55.8529C41.1491 57.1 40.1154 66.0138 40.1154 66.0138C40.1154 66.0138 59.9147 70.123 63.2257 66.0138L62.1956 58.3803L63.0932 39.4417C63.0932 39.4417 64.5795 26.2973 57.6449 23.2476C57.6449 23.2476 53.2634 25.889 49.1358 23.781Z" fill="#865DFF"/>
<path d="M60.8198 25.1121C60.8198 25.1121 59.4549 23.762 55.0955 24.8914C50.5007 26.0833 48.0764 30.3839 49.2168 42.5608C50.1586 52.6003 54.128 54.046 54.128 54.046C54.128 54.046 51.9538 38.9003 52.3254 32.5654C52.7963 24.564 60.8198 26.5542 60.8198 26.5542C61.9639 26.1864 60.8198 25.1121 60.8198 25.1121Z" fill="#263238"/>
<path d="M49.1358 23.7808L45.1002 24.8918L36.0282 30.4468L38.6107 38.6505L43.9377 38.0656L49.1358 23.7808Z" fill="#865DFF"/>
<path d="M43.8862 29.4759C43.9377 29.4795 43.7096 32.4152 43.3748 36.0241C43.04 39.6367 42.7236 42.5614 42.6721 42.5577C42.6206 42.554 42.8487 39.622 43.1835 36.0057C43.5183 32.3932 43.8347 29.4685 43.8862 29.4722V29.4759Z" fill="#263238"/>
<path d="M62.3538 54.9741C62.3538 54.9741 61.0662 59.1128 56.5118 52.2775C51.9611 45.4423 52.6013 48.4994 52.6013 48.4994L51.6668 49.6104C51.6668 49.6104 56.6737 60.8897 62.2913 59.1201L62.3538 54.9741Z" fill="#263238"/>
<path opacity="0.3" d="M43.7023 31.4517L40.1118 38.4856L43.0769 38.1618L43.7023 31.4517Z" fill="black"/>
<path d="M46.4098 43.2425C47.3749 43.2425 48.1573 40.8905 48.1573 37.9892C48.1573 35.0878 47.3749 32.7358 46.4098 32.7358C45.4447 32.7358 44.6624 35.0878 44.6624 37.9892C44.6624 40.8905 45.4447 43.2425 46.4098 43.2425Z" fill="#FAFAFA"/>
<path d="M47.3442 129.36L47.7452 138.009C47.7452 138.009 39.0889 141.32 39.008 142.928L55.8055 142.755L55.7356 129.253L47.3479 129.364L47.3442 129.36Z" fill="#865DFF"/>
<g opacity="0.6">
<path d="M52.9323 137.227C53.2597 137.311 53.4878 137.676 53.4142 138.003C53.3407 138.334 52.9765 138.57 52.649 138.489C52.3216 138.408 52.0347 137.981 52.1414 137.661C52.2481 137.341 52.6969 137.087 52.9949 137.245" fill="white"/>
</g>
<path opacity="0.6" d="M55.8055 142.751L55.7981 141.404L39.6628 142.066C39.6628 142.066 38.9197 142.401 39.008 142.924L55.8055 142.751Z" fill="white"/>
<path d="M47.4729 137.925C47.4729 138.006 47.8886 138.039 48.2933 138.3C48.7053 138.551 48.9187 138.904 48.9923 138.871C49.0659 138.852 48.9408 138.367 48.4441 138.058C47.9512 137.749 47.4545 137.852 47.4729 137.925Z" fill="#263238"/>
<path d="M45.7182 138.672C45.6998 138.753 46.0566 138.889 46.3399 139.231C46.6305 139.566 46.7078 139.941 46.7887 139.937C46.8659 139.948 46.9174 139.47 46.5569 139.047C46.2001 138.624 45.7182 138.595 45.7182 138.672Z" fill="#263238"/>
<path d="M44.7396 140.791C44.8132 140.809 44.9235 140.397 44.7102 139.948C44.4968 139.499 44.1105 139.326 44.0737 139.396C44.0296 139.463 44.2798 139.702 44.449 140.073C44.6292 140.437 44.655 140.783 44.7359 140.791H44.7396Z" fill="#263238"/>
<path d="M47.6017 135.945C47.6385 136.019 48.0137 135.901 48.4773 135.931C48.9408 135.949 49.305 136.1 49.3455 136.03C49.3933 135.971 49.0365 135.669 48.4883 135.647C47.9402 135.618 47.5612 135.883 47.6017 135.949V135.945Z" fill="#263238"/>
<path opacity="0.3" d="M47.4252 131.07L47.4951 132.612L55.7503 132.454L55.7467 131.063L47.4252 131.07Z" fill="black"/>
<path d="M47.5502 134.198C47.5502 134.231 47.874 134.279 48.3927 134.183C48.6502 134.136 48.9519 134.047 49.2682 133.904C49.4264 133.83 49.5883 133.746 49.7502 133.643C49.8274 133.591 49.9194 133.54 50.0003 133.444C50.0886 133.356 50.1401 133.139 50.0334 133.006C49.9451 132.877 49.7943 132.822 49.6729 132.822C49.5478 132.822 49.4485 132.844 49.3565 132.87C49.1689 132.918 48.996 132.98 48.8341 133.054C48.5141 133.205 48.2566 133.392 48.0653 133.573C47.679 133.937 47.5502 134.246 47.576 134.261C47.6128 134.286 47.8004 134.029 48.194 133.727C48.389 133.576 48.6428 133.422 48.9408 133.297C49.0917 133.234 49.2535 133.183 49.4227 133.142C49.5993 133.094 49.7502 133.091 49.798 133.168C49.8164 133.198 49.8164 133.209 49.7796 133.264C49.7428 133.312 49.6692 133.359 49.5957 133.411C49.4485 133.51 49.2977 133.595 49.1542 133.668C48.8636 133.816 48.584 133.919 48.3449 133.988C47.8666 134.128 47.5502 134.154 47.5502 134.198Z" fill="#263238"/>
<path d="M47.6606 134.316C47.6901 134.327 47.8482 134.033 47.874 133.5C47.885 133.235 47.8556 132.918 47.7489 132.58C47.6974 132.411 47.6238 132.242 47.5282 132.072C47.4289 131.907 47.3075 131.686 46.9874 131.653C46.8219 131.649 46.6857 131.778 46.6379 131.892C46.5827 132.006 46.5754 132.105 46.5533 132.201C46.5239 132.396 46.5312 132.591 46.557 132.768C46.6122 133.124 46.763 133.419 46.9249 133.632C47.256 134.063 47.6018 134.158 47.6091 134.132C47.6349 134.092 47.3479 133.937 47.0941 133.518C46.969 133.312 46.855 133.044 46.8182 132.731C46.7998 132.576 46.7998 132.411 46.8292 132.245C46.855 132.065 46.9175 131.921 46.9874 131.94C47.072 131.94 47.2155 132.072 47.2854 132.212C47.3737 132.363 47.4436 132.514 47.4988 132.665C47.6054 132.966 47.6569 133.257 47.6717 133.503C47.7011 133.996 47.6165 134.305 47.6606 134.316Z" fill="#263238"/>
<path d="M63.6193 124.108L70.4104 129.479C70.4104 129.479 67.2319 138.187 68.3907 139.302L79.2764 126.507L69.0382 117.707L63.6193 124.112V124.108Z" fill="#865DFF"/>
<g opacity="0.6">
<path d="M73.2247 125.05C73.5043 124.859 73.9274 124.925 74.1297 125.197C74.3321 125.466 74.2695 125.9 73.9936 126.095C73.7177 126.29 73.2063 126.228 73.0371 125.937C72.8679 125.646 72.9709 125.142 73.2836 125.021" fill="white"/>
</g>
<path opacity="0.6" d="M79.28 126.504L78.2573 125.625L68.1737 138.239C68.1737 138.239 67.9382 139.019 68.3944 139.295L79.28 126.5V126.504Z" fill="white"/>
<path d="M70.1713 129.63C70.2338 129.681 70.5281 129.394 70.9917 129.254C71.4515 129.107 71.8562 129.177 71.8783 129.1C71.915 129.034 71.4625 128.806 70.907 128.982C70.3479 129.151 70.1014 129.593 70.1713 129.63Z" fill="#263238"/>
<path d="M69.5863 131.444C69.6342 131.51 69.9726 131.33 70.4178 131.341C70.8629 131.341 71.194 131.528 71.2455 131.466C71.3044 131.414 70.9769 131.061 70.4214 131.057C69.8696 131.046 69.5312 131.392 69.5863 131.444Z" fill="#263238"/>
<path d="M70.5429 133.575C70.6054 133.531 70.3663 133.177 69.888 133.045C69.4098 132.913 69.0235 133.089 69.0529 133.163C69.075 133.24 69.4208 133.207 69.8108 133.321C70.2044 133.424 70.484 133.63 70.5429 133.575Z" fill="#263238"/>
<path d="M68.7586 128.236C68.8395 128.258 68.9941 127.897 69.3215 127.566C69.6379 127.228 69.991 127.051 69.9653 126.974C69.9506 126.901 69.4907 126.974 69.1155 127.368C68.7365 127.761 68.685 128.225 68.7623 128.236H68.7586Z" fill="#263238"/>
<path opacity="0.3" d="M64.9658 125.171L66.1761 126.127L71.4699 119.792L70.4178 118.884L64.9658 125.171Z" fill="black"/>
<path d="M67.4085 127.124C67.4342 127.146 67.6807 126.933 67.9493 126.48C68.0817 126.256 68.2141 125.969 68.3135 125.634C68.3613 125.469 68.4018 125.288 68.4312 125.101C68.4422 125.009 68.4643 124.906 68.4459 124.781C68.4386 124.656 68.3061 124.475 68.1369 124.468C67.9824 124.45 67.8426 124.531 67.7617 124.619C67.677 124.711 67.6329 124.803 67.5887 124.887C67.5005 125.06 67.4342 125.233 67.3864 125.402C67.2908 125.741 67.2613 126.061 67.2724 126.322C67.2944 126.852 67.4416 127.154 67.471 127.142C67.5152 127.131 67.4416 126.822 67.471 126.326C67.4857 126.079 67.5336 125.789 67.6366 125.48C67.6881 125.325 67.7543 125.171 67.8352 125.016C67.9162 124.851 68.0118 124.733 68.1001 124.751C68.1332 124.759 68.1442 124.766 68.159 124.825C68.17 124.884 68.159 124.972 68.1479 125.06C68.1259 125.237 68.0927 125.406 68.0523 125.564C67.975 125.881 67.8683 126.16 67.7617 126.385C67.552 126.837 67.3643 127.095 67.3974 127.12L67.4085 127.124Z" fill="#263238"/>
<path d="M67.5667 127.122C67.5961 127.107 67.4784 126.794 67.0921 126.426C66.9008 126.246 66.6396 126.058 66.3159 125.919C66.154 125.849 65.9775 125.79 65.7898 125.749C65.5985 125.716 65.3521 125.665 65.1203 125.882C65.0063 126.003 65.0173 126.195 65.0725 126.301C65.124 126.415 65.1902 126.489 65.2527 126.566C65.3815 126.717 65.5323 126.838 65.6832 126.934C65.9885 127.125 66.3122 127.206 66.5771 127.225C67.1216 127.258 67.4196 127.059 67.4012 127.037C67.3865 126.989 67.0811 127.103 66.5992 127.026C66.3637 126.986 66.0841 126.894 65.823 126.717C65.6942 126.629 65.5691 126.518 65.4624 126.39C65.3447 126.253 65.2785 126.11 65.3337 126.07C65.3852 126.003 65.5802 125.985 65.7347 126.025C65.9039 126.058 66.0658 126.106 66.2166 126.161C66.5146 126.279 66.7684 126.43 66.9634 126.581C67.3533 126.883 67.5299 127.147 67.5704 127.122H67.5667Z" fill="#263238"/>
<path d="M44.7874 92.7669C44.7874 92.7669 45.2362 72.1103 44.7874 72.1103C44.3386 72.1103 41.1527 70.293 41.1527 70.293L37.1723 100.993C37.1723 100.993 36.8154 104.44 41.0792 106.868C45.3429 109.296 64.4139 126.251 64.4139 126.251L70.8665 118.393C70.8665 118.393 58.3181 105.315 53.1935 100.993C49.1836 97.6119 44.7874 92.7669 44.7874 92.7669Z" fill="#263238"/>
<path d="M56.4787 87.9559L56.9128 84.6855C56.9128 84.6855 60.0545 78.0746 60.507 75.2419C60.9558 72.4092 60.6578 66.3208 60.6578 66.3208H40.8106C40.8106 66.3208 40.8952 88.7285 43.2901 95.0119C43.2901 95.0119 44.5078 107.042 44.6844 108.05C45.0633 110.191 46.3877 132.094 46.3877 132.094L56.3941 131.73C56.3941 131.73 57.2623 111.592 56.567 105.875C56.2248 103.046 56.0593 100.03 55.9857 97.5319C55.8901 94.3313 56.0556 91.1307 56.475 87.9522L56.4787 87.9559Z" fill="#263238"/>
<path d="M41.3551 72.8535C41.3551 72.8535 41.3624 72.8866 41.3661 72.9528C41.3698 73.0301 41.3772 73.1257 41.3845 73.2435C41.3956 73.512 41.414 73.8873 41.436 74.3582C41.4728 75.3257 41.5464 76.7273 41.6457 78.4564C41.8444 81.9144 42.2159 86.6859 42.7604 91.9429C43.3049 97.1999 43.8935 101.953 44.3165 105.389C44.5262 107.096 44.6955 108.487 44.8132 109.461C44.8684 109.932 44.9088 110.3 44.9419 110.569C44.953 110.686 44.964 110.782 44.9714 110.859C44.975 110.926 44.9787 110.959 44.9714 110.959C44.964 110.959 44.9603 110.926 44.9493 110.863C44.9383 110.786 44.9199 110.694 44.9015 110.576C44.861 110.308 44.8058 109.94 44.7396 109.472C44.6072 108.498 44.4159 107.114 44.1804 105.407C43.7206 101.971 43.1136 97.222 42.5691 91.9613C42.021 86.7006 41.6715 81.9255 41.5096 78.4637C41.4287 76.731 41.3772 75.3294 41.3624 74.3618C41.3551 73.8873 41.3514 73.5157 41.3441 73.2471C41.3441 73.1294 41.3441 73.0338 41.3441 72.9565C41.3441 72.8903 41.3441 72.8572 41.3514 72.8572L41.3551 72.8535Z" fill="#455A64"/>
<path d="M55.9673 99.3748C55.9673 99.3748 55.9931 99.4851 56.0262 99.6985C56.0593 99.9303 56.0998 100.239 56.1549 100.633C56.2543 101.446 56.3793 102.627 56.4934 104.091C56.7288 107.016 56.9091 111.066 56.9753 115.539C57.0268 120.017 56.9569 124.071 56.7987 126.999C56.7251 128.463 56.6295 129.648 56.5522 130.464C56.5081 130.858 56.4713 131.171 56.4456 131.403C56.4198 131.616 56.4014 131.73 56.3977 131.73C56.3904 131.73 56.3977 131.616 56.4088 131.399C56.4272 131.167 56.4492 130.854 56.4787 130.457C56.5339 129.64 56.6074 128.456 56.6663 126.992C56.7914 124.063 56.8392 120.013 56.7877 115.539C56.7215 111.07 56.5633 107.023 56.3646 104.098C56.269 102.638 56.166 101.453 56.0887 100.64C56.0483 100.247 56.0188 99.934 55.9967 99.7022C55.9784 99.4888 55.971 99.3748 55.9784 99.3711L55.9673 99.3748Z" fill="#455A64"/>
<path d="M59.8706 24.6499C59.8706 24.6499 63.119 25.5181 63.8106 30.3557C64.5023 35.1971 63.222 36.5803 63.222 36.5803C63.222 36.5803 63.7481 27.5709 59.7124 26.3385L59.8706 24.8265" fill="#263238"/>
<path d="M37.7425 40.4609L20.9708 40.1372L21.1657 40.9502L37.6579 41.193L37.7425 40.4609Z" fill="#263238"/>
<path d="M58.0716 26.1696C57.4462 26.004 56.784 26.085 56.1917 26.3351C54.8306 26.909 52.3474 28.5535 52.1708 33.1924L51.8839 40.6862L62.6076 42.0878C62.6076 42.0878 63.5163 27.6154 58.0716 26.1659V26.1696Z" fill="#865DFF"/>
<path d="M38.3385 42.051L51.9354 46.1381L52.1377 40.6641L60.2789 41.8486L59.8264 50.7514C59.7308 53.3633 57.9024 55.589 55.3567 56.185C53.933 56.5198 52.4357 56.3027 51.1665 55.5817L36.7161 47.3669L38.3385 42.051Z" fill="#FFBE9D"/>
<path d="M62.6076 42.0911C62.6076 42.0911 62.6039 42.0469 62.5965 41.9623C62.5929 41.8703 62.5892 41.7526 62.5818 41.6018C62.5708 41.2744 62.5524 40.8145 62.534 40.2296C62.4972 39.034 62.442 37.327 62.3758 35.219C62.3464 34.1632 62.3133 33.0117 62.2765 31.7757C62.2691 31.4666 62.2581 31.1503 62.2507 30.8302C62.236 30.672 62.2176 30.5138 62.2029 30.3556C62.1698 30.1974 62.1441 30.0393 62.1036 29.8811C61.9417 29.2483 61.6401 28.6376 61.217 28.0932C60.3709 27.0226 59.0097 26.2059 57.5051 26.1802C56.7583 26.1618 56.0078 26.3899 55.353 26.7945C54.6945 27.1955 54.1353 27.7768 53.6901 28.4353C53.039 29.3844 52.6748 30.477 52.4651 31.5586C52.2517 32.6475 52.1855 33.7328 52.134 34.7886C52.0751 36.9003 52.0163 38.8868 51.9648 40.6931L51.8949 40.6122C55.1028 41.05 57.7699 41.4142 59.6461 41.6717C60.5769 41.8004 61.309 41.9071 61.824 41.977C62.0668 42.0138 62.2618 42.0396 62.4016 42.0616C62.534 42.08 62.6039 42.0947 62.6039 42.0984C62.6039 42.0984 62.5414 42.0984 62.4163 42.0837C62.2765 42.069 62.0889 42.0469 61.8534 42.0175C61.3421 41.9549 60.6137 41.8667 59.6903 41.7563C57.7957 41.5208 55.1065 41.1824 51.8728 40.7777L51.7992 40.7704V40.6968C51.847 38.8905 51.8765 36.9039 51.9464 34.7886C51.9979 33.7328 52.0641 32.6365 52.2775 31.5329C52.4908 30.4329 52.8624 29.3109 53.5319 28.336C53.9918 27.6591 54.5657 27.0594 55.2536 26.64C55.9342 26.2206 56.7252 25.9778 57.5087 25.9999C59.0796 26.033 60.4812 26.8828 61.3568 27.9938C61.7909 28.5567 62.1036 29.1931 62.2691 29.848C62.3096 30.0098 62.3354 30.1791 62.3685 30.3409C62.3832 30.5065 62.4016 30.672 62.4163 30.8339C62.4236 31.1576 62.431 31.474 62.4384 31.7904C62.4641 33.0412 62.4862 34.2074 62.5083 35.2705C62.545 37.3785 62.5745 39.0928 62.5965 40.2884C62.6039 40.866 62.6113 41.3185 62.6149 41.6423C62.6149 41.7857 62.6149 41.9034 62.6149 41.9917C62.6149 42.069 62.6149 42.1095 62.6149 42.1058L62.6076 42.0911Z" fill="#263238"/>
<path d="M38.6106 42.2087L35.3439 39.7954C34.7479 39.3539 33.8208 39.4459 33.0814 39.3796C31.6172 39.2472 29.2039 40.1338 29.1119 40.2846L30.0979 41.0719L23.7482 40.8769C23.7482 40.8769 24.2927 42.2013 26.0696 42.3374C26.0696 42.3374 26.2756 43.7722 28.1187 44.0444C28.1187 44.0444 28.5969 45.2032 29.6196 45.5453C29.6196 45.5453 29.8256 46.844 31.4627 46.7741L37.0214 47.4031L38.607 42.2087H38.6106Z" fill="#FFBE9D"/>
<path d="M30.0465 42.5734C30.0465 42.6249 29.1415 42.6176 28.0378 42.5514C26.9305 42.4852 26.0366 42.3895 26.0402 42.338C26.0402 42.2865 26.9415 42.2939 28.0525 42.3601C29.1599 42.4263 30.0538 42.5219 30.0501 42.5734H30.0465Z" fill="#EB996E"/>
<path d="M31.6504 44.0991C31.6504 44.1506 30.8631 44.1947 29.8919 44.1947C28.9207 44.1947 28.1334 44.1506 28.1334 44.0991C28.1334 44.0476 28.9207 44.0034 29.8919 44.0034C30.8631 44.0034 31.6504 44.0476 31.6504 44.0991Z" fill="#EB996E"/>
<path d="M33.3794 45.5454C33.3794 45.5969 32.5921 45.641 31.6209 45.641C30.6497 45.641 29.8624 45.5969 29.8624 45.5454C29.8624 45.4939 30.6497 45.4497 31.6209 45.4497C32.5921 45.4497 33.3794 45.4939 33.3794 45.5454Z" fill="#EB996E"/>
<path d="M52.833 48.9154C52.7852 48.9338 52.4946 48.3451 52.2297 47.58C51.9648 46.8148 51.8287 46.171 51.8765 46.1599C51.928 46.1452 52.1451 46.7596 52.4099 47.5174C52.6711 48.2752 52.8845 48.8933 52.833 48.9154Z" fill="#EB996E"/>
<path d="M53.8153 48.3892C53.7711 48.4223 53.3333 47.8889 52.7889 47.2378C52.2481 46.5866 51.8029 46.0569 51.8434 46.0201C51.8802 45.9833 52.3916 46.4578 52.936 47.1164C53.4842 47.7712 53.8557 48.3598 53.8153 48.3892Z" fill="#EB996E"/>
</svg>
