<?xml version="1.0" encoding="utf-8"?>
<!-- Generator: Adobe Illustrator 27.5.0, SVG Export Plug-In . SVG Version: 6.00 Build 0)  -->
<svg version="1.1" id="Livello_1" xmlns="http://www.w3.org/2000/svg" xmlns:xlink="http://www.w3.org/1999/xlink" x="0px" y="0px"
	 viewBox="0 0 70 70" enable-background="new 0 0 70 70" xml:space="preserve">
<g>
	<path fill="#F3EFFF" d="M68.1,35.2l-3.2,10.7l-0.1,0l-10.6-1.4c0,0,4.9-1,5.4-1.5c0.5-0.6,5.7-7.1,7.2-7.8c0.1,0,0.2-0.1,0.2-0.1
		L68.1,35.2z"/>
	<path fill="#865DFF" d="M64.8,45.9l-10.6-1.4c0,0,4.9-1,5.4-1.5c0.5-0.6,5.7-7.1,7.2-7.8c-1.3,1.9-4.5,6.5-4.3,7.8
		C62.6,44.3,64.1,45.4,64.8,45.9z"/>
	<path fill="#F0811D" d="M65.9,49.1c-0.4,0.1-1.4,0.4-2.9,0.9c-4.3,1.2-11.9,3.1-15.2,2.8c-3-0.3-18.9-1.7-29.9-2.8
		c2.7-4.6,6.1-7.2,9.1-8.6c12.8,1.2,29.5,2.9,31.6,3.3c3.5,0.7,8.1,1.3,8.1,1.3s0,0.1,0.1,0.4C66.9,47.2,67,48.8,65.9,49.1z"/>
	<path fill="#F3EFFF" d="M66.9,47.2C66.9,47.3,66.9,47.3,66.9,47.2c0,0.7-0.1,1.3-0.6,1.7l0,0L66.2,49l0,0l-0.1,0l-0.1,0l-0.1,0
		l-0.1,0l0,0l0,0l0,0l0,0l0,0l0,0l0,0l0,0l0,0l0,0l-0.1,0l0,0l0,0l0,0l-0.3,0.1l-0.1,0l-0.9,0.3l-0.1,0L64,49.6l0,0l-0.1,0l-0.1,0
		l-0.1,0l-0.1,0l-0.1,0l-0.1,0l-0.1,0l-0.1,0l0,0l0,0l-0.1,0L63,49.8l-0.2,0.1l-0.2,0l-0.1,0l-0.5,0.1l-0.1,0l-0.2,0.1l-0.2,0
		l-0.2,0.1c-2.2,0.6-4.9,1.2-7.4,1.7l-0.3,0l-0.1,0l-0.3,0l-0.8,0.1l-0.3,0l-0.1,0l-0.2,0l-0.2,0l-0.2,0l-0.2,0l-0.2,0l-1.1,0.1
		l-0.4,0l-0.3,0l-0.2,0l-0.3,0l-0.4,0l-0.2,0l-0.1,0l-0.2,0l-0.1,0l0,0l0,0l-0.2,0l0,0l-0.1,0l-0.1,0l0,0l0,0l-0.1,0l-0.1,0l-0.1,0
		l-0.1,0l-0.1,0l-0.1,0l-0.1,0l-0.2,0l-0.6,0l-0.1,0l-0.2,0l-0.2,0l-0.1,0l-0.2,0l-0.1,0l-0.2,0l-0.2,0l-0.1,0l-0.1,0l-0.1,0
		l-0.9-0.1l-0.1,0l-0.2,0l-0.5,0l0,0l-0.4,0l0,0l-2.7-0.2l-0.1,0l-0.6-0.1l-0.4,0l0,0l-0.4,0l-0.1,0L37,51.7l-0.2,0l-0.1,0L36,51.6
		l-0.3,0l-0.2,0l-0.4,0l-0.6-0.1l-0.1,0l-0.3,0l0,0l-0.8-0.1l0,0l-0.1,0l-0.5,0l-0.3,0l-0.2,0l-0.9-0.1l-1.5-0.1l-0.2,0l0,0L29,51
		l-0.2,0L28.2,51L27,50.8l-0.7-0.1l-0.5,0l-1.1-0.1l-0.1,0L24,50.6l-1-0.1l-0.4,0l-0.1,0l-0.8-0.1l-0.1,0l-0.5-0.1l-2.2-0.2l-0.3,0
		l-0.2,0l-0.2,0l-0.4,0c-2.7-0.3-5-0.5-6.9-0.7l-0.5-0.1L9.3,49c-1-0.1-1.7-0.2-2-0.3c-1.9-0.5-3.8-1.4-5.4-2.5
		c-0.9-0.6-1.5-1.3-1.2-1.8c0.3-0.7,0.9-1.1,1.5-1.3c0.5-0.3,1.1-0.4,1.4-0.6l0.1,0c0.1,0,0.1-0.1,0.2-0.1l0,0
		c0.1-0.1,0.4-0.3,0.7-0.6c0.2-0.2,0.5-0.4,0.8-0.5c1.3-0.8,3.6-1.6,6.9-1.3c0,0,6.6,0.6,14.9,1.4l2.5,0.2l0.9,0.1l1.3,0.1l2.2,0.2
		l0.4,0l0.9,0.1l1.8,0.2l0.9,0.1l3.1,0.3c2.9,0.3,5.8,0.6,8.3,0.8l0.4,0c1.5,0.1,2.8,0.3,4,0.4l1.6,0.2c1.8,0.2,3,0.4,3.5,0.5
		c1.3,0.3,2.7,0.5,4,0.7l0.3,0l0.5,0.1l0.5,0.1l0.7,0.1l0.3,0c1.1,0.2,1.8,0.3,1.8,0.3s0,0,0,0.1c0,0,0,0,0,0c0,0,0,0.1,0,0.1
		c0,0,0,0.1,0,0.1l0,0c0,0,0,0.1,0,0.1c0,0.1,0,0.1,0,0.1l0,0.1c0,0,0,0,0,0.1c0,0,0,0.1,0,0.1c0,0,0,0,0,0c0,0,0,0,0,0.1
		c0,0,0,0,0,0l0,0.1C66.9,47.2,66.9,47.2,66.9,47.2z"/>
	<path fill="#F5534F" d="M66.9,47.2C66.9,47.2,66.9,47.3,66.9,47.2c0,0.7-0.1,1.3-0.6,1.7l0,0L66.2,49l0,0l-0.1,0l-0.1,0l-0.1,0
		l-0.1,0l0,0l0,0l0,0l0,0l0,0l0,0l0,0l0,0l0,0l0,0l-0.1,0l0,0l0,0l0,0l-0.3,0.1l-0.1,0l-0.9,0.3l-0.1,0L64,49.6l0,0l-0.1,0l-0.1,0
		l-0.1,0l-0.1,0l-0.1,0l-0.1,0l-0.1,0l-0.1,0l0,0l0,0l-0.1,0L63,49.8l-0.2,0.1l-0.2,0l-0.1,0l-0.5,0.1l-0.1,0l-0.2,0.1l-0.2,0
		l-0.2,0.1c-2.2,0.6-4.9,1.2-7.4,1.7l-0.3,0l-0.1,0l-0.3,0l-0.8,0.1l-0.3,0l-0.1,0l-0.2,0l-0.2,0l-0.2,0l-0.2,0l-0.2,0l-1.1,0.1
		l-0.4,0l-0.3,0l-0.2,0l-0.3,0l-0.4,0l-0.2,0l-0.1,0l-0.2,0l-0.1,0l0,0l0,0l-0.2,0l0,0l-0.1,0l-0.1,0l0,0l0,0l-0.1,0l-0.1,0l-0.1,0
		l-0.1,0l-0.1,0l-0.1,0l-0.1,0l-0.2,0l-0.6,0l-0.1,0l-0.2,0l-0.2,0l-0.1,0l-0.2,0l-0.1,0l-0.2,0l-0.2,0l-0.1,0l-0.1,0l-0.1,0
		l-0.9-0.1l-0.1,0l-0.2,0l-0.5,0l0,0l-0.4,0l0,0l-2.7-0.2l-0.1,0l-0.6-0.1l-0.4,0l0,0l-0.4,0l-0.1,0L37,51.7l-0.2,0l-0.1,0L36,51.6
		l-0.3,0l-0.2,0l-0.4,0l-0.6-0.1l-0.1,0l-0.3,0l0,0l-0.8-0.1l0,0l-0.1,0c3.5-1.9,6.2-5,7.6-8.7c2.9,0.3,5.8,0.6,8.3,0.8l0.4,0
		c1.5,0.1,2.8,0.3,4,0.4l1.6,0.2c1.8,0.2,3,0.4,3.5,0.5c1.3,0.3,2.7,0.5,4,0.7l0.3,0l0.5,0.1l0.5,0.1l0.7,0.1l0.3,0
		c1.1,0.2,1.8,0.3,1.8,0.3s0,0,0,0.1c0,0,0,0,0,0c0,0,0,0.1,0,0.1c0,0,0,0.1,0,0.1l0,0c0,0,0,0.1,0,0.1c0,0.1,0,0.1,0,0.1l0,0.1
		c0,0,0,0,0,0.1c0,0,0,0.1,0,0.1c0,0,0,0,0,0c0,0,0,0,0,0.1c0,0,0,0,0,0l0,0.1C66.9,47.2,66.9,47.2,66.9,47.2z"/>
	<path fill="#F5534F" d="M65.9,49.1c-0.4,0.1-1.5,0.4-2.9,0.9c-0.3-1.2-1-2.3-2.1-3l5.9-0.6C66.9,47.2,67,48.8,65.9,49.1z"/>
	<path fill="#865DFF" d="M34.3,46c-0.1,0-0.2-0.1-0.2-0.1C34,45.8,34,45.7,34,45.6l0-0.4c0-0.1,0-0.2,0.1-0.3
		c0.1-0.1,0.2-0.1,0.3-0.1c0.1,0,0.2,0.1,0.2,0.1s0.1,0.2,0.1,0.3l0,0.4c0,0.1-0.1,0.2-0.1,0.3C34.5,46,34.4,46,34.3,46z"/>
	<path fill="#865DFF" d="M32.5,45.8c0,0-0.1,0-0.1,0c0,0-0.1-0.1-0.1-0.1c0,0,0-0.1-0.1-0.1c0,0,0-0.1,0-0.1l0-0.4
		c0-0.1,0-0.2,0.1-0.3s0.2-0.1,0.3-0.1c0.1,0,0.2,0.1,0.2,0.1C33,44.9,33,45,33,45.1l0,0.4c0,0.1-0.1,0.2-0.1,0.3
		C32.7,45.8,32.6,45.8,32.5,45.8z"/>
	<path fill="#865DFF" d="M30.7,45.6c-0.1,0-0.2-0.1-0.2-0.1c-0.1-0.1-0.1-0.2-0.1-0.3l0-0.4c0-0.1,0.1-0.2,0.1-0.3
		c0.1-0.1,0.2-0.1,0.3-0.1c0,0,0.1,0,0.1,0c0,0,0.1,0.1,0.1,0.1c0,0,0,0.1,0.1,0.1c0,0,0,0.1,0,0.1l0,0.4c0,0.1,0,0.2-0.1,0.3
		C30.9,45.6,30.8,45.7,30.7,45.6z"/>
	<path fill="#865DFF" d="M28.9,45.5c-0.1,0-0.2-0.1-0.2-0.1s-0.1-0.2-0.1-0.3l0-0.4c0-0.1,0-0.2,0.1-0.3c0.1-0.1,0.2-0.1,0.3-0.1
		c0.1,0,0.2,0.1,0.2,0.1c0.1,0.1,0.1,0.2,0.1,0.3l0,0.4c0,0.1,0,0.2-0.1,0.3C29.1,45.4,29,45.5,28.9,45.5z"/>
	<path fill="#865DFF" d="M27.1,45.3c-0.1,0-0.2-0.1-0.2-0.1c-0.1-0.1-0.1-0.2-0.1-0.3l0-0.4c0-0.1,0.1-0.2,0.1-0.3
		c0.1-0.1,0.2-0.1,0.3-0.1c0.1,0,0.2,0.1,0.2,0.1c0.1,0.1,0.1,0.2,0.1,0.3l0,0.4c0,0.1-0.1,0.2-0.1,0.3
		C27.3,45.3,27.2,45.3,27.1,45.3z"/>
	<path fill="#865DFF" d="M25.3,45.1c0,0-0.1,0-0.1-0.1c0,0-0.1-0.1-0.1-0.1c0,0,0-0.1-0.1-0.1c0,0,0-0.1,0-0.1l0-0.4
		c0-0.1,0-0.2,0.1-0.3c0.1-0.1,0.2-0.1,0.3-0.1c0.1,0,0.2,0.1,0.2,0.1s0.1,0.2,0.1,0.3l0,0.4c0,0.1-0.1,0.2-0.1,0.3
		C25.5,45.1,25.4,45.1,25.3,45.1z"/>
	<path fill="#865DFF" d="M23.5,44.9c-0.1,0-0.2-0.1-0.2-0.1c-0.1-0.1-0.1-0.2-0.1-0.3l0-0.4c0-0.1,0-0.2,0.1-0.3
		c0.1-0.1,0.2-0.1,0.3-0.1c0.1,0,0.2,0.1,0.2,0.1c0.1,0.1,0.1,0.2,0.1,0.3l0,0.4c0,0.1,0,0.2-0.1,0.3C23.7,44.9,23.6,44.9,23.5,44.9
		z"/>
	<path fill="#865DFF" d="M21.7,44.8c-0.1,0-0.2-0.1-0.2-0.1c-0.1-0.1-0.1-0.2-0.1-0.3l0-0.4c0-0.1,0-0.2,0.1-0.3
		c0.1-0.1,0.2-0.1,0.3-0.1c0.1,0,0.2,0.1,0.2,0.1c0.1,0.1,0.1,0.2,0.1,0.3l0,0.4c0,0.1,0,0.2-0.1,0.3C21.9,44.7,21.8,44.8,21.7,44.8
		z"/>
	<path fill="#865DFF" d="M19.9,44.6c-0.1,0-0.2-0.1-0.2-0.1c-0.1-0.1-0.1-0.2-0.1-0.3l0-0.4c0-0.1,0-0.2,0.1-0.3
		c0.1-0.1,0.2-0.1,0.3-0.1c0.1,0,0.2,0.1,0.2,0.1c0.1,0.1,0.1,0.2,0.1,0.3l0,0.4c0,0.1-0.1,0.2-0.1,0.3C20.1,44.5,20,44.6,19.9,44.6
		z"/>
	<path fill="#865DFF" d="M18.1,44.4c-0.1,0-0.2-0.1-0.2-0.2c-0.1-0.1-0.1-0.2-0.1-0.3l0-0.4c0-0.1,0-0.2,0.1-0.3
		c0.1-0.1,0.2-0.1,0.3-0.1c0.1,0,0.2,0.1,0.2,0.2c0.1,0.1,0.1,0.2,0.1,0.3l0,0.4c0,0.1,0,0.2-0.1,0.3C18.3,44.4,18.2,44.4,18.1,44.4
		z"/>
	<path fill="#865DFF" d="M16.3,44.2c-0.1,0-0.2-0.1-0.2-0.2C16,44,16,43.9,16,43.8l0-0.4c0-0.1,0-0.2,0.1-0.3
		c0.1-0.1,0.2-0.1,0.3-0.1c0.1,0,0.2,0.1,0.2,0.2c0.1,0.1,0.1,0.2,0.1,0.3l0,0.4c0,0.1,0,0.2-0.1,0.3C16.5,44.2,16.4,44.2,16.3,44.2
		z"/>
	<path fill="#865DFF" d="M14.5,44c-0.1,0-0.2-0.1-0.2-0.2c-0.1-0.1-0.1-0.2-0.1-0.3l0-0.4c0-0.1,0-0.2,0.1-0.3
		c0.1-0.1,0.2-0.1,0.3-0.1c0,0,0.1,0,0.1,0.1c0,0,0.1,0.1,0.1,0.1c0,0,0,0.1,0.1,0.1c0,0,0,0.1,0,0.1l0,0.4c0,0.1,0,0.2-0.1,0.3
		S14.6,44,14.5,44z"/>
	<path fill="#865DFF" d="M12.3,43.8c-0.1,0-0.2-0.1-0.2-0.2c-0.1-0.1-0.1-0.2-0.1-0.3l0-0.4c0-0.1,0-0.2,0.1-0.3
		c0.1-0.1,0.2-0.1,0.3-0.1c0.1,0,0.2,0.1,0.2,0.2c0.1,0.1,0.1,0.2,0.1,0.3l0,0.4c0,0.1,0,0.2-0.1,0.3C12.4,43.8,12.4,43.8,12.3,43.8
		z"/>
	<path fill="#865DFF" d="M54.1,48.2c-0.1,0-0.2-0.1-0.2-0.2c-0.1-0.1-0.1-0.2-0.1-0.3l0-0.4c0-0.1,0-0.2,0.1-0.3
		C54,47,54.1,47,54.2,47c0,0,0.1,0,0.1,0.1c0,0,0.1,0.1,0.1,0.1c0,0,0,0.1,0.1,0.1c0,0,0,0.1,0,0.1l0,0.4c0,0.1,0,0.2-0.1,0.3
		C54.3,48.1,54.2,48.2,54.1,48.2z"/>
	<path fill="#865DFF" d="M52.3,48c-0.1,0-0.2-0.1-0.2-0.2c-0.1-0.1-0.1-0.2-0.1-0.3l0-0.4c0-0.1,0-0.2,0.1-0.3
		c0.1-0.1,0.2-0.1,0.3-0.1c0,0,0.1,0,0.1,0.1s0.1,0.1,0.1,0.1c0,0,0,0.1,0.1,0.1c0,0,0,0.1,0,0.1l0,0.4c0,0.1,0,0.2-0.1,0.3
		S52.4,48,52.3,48z"/>
	<path fill="#865DFF" d="M50.5,47.8c-0.1,0-0.2-0.1-0.2-0.2s-0.1-0.2-0.1-0.3l0-0.4c0-0.1,0-0.2,0.1-0.3c0.1-0.1,0.2-0.1,0.3-0.1
		c0.1,0,0.2,0.1,0.2,0.2c0.1,0.1,0.1,0.2,0.1,0.3l0,0.4c0,0.1,0,0.2-0.1,0.3C50.7,47.8,50.6,47.8,50.5,47.8z"/>
	<path fill="#865DFF" d="M5.5,41.4l-1.2,1.1l-0.7,0c0.1,0,0.1-0.1,0.2-0.1l0,0c0.1-0.1,0.4-0.3,0.7-0.6c0.2-0.2,0.5-0.4,0.8-0.5
		L5.5,41.4z"/>
	<path fill="#865DFF" d="M5.8,41.4l-1.2,1.2l1.4,0.3l0.4-1.3L5.8,41.4z"/>
	<path fill="#865DFF" d="M6.5,41.6l-0.3,1.3l1-0.3l0.1-0.9L6.5,41.6z"/>
	<path fill="#865DFF" d="M31.1,51.6c0.5-0.2,0.7-1.1,0.2-1.5c-0.5-0.5-1.1-0.8-1.7-0.9c-1.4-0.1-0.9,2.7-0.4,2.8
		C29.8,51.9,30.5,51.8,31.1,51.6z"/>
	<path fill="#865DFF" d="M60.8,46.5c0.1-0.1,5.3-1.7,8.6-0.9l-3.3,2L60.9,47c-0.1,0-0.1-0.1-0.1-0.1c0,0-0.1-0.1-0.1-0.2
		s0-0.1,0-0.2C60.7,46.6,60.8,46.5,60.8,46.5z"/>
	<path fill="#F3EFFF" d="M58.5,34.5c0,0-3.6,7.6-4.2,8.8c-0.7,1.2-2.1,1.9-2.1,1.9l-9.3,3.6c0,0-11.4-1.1-13.9-1.4
		c-0.2,0-0.4,0-0.4-0.1c-0.8-0.2-1.1-0.5-1-0.8c0.1-0.3,17.8-2.2,19.8-2.4l0.1,0c1.9-0.2,2.1-0.8,2.1-0.8l7.4-8.2
		c0.1-0.2,0.3-0.3,0.4-0.4C57.6,34.6,58,34.5,58.5,34.5z"/>
	<path fill="#865DFF" d="M57.2,34.7c-2,2.3-7.5,8.8-8,9.3c-0.6,0.5-16.4,2.8-20.3,3.4c-0.2,0-0.4,0-0.4-0.1c-0.8-0.2-1.1-0.5-1-0.8
		c0.1-0.3,17.8-2.2,19.8-2.4c2-0.2,2.1-0.8,2.1-0.8l7.4-8.2C56.9,34.9,57,34.8,57.2,34.7z"/>
	<path fill="#F3EFFF" d="M58.5,34.5c0,0-3.6,7.6-4.2,8.8c-0.7,1.2-2.1,1.9-2.1,1.9c-1.6-0.1-3.2-0.4-4.8-1c1.9-0.2,2.1-0.8,2.1-0.8
		l7.4-8.2c0.1-0.2,0.3-0.3,0.4-0.4C57.6,34.6,58,34.5,58.5,34.5z"/>
	<path fill="#F3EFFF" d="M29.9,48.5l-0.4,3.9c-1.2,0.4-2.5,0.5-3.8,0.4c-1,0-2-0.3-2.9-0.6c-0.2-0.1-0.3-0.2-0.5-0.3l0.4-4.1
		c0.2-0.1,0.3-0.2,0.5-0.2c1.8-0.4,6.3,0.8,6.3,0.8L29.9,48.5z"/>
	<path fill="#F5534F" d="M23.3,47.5l-0.5,4.6c-0.2-0.1-0.3-0.2-0.5-0.3l0.4-4.1C23,47.6,23.1,47.6,23.3,47.5z"/>
	<path fill="#7DA050" d="M18.8,19.7c0,0-2.1-0.8-3.6-3.3c-1.9-3.2-6.6-2.5-7.7-1.7c-1.8,1.4,3.5,8.5,8,11.4
		C15.5,26,18.5,22.3,18.8,19.7z"/>
	<path fill="#1B1C1E" d="M11.5,16.8c0.3,0,0.6-0.2,0.6-0.5c0-0.3-0.2-0.6-0.5-0.6c-0.3,0-0.6,0.2-0.6,0.5
		C11,16.5,11.2,16.8,11.5,16.8z"/>
	<path fill="none" stroke="#1B1C1E" stroke-width="0.2135" stroke-miterlimit="10" d="M8.3,18.5c0,0,2.5,0.6,5.2,0.2"/>
	<defs>
		<filter id="Adobe_OpacityMaskFilter" filterUnits="userSpaceOnUse" x="10.6" y="21.9" width="7" height="4.8">
			<feColorMatrix  type="matrix" values="1 0 0 0 0  0 1 0 0 0  0 0 1 0 0  0 0 0 1 0"/>
		</filter>
	</defs>
	
		<mask maskUnits="userSpaceOnUse" x="10.6" y="21.9" width="7" height="4.8" id="mask1_9410_192793_00000033349276302479125120000014292094480857592217_">
		<path fill="#FFFFFF" filter="url(#Adobe_OpacityMaskFilter)" d="M18.8,19.7c0,0-2.1-0.8-3.6-3.3c-1.9-3.2-6.6-2.5-7.7-1.7
			c-1.8,1.4,3.5,8.5,8,11.4C15.5,26,18.5,22.3,18.8,19.7z"/>
	</mask>
	<g mask="url(#mask1_9410_192793_00000033349276302479125120000014292094480857592217_)">
		<g opacity="0.78">
			<path fill="#181716" d="M13.8,25C13.9,25,13.9,25,13.8,25C13.9,25,13.8,25,13.8,25z"/>
			<path fill="#181716" d="M12.4,24.1L12.4,24.1C12.4,24.1,12.4,24.1,12.4,24.1z"/>
			<path fill="#181716" d="M14.2,24.8C14.2,24.8,14.2,24.7,14.2,24.8L14.2,24.8z"/>
			<path fill="#181716" d="M15.4,25.8C15.4,25.8,15.4,25.8,15.4,25.8L15.4,25.8L15.4,25.8z"/>
			<path fill="#181716" d="M16.3,25.5L16.3,25.5C16.3,25.4,16.3,25.4,16.3,25.5z"/>
			<path fill="#181716" d="M15.1,25.9C15.2,25.9,15.2,25.9,15.1,25.9C15.2,25.9,15.1,25.9,15.1,25.9z"/>
			<path fill="#181716" d="M11.8,23.7C11.8,23.7,11.8,23.7,11.8,23.7C11.8,23.7,11.8,23.7,11.8,23.7z"/>
			<path fill="#181716" d="M14.8,25.6c0.1-0.2,0.1,0,0.1-0.1c0,0-0.1,0-0.1,0c0.1-0.1,0.1,0,0.1-0.1l-0.1,0c0-0.1,0.1-0.2,0.1-0.2
				c-0.1,0.2-0.1-0.1-0.1-0.1l0,0l0-0.1c0,0,0,0,0,0c0-0.1,0-0.2-0.1-0.2c-0.1,0.1-0.2-0.1-0.2,0c0,0,0,0,0.1,0l-0.1,0.1
				c0,0,0-0.1,0-0.1c-0.1,0.2,0.1,0,0.1,0.1c0,0-0.1,0.1-0.1,0.1c0.1,0,0.1,0.1,0.2,0c0,0,0,0.1-0.1,0.1c0.1-0.1,0,0.1,0.1,0
				c-0.1,0.1-0.2,0-0.2,0.1c0-0.2-0.1-0.1-0.2-0.1c0-0.1,0.2-0.2,0.2-0.3c0-0.1-0.1,0-0.2,0.1c0-0.1,0.1-0.2,0-0.2l0.1-0.1
				c0-0.2-0.1,0-0.1,0c0,0,0,0.1,0,0.1c0,0.1-0.1,0.1-0.1,0.1c0,0.1-0.1,0.1-0.1,0.1c0.1-0.1,0-0.1,0-0.1l0,0c0,0-0.1,0-0.1,0l0,0
				c0,0-0.1,0.1-0.1,0.1c0,0,0.1-0.1,0.1-0.1c0-0.1,0.1,0,0.1,0c0,0,0-0.2,0.1-0.1c0-0.1-0.1,0-0.1,0c0,0,0,0.1,0,0.1
				c0.1-0.1-0.1-0.1-0.1,0l0.1,0c0,0.1-0.1,0.1-0.1,0.2c0.1-0.2-0.2,0-0.1-0.1l0,0.1c-0.1-0.1-0.3,0-0.4,0c0.1,0,0.2-0.2,0.2-0.1
				c-0.1-0.1,0.1-0.2,0.1-0.3c0-0.1-0.1,0.1-0.2,0.2l0.1,0c-0.2,0.2-0.2-0.1-0.3-0.1c0-0.1,0,0,0.1,0c0-0.1-0.1,0-0.1,0
				c0,0-0.1-0.1,0-0.2c0-0.1,0,0.1-0.1,0.1l0,0l-0.1,0.1c0-0.1,0-0.2,0-0.3c-0.1,0-0.2,0.2-0.3,0.2c0-0.1,0.1-0.1,0.1-0.1l-0.1,0
				c0.1-0.1,0.1,0,0.2-0.2c-0.2,0.1-0.1,0-0.2,0l0,0c-0.1,0.1-0.1,0-0.2,0c0.1-0.1,0.1,0,0.2,0c0-0.1-0.2-0.1-0.3,0c0,0,0-0.1,0-0.2
				c-0.1-0.1-0.2,0.2-0.2,0.1l0.1-0.1c0-0.2-0.3,0-0.2-0.2L12,23.7c0-0.1,0-0.1,0-0.2l0.1,0c0-0.1-0.1,0.1-0.1,0
				c0,0-0.1,0.1-0.1,0.2c0.2,0.1,0.3,0.4,0.6,0.4c0,0,0,0,0-0.1c0,0,0.1,0,0,0.1l0,0c0.1,0,0,0.2,0.1,0.2c0.1-0.1,0.1,0.1,0.2-0.1
				l0,0.1c0,0,0.1-0.1,0.1-0.1c0,0,0,0.1,0,0.1c0.1,0.1,0.3,0.2,0.4,0.2l-0.1,0c0,0,0.2-0.1,0.1,0.1c0.1,0,0.2,0.2,0.3,0
				c-0.1,0.2,0.1,0.2,0.2,0.2c0.1-0.2,0.1,0,0.2-0.1c-0.1,0.1-0.2,0.1-0.2,0.2c0.2-0.1,0.2,0.3,0.4,0c0,0,0,0,0,0c0,0,0,0.1,0,0.1
				c0,0,0-0.1,0.1-0.1c0,0,0,0.1-0.1,0.2c0.1,0,0.2,0,0.3-0.1c0,0,0,0.1-0.1,0.1c0.2-0.1,0.1,0.1,0.2,0.1c0,0-0.1,0.1-0.1,0
				c-0.1,0.2,0.2,0.1,0.2,0.2l0.1-0.1c0.1,0,0,0.1-0.1,0.1C14.7,25.6,14.8,25.5,14.8,25.6C14.9,25.6,14.8,25.6,14.8,25.6l0.1,0
				c0,0,0.1-0.1,0.1-0.1C14.9,25.6,14.9,25.6,14.8,25.6z"/>
			<path fill="#181716" d="M14.3,24.6C14.3,24.6,14.3,24.6,14.3,24.6C14.3,24.6,14.3,24.6,14.3,24.6z"/>
			<path fill="#181716" d="M16,25.8c0.1-0.2-0.1,0-0.1-0.1c0,0,0.1-0.1,0.1-0.2c-0.2,0.2,0-0.1-0.2-0.1c0-0.1,0.1-0.1,0.1-0.1
				c-0.1,0-0.2,0-0.2,0.2c-0.1,0-0.1-0.1-0.2-0.1c0.1,0,0.1-0.1,0.2-0.2c-0.1,0.1-0.4,0.2-0.5,0.4c0.1-0.1,0.1-0.2,0.1-0.3
				c-0.1-0.2-0.1,0.1-0.2,0l0,0c-0.1,0-0.1,0.2-0.2,0.2l0.1,0c0,0.1-0.1,0.1-0.2,0.1c-0.1,0.1,0,0.1,0,0.2c0-0.1,0.1,0,0.1,0l0,0.1
				c0,0.1,0.1,0,0.2,0c0,0,0,0,0,0c0-0.1,0.1-0.1,0.1-0.1l0,0c0.1-0.1,0.2-0.1,0.2-0.3l0.1,0.1c-0.1,0.1-0.2,0.3-0.3,0.3l0,0.1
				c0,0.1,0.2,0,0.2-0.2c0.2-0.3,0.2,0.1,0.3,0c0,0.1-0.1,0.1-0.2,0.2c0,0,0,0,0-0.1c-0.1,0-0.1,0.3-0.2,0.2c0-0.1,0.1-0.1,0.1-0.2
				l-0.2,0.2c0.1,0,0.1,0,0.2,0c0.3,0,0.5,0.2,0.5,0.2c0.4,0.1,0.8,0.3,1.2,0.4c0.1,0,0.2,0,0.3-0.2c0-0.1-0.1-0.1,0-0.2
				c0,0.1-0.1,0.1-0.2,0.1c0-0.1,0.1,0,0.1-0.1c0,0,0-0.1,0.1-0.1c0-0.2-0.2-0.2-0.3,0c0-0.1,0.1-0.1,0.2-0.2
				c-0.2-0.2-0.3-0.2-0.5-0.3c-0.1,0.2-0.1,0.1-0.1,0.2l0-0.1c0,0-0.1,0.1-0.1,0.2c-0.1-0.2-0.2,0.2-0.3,0.2l0-0.1
				c-0.1,0-0.1,0-0.2,0c0-0.2,0.1,0,0.2-0.2l0,0c0-0.1,0.1-0.2,0.2-0.2c-0.2,0.1-0.1-0.1-0.3-0.1c0-0.1,0.2-0.1,0.2-0.1
				c0,0-0.1,0-0.1-0.1l-0.1,0.1c-0.1,0,0-0.1,0.1-0.2C16.2,25.3,16.2,25.7,16,25.8z"/>
			<path fill="#181716" d="M14.5,25C14.5,25,14.5,25,14.5,25C14.5,25,14.5,25,14.5,25z"/>
			<path fill="#181716" d="M14.9,24.9C14.9,24.9,14.9,24.9,14.9,24.9C14.9,24.9,14.9,24.9,14.9,24.9z"/>
			<path fill="#181716" d="M15,24.8c0,0.1,0,0-0.1,0.1C15,24.8,15,24.9,15,24.8z"/>
			<path fill="#181716" d="M10.7,21.9c0,0-0.1,0-0.1,0L10.7,21.9L10.7,21.9z"/>
			<path fill="#181716" d="M10.7,22.1L10.7,22.1l0.2,0C10.8,22,10.7,22.1,10.7,22.1z"/>
			<path fill="#181716" d="M10.7,22.2L10.7,22.2C10.7,22.2,10.7,22.2,10.7,22.2z"/>
			<path fill="#181716" d="M10.8,22.2l0.1-0.1L10.8,22.2L10.8,22.2C10.7,22.2,10.7,22.2,10.8,22.2L10.8,22.2
				C10.8,22.2,10.8,22.2,10.8,22.2z"/>
			<path fill="#181716" d="M10.8,22.2C10.8,22.2,10.8,22.2,10.8,22.2C10.8,22.2,10.8,22.2,10.8,22.2z"/>
			<path fill="#181716" d="M10.7,22.5c0,0,0.1-0.1,0.1-0.1c0-0.1-0.1,0.1-0.1,0c0.1,0,0-0.1,0.1-0.1C10.7,22.3,10.7,22.4,10.7,22.5
				L10.7,22.5C10.8,22.4,10.8,22.5,10.7,22.5z"/>
			<path fill="#181716" d="M11.1,22.6L11,22.6c0,0,0-0.1,0.1-0.2c0,0-0.1,0-0.1,0c0-0.1,0-0.1,0-0.1c0,0.1,0,0.1,0,0.2c0,0,0,0,0,0
				l0,0.1C11.1,22.7,11.1,22.7,11.1,22.6z"/>
			<path fill="#181716" d="M11.1,22.7c0,0-0.2,0-0.2,0.1l0.1,0C11.1,22.8,11,22.8,11.1,22.7z"/>
			<path fill="#181716" d="M11.2,22.8c0,0.1-0.1,0.2,0,0.1C11.2,22.9,11.3,22.8,11.2,22.8z"/>
			<path fill="#181716" d="M11.4,23.1l0-0.1c0.1-0.1,0.1,0,0.1,0c-0.1-0.1-0.1,0-0.2,0c0,0-0.1,0-0.2,0C11.4,23,11.2,23.3,11.4,23.1
				z"/>
			<path fill="#181716" d="M11.4,22.9L11.4,22.9L11.4,22.9L11.4,22.9z"/>
			<path fill="#181716" d="M11.5,23.4c-0.1,0.2,0.2,0,0.2,0.1c0,0,0,0,0,0l0.1,0l0,0c0.1-0.1,0.1-0.1,0.2-0.1c0-0.1-0.1,0.1-0.1,0
				c0,0,0.1-0.1,0.1-0.1c-0.1,0-0.1,0.1-0.2,0.1c0,0,0-0.1,0-0.1c-0.1,0-0.2,0.2-0.2,0.1c0-0.1,0.1-0.1,0-0.1c-0.1,0.2,0-0.1-0.1,0
				c0-0.1,0-0.2,0.1-0.2c-0.1,0.1-0.2,0.2-0.2,0.2l0.2,0l-0.1,0.1C11.5,23.3,11.5,23.4,11.5,23.4z"/>
			<path fill="#181716" d="M12,23.3C12,23.3,12,23.3,12,23.3C12,23.3,12,23.3,12,23.3z"/>
			<path fill="#181716" d="M11.6,23L11.6,23L11.6,23L11.6,23z"/>
			<path fill="#181716" d="M12.1,23.2C12.1,23.2,12,23.2,12.1,23.2L12.1,23.2L12.1,23.2z"/>
			<path fill="#181716" d="M12.1,23.4L12.1,23.4L12.1,23.4L12.1,23.4z"/>
			<path fill="#181716" d="M13.1,24.1c0-0.1-0.1,0-0.1,0.1C13.1,24.3,13.1,24.1,13.1,24.1z"/>
			<path fill="#181716" d="M13.9,24.4c0-0.1-0.1,0-0.1,0C13.8,24.4,13.9,24.5,13.9,24.4z"/>
			<path fill="#181716" d="M14.4,24.3C14.4,24.3,14.4,24.3,14.4,24.3l-0.2,0.2C14.3,24.6,14.4,24.3,14.4,24.3z"/>
			<path fill="#181716" d="M14.8,24.4L14.8,24.4L14.8,24.4c-0.1,0.1-0.1,0.1-0.2,0.2C14.6,24.6,14.7,24.5,14.8,24.4z"/>
			<path fill="#181716" d="M14.5,24.6L14.5,24.6C14.5,24.6,14.5,24.6,14.5,24.6z"/>
			<path fill="#181716" d="M14.6,24.6C14.6,24.6,14.5,24.6,14.6,24.6C14.5,24.6,14.5,24.6,14.6,24.6z"/>
			<path fill="#181716" d="M14.8,24.5l0.1,0L14.8,24.5C14.8,24.6,14.8,24.4,14.8,24.5z"/>
			<path fill="#181716" d="M15.2,24.9l0,0.1c0.1,0,0.2-0.1,0.2,0.1c0-0.1,0.1-0.1,0.1-0.2C15.4,25,15.3,24.9,15.2,24.9z"/>
			<path fill="#181716" d="M15.4,25.1C15.4,25.2,15.4,25.2,15.4,25.1C15.4,25.3,15.4,25.2,15.4,25.1C15.4,25.3,15.5,25.1,15.4,25.1z
				"/>
			<path fill="#181716" d="M15.7,25.3C15.7,25.3,15.7,25.3,15.7,25.3c0,0.1,0-0.1,0.1-0.1C15.8,25,15.7,25.2,15.7,25.3z"/>
			<path fill="#181716" d="M16.1,25.5L16.1,25.5l-0.1,0.1L16.1,25.5z"/>
			<path fill="#181716" d="M16.5,25.6L16.5,25.6L16.5,25.6L16.5,25.6z"/>
			<path fill="#181716" d="M16.6,25.6L16.6,25.6L16.6,25.6C16.6,25.6,16.6,25.6,16.6,25.6z"/>
			<path fill="#181716" d="M16.8,25.7L16.8,25.7L16.8,25.7L16.8,25.7z"/>
		</g>
	</g>
	<path fill="#7DA050" d="M50,38.9c-0.6,1-0.8,5.2-0.8,5.2l7.3,0.5L51.7,38C51.7,38,50.3,38.4,50,38.9z"/>
	<defs>
		
			<filter id="Adobe_OpacityMaskFilter_00000132088413581379523830000014177981233240405137_" filterUnits="userSpaceOnUse" x="49.6" y="37.4" width="5.3" height="8">
			<feColorMatrix  type="matrix" values="1 0 0 0 0  0 1 0 0 0  0 0 1 0 0  0 0 0 1 0"/>
		</filter>
	</defs>
	
		<mask maskUnits="userSpaceOnUse" x="49.6" y="37.4" width="5.3" height="8" id="mask2_9410_192793_00000161601795265724009150000013414194778213300919_">
		<path fill="#FFFFFF" filter="url(#Adobe_OpacityMaskFilter_00000132088413581379523830000014177981233240405137_)" d="M50,38.9
			c-0.6,1-0.8,5.2-0.8,5.2l7.3,0.5L51.7,38C51.7,38,50.3,38.4,50,38.9z"/>
	</mask>
	<g mask="url(#mask2_9410_192793_00000161601795265724009150000013414194778213300919_)">
		<g opacity="0.78">
			<path fill="#181716" d="M52.8,41.8C52.8,41.8,52.7,41.8,52.8,41.8C52.7,41.8,52.8,41.8,52.8,41.8z"/>
			<path fill="#181716" d="M53.9,43.7L53.9,43.7C54,43.7,54,43.7,53.9,43.7z"/>
			<path fill="#181716" d="M52.1,42c0,0-0.1,0-0.2,0L52.1,42z"/>
			<path fill="#181716" d="M51.8,42.4C51.8,42.4,51.8,42.4,51.8,42.4C51.8,42.4,51.8,42.4,51.8,42.4z"/>
			<path fill="#181716" d="M52,39.8C52,39.8,52,39.8,52,39.8C52.1,39.8,52,39.8,52,39.8z"/>
			<path fill="#181716" d="M51.8,39.8C51.8,39.8,51.8,39.8,51.8,39.8L51.8,39.8C51.7,39.8,51.8,39.8,51.8,39.8z"/>
			<path fill="#181716" d="M50.1,39.6L50.1,39.6C50,39.6,50,39.6,50.1,39.6z"/>
			<path fill="#181716" d="M52.2,39.8C52.1,39.8,52.1,39.8,52.2,39.8C52.1,39.8,52.1,39.8,52.2,39.8z"/>
			<path fill="#181716" d="M52.9,41.7C52.8,41.7,52.8,41.7,52.9,41.7C52.8,41.7,52.9,41.7,52.9,41.7z"/>
			<path fill="#181716" d="M54.5,44.4C54.5,44.4,54.5,44.4,54.5,44.4C54.5,44.4,54.5,44.3,54.5,44.4z"/>
			<path fill="#181716" d="M52.1,40.5c-0.3,0.2-0.1-0.1-0.3,0.1c0.1,0,0.1,0,0,0.1c-0.2,0.1,0-0.1-0.3,0l0.1,0
				c-0.1,0.1-0.3,0.2-0.3,0.2c0.4-0.1,0,0.2,0,0.3l0,0l-0.1,0.2c0,0,0,0,0,0c0,0,0,0,0.1,0c-0.1,0.1-0.2,0.2-0.1,0.3
				c0.2-0.1,0.2,0.2,0.4,0.1c-0.1,0-0.1,0-0.1-0.1l0.2-0.1c0,0.1-0.2,0.1,0,0.1c0.3-0.2-0.1-0.1-0.1-0.2c0.1,0,0.2,0,0.2,0
				c0-0.1,0-0.2-0.3-0.1c0-0.1,0.2-0.1,0.2-0.1c-0.2,0,0.1-0.1-0.1-0.1c0.3-0.1,0.2,0.1,0.4,0c-0.2,0.2,0.1,0.2,0.2,0.3
				c-0.2,0.1-0.4,0.2-0.5,0.3c-0.1,0.2,0.2,0,0.3,0c0,0.1-0.3,0.2-0.3,0.3l-0.2,0c-0.3,0.2,0.2,0,0.1,0.1c0.1-0.1,0.1-0.1,0.1-0.1
				c0.1-0.1,0.2-0.1,0.2-0.1l0,0c0.2-0.1,0.3-0.2,0.3,0c-0.2,0.1-0.1,0.1-0.2,0.2l0,0c0.1,0,0.1,0.1,0.1,0.1l0,0
				c0.1,0,0.3-0.1,0.3,0c-0.1,0-0.4,0.1-0.3,0.2c-0.1,0.1-0.2,0-0.2-0.1c0,0.1-0.2,0.2-0.2,0.2c-0.2,0.1,0.1,0,0.1,0.1
				c0,0,0.1-0.1,0.2-0.1c-0.2,0.1,0.1,0.1,0.2,0l-0.2,0c0.2-0.1,0.3-0.1,0.4-0.2c-0.2,0.2,0.2,0.1,0,0.3l0.1-0.1
				c0,0.2,0.4,0.1,0.5,0.2c-0.1,0-0.4,0.2-0.4,0.1c0,0.2-0.3,0.2-0.4,0.4c-0.1,0.2,0.3-0.1,0.4-0.2l-0.1,0c0.4-0.1,0.1,0.3,0.4,0.3
				c-0.1,0.1-0.1,0-0.1,0c-0.1,0.2,0.1,0,0.2,0c0,0.1,0,0.2-0.3,0.3c0,0.1,0.1-0.1,0.2-0.1l0,0l0.3-0.1c0,0.1-0.1,0.3-0.3,0.4
				c0.1,0.1,0.5-0.3,0.7-0.3c-0.1,0.1-0.2,0.1-0.2,0.2l0.1,0.1c-0.2,0.1-0.2,0-0.5,0.2c0.3-0.1,0.1,0,0.4,0l0,0
				c0.2-0.1,0.1,0.1,0.2,0.1c-0.1,0.1-0.2,0-0.3,0c-0.1,0.1,0.2,0.2,0.4,0.1c0,0.1-0.1,0.2-0.2,0.2c0.1,0.2,0.4-0.2,0.4-0.1L54,44.1
				c-0.2,0.3,0.4,0,0.3,0.3l0.2-0.2c-0.1,0.1-0.1,0.2-0.1,0.2l-0.1,0c-0.1,0.2,0.2-0.1,0.1,0.1c0.1-0.1,0.2-0.2,0.2-0.3
				c-0.3-0.1-0.2-0.6-0.6-0.6c0,0,0,0.1-0.1,0.1c0-0.1-0.1-0.1,0.1-0.1l0,0c-0.1,0,0.1-0.3,0.1-0.3c-0.2,0.1,0-0.2-0.3,0l0.1-0.2
				c-0.1,0.1-0.2,0.2-0.3,0.2c0-0.1,0.1-0.1,0.2-0.1c0-0.2-0.2-0.4-0.4-0.5l0.2,0c0-0.1-0.3,0,0-0.2c-0.2,0,0-0.3-0.4-0.1
				c0.3-0.3,0-0.3-0.1-0.4c-0.3,0.2-0.1-0.1-0.3,0c0.2-0.2,0.3,0,0.4-0.1c-0.4,0.1,0.1-0.5-0.6-0.2c0,0,0,0,0.1-0.1
				c0,0,0.1-0.1,0.1-0.1c-0.1,0.1-0.1,0.1-0.2,0.1c0-0.1,0.2-0.1,0.2-0.2c-0.2,0-0.3-0.1-0.6,0c0-0.1,0.2-0.2,0.2-0.2
				c-0.3,0,0-0.2-0.2-0.2c0,0,0.3-0.1,0.2,0c0.3-0.3-0.2-0.2-0.1-0.4l-0.2,0.1c-0.1,0,0.1-0.2,0.2-0.2c0.1-0.2-0.1-0.2-0.2-0.3
				c0,0,0.1,0,0.1,0l-0.1-0.1c-0.1,0-0.2,0-0.3,0.1C52,40.4,52.1,40.4,52.1,40.5z"/>
			<path fill="#181716" d="M51.9,40.4L51.9,40.4C51.9,40.4,51.9,40.4,51.9,40.4z"/>
			<path fill="#181716" d="M51.7,42.1C51.7,42.1,51.7,42,51.7,42.1C51.7,42,51.7,42.1,51.7,42.1z"/>
			<path fill="#181716" d="M50.9,39.4c-0.3,0.2,0.1,0,0,0.2c-0.1,0-0.3,0.1-0.4,0.1c0.5-0.2-0.1,0.1,0.1,0.2c-0.1,0.1-0.2,0-0.3,0.1
				c0.1,0,0.3,0.1,0.5,0c0.1,0.1,0,0.2,0.1,0.3c-0.1,0-0.2,0.1-0.5,0.2c0.3-0.1,0.8-0.1,1.2-0.1c-0.2,0.2-0.3,0.2-0.5,0.3
				c-0.1,0.2,0.3-0.1,0.3,0.1l0-0.1c0.1,0,0.4-0.1,0.5-0.2l-0.1-0.1c0.2-0.1,0.2,0,0.3,0c0.2-0.1,0.1-0.2,0.3-0.2
				c-0.2,0.1-0.1,0-0.2,0l0.1-0.1c0.1-0.1-0.2,0-0.2-0.1c0,0,0,0,0.1,0c-0.1,0-0.3,0.1-0.3,0.1l0,0c-0.3,0.1-0.5,0-0.7,0.3l0-0.2
				c0.3-0.1,0.7-0.3,0.7-0.2l0.1-0.1c0.1-0.1-0.3-0.1-0.5,0.1c-0.6,0.3-0.2-0.2-0.5-0.2c0.2-0.1,0.3-0.1,0.4-0.1c0,0,0.1,0-0.1,0.1
				c0.2,0.1,0.5-0.3,0.5-0.1c-0.1,0.1-0.3,0-0.3,0.2l0.5-0.2c-0.1-0.1-0.2-0.1-0.2-0.1c-0.5-0.2-0.4-0.5-0.4-0.5
				c-0.3-0.4-0.6-0.9-0.9-1.4c-0.1-0.1-0.1-0.2-0.6,0c-0.1,0.1,0,0.2-0.2,0.2c0.2-0.1,0.3,0,0.3,0c-0.2,0.1-0.1,0-0.2,0l0,0
				c-0.1,0-0.2,0.1-0.2,0C49.5,38,49.7,38.1,50,38c-0.1,0.2-0.3,0.1-0.4,0.1c0,0.3,0.1,0.5,0.2,0.8c0.3-0.2,0.2-0.1,0.4-0.1
				l-0.1,0.1c0,0,0.3-0.1,0.3-0.2c-0.1,0.3,0.5,0,0.7,0l-0.2,0.1c0.1,0.1,0.1,0.1,0.2,0.1c-0.2,0.3-0.1-0.1-0.5,0.1l0.1,0
				c-0.2,0.1-0.4,0.2-0.5,0.2c0.3,0,0,0.2,0.3,0.3c-0.2,0.1-0.4,0-0.4,0c0,0.1,0.2,0.1,0,0.2l0.2-0.1c0.1,0.1-0.2,0.1-0.3,0.2
				C50.1,39.9,50.7,39.3,50.9,39.4z"/>
			<path fill="#181716" d="M51.9,41.5C51.9,41.4,51.8,41.4,51.9,41.5C51.8,41.4,51.8,41.5,51.9,41.5z"/>
			<path fill="#181716" d="M51.2,41.3C51.2,41.3,51.2,41.3,51.2,41.3C51.2,41.4,51.2,41.3,51.2,41.3z"/>
			<path fill="#181716" d="M50.9,41.5c0.1-0.1,0.1,0,0.2-0.1C51.1,41.4,51,41.3,50.9,41.5z"/>
			<path fill="#181716" d="M54.7,44.8c0.2-0.3-0.3,0-0.2-0.2c0,0,0,0,0.1,0l-0.1,0l0-0.1c-0.2,0.1-0.3,0.1-0.4,0.2
				c-0.1,0.2,0.2-0.1,0.1,0.1C54.1,44.9,54,45,53.9,45c0.1,0,0.2-0.1,0.3-0.2c0.1,0,0,0.1-0.1,0.1c0.1,0,0.4-0.2,0.4-0.1
				C54.4,45,54.3,45,54.4,45c0.2-0.3,0,0.1,0.2,0c0,0.1-0.1,0.3-0.2,0.4c0.2-0.2,0.4-0.3,0.5-0.3c-0.1,0-0.2,0.1-0.2,0.1l0.2-0.2
				C54.7,45,54.7,44.9,54.7,44.8z"/>
			<path fill="#181716" d="M52.9,43.4c0,0.1,0.1,0,0.2-0.1C53.1,43.2,53,43.4,52.9,43.4z"/>
			<path fill="#181716" d="M52.1,42.6c-0.1,0.1,0.1,0.1,0.1,0.1C52.3,42.6,52.2,42.6,52.1,42.6z"/>
			<path fill="#181716" d="M51.2,42.5c0.1,0,0.1,0,0.1-0.1l0.4-0.1C51.7,42.2,51.3,42.4,51.2,42.5z"/>
			<path fill="#181716" d="M50.9,42.1l0.2,0l0,0c0.1-0.1,0.2-0.1,0.3-0.1C51.3,41.9,51.1,41.9,50.9,42.1z"/>
			<path fill="#181716" d="M51.5,42C51.5,42,51.4,42,51.5,42C51.4,42,51.3,42,51.5,42z"/>
			<path fill="#181716" d="M51.4,41.9C51.4,41.9,51.4,41.9,51.4,41.9C51.4,42,51.4,42,51.4,41.9C51.5,41.9,51.5,41.9,51.4,41.9z"/>
			<path fill="#181716" d="M51,41.9l-0.1-0.1l0,0.1C51.1,41.8,50.8,42,51,41.9z"/>
			<path fill="#181716" d="M50.8,41.1l0.2-0.1c0-0.1-0.5,0-0.2-0.2c-0.1,0.1-0.3,0-0.2,0.2C50.7,40.9,50.8,41.1,50.8,41.1z"/>
			<path fill="#181716" d="M50.9,40.7c0.1,0,0.1-0.1,0.1-0.1C51,40.5,50.9,40.6,50.9,40.7C51.1,40.5,50.7,40.7,50.9,40.7z"/>
			<path fill="#181716" d="M50.6,40.3C50.7,40.3,50.7,40.3,50.6,40.3c0-0.1-0.2,0.1-0.3,0.1C50.2,40.5,50.6,40.4,50.6,40.3z"/>
			<path fill="#181716" d="M51.7,38.9c-0.2,0.1-0.1,0.1-0.1,0.1C51.7,39.1,51.7,39,51.7,38.9z"/>
			<path fill="#181716" d="M50.4,39.7L50.4,39.7l0.2-0.1L50.4,39.7z"/>
			<path fill="#181716" d="M50,39.3l-0.2,0l0.1,0.1L50,39.3z"/>
			<path fill="#181716" d="M50,39.2L50,39.2l-0.1,0C49.8,39.2,50,39.2,50,39.2z"/>
			<path fill="#181716" d="M49.8,39C49.8,39,49.8,39,49.8,39l0.1,0.1L49.8,39z"/>
		</g>
	</g>
	<path fill="#7DA050" d="M20.8,31.1c0,0,1.1,8,2.1,11.5l5.8,0.4l0-7.6C28.6,35.3,23.7,30.5,20.8,31.1z"/>
	<defs>
		
			<filter id="Adobe_OpacityMaskFilter_00000143617036023800618320000001818969231942621316_" filterUnits="userSpaceOnUse" x="20.2" y="30.9" width="8.6" height="6.4">
			<feColorMatrix  type="matrix" values="1 0 0 0 0  0 1 0 0 0  0 0 1 0 0  0 0 0 1 0"/>
		</filter>
	</defs>
	
		<mask maskUnits="userSpaceOnUse" x="20.2" y="30.9" width="8.6" height="6.4" id="mask3_9410_192793_00000005970937605830011630000017851949486759604373_">
		<path fill="#FFFFFF" filter="url(#Adobe_OpacityMaskFilter_00000143617036023800618320000001818969231942621316_)" d="M20.8,31.1
			c0,0,1.1,8,2.1,11.5l5.8,0.4l0-7.6C28.6,35.3,23.7,30.5,20.8,31.1z"/>
	</mask>
	<g mask="url(#mask3_9410_192793_00000005970937605830011630000017851949486759604373_)">
		<g opacity="0.78">
			<path fill="#181716" d="M24.7,34C24.7,34,24.7,34,24.7,34C24.6,34,24.7,34,24.7,34z"/>
			<path fill="#181716" d="M26.5,35.4L26.5,35.4C26.5,35.3,26.5,35.3,26.5,35.4z"/>
			<path fill="#181716" d="M24.1,34.4c0,0-0.1,0-0.1,0.1L24.1,34.4z"/>
			<path fill="#181716" d="M24,34.9C24,35,24,35,24,34.9C24,35,24,34.9,24,34.9z"/>
			<path fill="#181716" d="M23.2,32.5C23.3,32.5,23.3,32.5,23.2,32.5L23.2,32.5z"/>
			<path fill="#181716" d="M23,32.5C23,32.5,23,32.5,23,32.5L23,32.5C22.9,32.6,23,32.5,23,32.5z"/>
			<path fill="#181716" d="M21.3,33L21.3,33C21.3,33.1,21.3,33,21.3,33z"/>
			<path fill="#181716" d="M23.4,32.4C23.3,32.4,23.3,32.5,23.4,32.4C23.3,32.5,23.3,32.5,23.4,32.4z"/>
			<path fill="#181716" d="M24.7,33.9C24.7,34,24.7,34,24.7,33.9C24.7,34,24.7,34,24.7,33.9z"/>
			<path fill="#181716" d="M27.2,35.8C27.2,35.8,27.3,35.8,27.2,35.8C27.3,35.7,27.2,35.7,27.2,35.8z"/>
			<path fill="#181716" d="M23.6,33c-0.2,0.3-0.1,0-0.3,0.2c0.1,0,0.1-0.1,0,0.1c-0.1,0.1-0.1-0.1-0.2,0.1l0.1,0
				c-0.1,0.1-0.2,0.3-0.2,0.3c0.3-0.3,0,0.2,0.1,0.2l0,0l0,0.2l0,0c0,0,0,0,0-0.1c-0.1,0.2-0.1,0.3,0,0.3c0.2-0.1,0.3,0.1,0.4,0
				c-0.1,0-0.1,0-0.1-0.1l0.2-0.2c0.1,0-0.1,0.2,0,0.1c0.2-0.3-0.1-0.1-0.1-0.1c0.1-0.1,0.1-0.1,0.2-0.1c-0.1-0.1-0.1-0.2-0.3,0
				c0-0.1,0.1-0.2,0.2-0.2c-0.2,0.1,0.1-0.2-0.1-0.1c0.2-0.2,0.2,0,0.4-0.1c-0.1,0.3,0.2,0.1,0.3,0.2c-0.1,0.2-0.3,0.3-0.4,0.4
				c0,0.2,0.2,0,0.3-0.1c0,0.1-0.2,0.3-0.1,0.4l-0.2,0.1c-0.1,0.3,0.1-0.1,0.1,0c0-0.1,0.1-0.1,0-0.2c0.1-0.1,0.1-0.1,0.2-0.1l0,0
				c0.1-0.1,0.2-0.2,0.2-0.1c-0.2,0.1,0,0.1-0.1,0.2l0,0c0.1,0,0.1,0,0.2,0l0,0c0.1,0,0.2-0.2,0.2-0.2c-0.1,0.1-0.3,0.3-0.2,0.3
				c-0.1,0.1-0.2,0.1-0.2,0c0,0.1-0.1,0.3-0.2,0.3c-0.1,0.2,0.1,0,0.1,0.1c0,0,0.1-0.1,0.1-0.1c-0.1,0.2,0.1,0.1,0.2-0.1l-0.1,0.1
				c0.1-0.2,0.3-0.2,0.3-0.3c-0.2,0.3,0.2,0,0.1,0.2l0.1-0.1c0.1,0.2,0.4-0.1,0.5-0.1c-0.1,0.1-0.3,0.3-0.3,0.2
				c0.1,0.1-0.2,0.3-0.2,0.5c0,0.2,0.2-0.2,0.3-0.3l-0.1,0c0.3-0.3,0.2,0.2,0.4,0.1c0,0.1-0.1,0-0.1,0.1c-0.1,0.2,0.1,0,0.2-0.1
				c0,0.1,0.1,0.2-0.1,0.4c0,0.1,0.1-0.1,0.2-0.2l0,0.1l0.2-0.2c0,0.1,0,0.3-0.1,0.5c0.2,0.1,0.3-0.5,0.5-0.5c0,0.1-0.1,0.2-0.2,0.2
				l0.1,0c-0.2,0.2-0.2,0.1-0.3,0.3c0.3-0.2,0.2,0,0.4-0.1l0,0c0.2-0.2,0.2,0,0.3,0c-0.1,0.1-0.2,0.1-0.2,0.1c0,0.1,0.2,0.1,0.4-0.1
				c0,0.1,0,0.2-0.1,0.3c0.1,0.1,0.3-0.3,0.3-0.2l-0.1,0.2c0,0.4,0.4-0.1,0.4,0.2l0.1-0.2c0,0.1,0,0.2,0,0.3L27,36.1
				c-0.1,0.2,0.2-0.2,0.1,0c0-0.1,0.1-0.3,0.1-0.4c-0.3,0-0.4-0.5-0.7-0.4c0,0,0,0.1-0.1,0.1c0-0.1-0.1,0,0-0.2l0,0
				c-0.1,0,0-0.3,0-0.3c-0.1,0.1-0.1-0.2-0.2,0.1l0.1-0.2c-0.1,0.1-0.1,0.2-0.2,0.3c0,0,0-0.1,0.1-0.2c-0.1-0.2-0.3-0.3-0.5-0.3
				l0.1-0.1c0-0.1-0.3,0.1-0.1-0.2c-0.2,0.1-0.2-0.2-0.4,0.1c0.2-0.4-0.1-0.3-0.2-0.3c-0.2,0.3-0.2,0-0.3,0.1
				c0.1-0.2,0.2-0.2,0.4-0.3c-0.4,0.3-0.1-0.5-0.6,0c0,0,0-0.1,0-0.1c0,0,0-0.1,0-0.2c-0.1,0.1-0.1,0.2-0.1,0.2c0,0,0.1-0.2,0.1-0.3
				c-0.2,0.1-0.3,0-0.5,0.2c0-0.1,0.1-0.2,0.1-0.2c-0.3,0.1-0.1-0.1-0.3-0.1c0,0,0.2-0.2,0.2-0.1c0.2-0.4-0.2-0.1-0.2-0.3l-0.2,0.2
				c-0.1,0,0.1-0.2,0.1-0.2c0-0.2-0.2-0.1-0.2-0.2c0,0,0-0.1,0,0l-0.1-0.1c0,0-0.2,0.1-0.3,0.2C23.5,33,23.5,32.9,23.6,33z"/>
			<path fill="#181716" d="M23.4,33.1L23.4,33.1C23.4,33.1,23.4,33.1,23.4,33.1z"/>
			<path fill="#181716" d="M23.8,34.7c0-0.1,0-0.1,0-0.1C23.8,34.6,23.8,34.7,23.8,34.7z"/>
			<path fill="#181716" d="M22,32.6c-0.2,0.3,0.1,0,0.1,0.1c-0.1,0-0.2,0.2-0.3,0.3c0.4-0.3,0,0.1,0.2,0.1c-0.1,0.1-0.2,0.1-0.3,0.2
				c0.1-0.1,0.3,0,0.5-0.2c0.1,0.1,0.1,0.2,0.2,0.2c-0.2,0-0.2,0.2-0.4,0.3c0.3-0.2,0.7-0.3,1-0.6c-0.2,0.2-0.2,0.3-0.4,0.5
				c0,0.3,0.2-0.2,0.3,0l0-0.1c0.1,0,0.3-0.2,0.4-0.4L23.2,33c0.1-0.2,0.2-0.1,0.2-0.1c0.2-0.2,0-0.2,0.2-0.3
				c-0.1,0.1-0.1,0-0.2,0.1l0.1-0.1c0-0.1-0.2,0.1-0.3,0c0,0,0,0,0-0.1c-0.1,0.1-0.2,0.2-0.3,0.2l0,0c-0.2,0.2-0.4,0.2-0.5,0.5
				L22.4,33c0.2-0.2,0.5-0.5,0.6-0.5l0.1-0.1c0.1-0.2-0.3,0-0.4,0.3c-0.5,0.5-0.2-0.1-0.5,0c0.1-0.1,0.2-0.2,0.3-0.2
				c0,0,0.1,0,0,0.1c0.2,0,0.4-0.5,0.4-0.3c0,0.1-0.3,0.2-0.2,0.3l0.4-0.3c-0.1,0-0.2,0-0.3,0c-0.5,0-0.5-0.4-0.5-0.4
				c-0.5-0.3-0.9-0.6-1.4-0.9c-0.2-0.1-0.2-0.1-0.6,0.2c0,0.1,0.1,0.1-0.1,0.3c0.1-0.1,0.3-0.2,0.3-0.1c-0.1,0.1-0.1,0-0.1,0.1l0,0
				c-0.1,0.1-0.1,0.1-0.2,0.1c-0.1,0.3,0.1,0.4,0.4,0.1c-0.1,0.2-0.2,0.2-0.4,0.3c0.1,0.3,0.3,0.4,0.5,0.6c0.2-0.2,0.2-0.1,0.3-0.3
				l0,0.1c0-0.1,0.2-0.2,0.2-0.3c0,0.3,0.4-0.2,0.6-0.2l-0.1,0.1c0.1,0,0.1,0.1,0.2,0c-0.1,0.3-0.1-0.1-0.4,0.3l0.1,0
				c-0.1,0.1-0.3,0.3-0.5,0.4c0.3-0.1,0.1,0.2,0.4,0.2c-0.1,0.1-0.4,0.1-0.4,0.1c0,0,0.2,0,0.1,0.1l0.2-0.2c0.1,0-0.2,0.2-0.2,0.3
				C21.5,33.3,21.8,32.6,22,32.6z"/>
			<path fill="#181716" d="M23.7,34.1C23.7,34,23.7,34,23.7,34.1C23.7,34.1,23.7,34.1,23.7,34.1z"/>
			<path fill="#181716" d="M23.1,34.2C23.1,34.2,23,34.2,23.1,34.2C23.1,34.2,23.1,34.2,23.1,34.2z"/>
			<path fill="#181716" d="M22.8,34.4c0-0.1,0.1-0.1,0.2-0.2C23,34.3,22.9,34.2,22.8,34.4z"/>
			<path fill="#181716" d="M28.4,37.1l0.1-0.2c0,0.1,0.1,0.1,0.1,0.3c0,0,0.1-0.1,0.1-0.2c0,0.1,0,0.2,0.1,0
				c-0.2-0.2-0.1-0.2-0.2-0.3c0,0,0,0,0,0c0,0,0-0.1-0.1-0.1C28.5,37,28.4,36.9,28.4,37.1z"/>
			<path fill="#181716" d="M28.3,36.9c0.1,0,0.2-0.2,0.2-0.3c-0.1,0-0.1,0.1-0.2,0.1C28.3,36.7,28.4,36.7,28.3,36.9z"/>
			<path fill="#181716" d="M28.2,36.9c0-0.1,0-0.4-0.1-0.2C28.2,36.7,28.1,37,28.2,36.9z"/>
			<path fill="#181716" d="M27.8,36.5l0.1,0.2c-0.1,0.3-0.1,0.1-0.2,0.2c0.1,0.1,0.1,0,0.2-0.1c0,0,0.1-0.1,0.2-0.2
				C27.9,36.8,28.1,36.1,27.8,36.5z"/>
			<path fill="#181716" d="M28,36.9l0-0.1L28,36.9L28,36.9z"/>
			<path fill="#181716" d="M27.6,36.1c0.1-0.3-0.2,0.1-0.3-0.1c0,0,0,0,0.1-0.1l-0.1,0l0-0.1c-0.1,0.2-0.2,0.2-0.3,0.3
				c0,0.2,0.2-0.2,0.1,0c0,0.1-0.1,0.2-0.2,0.3c0.1-0.1,0.2-0.2,0.2-0.3c0.1,0,0,0.1,0,0.2c0.1-0.1,0.2-0.3,0.3-0.3
				c0,0.2-0.1,0.2,0,0.2c0.1-0.3,0.1,0.1,0.2-0.1c0,0.1,0,0.3,0,0.4c0.1-0.2,0.2-0.4,0.3-0.5c-0.1,0.1-0.1,0.1-0.2,0.2l0.1-0.3
				C27.7,36.2,27.6,36.2,27.6,36.1z"/>
			<path fill="#181716" d="M27,36.5C27,36.6,27,36.6,27,36.5C26.9,36.6,26.9,36.6,27,36.5z"/>
			<path fill="#181716" d="M27.6,36.8L27.6,36.8L27.5,37L27.6,36.8z"/>
			<path fill="#181716" d="M26.8,36.7C26.8,36.7,26.9,36.6,26.8,36.7L26.8,36.7L26.8,36.7z"/>
			<path fill="#181716" d="M26.8,36.5l0-0.2L26.8,36.5L26.8,36.5z"/>
			<path fill="#181716" d="M25.4,35.4c0,0.1,0.1-0.1,0.2-0.2C25.5,35.2,25.5,35.4,25.4,35.4z"/>
			<path fill="#181716" d="M24.3,35c0,0.1,0.1,0,0.2,0.1C24.5,34.9,24.4,35,24.3,35z"/>
			<path fill="#181716" d="M23.5,35.3c0,0,0.1-0.1,0.1-0.1l0.3-0.3C23.9,34.8,23.6,35.2,23.5,35.3z"/>
			<path fill="#181716" d="M23,35l0.2-0.1l0,0c0.1-0.1,0.2-0.1,0.2-0.2C23.3,34.7,23.2,34.8,23,35z"/>
			<path fill="#181716" d="M23.5,34.7C23.5,34.7,23.5,34.7,23.5,34.7C23.5,34.7,23.4,34.8,23.5,34.7z"/>
			<path fill="#181716" d="M23.5,34.7C23.4,34.7,23.4,34.7,23.5,34.7C23.4,34.7,23.5,34.7,23.5,34.7C23.5,34.6,23.5,34.6,23.5,34.7z
				"/>
			<path fill="#181716" d="M23.1,34.8L23,34.8l0,0.1C23.1,34.7,22.9,35,23.1,34.8z"/>
			<path fill="#181716" d="M22.6,34.2l0.1-0.2c0-0.1-0.4,0.2-0.3-0.1c-0.1,0.1-0.2,0.1-0.2,0.3C22.4,34,22.5,34.1,22.6,34.2z"/>
			<path fill="#181716" d="M22.5,33.7c0,0,0.1-0.1,0.1-0.1C22.6,33.5,22.5,33.6,22.5,33.7C22.6,33.4,22.3,33.8,22.5,33.7z"/>
			<path fill="#181716" d="M22.1,33.5C22.2,33.5,22.2,33.5,22.1,33.5c0-0.1-0.1,0.1-0.3,0.2C21.8,33.8,22.1,33.6,22.1,33.5z"/>
			<path fill="#181716" d="M22.6,31.8c-0.1,0.1-0.1,0.2,0,0.1C22.6,31.9,22.6,31.9,22.6,31.8z"/>
			<path fill="#181716" d="M21.6,33L21.6,33l0.2-0.2L21.6,33z"/>
			<path fill="#181716" d="M21.2,32.8L21,32.9l0.1,0L21.2,32.8z"/>
			<path fill="#181716" d="M21.1,32.7L21.1,32.7l-0.1,0C21,32.8,21.1,32.7,21.1,32.7z"/>
			<path fill="#181716" d="M20.9,32.5C20.9,32.5,20.9,32.6,20.9,32.5l0.1,0L20.9,32.5z"/>
		</g>
	</g>
	<path fill="#EFEECE" d="M58.8,37c0,0-7.5,4.3-21,2c-13.5-2.2-22.4-13-22.4-13s28.2,11.2,33.8,10.7C54.8,36.3,58.8,37,58.8,37z"/>
	<defs>
		
			<filter id="Adobe_OpacityMaskFilter_00000089554251515320526520000015030794434061294240_" filterUnits="userSpaceOnUse" x="28.7" y="30.6" width="3.3" height="11.3">
			<feColorMatrix  type="matrix" values="1 0 0 0 0  0 1 0 0 0  0 0 1 0 0  0 0 0 1 0"/>
		</filter>
	</defs>
	
		<mask maskUnits="userSpaceOnUse" x="28.7" y="30.6" width="3.3" height="11.3" id="mask4_9410_192793_00000111168026734390448620000017304799629774994830_">
		<path fill="#FFFFFF" filter="url(#Adobe_OpacityMaskFilter_00000089554251515320526520000015030794434061294240_)" d="M58.8,37
			c0,0-7.5,4.3-21,2c-13.5-2.2-22.4-13-22.4-13s28.2,11.2,33.8,10.7C54.8,36.3,58.8,37,58.8,37z"/>
	</mask>
	<g mask="url(#mask4_9410_192793_00000111168026734390448620000017304799629774994830_)">
		<g opacity="0.78">
			<path fill="#181716" d="M29.9,34.4l-0.1,0C29.8,34.5,29.8,34.4,29.9,34.4z"/>
			<path fill="#181716" d="M30.8,36.8c0,0,0.1,0,0.1,0.1L30.8,36.8z"/>
			<path fill="#181716" d="M30.3,38.9C30.2,38.9,30.2,38.9,30.3,38.9L30.3,38.9C30.3,38.9,30.3,38.9,30.3,38.9z"/>
			<path fill="#181716" d="M30.4,38.8L30.4,38.8C30.4,38.8,30.4,38.8,30.4,38.8z"/>
			<path fill="#181716" d="M29.9,38.7c0,0,0.1,0,0.1,0C30,38.8,30,38.7,29.9,38.7z"/>
			<path fill="#181716" d="M30,36.7C30,36.7,30.1,36.7,30,36.7C30.1,36.7,30,36.7,30,36.7z"/>
			<path fill="#181716" d="M29.6,33.6C29.6,33.6,29.6,33.6,29.6,33.6C29.5,33.6,29.6,33.6,29.6,33.6z"/>
			<path fill="#181716" d="M30.2,38.2c0.3-0.1,0,0.1,0.3,0c-0.1,0-0.1-0.1,0-0.1c0.2,0,0,0.1,0.3,0.1l-0.1,0c0.1-0.1,0.3,0,0.3-0.1
				c-0.4,0,0.1-0.2,0.1-0.3l0,0l0.2-0.1l0,0c0,0,0,0-0.1,0c0.2-0.1,0.3-0.2,0.2-0.2c-0.2,0-0.1-0.2-0.3-0.3c0.1,0,0.1,0,0,0.1
				l-0.3,0c0-0.1,0.2,0,0.1-0.1c-0.3,0.1,0,0.1,0,0.1c-0.1,0-0.1,0-0.2-0.1c0,0.1-0.1,0.2,0.2,0.3c-0.1,0-0.2,0.1-0.3,0
				c0.2,0.1-0.2,0.1,0,0.1c-0.3,0-0.2-0.1-0.4-0.2c0.2-0.1,0-0.2-0.1-0.3c0.2,0,0.4,0,0.6,0c0.1-0.1-0.1-0.1-0.3-0.1
				c0.1-0.1,0.4-0.1,0.4-0.2l0.2,0.1c0.3-0.1-0.1-0.1-0.1-0.1c-0.1,0-0.2,0-0.2,0.1c-0.1,0-0.2,0-0.2,0l0,0c-0.2,0-0.3,0-0.3-0.1
				c0.2,0,0.1-0.1,0.2-0.1l0,0c-0.1,0-0.1-0.1-0.1-0.1l0,0c-0.1,0-0.3,0-0.3-0.1c0.1,0,0.4,0,0.3,0c0.2,0,0.2,0.1,0.1,0.1
				c0-0.1,0.3-0.1,0.3-0.1c0.2-0.1-0.1,0,0-0.1c-0.1,0-0.1,0-0.2,0c0.3,0,0-0.1-0.2-0.1l0.1,0.1c-0.2,0-0.3,0-0.5,0
				c0.3-0.1-0.2-0.2,0.1-0.2l-0.2,0.1c0.1-0.2-0.3-0.2-0.4-0.3c0.1,0,0.5,0,0.4,0.1c0.1-0.1,0.3-0.1,0.5-0.2c0.1-0.1-0.3,0-0.4,0
				l0.1,0.1c-0.4,0,0-0.3-0.2-0.4c0.1,0,0.1,0,0.1,0c0.2-0.1-0.1,0-0.1-0.1c0-0.1,0.1-0.2,0.4-0.2c0-0.1-0.2,0-0.2,0l0,0l-0.3,0
				c0.1-0.1,0.2-0.2,0.4-0.3c-0.1-0.1-0.6,0.1-0.7,0c0.1-0.1,0.2,0,0.3,0l0-0.1c0.3,0,0.2,0.1,0.5,0c-0.3,0-0.1-0.1-0.4-0.2l0,0
				c-0.2,0-0.1-0.1-0.2-0.2c0.2,0,0.2,0.1,0.2,0.1c0.1-0.1,0-0.3-0.4-0.2c0,0,0.1-0.2,0.3-0.1c0-0.1-0.4,0-0.4-0.1l0.2-0.1
				c0.3-0.2-0.4-0.2-0.1-0.4l-0.3,0.1c0.1-0.1,0.1-0.1,0.2-0.2l0.1,0c0.2-0.1-0.2,0-0.1-0.1c-0.1,0-0.2,0.1-0.3,0.2
				c0.2,0.2-0.1,0.6,0.3,0.8c0,0,0.1,0,0.1,0c-0.1,0,0,0.1-0.1,0.1l0,0c0.1,0-0.2,0.2-0.2,0.2c0.2,0-0.1,0.2,0.3,0.1l-0.2,0.1
				c0.1,0,0.3,0,0.3,0c0,0.1-0.1,0.1-0.2,0.1c-0.1,0.2,0,0.4,0.1,0.6l-0.1,0c-0.1,0.1,0.3,0.1-0.1,0.1c0.2,0.1-0.1,0.3,0.3,0.2
				c-0.4,0.1-0.1,0.3,0,0.4c0.3-0.1,0.1,0.1,0.3,0.1c-0.3,0.1-0.3-0.1-0.5-0.1c0.4,0.1-0.2,0.4,0.4,0.4c0,0,0,0-0.1,0
				c0,0-0.1,0.1-0.1,0.1c0.1,0,0.2-0.1,0.2,0c0,0.1-0.2,0.1-0.3,0.1c0.2,0.1,0.2,0.2,0.5,0.2c-0.1,0-0.2,0.1-0.3,0.1
				c0.2,0.1,0,0.1,0.1,0.3c0,0-0.3,0-0.2-0.1c-0.4,0.1,0.1,0.2-0.1,0.4l0.3,0c0.1,0.1-0.2,0.1-0.3,0.1c-0.1,0.1,0,0.2,0,0.3
				c0,0-0.1,0-0.1,0l0,0.2c0.1,0,0.2,0.1,0.3,0C30.2,38.3,30.1,38.2,30.2,38.2z"/>
			<path fill="#181716" d="M31.3,36.8C31.2,36.9,31.2,36.9,31.3,36.8C31.2,36.9,31.3,36.9,31.3,36.8z"/>
			<path fill="#181716" d="M30.9,39.6c0.4,0-0.1-0.1,0-0.1c0.1,0,0.3,0,0.4,0c-0.5,0,0.1-0.1,0-0.2c0.2,0,0.2,0.1,0.4,0
				c-0.1-0.1-0.2-0.2-0.5-0.2c0-0.1,0.1-0.2,0-0.3c0.1,0.1,0.3,0,0.5,0c-0.3-0.1-0.7-0.2-1.1-0.3c0.3,0,0.3-0.1,0.6-0.1
				c0.2-0.2-0.3,0-0.2-0.2l0,0.1c-0.1,0-0.4,0-0.6,0l0.1,0.2c-0.2,0-0.2-0.1-0.2-0.1c-0.3,0-0.2,0.1-0.3,0.1c0.2,0,0.1,0.1,0.2,0.1
				l-0.1,0c-0.1,0.1,0.2,0.1,0.2,0.2c0,0,0,0-0.1,0c0.1,0,0.3,0,0.3,0.1l0,0c0.3,0,0.4,0.2,0.7,0L31,39.1c-0.3,0-0.7,0-0.8-0.1
				l-0.1,0c-0.2,0.1,0.2,0.2,0.5,0.1c0.7,0,0,0.3,0.3,0.4c-0.2,0-0.3,0-0.4-0.1c0,0,0-0.1,0.1-0.1c-0.1-0.2-0.6,0.1-0.6-0.1
				c0.1-0.1,0.3,0.1,0.3,0l-0.5-0.1c0,0.1,0.1,0.2,0.2,0.2c0.4,0.3,0.1,0.6,0.1,0.6c0.1,0.5,0.2,1.1,0.3,1.6
				c0.1,0.2,0.1,0.2,0.6,0.3c0.1,0,0.1-0.1,0.2-0.1c-0.2,0-0.3-0.1-0.3-0.2c0.2,0,0.1,0.1,0.1,0.1l0,0c0.1,0,0.2,0,0.2,0.1
				c0.3-0.1,0.2-0.3-0.1-0.4c0.2-0.1,0.3,0,0.4,0.1c0.1-0.3,0.1-0.5,0.1-0.8c-0.3,0-0.2,0-0.4,0l0.1,0c-0.1,0-0.3,0-0.3,0.1
				c0.2-0.2-0.5-0.2-0.6-0.3l0.2,0c0-0.1,0-0.1-0.1-0.2c0.3-0.2,0.1,0.1,0.5,0.1l-0.1,0c0.2,0,0.4,0,0.6,0.1
				c-0.3-0.1,0.1-0.2-0.1-0.4c0.2,0,0.4,0.1,0.4,0.2c0-0.1-0.1-0.1,0.1-0.2l-0.2,0c0-0.1,0.2,0,0.4,0C31.8,39.5,31.1,39.8,30.9,39.6
				z"/>
			<path fill="#181716" d="M30.8,37.3C30.8,37.3,30.8,37.4,30.8,37.3C30.9,37.4,30.9,37.3,30.8,37.3z"/>
			<path fill="#181716" d="M31.3,37.7C31.4,37.7,31.4,37.7,31.3,37.7C31.4,37.7,31.4,37.7,31.3,37.7z"/>
			<path fill="#181716" d="M31.7,37.7c-0.1,0-0.1,0-0.3,0C31.5,37.7,31.5,37.8,31.7,37.7z"/>
			<path fill="#181716" d="M28.8,30.6c0,0.1-0.2,0.1-0.1,0.2c0,0,0.1,0,0.2,0C28.8,30.6,28.8,30.6,28.8,30.6z"/>
			<path fill="#181716" d="M29,30.9c0,0,0,0.1,0.1,0.1c0.1-0.1,0.2-0.2,0.2-0.2C29.2,30.7,29.1,31,29,30.9z"/>
			<path fill="#181716" d="M29.1,31.2L29.1,31.2C29.1,31.3,29.1,31.2,29.1,31.2z"/>
			<path fill="#181716" d="M29.2,31.1c0.1-0.1,0.1-0.1,0.2-0.2c-0.1,0-0.2,0-0.2,0L29.2,31.1c-0.1,0-0.1,0.1-0.1,0.1
				C29.2,31.2,29.2,31.2,29.2,31.1C29.3,31.1,29.2,31.1,29.2,31.1z"/>
			<path fill="#181716" d="M29.3,31.2C29.4,31.2,29.4,31.1,29.3,31.2C29.4,31.1,29.3,31.2,29.3,31.2z"/>
			<path fill="#181716" d="M29.2,31.7c0-0.1,0.2-0.1,0.3-0.2c0-0.1-0.3,0.1-0.2,0c0.2,0,0.1-0.1,0.1-0.3
				C29.2,31.4,29.1,31.5,29.2,31.7l0.1-0.1C29.3,31.5,29.2,31.6,29.2,31.7z"/>
			<path fill="#181716" d="M29.7,31.8l-0.2,0.1c0.1-0.1,0-0.2,0.2-0.3c0,0-0.1,0-0.2,0.1c0.1-0.1,0.1-0.2,0-0.1
				c0,0.2-0.1,0.2-0.1,0.4c0,0,0,0,0,0c0,0,0,0.1-0.1,0.1C29.6,31.9,29.6,32,29.7,31.8z"/>
			<path fill="#181716" d="M29.7,32c0-0.1-0.3,0-0.3,0.1c0.1,0,0.1,0,0.2,0C29.5,32.2,29.5,32.1,29.7,32z"/>
			<path fill="#181716" d="M29.7,32.1c-0.1,0.1-0.3,0.2-0.1,0.2C29.6,32.2,29.9,32.1,29.7,32.1z"/>
			<path fill="#181716" d="M29.8,32.7l0.1-0.2c0.3-0.1,0.1,0,0.3,0c0-0.1-0.1-0.1-0.3-0.1c0,0-0.1,0-0.3,0
				C29.9,32.5,29.2,32.8,29.8,32.7z"/>
			<path fill="#181716" d="M29.9,32.3l-0.1,0L29.9,32.3L29.9,32.3z"/>
			<path fill="#181716" d="M29.6,33.1c-0.3,0.2,0.2,0.1,0.1,0.2c0,0,0,0-0.1,0l0.1,0.1l-0.1,0c0.2-0.1,0.3,0,0.5,0
				c0.2-0.1-0.3,0-0.1-0.1c0.1,0,0.2,0,0.3,0c-0.1,0-0.2,0-0.3,0c0,0,0.1-0.1,0.2-0.1c-0.1,0-0.4,0.1-0.4,0c0.2-0.1,0.3-0.1,0.2-0.1
				c-0.3,0.2,0-0.1-0.2-0.1c0-0.1,0.2-0.2,0.3-0.2c-0.2,0.1-0.5,0.1-0.6,0.1c0.1,0,0.2,0,0.3,0L29.5,33C29.7,33,29.6,33.1,29.6,33.1
				L29.6,33.1z"/>
			<path fill="#181716" d="M30.1,32.7L30.1,32.7l0.2-0.1L30.1,32.7z"/>
			<path fill="#181716" d="M30.6,33.3C30.6,33.2,30.5,33.3,30.6,33.3L30.6,33.3L30.6,33.3z"/>
			<path fill="#181716" d="M30.4,33.4l-0.2,0.1L30.4,33.4L30.4,33.4z"/>
			<path fill="#181716" d="M30.7,35.2c0.1-0.1-0.1,0-0.3,0C30.4,35.3,30.6,35.2,30.7,35.2z"/>
			<path fill="#181716" d="M31.1,36.3c0.1-0.1-0.1-0.1-0.1-0.2C30.9,36.2,31,36.2,31.1,36.3z"/>
			<path fill="#181716" d="M31.9,36.6c-0.1,0-0.1,0-0.1,0l-0.4,0C31.3,36.7,31.7,36.7,31.9,36.6z"/>
			<path fill="#181716" d="M32,37.2l-0.1-0.1l0,0c-0.1,0-0.2,0-0.3,0C31.6,37.2,31.7,37.2,32,37.2z"/>
			<path fill="#181716" d="M31.4,37L31.4,37C31.5,37,31.5,37,31.4,37z"/>
			<path fill="#181716" d="M31.5,37.1C31.5,37.1,31.5,37.1,31.5,37.1C31.5,37.1,31.5,37.1,31.5,37.1C31.4,37.1,31.4,37.1,31.5,37.1z
				"/>
			<path fill="#181716" d="M31.8,37.2l0.1,0.2l0.1-0.1C31.7,37.3,32.1,37.2,31.8,37.2z"/>
			<path fill="#181716" d="M31.7,38.1l-0.2,0c0,0.1,0.4,0.2,0.1,0.3c0.1-0.1,0.3,0.1,0.3-0.1C31.7,38.3,31.7,38.1,31.7,38.1z"/>
			<path fill="#181716" d="M31.4,38.5c-0.1,0-0.1,0-0.2,0C31.2,38.5,31.3,38.6,31.4,38.5C31.1,38.5,31.6,38.5,31.4,38.5z"/>
			<path fill="#181716" d="M31.5,38.9C31.5,38.9,31.5,38.8,31.5,38.9c-0.1,0.1,0.2,0,0.3,0C32,38.9,31.6,38.8,31.5,38.9z"/>
			<path fill="#181716" d="M29.9,39.7c0.2,0,0.2-0.1,0.1-0.1C30.1,39.6,30,39.7,29.9,39.7z"/>
			<path fill="#181716" d="M31.5,39.6L31.5,39.6l-0.3,0L31.5,39.6z"/>
		</g>
	</g>
	<path fill="#7DA050" d="M30.3,43c0,0-6.1-0.4-6.6-0.4c-0.3,0-0.7-4.4-1-8.1c-0.2-2.6-0.4-4.8-0.4-4.8s1.9,0.8,3.7,1.7
		c1.5,0.8,4.1,2.6,4.1,2.6L30.3,43z"/>
	<path fill="none" stroke="#1B1C1E" stroke-width="0.2135" stroke-miterlimit="10" d="M23.7,42.6c-0.3,0-0.7-4.4-1-8.1
		c-0.2-2.6-0.4-4.8-0.4-4.8"/>
	<path fill="none" stroke="#1B1C1E" stroke-width="0.2135" stroke-miterlimit="10" d="M23.2,40.9c0,0,1.2-1.6,2.1,1.7
		c0,0-0.6-2,0.8-2c1,0,1.6,2.2,1.6,2.2"/>
	<path fill="#7DA050" d="M58.8,37c0,0,1.1,6.7,1,7.8l-6.1-0.4c0,0-0.5-1.5-1.3-3.2c-0.5-1.2-1.2-2.4-2-3.4
		C50.4,37.8,55.8,36.7,58.8,37z"/>
	<path fill="none" stroke="#1B1C1E" stroke-width="0.2135" stroke-miterlimit="10" d="M53.7,44.4c0,0-0.5-1.5-1.3-3.2
		c-0.5-1.2-1.2-2.4-2-3.4"/>
	<path fill="none" stroke="#1B1C1E" stroke-width="0.2135" stroke-miterlimit="10" d="M56.3,37.4c0,0,1.6,2.4,3.3,4.8"/>
	<path fill="none" stroke="#1B1C1E" stroke-width="0.2135" stroke-miterlimit="10" d="M53.3,43.4c0,0-0.1-1.1,0.8-0.9
		c0.8,0.2,1.2,2,1.2,2s-0.8-2.3,0.6-2c0.9,0.2,1.3,2.1,1.3,2.1"/>
	<path fill="#93543B" d="M58.8,37c0,0-23.3,5.5-43.3-10.9c0,0,0.1-0.5,0.4-1.3c0.2,0.1,11.4,8.6,24.3,10.7c12.7,2,18.1,0.1,18.3,0.1
		C58.6,36,58.7,36.5,58.8,37z"/>
	<path fill="#A1683D" d="M58.5,35.5c-0.1,0.1-5.6,2-18.3-0.1c-12.9-2.1-24.1-10.6-24.3-10.7c1.3-3.4,5.9-12.3,18.9-11
		C48.6,15.2,56.2,26.3,58.5,35.5z"/>
	<path fill="none" stroke="#1B1C1E" stroke-width="0.2135" stroke-miterlimit="10" d="M32.1,13.6c0,0,0.8,3.4,1.2,3.9
		c0.2,0.2,5.4,4.4,5.4,4.4s7.4,1.1,7.7,1.1c0.5,0.2,4.3-1.8,4.3-1.8"/>
	<path fill="none" stroke="#1B1C1E" stroke-width="0.2135" stroke-miterlimit="10" d="M33.3,17.5c0,0-3.3,1.1-6.6,4.3l-5.5-1.5
		l-0.9-2.2"/>
	<path fill="none" stroke="#1B1C1E" stroke-width="0.2135" stroke-miterlimit="10" d="M38.7,22c0,0-1.5,3.4-2.4,5.9"/>
	<path fill="none" stroke="#1B1C1E" stroke-width="0.2135" stroke-miterlimit="10" d="M26.7,21.9l3.3,5.1l6.3,0.9l6,4.1l5.8-2.1
		c-0.3-2.8-1.9-6.7-1.9-6.7"/>
	<path fill="none" stroke="#1B1C1E" stroke-width="0.2135" stroke-miterlimit="10" d="M48.2,29.8l6.9,1.3l1.2-1.7"/>
	<path fill="none" stroke="#1B1C1E" stroke-width="0.2135" stroke-miterlimit="10" d="M29.9,26.9c0,0-1.9,2.8-2.5,4.5"/>
	<path fill="none" stroke="#1B1C1E" stroke-width="0.2135" stroke-miterlimit="10" d="M42.3,31.9c0,0-0.1,2.2-0.2,3.8"/>
	<path fill="none" stroke="#1B1C1E" stroke-width="0.2135" stroke-miterlimit="10" d="M55.1,31.1c0,0,1.2,3.5,1.5,4.9"/>
	<path fill="none" stroke="#1B1C1E" stroke-width="0.2135" stroke-miterlimit="10" d="M21.1,20.3c0,0-2,2.6-3.4,5.7"/>
	<path fill="none" stroke="#1B1C1E" stroke-width="0.2135" stroke-miterlimit="10" d="M15.9,24.7c0.2,0.1,11.4,8.6,24.3,10.7
		c12.7,2,18.1,0.1,18.3,0.1"/>
	<path fill="none" stroke="#1B1C1E" stroke-width="0.2135" stroke-miterlimit="10" d="M13.1,18c0,0-0.1,0.9,0.8,1"/>
</g>
</svg>
