<svg width="265" height="202" viewBox="0 0 265 202" fill="none" xmlns="http://www.w3.org/2000/svg">
<path d="M114.62 159.31L121.61 182.82L153.3 182.65L146.14 158.97L114.62 159.31Z" fill="#865DFF"/>
<path d="M181.97 158.97L43.6497 159.33C39.4397 159.33 36.5097 155.77 37.1297 151.41L48.2997 60.3401C48.6258 58.2102 49.6798 56.2591 51.2824 54.8187C52.885 53.3784 54.9372 52.5378 57.0897 52.4401L195.41 52.0801C199.62 52.0801 202.55 55.6501 201.93 60.0001L190.76 151.07C190.435 153.201 189.382 155.153 187.779 156.594C186.176 158.034 184.123 158.874 181.97 158.97V158.97Z" fill="#27C2EC"/>
<path d="M192.83 135.2L190.66 151.2C190.334 153.33 189.28 155.281 187.677 156.722C186.075 158.162 184.023 159.002 181.87 159.1L43.55 159.46C39.34 159.46 36.4101 155.9 37.0301 151.54L39.21 135.54L192.83 135.2Z" fill="#865DFF"/>
<path d="M114.94 152.341C118.055 152.341 120.58 149.815 120.58 146.701C120.58 143.586 118.055 141.061 114.94 141.061C111.825 141.061 109.3 143.586 109.3 146.701C109.3 149.815 111.825 152.341 114.94 152.341Z" fill="#F3EFFF"/>
<path d="M204.94 102.51L150.46 102.44C146.25 102.44 143.32 98.8804 143.95 94.5204L151.1 44.8504C151.426 42.7194 152.479 40.767 154.082 39.325C155.684 37.883 157.737 37.0404 159.89 36.9404L214.37 37.0104C218.58 37.0104 221.51 40.5704 220.88 44.9304L213.73 94.6104C213.402 96.7396 212.348 98.6896 210.745 100.13C209.143 101.57 207.092 102.411 204.94 102.51Z" fill="#F3EFFF"/>
<path d="M207.3 68.2501C207.294 73.218 205.815 78.0725 203.05 82.2C200.285 86.3274 196.359 89.5424 191.767 91.4385C187.175 93.3346 182.125 93.8266 177.253 92.8523C172.382 91.878 167.909 89.4813 164.399 85.965C160.89 82.4487 158.502 77.9708 157.538 73.0975C156.573 68.2242 157.075 63.1743 158.98 58.5863C160.886 53.9983 164.108 50.0783 168.241 47.3218C172.374 44.5653 177.232 43.0962 182.2 43.1001C188.859 43.1186 195.241 45.7759 199.945 50.4899C204.65 55.2038 207.294 61.5902 207.3 68.2501V68.2501ZM200.3 52.4701C199.17 53.1301 199 53.1001 198.3 52.1001C197.95 51.6101 197.64 51.1001 197.3 50.6001C196.78 49.9201 196.3 49.2501 195.67 48.6001C195.518 48.4088 195.309 48.2707 195.073 48.206C194.838 48.1413 194.588 48.1532 194.36 48.2401C193.76 48.4601 193.14 48.6501 192.52 48.8601C190.95 49.3901 190.59 50.1301 191.14 51.6801C191.33 52.1901 191.54 52.6801 191.7 53.2101C191.86 53.7401 191.62 54.0201 191.11 54.1101C190.767 54.2102 190.402 54.2024 190.064 54.088C189.726 53.9735 189.431 53.7578 189.22 53.4701C188.753 52.9546 188.11 52.6327 187.418 52.5679C186.725 52.5031 186.034 52.7001 185.48 53.1201C184.93 53.5801 184.95 53.9601 185.54 54.3601C185.652 54.4558 185.781 54.5303 185.92 54.5801C186.984 54.9912 187.855 55.7872 188.36 56.8101C188.471 57.0463 188.555 57.2946 188.61 57.5501C188.351 57.6452 188.087 57.7253 187.82 57.7901C187.079 57.8844 186.344 58.0213 185.62 58.2001C185.505 58.2421 185.399 58.3069 185.31 58.3906C185.22 58.4743 185.149 58.5753 185.099 58.6873C185.05 58.7994 185.023 58.9202 185.022 59.0427C185.02 59.1652 185.043 59.2868 185.09 59.4001C185.111 59.5095 185.154 59.6137 185.216 59.7063C185.278 59.799 185.358 59.8783 185.451 59.9398C185.544 60.0012 185.649 60.0435 185.758 60.0642C185.868 60.0848 185.981 60.0835 186.09 60.0601C187.204 60.0306 188.271 59.597 189.09 58.8401C189.541 58.3491 190.15 58.0313 190.811 57.9418C191.472 57.8524 192.144 57.9968 192.71 58.3501C193.231 58.6092 193.71 58.9464 194.13 59.3501C194.384 59.617 194.697 59.8204 195.045 59.9437C195.392 60.0671 195.764 60.107 196.13 60.0601C197.242 59.9744 198.353 60.2365 199.31 60.8101C199.6 60.9901 199.96 61.3001 199.62 61.6101C198.97 62.4334 198.078 63.0317 197.07 63.3201C195.798 63.541 194.49 63.2615 193.42 62.5401C192.86 62.1801 192.3 61.8101 191.73 61.4601C191.19 61.1125 190.57 60.9089 189.93 60.8687C189.289 60.8284 188.649 60.9528 188.07 61.2301C186.22 62.097 184.666 63.4878 183.6 65.2301C182.831 66.2728 182.353 67.5006 182.214 68.7884C182.076 70.0762 182.281 71.3777 182.81 72.5601C183.046 73.2153 183.466 73.7888 184.019 74.2124C184.572 74.6361 185.235 74.8921 185.93 74.9501C187.095 75.0201 188.264 75.0201 189.43 74.9501C190.75 74.9501 191.17 75.2301 191.2 76.5501C191.216 78.5902 191.553 80.615 192.2 82.5501C192.592 83.6426 192.592 84.8376 192.2 85.9301C191.937 86.7458 191.743 87.5821 191.62 88.4301C191.53 89.0301 191.84 89.2201 192.37 88.9301C194.418 87.8708 196.303 86.5238 197.97 84.9301C198.316 84.5939 198.591 84.1912 198.779 83.7462C198.966 83.3011 199.061 82.8229 199.06 82.3401C199.06 81.3401 199.06 80.3401 199.06 79.3401C199.14 77.5601 199.76 76.1101 201.65 75.5601C201.77 75.5205 201.888 75.4703 202 75.4101C202.221 75.3123 202.408 75.1505 202.536 74.9455C202.664 74.7405 202.728 74.5018 202.72 74.2601C202.716 73.895 202.623 73.5362 202.449 73.2154C202.275 72.8946 202.024 72.6215 201.72 72.4201C201.26 72.0601 200.72 71.7301 200.32 71.3601C200.241 71.3025 200.177 71.2273 200.133 71.1404C200.089 71.0535 200.066 70.9575 200.066 70.8601C200.066 70.7627 200.089 70.6667 200.133 70.5798C200.177 70.493 200.241 70.4177 200.32 70.3601C200.853 69.8309 201.569 69.5266 202.32 69.5101C203.32 69.4501 203.62 69.1501 203.77 68.1601C203.832 67.8384 203.809 67.5061 203.704 67.1957C203.598 66.8854 203.414 66.6079 203.17 66.3901C202.36 65.6601 201.52 64.9701 200.73 64.2201C200.559 63.9743 200.434 63.7 200.36 63.4101C200.65 63.4101 201.01 63.2901 201.22 63.4101C201.928 63.8295 202.597 64.3114 203.22 64.8501C203.486 65.1438 203.824 65.3636 204.201 65.488C204.578 65.6124 204.98 65.6373 205.37 65.5601C205.92 65.4501 206.07 65.2001 205.98 64.6601C205.63 62.3441 204.957 60.0887 203.98 57.9601C203.019 55.9649 201.78 54.1164 200.3 52.4701ZM170.4 89.3001C171.18 88.0601 171.87 86.9501 172.59 85.8601C172.773 85.5289 173.038 85.25 173.36 85.0501C174.062 84.6334 174.612 84.0025 174.93 83.2501C175.297 82.5476 175.726 81.8784 176.21 81.2501C176.61 80.7001 176.7 80.1101 176.16 79.6901C175.62 79.2575 175.012 78.9194 174.36 78.6901C172.74 78.1432 171.338 77.0918 170.36 75.6901C169.518 74.5716 168.621 73.4968 167.67 72.4701C167.443 72.1917 167.143 71.9817 166.804 71.8634C166.465 71.7451 166.1 71.7232 165.75 71.8001C165.419 71.8551 165.081 71.8551 164.75 71.8001C164.605 71.8018 164.461 71.7719 164.329 71.7125C164.197 71.6532 164.079 71.5658 163.984 71.4564C163.889 71.347 163.818 71.2182 163.778 71.079C163.737 70.9398 163.728 70.7934 163.75 70.6501C163.753 70.2516 163.671 69.8569 163.509 69.4929C163.347 69.1288 163.108 68.8039 162.81 68.5401C162.38 68.1501 161.88 67.8201 161.47 67.4101C161.098 67.0548 160.805 66.6256 160.61 66.1501C160.581 65.9692 160.596 65.7841 160.653 65.6101C160.711 65.4362 160.809 65.2785 160.94 65.1501C161.075 65.0522 161.233 64.99 161.399 64.969C161.565 64.948 161.734 64.969 161.89 65.0301C162.309 65.2556 162.669 65.5778 162.94 65.9701C163.32 66.5201 163.58 67.1401 163.94 67.7201C163.989 67.8379 164.068 67.9403 164.171 68.0165C164.273 68.0927 164.394 68.14 164.521 68.1533C164.648 68.1666 164.776 68.1455 164.892 68.0921C165.008 68.0388 165.107 67.9552 165.18 67.8501C165.294 67.7336 165.381 67.5938 165.436 67.4403C165.491 67.2867 165.512 67.123 165.498 66.9606C165.484 66.7981 165.435 66.6407 165.354 66.499C165.273 66.3574 165.162 66.235 165.03 66.1401C164.71 65.8201 164.26 65.4601 164.22 65.0801C164.02 64.0874 164.179 63.0561 164.67 62.1701C165.372 61.0051 166.491 60.1507 167.8 59.7801C168.171 59.7136 168.51 59.5268 168.765 59.2485C169.02 58.9703 169.176 58.6159 169.21 58.2401C169.31 57.6501 169.43 57.0701 169.54 56.4501C170.39 57.0601 170.82 57.0801 171.54 56.6001C172.26 56.1201 172.27 55.6001 171.64 55.2001C170.978 54.8112 170.286 54.4768 169.57 54.2001C169.09 54.0001 168.57 53.8601 168.11 53.6501C168.031 53.6084 167.963 53.5502 167.909 53.4794C167.856 53.4086 167.818 53.3269 167.8 53.2401C167.8 53.1501 168 52.9701 168.14 52.9401C168.81 52.8001 169.49 52.7001 170.14 52.5801C170.39 52.5801 170.81 52.4801 170.84 52.3501C170.881 52.2047 170.889 52.0519 170.863 51.9029C170.837 51.7539 170.778 51.6128 170.69 51.4901C170.172 50.9883 169.613 50.53 169.02 50.1201C168.52 49.7701 168.02 49.5001 167.39 49.1201C163.152 52.4399 160.129 57.066 158.79 62.2801C158.311 63.9278 158.399 65.6883 159.04 67.2801C159.852 69.0941 160.927 70.7788 162.23 72.2801C162.36 72.4444 162.528 72.5748 162.72 72.6601C163.122 72.8205 163.461 73.107 163.686 73.4767C163.912 73.8464 164.011 74.2791 163.97 74.7101C164.001 75.2111 163.978 75.7142 163.9 76.2101C163.723 77.2488 163.814 78.3154 164.164 79.3092C164.514 80.303 165.111 81.1913 165.9 81.8901C166.369 82.341 166.714 82.9061 166.9 83.5301C167.127 84.5205 167.304 85.5218 167.43 86.5301C167.45 86.796 167.555 87.0483 167.73 87.2501C168.5 88.0301 169.4 88.6101 170.4 89.3001ZM170.79 46.9801L170.67 47.2201C170.96 47.4401 171.22 47.7901 171.54 47.8401C172.246 48.0361 172.891 48.4075 173.416 48.9197C173.94 49.432 174.327 50.0685 174.54 50.7701C174.645 51.4212 175.005 52.0039 175.54 52.3901C176 52.7901 176.32 52.7201 176.54 52.1501C176.76 51.5801 176.91 51.0901 177.08 50.5501C177.228 50.0317 177.53 49.5704 177.946 49.2275C178.362 48.8847 178.872 48.6763 179.41 48.6301C179.97 48.5501 180.54 48.5601 181.09 48.4601C181.666 48.4158 182.226 48.2451 182.73 47.9601C183.91 47.0801 184.15 45.5701 185.06 44.3101C180.142 43.7116 175.158 44.6439 170.79 46.9801V46.9801Z" fill="#27C2EC"/>
<path d="M200.299 52.4701C201.754 54.1275 202.966 55.9826 203.899 57.9801C204.877 60.1087 205.55 62.3641 205.899 64.6801C205.989 65.2201 205.839 65.4701 205.289 65.5801C204.9 65.6572 204.498 65.6324 204.121 65.508C203.744 65.3836 203.406 65.1638 203.139 64.8701C202.517 64.3314 201.848 63.8495 201.139 63.4301C200.929 63.3101 200.569 63.4301 200.279 63.4301C200.353 63.72 200.479 63.9943 200.649 64.2401C201.439 64.9901 202.279 65.6801 203.089 66.4101C203.334 66.6278 203.518 66.9054 203.624 67.2157C203.729 67.526 203.751 67.8584 203.689 68.1801C203.539 69.1801 203.249 69.4701 202.239 69.5301C201.488 69.5466 200.773 69.8509 200.239 70.3801C200.161 70.4377 200.097 70.513 200.053 70.5998C200.009 70.6867 199.986 70.7827 199.986 70.8801C199.986 70.9775 200.009 71.0735 200.053 71.1604C200.097 71.2472 200.161 71.3225 200.239 71.3801C200.689 71.7501 201.179 72.0801 201.639 72.4401C201.944 72.6415 202.194 72.9146 202.369 73.2354C202.543 73.5562 202.636 73.9149 202.639 74.2801C202.648 74.5218 202.584 74.7605 202.456 74.9655C202.327 75.1705 202.141 75.3323 201.919 75.4301C201.807 75.4902 201.69 75.5404 201.569 75.5801C199.679 76.1301 199.059 77.5801 198.979 79.3601C198.979 80.3601 198.979 81.3601 198.979 82.3601C198.981 82.8429 198.886 83.3211 198.698 83.7661C198.511 84.2112 198.236 84.6139 197.889 84.9501C196.223 86.5438 194.337 87.8908 192.289 88.9501C191.759 89.2401 191.449 89.0501 191.539 88.4501C191.663 87.6021 191.857 86.7658 192.119 85.9501C192.512 84.8576 192.512 83.6626 192.119 82.5701C191.473 80.635 191.136 78.6102 191.119 76.5701C191.119 75.2501 190.669 74.9401 189.349 74.9701C188.184 75.0401 187.015 75.0401 185.849 74.9701C185.171 74.9018 184.525 74.6445 183.986 74.2272C183.447 73.81 183.036 73.2496 182.799 72.6101C182.271 71.4276 182.065 70.1261 182.204 68.8384C182.343 67.5506 182.821 66.3227 183.589 65.2801C184.656 63.5378 186.21 62.1469 188.059 61.2801C188.638 61.0028 189.279 60.8784 189.919 60.9186C190.56 60.9589 191.18 61.1625 191.719 61.5101C192.289 61.8601 192.849 62.2301 193.409 62.5901C194.48 63.3114 195.788 63.591 197.059 63.3701C198.068 63.0816 198.96 62.4834 199.609 61.6601C199.949 61.3501 199.609 61.0401 199.299 60.8601C198.343 60.2865 197.232 60.0244 196.119 60.1101C195.754 60.1569 195.382 60.117 195.035 59.9937C194.687 59.8703 194.374 59.667 194.119 59.4001C193.7 58.9964 193.221 58.6592 192.699 58.4001C192.134 58.0467 191.462 57.9024 190.801 57.9919C190.14 58.0813 189.531 58.3991 189.079 58.8901C188.26 59.647 187.194 60.0805 186.079 60.1101C185.97 60.1334 185.858 60.1348 185.748 60.1141C185.639 60.0934 185.534 60.0512 185.441 59.9897C185.348 59.9283 185.268 59.8489 185.206 59.7563C185.144 59.6636 185.101 59.5596 185.079 59.4501C185.033 59.3368 185.01 59.2152 185.012 59.0927C185.013 58.9702 185.04 58.8493 185.089 58.7373C185.139 58.6252 185.21 58.5243 185.3 58.4406C185.389 58.3569 185.494 58.2921 185.609 58.2501C186.334 58.0713 187.069 57.9343 187.809 57.8401C188.077 57.7753 188.341 57.6951 188.599 57.6001C188.545 57.3446 188.461 57.0963 188.349 56.8601C187.844 55.8371 186.974 55.0413 185.909 54.6301C185.77 54.5804 185.642 54.5058 185.529 54.4101C184.939 54.0101 184.919 53.6301 185.469 53.1701C186.024 52.7501 186.715 52.553 187.408 52.6178C188.1 52.6826 188.743 53.0045 189.209 53.5201C189.421 53.8077 189.715 54.0234 190.054 54.1379C190.392 54.2524 190.757 54.2601 191.099 54.1601C191.609 54.0701 191.849 53.7701 191.689 53.2601C191.529 52.7501 191.319 52.2601 191.129 51.7301C190.579 50.1801 190.939 49.4401 192.509 48.9101C193.129 48.7001 193.749 48.5101 194.349 48.2901C194.578 48.2032 194.828 48.1912 195.063 48.256C195.299 48.3207 195.508 48.4587 195.659 48.6501C196.239 49.2801 196.769 49.9501 197.289 50.6501C197.659 51.1301 197.969 51.6501 198.289 52.1501C199.039 53.1001 199.209 53.1301 200.299 52.4701Z" fill="#865DFF"/>
<path d="M170.4 89.3002C169.4 88.6202 168.5 88.0303 167.63 87.3903C167.455 87.1884 167.35 86.9361 167.33 86.6702C167.204 85.6619 167.027 84.6606 166.8 83.6702C166.614 83.0462 166.269 82.4811 165.8 82.0302C165.011 81.3314 164.414 80.4432 164.064 79.4493C163.714 78.4555 163.623 77.3889 163.8 76.3502C163.878 75.8543 163.902 75.3513 163.87 74.8502C163.911 74.4193 163.812 73.9864 163.587 73.6168C163.361 73.2471 163.022 72.9606 162.62 72.8002C162.428 72.7149 162.26 72.5846 162.13 72.4202C160.827 70.9189 159.752 69.2342 158.94 67.4202C158.3 65.8284 158.211 64.0679 158.69 62.4202C160.029 57.2061 163.052 52.5801 167.29 49.2603C167.88 49.6103 168.42 49.8803 168.92 50.2603C169.513 50.6702 170.072 51.1284 170.59 51.6302C170.678 51.7529 170.738 51.894 170.764 52.043C170.79 52.1919 170.781 52.3449 170.74 52.4902C170.74 52.6202 170.29 52.6702 170.04 52.7202C169.36 52.8402 168.68 52.9402 168.04 53.0802C167.9 53.0802 167.69 53.2902 167.7 53.3802C167.718 53.467 167.756 53.5486 167.809 53.6194C167.863 53.6903 167.931 53.7486 168.01 53.7902C168.48 54.0002 169.01 54.1402 169.47 54.3402C170.186 54.6168 170.878 54.9513 171.54 55.3402C172.17 55.7502 172.09 56.3402 171.44 56.7402C170.79 57.1402 170.25 57.2002 169.44 56.5902C169.33 57.2102 169.21 57.7902 169.11 58.3802C169.076 58.7561 168.92 59.1104 168.665 59.3887C168.41 59.667 168.071 59.8537 167.7 59.9202C166.391 60.2909 165.272 61.1453 164.57 62.3102C164.079 63.1962 163.92 64.2275 164.12 65.2202C164.12 65.6002 164.61 65.9602 164.93 66.2802C165.062 66.3751 165.173 66.4975 165.254 66.6392C165.335 66.7808 165.384 66.9382 165.398 67.1007C165.412 67.2632 165.391 67.4268 165.336 67.5804C165.281 67.7339 165.194 67.8737 165.08 67.9902C165.007 68.0953 164.908 68.1789 164.792 68.2322C164.676 68.2856 164.548 68.3067 164.421 68.2934C164.294 68.2801 164.173 68.2328 164.071 68.1566C163.969 68.0804 163.889 67.978 163.84 67.8602C163.51 67.2802 163.25 66.6602 162.84 66.1102C162.569 65.718 162.209 65.3957 161.79 65.1702C161.634 65.1092 161.465 65.0882 161.299 65.1091C161.133 65.1301 160.975 65.1924 160.84 65.2902C160.709 65.4186 160.611 65.5763 160.554 65.7502C160.496 65.9242 160.481 66.1093 160.51 66.2902C160.705 66.7657 160.998 67.1949 161.37 67.5502C161.78 67.9602 162.28 68.2902 162.71 68.6802C163.008 68.944 163.247 69.2689 163.409 69.633C163.571 69.997 163.653 70.3917 163.65 70.7902C163.628 70.9335 163.638 71.0799 163.678 71.2191C163.718 71.3583 163.789 71.4871 163.884 71.5965C163.979 71.7059 164.097 71.7932 164.229 71.8526C164.361 71.912 164.505 71.9419 164.65 71.9402C164.981 71.9953 165.319 71.9953 165.65 71.9402C166 71.8633 166.366 71.8852 166.705 72.0035C167.044 72.1218 167.343 72.3318 167.57 72.6102C168.521 73.6369 169.419 74.7117 170.26 75.8302C171.238 77.2319 172.64 78.2833 174.26 78.8302C174.912 79.0595 175.521 79.3976 176.06 79.8302C176.6 80.2502 176.51 80.8303 176.11 81.3903C175.626 82.0185 175.198 82.6877 174.83 83.3903C174.512 84.1427 173.962 84.7735 173.26 85.1902C172.938 85.3902 172.673 85.669 172.49 86.0002C171.87 86.9502 171.18 88.0602 170.4 89.3002Z" fill="#865DFF"/>
<path d="M170.789 46.98C175.164 44.6398 180.155 43.7073 185.079 44.3101C184.169 45.5701 183.929 47.08 182.749 47.96C182.246 48.2451 181.686 48.4158 181.109 48.46C180.559 48.56 179.989 48.5501 179.429 48.6301C178.892 48.6762 178.382 48.8846 177.966 49.2275C177.55 49.5704 177.247 50.0316 177.099 50.5501C176.929 51.0901 176.769 51.63 176.559 52.15C176.349 52.67 176.009 52.7901 175.559 52.3901C175.025 52.0039 174.665 51.4212 174.559 50.77C174.347 50.0684 173.96 49.4319 173.436 48.9197C172.911 48.4074 172.266 48.036 171.559 47.84C171.239 47.79 170.979 47.44 170.689 47.22L170.789 46.98Z" fill="#865DFF"/>
<path d="M152.44 89.8501L206.91 89.9201" stroke="#865DFF" stroke-width="1.25" stroke-linecap="round" stroke-linejoin="round"/>
<path d="M155.25 72.0801L209.72 72.1401" stroke="#865DFF" stroke-width="1.25" stroke-linecap="round" stroke-linejoin="round"/>
<path d="M156.17 62.8301L210.65 62.8901" stroke="#865DFF" stroke-width="1.25" stroke-linecap="round" stroke-linejoin="round"/>
<path d="M157.61 47.6201L212.09 47.6801" stroke="#865DFF" stroke-width="1.25" stroke-linecap="round" stroke-linejoin="round"/>
<path d="M164.16 41.8804L156.2 95.7704" stroke="#865DFF" stroke-width="1.25" stroke-linecap="round" stroke-linejoin="round"/>
<path d="M185.64 42.0801L177.68 95.9701" stroke="#865DFF" stroke-width="1.25" stroke-linecap="round" stroke-linejoin="round"/>
<path d="M208.25 42.9004L200.29 96.8004" stroke="#865DFF" stroke-width="1.25" stroke-linecap="round" stroke-linejoin="round"/>
<path d="M264.55 87.4701C264.32 88.3601 264.07 89.3002 263.83 90.2502L257.71 113.99L254.71 125.55C254.53 126.22 254.12 126.39 253.53 126.03L238.88 117.03C238.23 116.63 238.42 116.62 237.96 117.14C235.6 119.747 233.266 122.357 230.96 124.97C230.884 125.114 230.759 125.225 230.608 125.285C230.457 125.344 230.29 125.348 230.136 125.295C229.983 125.241 229.853 125.135 229.772 124.995C229.69 124.855 229.661 124.69 229.69 124.53C229.4 120.62 229.1 116.72 228.82 112.82C228.82 112.43 228.67 112.29 228.27 112.23C223.85 111.57 219.43 110.87 215.01 110.23H214.73C214.33 110.23 214 110.07 213.94 109.62C213.88 109.17 214.16 109.01 214.51 108.85C216.28 108.07 218.04 107.27 219.8 106.48L263.14 87.0702C263.329 86.9799 263.522 86.8998 263.72 86.8301C263.818 86.8018 263.921 86.7971 264.021 86.8162C264.122 86.8352 264.216 86.8776 264.297 86.9399C264.378 87.0023 264.443 87.0827 264.487 87.1749C264.531 87.267 264.552 87.3681 264.55 87.4701V87.4701ZM236.72 114.1L253.63 124.53C256.65 112.843 259.65 101.177 262.63 89.5301L262.55 89.4802L236.72 114.1ZM257.62 90.9601L257.57 90.8902L216.9 109.11L217.17 109.17C221.06 109.77 224.95 110.38 228.85 110.97C229.065 110.996 229.281 110.943 229.46 110.82C231.966 109.074 234.47 107.31 236.97 105.53L252.54 94.5301L257.62 90.9601ZM256.55 93.4302L256.49 93.3702L251.3 97.0002C244.353 101.907 237.4 106.81 230.44 111.71C230.285 111.805 230.164 111.945 230.093 112.112C230.021 112.278 230.003 112.463 230.04 112.64C230.21 114.72 230.36 116.81 230.52 118.89C230.6 119.95 230.68 121.01 230.77 122.18L231.01 121.77C232.3 119.25 233.58 116.77 234.87 114.22C235.012 113.951 235.198 113.708 235.42 113.5C237.58 111.42 239.743 109.353 241.91 107.3L252.3 97.5102L256.55 93.4302ZM233.4 120.06L233.47 120.13L237.23 115.97L235.9 115.16L233.4 120.06Z" fill="#865DFF"/>
<path d="M236.72 114.1L262.57 89.52L262.65 89.5701C259.65 101.21 256.65 112.877 253.65 124.57L236.72 114.1Z" fill="#F5534F"/>
<path d="M257.62 90.9601L252.54 94.5502L236.97 105.55C234.47 107.324 231.967 109.087 229.46 110.84C229.282 110.963 229.065 111.016 228.85 110.99C224.95 110.4 221.06 109.79 217.17 109.19L216.9 109.13L257.57 90.9102L257.62 90.9601Z" fill="#F5534F"/>
<path d="M256.55 93.4301L252.3 97.5101L242 107.3C239.84 109.36 237.676 111.427 235.51 113.5C235.288 113.708 235.102 113.951 234.96 114.22C233.67 116.73 232.39 119.22 231.1 121.77L230.86 122.18C230.77 121.01 230.69 119.95 230.61 118.89C230.45 116.81 230.3 114.72 230.13 112.64C230.092 112.463 230.111 112.278 230.182 112.112C230.254 111.945 230.375 111.805 230.53 111.71C237.49 106.823 244.443 101.92 251.39 97.0001L256.54 93.3701L256.55 93.4301Z" fill="#F5534F"/>
<path d="M233.4 120.06L235.9 115.16L237.23 115.97L233.47 120.13L233.4 120.06Z" fill="#F5534F"/>
<path d="M133.31 3.81055H65.6499V69.2205H133.31V3.81055Z" stroke="#865DFF" stroke-width="1.88" stroke-linecap="round" stroke-linejoin="round" stroke-dasharray="7.53 7.53"/>
<path d="M70.45 0.42041H62.27V8.6004H70.45V0.42041Z" fill="#F5534F"/>
<path d="M138.11 0H129.93V8.18005H138.11V0Z" fill="#F5534F"/>
<path d="M70.16 65.1304H61.98V73.3104H70.16V65.1304Z" fill="#F5534F"/>
<path d="M138.11 65.4102H129.93V73.5901H138.11V65.4102Z" fill="#F5534F"/>
<path d="M79.4497 10.6702H88.1997C89.1123 10.6476 90.023 10.7656 90.8997 11.0202C91.5558 11.2316 92.1545 11.5908 92.6497 12.0702C92.935 12.3618 93.1684 12.7 93.3397 13.0702C93.5288 13.5158 93.6208 13.9964 93.6097 14.4802V14.4802C93.6514 15.3056 93.38 16.1163 92.8497 16.7502C92.3042 17.3486 91.6162 17.7992 90.8497 18.0602C91.7564 18.2925 92.5913 18.7461 93.2797 19.3802C93.5933 19.7088 93.8351 20.0989 93.9901 20.5257C94.145 20.9526 94.2096 21.4071 94.1797 21.8602V21.8602C94.1839 22.458 94.0541 23.0492 93.7997 23.5902C93.5299 24.134 93.136 24.6068 92.6497 24.9702C92.0803 25.3837 91.4396 25.6888 90.7597 25.8702C89.9125 26.099 89.0371 26.2068 88.1597 26.1902H79.4797L79.4497 10.6702ZM86.8197 16.8102C87.9197 16.8102 88.4697 16.4502 88.4697 15.7402C88.4697 15.0302 87.9097 14.6702 86.7997 14.6702H84.5397V16.8602L86.8197 16.8102ZM87.1497 22.3502C87.6014 22.3827 88.0521 22.2744 88.4397 22.0402C88.5736 21.9474 88.6827 21.8232 88.7577 21.6786C88.8326 21.5339 88.8711 21.3731 88.8697 21.2102V21.2102C88.8722 21.0482 88.8352 20.888 88.7621 20.7434C88.6889 20.5988 88.5817 20.4742 88.4497 20.3802C88.0696 20.1457 87.6251 20.0372 87.1797 20.0702H84.5397V22.3903L87.1497 22.3502Z" fill="#865DFF"/>
<path d="M98.0298 10.6704H103.3V21.8404H110.65V26.3004H98.0298V10.6704Z" fill="#865DFF"/>
<path d="M114.56 10.6704H119.79V26.3004H114.56V10.6704Z" fill="#865DFF"/>
<path d="M79.7197 28.0503H85.1097L91.2397 35.6603V28.0503H96.9497V45.2803H91.8297L85.4297 37.3303V45.2803H79.7197V28.0503Z" fill="#865DFF"/>
<path d="M101.98 28.0503H107.74V34.5003L112.64 28.0503H119.3L113.3 35.5303L119.43 45.2803H112.56L109.19 39.8203L107.71 41.6203V45.2803H101.95L101.98 28.0503Z" fill="#865DFF"/>
<path d="M88.47 63.6104C87.2314 63.6237 86.0019 63.3962 84.85 62.9404C83.771 62.5149 82.7833 61.8869 81.9401 61.0904C81.0981 60.2892 80.4295 59.3239 79.9754 58.254C79.5213 57.1842 79.2915 56.0326 79.3 54.8704V54.8704C79.2927 53.6899 79.5347 52.5211 80.01 51.4404C80.4839 50.3834 81.1638 49.4315 82.01 48.6404C82.855 47.8363 83.8462 47.2015 84.93 46.7704C86.0867 46.305 87.3233 46.0706 88.57 46.0804C89.8083 46.0718 91.0369 46.2992 92.1901 46.7504C93.271 47.1767 94.2592 47.8084 95.1 48.6104C95.9322 49.3928 96.5928 50.3395 97.04 51.3904C97.5111 52.4721 97.7496 53.6407 97.74 54.8204V54.8704C97.7461 56.0508 97.5043 57.2194 97.03 58.3004C96.5708 59.3501 95.908 60.2984 95.08 61.0904C94.2329 61.8943 93.2424 62.532 92.16 62.9704C90.983 63.4204 89.7299 63.6378 88.47 63.6104V63.6104ZM88.52 58.6104C89.0175 58.619 89.5102 58.5129 89.96 58.3004C90.3825 58.1019 90.7602 57.8195 91.07 57.4704C91.3765 57.1216 91.6141 56.7178 91.77 56.2804C91.9314 55.821 92.0125 55.3373 92.01 54.8504C92.0132 54.3593 91.9285 53.8717 91.76 53.4104C91.5954 52.9689 91.3551 52.5595 91.05 52.2004C90.7419 51.8469 90.364 51.5609 89.9401 51.3604C89.4811 51.1423 88.9781 51.0328 88.47 51.0404C87.9718 51.0349 87.4791 51.1444 87.03 51.3604C86.6035 51.5521 86.2245 51.8355 85.92 52.1904C85.6093 52.5362 85.3713 52.9409 85.22 53.3804C85.0587 53.8364 84.9775 54.3168 84.98 54.8004V54.8504C84.9776 55.3381 85.0623 55.8224 85.23 56.2804C85.3924 56.7229 85.6329 57.1328 85.9401 57.4904C86.2478 57.8469 86.6256 58.1363 87.05 58.3404C87.513 58.5413 88.0159 58.6337 88.52 58.6104Z" fill="#865DFF"/>
<path d="M111 63.6105C109.761 63.623 108.532 63.3955 107.38 62.9405C106.301 62.5149 105.313 61.8869 104.47 61.0904C103.628 60.2892 102.959 59.3239 102.505 58.2541C102.051 57.1842 101.821 56.0327 101.83 54.8705V54.8705C101.823 53.6899 102.064 52.5211 102.54 51.4405C102.999 50.3877 103.662 49.4361 104.49 48.6405C105.337 47.8341 106.332 47.1991 107.42 46.7704C108.573 46.3041 109.806 46.0696 111.05 46.0804C112.288 46.0719 113.517 46.2993 114.67 46.7505C115.753 47.1781 116.744 47.8095 117.59 48.6105C118.426 49.4132 119.091 50.3776 119.543 51.4452C119.995 52.5127 120.225 53.6611 120.22 54.8205V54.8705C120.231 56.0514 119.989 57.2209 119.51 58.3005C119.051 59.3502 118.388 60.2984 117.56 61.0904C116.714 61.8964 115.723 62.5344 114.64 62.9705C113.478 63.4141 112.243 63.6314 111 63.6105V63.6105ZM111.05 58.6105C111.55 58.6181 112.046 58.5121 112.5 58.3005C112.918 58.0992 113.292 57.8171 113.6 57.4705C113.906 57.1216 114.144 56.7178 114.3 56.2804C114.461 55.8211 114.542 55.3374 114.54 54.8505C114.543 54.3594 114.458 53.8717 114.29 53.4105C114.125 52.969 113.885 52.5596 113.58 52.2005C113.272 51.8469 112.894 51.5609 112.47 51.3605C112.011 51.1424 111.508 51.0329 111 51.0405C110.518 51.0403 110.041 51.1428 109.601 51.3411C109.161 51.5393 108.769 51.8289 108.45 52.1905C108.143 52.5387 107.905 52.9427 107.75 53.3805C107.588 53.8364 107.507 54.3168 107.51 54.8005V54.8505C107.512 55.3378 107.597 55.8212 107.76 56.2804C107.922 56.7253 108.166 57.1358 108.48 57.4905C108.782 57.8489 109.157 58.1387 109.58 58.3404C110.043 58.5393 110.546 58.6316 111.05 58.6105V58.6105Z" fill="#865DFF"/>
<path d="M203.5 123.68C203.5 123.68 197.02 128.68 195.74 136.89C194.46 145.1 203.07 146.89 203.07 146.89C203.07 146.89 209.8 146.29 209.72 136.57C209.72 136.55 207.59 127.18 203.5 123.68Z" fill="#865DFF"/>
<path d="M200.43 135.08C200.63 131.27 201.679 127.553 203.5 124.2C204.541 127.756 205.099 131.436 205.16 135.14" stroke="#F3EFFF" stroke-width="1.25" stroke-linecap="round" stroke-linejoin="round"/>
<path d="M192.07 167.04L188.66 161.13C188.66 161.13 182.56 161.04 182.66 153C182.66 153 182.75 146.26 185.43 144C187.9 144.294 190.261 145.189 192.306 146.606C194.351 148.024 196.017 149.92 197.16 152.13L196.7 166.72L192.07 167.04Z" fill="#865DFF"/>
<path d="M193.01 166.7H181.85V195.31H193.01V166.7Z" fill="#865DFF"/>
<path d="M190.46 157.64C191.791 157.64 192.87 156.561 192.87 155.23C192.87 153.899 191.791 152.82 190.46 152.82C189.129 152.82 188.05 153.899 188.05 155.23C188.05 156.561 189.129 157.64 190.46 157.64Z" fill="#F3EFFF"/>
<path d="M185.64 144.561L190.46 155.231" stroke="#F3EFFF" stroke-width="1.25" stroke-linecap="round" stroke-linejoin="round"/>
<path d="M213.35 145.62L220.51 138.98L225.19 140.41L226.6 149.99L218.51 151.9L213.35 145.62Z" fill="#F3EFFF"/>
<path d="M205.36 166.66L213.06 145.17C213.06 145.17 216.21 144.87 216.99 148.83C216.99 148.83 221.53 145.13 222.44 150.39C223.08 149.721 223.915 149.272 224.827 149.109C225.738 148.945 226.677 149.075 227.51 149.48L221.66 167.48L205.36 166.66Z" fill="#F5534F"/>
<path d="M207.5 159.79H196.04V166.64H207.5V159.79Z" fill="#865DFF"/>
<path d="M205.89 145.54L199.46 145.45C199.366 145.449 199.274 145.474 199.193 145.522C199.112 145.569 199.045 145.638 199 145.72C198.18 147.25 194.37 154.78 195.36 159.6C195.385 159.717 195.449 159.821 195.542 159.895C195.635 159.97 195.751 160.011 195.87 160.01H208.03C208.1 160.01 208.169 159.996 208.233 159.969C208.298 159.941 208.356 159.901 208.405 159.851C208.453 159.8 208.491 159.741 208.516 159.675C208.541 159.61 208.552 159.54 208.55 159.47C208.49 157.47 208.16 150.3 206.37 145.86C206.331 145.765 206.265 145.683 206.179 145.626C206.094 145.569 205.993 145.539 205.89 145.54V145.54Z" fill="#F3EFFF"/>
<path d="M220.83 132.68C216.471 136.569 211.764 140.05 206.77 143.08C198.47 147.97 188.85 151.08 179.26 150.23C169.91 149.39 160.33 143.84 157.68 134.83C156.968 132.882 157.029 130.735 157.85 128.83C158.575 127.645 159.56 126.64 160.73 125.89C165.638 122.335 171.315 119.988 177.3 119.04C181.04 118.46 185.08 118.49 188.36 120.38C191.36 122.1 193.31 125.15 194.57 128.38C196.862 134.277 197.018 140.79 195.01 146.79C192.01 155.47 184.75 162.14 176.52 166.19C168.29 170.24 159.15 171.96 150.09 173.38C127.09 176.97 103.63 178.79 80.4001 176.8C59.6801 175.03 39.0701 170.16 20.3301 161.23" stroke="#F5534F" stroke-width="1.88" stroke-linecap="round" stroke-linejoin="round" stroke-dasharray="7.6 7.6"/>
<path d="M225.15 166.6H193.03V195.21H225.15V166.6Z" fill="#27C2EC"/>
<path d="M219.1 140.01L226.03 141.78L225.19 137.16C225.19 137.16 224.9 134.9 222.73 136.28L219.1 140.01Z" fill="#F5534F"/>
<path d="M229.2 124.99L226.46 127.61" stroke="#F5534F" stroke-width="1.88" stroke-linecap="round" stroke-linejoin="round"/>
<path d="M16.9399 159.5C15.8299 158.94 14.7199 158.35 13.6099 157.75" stroke="#F5534F" stroke-width="1.88" stroke-linecap="round" stroke-linejoin="round"/>
<path d="M237.85 194.57H22.2798V201.33H237.85V194.57Z" fill="#F5534F"/>
<path d="M162.36 182.74H78.3701V194.35H162.36V182.74Z" fill="#F3EFFF"/>
<path d="M44.21 89.2002L78.83 114.36L86.25 103.76L51.32 77.7402L44.21 89.2002Z" fill="#F5534F"/>
<path d="M43.6001 148.43C55.5367 140.254 65.2518 129.236 71.8701 116.37C71.8701 116.37 86.8701 95.2904 78.5901 93.1704C78.5901 93.1704 78.6601 88.7403 74.1801 88.5803C74.1801 88.5803 73.1801 86.0204 68.0901 85.3504C67.0463 84.3695 65.7186 83.7444 64.2976 83.5648C62.8766 83.3851 61.4352 83.6601 60.1801 84.3504L62.7101 86.1503C62.7101 86.1503 58.3001 95.0203 55.3001 97.4603L52.0101 95.0904C52.0101 95.0904 47.3401 100.61 52.0801 106.09C52.0801 106.09 49.8701 116.63 33.8301 126.37L43.6001 148.43Z" fill="#F3EFFF"/>
<path d="M32.04 123.83C32.04 123.83 39.37 133.15 45.31 153.45C45.31 153.45 28.31 164.32 10.84 167.24L0 132.61C0 132.61 21.76 130.21 32.04 123.83Z" fill="#F5534F"/>
<path d="M49.48 112.41L66.94 122.41C67.1307 122.518 67.344 122.58 67.5628 122.59C67.7817 122.601 67.9999 122.559 68.2 122.47C69.2025 122.004 70.0615 121.278 70.6877 120.367C71.3138 119.455 71.6842 118.393 71.76 117.29C71.7931 117.011 71.74 116.728 71.6077 116.479C71.4754 116.231 71.2704 116.029 71.02 115.9L52.82 106.36C52.6187 106.252 52.3936 106.195 52.165 106.195C51.9363 106.195 51.7113 106.252 51.51 106.36C50.6357 106.825 49.9135 107.531 49.4295 108.394C48.9454 109.258 48.72 110.242 48.78 111.23C48.7837 111.471 48.8502 111.706 48.973 111.913C49.0958 112.12 49.2705 112.292 49.48 112.41V112.41Z" fill="#865DFF"/>
<path d="M61.58 121.56C65.3521 121.56 68.41 118.503 68.41 114.73C68.41 110.958 65.3521 107.9 61.58 107.9C57.8079 107.9 54.75 110.958 54.75 114.73C54.75 118.503 57.8079 121.56 61.58 121.56Z" fill="#27C2EC"/>
<path d="M50.1942 85.0347C52.1603 81.8674 52.6662 78.6245 51.3242 77.7915C49.9822 76.9584 47.3005 78.8507 45.3344 82.018C43.3683 85.1853 42.8623 88.4282 44.2043 89.2613C45.5463 90.0943 48.228 88.202 50.1942 85.0347Z" fill="#F3EFFF"/>
<path d="M78.8198 114.36C78.8198 114.36 80.5598 112.14 79.8198 109.84C79.8198 109.84 83.1998 110.04 82.8198 105.71C82.8198 105.71 84.5498 105.91 86.2198 103.71L89.8198 114.48L78.8198 114.36Z" fill="#F3EFFF"/>
<path d="M85.7197 114.83L88.9097 110.65L90.4897 115.13L85.7197 114.83Z" fill="#F5534F"/>
</svg>
