<svg width="100%" height="100%" viewBox="0 0 60 60" version="1.1" xmlns="http://www.w3.org/2000/svg" xmlns:xlink="http://www.w3.org/1999/xlink" xml:space="preserve" xmlns:serif="http://www.serif.com/" style="fill-rule:evenodd;clip-rule:evenodd;stroke-linejoin:round;stroke-miterlimit:2;">
    <defs>
        <linearGradient id="_Linear2" x1="0" y1="0" x2="1" y2="0" gradientUnits="userSpaceOnUse" gradientTransform="matrix(2.47523e-15,40.4235,-40.4235,2.47523e-15,28.3112,3)"><stop offset="0" style="stop-color:rgb(89,0,131);stop-opacity:1"/><stop offset="1" style="stop-color:rgb(134,93,255);stop-opacity:1"/></linearGradient>
    </defs>
    <g id="wallet_experience" transform="matrix(0.882914,0,0,0.78531,1.49671,3.56979)">
        <rect x="-1.695" y="-4.546" width="67.957" height="76.403" style="fill:none;"/>
        <clipPath id="_clip1">
            <rect x="-1.695" y="-4.546" width="67.957" height="76.403"/>
        </clipPath>
        <g clip-path="url(#_clip1)">
            <g transform="matrix(1.13261,0,0,1.27338,-1.69519,-4.54571)">
                <rect x="0" y="0" width="60" height="60" style="fill:white;"/>
            </g>
            <g transform="matrix(1.13261,0,0,1.27338,-1.69519,-4.54571)">
                <path d="M48.612,23.229C48.612,27.51 47.263,31.482 44.976,34.748C44.966,34.762 44.935,34.774 44.935,34.788C41.345,40.027 35.194,43.423 28.293,43.423C27.729,43.423 27.188,43.398 26.634,43.322C26.632,43.322 26.63,43.355 26.629,43.355C26.357,43.333 26.086,43.322 25.817,43.288C25.721,43.277 25.627,43.273 25.53,43.259C25.446,43.247 25.361,43.24 25.279,43.228C25.206,43.218 25.133,43.208 25.061,43.196C25.045,43.194 25.027,43.193 25.012,43.191C24.835,43.161 24.658,43.132 24.481,43.097L24.479,43.097C15.098,41.312 8.01,33.094 8.01,23.227C8.01,21.141 8.314,19.129 8.904,17.234C8.996,16.936 9.11,16.643 9.187,16.353C9.416,15.868 9.57,15.394 9.78,14.926C9.864,14.74 9.959,14.554 10.047,14.37C10.542,13.36 11.12,12.399 11.77,11.493C11.829,11.411 11.89,11.329 11.951,11.246C12.191,10.92 12.442,10.602 12.703,10.291C13.092,9.825 13.503,9.377 13.933,8.948C15.051,7.831 16.301,6.842 17.654,6.008C18.073,5.75 18.503,5.507 18.941,5.278C20.004,4.726 21.12,4.264 22.281,3.906C24.188,3.319 26.214,3 28.316,3C33.149,3 37.589,4.683 41.076,7.492C43.64,9.559 45.727,12.235 47.039,15.298C47.332,15.983 47.53,16.686 47.837,17.406C47.837,17.41 47.801,17.412 47.803,17.416C48.355,19.258 48.612,21.209 48.612,23.229Z" style="fill:url(#_Linear2);fill-rule:nonzero;"/>
                <path d="M32.831,29.936C32.403,30.539 31.075,31.312 31.974,32.831C32.868,34.346 31.911,34.63 31.298,34.489C30.682,34.348 28.762,34.27 29.082,35.139C29.401,36.008 29.951,36.335 29.247,36.672C28.544,37.006 28.247,37.879 27.528,39.081C26.813,40.285 25.116,39.244 25.619,40.451C26.12,41.659 26.513,41.542 26.465,42.383C26.454,42.614 26.609,42.851 26.817,43.078C26.55,43.057 26.281,43.029 26.014,42.996C25.919,42.984 25.825,42.972 25.733,42.959C25.65,42.947 25.568,42.935 25.485,42.923C25.412,42.914 25.342,42.902 25.271,42.89C25.255,42.888 25.259,42.884 25.244,42.882C25.073,42.853 24.982,42.824 24.756,42.79C24.605,42.648 24.699,42.493 24.723,42.327C24.947,40.772 22.796,39.706 22.436,38.617C22.082,37.531 22.432,36.883 22.35,35.985C22.265,35.086 22.56,33.896 22.041,33.139C21.523,32.385 19.43,32.133 19.033,30.61C18.633,29.091 19.566,26.816 19.927,26.429C20.285,26.041 18.194,24.28 17.2,24.223C16.202,24.162 16.601,22.158 14.912,22.463C13.22,22.759 10.179,21.819 10.807,20.807C11.326,19.973 12.196,18.135 9.356,17.315C9.446,17.024 9.558,16.734 9.635,16.448C9.861,15.971 10.012,15.503 10.22,15.043C10.305,14.859 10.397,14.677 10.483,14.495C10.971,13.5 11.54,12.553 12.181,11.661C12.24,11.58 12.299,11.498 12.358,11.418C12.595,11.097 12.843,10.784 13.098,10.476C13.481,10.018 13.886,9.576 14.308,9.153C15.411,8.051 16.64,7.078 17.974,6.256C18.536,6.65 19.179,6.89 19.735,6.593C21.096,5.833 20.198,5.718 19.64,5.691C19.495,5.683 19.356,5.626 19.242,5.538C20.287,4.994 21.387,4.54 22.532,4.185C22.448,4.951 21.405,6.18 22.173,6.029C23.067,5.859 23.432,3.453 24.088,4.254C24.754,5.056 23.359,6.109 24.67,5.499C25.98,4.896 26.155,3.547 27.617,4.203C29.084,4.866 28.951,5.651 29.361,5.575C29.77,5.499 31.09,6.381 30.291,7.11C29.485,7.84 28.746,6.91 27.538,6.63C26.33,6.354 26.359,7.339 25.803,7.564C25.238,7.781 22.511,6.468 21.841,7.656C21.165,8.832 20.876,9.654 21.88,9.625C22.884,9.597 22.949,9.337 22.87,10.077C22.79,10.817 22.972,11.371 23.882,10.676C24.788,9.981 24.585,9.304 25.295,9.635C26.004,9.967 26.088,9.666 26.841,9.12C27.595,8.574 28.585,8.517 28.847,9.742C29.106,10.968 28.662,11.242 27.336,11.304C26.01,11.369 25.86,10.952 25.438,12.056C25.017,13.162 23.263,14.579 21.723,15.164C20.187,15.749 19.583,16.616 19.619,17.783C19.656,18.954 19.077,20.187 18.692,19.224C18.304,18.257 17.218,16.628 16.108,17.717C14.998,18.807 13.065,20.735 15.2,21.087C17.332,21.445 16.22,19.457 17.297,19.854C18.373,20.255 16.615,21.132 17.334,21.449C18.055,21.768 18.356,21.619 18.35,22.598C18.344,23.575 18.587,24.526 19.464,24.111C20.338,23.698 21.46,21.782 22.725,22.915C23.99,24.052 23.902,23.904 24.566,23.573C25.23,23.242 25.652,24.233 25.923,24.685C26.194,25.135 27.261,24.675 28.126,26.018C28.99,27.36 29.328,27.599 30.314,27.116C31.3,26.632 31.701,26.993 31.959,27.67C32.214,28.347 32.821,27.685 33.114,28.582C33.397,29.473 33.257,29.334 32.831,29.936Z" style="fill:rgb(195,175,255);fill-rule:nonzero;"/>
                <path d="M36.3,13.644C35.603,12.15 39.063,12.319 39.673,12.434C40.289,12.536 41.733,11.412 41.915,10.89C42.104,10.363 42.412,10.614 43.507,10.598C44.601,10.586 43.634,10.34 42.43,9.944C41.228,9.549 42.255,9.51 41.147,8.639C40.67,8.257 40.821,7.932 41.137,7.691C43.664,9.727 45.681,12.362 46.974,15.38C46.937,15.368 46.903,15.362 46.872,15.362C46.106,15.358 45.937,13.669 45.542,13.34C45.153,13.012 45.554,14.268 45.648,14.783C45.744,15.3 45.438,14.865 45.057,15.339C44.673,15.813 43.98,15.822 43.917,15.11C43.854,14.399 43.351,13.703 42.332,13.378C41.312,13.053 40.43,13.319 39.601,13.638C38.778,13.955 37.004,15.126 36.3,13.644Z" style="fill:rgb(195,175,255);fill-rule:nonzero;"/>
                <path d="M44.962,34.605C45.031,34.092 45.145,33.564 44.929,33.37C44.406,32.887 44.292,31.571 44.473,30.906C44.654,30.238 46.061,30.275 45.106,29.166C44.149,28.052 43.286,26.733 43.687,25.977C44.09,25.224 43.968,25.169 43.214,25.173C42.459,25.177 42.129,25.21 41.377,24.542C40.625,23.865 39.591,26.142 36.76,24.315C33.931,22.471 35.542,19.363 36.603,19.355C37.67,19.338 38.917,18.801 38.043,17.504C37.171,16.202 38.534,16.018 39.2,16.314C39.866,16.605 41.049,15.82 42.253,15.466C43.461,15.114 43.408,17.073 44.078,17.466C44.752,17.86 46.015,17.547 46.673,16.92C47.143,16.472 47.245,16.995 47.709,17.49C48.255,19.304 48.548,21.227 48.548,23.217C48.548,27.453 47.222,31.377 44.962,34.605Z" style="fill:rgb(195,175,255);fill-rule:nonzero;"/>
                <path d="M39.829,11.184C39.829,11.182 40.711,10.786 40.391,10.146C40.074,9.506 39.571,7.549 39.204,8.165C38.835,8.786 39.379,9.99 39.261,10.508C39.141,11.031 39.137,11.303 39.829,11.184Z" style="fill:rgb(195,175,255);fill-rule:nonzero;"/>
                <path d="M38.947,10.587C38.935,10.381 39.065,9.545 38.404,9.571C38.406,9.569 37.45,9.968 38.01,10.644C38.571,11.317 38.962,10.792 38.947,10.587Z" style="fill:rgb(195,175,255);fill-rule:nonzero;"/>
                <path d="M7.93,50.311C8.862,48.075 10.337,45.43 12.412,42.239C18.461,32.935 25.991,32.025 25.991,32.025C25.991,32.025 25.851,30.992 25.991,30.712C26.131,30.432 26.819,30.191 26.819,30.191C26.819,30.191 32.382,29.231 33.234,29.624C33.393,29.697 33.58,30.191 33.58,30.191C35.459,29.963 37.358,29.963 39.236,30.191C42.11,30.517 53.939,32.934 58.246,40.124C54.09,51.706 43.006,60 30,60C21.274,60 13.414,56.267 7.93,50.311Z" style="fill:rgb(66,232,224);fill-rule:nonzero;"/>
                <path d="M25.922,21.627C25.922,21.627 22.567,20.55 22.547,23.073C22.524,25.995 25.992,25.7 25.992,25.7L25.922,21.627Z" style="fill:rgb(255,192,148);fill-rule:nonzero;"/>
                <path d="M32.386,27.97L32.728,31.355C31.852,31.893 30.871,32.238 29.851,32.365C27.647,32.606 26.78,31.366 26.78,31.366L26.422,27.391L32.386,27.97Z" style="fill:rgb(255,192,148);fill-rule:nonzero;"/>
                <path d="M24.638,18.953C24.638,18.953 23.798,25.288 25.831,27.868C28.013,30.635 31.002,29.47 32.052,28.478C32.91,27.682 33.475,26.62 33.654,25.463C33.654,25.463 35.823,25.688 36.375,23.885C36.95,21.992 35.489,20.644 34.431,20.655C33.374,20.667 33.265,20.873 33.265,20.873L33.397,18.895C33.397,18.895 26.228,12.303 24.638,18.953Z" style="fill:rgb(255,192,148);fill-rule:nonzero;"/>
                <path d="M30.474,22.241C30.424,22.241 30.376,22.221 30.339,22.187C30.303,22.152 30.282,22.104 30.28,22.054L30.245,21.005C30.244,20.979 30.248,20.954 30.257,20.93C30.265,20.906 30.279,20.884 30.296,20.865C30.314,20.846 30.334,20.831 30.358,20.821C30.381,20.81 30.406,20.804 30.431,20.803C30.483,20.802 30.532,20.821 30.57,20.855C30.608,20.89 30.631,20.938 30.634,20.989L30.669,22.039C30.67,22.064 30.666,22.09 30.657,22.114C30.648,22.138 30.635,22.16 30.617,22.178C30.6,22.197 30.579,22.212 30.556,22.223C30.533,22.234 30.508,22.24 30.482,22.241L30.474,22.241Z" style="fill-rule:nonzero;"/>
                <path d="M26.458,22.393C26.408,22.393 26.359,22.374 26.323,22.339C26.287,22.304 26.265,22.257 26.263,22.206L26.228,21.157C26.227,21.106 26.246,21.056 26.281,21.019C26.316,20.981 26.364,20.958 26.415,20.955C26.466,20.956 26.516,20.976 26.553,21.011C26.59,21.046 26.613,21.094 26.617,21.145L26.652,22.195C26.653,22.22 26.649,22.245 26.64,22.269C26.631,22.293 26.618,22.315 26.601,22.333C26.583,22.352 26.562,22.366 26.539,22.377C26.516,22.387 26.491,22.392 26.465,22.393L26.458,22.393Z" style="fill-rule:nonzero;"/>
                <path d="M25.746,20.27C25.707,20.272 25.669,20.263 25.636,20.243C25.603,20.222 25.576,20.192 25.561,20.157C25.545,20.121 25.541,20.082 25.548,20.044C25.555,20.006 25.574,19.971 25.602,19.944C25.939,19.654 26.36,19.478 26.803,19.442C26.829,19.44 26.855,19.442 26.879,19.45C26.903,19.458 26.926,19.47 26.945,19.487C26.965,19.504 26.98,19.524 26.991,19.548C27.002,19.571 27.009,19.596 27.009,19.621C27.012,19.647 27.01,19.672 27.002,19.697C26.995,19.721 26.983,19.744 26.966,19.763C26.95,19.783 26.93,19.799 26.907,19.81C26.885,19.822 26.86,19.829 26.834,19.831C26.486,19.861 26.155,19.997 25.886,20.22C25.848,20.254 25.797,20.272 25.746,20.27Z" style="fill-rule:nonzero;"/>
                <path d="M30.894,20.166C30.86,20.165 30.827,20.157 30.797,20.142C30.477,20.003 30.123,19.967 29.782,20.037C29.757,20.042 29.731,20.043 29.706,20.038C29.681,20.033 29.657,20.023 29.636,20.009C29.614,19.995 29.596,19.977 29.582,19.956C29.568,19.935 29.558,19.911 29.552,19.886C29.547,19.861 29.546,19.835 29.551,19.81C29.555,19.784 29.565,19.76 29.579,19.739C29.594,19.717 29.612,19.699 29.633,19.685C29.655,19.671 29.679,19.661 29.704,19.656C30.138,19.566 30.589,19.618 30.991,19.804C31.027,19.826 31.056,19.859 31.072,19.898C31.088,19.937 31.09,19.981 31.079,20.022C31.068,20.063 31.044,20.099 31.011,20.125C30.977,20.151 30.936,20.165 30.894,20.166Z" style="fill-rule:nonzero;"/>
                <path d="M33.739,20.837C33.739,20.837 33.249,22.811 32.992,22.757C32.736,22.703 32.872,19.648 33.583,19.457C34.295,19.267 33.739,20.837 33.739,20.837Z" style="fill-rule:nonzero;"/>
                <path d="M34.183,20.522C34.183,20.522 36.457,25.906 31.218,29.41C30.437,28.84 28.92,30.292 28.526,29.41C28.526,29.41 27.714,29.41 26.397,28.531C23.854,26.832 24.468,21.386 24.468,21.386C24.468,21.386 21.84,17.243 22.936,15.688C24.032,14.134 25.992,15.3 25.992,15.3C25.992,15.3 25.533,12.537 29.425,13.442C30.529,13.676 31.557,14.182 32.417,14.913C33.276,15.645 33.939,16.579 34.346,17.632C34.346,17.632 35.653,17.461 35.87,18.669C35.981,19.497 35.904,20.339 35.645,21.133C35.438,20.978 35.193,20.881 34.935,20.855C34.678,20.828 34.418,20.872 34.183,20.982L33.32,21.347L34.183,20.522Z" style="fill:rgb(255,29,110);fill-rule:nonzero;"/>
                <path d="M26.819,30.192C26.819,30.192 27.565,30.903 29.299,30.946C31.033,30.989 32.549,29.59 32.549,29.59L33.665,31.638L30.905,33.321L26.282,32.932L26.282,30.861L26.819,30.192Z" style="fill:rgb(66,232,224);fill-rule:nonzero;"/>
                <path d="M45.693,44.059C45.669,44.063 45.644,44.063 45.62,44.059C45.58,44.042 45.547,44.013 45.526,43.976C45.505,43.938 45.497,43.895 45.503,43.853C45.553,43.425 46.059,39.675 47.645,39.578C47.746,39.56 47.85,39.574 47.943,39.618C48.035,39.662 48.112,39.733 48.162,39.823C48.551,40.6 46.487,43.216 45.829,44.001C45.793,44.037 45.745,44.058 45.693,44.059ZM47.699,39.951L47.668,39.951C46.79,40.005 46.242,41.894 46.001,43.165C47.066,41.785 47.983,40.312 47.816,39.982C47.801,39.955 47.742,39.951 47.699,39.951Z" style="fill:rgb(89,0,131);fill-rule:nonzero;"/>
                <path d="M45.686,55.572C45.189,54.261 45.209,53.577 45.203,53.541C45.203,53.515 45.209,53.49 45.219,53.466C45.23,53.442 45.245,53.421 45.264,53.404C45.282,53.386 45.304,53.373 45.329,53.364C45.353,53.355 45.379,53.351 45.404,53.353C45.43,53.353 45.455,53.358 45.478,53.368C45.502,53.378 45.523,53.393 45.54,53.412C45.557,53.43 45.571,53.452 45.579,53.476C45.588,53.5 45.592,53.525 45.59,53.551C45.59,53.551 45.584,54.166 46.024,55.361C45.912,55.432 45.799,55.502 45.686,55.572Z" style="fill:rgb(89,0,131);fill-rule:nonzero;"/>
                <path d="M21.945,58.905C21.845,58.049 21.586,57.215 21.178,56.447C21.157,56.403 21.153,56.352 21.167,56.305C21.181,56.258 21.212,56.219 21.254,56.194C21.297,56.169 21.347,56.161 21.394,56.172C21.442,56.182 21.484,56.21 21.512,56.25C21.977,57.11 22.261,58.05 22.35,59.014L22.327,59.008C22.207,58.976 22.088,58.944 21.969,58.911L21.945,58.905Z" style="fill:rgb(89,0,131);fill-rule:nonzero;"/>
                <path d="M28.728,33.519C28.174,33.516 27.627,33.39 27.126,33.152C26.625,32.913 26.183,32.568 25.832,32.139C25.807,32.097 25.799,32.048 25.809,32C25.819,31.952 25.846,31.91 25.886,31.882C25.925,31.854 25.974,31.841 26.022,31.847C26.071,31.853 26.115,31.877 26.147,31.914C26.584,32.449 27.176,32.836 27.842,33.023C28.508,33.209 29.215,33.186 29.867,32.955C29.892,32.944 29.919,32.939 29.947,32.939C29.974,32.939 30.001,32.945 30.026,32.957C30.051,32.968 30.073,32.985 30.091,33.005C30.109,33.026 30.123,33.05 30.131,33.077C30.139,33.103 30.141,33.13 30.138,33.158C30.134,33.185 30.125,33.211 30.111,33.234C30.097,33.258 30.078,33.278 30.055,33.293C30.032,33.309 30.007,33.32 29.98,33.324C29.575,33.452 29.153,33.518 28.728,33.519Z" style="fill:rgb(89,0,131);fill-rule:nonzero;"/>
                <path d="M41.096,37.389L43.405,53.938C43.5,54.618 43.321,55.309 42.907,55.857C42.493,56.405 41.879,56.767 41.198,56.863L26.281,58.944C25.944,58.991 25.601,58.972 25.271,58.886C24.942,58.801 24.632,58.652 24.361,58.447C24.089,58.242 23.86,57.985 23.688,57.692C23.515,57.399 23.402,57.074 23.354,56.737L21.045,40.188C20.998,39.851 21.018,39.508 21.103,39.178C21.189,38.849 21.338,38.539 21.543,38.268C21.749,37.996 22.005,37.767 22.299,37.595C22.592,37.423 22.917,37.31 23.254,37.263L38.171,35.182C38.508,35.134 38.851,35.154 39.181,35.239C39.51,35.325 39.819,35.474 40.091,35.679C40.362,35.884 40.591,36.141 40.764,36.434C40.936,36.727 41.049,37.052 41.096,37.389Z" style="fill:rgb(255,29,110);fill-rule:nonzero;"/>
                <path d="M43.413,53.937C43.508,54.617 43.328,55.307 42.914,55.856C42.501,56.404 41.886,56.766 41.206,56.862L26.289,58.943C25.952,58.99 25.609,58.971 25.279,58.885C24.95,58.8 24.64,58.651 24.369,58.446C24.097,58.241 23.868,57.984 23.695,57.691C23.523,57.398 23.41,57.073 23.362,56.736L21.053,40.187C21.05,40.172 21.048,40.156 21.047,40.141L23.124,55.028C23.22,55.709 23.582,56.324 24.131,56.737C24.68,57.151 25.37,57.33 26.051,57.235L40.968,55.154C41.637,55.06 42.242,54.709 42.656,54.175C43.07,53.641 43.26,52.967 43.184,52.296L43.413,53.937Z" style="fill:rgb(89,0,131);fill-rule:nonzero;"/>
                <path d="M39.838,49.221L40.502,53.981C40.562,54.414 40.448,54.852 40.185,55.201C39.922,55.55 39.532,55.78 39.099,55.84L28.031,57.385C27.598,57.445 27.16,57.331 26.811,57.068C26.463,56.805 26.233,56.414 26.173,55.982L25.509,51.226L39.838,49.221Z" style="fill:rgb(134,93,255);fill-rule:nonzero;"/>
                <path d="M26.966,52.88C26.928,52.885 26.889,52.874 26.858,52.851C26.828,52.828 26.807,52.793 26.801,52.755L26.734,52.274C26.729,52.235 26.739,52.196 26.762,52.165C26.785,52.133 26.82,52.113 26.859,52.107L27.34,52.04C27.378,52.034 27.417,52.044 27.448,52.068C27.479,52.091 27.5,52.126 27.505,52.164C27.51,52.203 27.5,52.242 27.477,52.273C27.453,52.304 27.419,52.324 27.38,52.329L27.035,52.378L27.082,52.712C27.085,52.731 27.084,52.751 27.079,52.77C27.075,52.788 27.066,52.806 27.055,52.822C27.043,52.837 27.029,52.85 27.012,52.86C26.995,52.87 26.977,52.876 26.958,52.879L26.966,52.88Z" style="fill:rgb(243,239,255);fill-rule:nonzero;"/>
                <path d="M38.89,51.217C38.871,51.22 38.851,51.219 38.833,51.214C38.814,51.209 38.797,51.201 38.781,51.189C38.766,51.178 38.753,51.163 38.743,51.146C38.734,51.13 38.727,51.111 38.725,51.092L38.678,50.756L38.342,50.803C38.305,50.804 38.269,50.791 38.242,50.768C38.214,50.744 38.195,50.711 38.19,50.675C38.185,50.639 38.194,50.602 38.214,50.572C38.235,50.542 38.265,50.52 38.301,50.511L38.782,50.444C38.821,50.439 38.859,50.449 38.89,50.473C38.921,50.496 38.941,50.53 38.947,50.569L39.014,51.05C39.017,51.069 39.016,51.088 39.011,51.107C39.006,51.126 38.998,51.143 38.986,51.158C38.975,51.174 38.96,51.187 38.944,51.196C38.927,51.206 38.909,51.212 38.89,51.215L38.89,51.217Z" style="fill:rgb(243,239,255);fill-rule:nonzero;"/>
                <path d="M29.138,56.152C29.099,56.157 29.06,56.147 29.029,56.124C28.998,56.1 28.978,56.066 28.973,56.027C28.967,55.989 28.977,55.95 29.001,55.919C29.024,55.888 29.059,55.868 29.097,55.862L30.049,55.729C30.088,55.724 30.127,55.734 30.158,55.757C30.189,55.781 30.209,55.816 30.215,55.854C30.22,55.892 30.21,55.931 30.186,55.962C30.163,55.993 30.128,56.014 30.09,56.019L29.138,56.152ZM31.035,55.887C30.997,55.893 30.958,55.882 30.927,55.859C30.896,55.836 30.876,55.801 30.87,55.763C30.865,55.724 30.875,55.685 30.898,55.654C30.922,55.623 30.956,55.603 30.995,55.597L31.947,55.465C31.985,55.459 32.025,55.469 32.056,55.493C32.086,55.516 32.107,55.551 32.112,55.589C32.118,55.628 32.107,55.667 32.084,55.698C32.061,55.728 32.026,55.749 31.988,55.754L31.035,55.887ZM32.933,55.622C32.896,55.624 32.861,55.611 32.833,55.588C32.805,55.564 32.787,55.531 32.782,55.495C32.777,55.459 32.785,55.422 32.806,55.392C32.826,55.361 32.857,55.34 32.892,55.331L33.844,55.198C33.883,55.193 33.922,55.203 33.953,55.226C33.984,55.25 34.004,55.284 34.01,55.323C34.015,55.361 34.005,55.4 33.981,55.431C33.958,55.462 33.923,55.482 33.885,55.488L32.933,55.622ZM34.831,55.358C34.792,55.363 34.753,55.353 34.722,55.33C34.691,55.306 34.671,55.271 34.665,55.233C34.66,55.195 34.67,55.156 34.694,55.125C34.717,55.094 34.752,55.073 34.79,55.068L35.742,54.935C35.781,54.93 35.82,54.94 35.851,54.963C35.882,54.987 35.902,55.021 35.907,55.06C35.913,55.098 35.903,55.137 35.879,55.168C35.856,55.199 35.821,55.219 35.783,55.225L34.831,55.358ZM36.728,55.093C36.69,55.098 36.651,55.088 36.62,55.065C36.589,55.041 36.568,55.007 36.563,54.968C36.558,54.93 36.568,54.891 36.591,54.86C36.615,54.829 36.649,54.808 36.688,54.803L37.64,54.67C37.678,54.665 37.717,54.675 37.748,54.698C37.779,54.722 37.8,54.756 37.805,54.795C37.81,54.833 37.8,54.872 37.777,54.903C37.754,54.934 37.719,54.955 37.68,54.96L36.728,55.093ZM28.166,56.256C28.153,56.26 28.14,56.261 28.128,56.261C27.945,56.239 27.77,56.173 27.618,56.068C27.466,55.963 27.342,55.823 27.256,55.66C27.238,55.626 27.234,55.586 27.245,55.548C27.256,55.511 27.282,55.48 27.316,55.462C27.35,55.443 27.391,55.439 27.428,55.451C27.465,55.462 27.496,55.488 27.514,55.522C27.578,55.644 27.671,55.748 27.784,55.826C27.896,55.904 28.026,55.954 28.163,55.971C28.198,55.976 28.23,55.993 28.253,56.019C28.277,56.046 28.29,56.08 28.29,56.115C28.291,56.15 28.278,56.184 28.256,56.211C28.233,56.238 28.201,56.256 28.166,56.261L28.166,56.256ZM38.625,54.797C38.59,54.801 38.554,54.793 38.525,54.774C38.495,54.754 38.474,54.725 38.464,54.691C38.455,54.657 38.458,54.62 38.473,54.588C38.488,54.557 38.515,54.531 38.547,54.517C38.673,54.463 38.784,54.379 38.872,54.273C38.959,54.167 39.019,54.042 39.048,53.907C39.051,53.889 39.059,53.871 39.07,53.855C39.08,53.839 39.094,53.825 39.11,53.814C39.126,53.804 39.144,53.797 39.163,53.793C39.182,53.789 39.201,53.79 39.22,53.794C39.241,53.794 39.262,53.799 39.281,53.807C39.3,53.817 39.317,53.83 39.331,53.846C39.344,53.862 39.354,53.881 39.36,53.901C39.366,53.921 39.367,53.943 39.363,53.964C39.326,54.144 39.245,54.313 39.128,54.456C39.011,54.599 38.861,54.711 38.692,54.784L38.625,54.797ZM27.216,54.806C27.177,54.811 27.138,54.801 27.107,54.778C27.076,54.754 27.055,54.72 27.049,54.681L26.916,53.729C26.911,53.691 26.921,53.652 26.945,53.621C26.968,53.59 27.002,53.57 27.041,53.564C27.079,53.558 27.118,53.569 27.149,53.592C27.18,53.615 27.2,53.65 27.206,53.689L27.339,54.641C27.344,54.679 27.333,54.718 27.31,54.749C27.287,54.78 27.252,54.8 27.214,54.806L27.216,54.806ZM39.138,53.142C39.1,53.148 39.061,53.137 39.03,53.114C38.999,53.091 38.978,53.056 38.973,53.017L38.84,52.067C38.835,52.028 38.845,51.99 38.868,51.959C38.892,51.928 38.926,51.907 38.965,51.902C39.003,51.896 39.042,51.907 39.073,51.93C39.104,51.953 39.125,51.988 39.13,52.026L39.263,52.977C39.266,52.996 39.265,53.016 39.26,53.034C39.255,53.053 39.247,53.07 39.235,53.086C39.224,53.101 39.209,53.114 39.192,53.124C39.176,53.133 39.157,53.14 39.138,53.142Z" style="fill:rgb(243,239,255);fill-rule:nonzero;"/>
                <path d="M39.127,50.873L26.644,52.614C26.278,52.665 25.907,52.569 25.612,52.346C25.317,52.124 25.123,51.793 25.072,51.427L24.84,49.764L40.077,47.638L40.31,49.308C40.359,49.672 40.263,50.04 40.041,50.334C39.819,50.627 39.491,50.82 39.127,50.873Z" style="fill:rgb(89,0,131);fill-rule:nonzero;"/>
                <path d="M37.55,44.368L26.361,45.929C25.78,46.01 25.189,45.976 24.621,45.829C24.053,45.682 23.52,45.424 23.052,45.07C22.583,44.717 22.189,44.275 21.892,43.769C21.595,43.263 21.4,42.704 21.319,42.123L20.8,38.402C20.765,38.15 20.831,37.895 20.984,37.692C21.137,37.49 21.365,37.356 21.616,37.321L39.756,34.79C40.008,34.755 40.263,34.821 40.466,34.974C40.669,35.127 40.803,35.354 40.839,35.606L41.358,39.325C41.439,39.906 41.405,40.498 41.258,41.066C41.11,41.634 40.852,42.167 40.499,42.635C40.145,43.104 39.703,43.498 39.197,43.795C38.691,44.092 38.131,44.287 37.55,44.368Z" style="fill:rgb(134,93,255);fill-rule:nonzero;"/>
                <path d="M39.813,36.003C39.802,35.923 39.728,35.867 39.648,35.878C39.568,35.889 39.512,35.963 39.523,36.043L39.591,36.525C39.602,36.605 39.676,36.661 39.756,36.649C39.836,36.638 39.892,36.564 39.88,36.484L39.813,36.003Z" style="fill:rgb(243,239,255);fill-rule:nonzero;"/>
                <path d="M26.638,44.81C26.619,44.813 26.599,44.812 26.581,44.807C26.562,44.802 26.545,44.793 26.529,44.782C26.514,44.77 26.501,44.756 26.491,44.739C26.482,44.723 26.475,44.704 26.472,44.685C26.47,44.666 26.471,44.647 26.476,44.628C26.481,44.61 26.489,44.592 26.501,44.577C26.512,44.562 26.527,44.549 26.543,44.539C26.56,44.529 26.578,44.523 26.597,44.52L27.539,44.389C27.576,44.388 27.611,44.4 27.639,44.423C27.667,44.447 27.685,44.48 27.69,44.516C27.695,44.552 27.687,44.589 27.666,44.619C27.646,44.65 27.615,44.671 27.58,44.68L26.638,44.81ZM28.52,44.547C28.501,44.55 28.481,44.549 28.463,44.544C28.444,44.539 28.427,44.531 28.411,44.519C28.396,44.508 28.383,44.493 28.373,44.477C28.364,44.46 28.357,44.442 28.355,44.423C28.352,44.404 28.353,44.384 28.358,44.366C28.363,44.347 28.371,44.33 28.383,44.314C28.394,44.299 28.409,44.286 28.425,44.276C28.442,44.267 28.46,44.26 28.479,44.258L29.419,44.126C29.458,44.121 29.497,44.131 29.528,44.155C29.559,44.178 29.579,44.213 29.584,44.251C29.59,44.289 29.58,44.328 29.556,44.359C29.533,44.39 29.498,44.411 29.46,44.416L28.52,44.547ZM30.4,44.285C30.381,44.288 30.362,44.286 30.343,44.282C30.324,44.277 30.307,44.268 30.292,44.257C30.276,44.245 30.263,44.231 30.254,44.214C30.244,44.198 30.238,44.179 30.235,44.16C30.232,44.141 30.233,44.122 30.238,44.103C30.243,44.085 30.252,44.067 30.263,44.052C30.275,44.036 30.289,44.024 30.306,44.014C30.322,44.004 30.341,43.998 30.36,43.995L31.3,43.864C31.338,43.859 31.377,43.869 31.408,43.892C31.439,43.916 31.459,43.95 31.465,43.989C31.47,44.027 31.46,44.066 31.437,44.097C31.413,44.128 31.379,44.148 31.34,44.154L30.4,44.285ZM32.28,44.023C32.242,44.028 32.203,44.018 32.172,43.994C32.141,43.971 32.121,43.936 32.115,43.898C32.11,43.859 32.12,43.821 32.143,43.789C32.167,43.759 32.202,43.738 32.24,43.733L33.18,43.602C33.199,43.598 33.219,43.599 33.238,43.604C33.257,43.608 33.274,43.617 33.29,43.628C33.306,43.64 33.319,43.655 33.329,43.671C33.338,43.688 33.345,43.707 33.347,43.726C33.352,43.764 33.342,43.803 33.318,43.834C33.295,43.865 33.261,43.885 33.222,43.891L32.28,44.023ZM34.163,43.76C34.143,43.763 34.124,43.762 34.105,43.757C34.087,43.752 34.069,43.744 34.054,43.732C34.038,43.721 34.025,43.706 34.016,43.69C34.006,43.673 34,43.654 33.997,43.635C33.992,43.597 34.002,43.558 34.026,43.527C34.049,43.496 34.084,43.475 34.122,43.47L35.067,43.338C35.106,43.333 35.145,43.343 35.176,43.366C35.207,43.39 35.227,43.425 35.233,43.463C35.238,43.501 35.228,43.54 35.204,43.571C35.181,43.602 35.146,43.623 35.108,43.628L34.163,43.76ZM36.043,43.498C36.004,43.503 35.965,43.493 35.935,43.469C35.904,43.446 35.883,43.411 35.878,43.373C35.872,43.335 35.883,43.295 35.906,43.265C35.929,43.234 35.964,43.213 36.002,43.208L36.943,43.077C36.981,43.071 37.02,43.081 37.051,43.105C37.082,43.128 37.102,43.163 37.108,43.201C37.113,43.24 37.103,43.279 37.08,43.31C37.056,43.341 37.022,43.361 36.983,43.366L36.043,43.498ZM25.696,44.903L25.671,44.906C25.34,44.899 25.012,44.844 24.697,44.741C24.679,44.735 24.662,44.726 24.647,44.713C24.633,44.701 24.621,44.685 24.612,44.668C24.603,44.651 24.598,44.632 24.597,44.613C24.595,44.594 24.597,44.575 24.603,44.556C24.609,44.538 24.619,44.521 24.632,44.507C24.644,44.492 24.659,44.48 24.677,44.471C24.694,44.463 24.712,44.458 24.732,44.456C24.751,44.455 24.77,44.457 24.788,44.463C25.076,44.558 25.376,44.61 25.679,44.617C25.715,44.617 25.751,44.632 25.777,44.657C25.804,44.683 25.82,44.717 25.822,44.754C25.824,44.791 25.813,44.827 25.789,44.856C25.766,44.884 25.733,44.903 25.696,44.908L25.696,44.903ZM37.916,43.198C37.882,43.202 37.847,43.194 37.817,43.175C37.788,43.157 37.766,43.128 37.756,43.095C37.749,43.076 37.746,43.057 37.747,43.037C37.748,43.017 37.753,42.997 37.762,42.979C37.771,42.962 37.783,42.946 37.798,42.933C37.814,42.92 37.832,42.911 37.851,42.906C38.14,42.817 38.415,42.685 38.665,42.514C38.698,42.493 38.737,42.485 38.776,42.493C38.814,42.5 38.847,42.522 38.869,42.555C38.891,42.587 38.899,42.626 38.891,42.664C38.884,42.702 38.861,42.736 38.829,42.757C38.555,42.943 38.254,43.087 37.937,43.186L37.916,43.198ZM23.915,44.328C23.878,44.334 23.841,44.325 23.811,44.304C23.539,44.115 23.296,43.889 23.088,43.631C23.076,43.616 23.067,43.599 23.062,43.58C23.056,43.562 23.055,43.542 23.057,43.523C23.059,43.504 23.065,43.486 23.075,43.469C23.084,43.452 23.097,43.437 23.112,43.425C23.127,43.413 23.144,43.404 23.162,43.399C23.18,43.393 23.2,43.391 23.219,43.393C23.238,43.395 23.257,43.401 23.273,43.411C23.29,43.42 23.305,43.433 23.317,43.448C23.507,43.682 23.729,43.888 23.977,44.059C24.001,44.076 24.019,44.1 24.03,44.127C24.04,44.154 24.042,44.184 24.035,44.212C24.028,44.241 24.013,44.266 23.991,44.286C23.97,44.306 23.943,44.319 23.914,44.323L23.915,44.328ZM39.468,42.158C39.439,42.162 39.41,42.157 39.384,42.144C39.358,42.131 39.336,42.11 39.322,42.085C39.308,42.059 39.301,42.03 39.304,42.001C39.306,41.972 39.317,41.944 39.335,41.922C39.527,41.689 39.684,41.43 39.801,41.153C39.809,41.135 39.819,41.119 39.833,41.105C39.847,41.092 39.863,41.081 39.881,41.074C39.898,41.067 39.917,41.063 39.937,41.063C39.956,41.064 39.975,41.068 39.993,41.075C40.01,41.083 40.027,41.093 40.04,41.107C40.054,41.121 40.065,41.137 40.072,41.154C40.079,41.172 40.083,41.191 40.083,41.21C40.083,41.23 40.079,41.249 40.072,41.266C39.944,41.572 39.772,41.857 39.562,42.113C39.536,42.132 39.505,42.142 39.473,42.141L39.468,42.158ZM22.747,42.877C22.714,42.881 22.681,42.874 22.653,42.858C22.624,42.842 22.602,42.816 22.59,42.786C22.487,42.53 22.416,42.262 22.378,41.989L22.356,41.832C22.351,41.793 22.361,41.754 22.385,41.723C22.408,41.693 22.443,41.672 22.481,41.667C22.52,41.661 22.559,41.672 22.59,41.695C22.621,41.718 22.641,41.753 22.646,41.791L22.668,41.948C22.703,42.198 22.768,42.442 22.861,42.676C22.875,42.712 22.874,42.751 22.859,42.786C22.844,42.821 22.816,42.849 22.78,42.863C22.768,42.864 22.756,42.864 22.744,42.861L22.747,42.877ZM40.189,40.431C40.178,40.434 40.167,40.435 40.155,40.435C40.117,40.431 40.082,40.412 40.058,40.383C40.033,40.353 40.021,40.316 40.024,40.278C40.049,40.029 40.045,39.778 40.011,39.53L39.988,39.368C39.983,39.33 39.993,39.291 40.017,39.26C40.04,39.229 40.075,39.208 40.113,39.203C40.151,39.198 40.19,39.208 40.221,39.231C40.252,39.255 40.273,39.289 40.278,39.328L40.301,39.49C40.339,39.761 40.344,40.035 40.316,40.307C40.309,40.336 40.292,40.362 40.269,40.382C40.246,40.401 40.217,40.413 40.187,40.415L40.189,40.431ZM22.388,41.001C22.35,41.006 22.311,40.996 22.28,40.973C22.249,40.949 22.228,40.914 22.223,40.876L22.092,39.936C22.087,39.898 22.097,39.859 22.12,39.828C22.143,39.797 22.178,39.776 22.217,39.771C22.255,39.765 22.294,39.776 22.325,39.799C22.356,39.822 22.376,39.857 22.382,39.896L22.513,40.837C22.517,40.876 22.507,40.914 22.484,40.944C22.46,40.975 22.426,40.995 22.388,41.001ZM40.024,38.528C40.005,38.531 39.986,38.53 39.967,38.525C39.948,38.52 39.931,38.512 39.915,38.5C39.9,38.489 39.887,38.474 39.877,38.457C39.868,38.441 39.861,38.422 39.859,38.403L39.728,37.463C39.727,37.426 39.739,37.391 39.763,37.363C39.786,37.335 39.819,37.317 39.855,37.312C39.891,37.307 39.928,37.315 39.958,37.336C39.989,37.356 40.01,37.387 40.019,37.422L40.151,38.362C40.153,38.382 40.152,38.401 40.147,38.42C40.142,38.439 40.134,38.456 40.122,38.472C40.11,38.487 40.095,38.5 40.079,38.509C40.062,38.519 40.043,38.525 40.024,38.528Z" style="fill:rgb(243,239,255);fill-rule:nonzero;"/>
                <path d="M22.183,38.468C22.171,38.388 22.097,38.332 22.017,38.343C21.937,38.354 21.882,38.428 21.893,38.508L21.96,38.99C21.971,39.07 22.045,39.125 22.125,39.114C22.205,39.103 22.261,39.029 22.25,38.949L22.183,38.468Z" style="fill:rgb(243,239,255);fill-rule:nonzero;"/>
                <path d="M27.807,49.741C27.538,49.779 27.264,49.708 27.046,49.544C26.829,49.379 26.685,49.135 26.648,48.865L25.749,42.424L27.786,42.14L28.685,48.583C28.704,48.717 28.696,48.853 28.661,48.983C28.627,49.114 28.568,49.236 28.486,49.344C28.405,49.451 28.303,49.542 28.186,49.61C28.07,49.678 27.941,49.723 27.807,49.741Z" style="fill:rgb(255,29,110);fill-rule:nonzero;"/>
                <path d="M28.23,44.997L26.1,45.295C25.891,45.324 25.703,45.434 25.576,45.603C25.449,45.771 25.394,45.982 25.423,46.191L25.578,47.3C25.607,47.509 25.719,47.697 25.887,47.824C26.055,47.951 26.267,48.006 26.476,47.977L28.605,47.68C28.813,47.65 29.002,47.539 29.129,47.371C29.256,47.202 29.311,46.99 29.281,46.782L29.127,45.672C29.112,45.569 29.078,45.47 29.025,45.38C28.972,45.29 28.902,45.212 28.819,45.149C28.735,45.086 28.641,45.041 28.54,45.015C28.439,44.989 28.334,44.983 28.23,44.997ZM28.318,46.8C28.326,46.857 28.311,46.915 28.276,46.961C28.242,47.007 28.19,47.038 28.133,47.046L26.753,47.238C26.725,47.242 26.696,47.241 26.668,47.234C26.641,47.227 26.615,47.215 26.592,47.198C26.569,47.18 26.55,47.159 26.535,47.134C26.521,47.11 26.511,47.083 26.507,47.054L26.385,46.175C26.377,46.118 26.391,46.06 26.426,46.014C26.46,45.968 26.512,45.938 26.568,45.929L27.948,45.737C28.006,45.729 28.064,45.744 28.11,45.779C28.156,45.813 28.186,45.865 28.194,45.922L28.318,46.8Z" style="fill:rgb(134,93,255);fill-rule:nonzero;"/>
                <path d="M37.206,48.428C36.936,48.466 36.661,48.395 36.444,48.231C36.226,48.067 36.082,47.823 36.044,47.553L35.145,41.109L37.179,40.826L38.078,47.267C38.115,47.537 38.045,47.81 37.881,48.028C37.718,48.245 37.475,48.389 37.206,48.428Z" style="fill:rgb(255,29,110);fill-rule:nonzero;"/>
                <path d="M37.626,43.683L35.496,43.98C35.287,44.009 35.099,44.12 34.973,44.288C34.846,44.455 34.791,44.667 34.82,44.875L34.975,45.986C35.004,46.194 35.115,46.383 35.283,46.51C35.451,46.637 35.663,46.692 35.872,46.663L38.002,46.365C38.21,46.336 38.399,46.225 38.525,46.057C38.652,45.889 38.706,45.678 38.677,45.469L38.523,44.36C38.508,44.257 38.474,44.157 38.421,44.067C38.368,43.977 38.298,43.899 38.215,43.836C38.131,43.773 38.036,43.727 37.936,43.701C37.835,43.675 37.729,43.669 37.626,43.683ZM37.714,45.487C37.719,45.516 37.717,45.544 37.71,45.572C37.703,45.6 37.691,45.626 37.674,45.649C37.657,45.671 37.635,45.691 37.611,45.705C37.586,45.719 37.559,45.729 37.531,45.733L36.15,45.926C36.094,45.933 36.036,45.918 35.99,45.883C35.945,45.848 35.914,45.797 35.906,45.74L35.784,44.86C35.776,44.803 35.791,44.745 35.825,44.699C35.859,44.653 35.911,44.623 35.968,44.615L37.348,44.422C37.405,44.414 37.462,44.43 37.508,44.465C37.554,44.499 37.584,44.551 37.592,44.608L37.714,45.487Z" style="fill:rgb(134,93,255);fill-rule:nonzero;"/>
                <path d="M22.846,56.208L23.274,56.148L22.017,47.141L19.907,47.436L20.929,54.757C20.991,55.203 21.228,55.606 21.588,55.878C21.947,56.15 22.399,56.269 22.846,56.208Z" style="fill:rgb(255,29,110);fill-rule:nonzero;"/>
                <path d="M35.671,30.085L34.453,30.255C34.258,30.283 34.122,30.463 34.149,30.658L35.05,37.115C35.077,37.311 35.258,37.447 35.453,37.42L36.671,37.25C36.866,37.222 37.002,37.042 36.975,36.847L36.074,30.39C36.047,30.194 35.867,30.058 35.671,30.085Z" style="fill:rgb(255,29,110);fill-rule:nonzero;"/>
                <path d="M25.473,31.511L24.255,31.681C24.059,31.708 23.923,31.889 23.95,32.084L24.851,38.541C24.879,38.737 25.059,38.873 25.254,38.846L26.472,38.676C26.668,38.648 26.804,38.468 26.776,38.273L25.876,31.816C25.848,31.62 25.668,31.484 25.473,31.511Z" style="fill:rgb(255,29,110);fill-rule:nonzero;"/>
                <path d="M22.024,47.137L19.324,47.513L19.183,46.5C19.159,46.323 19.205,46.143 19.313,46.001C19.421,45.858 19.581,45.764 19.758,45.739L21.79,45.456L22.024,47.137Z" style="fill:rgb(89,0,131);fill-rule:nonzero;"/>
                <path d="M20.771,53.591L20.968,55.007C20.999,55.228 21.076,55.441 21.194,55.633C21.313,55.825 21.471,55.992 21.659,56.126C21.848,56.259 22.063,56.356 22.292,56.41C22.522,56.464 22.761,56.475 22.997,56.442L23.451,56.379L23.253,54.961L22.797,55.025C22.322,55.091 21.842,54.977 21.462,54.708C21.081,54.439 20.833,54.037 20.771,53.591Z" style="fill:rgb(89,0,131);fill-rule:nonzero;"/>
            </g>
        </g>
    </g>
   
</svg>
