<?xml version="1.0" encoding="utf-8"?>
<!-- Generator: Adobe Illustrator 27.5.0, SVG Export Plug-In . SVG Version: 6.00 Build 0)  -->
<svg version="1.1" id="Livello_1" xmlns="http://www.w3.org/2000/svg" xmlns:xlink="http://www.w3.org/1999/xlink" x="0px" y="0px"
	 viewBox="0 0 14 14" enable-background="new 0 0 14 14" xml:space="preserve">
<linearGradient id="SVGID_1_" gradientUnits="userSpaceOnUse" x1="6.5532" y1="15.1328" x2="6.5532" y2="4.5033" gradientTransform="matrix(1 0 0 -1 0 16)">
	<stop  offset="0" style="stop-color:#18C8FF"/>
	<stop  offset="1" style="stop-color:#2DE3E3"/>
</linearGradient>
<path fill="url(#SVGID_1_)" d="M12.9,3.2l-0.2-0.3c-0.4-0.6-0.5-0.6-0.9-1c-0.2-0.2-0.4-0.4-0.6-0.5C10.9,1.2,10.5,1,10,0.9
	C7.6,0.5,3.9,2.4,1.7,5.1C0.4,6.7,0,8.2,0.4,9.3l0,0.1c0.3,0.7,0.4,1,0.9,1.8l0.2,0.3c-0.9-1.1-0.5-3,1.1-5c2.2-2.8,6-4.7,8.5-4.3
	C12,2.3,12.5,2.7,12.9,3.2"/>
<linearGradient id="SVGID_00000052103217322089917530000000576617999228137399_" gradientUnits="userSpaceOnUse" x1="4.4514" y1="15.9922" x2="4.4514" y2="9.1935" gradientTransform="matrix(1 0 0 -1 0 16)">
	<stop  offset="0" style="stop-color:#18C8FF"/>
	<stop  offset="1" style="stop-color:#2DE3E3"/>
</linearGradient>
<path fill="url(#SVGID_00000052103217322089917530000000576617999228137399_)" d="M8.9,0.3C8.7,0.2,8.4,0.1,8.1,0.1
	C7.5,0,7.4,0,6.9,0C5.1,0,2.7,1.3,1.3,3.2C0.8,3.7,0.5,4.3,0.4,4.8l0,0.2C0.2,5.5,0.1,5.6,0.1,6.2C0,6.4,0,6.6,0,6.8
	C0,6,0.5,4.9,1.3,3.9c1.9-2.4,5.2-4,7.3-3.7C8.7,0.2,8.8,0.2,8.9,0.3"/>
<linearGradient id="SVGID_00000149379228211842220870000015805231269449923494_" gradientUnits="userSpaceOnUse" x1="8.3337" y1="11.9258" x2="8.3337" y2="2.0865" gradientTransform="matrix(1 0 0 -1 0 16)">
	<stop  offset="0" style="stop-color:#18C8FF"/>
	<stop  offset="1" style="stop-color:#2DE3E3"/>
</linearGradient>
<path fill="url(#SVGID_00000149379228211842220870000015805231269449923494_)" d="M14,7.7c0-0.6,0-0.7,0-1.3c0-0.2-0.1-0.4-0.1-0.6
	c-0.2-0.9-0.8-1.5-1.9-1.7c-2.3-0.4-5.9,1.4-7.9,4c-1.8,2.2-1.9,4.3-0.4,5.1c0.2,0.1,0.6,0.3,0.8,0.4c0.3,0.1,0.7,0.2,0.9,0.3
	c-1.9-0.4-2.1-2.5-0.3-4.8c1.8-2.3,5-3.9,7.1-3.6C13.5,5.8,14.1,6.6,14,7.7"/>
<linearGradient id="SVGID_00000167358487822506698780000012509335083876284857_" gradientUnits="userSpaceOnUse" x1="9.7702" y1="8.293" x2="9.7702" y2="1.9994" gradientTransform="matrix(1 0 0 -1 0 16)">
	<stop  offset="0" style="stop-color:#18C8FF"/>
	<stop  offset="1" style="stop-color:#2DE3E3"/>
</linearGradient>
<path fill="url(#SVGID_00000167358487822506698780000012509335083876284857_)" d="M9.5,12.9c-0.6-0.1-0.6-0.7-0.1-1.3
	c0.5-0.6,1.4-1.1,1.9-1c0.6,0.1,0.6,0.7,0.1,1.3S10.1,13,9.5,12.9c-0.7,0.6-1.4,0.9-2.2,1.1c0.4,0.1,0.9,0,1.4-0.1l0.2-0.1
	c0.2-0.1,0.4-0.1,0.7-0.2c0.4-0.2,0.4-0.2,0.6-0.3c0.3-0.2,0.3-0.2,0.5-0.3c0.3-0.2,0.3-0.2,0.5-0.3c0.3-0.2,0.3-0.2,0.5-0.4
	c0.3-0.3,0.3-0.3,0.4-0.4c0.3-0.3,0.3-0.3,0.4-0.5c0.2-0.2,0.3-0.4,0.4-0.6l0-0.1c0.9-1.5,0.7-2.8-0.7-3C10.7,7.5,8.3,8.7,7,10.4
	c-1.4,1.7-1.2,3.3,0.3,3.6C8.1,13.8,8.8,13.5,9.5,12.9"/>
<linearGradient id="SVGID_00000166676115685056659670000003456239658747939718_" gradientUnits="userSpaceOnUse" x1="-1.1762" y1="11.7201" x2="14.7839" y2="6.5042" gradientTransform="matrix(1 0 0 -1 0 16)">
	<stop  offset="0" style="stop-color:#FFFFFF"/>
	<stop  offset="0.3672" style="stop-color:#865DFF"/>
	<stop  offset="0.7183" style="stop-color:#E0A3FF"/>
	<stop  offset="1" style="stop-color:#FFFFFF"/>
</linearGradient>
<ellipse fill="url(#SVGID_00000166676115685056659670000003456239658747939718_)" cx="7.1" cy="7" rx="6.4" ry="6.5"/>
<linearGradient id="SVGID_00000099635664899213220740000015711564195812133785_" gradientUnits="userSpaceOnUse" x1="4.3963" y1="11.9896" x2="10.9326" y2="4.3812" gradientTransform="matrix(1 0 0 -1 0 16)">
	<stop  offset="0" style="stop-color:#5AFFFF"/>
	<stop  offset="1" style="stop-color:#784AFF"/>
</linearGradient>
<path fill="url(#SVGID_00000099635664899213220740000015711564195812133785_)" d="M3.2,12.3c2.5,0.4,6.3-1.5,8.5-4.3
	c1.5-1.9,1.9-3.7,1.2-4.8l-0.2-0.3c-0.3-0.4-0.4-0.5-0.9-1c-0.1-0.1-0.3-0.3-0.5-0.4c1.1,1,0.9,3-0.8,5.1c-2.1,2.7-5.8,4.6-8.2,4.2
	c0,0,0,0,0,0c-1-0.2-1.6-0.7-1.8-1.4l0,0.1c0.3,0.9,0.5,1.1,0.9,1.8l0.2,0.3C1.9,11.9,2.4,12.2,3.2,12.3C3.1,12.3,3.2,12.3,3.2,12.3
	z"/>
<linearGradient id="SVGID_00000114796423963380646560000007413525517871080578_" gradientUnits="userSpaceOnUse" x1="11.1985" y1="14.6043" x2="11.253" y2="14.5371" gradientTransform="matrix(1 0 0 -1 0 16)">
	<stop  offset="0" style="stop-color:#5AFFFF"/>
	<stop  offset="1" style="stop-color:#784AFF"/>
</linearGradient>
<path fill="url(#SVGID_00000114796423963380646560000007413525517871080578_)" d="M11.3,1.5c0,0-0.1-0.1-0.1-0.1
	C11.2,1.4,11.2,1.4,11.3,1.5z"/>
<linearGradient id="SVGID_00000000184012173984156500000001214632704080063365_" gradientUnits="userSpaceOnUse" x1="2.804" y1="14.4951" x2="5.8306" y2="10.9589" gradientTransform="matrix(1 0 0 -1 0 16)">
	<stop  offset="0" style="stop-color:#5AFFFF"/>
	<stop  offset="1" style="stop-color:#784AFF"/>
</linearGradient>
<path fill="url(#SVGID_00000000184012173984156500000001214632704080063365_)" d="M2,5.3C2,5.3,2,5.3,2,5.3c1.3,0.2,3.1-0.8,4.2-2.1
	c1.1-1.4,1-2.7-0.3-2.9C4.7,0.1,2.8,1.1,1.7,2.5C0.6,3.8,0.7,5.1,2,5.3z M2.6,2.2c0.5-0.6,1.3-1.1,1.9-1C5,1.3,5.1,1.9,4.6,2.5
	s-1.3,1-1.9,1c0,0,0,0,0,0C2.1,3.4,2.1,2.8,2.6,2.2L2.6,2.2z"/>
<linearGradient id="SVGID_00000147216299879064770080000017468917764175402405_" gradientUnits="userSpaceOnUse" x1="3.1238" y1="13.832" x2="8.4532" y2="7.7031" gradientTransform="matrix(1 0 0 -1 0 16)">
	<stop  offset="0" style="stop-color:#5AFFFF"/>
	<stop  offset="1" style="stop-color:#784AFF"/>
</linearGradient>
<path fill="url(#SVGID_00000147216299879064770080000017468917764175402405_)" d="M1.7,8.8C1.7,8.8,1.8,8.8,1.7,8.8
	C3.9,9.2,7.1,7.5,9,5.1c1.8-2.3,1.7-4.4-0.1-4.9C8.7,0.2,8.4,0.1,8.1,0.1C7.7,0,7.3,0,6.9,0c0.2,0,0.4,0,0.6,0
	c1.8,0.3,2,2.2,0.4,4.2c-1.6,2-4.3,3.4-6.1,3.1c0,0,0,0,0,0C0.4,7.1-0.1,6.1,0.4,4.8l0,0.2C0.2,5.5,0.1,5.6,0.1,6.2
	C0,6.4,0,6.6,0,6.8C0,7.9,0.5,8.6,1.7,8.8z"/>
<linearGradient id="SVGID_00000015348222296692741730000002540833130531320478_" gradientUnits="userSpaceOnUse" x1="7.1706" y1="8.5035" x2="12.0377" y2="2.47" gradientTransform="matrix(1 0 0 -1 0 16)">
	<stop  offset="0" style="stop-color:#5AFFFF"/>
	<stop  offset="1" style="stop-color:#784AFF"/>
</linearGradient>
<path fill="url(#SVGID_00000015348222296692741730000002540833130531320478_)" d="M14,6.4c0-0.2-0.1-0.4-0.1-0.6
	c0.2,1-0.3,2.3-1.4,3.7c-2.1,2.6-5.6,4.4-7.9,4c0,0,0,0,0,0c-0.3,0-0.6-0.1-0.9-0.3c0.2,0.1,0.6,0.3,0.8,0.4
	c0.3,0.1,0.7,0.2,0.9,0.3c0.1,0,0.1,0,0.2,0c-0.1,0-0.1,0,0,0c2.1,0.3,5.2-1.3,7-3.6c0.8-1,1.2-1.9,1.3-2.7C14,7.1,14,7.1,14,6.4z"
	/>
<linearGradient id="SVGID_00000031193617427936814580000008939497236237695924_" gradientUnits="userSpaceOnUse" x1="10.1364" y1="4.4613" x2="11.7994" y2="2.1365" gradientTransform="matrix(1 0 0 -1 0 16)">
	<stop  offset="0" style="stop-color:#5AFFFF"/>
	<stop  offset="1" style="stop-color:#784AFF"/>
</linearGradient>
<path fill="url(#SVGID_00000031193617427936814580000008939497236237695924_)" d="M8.7,13.9l0.2-0.1c0.2-0.1,0.4-0.1,0.7-0.2
	c0.2-0.1,0.2-0.1,0.6-0.3c0.2-0.1,0.2-0.1,0.5-0.3c0.2-0.1,0.2-0.1,0.5-0.3c0.1-0.1,0.2-0.1,0.5-0.4c0.2-0.1,0.2-0.1,0.4-0.4
	c0.2-0.2,0.2-0.2,0.4-0.5c0.1-0.1,0.2-0.3,0.3-0.5c-0.1,0.1-0.2,0.2-0.3,0.3C11.6,12.5,10.1,13.5,8.7,13.9z"/>
</svg>
